<svg xmlns="http://www.w3.org/2000/svg" xmlns:xlink="http://www.w3.org/1999/xlink" viewBox="0 0 1611.32 603.51"><defs><style>.cls-1{fill:none;}.cls-2{clip-path:url(#clip-path);}.cls-3{fill:#d7c4ff;}</style><clipPath id="clip-path"><rect class="cls-1" width="1611.32" height="594.61"/></clipPath></defs><g id="Layer_2" data-name="Layer 2"><g id="Layer_1-2" data-name="Layer 1"><g class="cls-2"><path class="cls-3" d="M1611.32,365.93V603h-1351c-88.35-.29-174.1.52-260.34.52V299.19H11.05c.92,18.87,0,38,.46,57.31H36.14v65.82C47,432.45,57.78,442.57,68.37,452.7V300.8c9.89-9.89,19.33-19.33,29.46-29.23h12.66V231.76c2.07,1.84,3,2.76,4.14,3.91C112.56,243,111,250.4,113.94,258c.23.69-.46,1.61-.46,2.3-1.38,6-1.38,6,2.77,11.5H145V423h33.84l2.53-2.53V216.8c0-.46-.92-1.15-1.61-1.61,3.45-2.3,1.84-6.22,2.3-9.44l31.07-31.07h53c7.82,7.83,15.65,15.65,23.94,24.17V305.41h25.32V255.69h5.52c.69-.92,1.38-1.61,1.38-2.3,0-22.32-.46-44.42.23-66.74.47-20,1.85-39.82,3-60.07h52V151.9h15.88v59.38c2.54.23,4.61.23,7.14.46V145h18.41V118.3c1.85-1.15,4.15-2.54,8.75-5.3H474v38c2.53.46,4.6.69,6.9,1.15v93.44l9.44.69v86.3c.46-.46,1.15-.69,1.61-1.15q1,2.76,2.08,5.53h2.3l2.07-5.53c.46.46.92.69,1.15,1.15V297.81c1.84-1.61,3.91-3.22,6.44-5.29h37.76c.92,5.06,1.61,10.35,2.53,15.65H556.6V295.28h16.11v8.28c2.76,1.16,5.29,2.31,9,3.92,1.38,4.6,5.29,10.58-.92,17.49,3.68,1.84,6.67,3.45,8.28,4.14V443.73h11.74V428.3h9V412.19h14v20.26H642v6.67c3.22.23,6,.23,9.43.46v-23h9.44V398.38h9v17.73h11.74V357h56.86l2.76,2.76v63.06h25.55V410.12h9c.23,1.84.46,3.69.69,6H785q.33-5.88.68-13.12h10.82c.23,1.84.7,3.91.93,5.06l5.75-5.75h14.5V175.37h9.21c.23-8.51,0-16.8.23-25.54,2.07,0,3.91-.23,6.67-.46v-8.52c2.54-.23,4.38-.46,6.68-.69v-9.67c1.84-1.61,3.22-3,4.37-4.14.23-.92.46-1.61.7-2.3.91-3.91,0-7.83,1.38-12,1.84-5.75,2.07-12.2,3.22-18.18s-2.76-11.28-3-17.26c0-.92-1.15-1.61-3-3.91a39.92,39.92,0,0,0,5.07-2.3c1.15-11.74,2.53-21.64,3-31.77.46-10.35,0-20.71.23-31.07,0-2.53.23-5.06,2.3-7.59,0,4.14-.23,8.29,0,12.2.92,18.41,1.84,36.82,3,56.15a13.22,13.22,0,0,1,3,.92c.23.69.92,1.39.69,1.85-3.45,9.43-2.31,19.33-2.07,29,0,3.92,2.07,7.83,2.07,11.74a23.94,23.94,0,0,0,2.53,10.59c1.15,2.53,2.53,5.06,4.83,9.89v7.6c2.3.23,4.15.46,6.22.69v5.29c2.53,1.38,4.6,2.77,7.13,4.15v24.39h5.3c.69.69,1.38.92,1.38,1.15V396.32c4.14,4.83,7.59,5.75,11.51.91v-19.1c2.3-.46,4.6-.92,7.13-1.38v-20h9.44v-43.5h13.35c.23-3.91.46-7.59.69-12.2,2.08-.69,4.61-1.84,6.91-1.84,11.05-.23,22.1,0,33.84,0v8.75c3,1.15,6,2.3,9.44,3.68v98.73c1.38,1.61,2.53,2.53,3.68,3.69h6.9c.23-.23.7-.46.7-.7V352.13c4.83-4.84,9.2-9.21,14-13.81,4.14,3.22,9.89,2.3,15.42,2.07a148.12,148.12,0,0,0,16.57-2.07v12c4.15,3.92,10.82-1.61,13.58,4.84-.22,2.07-.46,4.6-.69,7.82a13.15,13.15,0,0,1,1.61,1.84c4.84-.69,9-1.38,13.58-1.84V352.58H1104c.69-.68,1.15-.91,1.38-1.15a1.72,1.72,0,0,0,.46-.91V244.42h8.74V221.86c6-1.84,11.51-3.91,17.27-5.52,4.14-1.15,9.21-.92,12.43-3.22,3.68-2.77,8.75,1.15,11.28-3.69,5.06.46,10.13-5.06,15.42,0h24.4v81.25l3.68,3.68h26c.23,1.61.45,3.45.69,4.83,3.22,3.22,6.44,6.22,9,8.75v55h13.12l2.77-2.76V350.05H1266a39.08,39.08,0,0,0,3.22,3.23v14.5h24.4v11.5h55V297.12h60.08v15.42h14V438.89h43.5c.7,6.22.23,12.43.47,18.41V476c2.29.23,4.14.23,6.67.45v38.67h48.11V363.86c15.42-.92,30.61,0,46-.46V332.79l3.45-3.45h24.17v36.59Z"/></g></g></g></svg>