<svg xmlns="http://www.w3.org/2000/svg" viewBox="0 0 177.85 160.79"><defs><style>.cls-1{fill:#00255a;}</style></defs><g id="Layer_2" data-name="Layer 2"><g id="Layer_1-2" data-name="Layer 1"><path d="M175,49.77H134.53L97.81,13a10.37,10.37,0,0,0,.67-3.45,9.56,9.56,0,1,0-19.12,0A10.13,10.13,0,0,0,80,13L43.31,49.77H2.87A2.81,2.81,0,0,0,0,52.64V157.92a2.88,2.88,0,0,0,2.87,2.87H175a2.88,2.88,0,0,0,2.87-2.87V52.64A2.82,2.82,0,0,0,175,49.77Zm-89.5-31.3a9.17,9.17,0,0,0,6.88,0l31.27,31.3H54.21Zm77.07,127H15.3V65.08H162.55Z"/><path class="cls-1" d="M45.9,94.94a.76.76,0,0,1,.38.39.64.64,0,0,1,0,.57l-2.49,3.54c-.09.19-.19.29-.38.29a1,1,0,0,1-.48-.1,5.38,5.38,0,0,0-1.62-.86,6.12,6.12,0,0,0-1.82-.29,5.83,5.83,0,0,0-2.2.48,5.73,5.73,0,0,0-1.72,1.25,6.4,6.4,0,0,0-1.15,1.91,6.28,6.28,0,0,0-.38,2.3,6.55,6.55,0,0,0,.38,2.29,5.82,5.82,0,0,0,1.15,1.82,4.42,4.42,0,0,0,1.72,1.25,5.64,5.64,0,0,0,2.2.48A6.66,6.66,0,0,0,41.4,110a5.31,5.31,0,0,0,1.63-.86c.19-.1.29-.19.48-.1a1.07,1.07,0,0,1,.38.29l2.48,3.64a.58.58,0,0,1,0,.57.71.71,0,0,1-.38.38,9.44,9.44,0,0,1-3,1.44,9.85,9.85,0,0,1-3.35.48,11.08,11.08,0,0,1-3.06-.39,13.75,13.75,0,0,1-2.68-1.14,8.52,8.52,0,0,1-2.29-1.82,15.24,15.24,0,0,1-1.82-2.3,13.25,13.25,0,0,1-1.14-2.68,10.66,10.66,0,0,1-.39-3.06,11.08,11.08,0,0,1,.39-3.06,11.21,11.21,0,0,1,1.14-2.68,8.41,8.41,0,0,1,1.82-2.3,14.54,14.54,0,0,1,2.29-1.82,13.79,13.79,0,0,1,2.68-1.15A10.66,10.66,0,0,1,39.68,93a12.73,12.73,0,0,1,3.35.48A16.34,16.34,0,0,1,45.9,94.94Z"/><path class="cls-1" d="M49.53,94c0-.2.1-.29.19-.48a.73.73,0,0,1,.48-.19h4.3a1,1,0,0,1,.48.19.69.69,0,0,1,.19.48v16.08H63.3a1,1,0,0,1,.48.19.73.73,0,0,1,.19.47v3.93c0,.19-.1.29-.19.48a.78.78,0,0,1-.48.19H50.1c-.47,0-.66-.19-.66-.67V94Z"/><path class="cls-1" d="M65.78,104.42a11.08,11.08,0,0,1,.39-3.06,11.21,11.21,0,0,1,1.14-2.68,8.41,8.41,0,0,1,1.82-2.3,14.64,14.64,0,0,1,2.3-1.82,9.68,9.68,0,0,1,2.67-1.15A10.66,10.66,0,0,1,77.16,93a10,10,0,0,1,3,.38,11.32,11.32,0,0,1,2.67,1.15,10,10,0,0,1,2.3,1.82,14.76,14.76,0,0,1,1.82,2.3,13.25,13.25,0,0,1,1.14,2.68,10.62,10.62,0,0,1,.39,3.06,11.08,11.08,0,0,1-.39,3.06,13.25,13.25,0,0,1-1.14,2.68,8.56,8.56,0,0,1-1.82,2.3,15.24,15.24,0,0,1-2.3,1.82,9.36,9.36,0,0,1-2.67,1.14,10.46,10.46,0,0,1-3,.39,11.13,11.13,0,0,1-3.06-.39,13.41,13.41,0,0,1-2.67-1.14,8.56,8.56,0,0,1-2.3-1.82,15.24,15.24,0,0,1-1.82-2.3,13.25,13.25,0,0,1-1.14-2.68A17.93,17.93,0,0,1,65.78,104.42Zm5.74-.1a5.65,5.65,0,0,0,1.53,4.12,5.37,5.37,0,0,0,4,1.72,6.05,6.05,0,0,0,2.29-.48,5.67,5.67,0,0,0,1.82-1.24,5.48,5.48,0,0,0,1.15-1.82,5.94,5.94,0,0,0,.38-2.3,6.55,6.55,0,0,0-.38-2.29,8,8,0,0,0-1.15-1.92,4.09,4.09,0,0,0-1.82-1.24,5.7,5.7,0,0,0-2.29-.48,6.14,6.14,0,0,0-2.3.48,5.53,5.53,0,0,0-1.72,1.24A5.4,5.4,0,0,0,71.9,102,9.62,9.62,0,0,0,71.52,104.32Z"/><path class="cls-1" d="M93.89,108.25a2.52,2.52,0,0,1,.67.57c.29.19.58.48.86.67a4.69,4.69,0,0,0,1.53.77,4.39,4.39,0,0,0,1.53.28,4.16,4.16,0,0,0,1.25-.19,1.41,1.41,0,0,0,.76-.48,1,1,0,0,0,.38-.67c0-.28.1-.47.1-.76a1.17,1.17,0,0,0-.38-.86,2.05,2.05,0,0,0-.86-.67,4.65,4.65,0,0,0-1-.48,5,5,0,0,0-1-.29,23.63,23.63,0,0,1-3.16-1.34,10.14,10.14,0,0,1-2.2-1.63,5.85,5.85,0,0,1-1.81-4.3,5.31,5.31,0,0,1,.57-2.49,4.45,4.45,0,0,1,1.63-1.92,6.88,6.88,0,0,1,2.48-1.24,11,11,0,0,1,3.25-.48,12,12,0,0,1,2.59.29,7.36,7.36,0,0,1,2.39,1,7.94,7.94,0,0,1,1,.57,5.13,5.13,0,0,1,.77.57l.57.58a1,1,0,0,1,.19.48.61.61,0,0,1-.09.38,1.39,1.39,0,0,0-.29.38l-2.29,2.4a.91.91,0,0,1-.48.28.62.62,0,0,1-.39-.09,1.25,1.25,0,0,0-.38-.29l-.09-.1a1.7,1.7,0,0,0-.67-.47,3,3,0,0,0-.77-.48c-.28-.1-.57-.29-.86-.39a3.1,3.1,0,0,0-.95-.09,3.48,3.48,0,0,0-1,.09c-.29.1-.57.1-.77.29a1.14,1.14,0,0,0-.47.48,1.33,1.33,0,0,0-.19.67,2.18,2.18,0,0,0,.19.77,2,2,0,0,0,.67.57,2.7,2.7,0,0,0,1,.48,12.46,12.46,0,0,0,1.43.48c1.05.38,2,.67,2.87,1a12.55,12.55,0,0,1,2.29,1.34,5.24,5.24,0,0,1,2.11,4.4,6.15,6.15,0,0,1-.67,3,8.37,8.37,0,0,1-1.82,2.3,7,7,0,0,1-2.77,1.43A10.92,10.92,0,0,1,95,115a13.46,13.46,0,0,1-3.06-1.63,4.38,4.38,0,0,1-1-.86l-.67-.67c-.19-.29-.38-.48-.38-.58a.68.68,0,0,1,.38-.57l2.49-2.49a.62.62,0,0,1,.48-.19.35.35,0,0,1,.28.09A.48.48,0,0,1,93.89,108.25Z"/><path class="cls-1" d="M110.53,94a.65.65,0,0,1,.67-.67h14.72a.65.65,0,0,1,.67.67v3.63a1,1,0,0,1-.19.48c-.09.19-.28.19-.48.19h-9.56v3.64h7.36c.2,0,.39,0,.48.1a.53.53,0,0,1,.19.47v3.16a.71.71,0,0,1-.19.39.73.73,0,0,1-.48.19h-7.45v3.83h9.94c.48,0,.67.19.67.66v3.74a.35.35,0,0,1-.09.28c0,.29-.29.39-.58.39h-15a.65.65,0,0,1-.67-.67Z"/><path class="cls-1" d="M149.64,104.42a10,10,0,0,1-.38,3,13.79,13.79,0,0,1-1.15,2.68,8,8,0,0,1-1.82,2.2A10.33,10.33,0,0,1,144,114a9.07,9.07,0,0,1-2.68,1.05,10.37,10.37,0,0,1-3,.38H131c-.2,0-.39,0-.48-.09a.73.73,0,0,1-.19-.48V94a.65.65,0,0,1,.67-.67h7.26a10,10,0,0,1,3,.38,23.53,23.53,0,0,1,2.67,1,10.39,10.39,0,0,1,2.3,1.72A20.56,20.56,0,0,1,148,98.68a13.25,13.25,0,0,1,1.14,2.68A10.64,10.64,0,0,1,149.64,104.42Zm-13.58-5.74v11.39H138a1.59,1.59,0,0,0,.67-.1,7.68,7.68,0,0,0,2.1-.58,5.27,5.27,0,0,0,1.72-1.14,5.51,5.51,0,0,0,1.15-1.73,5.44,5.44,0,0,0,.38-2.2,5.7,5.7,0,0,0-.48-2.29,6.17,6.17,0,0,0-1.24-1.82,6.53,6.53,0,0,0-1.91-1.15,5.76,5.76,0,0,0-2.3-.38Z"/></g></g></svg>