<svg xmlns="http://www.w3.org/2000/svg" viewBox="0 0 82.03 76.21"><defs><style>.cls-1{fill:none;stroke:#000;stroke-linejoin:round;stroke-width:3px;}</style></defs><g id="Laag_2" data-name="Laag 2"><g id="Laag_1-2" data-name="Laag 1"><path d="M20.29,45.84a.47.47,0,0,1,.18.19.3.3,0,0,1,0,.27L19.24,48a.28.28,0,0,1-.17.14.35.35,0,0,1-.22-.06,2.71,2.71,0,0,0-.77-.41,2.91,2.91,0,0,0-.89-.14,2.62,2.62,0,0,0-2.48,1.73,2.87,2.87,0,0,0-.2,1.1,2.82,2.82,0,0,0,.2,1.09,2.67,2.67,0,0,0,1.4,1.5,2.77,2.77,0,0,0,2,.07,2.91,2.91,0,0,0,.78-.41.31.31,0,0,1,.21-.06.26.26,0,0,1,.17.13l1.22,1.75a.27.27,0,0,1,0,.27.35.35,0,0,1-.17.17,5.5,5.5,0,0,1-3.08.95,5.34,5.34,0,0,1-1.45-.2,5.05,5.05,0,0,1-1.31-.55,5.31,5.31,0,0,1-1.1-.85,5.67,5.67,0,0,1-.85-1.1,5.19,5.19,0,0,1-.55-1.3,5.63,5.63,0,0,1,0-2.9,5.52,5.52,0,0,1,1.4-2.42,5.31,5.31,0,0,1,1.1-.85,5.42,5.42,0,0,1,1.31-.55,5.48,5.48,0,0,1,3.07,0A5.71,5.71,0,0,1,20.29,45.84Z"/><path d="M22,45.38a.38.38,0,0,1,.08-.23.32.32,0,0,1,.24-.09h2.11a.31.31,0,0,1,.22.09.27.27,0,0,1,.11.23v7.76H28.7a.31.31,0,0,1,.22.09.3.3,0,0,1,.09.23v1.88a.35.35,0,0,1-.08.22.32.32,0,0,1-.23.11H22.32a.27.27,0,0,1-.31-.31Z"/><path d="M29.87,50.38a5.34,5.34,0,0,1,.19-1.45,5.52,5.52,0,0,1,1.4-2.42,5.11,5.11,0,0,1,1.11-.85,5.4,5.4,0,0,1,4.2-.55,5.26,5.26,0,0,1,1.31.55,5.32,5.32,0,0,1,2,2,5.42,5.42,0,0,1,.55,1.31,5.36,5.36,0,0,1,0,2.9,5.19,5.19,0,0,1-.55,1.3,5.31,5.31,0,0,1-.85,1.1,5.11,5.11,0,0,1-1.11.85,4.91,4.91,0,0,1-1.31.55,5.34,5.34,0,0,1-1.45.2,5.4,5.4,0,0,1-1.45-.2,5,5,0,0,1-1.3-.55,5.11,5.11,0,0,1-1.11-.85,5.67,5.67,0,0,1-.85-1.1,5.19,5.19,0,0,1-.55-1.3A5.34,5.34,0,0,1,29.87,50.38Zm2.76,0a3.08,3.08,0,0,0,.2,1.11,2.79,2.79,0,0,0,.56.9,2.55,2.55,0,0,0,.85.59,2.73,2.73,0,0,0,3-.59,3,3,0,0,0,.56-.9,3.15,3.15,0,0,0,0-2.21,2.85,2.85,0,0,0-.56-.9,2.64,2.64,0,0,0-.86-.61,2.64,2.64,0,0,0-3,.61,2.68,2.68,0,0,0-.56.9A3.11,3.11,0,0,0,32.63,50.37Z"/><path d="M43.42,52.24l.31.27a4.2,4.2,0,0,0,.44.33,3.58,3.58,0,0,0,.72.38,2,2,0,0,0,.75.14,1.82,1.82,0,0,0,.61-.09.92.92,0,0,0,.38-.21.75.75,0,0,0,.21-.32,1.15,1.15,0,0,0,.06-.37.58.58,0,0,0-.17-.4,1.64,1.64,0,0,0-.41-.31,2.94,2.94,0,0,0-.51-.23l-.45-.16a10.69,10.69,0,0,1-1.5-.65,4.53,4.53,0,0,1-1.07-.77,2.72,2.72,0,0,1-.64-.93,2.79,2.79,0,0,1-.22-1.14,2.72,2.72,0,0,1,.27-1.21,2.59,2.59,0,0,1,.76-.92,3.56,3.56,0,0,1,1.2-.6,5.4,5.4,0,0,1,1.56-.21A5.16,5.16,0,0,1,47,45a5,5,0,0,1,1.17.46l.46.3a3.15,3.15,0,0,1,.38.3,1.3,1.3,0,0,1,.26.27.35.35,0,0,1,.1.22.34.34,0,0,1-.05.17.89.89,0,0,1-.14.18l-1.09,1.16a.35.35,0,0,1-.24.12.27.27,0,0,1-.18-.05,1.19,1.19,0,0,1-.18-.15l-.07,0a3,3,0,0,0-.32-.25,1.76,1.76,0,0,0-.37-.23,2.65,2.65,0,0,0-.42-.18,1.74,1.74,0,0,0-.45-.06,2,2,0,0,0-.44,0,1.07,1.07,0,0,0-.37.12.69.69,0,0,0-.25.23.66.66,0,0,0,0,.68,1,1,0,0,0,.3.27,2.8,2.8,0,0,0,.49.24l.69.24c.51.16,1,.34,1.4.52a4.5,4.5,0,0,1,1.1.65,2.76,2.76,0,0,1,.73.9,2.83,2.83,0,0,1,.26,1.26,3.15,3.15,0,0,1-.32,1.42,3.24,3.24,0,0,1-.89,1.09,4.21,4.21,0,0,1-1.31.7,5.4,5.4,0,0,1-1.63.24A4.45,4.45,0,0,1,44,55.51a6,6,0,0,1-1.48-.79,3.38,3.38,0,0,1-.48-.4c-.13-.14-.24-.24-.31-.33l0,0,0,0a0,0,0,0,1,0,0h0a.53.53,0,0,1-.17-.29.42.42,0,0,1,.17-.27l1.23-1.18a.48.48,0,0,1,.25-.11.38.38,0,0,1,.13,0Z"/><path d="M51.45,45.4a.32.32,0,0,1,.09-.24.29.29,0,0,1,.23-.09h7.08a.32.32,0,0,1,.24.09.35.35,0,0,1,.09.25v1.77a.37.37,0,0,1-.09.23.31.31,0,0,1-.25.11H54.22v1.77h3.56a.41.41,0,0,1,.23.06.25.25,0,0,1,.09.22v1.54a.29.29,0,0,1-.08.19.29.29,0,0,1-.23.09H54.22v1.83H59c.22,0,.32.11.32.33v1.79a.21.21,0,0,1,0,.13c0,.13-.12.2-.3.2H51.77a.34.34,0,0,1-.23-.08.27.27,0,0,1-.09-.23Z"/><path d="M70.27,50.38a5.68,5.68,0,0,1-.19,1.44,5.15,5.15,0,0,1-1.41,2.34,4.89,4.89,0,0,1-1.1.81,5.52,5.52,0,0,1-1.3.52,5.76,5.76,0,0,1-1.45.18H61.3a.46.46,0,0,1-.23-.06.27.27,0,0,1-.1-.24v-10a.37.37,0,0,1,.09-.25.3.3,0,0,1,.24-.09h3.52a5.39,5.39,0,0,1,1.45.19,5.46,5.46,0,0,1,1.3.53,5.17,5.17,0,0,1,1.1.82,4.88,4.88,0,0,1,.85,1.07A5.05,5.05,0,0,1,70.07,49,5.15,5.15,0,0,1,70.27,50.38Zm-6.53-2.76v5.49h.92l.31,0a3,3,0,0,0,1-.26,3,3,0,0,0,.81-.57,2.7,2.7,0,0,0,.54-.83,2.59,2.59,0,0,0,.2-1.05,2.67,2.67,0,0,0-.22-1.1,2.73,2.73,0,0,0-.61-.87,2.6,2.6,0,0,0-.91-.57,2.87,2.87,0,0,0-1.1-.21Z"/><rect class="cls-1" x="1.5" y="27.6" width="79.03" height="47.11"/><polyline class="cls-1" points="17.91 28.05 40.96 4.99 64.13 28.16"/><circle cx="41.02" cy="4.88" r="4.88"/></g></g></svg>