<svg width="90" height="123" viewBox="0 0 90 123" fill="none" xmlns="http://www.w3.org/2000/svg">
<path d="M88.9628 112.632C89.1248 114.252 89.1248 115.711 89.2869 117.331C88.9628 117.331 88.6387 117.331 88.4766 117.331C87.9904 117.169 87.5042 117.169 87.018 117.007C85.8836 116.683 84.7492 116.845 83.6148 117.331C80.2116 119.114 76.6462 119.762 72.9188 120.735C72.1085 121.059 71.2983 121.221 70.8121 122.031C70.65 122.355 69.8397 122.679 69.5156 122.517C67.4088 122.517 65.14 122.517 63.0332 122.193C60.7644 121.869 58.9818 120.735 57.6853 118.79C57.5232 118.466 57.1991 118.304 57.037 118.142C54.282 116.683 51.6891 115.225 48.934 113.766C48.2858 113.442 48.2858 113.118 48.4479 112.47C49.4202 109.39 50.2306 106.311 51.2029 103.232C51.365 102.746 51.2029 102.422 50.7168 102.098C49.0962 101.287 47.4756 100.477 45.855 99.6668C45.3688 99.3427 44.8826 99.0186 44.2344 98.5324C45.3688 97.2359 46.3411 96.1015 47.4756 94.9671C48.1238 94.3188 48.9341 93.6706 49.0962 92.6982C49.0962 92.3741 49.5823 92.2121 49.7443 92.05C50.2305 91.4018 50.7167 90.7535 51.2029 90.1053C51.365 89.9432 51.2029 89.6191 51.2029 89.4571C51.0409 89.1329 50.7167 88.6468 50.3926 88.1606C50.8788 88.1606 51.2029 88.1606 51.6891 88.1606C52.9855 88.1606 54.1199 88.3226 55.4164 88.4847C56.0647 88.4847 56.7129 88.3226 57.037 87.8365C57.1991 87.6744 57.1991 87.5124 57.3612 87.1882C58.1715 87.9985 58.9818 88.6468 59.63 89.4571C60.7644 90.7535 62.2229 91.5639 64.0056 91.5639C67.4088 91.5639 70.65 91.4018 74.0533 91.2397C75.0256 91.2397 75.8359 91.2397 76.8083 91.2397C77.1324 91.2397 77.4566 91.5638 77.4566 91.7259C77.9428 92.6982 78.4289 93.8327 78.9151 94.8051C79.4012 95.7774 79.8874 96.5877 81.0218 96.4256C81.3459 96.4256 81.6701 96.4256 81.9942 96.5877C83.9389 97.0738 85.5595 96.2636 87.5042 95.9394H87.6663C89.2869 95.6153 89.7731 96.1015 89.2869 97.7221C89.2869 97.8842 89.2868 98.0462 89.1248 98.2083C88.8007 98.6944 88.9628 99.1806 89.611 99.5048C89.449 99.6668 89.449 99.9909 89.2869 100.153C89.1248 100.477 88.9628 100.801 89.2869 101.125C89.449 101.287 89.2869 101.449 89.2869 101.612C89.1248 101.612 88.9628 101.612 88.8007 101.449C88.1525 101.125 87.5042 101.125 87.5042 101.936C87.3421 102.422 87.3422 103.07 87.018 103.232C86.6939 103.394 86.2078 103.07 85.7216 103.07C84.9113 103.07 84.263 103.394 83.4527 103.556C83.4527 103.556 83.2907 103.718 83.2907 103.88C83.4527 104.529 83.6148 105.339 83.939 105.825C84.2631 106.473 84.9113 106.797 85.2354 107.284C85.5595 107.608 85.7215 107.932 85.8836 108.256C86.0457 108.58 86.3698 108.904 86.5319 109.066C87.6663 109.877 88.3145 111.173 88.9628 112.307C88.9628 112.47 88.9628 112.632 88.9628 112.632Z" fill="#625098"/>
<path d="M23.1641 27.8743C22.5159 29.1708 22.678 30.6293 21.7056 31.6017C21.5435 31.9258 21.0574 32.0879 20.7332 32.0879C20.5712 32.2499 20.2471 32.2499 20.085 32.2499C19.2747 32.412 18.4644 32.8982 18.1403 33.7084C17.6541 34.8429 17.0059 35.8152 16.3577 36.9496C16.1956 37.1117 16.1956 37.4358 16.1956 37.5979C16.1956 39.5426 16.1956 41.4873 16.0335 43.5941C16.0335 44.0803 16.1956 44.7285 15.8714 44.8905C15.5473 45.2147 15.0612 45.2147 14.575 45.2147C13.2785 45.5388 11.982 45.8629 10.6856 46.025C10.3615 46.025 10.0373 46.025 9.7132 45.8629C9.22703 45.7009 8.57879 45.8629 8.09261 46.1871C7.93055 46.3491 7.60643 46.6732 7.28231 46.6732C6.30995 46.8353 5.33757 46.8353 4.36521 46.8353C3.87903 46.8353 3.71699 46.6732 3.87905 46.1871C3.87905 46.025 3.87905 45.7008 3.87905 45.5388C2.25846 42.7838 2.0964 39.5426 1.44816 36.4635C0.961979 34.1946 0.961999 31.6017 0.151701 29.3328C-0.172418 28.3605 -0.0103584 28.0363 0.961999 27.7122C3.06877 27.064 5.33761 26.4158 7.44438 25.6055C7.7685 25.4434 7.93056 25.2814 8.25468 25.1193C8.5788 24.9573 9.06495 24.7952 9.38906 24.6331C9.71318 24.471 10.1994 24.309 10.5235 24.309C10.6856 24.309 11.0097 24.309 11.0097 24.471C11.4958 25.4434 12.1441 25.1193 12.7923 24.9572C14.0888 24.6331 15.5473 24.1469 16.8438 23.8228C17.1679 23.6607 17.4921 23.4987 17.6541 23.3366C17.9782 23.0125 19.2747 23.3366 19.4368 23.8228C19.7609 24.7952 20.085 25.7675 20.5712 26.5778C20.7332 26.902 21.3815 27.2261 21.8677 27.3881C22.678 27.5502 22.84 27.7122 23.1641 27.8743Z" fill="#625098"/>
<path d="M26.5641 70.658C26.4021 70.8201 26.078 71.1442 25.9159 71.3063C25.5918 71.7925 25.2676 72.2786 24.9435 72.7648C24.4573 73.5751 23.9712 73.5751 23.485 72.9269C23.1609 72.6028 22.9988 72.4407 22.6747 72.7648C22.3506 73.0889 22.1885 73.4131 21.8644 73.7372C20.5679 75.1957 19.2715 76.4922 17.975 77.9507C17.975 77.9507 17.8129 78.1128 17.6508 78.2748C17.1647 77.6266 16.6785 76.8163 16.1923 76.1681C15.22 74.7095 14.4096 73.4131 13.2752 71.9545C12.789 71.3063 12.3029 70.658 11.4926 70.3339C10.6823 69.8477 10.3582 68.8754 9.70994 68.2271C8.73758 66.7686 8.25141 64.986 8.25141 63.2033C8.25141 60.7724 7.27906 58.5036 6.63082 56.2347C6.63082 56.0727 6.46875 55.7486 6.46875 55.5865C6.46875 55.4244 6.46875 55.4244 6.46875 55.2624C7.60317 55.2624 8.57551 55.2624 9.54787 55.2624C10.1961 55.2624 10.6823 55.1003 11.3305 54.9383C11.9788 54.7762 12.4649 54.4521 13.2752 54.4521C14.0855 54.4521 14.7338 53.9659 15.382 53.6418C15.8682 53.4797 16.1923 52.9936 16.5164 52.6694C17.4888 52.0212 17.975 52.0212 18.4611 53.1556C18.7853 54.128 19.4335 54.6141 20.5679 54.7762C21.3782 54.9383 21.3782 54.9383 21.2162 55.9106C21.0541 57.2071 21.0541 58.5036 21.0541 59.8001C21.0541 59.9621 21.2161 60.2862 21.3782 60.4483C22.0264 61.5827 22.6747 62.5551 23.3229 63.6895C22.8368 63.8515 22.5127 64.0136 22.0265 64.1756C21.7024 64.3377 21.5403 64.4998 21.7023 64.8239C22.1885 65.7963 22.5126 66.7686 23.3229 67.4168C24.2953 68.2271 25.2676 69.1995 26.24 70.0098C26.7262 70.0098 26.8882 70.3339 26.5641 70.658Z" fill="#625098"/>
<path d="M76.6454 90.9154C75.511 90.9154 74.5386 91.0774 73.5663 91.0774C70.3251 91.2395 67.0838 91.4016 64.0047 91.4016C62.222 91.4016 60.7636 90.7533 59.6292 89.2948C59.143 88.6465 58.4948 88.1604 58.0086 87.5122C57.8465 87.3501 57.6844 87.026 57.8465 86.7019C57.8465 85.5674 58.1706 84.5951 57.5223 83.4607C56.3879 81.5159 55.2535 79.4091 54.1191 77.3024C53.9571 76.8162 53.795 76.4921 54.2811 76.168C54.4432 76.168 54.4432 76.0059 54.4432 75.8438C55.4156 74.7094 56.2259 73.413 57.6844 72.9268C58.1706 72.7647 58.4948 72.2785 58.8189 71.7924C59.143 71.4682 59.3051 71.6303 59.6292 71.7924C60.7636 73.0888 61.7359 74.2232 62.8704 75.5197C63.0324 75.6818 63.0323 75.6818 63.1944 75.8438C64.1668 76.9783 64.9771 78.1127 65.1391 79.5712C65.1391 79.7333 65.3012 80.0574 65.4633 80.3815C65.9495 79.8953 66.1115 79.4091 66.5977 78.923C66.7598 79.085 66.9219 79.2471 66.9219 79.2471C67.5701 80.0574 67.57 79.8953 68.0562 79.085C68.2183 78.923 68.5424 78.7609 68.7045 78.7609C69.8389 78.5988 70.3251 77.6265 69.5148 76.6541C68.7045 75.3577 68.7044 75.3577 70.0009 74.8715C70.4871 74.7094 70.9733 74.3853 70.9733 73.7371C71.1354 72.7647 71.9457 72.7647 72.5939 72.2785C72.5939 72.2785 72.918 72.4406 73.0801 72.4406C73.4042 72.9268 73.7283 73.575 73.7283 74.0612C74.0524 75.3577 74.2145 76.8162 74.2145 78.1127C74.2145 78.923 74.0525 79.7333 73.8904 80.5436C73.5663 82.0021 73.4042 83.2986 74.2145 84.7571C75.0248 86.3777 75.673 87.9983 76.4833 89.6189C76.4833 90.4292 76.4834 90.5912 76.6454 90.9154Z" fill="#625098"/>
<path d="M56.7057 8.58916C56.5437 8.58916 56.5437 8.58916 56.7057 8.58916C54.9231 9.39946 53.3025 10.0477 51.6819 10.858C49.8993 11.6683 48.2787 12.4786 46.496 13.2889C46.1719 13.4509 45.8478 13.9371 45.5237 14.2612C45.0375 14.9095 44.8754 14.7474 44.5513 14.0992C44.3892 13.7751 44.2272 13.613 44.2272 13.2889C43.9031 12.6406 43.741 12.4786 42.9307 12.8027C42.1204 13.1268 41.3101 13.1268 40.4998 12.9648C40.0136 12.8027 39.6896 13.1268 39.3655 13.2889C38.8793 13.4509 38.7171 13.7751 38.8792 14.2612C38.8792 14.4233 38.8792 14.4233 38.7172 14.5854C38.0689 15.0716 36.6104 15.5577 35.8001 15.2336C35.3139 15.0716 34.8277 14.9095 34.3415 14.5854C33.5312 14.0992 33.0451 13.613 32.721 12.6406C32.2348 11.3442 31.4245 10.2097 30.6142 9.07532C30.6142 8.91326 30.128 8.91326 29.966 9.07532C29.6419 9.23738 29.3177 9.5615 28.9936 9.88562C28.8315 9.88562 28.5074 9.7236 28.5074 9.7236C28.3454 9.07536 28.1833 8.26503 27.8592 7.61679C27.6971 6.96855 27.373 6.32033 27.2109 5.83415C27.2109 5.67209 27.2109 5.1859 27.373 5.1859C28.1833 4.3756 28.3454 3.40325 28.5074 2.43089C28.6695 1.94471 28.9936 1.6206 29.4798 1.6206C30.2901 1.6206 30.9383 1.45855 31.7486 1.45855C32.0728 1.45855 32.2348 1.6206 32.5589 1.6206C32.721 1.6206 32.883 1.78265 33.0451 1.6206C34.3416 0.648238 35.9622 0.810298 37.4207 0.810298C37.9069 0.810298 38.5551 0.648233 39.0413 1.13441C39.0413 1.29647 39.5274 1.13441 39.6895 1.13441C40.3377 0.972352 40.986 0.648248 41.6342 0.972367C41.7963 1.13443 42.1204 0.810313 42.4445 0.648253C42.7686 0.486193 43.0928 0.324129 43.4169 0.162069C43.579 9.88891e-06 44.0651 0 44.0651 0C44.3892 0.324119 44.5513 0.648233 44.5513 1.13441C44.8754 2.26883 45.0375 3.40326 45.3616 4.53767C45.3616 4.69973 45.8478 4.69974 46.0099 4.69974C46.496 4.53768 46.8202 4.69973 46.8202 5.34797C46.8202 5.51003 46.8202 5.67209 46.8202 5.83415C47.1443 7.77887 47.3063 7.6168 48.7649 7.29268C49.4131 7.29268 49.8993 7.29268 50.5475 7.29268C51.6819 7.29268 52.3302 6.64446 52.0061 5.51004C51.844 5.02386 51.682 4.53768 51.5199 3.88944C51.5199 3.88944 51.5199 3.72737 51.6819 3.72737C52.3302 3.88943 52.9784 4.21354 53.6267 4.3756C53.7887 4.3756 53.7887 4.53767 53.7887 4.53767C55.0852 5.18591 55.8955 6.15826 56.0576 7.61679C56.2196 7.77885 56.5437 8.10298 56.7057 8.58916Z" fill="#625098"/>
<path d="M48.4408 79.247C47.6305 79.7332 46.9823 80.2194 46.172 80.7056C45.5237 81.1917 44.8755 81.5158 44.5514 82.3261C44.5514 82.4882 44.3894 82.6503 44.2273 82.6503C43.7411 83.1365 43.2549 83.6226 42.7687 84.1088C42.7687 84.2709 42.7687 84.2708 42.7687 84.4329C43.579 85.0811 43.579 85.0812 42.9308 85.7294C42.6066 86.2156 42.2826 86.5397 41.7964 86.8638C41.4723 87.1879 41.4723 87.35 41.7964 87.6741C42.2826 87.9982 42.1205 88.3223 41.7964 88.6465C40.4999 90.105 39.0414 91.7256 37.7449 93.3462C37.2588 93.8324 36.9346 93.9944 36.2864 93.5082C35.4761 93.0221 34.6658 92.698 33.8555 92.2118C33.6934 92.0497 33.3693 91.8876 33.2072 91.7256C31.4245 89.7809 29.804 87.8362 28.0213 85.8915C27.8593 85.7294 27.6972 85.5673 27.5352 85.2432C28.6696 84.1088 29.6419 83.1364 30.6143 82.002C31.1005 81.5158 31.4246 81.1917 31.9107 80.7056C32.2349 80.3814 32.3969 80.0573 33.0452 80.2194C33.3693 80.2194 33.8554 79.5711 34.3416 79.085C34.9899 78.4367 35.476 77.6264 35.9622 76.8161C36.2863 76.33 36.7726 75.5197 36.6105 75.3576C35.9623 74.3852 36.7725 74.3852 37.2587 73.899C37.7449 73.4129 37.9069 72.7646 38.3931 72.2784C38.5552 72.1164 38.8793 71.9543 39.0414 71.9543C40.1758 71.9543 41.3102 72.1164 42.4446 72.2784C42.6067 72.2784 42.7687 72.6026 42.9308 72.7646C43.0928 72.9267 43.0928 73.2508 43.2549 73.5749C44.0652 72.9267 44.7135 72.4405 45.5238 71.9543C45.6858 72.1164 45.6859 72.2784 45.8479 72.4405C46.6582 74.2232 47.6305 76.1679 48.4408 77.9505C48.927 78.5988 49.0891 78.9229 48.4408 79.247Z" fill="#625098"/>
<path d="M67.7267 21.5541C68.0509 22.6885 67.2405 23.4988 66.7543 24.1471C66.5923 24.4712 65.944 24.4712 65.4579 24.4712C65.1338 24.4712 64.9717 24.1471 64.8096 23.8229C64.6475 23.6609 64.6476 23.4988 64.6476 23.3368C64.3235 23.4988 64.1614 23.4988 63.9993 23.4988C63.0269 23.985 62.2167 24.3091 61.0822 24.3091C60.9202 24.3091 60.5961 24.4712 60.4341 24.6332C60.1099 24.9574 59.7858 25.4436 59.2996 25.7677C58.4893 26.74 58.4893 26.5779 57.5169 26.2538C56.2204 25.7677 55.5722 24.9573 55.086 23.6609C54.924 23.0126 54.5999 22.3644 54.4378 21.7162C54.4378 21.5541 54.1137 21.392 54.1137 21.392C53.4655 21.5541 53.4655 21.0679 53.1414 20.7438C52.6552 19.9335 52.331 20.0956 51.8448 20.7438C51.3587 21.3921 50.8725 21.8782 50.2242 22.5265C49.9001 21.8782 49.576 21.3921 49.4139 20.9059C49.0898 20.4197 48.7657 19.9335 48.4416 19.4474C47.3072 18.1509 46.1728 16.8544 45.0384 15.5579C44.7143 15.0717 44.7142 14.7476 45.2004 14.5856C45.3625 14.5856 45.5246 14.4235 45.5246 14.2614C46.0107 13.2891 46.9831 12.965 47.9555 12.6408C49.9002 11.6685 51.8449 10.6961 53.9517 9.88581C54.924 9.39963 55.8964 9.23761 56.8687 8.91349C57.517 8.75143 58.0031 9.07555 58.1652 9.72379C58.1652 10.0479 58.3272 10.372 58.6514 10.5341C59.2996 11.1823 60.1099 11.6685 60.9202 12.3167C61.5685 12.8029 62.0546 13.2891 62.7028 13.7753C63.5131 14.5856 64.8096 14.7476 65.4579 15.882C66.5923 16.2062 66.7544 17.5026 67.4026 18.3129C68.2129 19.2853 68.2129 20.0956 67.8888 21.23C67.7267 21.23 67.7267 21.3921 67.7267 21.5541Z" fill="#625098"/>
<path d="M38.0767 72.9268C37.9146 73.413 37.2665 73.8992 36.6182 74.2233C36.132 74.5474 36.132 74.8715 36.2941 75.1957C36.6182 75.6818 36.4562 76.168 36.1321 76.6542C35.4838 77.4645 34.8356 78.4368 34.1873 79.2471C33.8632 79.5713 33.539 79.7333 33.2149 80.0574C33.2149 80.0574 33.2149 80.0574 33.0529 79.8954C32.7288 80.0574 32.4047 80.0574 32.0806 80.3815C30.7841 81.516 29.6497 82.6504 28.5152 83.7848C28.1911 84.1089 27.867 84.5951 27.3808 85.0813C26.5705 83.9469 25.4361 83.6227 24.4638 83.1366C23.6535 82.6504 22.8432 82.1642 22.0329 81.678C21.2226 81.1919 20.4123 80.5436 19.602 80.0574C19.1158 79.7333 18.4675 79.2471 17.9814 78.923C17.6573 78.5989 17.6573 78.4368 17.9814 78.1127C19.4399 76.6542 20.7364 75.0336 22.0329 73.5751C22.519 73.0889 22.6811 73.0889 23.0052 73.5751C23.4914 74.0612 23.6534 74.2233 24.1396 73.7371C24.4637 73.251 24.7879 72.7647 25.2741 72.2786C27.0567 70.3338 29.0014 68.2271 30.9461 66.4445C31.4323 65.9583 32.2426 65.6341 33.0529 65.1479C33.2149 65.1479 33.377 65.1479 33.377 65.1479C33.7011 65.7962 34.3493 65.4721 34.8355 65.6342C35.8079 65.7962 36.7803 66.1203 37.1044 67.2548C37.1044 67.4168 37.2664 67.5789 37.2664 67.7409C38.887 69.0374 38.7249 70.9821 38.0767 72.9268Z" fill="#625098"/>
<path d="M87.0151 71.3062C86.8531 71.3062 86.853 71.1442 86.691 71.1442C85.7186 71.4683 85.0704 70.82 84.2601 70.6579C84.098 70.6579 84.0981 70.4959 83.9361 70.4959C83.6119 70.3339 83.2878 70.1718 83.1258 70.3339C81.5052 70.82 80.0465 70.1718 78.588 70.0097C77.7777 70.0097 77.1295 69.6856 76.4813 70.4959C76.3192 70.658 76.1572 70.6579 75.9951 70.6579C75.3469 70.82 74.5365 70.9821 73.7262 71.1442C72.5918 69.6856 71.4574 68.2271 70.323 66.6065C68.3783 64.1756 66.4336 61.5827 64.4889 59.1518C63.8407 58.3415 63.0303 57.3691 62.22 56.7209C61.5718 56.0726 60.9236 55.7485 60.1133 55.2623C60.4374 54.9382 60.7615 54.452 60.9236 54.1279C61.0856 53.8038 60.9235 53.4797 61.0856 53.3176C61.2477 52.9935 61.5718 52.6694 61.7339 52.5073C62.058 52.1832 62.22 52.5073 62.3821 52.8314C62.7062 53.6417 63.1924 54.452 63.5165 55.1003C63.6786 55.4244 64.0027 55.5864 64.3268 55.4244C64.813 55.2623 64.9751 55.4244 65.2992 55.9106C65.6233 56.3967 65.9474 56.7208 66.4335 57.045C68.2162 58.0173 70.161 58.9897 71.9436 59.9621C72.1057 60.1241 72.2677 60.2862 72.4298 60.4482C73.2401 59.962 74.0504 59.4759 74.6986 58.9897C74.8607 58.8276 75.1848 58.6655 75.3468 58.6655C76.8054 58.8276 77.9398 57.5312 79.2363 57.3691C79.7225 57.3691 80.2087 56.8829 80.6949 56.5588C80.8569 57.207 81.0189 57.6932 81.343 58.3415C81.5051 58.6656 81.8292 58.9897 82.1533 59.3138C82.3154 59.4758 82.4775 59.6379 82.4775 59.8C82.6395 60.4482 82.8016 60.9344 82.9636 61.5827C83.2878 62.555 82.9636 63.5273 82.6395 64.3376C82.4774 64.4997 82.6396 64.9859 82.8016 65.1479C83.1257 65.4721 83.6119 65.7962 83.9361 66.1203C84.0981 66.1203 84.2601 66.2824 84.2601 66.4444C84.4222 67.0927 84.9084 67.4168 85.5566 67.7409C85.7187 67.903 85.8807 68.065 86.0428 68.3891C86.3669 68.8753 86.8531 69.3615 87.1772 69.8476C87.3393 70.1718 87.6634 70.658 87.6634 70.9821C87.8255 71.3062 87.5013 71.6303 87.0151 71.3062Z" fill="#625098"/>
<path d="M57.5173 85.5677C57.5173 86.8642 56.707 87.3504 56.0588 88.1607C55.8967 88.3228 55.5726 88.3228 55.4105 88.3228C53.7899 88.1607 52.1694 88.1607 50.7109 87.9986C50.5488 87.9986 50.2247 88.1607 49.9006 88.1607C49.9006 88.4848 50.0625 88.8089 50.2246 88.971C51.0349 89.7813 50.8728 90.4295 50.2246 91.2398C50.0625 91.5639 49.7385 91.726 49.5764 92.0501C49.2523 92.5363 48.9281 93.0225 48.604 93.5086C48.604 93.6707 48.442 93.6707 48.442 93.8328C47.1455 95.2913 45.849 96.9119 44.3905 98.3704C44.2284 98.5325 44.0664 98.3704 43.9043 98.3704C43.9043 98.3704 43.9043 98.3704 43.7422 98.2084C42.2837 96.2636 40.0149 95.4534 37.9081 94.3189L37.7461 94.1569C38.2323 93.5086 38.8805 93.0225 39.3667 92.3743C40.5011 91.2398 41.4735 89.9433 42.6079 88.8089C42.932 88.4848 43.0941 88.1607 42.6079 87.8366C42.2838 87.5124 42.2838 87.1883 42.6079 86.8642C43.2561 86.216 43.7423 85.5677 44.3905 84.9195C44.0664 84.5954 43.7423 84.5954 43.4182 84.2713C43.9044 83.7851 44.2285 83.461 44.7146 82.9748C44.8767 82.8127 45.0388 82.8127 45.0388 82.6507C45.3629 81.8404 46.0111 81.3542 46.6594 80.868C48.442 79.7336 50.0626 78.5992 52.0073 77.9509C52.4935 77.7889 52.9796 77.4647 53.4658 77.1406L53.6279 77.3027C54.6003 78.9233 55.7347 80.706 56.545 82.3266C57.0311 83.2989 57.5173 84.4333 57.5173 85.5677Z" fill="#625098"/>
<path d="M27.0536 51.5349C27.0536 52.1831 27.2157 52.8314 26.8916 53.4796C26.7295 53.8038 27.3778 54.452 27.5398 54.9382C27.7019 55.2623 28.026 55.4243 28.188 55.7485C27.2157 55.9105 26.2434 56.0726 25.271 56.0726C25.4331 55.1002 25.4331 55.1002 24.4607 54.9382C23.0022 54.6141 21.5436 54.2899 19.923 53.9658C19.4368 53.8037 19.1127 53.6417 18.9506 53.1555C18.9506 52.9934 18.7886 52.8314 18.7886 52.6693C18.1404 51.3729 17.3301 51.2108 16.3577 52.1831C15.5474 52.8314 14.7371 53.6417 13.7648 53.8037C11.4959 54.1279 9.22707 54.9382 6.95824 54.614C6.47206 54.614 6.31001 54.2899 6.31001 53.9658C5.82383 52.1831 5.49973 50.5625 5.01355 48.7799C4.85149 48.2937 4.6894 47.9696 4.52734 47.3214C5.4997 47.3214 6.47209 47.1593 7.44445 47.1593C8.09268 47.1593 8.57885 46.8352 8.90297 46.349C9.22709 45.8628 9.55122 45.8628 9.87534 46.187C10.1995 46.5111 10.5235 46.511 10.8477 46.349C12.4683 46.0249 14.2509 45.5387 15.8715 45.2146C16.0336 45.2146 16.1957 45.2146 16.3577 45.2146C16.3577 45.5387 16.3577 45.8628 16.1957 46.187C16.1957 47.1593 16.5197 47.4834 17.4921 47.3214C18.6265 47.1593 19.5989 46.8352 20.7333 46.8352C22.1918 46.8352 23.6504 46.5111 24.7848 45.2146C24.9468 45.8628 25.1089 46.349 25.271 46.8352C25.4331 47.1593 25.5951 47.3213 26.0813 47.1593C26.8916 46.9972 27.7018 46.8352 28.6742 46.6731C28.6742 47.6455 28.8363 48.4558 28.8363 49.2661C28.8363 49.7523 28.6742 49.7522 28.188 49.7522C26.8916 50.4005 26.8916 50.4005 27.0536 51.5349Z" fill="#625098"/>
<path d="M73.7291 71.6303C73.0808 71.9544 72.4327 72.4406 71.7844 72.7647C71.1362 73.0888 70.812 73.4129 70.65 74.0612C70.4879 74.3853 70.1638 74.7094 70.0017 74.8715C69.6776 75.1956 69.1914 75.3577 68.7052 75.6818C68.5432 75.8438 68.5432 76.1679 68.5432 76.33C68.7053 76.6541 69.0293 76.9782 69.1914 77.3024C69.6776 78.1127 69.3535 78.7609 68.5432 78.7609C67.895 78.7609 67.5709 79.085 67.4088 79.8953H67.2467C67.0846 79.5712 66.9226 79.2471 66.7605 78.7609C66.4364 79.2471 65.9502 79.5712 65.4641 80.2195C65.302 79.7333 65.1399 79.2471 65.1399 78.923C65.1399 78.1127 64.8158 77.6265 64.3296 76.9783C63.3573 75.8439 62.5469 74.5474 61.5746 73.575C60.1161 72.1165 58.6576 70.6579 57.1991 69.1994C57.037 69.0373 56.7128 69.0374 56.5508 68.8753C56.5508 68.7132 56.7128 68.7132 56.7128 68.5512C56.7128 68.5512 56.8749 68.5512 56.8749 68.3891C57.8473 67.9029 57.8472 67.9029 57.5231 66.7685C57.361 66.4444 57.3611 65.9582 57.3611 65.6341C57.3611 65.4721 57.3611 65.31 57.3611 64.9858C58.4955 65.31 59.6299 65.6341 60.7643 65.9582C60.9263 65.7961 60.9264 65.6341 61.0884 65.31C61.5746 65.7962 61.8987 65.31 62.2229 64.9858C62.709 64.4997 63.3573 64.0135 63.8435 63.5273C64.6538 62.8791 64.6538 62.5549 63.8435 61.9067C63.1952 61.2585 62.547 60.7723 61.7367 60.124C62.2229 59.6379 62.7091 58.9897 63.3573 58.3414C67.0847 62.555 70.3258 67.0926 73.7291 71.6303Z" fill="#625098"/>
<path d="M31.4309 40.1907C30.9447 40.6769 30.4585 41.3251 29.9724 41.8113C29.4862 42.2975 29 42.7836 28.3518 43.1078C26.5691 44.2422 24.7864 45.3766 23.0038 46.3489C22.5176 46.511 22.0314 46.511 21.5453 46.6731C20.0867 46.8351 18.6282 46.9972 17.1697 47.1592C16.5214 47.3213 16.3594 46.9972 16.3594 46.3489C16.5214 44.0801 16.5214 41.6492 16.6835 39.3804C16.6835 39.0563 16.6835 38.7322 16.5214 38.408C16.1973 37.2736 16.6835 36.4634 17.1697 35.6531C17.4938 35.1669 17.8179 34.5186 18.142 34.0325C18.7902 32.898 20.5729 32.0877 21.7073 32.4119C23.0038 32.736 24.3003 33.0601 25.5967 33.5462C25.7588 33.5462 26.0829 33.8704 26.0829 34.0325C26.7312 35.0048 27.2173 35.9771 27.8656 36.7874C28.1897 37.1116 28.6759 37.4357 29.1621 37.7598C29.8103 38.246 30.4585 38.8942 31.1068 39.3804C31.755 39.7045 31.755 39.8666 31.4309 40.1907Z" fill="#625098"/>
<path d="M68.2179 43.108C67.4076 43.9183 67.0834 45.0528 66.7593 46.0251C66.4352 46.9975 66.2731 46.8354 65.4628 46.3492C64.0043 45.701 62.7078 44.7287 61.4114 43.7563C60.9252 43.4322 60.439 43.2701 59.9528 43.9183C59.4666 44.4045 59.1425 45.0527 58.6563 45.5389C58.1701 46.0251 57.684 46.3492 57.3599 46.8354C56.7116 47.4837 56.7116 48.1319 57.0357 48.9422C57.1978 49.2663 57.3598 49.7525 57.5219 50.0766C57.5219 50.7249 57.1978 51.049 56.5496 51.049C55.4152 51.211 54.2807 51.3731 53.3084 50.7248C53.1463 50.5628 52.8222 50.4007 52.8222 50.2387C53.1463 48.294 52.0119 46.6734 51.3636 45.0528C50.8775 43.9183 50.3913 42.946 50.2292 41.8116C49.9051 40.5151 49.0949 39.8669 47.9604 39.5427C47.3122 39.3807 46.9881 38.8945 46.826 38.2462C46.6639 37.598 46.5019 37.1118 46.3398 36.6256C46.3398 36.4636 46.3398 36.3015 46.3398 36.1395C47.1501 35.3292 47.7983 34.681 48.6086 33.8707C49.0948 33.5465 49.419 33.5466 49.9052 34.0327C51.0396 35.1671 51.5257 36.6257 52.4981 37.7601C53.1463 38.5704 53.7945 39.2186 54.6048 40.0289C54.7669 40.191 55.091 40.191 55.091 40.0289C56.0634 39.3807 57.1978 38.8945 57.846 38.0842C58.3322 37.436 58.9804 37.436 59.4666 36.7877C59.4666 36.7877 59.7907 36.7877 59.9528 36.7877C60.1148 37.2739 60.7631 37.598 60.1149 38.0842C59.7908 38.4083 59.9528 38.7325 60.2769 38.8945C60.7631 39.2186 60.9252 39.5427 60.2769 40.0289C60.1149 40.191 59.9528 40.353 59.9528 40.6771C59.9528 40.8392 60.277 40.8392 60.439 41.0013C61.7355 41.8116 63.1941 41.4875 64.4905 41.1633C65.3008 41.0013 66.1111 41.0013 67.0834 41.0013C67.8937 41.0013 68.8661 42.4598 68.2179 43.108Z" fill="#625098"/>
<path d="M68.0539 35.653C67.7298 35.9771 67.4057 36.3012 67.2436 36.4633C66.5954 37.1115 66.5955 37.5976 67.4058 38.2459L67.5678 38.408C66.9195 38.8941 67.2437 39.5424 67.4058 40.0285C67.5678 40.5147 67.4058 40.6768 66.9196 40.6768C65.299 40.8388 63.8404 41.163 62.2198 41.163C61.5716 41.163 60.9234 40.8389 60.1131 40.5148C60.4372 40.3527 60.4372 40.1906 60.5992 40.1906C60.9233 39.8665 61.0854 39.5424 60.5992 39.0562C60.2751 38.7321 59.789 38.408 60.4372 37.9218C60.5993 37.7597 60.2751 36.6253 59.7889 36.3012C59.4648 35.9771 59.1407 36.3012 58.8166 36.6253C58.3304 37.1115 57.8443 37.1115 57.196 36.7874C56.0616 36.1391 54.9271 35.3288 53.7927 34.6806C53.6307 34.5185 53.4686 34.5185 53.3066 34.5185C54.603 33.3841 53.3066 32.7359 53.1445 31.9256C53.7928 31.6015 54.4409 30.9532 55.4133 30.9532C56.0615 30.9532 56.7098 30.6291 57.358 30.467C58.1683 30.1429 58.9786 29.6568 59.951 29.1706C59.6268 28.5224 59.3028 27.8741 58.8166 27.3879C58.6546 27.0638 58.6545 26.7397 58.9786 26.4156C59.4648 25.9294 59.7889 25.4432 60.2751 24.957C60.4372 24.795 60.7613 24.6329 61.0854 24.6329C61.7336 24.4708 62.5439 24.1467 63.1921 23.9847C63.6783 23.8226 63.8404 23.6606 64.1646 24.3088C64.4887 24.795 64.9748 25.1191 65.623 24.957C66.1092 24.795 66.4334 24.957 66.2713 25.6053C66.2713 26.9017 66.4333 28.1982 64.8127 28.8464C65.2989 29.9809 65.6231 30.9532 66.5955 31.6015C66.7575 31.7635 66.7575 32.0877 66.7575 32.4118C66.7575 32.898 66.7575 33.3841 67.0816 33.7082C67.4057 34.1944 67.7298 34.8427 67.8919 35.3288C68.3781 35.3288 68.216 35.4909 68.0539 35.653Z" fill="#625098"/>
<path d="M58.4948 71.6303C57.8465 72.1165 57.3603 72.7647 56.55 73.0888C55.9018 73.4129 55.4156 73.8992 54.9294 74.3853C54.1191 75.3577 53.3089 76.4921 52.3365 77.1403C51.5262 77.7886 50.5539 77.9506 49.5815 78.2748C49.4194 78.2748 49.2574 78.1127 49.0953 77.9506C48.123 76.168 47.1506 74.3853 46.5023 72.4406C45.8541 70.4959 44.8818 68.8753 43.9094 67.0927C43.7474 66.6065 43.7474 66.2823 44.2336 65.9582C46.0162 64.6617 47.6368 62.8791 49.5815 61.9067C49.7436 61.9067 49.9056 61.7447 49.9056 61.5826C50.0677 61.5826 50.2297 61.7447 50.2297 61.7447C52.0123 62.8791 53.9571 63.5273 55.7397 64.3376C56.2259 64.4997 56.55 64.8238 56.7121 65.4721C56.7121 66.1203 56.8741 66.6065 57.0362 67.2547C57.1983 67.7409 57.0362 67.903 56.7121 68.065C55.9018 68.3891 55.9018 68.5512 56.55 69.1994C57.1983 69.6856 57.6844 70.3338 58.3327 70.82C58.8188 71.1441 58.8189 71.4682 58.4948 71.6303Z" fill="#625098"/>
<path d="M57.3618 38.2461C57.1997 38.4081 57.1997 38.5702 57.0377 38.7323C55.255 40.3529 54.1206 40.0288 52.9862 37.922C52.3379 36.7876 51.6897 35.8152 51.0414 34.6808C50.7173 34.1946 50.2312 33.8705 49.9071 33.5464C49.583 33.3843 49.0968 33.5464 48.7727 33.7084C48.2865 34.0325 47.9623 34.5187 47.6382 34.8429C47.152 35.329 46.6659 35.6531 46.0176 36.3014C45.0453 35.0049 44.2349 33.8705 43.2626 32.7361C42.9385 32.2499 43.1006 31.7637 43.4247 31.4396C44.7212 30.3052 46.0176 29.1708 47.1521 28.0363C47.9624 27.226 48.9347 26.9019 49.4208 25.9296C49.745 25.4434 50.3932 25.2813 50.8794 24.9572C51.3656 24.6331 51.3655 24.471 51.0414 23.9848C50.5552 23.0125 50.5553 23.0125 51.2035 22.2022C51.5277 21.8781 51.8517 21.3919 52.1759 21.0678C52.5 20.7437 52.6621 20.7437 52.8241 21.0678C52.9862 21.554 53.3103 21.8781 53.6344 22.3643C53.7965 22.2022 53.9585 22.0401 54.1206 22.0401C54.1206 22.2022 54.2826 22.2022 54.2826 22.2022C54.6067 23.1745 55.093 24.3089 55.5792 25.2813C55.7412 25.6054 56.0654 25.9295 56.3895 26.0916C56.7136 26.4157 57.1997 26.5778 57.5238 26.7399C58.8203 27.064 59.3065 28.1984 59.9547 29.1708C58.4962 29.819 57.3618 30.7914 55.5792 30.7914C54.7689 30.7914 53.9586 31.4396 53.1483 31.7637C53.4724 32.4119 53.7965 32.8981 53.9586 33.3843C53.9586 33.5463 53.9586 33.8705 53.9586 34.0326C53.6345 34.5187 53.6344 34.8428 54.1206 35.1669C55.255 35.8152 56.3894 36.6255 57.5238 37.4358C57.6859 37.4358 57.848 37.7599 57.3618 38.2461Z" fill="#625098"/>
<path d="M36.1323 17.3402C35.9702 17.3402 35.646 17.5023 35.484 17.6643C34.9978 17.8264 34.9978 17.9885 35.1598 18.4746C35.1598 18.6367 35.1598 19.1229 35.1598 19.1229C34.8357 19.2849 34.3496 19.447 34.1875 19.2849C32.729 17.8264 30.7843 17.8264 29.0016 17.9884C28.0292 17.9884 26.8948 18.4746 25.9225 18.9608C25.2742 19.2849 24.626 19.6091 23.8157 20.0952C23.9777 19.447 24.1398 18.7987 24.1398 18.1505C23.0054 18.3126 22.033 18.4747 20.8986 18.6367C21.0607 18.3126 21.0607 18.1505 21.0607 17.9884C22.033 16.692 21.7089 15.0714 21.5468 13.6129C21.3848 12.4784 21.0607 11.344 20.7365 10.2096C20.5745 9.56136 20.7366 8.9131 21.2228 8.26487C21.871 7.61663 22.3572 6.80635 22.8434 6.15811C23.3295 5.50987 23.8157 5.02369 24.626 5.18575C24.9501 5.18575 25.2742 5.18575 25.5983 5.18575C26.5707 5.02369 26.5707 5.18575 26.8948 5.99604C27.219 7.45458 27.7051 8.91312 28.1913 10.2096C28.3534 10.6958 28.5154 10.6958 29.0016 10.5337C29.4878 10.2096 29.9739 9.88549 30.4601 9.56137C30.6222 9.88549 30.7843 10.2096 30.9463 10.5337C31.4325 11.6682 32.2428 12.4785 32.7289 13.7749C33.0531 14.7473 34.1875 15.3955 35.322 15.7196C35.9702 15.8817 36.2943 16.3679 36.6184 17.0161C36.6184 17.0161 36.6184 17.1782 36.1323 17.3402Z" fill="#625098"/>
<path d="M63.8445 63.2034C63.1962 63.8517 62.548 64.4999 61.7377 64.9861C61.5756 65.1481 61.4136 64.9861 61.2515 65.1481C61.0895 65.1481 60.7653 65.1481 60.7653 65.1481C60.2791 65.7964 59.793 65.4723 59.3068 65.3102C57.2 64.4999 54.9312 63.6896 52.8244 62.8793C52.6624 62.8793 52.5003 62.7172 52.1761 62.5552C52.8244 61.4208 53.6347 60.2863 54.2829 59.314C54.607 58.9899 54.607 58.6658 54.607 58.1796C54.445 57.3693 54.2829 56.3969 54.1209 55.4246C54.1209 54.9384 53.7968 54.6143 53.3106 54.9384C52.8244 55.1005 52.3382 55.2625 51.852 55.5866C51.3658 55.7487 51.0418 55.7487 50.8797 55.1005C50.7176 54.4522 50.5556 53.6419 49.9074 53.1557C49.7453 53.1557 49.7453 52.8316 49.7453 52.6696C49.5832 51.5352 49.4212 51.6972 48.2868 51.6972C47.3144 51.6972 47.1523 51.6972 47.1523 50.5628C47.1523 50.0766 47.1523 49.7525 47.1523 49.2663L47.3144 49.1042C47.8005 49.4284 48.4488 49.7525 48.935 50.0766C49.4211 50.4007 49.9074 50.5628 50.3935 50.4007C50.7177 50.2386 51.2039 50.2387 51.528 50.2387C51.8521 50.2387 52.1762 50.2386 52.3383 50.4007C53.1486 51.211 54.283 51.5351 55.2553 51.3731C56.3897 51.211 57.5242 50.8869 58.8207 50.5628C59.6309 50.4007 60.4412 50.2387 61.2515 50.0766C61.5757 50.7249 61.8997 51.211 62.2239 51.6972C62.0618 51.8593 61.7376 52.0213 61.5756 52.1834C61.4135 52.3454 61.4136 52.6695 61.2515 52.9937C60.9274 53.4798 60.7654 53.966 60.4412 54.4522C60.2792 54.6143 60.117 54.6143 59.955 54.7763C60.6032 55.2625 61.2515 55.7487 61.8997 56.2349C62.3859 56.559 62.71 57.0452 63.1962 57.5314V57.8555C62.8721 58.3416 62.3859 58.8278 61.8997 59.314C61.4135 59.6381 61.4135 59.9622 61.8997 60.2863C62.71 60.7725 63.3582 61.4208 64.0065 62.069C64.1685 62.7172 64.0065 62.8793 63.8445 63.2034Z" fill="#625098"/>
<path d="M37.9069 52.9936V53.1557C38.0689 53.3177 38.3931 53.4798 38.5552 53.4798C39.2034 53.6419 39.5274 53.966 39.6895 54.7763C39.8516 55.9107 40.0137 56.883 40.1757 58.0174C40.1757 58.1795 40.1757 58.3415 40.0136 58.5036C39.3654 59.476 38.5552 60.2863 37.7449 61.2586C37.2587 60.7725 36.7725 60.2863 36.1243 59.8001C35.9622 60.4483 35.8001 61.0966 35.8001 61.5828C35.8001 62.231 35.476 62.3931 34.9898 62.231C33.8554 62.0689 32.5589 62.231 31.5865 61.7448C31.2624 61.5827 31.1004 61.4207 31.1004 60.9345C31.1004 60.1242 30.9383 59.3139 31.1004 58.6657C31.2624 57.3692 30.7762 56.721 29.6418 56.2348C29.1557 56.0727 28.6695 55.4245 28.1833 55.1004C28.0212 54.9383 27.8592 54.9383 27.6971 54.7763C27.5351 54.4521 27.2109 53.9659 27.2109 53.8039C27.5351 52.9936 27.2109 52.1833 27.2109 51.5351C27.2109 51.0489 27.373 50.8868 27.8592 50.8868C28.9936 50.8868 30.128 50.8868 31.1004 50.2386C31.1004 50.2386 31.2624 50.2386 31.4245 50.2386C33.6933 50.4007 35.8001 49.4283 37.9069 48.9421C38.7172 48.78 39.6895 48.78 40.4998 48.78C40.6618 48.78 40.824 49.1042 40.986 49.2662C41.3102 49.9145 41.4722 50.5627 41.9584 51.0489C42.1204 51.373 42.6066 51.373 43.0928 51.5351C43.2549 51.5351 43.4169 51.6971 43.579 51.8592C43.579 52.0213 43.579 52.0212 43.579 52.1833C41.6342 52.3453 39.8516 52.6695 37.9069 52.9936Z" fill="#625098"/>
<path d="M54.1183 58.8279C53.4701 59.8002 52.8218 60.7726 52.1736 61.7449C51.8495 62.2311 51.6874 62.2311 51.2013 61.907C50.391 61.0967 49.5807 61.4208 48.7704 62.069C47.9601 62.7173 46.9877 63.3655 46.1774 63.8517C46.0153 64.0138 45.6912 64.0138 45.5292 63.8517C44.5568 63.6897 43.5844 63.3655 42.7741 63.2035C42.45 63.2035 42.2879 62.8793 42.1259 62.5552C41.4776 60.6105 40.8295 58.6658 40.1812 56.7211C40.0192 56.0729 40.0191 55.2625 40.0191 54.6143C40.0191 53.804 39.695 53.1558 38.7227 52.9937C41.9638 52.3455 45.205 51.5352 48.6082 51.8593C48.7703 51.8593 49.0945 52.1834 49.2565 52.3455C49.5806 52.6696 49.7427 52.9937 49.9048 53.4799C50.0669 53.9661 50.2289 54.4522 50.391 54.7764C50.553 55.5867 51.0391 55.7487 51.8494 55.4246C52.3356 55.2625 52.9839 54.9384 53.6322 54.7764C53.7942 56.0728 54.1183 57.0452 54.2803 58.1796C54.2803 58.5037 54.1183 58.6658 54.1183 58.8279Z" fill="#625098"/>
<path d="M44.8844 29.1708C44.3982 29.657 43.75 30.1432 43.2638 30.7914C42.7776 31.6017 42.2915 32.412 41.8053 33.2223C41.6433 33.5464 41.4812 33.8705 41.1571 34.3567C40.6709 33.5464 40.1847 32.8982 39.6985 32.2499C39.5364 32.0879 39.2123 31.9258 38.8882 31.9258C38.7261 31.7637 38.4021 31.7637 38.24 31.7637C37.7538 31.4396 37.5917 31.7637 37.2676 32.0879C36.7814 32.7361 36.6194 32.7361 35.8091 32.2499C35.6471 32.0879 35.485 31.9258 35.485 31.7637C35.1609 29.819 34.1885 28.3605 32.5679 27.2261C32.2438 27.064 32.0817 26.7399 31.7576 26.5778C30.7853 26.2537 30.6232 25.6055 30.7852 24.6331C30.7852 23.8228 30.7852 23.0125 30.7852 22.2022C30.7852 21.716 30.9473 21.3919 31.4335 21.0678C32.5679 20.5817 33.8644 19.9334 34.9988 19.2852C35.485 19.1231 35.647 18.799 35.485 18.3128C35.3229 17.9887 35.3229 17.6646 35.8091 17.6646C36.1332 17.6646 36.6194 17.0163 36.9436 17.6646C38.24 20.7437 40.5089 23.0125 42.6156 25.6055C43.2639 26.5778 44.0741 27.3881 44.8844 28.1984C45.2085 28.6846 45.2085 28.8467 44.8844 29.1708Z" fill="#625098"/>
<path d="M50.5523 24.1468C50.3903 24.471 49.742 24.7951 49.2559 25.1192C48.9317 25.4433 48.6077 25.9295 48.2836 26.2536C47.4733 26.9018 46.663 27.5501 45.8527 28.1983C45.5285 28.5225 45.2044 28.3604 44.8802 28.0363C44.0699 26.9018 43.0976 25.9295 42.2873 24.7951C41.1529 23.3365 39.8564 22.0401 38.884 20.5815C37.9117 19.123 37.2634 17.5024 36.4531 16.0439C36.4531 15.8818 36.4531 15.7197 36.4531 15.7197C37.2634 15.3956 37.9117 15.0715 38.56 14.9094C39.0462 14.7474 39.0461 14.5853 38.884 14.2612C38.722 13.613 39.5323 12.9647 40.1806 13.2888C40.9909 13.613 41.9632 13.4509 42.7735 13.1268C43.4217 12.9647 43.5837 12.9647 43.7458 13.613C43.9079 14.2612 44.07 14.9095 44.3941 15.3956C44.5561 15.7198 44.7182 16.0438 45.0424 16.368C46.1768 17.6644 47.3112 18.961 48.4456 20.2574C49.0938 21.0677 49.418 22.04 49.9041 22.8503C50.2283 23.1745 50.7144 23.8227 50.5523 24.1468Z" fill="#625098"/>
<path d="M46.1779 40.0286C45.3676 40.0286 44.5573 40.3527 43.747 40.8389C43.0987 41.3251 42.7747 41.3251 42.2885 40.3527C41.9644 39.7045 41.6402 39.8665 41.1541 40.0286C40.1817 40.3527 39.3714 40.6769 38.237 41.001C38.3991 41.8113 38.3991 41.9733 37.4267 41.9733C37.2646 41.9733 36.9405 42.1354 36.7784 41.9733C35.482 41.4872 34.3475 41.9733 33.2131 42.2974C32.5649 42.4595 32.4028 42.2975 32.2408 41.8113C32.0787 41.3251 32.0787 40.6769 31.9166 40.1907C31.9166 40.0286 32.0787 39.8666 32.2408 39.7045C32.5649 39.5425 32.727 39.5424 33.0511 39.3804C33.5373 39.2183 33.6993 38.5701 33.0511 38.2459C32.5649 37.9218 32.727 37.7598 32.8891 37.4356C33.3752 36.9495 33.2131 36.6254 32.7269 36.3013C31.9166 35.8151 31.1063 35.491 30.7822 34.5186C30.6201 34.1945 30.6202 34.0324 30.9443 33.7083C31.4305 33.2221 31.7546 32.7359 32.2408 32.2498C32.5649 31.9257 32.727 31.9257 32.8891 32.2498C33.3752 32.898 33.8614 32.7359 34.1855 32.2498C34.8338 31.4395 35.3199 32.2498 35.8061 32.4118C35.9682 32.4118 36.1302 32.5739 36.4543 32.898C36.6164 32.7359 36.6164 32.5739 36.7784 32.2498C37.1026 31.9257 37.4267 31.6015 37.7508 31.9256H37.9129C38.8852 31.6015 39.2093 32.2498 39.5335 32.898C39.8576 33.3842 40.1817 34.0324 40.6679 34.6807C41.1541 33.8704 41.6402 33.0601 41.9644 32.4118C42.1264 32.4118 42.1264 32.4118 42.1264 32.4118C43.0987 33.7083 44.2332 35.0048 45.2055 36.4633C45.5297 36.7874 45.5296 37.4357 45.6917 37.7598C45.8538 38.0839 45.8538 38.5701 46.0158 38.8942C46.8261 39.7045 46.8261 40.0286 46.1779 40.0286Z" fill="#625098"/>
<path d="M52.4959 50.0762C51.5235 50.2383 50.7132 50.4003 50.065 50.4003C49.7408 50.4003 49.2546 50.0762 48.9305 49.9142C48.2823 49.59 47.634 49.1038 46.9858 48.7797L46.8238 48.9418C46.8238 49.7521 46.8238 50.4003 46.8238 51.2106C46.8238 51.6968 46.8238 51.8589 46.3376 51.8589C45.8514 51.8589 45.2032 51.8589 44.717 52.0209C44.3929 52.0209 44.0687 52.0209 43.7446 51.6968C43.5825 51.5348 43.2584 51.3727 42.9343 51.3727C42.2861 51.2106 41.7999 50.7245 41.6378 50.0762C41.3137 49.1039 40.9896 48.2936 40.6655 47.3212C40.0173 45.5385 39.5311 43.5938 38.8828 41.8112C39.6931 41.4871 40.6655 41.1629 41.4758 40.8388C41.6379 40.8388 42.1241 41.0009 42.2861 41.325C42.9344 41.9733 43.4206 42.1353 44.2309 41.487C44.717 41.1629 45.2032 41.0009 45.6893 40.8388C46.1755 40.6768 46.4996 40.5147 46.9858 40.3527C47.1478 40.3527 47.3099 40.3527 47.3099 40.3527C48.6064 40.5147 49.4167 41.4871 49.5788 42.7836C49.5788 43.1077 49.7409 43.5938 49.9029 43.9179C50.5512 45.3765 51.1993 46.673 51.8476 48.1315C52.3338 48.4556 52.3338 49.2659 52.4959 50.0762Z" fill="#625098"/>
<path d="M30.7862 66.2822C29.8138 67.2545 28.8415 68.3889 27.8691 69.3613C27.3829 69.8475 26.8968 69.8475 26.4106 69.3613C25.2762 68.2269 24.1417 67.2545 23.0073 66.2822C22.5211 65.796 22.3591 64.9857 21.8729 64.3374C22.5212 64.1754 23.1694 63.8513 23.8176 63.6892C23.3314 63.041 23.0073 62.3927 22.6832 61.7445C22.5212 61.4204 22.3591 61.0962 22.197 60.9342C20.9005 59.3136 21.3867 57.531 21.5488 55.5862C21.5488 55.1001 21.8729 54.938 22.3591 55.1001C23.1694 55.2621 24.1418 55.4242 24.9521 55.5862C24.79 56.5586 24.79 56.7207 25.7623 56.5586C26.5726 56.3965 27.3829 56.3965 28.1932 56.2345C29.1656 56.0724 29.8138 56.7206 30.6241 57.0448C30.7862 57.0448 30.7862 57.3689 30.7862 57.531C30.9482 58.3413 30.9482 59.1516 31.1103 59.9619C31.1103 60.1239 31.1103 60.286 31.1103 60.448C31.1103 61.5824 30.9483 62.8789 30.9483 64.0134C30.9483 64.1754 31.1103 64.4995 31.1103 64.6616C31.2724 65.4719 31.1103 65.796 30.7862 66.2822Z" fill="#625098"/>
<path d="M35.158 31.6018C34.9959 31.7638 34.6718 31.9259 34.5098 32.0879C34.1857 32.412 33.6995 32.5741 33.3753 32.0879C33.0512 31.6017 32.565 31.9259 32.2409 32.25C31.9168 32.7362 31.4306 33.2223 30.9444 33.5464C30.2962 34.0326 30.6203 35.167 31.4306 35.8153C32.0788 36.3014 32.565 36.6256 33.2132 37.1118C33.0512 37.76 32.0789 37.9221 32.565 38.7324C32.7271 38.8944 33.0512 39.0565 33.2132 39.0565C32.565 39.7047 32.0788 39.7047 31.4306 39.0565C30.9444 38.5703 30.4582 38.0841 29.81 37.76C28.1894 36.9497 27.3791 35.4912 26.7309 34.0326C26.5688 33.5465 26.2447 33.2224 25.7585 33.2224C24.462 32.8982 23.1656 32.5741 21.707 32.0879C22.6794 30.9535 22.8414 29.657 23.1656 28.3606C23.3276 27.8744 23.6517 27.7123 23.9759 27.7123C24.6241 27.7123 24.9482 27.3882 25.1103 26.74C25.2724 26.2538 25.4344 25.6056 25.4344 25.1194C25.7585 23.985 26.0826 23.8229 27.055 24.3091C29.1617 25.6056 31.2685 26.902 33.2132 28.3606C34.0235 29.0088 34.3477 30.3053 34.9959 31.2776C35.3201 31.2776 35.32 31.6018 35.158 31.6018Z" fill="#625098"/>
<path d="M46.0144 71.6303C45.2041 72.1165 44.5559 72.7647 43.5835 73.413C43.5835 71.9544 42.6112 72.1165 41.8009 72.1165C40.8285 72.1165 39.8562 71.9544 39.0459 71.7924C38.8838 70.6579 38.8838 69.6856 38.7217 68.7132C38.7217 68.2271 38.3976 67.9029 38.0734 67.4167C37.9114 67.2547 37.7493 67.0926 37.5873 66.7685C37.1011 65.472 35.9667 65.1479 34.6702 64.9858C34.5082 64.9858 34.3461 64.9858 34.1841 64.9858C33.6979 64.1755 33.2117 64.6618 32.7255 64.8238C32.4014 64.9859 31.9152 65.1479 31.5911 65.31C30.4567 64.3376 31.1049 63.0411 30.9429 61.9067C32.5635 62.717 34.184 62.3929 35.6426 62.5549C35.8046 62.5549 35.9667 62.3929 35.9667 62.2309C36.1288 61.5826 36.1288 61.0964 36.2908 60.2861C36.615 60.7723 36.9391 60.9344 37.1011 61.2585C37.4252 61.5826 37.7493 61.7447 38.0734 61.2585C38.7217 60.4482 39.3699 59.6379 40.0182 58.6655C40.1802 58.9896 40.3423 59.3138 40.3423 59.4758C40.6664 60.6102 41.1526 61.7447 41.4768 62.8791C41.6388 63.5273 41.963 63.6894 42.6112 63.8515C43.5836 64.0135 44.5559 64.3376 45.5282 64.4997C44.88 64.9859 44.3938 65.472 43.7455 65.9582C43.2594 66.2823 43.0974 66.7685 43.4215 67.4167C44.0697 68.5511 44.7179 69.8476 45.2041 70.9821C45.6903 71.1441 45.8523 71.3062 46.0144 71.6303Z" fill="#625098"/>
<path d="M40.6632 48.1318C40.3391 48.1318 40.3391 48.2939 40.177 48.2939C38.0703 48.1318 36.1255 49.1042 34.0187 49.4283C33.5325 49.5903 33.0464 49.5903 32.5602 49.5903C31.7499 49.5903 30.9396 49.5903 30.1293 50.0765C29.4811 50.4006 28.9949 50.2386 28.9949 49.4283C28.9949 48.7801 28.9949 48.1318 28.8328 47.4836C28.8328 46.9974 28.6708 46.8353 28.1846 46.9974C27.3743 47.1595 26.564 47.3215 25.5916 47.4836C25.4296 46.9974 25.2675 46.5112 25.1055 46.025C25.1055 45.863 25.2675 45.5389 25.4296 45.3768C26.0778 45.0527 26.7261 44.5665 27.3743 44.2424C28.8328 43.5941 30.1293 42.4597 30.9396 41.1632C31.1017 41.0012 31.4257 40.8391 31.5878 40.515C31.7499 41.3253 32.074 41.9735 32.2361 42.6218C32.3981 42.9459 32.5602 43.108 32.8844 42.9459C33.0464 42.9459 33.3705 42.7838 33.5325 42.7838C34.5049 42.4597 35.4773 42.1356 36.6117 42.4597C37.0979 42.6218 37.7461 42.4597 38.5564 42.2976C39.5288 44.2423 40.015 46.1871 40.6632 48.1318Z" fill="#625098"/>
<path d="M34.0236 19.4472C33.6995 19.7713 33.5374 19.9333 33.2133 19.9333C32.5651 20.2574 31.9169 20.5816 31.2687 20.9057C30.7825 21.0677 30.6204 21.3919 30.6204 21.878C30.6204 22.8504 30.6203 23.8227 30.7824 24.7951C30.7824 24.9572 30.7824 25.2813 30.7824 25.6054C30.2962 25.2813 29.9721 25.1192 29.648 24.9572C28.8377 24.471 27.8654 23.9848 27.0551 23.4986C26.7309 23.3366 26.4068 23.3366 26.2448 23.8227C25.9206 24.471 25.7586 25.1192 25.4345 25.7675C25.1103 27.0639 24.3 27.388 23.0036 27.0639C21.2209 26.5777 21.2209 25.1192 20.5727 23.9848C20.4106 23.4986 20.2486 23.0125 19.9244 22.5263C19.4383 21.716 19.9244 20.4195 20.7347 19.9333C20.8968 19.7713 20.8968 19.6092 20.8968 19.4472C20.8968 19.123 20.8968 18.7989 20.8968 18.4748C21.8692 18.3127 22.6794 18.3127 23.8139 18.1506C23.6518 18.7989 23.6518 19.2851 23.4898 20.0954C23.976 19.9333 24.138 19.9333 24.4621 19.7712C24.9483 19.6092 25.4345 19.2851 25.9207 18.9609C26.5689 18.6368 27.0551 18.4748 27.7033 18.3127C29.3239 17.6645 31.1065 17.9886 32.7271 18.4748C33.0513 18.7989 33.3754 19.123 34.0236 19.4472Z" fill="#625098"/>
</svg>
