<svg xmlns="http://www.w3.org/2000/svg" viewBox="0 0 89.61 122.56"><defs><style>.cls-1{fill:#1f3b62;}</style></defs><g id="Layer_2" data-name="Layer 2"><g id="Layer_1-2" data-name="Layer 1"><path class="cls-1" d="M89,112.63c.16,1.62.16,3.08.33,4.7h-.81c-.49-.16-1-.16-1.46-.32a5,5,0,0,0-3.41.32c-3.4,1.78-7,2.43-10.69,3.41-.81.32-1.62.48-2.11,1.29a1.33,1.33,0,0,1-1.29.49,42.77,42.77,0,0,1-6.49-.33,7.38,7.38,0,0,1-5.34-3.4,2.65,2.65,0,0,0-.65-.65c-2.76-1.46-5.35-2.92-8.11-4.37-.64-.33-.64-.65-.48-1.3,1-3.08,1.78-6.16,2.75-9.24.17-.48,0-.81-.48-1.13l-4.87-2.43c-.48-.33-1-.65-1.62-1.14,1.14-1.29,2.11-2.43,3.25-3.56A4.67,4.67,0,0,0,49.1,92.7c0-.33.48-.49.64-.65l1.46-1.94c.17-.17,0-.49,0-.65a13,13,0,0,0-.81-1.3h1.3a29.34,29.34,0,0,1,3.73.32A1.91,1.91,0,0,0,57,87.84c.16-.17.16-.33.32-.65a30.36,30.36,0,0,1,2.27,2.27A5.7,5.7,0,0,0,64,91.56c3.4,0,6.64-.16,10-.32h2.76a.72.72,0,0,1,.65.49c.48,1,1,2.1,1.46,3.08s1,1.78,2.1,1.62a2,2,0,0,1,1,.16c2,.48,3.57-.33,5.51-.65h.17c1.62-.32,2.1.16,1.62,1.78a.59.59,0,0,1-.17.49c-.32.48-.16,1,.49,1.29-.16.17-.16.49-.32.65-.17.33-.33.65,0,1,.16.16,0,.32,0,.48a.6.6,0,0,1-.49-.16c-.65-.32-1.3-.32-1.3.49-.16.48-.16,1.13-.48,1.29s-.81-.16-1.3-.16a10.85,10.85,0,0,0-2.27.49.56.56,0,0,0-.16.32,6.51,6.51,0,0,0,.65,1.94c.32.65,1,1,1.3,1.46a3.42,3.42,0,0,1,.64,1,4.16,4.16,0,0,0,.65.81A9.38,9.38,0,0,1,89,112.31Z"/><path class="cls-1" d="M23.16,27.87c-.64,1.3-.48,2.76-1.45,3.73a1.16,1.16,0,0,1-1,.49,1,1,0,0,1-.65.16,2.57,2.57,0,0,0-1.94,1.46A32.5,32.5,0,0,1,16.36,37a1,1,0,0,0-.16.65c0,1.94,0,3.89-.17,6,0,.49.17,1.14-.16,1.3a1.76,1.76,0,0,1-1.3.32,33.52,33.52,0,0,1-3.88.82,2,2,0,0,1-1-.17,2,2,0,0,0-1.62.33,1.36,1.36,0,0,1-.81.48,16.72,16.72,0,0,1-2.91.17c-.49,0-.65-.17-.49-.65v-.65c-1.62-2.76-1.78-6-2.43-9.08C1,34.19,1,31.6.15,29.33-.17,28.36,0,28,1,27.71c2.11-.65,4.38-1.29,6.48-2.1.33-.17.49-.33.81-.49s.81-.32,1.14-.49a3,3,0,0,1,1.13-.32c.17,0,.49,0,.49.16.49,1,1.13.65,1.78.49,1.3-.33,2.76-.81,4.05-1.14a3.38,3.38,0,0,0,.81-.48c.33-.33,1.62,0,1.79.48a13.41,13.41,0,0,0,1.13,2.76,2.56,2.56,0,0,0,1.3.81A3.5,3.5,0,0,1,23.16,27.87Z"/><path class="cls-1" d="M26.56,70.66l-.64.65-1,1.45c-.48.82-1,.82-1.45.17-.33-.33-.49-.49-.82-.17s-.48.65-.81,1C20.57,75.2,19.27,76.49,18,78l-.33.32c-.49-.64-1-1.45-1.46-2.1-1-1.46-1.78-2.76-2.91-4.22a4.45,4.45,0,0,0-1.79-1.62c-.81-.48-1.13-1.45-1.78-2.1a9.13,9.13,0,0,1-1.46-5c0-2.43-1-4.7-1.62-7,0-.16-.16-.48-.16-.64v-.33H9.55a7,7,0,0,0,1.78-.32,6.88,6.88,0,0,1,1.95-.49,4.69,4.69,0,0,0,2.1-.81c.49-.16.81-.65,1.14-1,1-.65,1.46-.65,1.94.49a2.3,2.3,0,0,0,2.11,1.62c.81.16.81.16.65,1.13a29.79,29.79,0,0,0-.17,3.89,1.26,1.26,0,0,0,.33.65c.65,1.13,1.29,2.11,1.94,3.24-.48.16-.81.32-1.29.49s-.49.32-.33.64a7.09,7.09,0,0,0,1.62,2.6c1,.81,1.95,1.78,2.92,2.59C26.73,70,26.89,70.33,26.56,70.66Z"/><path class="cls-1" d="M76.65,90.92c-1.14,0-2.11.16-3.08.16-3.24.16-6.49.32-9.57.32a5.21,5.21,0,0,1-4.37-2.11c-.49-.64-1.14-1.13-1.62-1.78a.7.7,0,0,1-.16-.81c0-1.13.32-2.1-.33-3.24-1.13-1.94-2.27-4-3.4-6.16-.16-.48-.33-.81.16-1.13.16,0,.16-.16.16-.33,1-1.13,1.79-2.43,3.24-2.91a2.61,2.61,0,0,0,1.14-1.14c.32-.32.49-.16.81,0l3.24,3.73.32.32a6.91,6.91,0,0,1,2,3.73,2.74,2.74,0,0,0,.32.81c.49-.48.65-1,1.14-1.46l.32.33c.65.81.65.65,1.14-.17a1.21,1.21,0,0,1,.64-.32,1.2,1.2,0,0,0,.81-2.11c-.81-1.29-.81-1.29.49-1.78a1.2,1.2,0,0,0,1-1.13c.17-1,1-1,1.62-1.46a1.71,1.71,0,0,0,.49.16,3.47,3.47,0,0,1,.65,1.62,17.57,17.57,0,0,1,.48,4,12.65,12.65,0,0,1-.32,2.43,5.51,5.51,0,0,0,.32,4.22c.81,1.62,1.46,3.24,2.27,4.86C76.48,90.43,76.48,90.59,76.65,90.92Z"/><path class="cls-1" d="M56.71,8.59h0c-1.79.81-3.41,1.46-5,2.27-1.78.81-3.4,1.62-5.18,2.43-.33.16-.65.65-1,1-.48.65-.64.49-1-.16a1.72,1.72,0,0,1-.32-.81c-.33-.65-.49-.81-1.3-.49A4.06,4.06,0,0,1,40.5,13c-.49-.16-.81.17-1.13.33a.68.68,0,0,0-.49,1c0,.16,0,.16-.16.33a3.76,3.76,0,0,1-2.92.64,5.8,5.8,0,0,1-1.46-.64,3.3,3.3,0,0,1-1.62-1.95,15.84,15.84,0,0,0-2.11-3.56c0-.17-.48-.17-.64,0a4.12,4.12,0,0,0-1,.81,1.55,1.55,0,0,1-.48-.17,10.77,10.77,0,0,0-.65-2.1c-.16-.65-.49-1.3-.65-1.79,0-.16,0-.64.16-.64a4.61,4.61,0,0,0,1.14-2.76,1,1,0,0,1,1-.81c.81,0,1.46-.16,2.27-.16.32,0,.48.16.81.16.16,0,.32.16.49,0C34.34.65,36,.81,37.42.81c.49,0,1.14-.16,1.62.32,0,.17.49,0,.65,0C40.34,1,41,.65,41.63,1c.17.16.49-.16.81-.32l1-.49c.16-.16.65-.16.65-.16a1.47,1.47,0,0,1,.48,1.13c.33,1.14.49,2.27.81,3.41,0,.16.49.16.65.16.49-.16.81,0,.81.65v.48c.32,2,.49,1.79,1.94,1.46h1.79c1.13,0,1.78-.65,1.46-1.78-.17-.49-.33-1-.49-1.62a.16.16,0,0,1,.16-.16c.65.16,1.3.48,2,.65a.16.16,0,0,1,.16.16,3.75,3.75,0,0,1,2.27,3.08A2.54,2.54,0,0,1,56.71,8.59Z"/><path class="cls-1" d="M48.44,79.25c-.81.48-1.46,1-2.27,1.46-.65.48-1.29.81-1.62,1.62a.34.34,0,0,1-.32.32l-1.46,1.46v.32c.81.65.81.65.16,1.3a3.69,3.69,0,0,1-1.13,1.13c-.33.33-.33.49,0,.81.48.33.32.65,0,1-1.3,1.46-2.76,3.08-4.06,4.7-.48.48-.81.64-1.45.16-.81-.49-1.62-.81-2.43-1.3-.17-.16-.49-.32-.65-.48-1.79-2-3.41-3.89-5.19-5.84a2.14,2.14,0,0,1-.48-.65c1.13-1.13,2.1-2.1,3.07-3.24l1.3-1.29c.32-.33.49-.65,1.14-.49.32,0,.81-.65,1.29-1.14A10.91,10.91,0,0,0,36,76.82c.33-.49.81-1.3.65-1.46-.65-1,.16-1,.65-1.46s.65-1.14,1.13-1.62A1.3,1.3,0,0,1,39,72a24.31,24.31,0,0,1,3.4.33c.17,0,.33.32.49.48s.16.49.32.81A22.3,22.3,0,0,1,45.52,72c.17.17.17.33.33.49.81,1.78,1.78,3.73,2.59,5.51C48.93,78.6,49.09,78.92,48.44,79.25Z"/><path class="cls-1" d="M67.73,21.55c.32,1.14-.49,1.95-1,2.6-.16.32-.81.32-1.29.32-.33,0-.49-.32-.65-.65a.59.59,0,0,1-.16-.48,1.26,1.26,0,0,1-.65.16,6,6,0,0,1-2.92.81,1.28,1.28,0,0,0-.65.32,7.11,7.11,0,0,1-1.13,1.14c-.81,1-.81.81-1.78.48a3.84,3.84,0,0,1-2.43-2.59c-.17-.65-.49-1.3-.65-1.94,0-.17-.33-.33-.33-.33-.64.16-.64-.32-1-.65-.48-.81-.81-.64-1.3,0a15.42,15.42,0,0,1-1.62,1.79c-.32-.65-.64-1.14-.81-1.62s-.64-1-1-1.46L45,15.56c-.33-.49-.33-.81.16-1a.35.35,0,0,0,.32-.33A3.71,3.71,0,0,1,48,12.64c1.94-1,3.88-1.94,6-2.75a20.87,20.87,0,0,1,2.92-1,1,1,0,0,1,1.3.81.88.88,0,0,0,.48.81,28.11,28.11,0,0,0,2.27,1.79c.65.48,1.13,1,1.78,1.46.81.81,2.11,1,2.76,2.1,1.13.33,1.29,1.62,1.94,2.43a2.78,2.78,0,0,1,.49,2.92C67.73,21.23,67.73,21.39,67.73,21.55Z"/><path class="cls-1" d="M38.08,72.93a3,3,0,0,1-1.46,1.29c-.49.33-.49.65-.33,1a1.2,1.2,0,0,1-.16,1.45c-.65.81-1.29,1.79-1.94,2.6-.33.32-.65.48-1,.81l-.16-.16c-.32.16-.65.16-1,.48-1.3,1.14-2.43,2.27-3.56,3.4-.33.33-.65.82-1.14,1.3a6.55,6.55,0,0,0-2.92-1.94L22,81.68c-.81-.49-1.62-1.14-2.43-1.62-.48-.33-1.13-.81-1.62-1.14-.32-.32-.32-.48,0-.81C19.44,76.65,20.74,75,22,73.58c.49-.49.65-.49,1,0s.64.64,1.13.16a8.58,8.58,0,0,1,1.13-1.46c1.79-2,3.73-4,5.68-5.84a11.67,11.67,0,0,1,2.1-1.29h.33c.32.65,1,.32,1.46.48a2.44,2.44,0,0,1,2.26,1.62c0,.17.17.33.17.49C38.89,69,38.72,71,38.08,72.93Z"/><path class="cls-1" d="M87,71.31c-.17,0-.17-.17-.33-.17-1,.33-1.62-.32-2.43-.48-.16,0-.16-.16-.32-.16-.33-.17-.65-.33-.81-.17-1.62.49-3.08-.16-4.54-.32-.81,0-1.46-.32-2.11.49a.59.59,0,0,1-.48.16c-.65.16-1.46.32-2.27.48-1.14-1.45-2.27-2.91-3.41-4.53-1.94-2.43-3.89-5-5.83-7.46a16.34,16.34,0,0,0-2.27-2.43,9.9,9.9,0,0,0-2.11-1.46,4.68,4.68,0,0,0,.81-1.13c.17-.33,0-.65.17-.81a3.36,3.36,0,0,1,.64-.81c.33-.33.49,0,.65.32.33.81.81,1.62,1.14,2.27a.58.58,0,0,0,.81.32c.48-.16.65,0,1,.49A3.69,3.69,0,0,0,66.43,57c1.79,1,3.73,2,5.51,2.92.17.16.33.33.49.49.81-.49,1.62-1,2.27-1.46a1.21,1.21,0,0,1,.65-.32c1.46.16,2.59-1.14,3.89-1.3.48,0,1-.49,1.45-.81a8.52,8.52,0,0,0,.65,1.78,4.39,4.39,0,0,0,.81,1c.17.17.33.33.33.49.16.65.32,1.13.48,1.78a4,4,0,0,1-.32,2.76c-.16.16,0,.65.16.81.33.32.81.65,1.14,1a.34.34,0,0,1,.32.32c.16.65.65,1,1.3,1.3a2.28,2.28,0,0,1,.48.65c.33.49.81,1,1.14,1.46A3.43,3.43,0,0,1,87.66,71C87.83,71.31,87.5,71.63,87,71.31Z"/><path class="cls-1" d="M57.52,85.57c0,1.29-.81,1.78-1.46,2.59a1,1,0,0,1-.65.16c-1.62-.16-3.24-.16-4.7-.32a7.19,7.19,0,0,1-.81.16,1.25,1.25,0,0,0,.32.81c.81.81.65,1.46,0,2.27-.16.32-.48.49-.64.81l-1,1.46c0,.16-.16.16-.16.32-1.29,1.46-2.59,3.08-4,4.54-.16.16-.32,0-.49,0l-.16-.16c-1.46-1.95-3.73-2.76-5.83-3.89l-.16-.16c.48-.65,1.13-1.14,1.62-1.79,1.13-1.13,2.1-2.43,3.24-3.56.32-.33.48-.65,0-1a.61.61,0,0,1,0-1c.65-.64,1.13-1.29,1.78-1.94-.32-.32-.65-.32-1-.65L44.71,83c.17-.16.33-.16.33-.32a4.23,4.23,0,0,1,1.62-1.78A24.3,24.3,0,0,1,52,78a6.9,6.9,0,0,0,1.46-.81l.16.16c1,1.62,2.1,3.41,2.91,5A7.47,7.47,0,0,1,57.52,85.57Z"/><path class="cls-1" d="M27.05,51.53a3.94,3.94,0,0,1-.16,1.95c-.16.32.49,1,.65,1.46.16.32.49.48.65.81a18.11,18.11,0,0,1-2.92.32c.16-1,.16-1-.81-1.13-1.46-.33-2.92-.65-4.54-1-.48-.17-.81-.33-1-.81,0-.17-.16-.33-.16-.49-.65-1.3-1.46-1.46-2.43-.49a6.27,6.27,0,0,1-2.6,1.62c-2.26.33-4.53,1.14-6.8.81A.59.59,0,0,1,6.31,54c-.49-1.79-.81-3.41-1.3-5.19-.16-.49-.32-.81-.48-1.46,1,0,1.94-.16,2.91-.16a1.69,1.69,0,0,0,1.46-.81c.33-.49.65-.49,1-.16a.77.77,0,0,0,1,.16c1.62-.33,3.4-.81,5-1.14h.49a2.11,2.11,0,0,1-.16,1c0,1,.32,1.29,1.29,1.13a22.83,22.83,0,0,1,3.24-.48,5,5,0,0,0,4.05-1.63c.17.65.33,1.14.49,1.63.16.32.33.48.81.32.81-.16,1.62-.32,2.59-.49,0,1,.17,1.79.17,2.6,0,.48-.17.48-.65.48C26.89,50.4,26.89,50.4,27.05,51.53Z"/><path class="cls-1" d="M73.73,71.63c-.65.32-1.3.81-2,1.13a1.83,1.83,0,0,0-1.13,1.3,3.37,3.37,0,0,1-.65.81,8.25,8.25,0,0,1-1.29.81.94.94,0,0,0-.17.65c.17.32.49.65.65,1,.49.81.16,1.46-.65,1.46-.65,0-1,.32-1.13,1.14h-.16a7.05,7.05,0,0,1-.49-1.14c-.32.49-.81.81-1.3,1.46a5.06,5.06,0,0,1-.32-1.3A3,3,0,0,0,64.33,77c-1-1.14-1.78-2.43-2.76-3.41L57.2,69.2c-.16-.16-.49-.16-.65-.32,0-.17.16-.17.16-.33a.16.16,0,0,0,.16-.16c1-.49,1-.49.65-1.62a2.82,2.82,0,0,1-.16-1.14V65l3.4,1c.17-.16.17-.33.33-.65.48.49.81,0,1.13-.32.49-.49,1.14-1,1.62-1.46.81-.65.81-1,0-1.62a23,23,0,0,0-2.1-1.79c.48-.48,1-1.13,1.62-1.78C67.08,62.56,70.33,67.09,73.73,71.63Z"/><path class="cls-1" d="M31.43,40.19c-.49.49-1,1.14-1.46,1.62a6.26,6.26,0,0,1-1.62,1.3c-1.78,1.13-3.56,2.27-5.35,3.24-.48.16-1,.16-1.45.32l-4.38.49c-.65.16-.81-.16-.81-.81.16-2.27.16-4.7.32-7a2.07,2.07,0,0,0-.16-1,3.26,3.26,0,0,1,.65-2.76c.32-.48.65-1.13,1-1.62a3.65,3.65,0,0,1,3.57-1.62,36.36,36.36,0,0,1,3.89,1.14.72.72,0,0,1,.48.48c.65,1,1.14,1.95,1.79,2.76a9,9,0,0,0,1.29,1c.65.49,1.3,1.13,1.95,1.62C31.75,39.7,31.75,39.87,31.43,40.19Z"/><path class="cls-1" d="M68.22,43.11A7,7,0,0,0,66.76,46c-.32,1-.49.81-1.3.32a21.72,21.72,0,0,1-4-2.59c-.48-.33-1-.49-1.46.16-.48.48-.81,1.13-1.29,1.62a9.37,9.37,0,0,0-1.3,1.3,1.7,1.7,0,0,0-.32,2.1c.16.33.32.81.48,1.14a.86.86,0,0,1-1,1,4.45,4.45,0,0,1-3.24-.33c-.16-.16-.49-.32-.49-.48.33-2-.81-3.57-1.46-5.19a12.9,12.9,0,0,1-1.13-3.24A3,3,0,0,0,48,39.54a1.56,1.56,0,0,1-1.13-1.29c-.17-.65-.33-1.14-.49-1.62v-.49l2.27-2.27a.87.87,0,0,1,1.3.16c1.13,1.14,1.62,2.6,2.59,3.73A27.14,27.14,0,0,0,54.6,40c.17.16.49.16.49,0a12.11,12.11,0,0,0,2.76-2c.48-.64,1.13-.64,1.62-1.29H60c.16.48.81.81.16,1.29-.32.33-.16.65.17.81.48.33.65.65,0,1.14a.81.81,0,0,0-.33.65c0,.16.33.16.49.32,1.3.81,2.75.49,4,.16A13.24,13.24,0,0,1,67.08,41C67.89,41,68.87,42.46,68.22,43.11Z"/><path class="cls-1" d="M68.05,35.65l-.81.81c-.64.65-.64,1.14.17,1.79l.16.16c-.65.48-.33,1.13-.16,1.62s0,.65-.49.65a46.77,46.77,0,0,1-4.7.48,6.06,6.06,0,0,1-2.11-.65c.33-.16.33-.32.49-.32a.67.67,0,0,0,0-1.13c-.32-.33-.81-.65-.16-1.14.16-.16-.16-1.29-.65-1.62-.33-.32-.65,0-1,.33a1.24,1.24,0,0,1-1.62.16c-1.14-.65-2.27-1.46-3.41-2.11a.59.59,0,0,0-.48-.16c1.29-1.14,0-1.78-.17-2.59a4.81,4.81,0,0,1,2.27-1,8.68,8.68,0,0,0,2-.48c.81-.33,1.62-.81,2.59-1.3a6.59,6.59,0,0,0-1.13-1.78.74.74,0,0,1,.16-1c.48-.49.81-1,1.3-1.46a1.23,1.23,0,0,1,.81-.33c.64-.16,1.45-.48,2.1-.65.49-.16.65-.32,1,.33a1.31,1.31,0,0,0,1.46.65c.49-.16.81,0,.65.65,0,1.29.16,2.59-1.46,3.24A5.46,5.46,0,0,0,66.6,31.6a1.23,1.23,0,0,1,.16.81,1.77,1.77,0,0,0,.32,1.3,7,7,0,0,1,.81,1.62C68.38,35.33,68.22,35.49,68.05,35.65Z"/><path class="cls-1" d="M58.49,71.63a8.58,8.58,0,0,1-1.94,1.46,6.22,6.22,0,0,0-1.62,1.3,14.22,14.22,0,0,1-2.59,2.75,8.17,8.17,0,0,1-2.76,1.13c-.16,0-.32-.16-.48-.32a33.42,33.42,0,0,1-2.6-5.51,33.39,33.39,0,0,0-2.59-5.35c-.16-.48-.16-.81.32-1.13,1.79-1.3,3.41-3.08,5.35-4a.36.36,0,0,0,.33-.33.56.56,0,0,1,.32.16,41.5,41.5,0,0,0,5.51,2.6,1.4,1.4,0,0,1,1,1.13A6.5,6.5,0,0,0,57,67.25c.16.49,0,.65-.33.82-.81.32-.81.48-.16,1.13.65.49,1.13,1.13,1.78,1.62C58.82,71.14,58.82,71.47,58.49,71.63Z"/><path class="cls-1" d="M57.36,38.25c-.16.16-.16.32-.32.48-1.78,1.62-2.92,1.3-4-.81-.65-1.13-1.3-2.1-2-3.24a7.08,7.08,0,0,0-1.13-1.13,1.41,1.41,0,0,0-1.14.16,7.52,7.52,0,0,0-1.13,1.13c-.49.49-1,.81-1.62,1.46-1-1.3-1.79-2.43-2.76-3.56a1,1,0,0,1,.16-1.3c1.3-1.13,2.6-2.27,3.73-3.4.81-.81,1.78-1.14,2.27-2.11.32-.49,1-.65,1.46-1s.49-.49.16-1c-.48-1-.48-1,.16-1.78.33-.32.65-.81,1-1.13s.48-.33.64,0a6.1,6.1,0,0,0,.81,1.29c.17-.16.33-.32.49-.32a.16.16,0,0,0,.16.16,25.3,25.3,0,0,0,1.3,3.08,1.92,1.92,0,0,0,.81.81,3.86,3.86,0,0,0,1.13.65c1.3.32,1.79,1.46,2.43,2.43-1.45.65-2.59,1.62-4.37,1.62a7.73,7.73,0,0,0-2.43,1A16.17,16.17,0,0,1,54,33.38V34c-.33.49-.33.81.16,1.14a40.21,40.21,0,0,1,3.4,2.27C57.69,37.44,57.85,37.76,57.36,38.25Z"/><path class="cls-1" d="M36.13,17.34a1.28,1.28,0,0,0-.65.32c-.48.17-.48.33-.32.81v.65c-.32.16-.81.33-1,.16C32.73,17.83,30.78,17.83,29,18a7.52,7.52,0,0,0-3.08,1c-.65.32-1.29.65-2.1,1.14a8.27,8.27,0,0,0,.32-2c-1.13.16-2.11.32-3.24.49a1.26,1.26,0,0,0,.16-.65c1-1.3.65-2.92.49-4.38a27.93,27.93,0,0,0-.81-3.4,2.24,2.24,0,0,1,.48-2,16.68,16.68,0,0,0,1.62-2.1c.49-.65,1-1.14,1.79-1h1c1-.17,1,0,1.29.81a34.52,34.52,0,0,0,1.3,4.21c.16.49.33.49.81.32l1.46-1c.16.33.32.65.49,1,.48,1.14,1.29,2,1.78,3.24a3.63,3.63,0,0,0,2.59,2c.65.16,1,.65,1.3,1.3C36.62,17,36.62,17.18,36.13,17.34Z"/><path class="cls-1" d="M63.84,63.2A11,11,0,0,1,61.74,65c-.16.16-.33,0-.49.16h-.48c-.49.65-1,.32-1.46.16-2.11-.81-4.38-1.62-6.49-2.43-.16,0-.32-.16-.64-.32.64-1.14,1.45-2.27,2.1-3.25a1.33,1.33,0,0,0,.33-1.13c-.17-.81-.33-1.78-.49-2.76,0-.48-.32-.81-.81-.48a5.51,5.51,0,0,0-1.46.65c-.48.16-.81.16-1-.49a3.14,3.14,0,0,0-1-1.94c-.16,0-.16-.33-.16-.49-.17-1.13-.33-1-1.46-1-1,0-1.14,0-1.14-1.14V49.27l.16-.17c.49.33,1.14.65,1.63,1a1.65,1.65,0,0,0,1.45.32,2.82,2.82,0,0,1,1.14-.16,1.23,1.23,0,0,1,.81.16,3.39,3.39,0,0,0,2.92,1,34.66,34.66,0,0,0,3.56-.81l2.43-.48a17.32,17.32,0,0,0,1,1.62c-.16.16-.48.32-.64.48s-.17.49-.33.81c-.32.49-.48,1-.81,1.46-.16.16-.32.16-.48.33l1.94,1.45a10.62,10.62,0,0,1,1.3,1.3v.33a10.62,10.62,0,0,1-1.3,1.45c-.49.33-.49.65,0,1A10.94,10.94,0,0,1,64,62.07,1.2,1.2,0,0,1,63.84,63.2Z"/><path class="cls-1" d="M37.91,53v.17a1.21,1.21,0,0,0,.65.32,1.4,1.4,0,0,1,1.13,1.3c.16,1.13.32,2.1.49,3.24a.57.57,0,0,1-.17.48,29.29,29.29,0,0,1-2.27,2.76,13.92,13.92,0,0,0-1.62-1.46,8.53,8.53,0,0,0-.32,1.78c0,.65-.32.81-.81.65-1.13-.16-2.43,0-3.4-.49a.74.74,0,0,1-.49-.81,10.64,10.64,0,0,1,0-2.26,2,2,0,0,0-1.46-2.44c-.48-.16-1-.81-1.46-1.13-.16-.16-.32-.16-.48-.32a5.49,5.49,0,0,1-.49-1,5.21,5.21,0,0,0,0-2.26c0-.49.16-.65.65-.65a5.57,5.57,0,0,0,3.24-.65h.32c2.27.16,4.38-.81,6.49-1.3a14.09,14.09,0,0,1,2.59-.16c.16,0,.32.32.49.49a6.24,6.24,0,0,0,1,1.78c.16.32.65.32,1.13.49.16,0,.33.16.49.32v.32C41.63,52.35,39.85,52.67,37.91,53Z"/><path class="cls-1" d="M54.12,58.83l-1.95,2.91c-.32.49-.48.49-1,.17-.81-.81-1.62-.49-2.43.16a23.51,23.51,0,0,1-2.59,1.78.5.5,0,0,1-.65,0c-1-.16-2-.48-2.76-.65-.32,0-.48-.32-.64-.64l-2-5.84A9.39,9.39,0,0,1,40,54.61,1.46,1.46,0,0,0,38.72,53c3.24-.64,6.49-1.45,9.89-1.13.16,0,.48.32.65.49a2.56,2.56,0,0,1,.64,1.13,13.58,13.58,0,0,0,.49,1.3c.16.81.65,1,1.46.64.49-.16,1.13-.48,1.78-.64.16,1.29.49,2.27.65,3.4C54.28,58.5,54.12,58.67,54.12,58.83Z"/><path class="cls-1" d="M44.88,29.17a16.49,16.49,0,0,0-1.62,1.62l-1.45,2.43a11.09,11.09,0,0,1-.65,1.14c-.49-.81-1-1.46-1.46-2.11a1.25,1.25,0,0,0-.81-.32.94.94,0,0,0-.65-.17c-.49-.32-.65,0-1,.33-.49.65-.65.65-1.46.16-.16-.16-.32-.32-.32-.49a6.64,6.64,0,0,0-2.92-4.53c-.33-.17-.49-.49-.81-.65-1-.33-1.14-1-1-1.95V22.2a1.22,1.22,0,0,1,.64-1.13A39.53,39.53,0,0,0,35,19.29a.69.69,0,0,0,.49-1c-.17-.32-.17-.65.32-.65.32,0,.81-.64,1.13,0,1.3,3.08,3.57,5.35,5.68,8a16.93,16.93,0,0,0,2.26,2.59C45.21,28.68,45.21,28.85,44.88,29.17Z"/><path class="cls-1" d="M50.55,24.15c-.16.32-.81.65-1.29,1-.33.32-.65.81-1,1.13L45.85,28.2c-.32.32-.65.16-1-.16-.81-1.14-1.78-2.11-2.59-3.24-1.14-1.46-2.43-2.76-3.41-4.22S37.26,17.5,36.45,16v-.32a18.43,18.43,0,0,1,2.11-.81c.49-.16.49-.32.32-.65a.93.93,0,0,1,1.3-1,3.63,3.63,0,0,0,2.59-.16c.65-.17.81-.17,1,.48a5.92,5.92,0,0,0,.64,1.79,3.83,3.83,0,0,0,.65,1c1.14,1.29,2.27,2.59,3.41,3.89a21.05,21.05,0,0,1,1.45,2.59C50.23,23.17,50.71,23.82,50.55,24.15Z"/><path class="cls-1" d="M46.18,40a4.78,4.78,0,0,0-2.43.81c-.65.49-1,.49-1.46-.49-.33-.65-.65-.48-1.14-.32-1,.32-1.78.65-2.91,1,.16.81.16,1-.81,1-.17,0-.49.17-.65,0-1.3-.48-2.43,0-3.57.33-.65.16-.81,0-1-.49s-.16-1.13-.32-1.62c0-.16.16-.32.32-.49.32-.16.49-.16.81-.32a.59.59,0,0,0,0-1.13c-.49-.33-.32-.49-.16-.81.49-.49.32-.81-.16-1.14-.81-.48-1.62-.81-1.95-1.78-.16-.33-.16-.49.16-.81.49-.49.81-1,1.3-1.46.32-.32.49-.32.65,0,.49.65,1,.49,1.3,0,.64-.81,1.13,0,1.62.16.16,0,.32.16.64.49.17-.16.17-.33.33-.65.32-.32.65-.65,1-.32h.16c1-.33,1.3.32,1.62,1,.33.48.65,1.13,1.14,1.78.48-.81,1-1.62,1.29-2.27h.17c1,1.3,2.1,2.59,3.08,4.05.32.33.32,1,.48,1.3s.16.81.33,1.13C46.83,39.7,46.83,40,46.18,40Z"/><path class="cls-1" d="M52.5,50.08a17.27,17.27,0,0,1-2.44.32,3.27,3.27,0,0,1-1.13-.49c-.65-.32-1.3-.81-1.94-1.13l-.17.16v2.27c0,.49,0,.65-.48.65a5.54,5.54,0,0,0-1.62.16,1.22,1.22,0,0,1-1-.32,1.19,1.19,0,0,0-.81-.33,1.76,1.76,0,0,1-1.29-1.29c-.33-1-.65-1.79-1-2.76-.65-1.78-1.14-3.73-1.79-5.51.81-.32,1.79-.65,2.6-1a1.11,1.11,0,0,1,.81.49c.64.64,1.13.81,1.94.16a5.51,5.51,0,0,1,1.46-.65c.49-.16.81-.33,1.3-.49h.32a2.6,2.6,0,0,1,2.27,2.43,3.06,3.06,0,0,0,.32,1.14c.65,1.46,1.3,2.75,2,4.21C52.33,48.46,52.33,49.27,52.5,50.08Z"/><path class="cls-1" d="M30.79,66.28c-1,1-1.95,2.11-2.92,3.08a.91.91,0,0,1-1.46,0c-1.13-1.13-2.27-2.11-3.4-3.08-.49-.48-.65-1.29-1.14-1.94.65-.16,1.3-.49,1.95-.65a12.33,12.33,0,0,1-1.14-1.95,3.84,3.84,0,0,0-.48-.81c-1.3-1.62-.81-3.4-.65-5.34,0-.49.32-.65.81-.49.81.16,1.78.32,2.59.49-.16,1-.16,1.13.81,1,.81-.16,1.62-.16,2.43-.33,1-.16,1.62.49,2.43.81.17,0,.17.33.17.49.16.81.16,1.62.32,2.43v.49c0,1.13-.16,2.43-.16,3.56,0,.17.16.49.16.65A1.78,1.78,0,0,1,30.79,66.28Z"/><path class="cls-1" d="M35.16,31.6c-.16.16-.49.33-.65.49-.32.32-.81.48-1.13,0s-.82-.16-1.14.16a4.87,4.87,0,0,1-1.3,1.3c-.64.48-.32,1.62.49,2.27l1.78,1.29c-.16.65-1.13.81-.65,1.62a1.3,1.3,0,0,0,.65.33,1.07,1.07,0,0,1-1.78,0,6.22,6.22,0,0,0-1.62-1.3A6.93,6.93,0,0,1,26.73,34a1,1,0,0,0-1-.81c-1.3-.32-2.59-.65-4.05-1.13a8.29,8.29,0,0,0,1.46-3.73.82.82,0,0,1,.81-.65,1.07,1.07,0,0,0,1.13-1,5.82,5.82,0,0,0,.32-1.62c.33-1.13.65-1.3,1.63-.81,2.1,1.3,4.21,2.59,6.15,4.05C34,29,34.35,30.31,35,31.28,35.32,31.28,35.32,31.6,35.16,31.6Z"/><path class="cls-1" d="M46,71.63c-.81.49-1.45,1.13-2.43,1.78,0-1.46-1-1.29-1.78-1.29a14.38,14.38,0,0,1-2.75-.33c-.17-1.13-.17-2.1-.33-3.08,0-.48-.32-.81-.65-1.29a2.43,2.43,0,0,1-.48-.65C37.1,65.47,36,65.15,34.67,65h-.49c-.48-.81-1-.33-1.45-.17-.33.17-.81.33-1.14.49-1.13-1-.49-2.27-.65-3.4,1.62.81,3.24.48,4.7.64a.35.35,0,0,0,.33-.32c.16-.65.16-1.13.32-1.94.33.48.65.64.81,1,.33.32.65.48,1,0,.65-.81,1.3-1.62,2-2.59a2.64,2.64,0,0,1,.32.81c.33,1.13.81,2.26,1.14,3.4.16.65.48.81,1.13,1,1,.16,2,.49,2.92.65-.65.49-1.14,1-1.78,1.46a1,1,0,0,0-.33,1.46A34.75,34.75,0,0,1,45.2,71,1.13,1.13,0,0,1,46,71.63Z"/><path class="cls-1" d="M40.66,48.13c-.32,0-.32.16-.48.16-2.11-.16-4,.81-6.16,1.14a4.55,4.55,0,0,1-1.46.16,4.35,4.35,0,0,0-2.43.49c-.65.32-1.14.16-1.14-.65a8,8,0,0,0-.16-2c0-.48-.16-.64-.65-.48-.81.16-1.62.32-2.59.48L25.11,46a1.21,1.21,0,0,1,.32-.65c.65-.33,1.3-.81,1.94-1.14a8.25,8.25,0,0,0,3.57-3.08c.16-.16.49-.32.65-.65.16.82.48,1.46.65,2.11.16.33.32.49.64.33.17,0,.49-.17.65-.17a5,5,0,0,1,3.08-.32,4.34,4.34,0,0,0,2-.16A42.56,42.56,0,0,1,40.66,48.13Z"/><path class="cls-1" d="M34,19.45c-.32.32-.48.48-.81.48l-1.94,1a.88.88,0,0,0-.65,1,17.93,17.93,0,0,0,.16,2.92v.81A8.26,8.26,0,0,0,29.65,25c-.81-.49-1.78-1-2.59-1.46-.33-.16-.65-.16-.82.32-.32.65-.48,1.3-.81,1.95-.32,1.29-1.13,1.62-2.43,1.29-1.78-.48-1.78-1.94-2.43-3.08a5.45,5.45,0,0,0-.65-1.45,2.11,2.11,0,0,1,.81-2.6.57.57,0,0,0,.17-.48v-1c1-.16,1.78-.16,2.91-.32-.16.65-.16,1.14-.32,2a7.62,7.62,0,0,0,1-.33A6.27,6.27,0,0,0,25.92,19a8.17,8.17,0,0,1,1.78-.65,7.69,7.69,0,0,1,5,.16A4.49,4.49,0,0,0,34,19.45Z"/></g></g></svg>