<svg xmlns="http://www.w3.org/2000/svg" viewBox="0 0 1055.63 225.67"><defs><style>.cls-1{fill:#ffa039;}.cls-2{fill:#9d85e2;}.cls-3{fill:#f57887;}.cls-4{fill:#70b7cb;}.cls-5{fill:#ccc;}</style></defs><g id="Laag_2" data-name="Laag 2"><g id="Laag_1-2" data-name="Laag 1"><path class="cls-1" d="M180.64,92.08h-100v25h100Z"/><path class="cls-1" d="M1030.63,92.08h-150v25h150Z"/><path class="cls-2" d="M730.64,25.42h-675v25h675Z"/><path class="cls-2" d="M1030.63,25.42h-175v25h175Z"/><path class="cls-3" d="M280.64,125.42h-200v25h200Z"/><path class="cls-3" d="M1030.63,125.42h-150v25h150Z"/><path class="cls-4" d="M1030.63,58.75h-950v25h950Z"/><path d="M155.21,140.25h.92a1.23,1.23,0,0,0,1.33,1.08,1.06,1.06,0,0,0,1.17-1c0-.58-.5-.83-1-1l-.83-.16c-1.34-.34-1.59-1.17-1.59-1.67a2,2,0,0,1,2.09-1.83,1.85,1.85,0,0,1,2,1.83h-.92a1,1,0,0,0-1.08-1c-.59,0-1.17.33-1.17.92,0,.16.08.58.83.83l.84.17c1.08.25,1.75.83,1.75,1.75a2.19,2.19,0,0,1-4.34.08Z"/><path d="M162.8,138.58h-.92v3.5H161v-3.5h-.75v-.75H161v-1.58h.91v1.58h.92Z"/><path d="M167.8,137.83v4.25h-.92v-.66a1.68,1.68,0,0,1-1.5.75,2.25,2.25,0,0,1-.08-4.5,1.78,1.78,0,0,1,1.5.75v-.67h1Zm-.92,2.09a1.33,1.33,0,1,0-2.66,0,1.33,1.33,0,0,0,1.33,1.41A1.38,1.38,0,0,0,166.88,139.92Z"/><path d="M173,137.83l-2.67,6.34h-.91l.91-2.25-1.66-4.09h1l1.25,3,1.25-3Z"/><path d="M177.13,140.5h-2.58l-.59,1.58h-1l2.42-6.33h1l2.42,6.33h-1Zm-.33-.83-1-2.75-1,2.75Z"/><path d="M181.47,138.58h-.92v3.5h-.92v-3.5h-.75v-.75h.75v-1.58h.92v1.58h.92Z"/><path d="M187.3,135.75v6.33h-.92v-2.75h-2.91v2.75h-.92v-6.33h.92v2.75h2.91v-2.75Z"/><path d="M188.46,139.92a2.19,2.19,0,0,1,2.25-2.25,2.14,2.14,0,0,1,2.25,2.25,2.25,2.25,0,0,1-4.5,0Zm3.59,0a1.34,1.34,0,1,0-1.34,1.41A1.39,1.39,0,0,0,192.05,139.92Z"/><path d="M200.71,139.67v2.41h-.91v-2.41c0-.67-.34-1.09-.92-1.09a1.1,1.1,0,0,0-1.08,1.09v2.41h-.92v-2.41c0-.67-.33-1.09-.92-1.09a1.12,1.12,0,0,0-1.16,1.25v2.34H194v-4.25h.92v.66a1.34,1.34,0,0,1,1.33-.75,1.62,1.62,0,0,1,1.42.84,1.6,1.6,0,0,1,1.5-.84C200.13,137.75,200.71,138.42,200.71,139.67Z"/><path d="M206.13,140.33h-3.41a1.2,1.2,0,0,0,1.33,1,1.36,1.36,0,0,0,1.17-.58l.75.33a2.28,2.28,0,1,1-2-3.41,2.07,2.07,0,0,1,2.16,2.25Zm-.91-.75a1.14,1.14,0,0,0-1.25-1,1.13,1.13,0,0,0-1.25,1Z"/><path d="M92.46,103.33H90.55v5.42h-.92v-5.42H87.71v-.83h4.67v.83Z"/><path d="M96.55,107H93.14a1.2,1.2,0,0,0,1.33,1,1.36,1.36,0,0,0,1.17-.58l.75.33a2.28,2.28,0,1,1-2-3.42,2.08,2.08,0,0,1,2.16,2.25Zm-.83-.75a1.28,1.28,0,0,0-2.5,0Z"/><path d="M97.63,102.17h.92v6.58h-.92Z"/><path d="M104,107h-3.41a1.2,1.2,0,0,0,1.33,1,1.36,1.36,0,0,0,1.17-.58l.75.33a2.28,2.28,0,1,1-2-3.42,2.08,2.08,0,0,1,2.16,2.25Zm-.91-.75a1.14,1.14,0,0,0-1.25-1,1.12,1.12,0,0,0-1.25,1Z"/><path d="M111.21,104.5l-1.58,4.25h-.75l-1.09-3.08-1.08,3.08H106l-1.58-4.25h1l1,2.92,1-2.92h.83l1,2.92,1-2.92Z"/><path d="M111.63,106.58a2.19,2.19,0,0,1,2.25-2.25,2.15,2.15,0,0,1,2.25,2.25,2.19,2.19,0,0,1-2.25,2.25A2.24,2.24,0,0,1,111.63,106.58Zm3.59,0a1.34,1.34,0,1,0-1.34,1.42A1.34,1.34,0,0,0,115.22,106.58Z"/><path d="M120.05,104.5l-.17.83a2,2,0,0,0-.66-.16c-.75,0-1.17.83-1.17,2v1.5h-.92v-4.25h.92v1c.25-.75.67-1.09,1.17-1.09A6,6,0,0,1,120.05,104.5Z"/><path d="M123.55,108.75l-1.84-2v2h-.91v-6.58h.91v3.75l1.42-1.42h1.25l-1.83,1.83,2.25,2.42Z"/><path d="M125.22,102.92a.57.57,0,0,1,.58-.59.59.59,0,1,1-.58.59Zm.17,1.58h.91v4.25h-.91Z"/><path d="M131.63,106.33v2.42h-.91v-2.42a1,1,0,0,0-1-1.08,1.15,1.15,0,0,0-1.25,1.17v2.25h-.92v-4.25h.92v.66a1.63,1.63,0,0,1,1.41-.75A1.78,1.78,0,0,1,131.63,106.33Z"/><path d="M137.13,104.5v3.67c0,2-.92,2.75-2.34,2.75a2.25,2.25,0,0,1-2-1.17l.75-.42a1.53,1.53,0,0,0,1.17.75c.92,0,1.42-.5,1.42-1.83v-.08a1.79,1.79,0,0,1-1.5.75,2.17,2.17,0,0,1-2.17-2.25,2.15,2.15,0,0,1,2.08-2.25,1.77,1.77,0,0,1,1.5.75v-.59h1.09Zm-.92,2.08a1.34,1.34,0,0,0-2.67,0,1.34,1.34,0,0,0,1.34,1.42A1.39,1.39,0,0,0,136.21,106.58Z"/><path d="M138.21,105.58a3.26,3.26,0,0,1,3.25-3.25,3,3,0,0,1,2.42,1.17l-.67.58a2.2,2.2,0,0,0-1.75-.83,2.31,2.31,0,0,0-2.25,2.33,2.26,2.26,0,0,0,2.25,2.34,2.34,2.34,0,0,0,1.75-.84l.67.59a3.23,3.23,0,0,1-2.42,1.16A3.2,3.2,0,0,1,138.21,105.58Z"/><path d="M144.8,102.17h.91v6.58h-.91Z"/><path d="M146.8,106.58a2.19,2.19,0,0,1,2.25-2.25,2.15,2.15,0,0,1,2.25,2.25,2.25,2.25,0,0,1-4.5,0Zm3.58,0a1.34,1.34,0,1,0-1.33,1.42A1.33,1.33,0,0,0,150.38,106.58Z"/><path d="M152.05,107.42h.83a.73.73,0,0,0,.75.66c.5,0,.83-.25.83-.58s-.25-.42-.58-.5l-.58-.17c-.84-.25-1.17-.58-1.17-1.25a1.41,1.41,0,0,1,1.5-1.25,1.35,1.35,0,0,1,1.5,1.25h-.83c0-.33-.34-.5-.67-.5s-.67.25-.67.5.25.42.5.5l.67.17a1.24,1.24,0,0,1,1.08,1.25,1.51,1.51,0,0,1-1.66,1.33A1.47,1.47,0,0,1,152.05,107.42Z"/><path d="M160.38,104.5v4.25h-.92v-.67a1.63,1.63,0,0,1-1.41.75c-1.09,0-1.75-.66-1.75-1.91V104.5h.91v2.42a1,1,0,0,0,1,1.08,1.15,1.15,0,0,0,1.25-1.17V104.5Z"/><path d="M164.55,104.5l-.17.83a2,2,0,0,0-.66-.16c-.75,0-1.17.83-1.17,2v1.5h-.92v-4.25h.92v1c.25-.75.67-1.09,1.17-1.09A6,6,0,0,1,164.55,104.5Z"/><path d="M169.22,107H165.8a1.21,1.21,0,0,0,1.33,1,1.36,1.36,0,0,0,1.17-.58l.75.33a2.28,2.28,0,1,1-2-3.42,2.08,2.08,0,0,1,2.17,2.25C169.3,106.67,169.22,106.83,169.22,107Zm-.84-.75a1.12,1.12,0,0,0-1.25-1,1.14,1.14,0,0,0-1.25,1Z"/><path d="M170,107.42h.84a.73.73,0,0,0,.75.66c.5,0,.83-.25.83-.58s-.25-.42-.58-.5l-.59-.17c-.83-.25-1.16-.58-1.16-1.25a1.41,1.41,0,0,1,1.5-1.25,1.35,1.35,0,0,1,1.5,1.25h-.84c0-.33-.33-.5-.66-.5s-.67.25-.67.5.25.42.5.5l.67.17a1.25,1.25,0,0,1,1.08,1.25,1.51,1.51,0,0,1-1.67,1.33A1.53,1.53,0,0,1,170,107.42Z"/><path d="M531.05,72.25A3.26,3.26,0,0,1,534.3,69a3,3,0,0,1,2.42,1.17l-.67.58a2.22,2.22,0,0,0-1.75-.83,2.31,2.31,0,0,0-2.25,2.33,2.26,2.26,0,0,0,2.25,2.33,2.34,2.34,0,0,0,1.75-.83l.67.58a3.2,3.2,0,0,1-5.67-2.08Z"/><path d="M537.63,68.83h.92v6.59h-.92Z"/><path d="M539.63,73.25A2.19,2.19,0,0,1,541.88,71a2.14,2.14,0,0,1,2.25,2.25,2.25,2.25,0,0,1-4.5,0Zm3.59,0a1.34,1.34,0,1,0-1.34,1.42A1.35,1.35,0,0,0,543.22,73.25Z"/><path d="M544.89,74.08h.83a.73.73,0,0,0,.75.67c.5,0,.83-.25.83-.58s-.25-.42-.58-.5l-.58-.17c-.84-.25-1.17-.58-1.17-1.25a1.41,1.41,0,0,1,1.5-1.25,1.35,1.35,0,0,1,1.5,1.25h-.83c0-.33-.34-.5-.67-.5s-.67.25-.67.5.25.42.5.5l.67.17a1.24,1.24,0,0,1,1.08,1.25,1.51,1.51,0,0,1-1.66,1.33A1.47,1.47,0,0,1,544.89,74.08Z"/><path d="M553.88,71.08a1.85,1.85,0,0,1-1.91,2h-1.58v2.34h-.92V69.08H552A1.85,1.85,0,0,1,553.88,71.08Zm-.91,0a1.05,1.05,0,0,0-1-1.16h-1.58v2.25h1.49A1,1,0,0,0,553,71.08Z"/><path d="M558.8,71.17v4.25h-.92v-.67a1.64,1.64,0,0,1-1.42.75,1.68,1.68,0,0,1-1.75-1.92V71.17h.92v2.41a1,1,0,0,0,1,1.09,1.16,1.16,0,0,0,1.25-1.17V71.17Z"/><path d="M564.63,73.25a2.17,2.17,0,0,1-2.17,2.25,1.79,1.79,0,0,1-1.5-.75v.67h-.91V68.83H561v2.92a1.69,1.69,0,0,1,1.5-.75A2.17,2.17,0,0,1,564.63,73.25Zm-.92,0a1.26,1.26,0,0,0-1.33-1.33,1.31,1.31,0,0,0-1.33,1.33,1.39,1.39,0,0,0,1.33,1.42A1.34,1.34,0,0,0,563.71,73.25Z"/><path d="M569.22,73.83h-2.59l-.58,1.59h-1l2.42-6.34h1l2.41,6.34h-1ZM569,73l-1-2.75L567,73Z"/><path d="M575.55,73v2.42h-.92V73a1,1,0,0,0-1-1.08,1.15,1.15,0,0,0-1.25,1.16v2.25h-.92V71.08h.92v.67A1.64,1.64,0,0,1,573.8,71,1.78,1.78,0,0,1,575.55,73Z"/><path d="M580.55,71.17l-2.67,6.33H577l.92-2.25-1.67-4.08h1l1.25,3,1.25-3Z"/><path d="M349.38,42.08l-.58-4.58-1.92,3.92h-.83l-1.92-3.92-.58,4.58h-.92l.75-6.33h.84l2.16,4.58,2.17-4.58h.83l.75,6.33Z"/><path d="M355.71,37.83v4.25h-.92v-.66a1.67,1.67,0,0,1-1.49.75,2.17,2.17,0,0,1-2.17-2.25,2.15,2.15,0,0,1,2.08-2.25,1.78,1.78,0,0,1,1.5.75v-.67h1Zm-.83,2.09a1.34,1.34,0,1,0-2.67,0,1.34,1.34,0,0,0,1.33,1.41A1.39,1.39,0,0,0,354.88,39.92Z"/><path d="M356.8,40.75h.83a.74.74,0,0,0,.75.67c.5,0,.84-.25.84-.59s-.25-.41-.59-.5l-.58-.16c-.83-.25-1.17-.59-1.17-1.25a1.41,1.41,0,0,1,1.5-1.25,1.34,1.34,0,0,1,1.5,1.25h-.83c0-.34-.33-.5-.67-.5s-.66.25-.66.5.25.41.5.5l.66.16A1.26,1.26,0,0,1,360,40.83a1.52,1.52,0,0,1-1.67,1.34A1.47,1.47,0,0,1,356.8,40.75Z"/><path d="M360.8,40.75h.83a.74.74,0,0,0,.75.67c.5,0,.84-.25.84-.59s-.25-.41-.59-.5l-.58-.16c-.83-.25-1.17-.59-1.17-1.25a1.41,1.41,0,0,1,1.5-1.25,1.34,1.34,0,0,1,1.5,1.25h-.83c0-.34-.33-.5-.67-.5s-.66.25-.66.5.25.41.5.5l.66.16A1.26,1.26,0,0,1,364,40.83a1.52,1.52,0,0,1-1.67,1.34A1.58,1.58,0,0,1,360.8,40.75Z"/><path d="M365,38.92a3.19,3.19,0,0,1,5.33-2.42l-.67.58a2.38,2.38,0,0,0-1.5-.58,2.31,2.31,0,0,0-2.25,2.33,2.26,2.26,0,0,0,2.25,2.34,1.79,1.79,0,0,0,1.92-1.42v-.17h-1.83v-.83h2.83c0,2.25-1.17,3.33-3,3.33A3,3,0,0,1,365,38.92Z"/><path d="M376.38,37.83v4.25h-.91v-.66a1.69,1.69,0,0,1-1.5.75,2.17,2.17,0,0,1-2.17-2.25,2.15,2.15,0,0,1,2.08-2.25,1.77,1.77,0,0,1,1.5.75v-.67h1Zm-.91,2.09a1.34,1.34,0,1,0-1.34,1.41A1.39,1.39,0,0,0,375.47,39.92Z"/><path d="M379.89,38.58H379v3.5h-.92v-3.5h-.75v-.75h.75V36.25H379v1.58h.92Z"/><path d="M384.72,39.67v2.41h-.92V39.67a1,1,0,0,0-1-1.09,1.16,1.16,0,0,0-1.25,1.17V42h-.92V35.42h.92v3a1.64,1.64,0,0,1,1.42-.75A1.74,1.74,0,0,1,384.72,39.67Z"/><path d="M390.05,40.33h-3.41a1.2,1.2,0,0,0,1.33,1,1.36,1.36,0,0,0,1.17-.58l.75.33a2.28,2.28,0,1,1-2-3.41,2.07,2.07,0,0,1,2.16,2.25C390.14,40,390.05,40.17,390.05,40.33Zm-.83-.75a1.28,1.28,0,0,0-2.5,0Z"/><path d="M394,37.83l-.17.84a1.84,1.84,0,0,0-.67-.17c-.75,0-1.16.83-1.16,2V42h-.92V37.75H392v1c.25-.75.66-1.08,1.16-1.08A5,5,0,0,1,394,37.83Z"/><path d="M1055.63,158.33H5.63v.84h1050Z"/><path d="M29.22,197.42c1.08,1.08,1.83,2.75.5,4.08a2,2,0,0,1-2.17.5l.34-.83a1.12,1.12,0,0,0,1.25-.25,1.87,1.87,0,0,0-.34-2.5,1.8,1.8,0,0,1-.5,1.5,2.06,2.06,0,0,1-2.83.08,2,2,0,0,1,.08-2.92C26.55,195.92,28,196.25,29.22,197.42Zm-1.33.16a1.21,1.21,0,0,0-1.75,1.67,1.25,1.25,0,0,0,1.66,0A1.28,1.28,0,0,0,27.89,197.58Z"/><path d="M30.39,197.08l2.25-2.25.58.59L31,197.67Z"/><path d="M36.71,191.92a1.9,1.9,0,0,1-.16,2.75,2.21,2.21,0,0,1-2.25.5l.17-.84a1.35,1.35,0,0,0,1.41-.25,1.09,1.09,0,0,0,.17-1.58,1.08,1.08,0,0,0-1.58.08l-.42.42-.5-.5.33-.33a.88.88,0,0,0,.09-1.34.81.81,0,0,0-1.17.09,1.28,1.28,0,0,0-.33,1.08l-.75.08a2,2,0,0,1,.58-1.83,1.58,1.58,0,0,1,2.42-.08,1.3,1.3,0,0,1,.33,1.41A1.45,1.45,0,0,1,36.71,191.92Z"/><path d="M36.88,190.58l2.25-2.25.59.59-2.25,2.25Z"/><path d="M43.72,186.17l.58.58-2.75,2.75-.33-.33-.33-3.5c-.09-.59-.17-1.09-.42-1.25a.86.86,0,0,0-1.33.08,1.05,1.05,0,0,0-.17,1.42l-.67.41a1.84,1.84,0,0,1,.25-2.5,1.71,1.71,0,0,1,2.59-.08,2.45,2.45,0,0,1,.58,1.58l.25,2.42Z"/><path d="M42.89,184c-1.25-1.25-1.84-2.5-.67-3.75s2.5-.58,3.75.67,1.83,2.5.67,3.75S44.05,185.17,42.89,184Zm2.5-2.5c-.84-.83-1.75-1.42-2.5-.67s-.17,1.67.66,2.5,1.75,1.42,2.5.67S46.22,182.42,45.39,181.5Z"/><path d="M50.89,179l.58.58-2.75,2.75-.33-.33-.33-3.5c-.09-.58-.17-1.08-.42-1.25a.87.87,0,0,0-1.33.08,1.05,1.05,0,0,0-.17,1.42l-.67.42a1.84,1.84,0,0,1,.25-2.5,1.71,1.71,0,0,1,2.59-.09,2.48,2.48,0,0,1,.58,1.59l.25,2.41Z"/><path d="M50.14,176.75c-1.25-1.25-1.84-2.5-.67-3.75s2.5-.58,3.75.67,1.83,2.5.67,3.75S51.3,178,50.14,176.75Zm2.41-2.42c-.83-.83-1.75-1.41-2.5-.66s-.16,1.66.67,2.5,1.75,1.41,2.5.66S53.39,175.17,52.55,174.33Z"/><path d="M48.05,199.42l4.33,4.33-.66.67L48.3,201l-.58,1.25-.59-.58Z"/><path d="M55.05,198.33a2,2,0,0,1-.08,2.92c-1,1-2.34.83-3.67-.5-1.08-1.08-1.83-2.75-.58-4.08a2,2,0,0,1,2.16-.5l-.33.83a1.1,1.1,0,0,0-1.25.25,1.8,1.8,0,0,0,.42,2.5,1.53,1.53,0,0,1,.5-1.5A2.05,2.05,0,0,1,55.05,198.33Zm-.67.67a1.25,1.25,0,0,0-1.66,0,1.13,1.13,0,1,0,1.5,1.67A1,1,0,0,0,54.38,199Z"/><path d="M55.38,197.08l2.25-2.25.59.59L56,197.67Z"/><path d="M61.71,191.92a1.9,1.9,0,0,1-.16,2.75,2.21,2.21,0,0,1-2.25.5l.17-.84a1.35,1.35,0,0,0,1.41-.25,1.09,1.09,0,0,0,.17-1.58,1.08,1.08,0,0,0-1.58.08l-.42.42-.5-.5.33-.33a.88.88,0,0,0,.09-1.34.81.81,0,0,0-1.17.09,1.28,1.28,0,0,0-.33,1.08l-.75.08a2,2,0,0,1,.58-1.83,1.58,1.58,0,0,1,2.42-.08,1.3,1.3,0,0,1,.33,1.41A1.45,1.45,0,0,1,61.71,191.92Z"/><path d="M61.88,190.58l2.25-2.25.59.59-2.25,2.25Z"/><path d="M68.72,186.17l.58.58-2.75,2.75-.33-.33-.33-3.5c-.09-.59-.17-1.09-.42-1.25-.42-.42-.92-.34-1.42.08a1.05,1.05,0,0,0-.16,1.42l-.67.41a1.84,1.84,0,0,1,.25-2.5,1.7,1.7,0,0,1,2.58-.08,2.41,2.41,0,0,1,.59,1.58l.25,2.42Z"/><path d="M67.88,184c-1.25-1.25-1.83-2.5-.66-3.75s2.5-.58,3.75.67,1.83,2.5.66,3.75S69.05,185.17,67.88,184Zm2.5-2.5c-.83-.83-1.75-1.42-2.5-.67s-.16,1.67.67,2.5,1.75,1.42,2.5.67S71.22,182.42,70.38,181.5Z"/><path d="M75.88,179l.58.58-2.75,2.75-.33-.33L73,178.5c-.08-.58-.16-1.08-.41-1.25a.88.88,0,0,0-1.34.08,1.05,1.05,0,0,0-.16,1.42l-.67.42a1.84,1.84,0,0,1,.25-2.5,1.7,1.7,0,0,1,2.58-.09,2.43,2.43,0,0,1,.59,1.59l.25,2.41Z"/><path d="M75.13,176.75c-1.25-1.25-1.83-2.5-.66-3.75s2.5-.58,3.75.67,1.83,2.5.66,3.75S76.3,178,75.13,176.75Zm2.42-2.42c-.83-.83-1.75-1.41-2.5-.66s-.17,1.66.67,2.5,1.75,1.41,2.5.66S78.38,175.17,77.55,174.33Z"/><path d="M5.8,199.08l.58.59-2.75,2.75-.33-.34L3,198.58c-.09-.58-.17-1.08-.42-1.25a.87.87,0,0,0-1.33.09,1,1,0,0,0-.17,1.41l-.67.42a1.84,1.84,0,0,1,.25-2.5,1.71,1.71,0,0,1,2.59-.08,2.45,2.45,0,0,1,.58,1.58l.25,2.42Z"/><path d="M5.38,197.08l2.25-2.25.59.59L6,197.67Z"/><path d="M11.71,191.92a1.9,1.9,0,0,1-.16,2.75,2.21,2.21,0,0,1-2.25.5l.17-.84a1.35,1.35,0,0,0,1.41-.25,1.09,1.09,0,0,0,.17-1.58,1.08,1.08,0,0,0-1.58.08l-.42.42-.5-.5.33-.33A.88.88,0,0,0,9,190.83a.81.81,0,0,0-1.17.09A1.28,1.28,0,0,0,7.47,192l-.75.08a2,2,0,0,1,.58-1.83,1.58,1.58,0,0,1,2.42-.08,1.3,1.3,0,0,1,.33,1.41A1.45,1.45,0,0,1,11.71,191.92Z"/><path d="M11.88,190.58l2.25-2.25.58.59-2.25,2.25Z"/><path d="M18.72,186.17l.58.58-2.75,2.75-.33-.33-.34-3.5c-.08-.59-.16-1.09-.41-1.25a.87.87,0,0,0-1.34.08,1.05,1.05,0,0,0-.16,1.42l-.67.41a1.84,1.84,0,0,1,.25-2.5,1.7,1.7,0,0,1,2.58-.08,2.41,2.41,0,0,1,.59,1.58l.25,2.42Z"/><path d="M17.88,184c-1.25-1.25-1.83-2.5-.66-3.75s2.5-.58,3.75.67,1.83,2.5.66,3.75S19.05,185.17,17.88,184Zm2.5-2.5c-.83-.83-1.75-1.42-2.5-.67s-.16,1.67.67,2.5,1.75,1.42,2.5.67S21.22,182.42,20.38,181.5Z"/><path d="M25.88,179l.59.58-2.75,2.75-.34-.33-.33-3.5c-.08-.58-.17-1.08-.42-1.25-.41-.42-.91-.33-1.41.08a1.05,1.05,0,0,0-.17,1.42l-.67.42a1.84,1.84,0,0,1,.25-2.5,1.71,1.71,0,0,1,2.59-.09,2.48,2.48,0,0,1,.58,1.59l.25,2.41Z"/><path d="M25.13,176.75c-1.25-1.25-1.83-2.5-.66-3.75s2.5-.58,3.75.67,1.83,2.5.66,3.75S26.3,178,25.13,176.75Zm2.42-2.42c-.83-.83-1.75-1.41-2.5-.66s-.17,1.66.67,2.5,1.75,1.41,2.5.66S28.38,175.17,27.55,174.33Z"/><path d="M202.47,202.42l.58.58-2.75,2.75-.33-.33-.34-3.5c-.08-.59-.16-1.09-.41-1.25-.42-.42-.92-.34-1.42.08a1.06,1.06,0,0,0-.17,1.42l-.66.41a1.84,1.84,0,0,1,.25-2.5,1.7,1.7,0,0,1,2.58-.08,2.45,2.45,0,0,1,.58,1.58l.25,2.42Z"/><path d="M202.38,195.17l2,6.41-.75.75L202,196.75l-1.92,1.92-.58-.59Z"/><path d="M205,197.42l2.25-2.25.58.58L205.55,198Z"/><path d="M212.05,192.25l-.58.58.83.84-.67.66-.83-.83-2.17,2.17-.16-.17-.67-5.83.17-.17,2.75,2.75.58-.58Zm-1.83.67-1.34-1.34.25,2.42Z"/><path d="M211.8,190.58l2.25-2.25.59.59-2.25,2.25Z"/><path d="M218.64,186.17l.58.58-2.75,2.75-.33-.33-.34-3.5c-.08-.59-.16-1.09-.41-1.25-.42-.42-.92-.34-1.42.08a1.05,1.05,0,0,0-.17,1.42l-.66.41a1.83,1.83,0,0,1,.25-2.5,1.7,1.7,0,0,1,2.58-.08,2.45,2.45,0,0,1,.58,1.58l.25,2.42Z"/><path d="M217.88,184c-1.25-1.25-1.83-2.5-.66-3.75s2.5-.58,3.75.67,1.83,2.5.66,3.75C220.3,185.83,219.05,185.17,217.88,184Zm2.42-2.5c-.83-.83-1.75-1.42-2.5-.67s-.17,1.67.67,2.5,1.75,1.42,2.5.67S221.13,182.42,220.3,181.5Z"/><path d="M225.88,179l.59.58-2.75,2.75-.34-.33-.33-3.5c-.08-.58-.17-1.08-.42-1.25a.87.87,0,0,0-1.33.08,1.05,1.05,0,0,0-.16,1.42l-.67.42a1.84,1.84,0,0,1,.25-2.5,1.7,1.7,0,0,1,2.58-.09,2.48,2.48,0,0,1,.58,1.59l.25,2.41Z"/><path d="M225.05,176.75c-1.25-1.25-1.83-2.5-.67-3.75s2.5-.58,3.75.67,1.84,2.5.67,3.75S226.3,178,225.05,176.75Zm2.5-2.42c-.83-.83-1.75-1.41-2.5-.66s-.17,1.66.67,2.5,1.75,1.41,2.5.66S228.38,175.17,227.55,174.33Z"/><path d="M230.3,199l-.59.58.84.84-.67.66-.83-.83-2.17,2.17-.17-.17-.66-5.83.16-.17L229,199l.59-.58Zm-1.84.67-1.33-1.34.25,2.42Z"/><path d="M230,197.33l2.25-2.25.59.59-2.25,2.25Z"/><path d="M236.47,191.75a2,2,0,0,1-.09,3,2.39,2.39,0,0,1-2.5.58l.25-.83a1.45,1.45,0,0,0,1.67-.33,1.19,1.19,0,1,0-1.67-1.67,2,2,0,0,0-.58,1.42l-.67.08-1.75-2.5,2.25-2.25.59.58-1.75,1.75.91,1.42a2.26,2.26,0,0,1,.59-1.17A1.78,1.78,0,0,1,236.47,191.75Z"/><path d="M236.8,190.58l2.25-2.25.58.59-2.25,2.25Z"/><path d="M243.55,186.17l.58.58-2.75,2.75-.33-.33-.34-3.5c-.08-.59-.16-1.09-.41-1.25-.42-.42-.92-.34-1.42.08a1.05,1.05,0,0,0-.17,1.42l-.66.41a1.83,1.83,0,0,1,.25-2.5,1.7,1.7,0,0,1,2.58-.08,2.45,2.45,0,0,1,.58,1.58l.25,2.42Z"/><path d="M242.8,184c-1.25-1.25-1.84-2.5-.67-3.75s2.5-.58,3.75.67,1.83,2.5.67,3.75S244,185.17,242.8,184Zm2.41-2.5c-.83-.83-1.75-1.42-2.5-.67s-.16,1.67.67,2.5,1.75,1.42,2.5.67S246.13,182.42,245.21,181.5Z"/><path d="M250.8,179l.58.58-2.75,2.75-.33-.33-.33-3.5c-.09-.58-.17-1.08-.42-1.25a.87.87,0,0,0-1.33.08,1.05,1.05,0,0,0-.17,1.42l-.67.42a1.84,1.84,0,0,1,.25-2.5,1.71,1.71,0,0,1,2.59-.09,2.48,2.48,0,0,1,.58,1.59l.25,2.41Z"/><path d="M250,176.75c-1.25-1.25-1.83-2.5-.66-3.75s2.5-.58,3.75.67,1.83,2.5.66,3.75C252.46,178.67,251.21,178,250,176.75Zm2.42-2.42c-.83-.83-1.75-1.41-2.5-.66s-.17,1.66.67,2.5,1.75,1.41,2.5.66S253.29,175.17,252.46,174.33Z"/><path d="M249.22,198.25l4.33,4.25-.67.67-3.41-3.42-.59,1.25-.58-.58Z"/><path d="M251.55,195.92l4.25,4.25-.67.66-3.41-3.41-.59,1.25-.58-.59Z"/><path d="M255.05,197.33l2.25-2.25.58.59-2.25,2.25Z"/><path d="M261.47,191.75a2,2,0,0,1-.09,3,2.39,2.39,0,0,1-2.5.58l.25-.83a1.45,1.45,0,0,0,1.67-.33,1.19,1.19,0,1,0-1.67-1.67,2,2,0,0,0-.58,1.42l-.67.08-1.75-2.5,2.25-2.25.59.58-1.75,1.75.91,1.42a2.26,2.26,0,0,1,.59-1.17A1.78,1.78,0,0,1,261.47,191.75Z"/><path d="M261.8,190.58l2.25-2.25.58.59-2.25,2.25Z"/><path d="M268.55,186.17l.58.58-2.75,2.75-.33-.33-.33-3.5c-.09-.59-.17-1.09-.42-1.25a.86.86,0,0,0-1.33.08,1.05,1.05,0,0,0-.17,1.42l-.67.41a1.84,1.84,0,0,1,.25-2.5,1.71,1.71,0,0,1,2.59-.08,2.45,2.45,0,0,1,.58,1.58l.25,2.42Z"/><path d="M267.8,184c-1.25-1.25-1.83-2.5-.67-3.75s2.5-.58,3.75.67,1.84,2.5.67,3.75S269,185.17,267.8,184Zm2.42-2.5c-.84-.83-1.75-1.42-2.5-.67s-.17,1.67.66,2.5,1.75,1.42,2.5.67S271.13,182.42,270.22,181.5Z"/><path d="M275.8,179l.58.58-2.75,2.75-.33-.33-.33-3.5c-.09-.58-.17-1.08-.42-1.25-.42-.42-.92-.33-1.42.08a1.05,1.05,0,0,0-.16,1.42l-.67.42a1.84,1.84,0,0,1,.25-2.5,1.7,1.7,0,0,1,2.58-.09,2.43,2.43,0,0,1,.59,1.59l.25,2.41Z"/><path d="M275.05,176.75c-1.25-1.25-1.83-2.5-.67-3.75s2.5-.58,3.75.67,1.84,2.5.67,3.75C277.47,178.58,276.22,178,275.05,176.75Zm2.42-2.42c-.84-.83-1.75-1.41-2.5-.66s-.17,1.66.66,2.5,1.75,1.41,2.5.66S278.3,175.17,277.47,174.33Z"/><path d="M272.71,199.67l4.25,4.25-.66.66-3.42-3.41-.58,1.25-.59-.59Z"/><path d="M279.88,198.58a2,2,0,0,1-.25,2.92,2,2,0,0,1-2.92.25,1.83,1.83,0,0,1-.41-2,1.47,1.47,0,0,1-1.25-.33,1.78,1.78,0,0,1,2.5-2.5,1.41,1.41,0,0,1,.33,1.25A2,2,0,0,1,279.88,198.58Zm-4.08.34a.71.71,0,0,0,1.08-.09.79.79,0,0,0,.08-1.08.88.88,0,0,0-1.16,0A.8.8,0,0,0,275.8,198.92Zm3.33.33a1.21,1.21,0,0,0-1.75.08,1.31,1.31,0,0,0-.17,1.75,1.22,1.22,0,0,0,1.75-.16A1.13,1.13,0,0,0,279.13,199.25Z"/><path d="M280.05,197.33l2.25-2.25.58.59-2.25,2.25Z"/><path d="M286.46,191.75a2,2,0,0,1-.08,3,2.4,2.4,0,0,1-2.5.58l.25-.83a1.43,1.43,0,0,0,1.66-.33,1.18,1.18,0,1,0-1.66-1.67,2,2,0,0,0-.59,1.42l-.66.08-1.75-2.5,2.25-2.25.58.58-1.75,1.75.92,1.42a2.24,2.24,0,0,1,.58-1.17A1.78,1.78,0,0,1,286.46,191.75Z"/><path d="M286.8,190.58l2.25-2.25.58.59-2.25,2.25Z"/><path d="M293.55,186.17l.58.58-2.75,2.75-.33-.33-.33-3.5c-.09-.59-.17-1.09-.42-1.25-.42-.42-.92-.34-1.42.08a1.05,1.05,0,0,0-.16,1.42l-.67.41a1.84,1.84,0,0,1,.25-2.5,1.7,1.7,0,0,1,2.58-.08,2.41,2.41,0,0,1,.59,1.58l.25,2.42Z"/><path d="M292.79,184c-1.25-1.25-1.83-2.5-.66-3.75s2.5-.58,3.75.67,1.83,2.5.66,3.75S294,185.17,292.79,184Zm2.42-2.5c-.83-.83-1.75-1.42-2.5-.67s-.17,1.67.67,2.5,1.75,1.42,2.5.67S296.13,182.42,295.21,181.5Z"/><path d="M300.79,179l.59.58-2.75,2.75-.34-.33-.33-3.5c-.08-.58-.17-1.08-.42-1.25a.87.87,0,0,0-1.33.08,1.05,1.05,0,0,0-.16,1.42l-.67.42a1.84,1.84,0,0,1,.25-2.5,1.7,1.7,0,0,1,2.58-.09,2.48,2.48,0,0,1,.58,1.59l.25,2.41Z"/><path d="M300.05,176.75c-1.25-1.25-1.84-2.5-.67-3.75s2.5-.58,3.75.67,1.83,2.5.67,3.75C302.46,178.67,301.21,178,300.05,176.75Zm2.41-2.42c-.83-.83-1.75-1.41-2.5-.66s-.16,1.66.67,2.5,1.75,1.41,2.5.66S303.3,175.17,302.46,174.33Z"/><path d="M301.88,202.92l.59.58-2.75,2.75-.34-.33-.33-3.5c-.08-.59-.17-1.09-.42-1.25a.86.86,0,0,0-1.33.08,1.06,1.06,0,0,0-.17,1.42l-.66.41a1.84,1.84,0,0,1,.25-2.5,1.7,1.7,0,0,1,2.58-.08,2.45,2.45,0,0,1,.58,1.58l.25,2.42Z"/><path d="M304.72,198.5a2,2,0,0,1-.08,3,2.4,2.4,0,0,1-2.5.58l.25-.83a1.43,1.43,0,0,0,1.66-.33,1.18,1.18,0,1,0-1.66-1.67,2,2,0,0,0-.59,1.42l-.66.08-1.75-2.5,2.25-2.25.58.58-1.75,1.75.92,1.42a2.24,2.24,0,0,1,.58-1.17A1.78,1.78,0,0,1,304.72,198.5Z"/><path d="M305.05,197.33l2.25-2.25.58.59-2.25,2.25Z"/><path d="M311.47,191.75a2,2,0,0,1-.08,3,2.4,2.4,0,0,1-2.5.58l.25-.83a1.43,1.43,0,0,0,1.66-.33,1.18,1.18,0,1,0-1.66-1.67,2,2,0,0,0-.59,1.42l-.66.08-1.75-2.5,2.25-2.25.58.58-1.75,1.75.92,1.42a2.24,2.24,0,0,1,.58-1.17A1.78,1.78,0,0,1,311.47,191.75Z"/><path d="M311.8,190.58l2.25-2.25.59.59-2.25,2.25Z"/><path d="M318.55,186.17l.58.58-2.75,2.75-.33-.33-.33-3.5c-.09-.59-.17-1.09-.42-1.25-.42-.42-.92-.34-1.42.08a1.05,1.05,0,0,0-.16,1.42l-.67.41a1.84,1.84,0,0,1,.25-2.5,1.7,1.7,0,0,1,2.58-.08,2.41,2.41,0,0,1,.59,1.58l.25,2.42Z"/><path d="M317.8,184c-1.25-1.25-1.84-2.5-.67-3.75s2.5-.58,3.75.67,1.83,2.5.67,3.75S319,185.17,317.8,184Zm2.41-2.5c-.83-.83-1.75-1.42-2.5-.67s-.16,1.67.67,2.5,1.75,1.42,2.5.67S321.13,182.42,320.21,181.5Z"/><path d="M325.8,179l.59.58-2.75,2.75-.34-.33-.33-3.5c-.08-.58-.17-1.08-.42-1.25a.87.87,0,0,0-1.33.08,1.05,1.05,0,0,0-.17,1.42l-.66.42a1.83,1.83,0,0,1,.25-2.5,1.7,1.7,0,0,1,2.58-.09,2.48,2.48,0,0,1,.58,1.59l.25,2.41Z"/><path d="M325.05,176.75c-1.25-1.25-1.83-2.5-.67-3.75s2.5-.58,3.75.67,1.84,2.5.67,3.75C327.47,178.67,326.22,178,325.05,176.75Zm2.42-2.42c-.84-.83-1.75-1.41-2.5-.66s-.17,1.66.66,2.5,1.75,1.41,2.5.66S328.3,175.17,327.47,174.33Z"/><path d="M326.39,196.08l4.33,4.34-.67.66-3.42-3.41-.58,1.25-.58-.59Z"/><path d="M329.89,197.5l2.25-2.25.58.58-2.25,2.25Z"/><path d="M336.47,191.83a2,2,0,0,1-.09,2.92c-1,1-2.33.83-3.66-.5-1.09-1.08-1.84-2.75-.59-4.08a2,2,0,0,1,2.17-.5l-.33.83a1.1,1.1,0,0,0-1.25.25,1.8,1.8,0,0,0,.41,2.5,1.55,1.55,0,0,1,.5-1.5A2.07,2.07,0,0,1,336.47,191.83Zm-.67.67a1.26,1.26,0,0,0-1.67,0,1.2,1.2,0,0,0-.16,1.67,1.18,1.18,0,0,0,1.66,0A1.07,1.07,0,0,0,335.8,192.5Z"/><path d="M336.8,190.58l2.25-2.25.59.59-2.25,2.25Z"/><path d="M343.55,186.17l.58.58-2.75,2.75-.33-.33-.33-3.5c-.09-.59-.17-1.09-.42-1.25a.86.86,0,0,0-1.33.08,1.05,1.05,0,0,0-.17,1.42l-.67.41a1.84,1.84,0,0,1,.25-2.5,1.71,1.71,0,0,1,2.59-.08,2.45,2.45,0,0,1,.58,1.58l.25,2.42Z"/><path d="M342.8,184c-1.25-1.25-1.83-2.5-.67-3.75s2.5-.58,3.75.67,1.84,2.5.67,3.75S344,185.17,342.8,184Zm2.42-2.5c-.84-.83-1.75-1.42-2.5-.67s-.17,1.67.66,2.5,1.75,1.42,2.5.67S346.13,182.42,345.22,181.5Z"/><path d="M350.8,179l.58.58-2.75,2.75-.33-.33-.33-3.5c-.09-.58-.17-1.08-.42-1.25-.42-.42-.92-.33-1.42.08a1.05,1.05,0,0,0-.16,1.42l-.67.42a1.84,1.84,0,0,1,.25-2.5,1.7,1.7,0,0,1,2.58-.09,2.43,2.43,0,0,1,.59,1.59l.25,2.41Z"/><path d="M350.05,176.75c-1.25-1.25-1.84-2.5-.67-3.75s2.5-.58,3.75.67,1.83,2.5.67,3.75C352.46,178.58,351.21,178,350.05,176.75Zm2.41-2.42c-.83-.83-1.75-1.41-2.5-.66s-.16,1.66.67,2.5,1.75,1.41,2.5.66S353.3,175.17,352.46,174.33Z"/><path d="M77.47,202.42l.58.58-2.75,2.75-.33-.33-.34-3.5c-.08-.59-.16-1.09-.41-1.25a.87.87,0,0,0-1.34.08,1.05,1.05,0,0,0-.16,1.42l-.67.41a1.84,1.84,0,0,1,.25-2.5,1.7,1.7,0,0,1,2.58-.08,2.41,2.41,0,0,1,.59,1.58l.25,2.42Z"/><path d="M80.22,198.42a1.89,1.89,0,0,1-.17,2.75,2.2,2.2,0,0,1-2.25.5l.17-.84a1.37,1.37,0,0,0,1.42-.25,1.09,1.09,0,0,0,.16-1.58,1.08,1.08,0,0,0-1.58.08l-.42.42-.5-.5.34-.33a.88.88,0,0,0,.08-1.34.81.81,0,0,0-1.17.09A1.32,1.32,0,0,0,76,198.5l-.75.08a2,2,0,0,1,.58-1.83,1.58,1.58,0,0,1,2.42-.08,1.29,1.29,0,0,1,.33,1.41A1.47,1.47,0,0,1,80.22,198.42Z"/><path d="M80.38,197.08l2.25-2.25.59.59L81,197.67Z"/><path d="M86.72,191.92a1.89,1.89,0,0,1-.17,2.75,2.2,2.2,0,0,1-2.25.5l.17-.84a1.37,1.37,0,0,0,1.42-.25,1.09,1.09,0,0,0,.16-1.58,1.08,1.08,0,0,0-1.58.08l-.42.42-.5-.5.34-.33a.88.88,0,0,0,.08-1.34.81.81,0,0,0-1.17.09,1.32,1.32,0,0,0-.33,1.08l-.75.08a2,2,0,0,1,.58-1.83,1.58,1.58,0,0,1,2.42-.08,1.29,1.29,0,0,1,.33,1.41A1.47,1.47,0,0,1,86.72,191.92Z"/><path d="M86.89,190.58l2.25-2.25.58.59-2.25,2.25Z"/><path d="M93.72,186.17l.58.58-2.75,2.75-.33-.33-.34-3.5c-.08-.59-.16-1.09-.41-1.25a.87.87,0,0,0-1.34.08,1.05,1.05,0,0,0-.16,1.42l-.67.41a1.84,1.84,0,0,1,.25-2.5,1.7,1.7,0,0,1,2.58-.08,2.41,2.41,0,0,1,.59,1.58l.25,2.42Z"/><path d="M92.88,184c-1.25-1.25-1.83-2.5-.66-3.75s2.5-.58,3.75.67,1.83,2.5.66,3.75S94.05,185.17,92.88,184Zm2.5-2.5c-.83-.83-1.75-1.42-2.5-.67s-.16,1.67.67,2.5,1.75,1.42,2.5.67S96.22,182.42,95.38,181.5Z"/><path d="M100.88,179l.59.58-2.75,2.75-.33-.33-.34-3.5c-.08-.58-.16-1.08-.41-1.25a.88.88,0,0,0-1.34.08,1.05,1.05,0,0,0-.16,1.42l-.67.42a1.84,1.84,0,0,1,.25-2.5,1.7,1.7,0,0,1,2.58-.09,2.43,2.43,0,0,1,.59,1.59l.25,2.41Z"/><path d="M100.13,176.75c-1.25-1.25-1.83-2.5-.66-3.75s2.5-.58,3.75.67,1.83,2.5.66,3.75S101.3,178,100.13,176.75Zm2.42-2.42c-.83-.83-1.75-1.41-2.5-.66s-.17,1.66.67,2.5,1.75,1.41,2.5.66S103.38,175.17,102.55,174.33Z"/><path d="M101.38,202.25a1.9,1.9,0,0,1-.16,2.75,2.21,2.21,0,0,1-2.25.5l.16-.83a1.4,1.4,0,0,0,1.42-.25,1.11,1.11,0,0,0,.17-1.59,1.1,1.1,0,0,0-1.59.09l-.41.41-.5-.5.33-.33a.86.86,0,0,0,.08-1.33.8.8,0,0,0-1.16.08,1.32,1.32,0,0,0-.34,1.08l-.75.09a2,2,0,0,1,.59-1.84,1.57,1.57,0,0,1,2.41-.08,1.33,1.33,0,0,1,.34,1.42A1.45,1.45,0,0,1,101.38,202.25Z"/><path d="M101.22,200.67c-1.25-1.25-1.84-2.5-.67-3.75s2.5-.59,3.75.66,1.83,2.5.67,3.75S102.38,201.92,101.22,200.67Zm2.41-2.42c-.83-.83-1.75-1.42-2.5-.67s-.16,1.67.67,2.5,1.75,1.42,2.5.67S104.47,199.08,103.63,198.25Z"/><path d="M105.38,197.08l2.25-2.25.59.59L106,197.67Z"/><path d="M111.71,191.92a1.9,1.9,0,0,1-.16,2.75,2.21,2.21,0,0,1-2.25.5l.16-.84a1.36,1.36,0,0,0,1.42-.25,1,1,0,1,0-1.42-1.5l-.41.42-.5-.5.33-.33a.87.87,0,0,0,.08-1.34.8.8,0,0,0-1.16.09,1.28,1.28,0,0,0-.33,1.08l-.75.08a2,2,0,0,1,.58-1.83,1.57,1.57,0,0,1,2.41-.08,1.31,1.31,0,0,1,.34,1.41A1.46,1.46,0,0,1,111.71,191.92Z"/><path d="M111.88,190.58l2.25-2.25.59.59-2.25,2.25Z"/><path d="M118.71,186.17l.59.58-2.75,2.75-.34-.33-.33-3.5c-.08-.59-.17-1.09-.42-1.25-.41-.42-.91-.34-1.41.08a1.05,1.05,0,0,0-.17,1.42l-.67.41a1.84,1.84,0,0,1,.25-2.5,1.71,1.71,0,0,1,2.59-.08,2.45,2.45,0,0,1,.58,1.58l.25,2.42Z"/><path d="M117.88,184c-1.25-1.25-1.83-2.5-.67-3.75s2.5-.58,3.75.67,1.84,2.5.67,3.75S119.05,185.17,117.88,184Zm2.5-2.5c-.83-.83-1.75-1.42-2.5-.67s-.17,1.67.67,2.5,1.75,1.42,2.5.67S121.21,182.42,120.38,181.5Z"/><path d="M125.88,179l.59.58-2.75,2.75-.34-.33-.33-3.5c-.08-.58-.17-1.08-.42-1.25a.87.87,0,0,0-1.33.08,1.06,1.06,0,0,0-.17,1.42l-.66.42a1.84,1.84,0,0,1,.25-2.5,1.7,1.7,0,0,1,2.58-.09,2.48,2.48,0,0,1,.58,1.59l.25,2.41Z"/><path d="M125.13,176.75c-1.25-1.25-1.83-2.5-.66-3.75s2.5-.58,3.75.67,1.83,2.5.66,3.75S126.3,178,125.13,176.75Zm2.42-2.42c-.83-.83-1.75-1.41-2.5-.66s-.17,1.66.67,2.5,1.75,1.41,2.5.66S128.38,175.17,127.55,174.33Z"/><path d="M129.72,198.67a2,2,0,0,1-.09,2.91c-1,1-2.33.84-3.66-.5-1.09-1.08-1.84-2.75-.59-4.08a2,2,0,0,1,2.17-.5l-.33.83a1.12,1.12,0,0,0-1.25.25,1.8,1.8,0,0,0,.41,2.5,1.55,1.55,0,0,1,.5-1.5A2.17,2.17,0,0,1,129.72,198.67Zm-.67.66a1.29,1.29,0,0,0-1.67,0,1.2,1.2,0,0,0-.16,1.67,1.17,1.17,0,0,0,1.66,0A1.07,1.07,0,0,0,129.05,199.33Z"/><path d="M130.05,197.42l2.25-2.25.58.58L130.63,198Z"/><path d="M137.14,192.25l-.59.58.84.84-.67.66-.83-.83-2.17,2.17-.17-.17-.66-5.83.16-.17,2.75,2.75.59-.58Zm-1.84.67L134,191.58l.25,2.42Z"/><path d="M136.88,190.58l2.25-2.25.59.59-2.25,2.25Z"/><path d="M143.72,186.17l.58.58-2.75,2.75-.33-.33-.34-3.5c-.08-.59-.16-1.09-.41-1.25a.87.87,0,0,0-1.34.08,1.05,1.05,0,0,0-.16,1.42l-.67.41a1.84,1.84,0,0,1,.25-2.5,1.7,1.7,0,0,1,2.58-.08,2.41,2.41,0,0,1,.59,1.58l.25,2.42Z"/><path d="M142.88,184c-1.25-1.25-1.83-2.5-.66-3.75s2.5-.58,3.75.67,1.83,2.5.66,3.75S144.05,185.17,142.88,184Zm2.5-2.5c-.83-.83-1.75-1.42-2.5-.67s-.16,1.67.67,2.5,1.75,1.42,2.5.67S146.22,182.42,145.38,181.5Z"/><path d="M150.88,179l.59.58-2.75,2.75-.34-.33-.33-3.5c-.08-.58-.17-1.08-.42-1.25-.41-.42-.91-.33-1.41.08a1.05,1.05,0,0,0-.17,1.42l-.67.42a1.84,1.84,0,0,1,.25-2.5,1.71,1.71,0,0,1,2.59-.09,2.48,2.48,0,0,1,.58,1.59l.25,2.41Z"/><path d="M150.13,176.75c-1.25-1.25-1.83-2.5-.66-3.75s2.5-.58,3.75.67,1.83,2.5.66,3.75S151.3,178,150.13,176.75Zm2.42-2.42c-.83-.83-1.75-1.41-2.5-.66s-.17,1.66.67,2.5,1.75,1.41,2.5.66S153.38,175.17,152.55,174.33Z"/><path d="M176.55,203.25l.58.58-2.75,2.75-.33-.33-.33-3.5c-.09-.58-.17-1.08-.42-1.25a.87.87,0,0,0-1.33.08,1.05,1.05,0,0,0-.17,1.42l-.67.42a1.84,1.84,0,0,1,.25-2.5,1.71,1.71,0,0,1,2.59-.09,2.48,2.48,0,0,1,.58,1.59l.25,2.41Z"/><path d="M175.8,201c-1.25-1.25-1.84-2.5-.67-3.75s2.5-.58,3.75.67,1.83,2.5.67,3.75S177,202.25,175.8,201Zm2.41-2.42c-.83-.83-1.75-1.41-2.5-.66s-.16,1.66.67,2.5,1.75,1.41,2.5.66S179.13,199.42,178.21,198.58Z"/><path d="M180,197.42l2.25-2.25.59.58L180.55,198Z"/><path d="M187.05,192.25l-.58.58.83.84-.67.66-.83-.83-2.17,2.17-.16-.17-.67-5.83.17-.17,2.75,2.75.58-.58Zm-1.83.67-1.34-1.34.25,2.42Z"/><path d="M186.8,190.58l2.25-2.25.58.59-2.25,2.25Z"/><path d="M193.63,186.17l.58.58-2.75,2.75-.33-.33-.34-3.5c-.08-.59-.16-1.09-.41-1.25-.42-.42-.92-.34-1.42.08a1.05,1.05,0,0,0-.16,1.42l-.67.41a1.84,1.84,0,0,1,.25-2.5,1.7,1.7,0,0,1,2.58-.08,2.45,2.45,0,0,1,.58,1.58l.25,2.42Z"/><path d="M192.88,184c-1.25-1.25-1.83-2.5-.67-3.75s2.5-.58,3.75.67,1.84,2.5.67,3.75C195.3,185.83,194.05,185.17,192.88,184Zm2.42-2.5c-.84-.83-1.75-1.42-2.5-.67s-.17,1.67.66,2.5,1.75,1.42,2.5.67S196.13,182.42,195.3,181.5Z"/><path d="M200.88,179l.58.58-2.75,2.75-.33-.33-.33-3.5c-.09-.58-.17-1.08-.42-1.25a.87.87,0,0,0-1.33.08,1.05,1.05,0,0,0-.17,1.42l-.67.42a1.84,1.84,0,0,1,.25-2.5,1.71,1.71,0,0,1,2.59-.09,2.48,2.48,0,0,1,.58,1.59l.25,2.41Z"/><path d="M200.05,176.75c-1.25-1.25-1.84-2.5-.67-3.75s2.5-.58,3.75.67,1.83,2.5.67,3.75S201.3,178,200.05,176.75Zm2.5-2.42c-.84-.83-1.75-1.41-2.5-.66s-.17,1.66.66,2.5,1.75,1.41,2.5.66S203.38,175.17,202.55,174.33Z"/><path d="M148.05,199.42l4.33,4.25-.66.66-3.42-3.41-.58,1.25-.59-.59Z"/><path d="M154.8,198.75a1.89,1.89,0,0,1-.17,2.75,2.2,2.2,0,0,1-2.25.5l.17-.83a1.41,1.41,0,0,0,1.42-.25,1.1,1.1,0,0,0,.16-1.59,1.09,1.09,0,0,0-1.58.09l-.42.41-.5-.5L152,199c.41-.42.5-1,.08-1.33a.81.81,0,0,0-1.17.08,1.32,1.32,0,0,0-.33,1.08l-.75.09a2,2,0,0,1,.58-1.84,1.58,1.58,0,0,1,2.42-.08,1.31,1.31,0,0,1,.33,1.42A1.45,1.45,0,0,1,154.8,198.75Z"/><path d="M155,197.42l2.25-2.25.59.58L155.55,198Z"/><path d="M162.05,192.25l-.58.58.83.84-.67.66-.83-.83-2.17,2.17-.16-.17-.67-5.83.17-.17,2.75,2.75.58-.58Zm-1.83.67-1.34-1.34.25,2.42Z"/><path d="M161.8,190.58l2.25-2.25.58.59-2.25,2.25Z"/><path d="M168.63,186.17l.59.58-2.75,2.75-.34-.33-.33-3.5c-.08-.59-.17-1.09-.42-1.25-.41-.42-.91-.34-1.41.08a1.05,1.05,0,0,0-.17,1.42l-.67.41a1.84,1.84,0,0,1,.25-2.5,1.71,1.71,0,0,1,2.59-.08,2.45,2.45,0,0,1,.58,1.58l.25,2.42Z"/><path d="M167.88,184c-1.25-1.25-1.83-2.5-.66-3.75s2.5-.58,3.75.67,1.83,2.5.66,3.75C170.3,185.83,169.05,185.17,167.88,184Zm2.42-2.5c-.83-.83-1.75-1.42-2.5-.67s-.17,1.67.67,2.5,1.75,1.42,2.5.67S171.13,182.42,170.3,181.5Z"/><path d="M175.88,179l.58.58-2.75,2.75-.33-.33-.34-3.5c-.08-.58-.16-1.08-.41-1.25a.88.88,0,0,0-1.34.08,1.05,1.05,0,0,0-.16,1.42l-.67.42a1.84,1.84,0,0,1,.25-2.5,1.7,1.7,0,0,1,2.58-.09,2.43,2.43,0,0,1,.59,1.59l.25,2.41Z"/><path d="M175.05,176.75c-1.25-1.25-1.84-2.5-.67-3.75s2.5-.58,3.75.67,1.83,2.5.67,3.75S176.21,178,175.05,176.75Zm2.41-2.42c-.83-.83-1.75-1.41-2.5-.66s-.16,1.66.67,2.5,1.75,1.41,2.5.66S178.38,175.17,177.46,174.33Z"/><path d="M372.8,199.67l4.25,4.25-.67.66L373,201.17l-.59,1.25-.58-.59Z"/><path d="M379.63,198.67a2,2,0,0,1-.08,3,2.4,2.4,0,0,1-2.5.58l.25-.83a1.45,1.45,0,0,0,1.67-.34,1.18,1.18,0,1,0-1.67-1.66,2,2,0,0,0-.58,1.41l-.67.09-1.75-2.5,2.25-2.25.58.58-1.75,1.75.92,1.42a2.2,2.2,0,0,1,.58-1.17A1.76,1.76,0,0,1,379.63,198.67Z"/><path d="M379.88,197.5l2.25-2.25.59.58-2.25,2.25Z"/><path d="M386.55,191.83a2,2,0,0,1-.08,2.92c-1,1-2.34.83-3.67-.5-1.08-1.08-1.83-2.75-.58-4.08a2,2,0,0,1,2.16-.5l-.33.83a1.1,1.1,0,0,0-1.25.25,1.8,1.8,0,0,0,.42,2.5,1.53,1.53,0,0,1,.5-1.5A2.06,2.06,0,0,1,386.55,191.83Zm-.67.67a1.25,1.25,0,0,0-1.66,0,1.13,1.13,0,1,0,1.5,1.67A1.13,1.13,0,0,0,385.88,192.5Z"/><path d="M386.8,190.58l2.25-2.25.58.59-2.25,2.25Z"/><path d="M393.64,186.17l.58.58-2.75,2.75-.33-.33-.34-3.5c-.08-.59-.16-1.09-.41-1.25-.42-.42-.92-.34-1.42.08a1.05,1.05,0,0,0-.17,1.42l-.66.41a1.83,1.83,0,0,1,.25-2.5,1.7,1.7,0,0,1,2.58-.08,2.45,2.45,0,0,1,.58,1.58l.25,2.42Z"/><path d="M392.88,184c-1.25-1.25-1.83-2.5-.67-3.75s2.5-.58,3.75.67,1.84,2.5.67,3.75C395.3,185.83,394.05,185.17,392.88,184Zm2.42-2.5c-.84-.83-1.75-1.42-2.5-.67s-.17,1.67.66,2.5,1.75,1.42,2.5.67S396.13,182.42,395.3,181.5Z"/><path d="M400.88,179l.58.58-2.75,2.75-.33-.33-.33-3.5c-.09-.58-.17-1.08-.42-1.25a.87.87,0,0,0-1.33.08,1.05,1.05,0,0,0-.17,1.42l-.67.42a1.84,1.84,0,0,1,.25-2.5,1.71,1.71,0,0,1,2.59-.09,2.48,2.48,0,0,1,.58,1.59l.25,2.41Z"/><path d="M400.05,176.75c-1.25-1.25-1.83-2.5-.67-3.75s2.5-.58,3.75.67,1.84,2.5.67,3.75S401.22,178,400.05,176.75Zm2.42-2.42c-.84-.83-1.75-1.41-2.5-.66s-.17,1.66.66,2.5,1.75,1.41,2.5.66S403.38,175.17,402.47,174.33Z"/><path d="M402,202.83l.59.59-2.75,2.75-.34-.34-.33-3.5c-.08-.58-.17-1.08-.42-1.25a.87.87,0,0,0-1.33.09,1,1,0,0,0-.17,1.41l-.66.42a1.83,1.83,0,0,1,.25-2.5,1.7,1.7,0,0,1,2.58-.08A2.45,2.45,0,0,1,400,202l.25,2.42Z"/><path d="M405.38,199.5l.58.58-2.75,2.75-.33-.33-.33-3.5c-.09-.58-.17-1.08-.42-1.25a.87.87,0,0,0-1.33.08,1.05,1.05,0,0,0-.17,1.42l-.67.42a1.84,1.84,0,0,1,.25-2.5,1.71,1.71,0,0,1,2.59-.09,2.48,2.48,0,0,1,.58,1.59l.25,2.41Z"/><path d="M404.88,197.5l2.25-2.25.58.58-2.25,2.25Z"/><path d="M411.55,191.83a2,2,0,0,1-.08,2.92c-1,1-2.34.83-3.67-.5-1.08-1.08-1.83-2.75-.58-4.08a2,2,0,0,1,2.16-.5l-.33.83a1.1,1.1,0,0,0-1.25.25,1.8,1.8,0,0,0,.42,2.5,1.53,1.53,0,0,1,.5-1.5A2.06,2.06,0,0,1,411.55,191.83Zm-.67.67a1.25,1.25,0,0,0-1.66,0,1.13,1.13,0,1,0,1.5,1.67A1.13,1.13,0,0,0,410.88,192.5Z"/><path d="M411.8,190.58l2.25-2.25.58.59-2.25,2.25Z"/><path d="M418.63,186.17l.58.58-2.75,2.75-.33-.33-.34-3.5c-.08-.59-.16-1.09-.41-1.25a.87.87,0,0,0-1.34.08,1.05,1.05,0,0,0-.16,1.42l-.67.41a1.84,1.84,0,0,1,.25-2.5,1.7,1.7,0,0,1,2.58-.08,2.41,2.41,0,0,1,.59,1.58l.25,2.42Z"/><path d="M417.88,184c-1.25-1.25-1.84-2.5-.67-3.75s2.5-.58,3.75.67,1.83,2.5.67,3.75C420.29,185.83,419,185.17,417.88,184Zm2.41-2.5c-.83-.83-1.75-1.42-2.5-.67s-.16,1.67.67,2.5,1.75,1.42,2.5.67S421.13,182.42,420.29,181.5Z"/><path d="M425.88,179l.59.58-2.75,2.75-.34-.33-.33-3.5c-.08-.58-.17-1.08-.42-1.25-.41-.42-.91-.33-1.41.08a1.05,1.05,0,0,0-.17,1.42l-.67.42a1.84,1.84,0,0,1,.25-2.5,1.71,1.71,0,0,1,2.59-.09,2.48,2.48,0,0,1,.58,1.59l.25,2.41Z"/><path d="M425.05,176.75c-1.25-1.25-1.84-2.5-.67-3.75s2.5-.58,3.75.67,1.83,2.5.67,3.75S426.3,178,425.05,176.75Zm2.5-2.42c-.84-.83-1.75-1.41-2.5-.66s-.17,1.66.66,2.5,1.75,1.41,2.5.66S428.38,175.17,427.55,174.33Z"/><path d="M354.72,198.83a2,2,0,0,1-.25,2.92,2,2,0,0,1-2.92.25,1.83,1.83,0,0,1-.42-2,1.48,1.48,0,0,1-1.25-.33,1.64,1.64,0,0,1,.17-2.34,1.61,1.61,0,0,1,2.33-.16,1.38,1.38,0,0,1,.34,1.25A1.8,1.8,0,0,1,354.72,198.83Zm-4.09.25a.72.72,0,0,0,1.09-.08.79.79,0,0,0,.08-1.08.82.82,0,0,0-1.17,1.16Zm3.34.34a1.21,1.21,0,0,0-1.75.08,1.3,1.3,0,0,0-.17,1.75,1.22,1.22,0,0,0,1.75-.17A1.07,1.07,0,0,0,354,199.42Z"/><path d="M354.89,197.5l2.25-2.25.58.58-2.25,2.25Z"/><path d="M361.55,191.83a2,2,0,0,1-.08,2.92c-1,1-2.33.83-3.67-.5-1.08-1.08-1.83-2.75-.58-4.08a2,2,0,0,1,2.17-.5l-.34.83a1.1,1.1,0,0,0-1.25.25,1.81,1.81,0,0,0,.42,2.5,1.55,1.55,0,0,1,.5-1.5A2.06,2.06,0,0,1,361.55,191.83Zm-.66.67a1.26,1.26,0,0,0-1.67,0,1.21,1.21,0,0,0-.17,1.67,1.19,1.19,0,0,0,1.67,0A1.14,1.14,0,0,0,360.89,192.5Z"/><path d="M361.8,190.58l2.25-2.25.58.59-2.25,2.25Z"/><path d="M368.63,186.17l.59.58-2.75,2.75-.34-.33-.33-3.5c-.08-.59-.17-1.09-.42-1.25-.41-.42-.91-.34-1.41.08a1.05,1.05,0,0,0-.17,1.42l-.67.41a1.84,1.84,0,0,1,.25-2.5,1.71,1.71,0,0,1,2.59-.08,2.45,2.45,0,0,1,.58,1.58l.25,2.42Z"/><path d="M367.88,184c-1.25-1.25-1.83-2.5-.67-3.75s2.5-.58,3.75.67,1.84,2.5.67,3.75C370.3,185.83,369.05,185.17,367.88,184Zm2.42-2.5c-.84-.83-1.75-1.42-2.5-.67s-.17,1.67.66,2.5,1.75,1.42,2.5.67S371.13,182.42,370.3,181.5Z"/><path d="M375.88,179l.59.58-2.75,2.75-.34-.33-.33-3.5c-.08-.58-.17-1.08-.42-1.25a.87.87,0,0,0-1.33.08,1.05,1.05,0,0,0-.16,1.42l-.67.42a1.84,1.84,0,0,1,.25-2.5,1.7,1.7,0,0,1,2.58-.09,2.48,2.48,0,0,1,.58,1.59l.25,2.41Z"/><path d="M375.05,176.75c-1.25-1.25-1.83-2.5-.67-3.75s2.5-.58,3.75.67,1.84,2.5.67,3.75S376.22,178,375.05,176.75Zm2.42-2.42c-.84-.83-1.75-1.41-2.5-.66s-.17,1.66.66,2.5,1.75,1.41,2.5.66S378.38,175.17,377.47,174.33Z"/><path d="M528.38,201.5l.59.58-2.75,2.75-.34-.33-.33-3.5c-.08-.58-.17-1.08-.42-1.25a.87.87,0,0,0-1.33.08,1.06,1.06,0,0,0-.17,1.42l-.66.42a1.84,1.84,0,0,1,.25-2.5,1.7,1.7,0,0,1,2.58-.09,2.48,2.48,0,0,1,.58,1.59l.25,2.41Z"/><path d="M528.3,194.25l2,6.42-.75.75-1.67-5.59L526,197.75l-.59-.58Z"/><path d="M530.89,196.5l2.25-2.25.58.58-2.25,2.25Z"/><path d="M534.22,188.33l2,6.42-.75.75-1.67-5.58-1.92,1.91-.58-.58Z"/><path d="M536.8,190.58l2.25-2.25.58.59-2.25,2.25Z"/><path d="M543.64,186.17l.58.58-2.75,2.75-.33-.33-.33-3.5c-.09-.59-.17-1.09-.42-1.25a.86.86,0,0,0-1.33.08,1.05,1.05,0,0,0-.17,1.42l-.67.41a1.84,1.84,0,0,1,.25-2.5,1.71,1.71,0,0,1,2.59-.08,2.45,2.45,0,0,1,.58,1.58l.25,2.42Z"/><path d="M542.89,184c-1.25-1.25-1.84-2.5-.67-3.75s2.5-.58,3.75.67,1.83,2.5.67,3.75C545.3,185.83,544.05,185.17,542.89,184Zm2.41-2.5c-.83-.83-1.75-1.42-2.5-.67s-.16,1.67.67,2.5,1.75,1.42,2.5.67S546.14,182.42,545.3,181.5Z"/><path d="M550.88,179l.59.58-2.75,2.75-.34-.33-.33-3.5c-.08-.58-.17-1.08-.42-1.25-.41-.42-.91-.33-1.41.08a1.05,1.05,0,0,0-.17,1.42l-.67.42a1.84,1.84,0,0,1,.25-2.5,1.71,1.71,0,0,1,2.59-.09,2.48,2.48,0,0,1,.58,1.59l.25,2.41Z"/><path d="M550.06,176.75c-1.25-1.25-1.84-2.5-.67-3.75s2.5-.58,3.75.67,1.83,2.5.66,3.75S551.31,178,550.06,176.75Zm2.5-2.42c-.84-.83-1.75-1.41-2.5-.66s-.17,1.66.66,2.5,1.75,1.41,2.5.66S553.39,175.17,552.56,174.33Z"/><path d="M554.63,198.83a1.9,1.9,0,0,1-.16,2.75,2.19,2.19,0,0,1-2.25.5l.16-.83a1.38,1.38,0,0,0,1.42-.25,1,1,0,1,0-1.42-1.5l-.41.42-.5-.5.33-.34a.86.86,0,0,0,.08-1.33.81.81,0,0,0-1.16.08,1.34,1.34,0,0,0-.34,1.09l-.75.08a2,2,0,0,1,.59-1.83,1.57,1.57,0,0,1,2.41-.09,1.33,1.33,0,0,1,.34,1.42A1.43,1.43,0,0,1,554.63,198.83Z"/><path d="M554.89,197.5l2.25-2.25.58.58-2.25,2.25Z"/><path d="M561.63,191.92a2,2,0,0,1-.25,2.91c-.91.92-2.16,1.09-2.91.25a1.81,1.81,0,0,1-.42-2,1.44,1.44,0,0,1-1.25-.33,1.79,1.79,0,0,1,2.5-2.5,1.38,1.38,0,0,1,.33,1.25A1.69,1.69,0,0,1,561.63,191.92Zm-4.08.25a.71.71,0,0,0,1.08-.09.78.78,0,0,0,.09-1.08.83.83,0,1,0-1.17,1.17Zm3.33.33a1.21,1.21,0,0,0-1.75.08,1.29,1.29,0,0,0-.16,1.75,1.22,1.22,0,0,0,1.75-.16A1.13,1.13,0,0,0,560.88,192.5Z"/><path d="M561.8,190.58l2.25-2.25.58.59-2.25,2.25Z"/><path d="M568.55,186.17l.58.58-2.75,2.75-.33-.33-.33-3.5c-.09-.59-.17-1.09-.42-1.25a.86.86,0,0,0-1.33.08,1.05,1.05,0,0,0-.17,1.42l-.67.41a1.84,1.84,0,0,1,.25-2.5,1.71,1.71,0,0,1,2.59-.08,2.45,2.45,0,0,1,.58,1.58l.25,2.42Z"/><path d="M567.8,184c-1.25-1.25-1.83-2.5-.67-3.75s2.5-.58,3.75.67,1.84,2.5.67,3.75S569,185.17,567.8,184Zm2.42-2.5c-.84-.83-1.75-1.42-2.5-.67s-.17,1.67.66,2.5,1.75,1.42,2.5.67S571.13,182.42,570.22,181.5Z"/><path d="M575.8,179l.58.58-2.75,2.75-.33-.33-.33-3.5c-.09-.58-.17-1.08-.42-1.25a.87.87,0,0,0-1.33.08,1.05,1.05,0,0,0-.17,1.42l-.67.42a1.84,1.84,0,0,1,.25-2.5,1.71,1.71,0,0,1,2.59-.09,2.48,2.48,0,0,1,.58,1.59l.25,2.41Z"/><path d="M575.05,176.75c-1.25-1.25-1.84-2.5-.67-3.75s2.5-.58,3.75.67,1.83,2.5.67,3.75C577.46,178.58,576.21,178,575.05,176.75Zm2.41-2.42c-.83-.83-1.75-1.41-2.5-.66s-.16,1.66.67,2.5,1.75,1.41,2.5.66S578.3,175.17,577.46,174.33Z"/><path d="M572.55,199.92l4.25,4.25-.67.66-3.41-3.41-.59,1.25-.58-.59Z"/><path d="M575.63,201.08c-1.25-1.25-1.83-2.5-.66-3.75s2.5-.58,3.75.67,1.83,2.5.66,3.75S576.88,202.33,575.63,201.08Zm2.5-2.41c-.83-.84-1.75-1.42-2.5-.67s-.16,1.67.67,2.5,1.75,1.42,2.5.67S579,199.5,578.13,198.67Z"/><path d="M579.89,197.5l2.25-2.25.58.58-2.25,2.25Z"/><path d="M586.63,191.92a2,2,0,0,1-.25,2.91c-.91.92-2.16,1.09-2.91.25a1.81,1.81,0,0,1-.42-2,1.44,1.44,0,0,1-1.25-.33,1.79,1.79,0,0,1,2.5-2.5,1.38,1.38,0,0,1,.33,1.25A1.69,1.69,0,0,1,586.63,191.92Zm-4.08.25a.71.71,0,0,0,1.08-.09.78.78,0,0,0,.09-1.08.9.9,0,0,0-1.17,0A.82.82,0,0,0,582.55,192.17Zm3.33.33a1.21,1.21,0,0,0-1.75.08,1.29,1.29,0,0,0-.16,1.75,1.22,1.22,0,0,0,1.75-.16A1.13,1.13,0,0,0,585.88,192.5Z"/><path d="M586.8,190.58l2.25-2.25.59.59-2.25,2.25Z"/><path d="M593.55,186.17l.58.58-2.75,2.75-.33-.33-.33-3.5c-.09-.59-.17-1.09-.42-1.25a.86.86,0,0,0-1.33.08,1.05,1.05,0,0,0-.17,1.42l-.67.41a1.84,1.84,0,0,1,.25-2.5,1.71,1.71,0,0,1,2.59-.08,2.45,2.45,0,0,1,.58,1.58l.25,2.42Z"/><path d="M592.8,184c-1.25-1.25-1.84-2.5-.67-3.75s2.5-.58,3.75.67,1.83,2.5.67,3.75S594,185.17,592.8,184Zm2.41-2.5c-.83-.83-1.75-1.42-2.5-.67s-.16,1.67.67,2.5,1.75,1.42,2.5.67S596.13,182.42,595.21,181.5Z"/><path d="M600.8,179l.58.58-2.75,2.75-.33-.33-.33-3.5c-.09-.58-.17-1.08-.42-1.25-.42-.42-.92-.33-1.42.08a1.05,1.05,0,0,0-.16,1.42l-.67.42a1.84,1.84,0,0,1,.25-2.5,1.7,1.7,0,0,1,2.58-.09,2.43,2.43,0,0,1,.59,1.59l.25,2.41Z"/><path d="M600.05,176.75c-1.25-1.25-1.84-2.5-.67-3.75s2.5-.58,3.75.67,1.83,2.5.67,3.75C602.46,178.58,601.21,178,600.05,176.75Zm2.41-2.42c-.83-.83-1.75-1.41-2.5-.66s-.16,1.66.67,2.5,1.75,1.41,2.5.66S603.3,175.17,602.46,174.33Z"/><path d="M598.38,199.08l4.34,4.34-.67.66-3.42-3.41-.58,1.25-.58-.59Z"/><path d="M602.3,195.25l2,6.42-.75.75-1.66-5.59L600,198.75l-.58-.58Z"/><path d="M604.89,197.5l2.25-2.25.58.58-2.25,2.25Z"/><path d="M611.63,191.92a2,2,0,0,1-.25,2.91c-.91.92-2.16,1.09-2.91.25a1.81,1.81,0,0,1-.42-2,1.44,1.44,0,0,1-1.25-.33,1.79,1.79,0,0,1,2.5-2.5,1.38,1.38,0,0,1,.33,1.25A1.69,1.69,0,0,1,611.63,191.92Zm-4.08.25a.71.71,0,0,0,1.08-.09.78.78,0,0,0,.09-1.08.9.9,0,0,0-1.17,0A.82.82,0,0,0,607.55,192.17Zm3.33.33a1.21,1.21,0,0,0-1.75.08,1.29,1.29,0,0,0-.16,1.75,1.22,1.22,0,0,0,1.75-.16A1.13,1.13,0,0,0,610.88,192.5Z"/><path d="M611.8,190.58l2.25-2.25.58.59-2.25,2.25Z"/><path d="M618.55,186.17l.59.58-2.75,2.75-.34-.33-.33-3.5c-.08-.59-.17-1.09-.42-1.25a.86.86,0,0,0-1.33.08,1.05,1.05,0,0,0-.17,1.42l-.66.41a1.83,1.83,0,0,1,.25-2.5,1.7,1.7,0,0,1,2.58-.08,2.45,2.45,0,0,1,.58,1.58l.25,2.42Z"/><path d="M617.8,184c-1.25-1.25-1.83-2.5-.67-3.75s2.5-.58,3.75.67,1.84,2.5.67,3.75S619,185.17,617.8,184Zm2.42-2.5c-.84-.83-1.75-1.42-2.5-.67s-.17,1.67.66,2.5,1.75,1.42,2.5.67S621.13,182.42,620.22,181.5Z"/><path d="M625.8,179l.59.58-2.75,2.75-.34-.33-.33-3.5c-.08-.58-.17-1.08-.42-1.25-.41-.42-.91-.33-1.41.08a1.05,1.05,0,0,0-.17,1.42l-.67.42a1.84,1.84,0,0,1,.25-2.5,1.71,1.71,0,0,1,2.59-.09,2.48,2.48,0,0,1,.58,1.59l.25,2.41Z"/><path d="M625.05,176.75c-1.25-1.25-1.83-2.5-.67-3.75s2.5-.58,3.75.67,1.84,2.5.67,3.75C627.47,178.58,626.22,178,625.05,176.75Zm2.42-2.42c-.84-.83-1.75-1.41-2.5-.66s-.17,1.66.66,2.5,1.75,1.41,2.5.66S628.3,175.17,627.47,174.33Z"/><path d="M626.55,203.25l.59.58-2.75,2.75-.34-.33-.33-3.5c-.08-.58-.17-1.08-.42-1.25a.87.87,0,0,0-1.33.08,1.05,1.05,0,0,0-.17,1.42l-.66.42a1.83,1.83,0,0,1,.25-2.5,1.7,1.7,0,0,1,2.58-.09,2.48,2.48,0,0,1,.58,1.59l.25,2.41Z"/><path d="M630.14,199.17l-.59.58.84.83-.67.67-.83-.83-2.17,2.16-.17-.16-.66-5.84.16-.16,2.75,2.75.59-.59Zm-1.92.66-1.33-1.33.25,2.42Z"/><path d="M629.89,197.5l2.25-2.25.58.58-2.25,2.25Z"/><path d="M636.64,191.92a2,2,0,0,1-.25,2.91c-.92.92-2.17,1.09-2.92.25a1.83,1.83,0,0,1-.42-2,1.42,1.42,0,0,1-1.24-.33,1.78,1.78,0,0,1,2.49-2.5,1.38,1.38,0,0,1,.34,1.25A1.69,1.69,0,0,1,636.64,191.92Zm-4.09.25a.72.72,0,0,0,1.09-.09.79.79,0,0,0,.08-1.08.83.83,0,1,0-1.17,1.17Zm3.34.33a1.21,1.21,0,0,0-1.75.08,1.3,1.3,0,0,0-.17,1.75,1.22,1.22,0,0,0,1.75-.16A1.14,1.14,0,0,0,635.89,192.5Z"/><path d="M636.8,190.58l2.25-2.25.58.59-2.25,2.25Z"/><path d="M643.55,186.17l.59.58-2.75,2.75-.34-.33-.33-3.5c-.08-.59-.17-1.09-.42-1.25-.41-.42-.91-.34-1.41.08a1.05,1.05,0,0,0-.17,1.42l-.67.41a1.84,1.84,0,0,1,.25-2.5,1.71,1.71,0,0,1,2.59-.08,2.45,2.45,0,0,1,.58,1.58l.25,2.42Z"/><path d="M642.81,184c-1.25-1.25-1.84-2.5-.67-3.75s2.5-.58,3.75.67,1.83,2.5.66,3.75S644,185.17,642.81,184Zm2.41-2.5c-.83-.83-1.75-1.42-2.5-.67s-.16,1.67.67,2.5,1.75,1.42,2.5.67S646.14,182.42,645.22,181.5Z"/><path d="M650.81,179l.58.58-2.75,2.75-.33-.33-.34-3.5c-.08-.58-.16-1.08-.41-1.25a.88.88,0,0,0-1.34.08,1.05,1.05,0,0,0-.16,1.42l-.67.42a1.84,1.84,0,0,1,.25-2.5,1.7,1.7,0,0,1,2.58-.09,2.43,2.43,0,0,1,.59,1.59l.25,2.41Z"/><path d="M650.05,176.75c-1.25-1.25-1.83-2.5-.67-3.75s2.5-.58,3.75.67,1.84,2.5.67,3.75C652.47,178.58,651.22,178,650.05,176.75Zm2.42-2.42c-.84-.83-1.75-1.41-2.5-.66s-.17,1.66.66,2.5,1.75,1.41,2.5.66S653.3,175.17,652.47,174.33Z"/><path d="M652.3,201.17a1.89,1.89,0,0,1-.17,2.75,2.2,2.2,0,0,1-2.25.5l.17-.84a1.37,1.37,0,0,0,1.42-.25,1.09,1.09,0,0,0,.16-1.58,1.08,1.08,0,0,0-1.58.08l-.42.42-.5-.5.34-.33a.88.88,0,0,0,.08-1.34.75.75,0,0,0-1.17.09,1.32,1.32,0,0,0-.33,1.08l-.75.08a2,2,0,0,1,.58-1.83,1.58,1.58,0,0,1,2.42-.08,1.29,1.29,0,0,1,.33,1.41A1.45,1.45,0,0,1,652.3,201.17Z"/><path d="M651.39,196.08l4.33,4.34-.67.66-3.42-3.41-.58,1.25-.58-.59Z"/><path d="M654.88,197.5l2.25-2.25.59.58-2.25,2.25Z"/><path d="M661.63,191.92a2,2,0,0,1-.25,2.91c-.91.92-2.16,1.09-2.91.25a1.81,1.81,0,0,1-.42-2,1.44,1.44,0,0,1-1.25-.33,1.79,1.79,0,0,1,2.5-2.5,1.38,1.38,0,0,1,.33,1.25A1.69,1.69,0,0,1,661.63,191.92Zm-4.08.25a.71.71,0,0,0,1.08-.09.78.78,0,0,0,.09-1.08.83.83,0,1,0-1.17,1.17Zm3.33.33a1.21,1.21,0,0,0-1.75.08,1.29,1.29,0,0,0-.16,1.75,1.22,1.22,0,0,0,1.75-.16A1.13,1.13,0,0,0,660.88,192.5Z"/><path d="M661.8,190.58l2.25-2.25.58.59-2.25,2.25Z"/><path d="M668.55,186.17l.58.58-2.75,2.75-.33-.33-.33-3.5c-.09-.59-.17-1.09-.42-1.25-.42-.42-.92-.34-1.42.08a1.05,1.05,0,0,0-.16,1.42l-.67.41a1.84,1.84,0,0,1,.25-2.5,1.7,1.7,0,0,1,2.58-.08,2.41,2.41,0,0,1,.59,1.58l.25,2.42Z"/><path d="M667.8,184c-1.25-1.25-1.83-2.5-.67-3.75s2.5-.58,3.75.67,1.84,2.5.67,3.75S669,185.17,667.8,184Zm2.42-2.5c-.84-.83-1.75-1.42-2.5-.67s-.17,1.67.66,2.5,1.75,1.42,2.5.67S671.13,182.42,670.22,181.5Z"/><path d="M675.8,179l.58.58-2.75,2.75-.33-.33-.33-3.5c-.09-.58-.17-1.08-.42-1.25a.87.87,0,0,0-1.33.08,1.05,1.05,0,0,0-.17,1.42l-.67.42a1.84,1.84,0,0,1,.25-2.5,1.71,1.71,0,0,1,2.59-.09,2.48,2.48,0,0,1,.58,1.59l.25,2.41Z"/><path d="M675.06,176.75c-1.25-1.25-1.84-2.5-.67-3.75s2.5-.58,3.75.67,1.83,2.5.66,3.75C677.47,178.58,676.22,178,675.06,176.75Zm2.41-2.42c-.83-.83-1.75-1.41-2.5-.66s-.16,1.66.67,2.5,1.75,1.41,2.5.66S678.31,175.17,677.47,174.33Z"/><path d="M677.3,195.25l2,6.42-.75.75-1.67-5.59L675,198.75l-.59-.58Z"/><path d="M679.88,197.5l2.25-2.25.59.58-2.25,2.25Z"/><path d="M685.55,191c1.08,1.08,1.83,2.75.5,4.08a2,2,0,0,1-2.17.5l.34-.83a1.1,1.1,0,0,0,1.25-.25,1.87,1.87,0,0,0-.34-2.5,1.8,1.8,0,0,1-.5,1.5,2.06,2.06,0,0,1-2.83.08,2,2,0,0,1,.09-2.91C683,189.5,684.38,189.75,685.55,191Zm-1.25.08a1.12,1.12,0,0,0-1.67,0,1.13,1.13,0,0,0-.08,1.67,1.26,1.26,0,0,0,1.67,0A1.28,1.28,0,0,0,684.3,191.08Z"/><path d="M686.8,190.58l2.25-2.25.58.59-2.25,2.25Z"/><path d="M693.55,186.17l.58.58-2.75,2.75-.33-.33-.33-3.5c-.09-.59-.17-1.09-.42-1.25-.42-.42-.92-.34-1.42.08a1.05,1.05,0,0,0-.16,1.42l-.67.41a1.84,1.84,0,0,1,.25-2.5,1.7,1.7,0,0,1,2.58-.08,2.41,2.41,0,0,1,.59,1.58l.25,2.42Z"/><path d="M692.8,184c-1.25-1.25-1.84-2.5-.67-3.75s2.5-.58,3.75.67,1.83,2.5.67,3.75S694,185.17,692.8,184Zm2.41-2.5c-.83-.83-1.75-1.42-2.5-.67s-.16,1.67.67,2.5,1.75,1.42,2.5.67S696.13,182.42,695.21,181.5Z"/><path d="M700.8,179l.59.58-2.75,2.75-.34-.33-.33-3.5c-.08-.58-.17-1.08-.42-1.25a.87.87,0,0,0-1.33.08,1.05,1.05,0,0,0-.17,1.42l-.66.42a1.83,1.83,0,0,1,.25-2.5,1.7,1.7,0,0,1,2.58-.09,2.48,2.48,0,0,1,.58,1.59l.25,2.41Z"/><path d="M700.05,176.75c-1.25-1.25-1.84-2.5-.67-3.75s2.5-.58,3.75.67,1.83,2.5.67,3.75C702.46,178.67,701.21,178,700.05,176.75Zm2.41-2.42c-.83-.83-1.75-1.41-2.5-.66s-.16,1.66.67,2.5,1.75,1.41,2.5.66S703.3,175.17,702.46,174.33Z"/><path d="M697.63,199.83l4.33,4.34-.66.66-3.42-3.41-.58,1.25-.59-.59Z"/><path d="M705.13,199.17l-.58.58.83.83-.66.67-.84-.83-2.16,2.16-.17-.16-.67-5.84.17-.16,2.75,2.75.58-.59Zm-1.91.66-1.34-1.33.25,2.42Z"/><path d="M704.88,197.5l2.25-2.25.59.58-2.25,2.25Z"/><path d="M710.54,191c1.09,1.08,1.84,2.75.5,4.08a2,2,0,0,1-2.16.5l.33-.83a1.1,1.1,0,0,0,1.25-.25,1.87,1.87,0,0,0-.33-2.5,1.87,1.87,0,0,1-.5,1.5,2.08,2.08,0,0,1-2.84.08,2,2,0,0,1,.09-2.91C708,189.5,709.38,189.75,710.54,191Zm-1.25.08a1.11,1.11,0,0,0-1.66,0,1.12,1.12,0,0,0-.09,1.67,1.21,1.21,0,0,0,1.75-1.67Z"/><path d="M711.8,190.58l2.25-2.25.58.59-2.25,2.25Z"/><path d="M718.55,186.17l.58.58-2.75,2.75-.33-.33-.33-3.5c-.09-.59-.17-1.09-.42-1.25a.86.86,0,0,0-1.33.08,1.05,1.05,0,0,0-.17,1.42l-.67.41a1.84,1.84,0,0,1,.25-2.5,1.71,1.71,0,0,1,2.59-.08,2.45,2.45,0,0,1,.58,1.58l.25,2.42Z"/><path d="M717.79,184c-1.25-1.25-1.83-2.5-.66-3.75s2.5-.58,3.75.67,1.83,2.5.66,3.75S719,185.17,717.79,184Zm2.42-2.5c-.83-.83-1.75-1.42-2.5-.67s-.17,1.67.67,2.5,1.75,1.42,2.5.67S721.13,182.42,720.21,181.5Z"/><path d="M725.79,179l.59.58-2.75,2.75-.34-.33-.33-3.5c-.08-.58-.17-1.08-.42-1.25a.87.87,0,0,0-1.33.08,1.05,1.05,0,0,0-.16,1.42l-.67.42a1.84,1.84,0,0,1,.25-2.5,1.7,1.7,0,0,1,2.58-.09,2.48,2.48,0,0,1,.58,1.59l.25,2.41Z"/><path d="M725.05,176.75c-1.25-1.25-1.84-2.5-.67-3.75s2.5-.58,3.75.67,1.83,2.5.67,3.75C727.46,178.58,726.21,178,725.05,176.75Zm2.41-2.42c-.83-.83-1.75-1.41-2.5-.66s-.16,1.66.67,2.5,1.75,1.41,2.5.66S728.3,175.17,727.46,174.33Z"/><path d="M728,201.83l.58.59-2.75,2.75-.33-.34-.33-3.5c-.09-.58-.17-1.08-.42-1.25a.87.87,0,0,0-1.33.09,1,1,0,0,0-.17,1.41l-.67.42a1.84,1.84,0,0,1,.25-2.5,1.71,1.71,0,0,1,2.59-.08A2.45,2.45,0,0,1,726,201l.25,2.42Z"/><path d="M726.39,196.08l4.33,4.34-.66.66-3.42-3.41-.58,1.25-.59-.59Z"/><path d="M729.89,197.5l2.25-2.25.58.58-2.25,2.25Z"/><path d="M735.56,191c1.08,1.08,1.83,2.75.5,4.08a2,2,0,0,1-2.17.5l.33-.83a1.1,1.1,0,0,0,1.25-.25,1.86,1.86,0,0,0-.33-2.5,1.84,1.84,0,0,1-.5,1.5,2.06,2.06,0,0,1-2.83.08,2,2,0,0,1,.08-2.91C733,189.5,734.39,189.75,735.56,191Zm-1.25.08a1.21,1.21,0,0,0-1.75,1.67,1.25,1.25,0,0,0,1.66,0A1.28,1.28,0,0,0,734.31,191.08Z"/><path d="M736.8,190.58l2.25-2.25.59.59-2.25,2.25Z"/><path d="M743.56,186.17l.58.58-2.75,2.75-.33-.33-.34-3.5c-.08-.59-.16-1.09-.41-1.25-.42-.42-.92-.34-1.42.08a1.05,1.05,0,0,0-.17,1.42l-.66.41a1.83,1.83,0,0,1,.25-2.5,1.7,1.7,0,0,1,2.58-.08,2.45,2.45,0,0,1,.58,1.58l.25,2.42Z"/><path d="M742.81,184c-1.25-1.25-1.84-2.5-.67-3.75s2.5-.58,3.75.67,1.83,2.5.66,3.75S744,185.17,742.81,184Zm2.41-2.5c-.83-.83-1.75-1.42-2.5-.67s-.16,1.67.67,2.5,1.75,1.42,2.5.67S746.14,182.42,745.22,181.5Z"/><path d="M750.8,179l.58.58-2.75,2.75-.33-.33-.33-3.5c-.09-.58-.17-1.08-.42-1.25a.87.87,0,0,0-1.33.08,1.05,1.05,0,0,0-.17,1.42l-.67.42a1.84,1.84,0,0,1,.25-2.5,1.71,1.71,0,0,1,2.59-.09,2.48,2.48,0,0,1,.58,1.59l.25,2.41Z"/><path d="M750.06,176.75c-1.25-1.25-1.84-2.5-.67-3.75s2.5-.58,3.75.67,1.83,2.5.66,3.75C752.47,178.58,751.22,178,750.06,176.75Zm2.41-2.42c-.83-.83-1.75-1.41-2.5-.66s-.16,1.66.67,2.5,1.75,1.41,2.5.66S753.31,175.17,752.47,174.33Z"/><path d="M751.47,203.33l.58.59-2.75,2.75-.33-.34-.33-3.5c-.09-.58-.17-1.08-.42-1.25a.87.87,0,0,0-1.33.09,1,1,0,0,0-.17,1.41l-.67.42a1.84,1.84,0,0,1,.25-2.5,1.71,1.71,0,0,1,2.59-.08,2.45,2.45,0,0,1,.58,1.58l.25,2.42Z"/><path d="M754.63,198.83a2,2,0,0,1-.25,2.92,2,2,0,0,1-2.91.25,1.81,1.81,0,0,1-.42-2,1.48,1.48,0,0,1-1.25-.33,1.64,1.64,0,0,1,.17-2.34,1.61,1.61,0,0,1,2.33-.16,1.38,1.38,0,0,1,.33,1.25A1.77,1.77,0,0,1,754.63,198.83Zm-4.08.25a.71.71,0,0,0,1.08-.08.78.78,0,0,0,.09-1.08.8.8,0,0,0-1.17,0A1,1,0,0,0,750.55,199.08Zm3.42.34a1.21,1.21,0,0,0-1.75.08,1.3,1.3,0,0,0-.17,1.75,1.22,1.22,0,0,0,1.75-.17A1.13,1.13,0,0,0,754,199.42Z"/><path d="M754.89,197.5l2.25-2.25.58.58-2.25,2.25Z"/><path d="M760.56,191c1.08,1.08,1.83,2.75.5,4.08a2,2,0,0,1-2.17.5l.33-.83a1.1,1.1,0,0,0,1.25-.25,1.86,1.86,0,0,0-.33-2.5,1.84,1.84,0,0,1-.5,1.5,2.06,2.06,0,0,1-2.83.08,2,2,0,0,1,.08-2.91C758,189.5,759.39,189.75,760.56,191Zm-1.25.08a1.21,1.21,0,0,0-1.75,1.67,1.25,1.25,0,0,0,1.66,0A1.28,1.28,0,0,0,759.31,191.08Z"/><path d="M761.8,190.58l2.25-2.25.59.59-2.25,2.25Z"/><path d="M768.55,186.17l.59.58-2.75,2.75-.34-.33-.33-3.5c-.08-.59-.17-1.09-.42-1.25a.86.86,0,0,0-1.33.08,1.05,1.05,0,0,0-.17,1.42l-.66.41a1.83,1.83,0,0,1,.25-2.5,1.7,1.7,0,0,1,2.58-.08,2.45,2.45,0,0,1,.58,1.58l.25,2.42Z"/><path d="M767.8,184c-1.25-1.25-1.83-2.5-.67-3.75s2.5-.58,3.75.67,1.84,2.5.67,3.75S769,185.17,767.8,184Zm2.42-2.5c-.84-.83-1.75-1.42-2.5-.67s-.17,1.67.66,2.5,1.75,1.42,2.5.67S771.13,182.42,770.22,181.5Z"/><path d="M775.8,179l.59.58-2.75,2.75-.34-.33-.33-3.5c-.08-.58-.17-1.08-.42-1.25a.87.87,0,0,0-1.33.08,1.05,1.05,0,0,0-.17,1.42l-.66.42a1.83,1.83,0,0,1,.25-2.5,1.7,1.7,0,0,1,2.58-.09,2.48,2.48,0,0,1,.58,1.59l.25,2.41Z"/><path d="M775.06,176.75c-1.25-1.25-1.84-2.5-.67-3.75s2.5-.58,3.75.67,1.83,2.5.66,3.75C777.47,178.58,776.22,178,775.06,176.75Zm2.41-2.42c-.83-.83-1.75-1.41-2.5-.66s-.16,1.66.67,2.5,1.75,1.41,2.5.66S778.31,175.17,777.47,174.33Z"/><path d="M777.38,200.92a2,2,0,0,1-.08,3,2.4,2.4,0,0,1-2.5.58l.25-.83a1.45,1.45,0,0,0,1.67-.34,1.18,1.18,0,1,0-1.67-1.66,2,2,0,0,0-.58,1.41l-.67.09-1.75-2.5,2.25-2.25.58.58-1.75,1.75.92,1.42a2.2,2.2,0,0,1,.58-1.17A1.76,1.76,0,0,1,777.38,200.92Z"/><path d="M777.63,199.75l2.25-2.25.59.58-2.25,2.25Z"/><path d="M779.46,193l4.25,4.33-.66.67-3.42-3.42-.58,1.25-.59-.58Z"/><path d="M782.63,194.17c-1.25-1.25-1.83-2.5-.67-3.75s2.5-.59,3.75.66,1.84,2.5.67,3.75C785.05,196.08,783.8,195.42,782.63,194.17Zm2.42-2.42c-.84-.83-1.75-1.42-2.5-.67s-.17,1.67.66,2.5,1.75,1.42,2.5.67S785.88,192.58,785.05,191.75Z"/><path d="M786.8,190.58l2.25-2.25.58.59-2.25,2.25Z"/><path d="M793.55,186.17l.59.58-2.75,2.75-.34-.33-.33-3.5c-.08-.59-.17-1.09-.42-1.25a.86.86,0,0,0-1.33.08,1.05,1.05,0,0,0-.17,1.42l-.66.41a1.83,1.83,0,0,1,.25-2.5,1.7,1.7,0,0,1,2.58-.08,2.45,2.45,0,0,1,.58,1.58l.25,2.42Z"/><path d="M792.8,184c-1.25-1.25-1.83-2.5-.67-3.75s2.5-.58,3.75.67,1.84,2.5.67,3.75S794,185.17,792.8,184Zm2.42-2.5c-.84-.83-1.75-1.42-2.5-.67s-.17,1.67.66,2.5,1.75,1.42,2.5.67S796.13,182.42,795.22,181.5Z"/><path d="M800.79,179l.59.58-2.75,2.75-.34-.33-.33-3.5c-.08-.58-.17-1.08-.42-1.25a.87.87,0,0,0-1.33.08,1.05,1.05,0,0,0-.16,1.42l-.67.42a1.84,1.84,0,0,1,.25-2.5,1.7,1.7,0,0,1,2.58-.09,2.48,2.48,0,0,1,.58,1.59l.25,2.41Z"/><path d="M800.05,176.75c-1.25-1.25-1.83-2.5-.67-3.75s2.5-.58,3.75.67,1.84,2.5.67,3.75C802.47,178.58,801.22,178,800.05,176.75Zm2.42-2.42c-.84-.83-1.75-1.41-2.5-.66s-.17,1.66.66,2.5,1.75,1.41,2.5.66S803.3,175.17,802.47,174.33Z"/><path d="M795.71,201.67l4.34,4.33-.67.67L796,203.25l-.58,1.25-.58-.58Z"/><path d="M803.05,201.67l.58.58L800.88,205l-.33-.33-.33-3.5c-.09-.59-.17-1.09-.42-1.25a.86.86,0,0,0-1.33.08,1.05,1.05,0,0,0-.17,1.42l-.67.41a1.84,1.84,0,0,1,.25-2.5,1.71,1.71,0,0,1,2.59-.08,2.45,2.45,0,0,1,.58,1.58l.25,2.42Z"/><path d="M802.63,199.75l2.25-2.25.58.58-2.25,2.25Z"/><path d="M804.46,193l4.25,4.33L808,198l-3.41-3.42-.59,1.25-.58-.58Z"/><path d="M807.63,194.17c-1.25-1.25-1.83-2.5-.67-3.75s2.5-.59,3.75.66,1.84,2.5.67,3.75C810.05,196.08,808.8,195.42,807.63,194.17Zm2.42-2.42c-.84-.83-1.75-1.42-2.5-.67s-.17,1.67.66,2.5,1.75,1.42,2.5.67S810.88,192.58,810.05,191.75Z"/><path d="M811.79,190.58l2.25-2.25.59.59-2.25,2.25Z"/><path d="M818.55,186.17l.58.58-2.75,2.75-.33-.33-.33-3.5c-.09-.59-.17-1.09-.42-1.25a.86.86,0,0,0-1.33.08,1.05,1.05,0,0,0-.17,1.42l-.67.41a1.84,1.84,0,0,1,.25-2.5,1.71,1.71,0,0,1,2.59-.08,2.45,2.45,0,0,1,.58,1.58l.25,2.42Z"/><path d="M817.8,184c-1.25-1.25-1.84-2.5-.67-3.75s2.5-.58,3.75.67,1.83,2.5.67,3.75S819,185.17,817.8,184Zm2.41-2.5c-.83-.83-1.75-1.42-2.5-.67s-.16,1.67.67,2.5,1.75,1.42,2.5.67S821.13,182.42,820.21,181.5Z"/><path d="M825.79,179l.59.58-2.75,2.75-.34-.33-.33-3.5c-.08-.58-.17-1.08-.42-1.25a.87.87,0,0,0-1.33.08,1.05,1.05,0,0,0-.16,1.42l-.67.42a1.84,1.84,0,0,1,.25-2.5,1.7,1.7,0,0,1,2.58-.09,2.48,2.48,0,0,1,.58,1.59l.25,2.41Z"/><path d="M825.05,176.75c-1.25-1.25-1.83-2.5-.67-3.75s2.5-.58,3.75.67,1.84,2.5.67,3.75C827.47,178.58,826.22,178,825.05,176.75Zm2.42-2.42c-.84-.83-1.75-1.41-2.5-.66s-.17,1.66.66,2.5,1.75,1.41,2.5.66S828.3,175.17,827.47,174.33Z"/><path d="M820.3,202.08l4.33,4.34-.67.66-3.41-3.41-.59,1.25-.58-.59Z"/><path d="M826.46,200.08c1.08,1.09,1.83,2.75.5,4.09a2,2,0,0,1-2.17.5l.34-.84a1.08,1.08,0,0,0,1.25-.25,1.87,1.87,0,0,0-.34-2.5,1.8,1.8,0,0,1-.5,1.5,2,2,0,0,1-2.83.09,2,2,0,0,1,.09-2.92C823.8,198.58,825.21,198.92,826.46,200.08Zm-1.33.09a1.21,1.21,0,0,0-1.75,1.66,1.21,1.21,0,0,0,1.75-1.66Z"/><path d="M827.63,199.75l2.25-2.25.58.58-2.25,2.25Z"/><path d="M829.46,193l4.25,4.33L833,198l-3.41-3.42-.59,1.25-.58-.58Z"/><path d="M832.63,194.17c-1.25-1.25-1.83-2.5-.67-3.75s2.5-.59,3.75.66,1.84,2.5.67,3.75C835.05,196.08,833.8,195.42,832.63,194.17Zm2.42-2.42c-.84-.83-1.75-1.42-2.5-.67s-.17,1.67.66,2.5,1.75,1.42,2.5.67S835.88,192.58,835.05,191.75Z"/><path d="M836.79,190.58l2.25-2.25.59.59-2.25,2.25Z"/><path d="M843.55,186.17l.58.58-2.75,2.75-.33-.33-.34-3.5c-.08-.59-.16-1.09-.41-1.25-.42-.42-.92-.34-1.42.08a1.05,1.05,0,0,0-.17,1.42l-.66.41a1.83,1.83,0,0,1,.25-2.5,1.7,1.7,0,0,1,2.58-.08,2.45,2.45,0,0,1,.58,1.58l.25,2.42Z"/><path d="M842.79,184c-1.25-1.25-1.83-2.5-.66-3.75s2.5-.58,3.75.67,1.83,2.5.66,3.75S844,185.17,842.79,184Zm2.42-2.5c-.83-.83-1.75-1.42-2.5-.67s-.17,1.67.67,2.5,1.75,1.42,2.5.67S846.13,182.42,845.21,181.5Z"/><path d="M850.79,179l.59.58-2.75,2.75-.34-.33-.33-3.5c-.08-.58-.16-1.08-.41-1.25a.88.88,0,0,0-1.34.08,1.05,1.05,0,0,0-.16,1.42l-.67.42a1.84,1.84,0,0,1,.25-2.5,1.7,1.7,0,0,1,2.58-.09,2.48,2.48,0,0,1,.58,1.59l.25,2.41Z"/><path d="M850.05,176.75c-1.25-1.25-1.84-2.5-.67-3.75s2.5-.58,3.75.67,1.83,2.5.67,3.75C852.46,178.67,851.21,178,850.05,176.75Zm2.41-2.42c-.83-.83-1.75-1.41-2.5-.66s-.16,1.66.67,2.5,1.75,1.41,2.5.66S853.3,175.17,852.46,174.33Z"/><path d="M849.3,205.5l.58.58-2.75,2.75-.33-.33-.33-3.5c-.09-.58-.17-1.08-.42-1.25a.87.87,0,0,0-1.33.08,1.05,1.05,0,0,0-.17,1.42l-.67.42a1.84,1.84,0,0,1,.25-2.5,1.71,1.71,0,0,1,2.59-.09,2.48,2.48,0,0,1,.58,1.59l.25,2.41Z"/><path d="M852.38,201a2,2,0,0,1-.08,2.92c-1,1-2.33.83-3.67-.5-1.08-1.09-1.83-2.75-.58-4.09a2,2,0,0,1,2.17-.5l-.34.84a1.08,1.08,0,0,0-1.25.25,1.81,1.81,0,0,0,.42,2.5,1.55,1.55,0,0,1,.5-1.5A2.06,2.06,0,0,1,852.38,201Zm-.67.67a1.25,1.25,0,0,0-1.66,0,1.2,1.2,0,0,0-.17,1.66,1.18,1.18,0,0,0,1.67,0A1.12,1.12,0,0,0,851.71,201.67Z"/><path d="M852.63,199.75l2.25-2.25.59.58-2.25,2.25Z"/><path d="M854.47,193l4.33,4.25-.67.67-3.41-3.42-.59,1.25-.58-.58Z"/><path d="M857.63,194.17c-1.25-1.25-1.83-2.5-.66-3.75s2.5-.59,3.75.66,1.83,2.5.66,3.75C860.05,196.08,858.8,195.42,857.63,194.17Zm2.42-2.42c-.83-.83-1.75-1.42-2.5-.67s-.17,1.67.67,2.5,1.75,1.42,2.5.67S860.88,192.58,860.05,191.75Z"/><path d="M861.8,190.58l2.25-2.25.58.59-2.25,2.25Z"/><path d="M868.55,186.17l.58.58-2.75,2.75-.33-.33-.33-3.5c-.09-.59-.17-1.09-.42-1.25a.86.86,0,0,0-1.33.08,1.05,1.05,0,0,0-.17,1.42l-.67.41a1.84,1.84,0,0,1,.25-2.5,1.71,1.71,0,0,1,2.59-.08,2.45,2.45,0,0,1,.58,1.58l.25,2.42Z"/><path d="M867.8,184c-1.25-1.25-1.84-2.5-.67-3.75s2.5-.58,3.75.67,1.83,2.5.67,3.75S869,185.17,867.8,184Zm2.41-2.5c-.83-.83-1.75-1.42-2.5-.67s-.16,1.67.67,2.5,1.75,1.42,2.5.67S871.13,182.42,870.21,181.5Z"/><path d="M875.8,179l.58.58-2.75,2.75-.33-.33-.33-3.5c-.09-.58-.17-1.08-.42-1.25-.42-.42-.92-.33-1.42.08a1.05,1.05,0,0,0-.16,1.42l-.67.42a1.84,1.84,0,0,1,.25-2.5,1.7,1.7,0,0,1,2.58-.09,2.43,2.43,0,0,1,.59,1.59l.25,2.41Z"/><path d="M875.05,176.75c-1.25-1.25-1.84-2.5-.67-3.75s2.5-.58,3.75.67,1.83,2.5.67,3.75C877.46,178.58,876.21,178,875.05,176.75Zm2.41-2.42c-.83-.83-1.75-1.41-2.5-.66s-.16,1.66.67,2.5,1.75,1.41,2.5.66S878.3,175.17,877.46,174.33Z"/><path d="M879.55,200.17l.58.58-2.75,2.75-.33-.33-.34-3.5c-.08-.59-.16-1.09-.41-1.25-.42-.42-.92-.34-1.42.08a1.05,1.05,0,0,0-.17,1.42l-.66.41a1.83,1.83,0,0,1,.25-2.5,1.7,1.7,0,0,1,2.58-.08,2.45,2.45,0,0,1,.58,1.58l.25,2.42Z"/><path d="M879.13,198.25l2.25-2.25.58.58-2.25,2.25Z"/><path d="M881,191.5l4.25,4.33-.67.67-3.41-3.42-.59,1.25-.58-.58Z"/><path d="M883.3,189.17l4.33,4.25-.67.66-3.41-3.41-.59,1.25-.58-.59Z"/><path d="M886.8,190.58l2.25-2.25.58.59-2.25,2.25Z"/><path d="M893.55,186.17l.58.58-2.75,2.75-.33-.33-.34-3.5c-.08-.59-.16-1.09-.41-1.25-.42-.42-.92-.34-1.42.08a1.05,1.05,0,0,0-.17,1.42l-.66.41a1.83,1.83,0,0,1,.25-2.5,1.7,1.7,0,0,1,2.58-.08,2.45,2.45,0,0,1,.58,1.58l.25,2.42Z"/><path d="M892.8,184c-1.25-1.25-1.84-2.5-.67-3.75s2.5-.58,3.75.67,1.83,2.5.67,3.75S894,185.17,892.8,184Zm2.41-2.5c-.83-.83-1.75-1.42-2.5-.67s-.16,1.67.67,2.5,1.75,1.42,2.5.67S896.13,182.42,895.21,181.5Z"/><path d="M900.8,179l.58.58-2.75,2.75-.33-.33-.33-3.5c-.09-.58-.17-1.08-.42-1.25a.87.87,0,0,0-1.33.08,1.05,1.05,0,0,0-.17,1.42l-.67.42a1.84,1.84,0,0,1,.25-2.5,1.71,1.71,0,0,1,2.59-.09,2.48,2.48,0,0,1,.58,1.59l.25,2.41Z"/><path d="M900,176.75c-1.25-1.25-1.83-2.5-.66-3.75s2.5-.58,3.75.67,1.83,2.5.66,3.75C902.46,178.58,901.21,178,900,176.75Zm2.42-2.42c-.83-.83-1.75-1.41-2.5-.66s-.17,1.66.67,2.5,1.75,1.41,2.5.66S903.29,175.17,902.46,174.33Z"/><path d="M903,198.58c1.08,1.09,1.83,2.75.5,4.09a2,2,0,0,1-2.17.5l.33-.84a1.08,1.08,0,0,0,1.25-.25,1.86,1.86,0,0,0-.33-2.5,1.84,1.84,0,0,1-.5,1.5,2.06,2.06,0,0,1-2.83.09,2,2,0,0,1,.08-2.92C900.3,197.08,901.72,197.42,903,198.58Zm-1.34.09a1.21,1.21,0,0,0-1.75,1.66,1.21,1.21,0,0,0,1.75-1.66Z"/><path d="M904.13,198.25l2.25-2.25.59.58-2.25,2.25Z"/><path d="M906,191.5l4.25,4.25-.66.67L906.13,193l-.58,1.25-.59-.58Z"/><path d="M908.3,189.17l4.25,4.33-.67.67-3.42-3.42-.58,1.25-.58-.58Z"/><path d="M911.8,190.58l2.25-2.25.58.59-2.25,2.25Z"/><path d="M918.55,186.17l.58.58-2.75,2.75-.33-.33-.33-3.5c-.09-.59-.17-1.09-.42-1.25a.86.86,0,0,0-1.33.08,1.05,1.05,0,0,0-.17,1.42l-.67.41a1.84,1.84,0,0,1,.25-2.5,1.71,1.71,0,0,1,2.59-.08,2.45,2.45,0,0,1,.58,1.58l.25,2.42Z"/><path d="M917.8,184c-1.25-1.25-1.84-2.5-.67-3.75s2.5-.58,3.75.67,1.83,2.5.67,3.75S919,185.17,917.8,184Zm2.41-2.5c-.83-.83-1.75-1.42-2.5-.67s-.16,1.67.67,2.5,1.75,1.42,2.5.67S921.13,182.42,920.21,181.5Z"/><path d="M925.8,179l.58.58-2.75,2.75-.33-.33-.33-3.5c-.09-.58-.17-1.08-.42-1.25-.42-.42-.92-.33-1.42.08a1.05,1.05,0,0,0-.16,1.42l-.67.42a1.84,1.84,0,0,1,.25-2.5,1.7,1.7,0,0,1,2.58-.09,2.43,2.43,0,0,1,.59,1.59l.25,2.41Z"/><path d="M925.05,176.75c-1.25-1.25-1.84-2.5-.67-3.75s2.5-.58,3.75.67,1.83,2.5.67,3.75C927.46,178.58,926.21,178,925.05,176.75Zm2.41-2.42c-.83-.83-1.75-1.41-2.5-.66s-.16,1.66.67,2.5,1.75,1.41,2.5.66S928.3,175.17,927.46,174.33Z"/><path d="M921.8,200.58l4.25,4.34-.66.66L922,202.17l-.58,1.25-.59-.59Z"/><path d="M928.89,199.5a2,2,0,0,1-.09,2.92c-1,1-2.33.83-3.66-.5-1.09-1.09-1.84-2.75-.59-4.09a2,2,0,0,1,2.17-.5l-.33.84a1.08,1.08,0,0,0-1.25.25,1.8,1.8,0,0,0,.41,2.5,1.55,1.55,0,0,1,.5-1.5A2.07,2.07,0,0,1,928.89,199.5Zm-.67.67a1.26,1.26,0,0,0-1.67,0,1.19,1.19,0,0,0-.16,1.66,1.17,1.17,0,0,0,1.66,0A1.11,1.11,0,0,0,928.22,200.17Z"/><path d="M929.14,198.25l2.25-2.25.58.58-2.25,2.25Z"/><path d="M931,191.5l4.25,4.25-.67.67L931.13,193l-.58,1.25-.58-.58Z"/><path d="M933.3,189.17l4.25,4.33-.66.67-3.42-3.42-.58,1.25-.59-.58Z"/><path d="M936.8,190.58l2.25-2.25.59.59-2.25,2.25Z"/><path d="M943.55,186.17l.59.58-2.75,2.75-.34-.33-.33-3.5c-.08-.59-.17-1.09-.42-1.25a.86.86,0,0,0-1.33.08,1.05,1.05,0,0,0-.17,1.42l-.66.41a1.83,1.83,0,0,1,.25-2.5,1.7,1.7,0,0,1,2.58-.08,2.45,2.45,0,0,1,.58,1.58l.25,2.42Z"/><path d="M942.81,184c-1.25-1.25-1.84-2.5-.67-3.75s2.5-.58,3.75.67,1.83,2.5.66,3.75S944,185.17,942.81,184Zm2.41-2.5c-.83-.83-1.75-1.42-2.5-.67s-.16,1.67.67,2.5,1.75,1.42,2.5.67S946.14,182.42,945.22,181.5Z"/><path d="M950.81,179l.58.58-2.75,2.75-.33-.33-.34-3.5c-.08-.58-.16-1.08-.41-1.25-.42-.42-.92-.33-1.42.08a1.05,1.05,0,0,0-.17,1.42l-.66.42a1.83,1.83,0,0,1,.25-2.5,1.7,1.7,0,0,1,2.58-.09,2.48,2.48,0,0,1,.58,1.59l.25,2.41Z"/><path d="M950.06,176.75c-1.25-1.25-1.84-2.5-.67-3.75s2.5-.58,3.75.67,1.83,2.5.67,3.75C952.47,178.58,951.22,178,950.06,176.75Zm2.41-2.42c-.83-.83-1.75-1.41-2.5-.66s-.16,1.66.67,2.5,1.75,1.41,2.5.66S953.3,175.17,952.47,174.33Z"/><path d="M951.22,203.58l.58.59-2.75,2.75-.33-.34-.33-3.5c-.09-.58-.17-1.08-.42-1.25a.87.87,0,0,0-1.33.09,1,1,0,0,0-.17,1.41l-.67.42a1.84,1.84,0,0,1,.25-2.5,1.71,1.71,0,0,1,2.59-.08,2.45,2.45,0,0,1,.58,1.58l.25,2.42Z"/><path d="M954,199.58a1.9,1.9,0,0,1-.16,2.75,2.19,2.19,0,0,1-2.25.5l.16-.83a1.38,1.38,0,0,0,1.42-.25,1,1,0,1,0-1.42-1.5l-.41.42-.5-.5.33-.34a.86.86,0,0,0,.08-1.33.81.81,0,0,0-1.16.08,1.34,1.34,0,0,0-.34,1.09l-.75.08a2,2,0,0,1,.59-1.83,1.57,1.57,0,0,1,2.41-.09,1.33,1.33,0,0,1,.34,1.42A1.43,1.43,0,0,1,954,199.58Z"/><path d="M954.14,198.25l2.25-2.25.58.58-2.25,2.25Z"/><path d="M956,191.5l4.25,4.25-.66.67L956.14,193l-.58,1.25-.59-.58Z"/><path d="M958.3,189.17l4.25,4.33-.67.67-3.41-3.42-.59,1.25-.58-.58Z"/><path d="M961.8,190.58l2.25-2.25.59.59-2.25,2.25Z"/><path d="M968.55,186.17l.59.58-2.75,2.75-.34-.33-.33-3.5c-.08-.59-.17-1.09-.42-1.25a.86.86,0,0,0-1.33.08,1.05,1.05,0,0,0-.17,1.42l-.66.41a1.83,1.83,0,0,1,.25-2.5,1.7,1.7,0,0,1,2.58-.08,2.45,2.45,0,0,1,.58,1.58l.25,2.42Z"/><path d="M967.81,184c-1.25-1.25-1.84-2.5-.67-3.75s2.5-.58,3.75.67,1.83,2.5.66,3.75S969,185.17,967.81,184Zm2.41-2.5c-.83-.83-1.75-1.42-2.5-.67s-.16,1.67.67,2.5,1.75,1.42,2.5.67S971.14,182.42,970.22,181.5Z"/><path d="M975.8,179l.59.58-2.75,2.75-.34-.33-.33-3.5c-.08-.58-.17-1.08-.42-1.25-.41-.42-.91-.33-1.41.08a1.05,1.05,0,0,0-.17,1.42l-.67.42a1.84,1.84,0,0,1,.25-2.5,1.71,1.71,0,0,1,2.59-.09,2.48,2.48,0,0,1,.58,1.59l.25,2.41Z"/><path d="M975.05,176.75c-1.25-1.25-1.83-2.5-.67-3.75s2.5-.58,3.75.67,1.84,2.5.67,3.75C977.47,178.58,976.22,178,975.05,176.75Zm2.42-2.42c-.84-.83-1.75-1.41-2.5-.66s-.17,1.66.66,2.5,1.75,1.41,2.5.66S978.3,175.17,977.47,174.33Z"/><path d="M426.54,203.33l.59.59-2.75,2.75-.34-.34-.33-3.5c-.08-.58-.17-1.08-.41-1.25a.88.88,0,0,0-1.34.09,1,1,0,0,0-.16,1.41l-.67.42a1.84,1.84,0,0,1,.25-2.5,1.7,1.7,0,0,1,2.58-.08,2.45,2.45,0,0,1,.58,1.58l.25,2.42Z"/><path d="M428.71,197.92c1.08,1.08,1.83,2.75.5,4.08a2,2,0,0,1-2.17.5l.34-.83a1.12,1.12,0,0,0,1.25-.25,1.87,1.87,0,0,0-.34-2.5,1.8,1.8,0,0,1-.5,1.5,2.06,2.06,0,0,1-2.83.08,2,2,0,0,1,.09-2.92C426.05,196.42,427.54,196.67,428.71,197.92Zm-1.33.08a1.21,1.21,0,0,0-1.75,1.67,1.21,1.21,0,0,0,1.75-1.67Z"/><path d="M429.88,197.5l2.25-2.25.58.58-2.25,2.25Z"/><path d="M436.55,191.83a2,2,0,0,1-.09,2.92c-1,1-2.33.83-3.66-.5-1.09-1.08-1.84-2.75-.59-4.08a2,2,0,0,1,2.17-.5l-.33.83a1.1,1.1,0,0,0-1.25.25,1.8,1.8,0,0,0,.41,2.5,1.55,1.55,0,0,1,.5-1.5A2.07,2.07,0,0,1,436.55,191.83Zm-.67.67a1.26,1.26,0,0,0-1.67,0,1.2,1.2,0,0,0-.16,1.67,1.18,1.18,0,0,0,1.66,0A1.13,1.13,0,0,0,435.88,192.5Z"/><path d="M436.79,190.58l2.25-2.25.59.59-2.25,2.25Z"/><path d="M443.63,186.17l.58.58-2.75,2.75-.33-.33-.34-3.5c-.08-.59-.16-1.09-.41-1.25a.87.87,0,0,0-1.34.08,1.05,1.05,0,0,0-.16,1.42l-.67.41a1.84,1.84,0,0,1,.25-2.5,1.7,1.7,0,0,1,2.58-.08,2.41,2.41,0,0,1,.59,1.58l.25,2.42Z"/><path d="M442.88,184c-1.25-1.25-1.84-2.5-.67-3.75s2.5-.58,3.75.67,1.83,2.5.67,3.75C445.29,185.83,444,185.17,442.88,184Zm2.41-2.5c-.83-.83-1.75-1.42-2.5-.67s-.16,1.67.67,2.5,1.75,1.42,2.5.67S446.13,182.42,445.29,181.5Z"/><path d="M450.88,179l.58.58-2.75,2.75-.33-.33-.34-3.5c-.08-.58-.16-1.08-.41-1.25a.88.88,0,0,0-1.34.08,1.05,1.05,0,0,0-.16,1.42l-.67.42a1.84,1.84,0,0,1,.25-2.5,1.7,1.7,0,0,1,2.58-.09,2.43,2.43,0,0,1,.59,1.59l.25,2.41Z"/><path d="M450,176.75c-1.25-1.25-1.83-2.5-.66-3.75s2.5-.58,3.75.67,1.83,2.5.66,3.75S451.29,178,450,176.75Zm2.5-2.42c-.83-.83-1.75-1.41-2.5-.66s-.16,1.66.67,2.5,1.75,1.41,2.5.66S453.38,175.17,452.54,174.33Z"/><path d="M455.63,197.75a2,2,0,0,1-.08,2.92c-1,1-2.33.83-3.67-.5-1.08-1.09-1.83-2.75-.58-4.09a2,2,0,0,1,2.17-.5l-.34.84a1.08,1.08,0,0,0-1.25.25,1.81,1.81,0,0,0,.42,2.5,1.55,1.55,0,0,1,.5-1.5A2.06,2.06,0,0,1,455.63,197.75Zm-.67.67a1.25,1.25,0,0,0-1.66,0,1.2,1.2,0,0,0-.17,1.66,1.18,1.18,0,0,0,1.67,0A1.12,1.12,0,0,0,455,198.42Z"/><path d="M455.88,196.5l2.25-2.25.59.58-2.25,2.25Z"/><path d="M459.21,188.33l2,6.42-.75.75-1.66-5.58-1.92,1.91-.58-.58Z"/><path d="M461.8,190.58l2.25-2.25.58.59-2.25,2.25Z"/><path d="M468.63,186.17l.58.58-2.75,2.75-.33-.33-.34-3.5c-.08-.59-.16-1.09-.41-1.25-.42-.42-.92-.34-1.42.08a1.05,1.05,0,0,0-.16,1.42l-.67.41a1.84,1.84,0,0,1,.25-2.5,1.7,1.7,0,0,1,2.58-.08,2.45,2.45,0,0,1,.58,1.58l.25,2.42Z"/><path d="M467.88,184c-1.25-1.25-1.83-2.5-.67-3.75s2.5-.58,3.75.67,1.84,2.5.67,3.75C470.3,185.83,469.05,185.17,467.88,184Zm2.42-2.5c-.84-.83-1.75-1.42-2.5-.67s-.17,1.67.66,2.5,1.75,1.42,2.5.67S471.13,182.42,470.3,181.5Z"/><path d="M475.88,179l.58.58-2.75,2.75-.33-.33-.33-3.5c-.09-.58-.17-1.08-.42-1.25a.87.87,0,0,0-1.33.08,1.05,1.05,0,0,0-.17,1.42l-.67.42a1.84,1.84,0,0,1,.25-2.5,1.71,1.71,0,0,1,2.59-.09,2.48,2.48,0,0,1,.58,1.59l.25,2.41Z"/><path d="M475,176.75c-1.25-1.25-1.83-2.5-.66-3.75s2.5-.58,3.75.67,1.83,2.5.66,3.75S476.29,178,475,176.75Zm2.5-2.42c-.83-.83-1.75-1.41-2.5-.66s-.16,1.66.67,2.5,1.75,1.41,2.5.66S478.38,175.17,477.54,174.33Z"/><path d="M474.05,198.42l4.25,4.33-.67.67L474.22,200l-.59,1.25-.58-.58Z"/><path d="M480.72,197.83a1.89,1.89,0,0,1-.17,2.75,2.18,2.18,0,0,1-2.25.5l.17-.83a1.39,1.39,0,0,0,1.42-.25,1.09,1.09,0,0,0,.16-1.58,1.08,1.08,0,0,0-1.58.08l-.42.42-.5-.5.34-.34a.87.87,0,0,0,.08-1.33.82.82,0,0,0-1.17.08,1.33,1.33,0,0,0-.33,1.09l-.75.08a2,2,0,0,1,.58-1.83,1.58,1.58,0,0,1,2.42-.09,1.31,1.31,0,0,1,.33,1.42A1.45,1.45,0,0,1,480.72,197.83Z"/><path d="M480.88,196.5l2.25-2.25.59.58-2.25,2.25Z"/><path d="M484.22,188.33l2,6.42-.75.75-1.67-5.58-1.92,1.91-.58-.58Z"/><path d="M486.8,190.58l2.25-2.25.58.59-2.25,2.25Z"/><path d="M493.63,186.17l.59.58-2.75,2.75-.34-.33-.33-3.5c-.08-.59-.17-1.09-.42-1.25a.86.86,0,0,0-1.33.08,1.05,1.05,0,0,0-.16,1.42l-.67.41a1.84,1.84,0,0,1,.25-2.5,1.7,1.7,0,0,1,2.58-.08,2.45,2.45,0,0,1,.58,1.58l.25,2.42Z"/><path d="M492.88,184c-1.25-1.25-1.83-2.5-.66-3.75s2.5-.58,3.75.67,1.83,2.5.66,3.75C495.3,185.83,494.05,185.17,492.88,184Zm2.42-2.5c-.83-.83-1.75-1.42-2.5-.67s-.17,1.67.67,2.5,1.75,1.42,2.5.67S496.13,182.42,495.3,181.5Z"/><path d="M500.88,179l.59.58-2.75,2.75-.34-.33-.33-3.5c-.08-.58-.17-1.08-.42-1.25a.87.87,0,0,0-1.33.08,1.06,1.06,0,0,0-.17,1.42l-.66.42a1.84,1.84,0,0,1,.25-2.5,1.7,1.7,0,0,1,2.58-.09,2.48,2.48,0,0,1,.58,1.59l.25,2.41Z"/><path d="M500.05,176.75c-1.25-1.25-1.83-2.5-.67-3.75s2.5-.58,3.75.67,1.84,2.5.67,3.75S501.3,178,500.05,176.75Zm2.5-2.42c-.83-.83-1.75-1.41-2.5-.66s-.17,1.66.67,2.5,1.75,1.41,2.5.66S503.38,175.17,502.55,174.33Z"/><path d="M502.55,202.33l.58.59-2.75,2.75-.33-.34-.34-3.5c-.08-.58-.16-1.08-.41-1.25-.42-.41-.92-.33-1.42.09a1,1,0,0,0-.17,1.41l-.66.42a1.83,1.83,0,0,1,.25-2.5,1.7,1.7,0,0,1,2.58-.08,2.45,2.45,0,0,1,.58,1.58l.25,2.42Z"/><path d="M501.71,200.08c-1.25-1.25-1.83-2.5-.66-3.75s2.49-.58,3.74.67,1.84,2.5.67,3.75S502.88,201.33,501.71,200.08Zm2.42-2.41c-.84-.84-1.75-1.42-2.5-.67s-.17,1.67.66,2.5,1.75,1.42,2.5.67S505,198.5,504.13,197.67Z"/><path d="M505.88,196.5l2.25-2.25.58.58-2.25,2.25Z"/><path d="M509.21,188.33l2,6.42-.75.75-1.66-5.58-1.92,1.91-.58-.58Z"/><path d="M511.8,190.58l2.25-2.25.58.59-2.25,2.25Z"/><path d="M518.63,186.17l.58.58-2.75,2.75-.33-.33-.33-3.5c-.09-.59-.17-1.09-.42-1.25a.86.86,0,0,0-1.33.08,1.05,1.05,0,0,0-.17,1.42l-.67.41a1.84,1.84,0,0,1,.25-2.5,1.71,1.71,0,0,1,2.59-.08,2.45,2.45,0,0,1,.58,1.58l.25,2.42Z"/><path d="M517.88,184c-1.25-1.25-1.83-2.5-.67-3.75s2.5-.58,3.75.67,1.84,2.5.67,3.75C520.3,185.83,519.05,185.17,517.88,184Zm2.42-2.5c-.84-.83-1.75-1.42-2.5-.67s-.17,1.67.66,2.5,1.75,1.42,2.5.67S521.13,182.42,520.3,181.5Z"/><path d="M525.88,179l.59.58-2.75,2.75-.34-.33-.33-3.5c-.08-.58-.17-1.08-.42-1.25-.41-.42-.91-.33-1.41.08a1.05,1.05,0,0,0-.17,1.42l-.67.42a1.84,1.84,0,0,1,.25-2.5,1.71,1.71,0,0,1,2.59-.09,2.48,2.48,0,0,1,.58,1.59l.25,2.41Z"/><path d="M525.05,176.75c-1.25-1.25-1.84-2.5-.67-3.75s2.5-.58,3.75.67,1.83,2.5.67,3.75S526.3,178,525.05,176.75Zm2.5-2.42c-.84-.83-1.75-1.41-2.5-.66s-.17,1.66.66,2.5,1.75,1.41,2.5.66S528.38,175.17,527.55,174.33Z"/><path d="M975.14,203.42a1.9,1.9,0,0,1-.17,2.75,2.21,2.21,0,0,1-2.25.5l.17-.84a1.35,1.35,0,0,0,1.41-.25,1.09,1.09,0,0,0,.17-1.58,1.08,1.08,0,0,0-1.58.08l-.42.42-.5-.5.33-.33a.88.88,0,0,0,.09-1.34.81.81,0,0,0-1.17.09,1.28,1.28,0,0,0-.33,1.08l-.75.08a2,2,0,0,1,.58-1.83,1.58,1.58,0,0,1,2.42-.08,1.3,1.3,0,0,1,.33,1.41A1.45,1.45,0,0,1,975.14,203.42Z"/><path d="M975,201.83c-1.25-1.25-1.83-2.5-.67-3.75s2.5-.58,3.75.67,1.84,2.5.67,3.75S976.22,203,975,201.83Zm2.5-2.41c-.83-.84-1.75-1.42-2.5-.67s-.17,1.67.67,2.5,1.75,1.42,2.5.67S978.3,200.25,977.47,199.42Z"/><path d="M979.22,198.25l2.25-2.25.58.58-2.25,2.25Z"/><path d="M981,191.5l4.25,4.25-.66.67L981.14,193l-.58,1.25-.59-.58Z"/><path d="M983.3,189.17l4.25,4.33-.67.67-3.41-3.42-.59,1.25-.58-.58Z"/><path d="M986.8,190.58l2.25-2.25.59.59-2.25,2.25Z"/><path d="M993.63,186.17l.59.58-2.75,2.75-.34-.33-.33-3.5c-.08-.59-.17-1.09-.42-1.25a.86.86,0,0,0-1.33.08,1.05,1.05,0,0,0-.16,1.42l-.67.41a1.84,1.84,0,0,1,.25-2.5,1.7,1.7,0,0,1,2.58-.08,2.45,2.45,0,0,1,.58,1.58l.25,2.42Z"/><path d="M992.89,184c-1.25-1.25-1.84-2.5-.67-3.75s2.5-.58,3.75.67,1.83,2.5.67,3.75C995.3,185.83,994.05,185.17,992.89,184Zm2.41-2.5c-.83-.83-1.75-1.42-2.5-.67s-.16,1.67.67,2.5,1.75,1.42,2.5.67S996.14,182.42,995.3,181.5Z"/><path d="M1000.89,179l.58.58-2.75,2.75-.33-.33-.33-3.5c-.09-.58-.17-1.08-.42-1.25a.87.87,0,0,0-1.33.08,1.05,1.05,0,0,0-.17,1.42l-.67.42a1.84,1.84,0,0,1,.25-2.5,1.71,1.71,0,0,1,2.59-.09,2.48,2.48,0,0,1,.58,1.59l.25,2.41Z"/><path d="M1000.05,176.75c-1.25-1.25-1.84-2.5-.67-3.75s2.5-.58,3.75.67,1.83,2.5.66,3.75S1001.29,178,1000.05,176.75Zm2.49-2.42c-.83-.83-1.74-1.41-2.49-.66s-.17,1.66.66,2.5,1.75,1.41,2.5.66S1003.38,175.17,1002.54,174.33Z"/><path d="M1000.55,197l2,6.42-.75.75-1.67-5.59-1.91,1.92-.59-.58Z"/><path d="M1003.05,199.25l2.25-2.25.58.58-2.25,2.25Z"/><path d="M1004.88,192.5l4.25,4.33-.67.67-3.42-3.42-.58,1.25-.58-.58Z"/><path d="M1012.21,192.58l.58.59-2.75,2.75-.33-.34-.33-3.5c-.09-.58-.17-1.08-.42-1.25a.87.87,0,0,0-1.33.09,1,1,0,0,0-.17,1.41l-.67.42a1.84,1.84,0,0,1,.25-2.5,1.71,1.71,0,0,1,2.59-.08,2.45,2.45,0,0,1,.58,1.58l.25,2.42Z"/><path d="M1011.8,190.58l2.25-2.25.58.59-2.25,2.25Z"/><path d="M1018.55,186.17l.58.58-2.75,2.75-.33-.33-.34-3.5c-.08-.59-.16-1.09-.41-1.25a.87.87,0,0,0-1.34.08,1.05,1.05,0,0,0-.16,1.42l-.67.41a1.84,1.84,0,0,1,.25-2.5,1.7,1.7,0,0,1,2.58-.08,2.41,2.41,0,0,1,.59,1.58l.25,2.42Z"/><path d="M1017.8,184c-1.25-1.25-1.84-2.5-.67-3.75s2.5-.58,3.75.67,1.83,2.5.66,3.75S1019,185.17,1017.8,184Zm2.41-2.5c-.83-.83-1.75-1.42-2.5-.67s-.16,1.67.67,2.5,1.75,1.42,2.5.67S1021.13,182.42,1020.21,181.5Z"/><path d="M1025.79,179l.59.58-2.75,2.75-.34-.33-.33-3.5c-.08-.58-.17-1.08-.42-1.25a.87.87,0,0,0-1.33.08,1.05,1.05,0,0,0-.17,1.42l-.66.42a1.83,1.83,0,0,1,.25-2.5,1.7,1.7,0,0,1,2.58-.09,2.48,2.48,0,0,1,.58,1.59l.25,2.41Z"/><path d="M1025.05,176.75c-1.25-1.25-1.83-2.5-.67-3.75s2.5-.58,3.75.67,1.84,2.5.67,3.75C1027.47,178.58,1026.22,178,1025.05,176.75Zm2.42-2.42c-.84-.83-1.75-1.41-2.5-.66s-.17,1.66.66,2.5,1.75,1.41,2.5.66S1028.3,175.17,1027.47,174.33Z"/><path d="M464,217h-2.92v8.42h-1.5V217h-2.92v-1.33h7.25V217Z"/><path d="M465.05,216.42a.92.92,0,1,1,1.83,0,.91.91,0,0,1-.91.91A1,1,0,0,1,465.05,216.42Zm.25,2.41h1.42v6.59H465.3Z"/><path d="M479.21,221.67v3.75H477.8v-3.67c0-1.08-.59-1.75-1.5-1.75a1.67,1.67,0,0,0-1.67,1.67v3.75h-1.42v-3.67c0-1.08-.58-1.75-1.41-1.75a1.67,1.67,0,0,0-1.75,1.83v3.5h-1.42v-6.58h1.42v1.08a2.18,2.18,0,0,1,2.08-1.16A2.41,2.41,0,0,1,474.3,220a2.56,2.56,0,0,1,2.25-1.33C478.3,218.67,479.21,219.75,479.21,221.67Z"/><path d="M487.47,222.67h-5.25a1.87,1.87,0,0,0,2.08,1.58,2.09,2.09,0,0,0,1.83-.92l1.09.59a3.34,3.34,0,0,1-3,1.66,3.3,3.3,0,0,1-3.42-3.5,3.38,3.38,0,1,1,6.75,0A1.32,1.32,0,0,0,487.47,222.67Zm-1.42-1.09a1.83,1.83,0,0,0-1.92-1.58,1.9,1.9,0,0,0-2,1.58Z"/><path d="M492.38,216.42a.92.92,0,1,1,1.83,0,.91.91,0,0,1-.91.91A1,1,0,0,1,492.38,216.42Zm.25,2.41h1.42v6.59h-1.42Z"/><path d="M502.3,221.67v3.75h-1.42v-3.67a1.49,1.49,0,0,0-1.5-1.67,1.8,1.8,0,0,0-1.91,1.84v3.5h-1.42v-6.59h1.42v1a2.41,2.41,0,0,1,2.16-1.16C501.3,218.67,502.3,219.75,502.3,221.67Z"/><path d="M517.46,218.83l-2.41,6.59h-1.17l-1.75-4.75-1.67,4.75H509.3l-2.5-6.59h1.5l1.58,4.5,1.58-4.5h1.34l1.58,4.5,1.58-4.5Z"/><path d="M524.88,222.67h-5.25a1.88,1.88,0,0,0,2.08,1.58,2.11,2.11,0,0,0,1.84-.92l1.08.59a3.46,3.46,0,0,1-6.42-1.84,3.38,3.38,0,1,1,6.75,0A1.32,1.32,0,0,0,524.88,222.67Zm-1.33-1.09a1.83,1.83,0,0,0-1.92-1.58,1.9,1.9,0,0,0-2,1.58Z"/><path d="M532.79,222.67h-5.24a1.87,1.87,0,0,0,2.08,1.58,2.09,2.09,0,0,0,1.83-.92l1.08.59a3.46,3.46,0,0,1-6.41-1.84,3.38,3.38,0,1,1,6.75,0A1.19,1.19,0,0,0,532.79,222.67Zm-1.33-1.09a1.83,1.83,0,0,0-1.92-1.58,1.89,1.89,0,0,0-2,1.58Z"/><path d="M538.72,225.42l-2.92-3.17v3.17h-1.42V215.25h1.42v5.83l2.17-2.25h1.91l-2.75,2.84,3.42,3.75Z"/><path d="M540.8,223.42h1.25a1.14,1.14,0,0,0,1.25,1c.75,0,1.25-.34,1.25-.84s-.33-.66-.83-.75l-.92-.25c-1.25-.33-1.83-1-1.83-1.91a2.11,2.11,0,0,1,2.33-1.92c1.17,0,2.33.58,2.33,2H544.3a.93.93,0,0,0-1-.83c-.58,0-1,.33-1,.83s.42.67.83.75l1,.25a1.94,1.94,0,0,1,1.75,1.92c0,1.25-1.25,2-2.58,2A2.53,2.53,0,0,1,540.8,223.42Z"/><path d="M31.05,158.75h-.83v8.33h.83Z"/><path d="M56.05,158.75h-.84v8.33h.84Z"/><path d="M81.05,158.75h-.83v8.33h.83Z"/><path d="M106.05,158.75h-.83v8.33h.83Z"/><path d="M131.05,158.75h-.84v8.33h.84Z"/><path d="M156.05,158.75h-.84v8.33h.84Z"/><path d="M181.05,158.75h-.83v8.33h.83Z"/><path d="M206.05,158.75h-.84v8.33h.84Z"/><path d="M231.05,158.75h-.84v8.33h.84Z"/><path d="M256.05,158.75h-.84v8.33h.84Z"/><path d="M281.05,158.75h-.83v8.33h.83Z"/><path d="M306.05,158.75h-.83v8.33h.83Z"/><path d="M331.05,158.75h-.84v8.33h.84Z"/><path d="M356.05,158.75h-.84v8.33h.84Z"/><path d="M381.05,158.75h-.84v8.33h.84Z"/><path d="M406.05,158.75h-.83v8.33h.83Z"/><path d="M431.05,158.75h-.83v8.33h.83Z"/><path d="M456.05,158.75h-.83v8.33h.83Z"/><path d="M481,158.75h-.83v8.33H481Z"/><path d="M506.05,158.75h-.83v8.33h.83Z"/><path d="M531.05,158.75h-.84v8.33h.84Z"/><path d="M556.05,158.75h-.84v8.33h.84Z"/><path d="M581.05,158.75h-.84v8.33h.84Z"/><path d="M606.05,158.75h-.84v8.33h.84Z"/><path d="M631.05,158.75h-.83v8.33h.83Z"/><path d="M656.05,158.75h-.84v8.33h.84Z"/><path d="M681.05,158.75h-.84v8.33h.84Z"/><path d="M706.06,158.75h-.84v8.33h.84Z"/><path d="M731.06,158.75h-.84v8.33h.84Z"/><path d="M756.06,158.75h-.84v8.33h.84Z"/><path d="M781,158.75h-.83v8.33H781Z"/><path d="M806,158.75h-.83v8.33H806Z"/><path d="M831.05,158.75h-.83v8.33h.83Z"/><path d="M856.05,158.75h-.83v8.33h.83Z"/><path d="M881.05,158.75h-.83v8.33h.83Z"/><path d="M906.05,158.75h-.84v8.33h.84Z"/><path d="M931.05,158.75h-.83v8.33h.83Z"/><path d="M956.05,158.75h-.83v8.33h.83Z"/><path d="M981.05,158.75h-.83v8.33h.83Z"/><path d="M1006.05,158.75h-.84v8.33h.84Z"/><path d="M1031.05,158.75h-.84v8.33h.84Z"/><path class="cls-5" d="M80.63,158.83a.08.08,0,0,1-.08-.08V.42a.08.08,0,0,1,.08-.09l.09.09V158.75C80.72,158.83,80.72,158.83,80.63,158.83Z"/><path class="cls-5" d="M30.63,158.83a.08.08,0,0,1-.08-.08V.42a.08.08,0,0,1,.08-.09l.08.09V158.75C30.71,158.83,30.71,158.83,30.63,158.83Z"/><path d="M55.63,150.83a.39.39,0,0,1-.42-.41v-10a.42.42,0,1,1,.84,0v10A.39.39,0,0,1,55.63,150.83Zm0-20a.39.39,0,0,1-.42-.41v-10a.42.42,0,0,1,.84,0v10A.39.39,0,0,1,55.63,130.83Zm0-20a.39.39,0,0,1-.42-.41v-10a.42.42,0,0,1,.84,0v10A.39.39,0,0,1,55.63,110.83Zm0-20a.39.39,0,0,1-.42-.41v-10a.42.42,0,0,1,.84,0v10A.39.39,0,0,1,55.63,90.83Zm0-20a.39.39,0,0,1-.42-.41v-10a.42.42,0,1,1,.84,0v10A.39.39,0,0,1,55.63,70.83Zm0-20a.39.39,0,0,1-.42-.41v-10a.42.42,0,1,1,.84,0v10A.39.39,0,0,1,55.63,50.83Zm0-20a.39.39,0,0,1-.42-.41v-10a.42.42,0,1,1,.84,0v10A.39.39,0,0,1,55.63,30.83Zm0-20a.39.39,0,0,1-.42-.41V.42a.42.42,0,0,1,.84,0v10A.39.39,0,0,1,55.63,10.83Z"/><path class="cls-5" d="M105.63,158.83a.08.08,0,0,1-.08-.08V.42a.08.08,0,0,1,.08-.09l.08.09V158.75C105.71,158.83,105.71,158.83,105.63,158.83Z"/><path class="cls-5" d="M130.63,158.83a.08.08,0,0,1-.08-.08V.42a.08.08,0,0,1,.08-.09l.08.09V158.75C130.71,158.83,130.71,158.83,130.63,158.83Z"/><path class="cls-5" d="M155.63,158.83a.08.08,0,0,1-.08-.08V.42a.08.08,0,0,1,.08-.09l.09.09V158.75C155.72,158.83,155.72,158.83,155.63,158.83Z"/><path class="cls-5" d="M180.63,158.83a.08.08,0,0,1-.08-.08V.42a.08.08,0,0,1,.08-.09l.08.09V158.75C180.71,158.83,180.71,158.83,180.63,158.83Z"/><path class="cls-5" d="M205.63,158.83a.08.08,0,0,1-.09-.08V.42a.09.09,0,0,1,.09-.09l.08.09V158.75C205.71,158.83,205.71,158.83,205.63,158.83Z"/><path class="cls-5" d="M230.63,158.83a.08.08,0,0,1-.08-.08V.42a.08.08,0,0,1,.08-.09l.08.09V158.75C230.71,158.83,230.71,158.83,230.63,158.83Z"/><path class="cls-5" d="M255.63,158.83a.08.08,0,0,1-.08-.08V.42a.08.08,0,0,1,.08-.09l.09.09V158.75C255.72,158.83,255.72,158.83,255.63,158.83Z"/><path class="cls-5" d="M280.63,158.83a.08.08,0,0,1-.08-.08V.42a.08.08,0,0,1,.08-.09l.09.09V158.75C280.72,158.83,280.72,158.83,280.63,158.83Z"/><path class="cls-5" d="M305.63,158.83a.08.08,0,0,1-.08-.08V.42a.08.08,0,0,1,.08-.09l.09.09V158.75C305.72,158.83,305.72,158.83,305.63,158.83Z"/><path class="cls-5" d="M330.63,158.83a.08.08,0,0,1-.09-.08V.42a.09.09,0,0,1,.09-.09l.08.09V158.75C330.71,158.83,330.71,158.83,330.63,158.83Z"/><path class="cls-5" d="M355.63,158.83a.08.08,0,0,1-.08-.08V.42a.08.08,0,0,1,.08-.09l.08.09V158.75C355.71,158.83,355.71,158.83,355.63,158.83Z"/><path class="cls-5" d="M380.63,158.83a.08.08,0,0,1-.08-.08V.42a.08.08,0,0,1,.08-.09l.09.09V158.75C380.72,158.83,380.72,158.83,380.63,158.83Z"/><path class="cls-5" d="M405.63,158.83a.08.08,0,0,1-.08-.08V.42a.08.08,0,0,1,.08-.09l.09.09V158.75C405.72,158.83,405.72,158.83,405.63,158.83Z"/><path class="cls-5" d="M430.63,158.83a.08.08,0,0,1-.08-.08V.42a.08.08,0,0,1,.08-.09l.09.09V158.75C430.72,158.83,430.72,158.83,430.63,158.83Z"/><path class="cls-5" d="M455.63,158.83a.08.08,0,0,1-.09-.08V.42a.09.09,0,0,1,.09-.09l.08.09V158.75C455.71,158.83,455.71,158.83,455.63,158.83Z"/><path class="cls-5" d="M505.63,158.83a.08.08,0,0,1-.08-.08V.42a.08.08,0,0,1,.08-.09l.08.09V158.75C505.71,158.83,505.71,158.83,505.63,158.83Z"/><path class="cls-5" d="M480.63,158.83a.08.08,0,0,1-.08-.08V.42a.08.08,0,0,1,.08-.09l.09.09V158.75C480.72,158.83,480.72,158.83,480.63,158.83Z"/><path class="cls-5" d="M530.63,158.83a.08.08,0,0,1-.08-.08V.42a.08.08,0,0,1,.08-.09l.08.09V158.75C530.71,158.83,530.71,158.83,530.63,158.83Z"/><path class="cls-5" d="M555.63,158.83a.08.08,0,0,1-.08-.08V.42a.08.08,0,0,1,.08-.09l.08.09V158.75C555.71,158.83,555.71,158.83,555.63,158.83Z"/><path class="cls-5" d="M580.63,158.83a.08.08,0,0,1-.08-.08V.42a.08.08,0,0,1,.08-.09l.08.09V158.75C580.71,158.83,580.71,158.83,580.63,158.83Z"/><path class="cls-5" d="M605.63,158.83a.08.08,0,0,1-.08-.08V.42a.08.08,0,0,1,.08-.09l.09.09V158.75C605.72,158.83,605.72,158.83,605.63,158.83Z"/><path class="cls-5" d="M630.63,158.83a.08.08,0,0,1-.08-.08V.42a.08.08,0,0,1,.08-.09l.08.09V158.75C630.71,158.83,630.71,158.83,630.63,158.83Z"/><path class="cls-5" d="M655.63,158.83a.08.08,0,0,1-.08-.08V.42a.08.08,0,0,1,.08-.09l.08.09V158.75C655.71,158.83,655.71,158.83,655.63,158.83Z"/><path class="cls-5" d="M680.63,158.83a.08.08,0,0,1-.08-.08V.42a.08.08,0,0,1,.08-.09l.09.09V158.75C680.72,158.83,680.72,158.83,680.63,158.83Z"/><path class="cls-5" d="M705.64,158.83a.08.08,0,0,1-.09-.08V.42a.09.09,0,0,1,.09-.09l.08.09V158.75C705.72,158.83,705.72,158.83,705.64,158.83Z"/><path class="cls-5" d="M730.63,158.83a.08.08,0,0,1-.08-.08V.42a.08.08,0,0,1,.08-.09l.09.09V158.75C730.72,158.83,730.72,158.83,730.63,158.83Z"/><path class="cls-5" d="M755.63,158.83a.08.08,0,0,1-.09-.08V.42a.09.09,0,0,1,.09-.09l.08.09V158.75C755.71,158.83,755.71,158.83,755.63,158.83Z"/><path class="cls-5" d="M780.63,158.83a.08.08,0,0,1-.09-.08V.42a.09.09,0,0,1,.09-.09l.08.09V158.75C780.71,158.83,780.71,158.83,780.63,158.83Z"/><path class="cls-5" d="M805.63,158.83a.08.08,0,0,1-.08-.08V.42a.08.08,0,0,1,.08-.09l.08.09V158.75C805.71,158.83,805.71,158.83,805.63,158.83Z"/><path class="cls-5" d="M830.63,158.83a.08.08,0,0,1-.08-.08V.42a.08.08,0,0,1,.08-.09l.09.09V158.75C830.72,158.83,830.72,158.83,830.63,158.83Z"/><path class="cls-5" d="M855.63,158.83a.08.08,0,0,1-.08-.08V.42a.08.08,0,0,1,.08-.09l.08.09V158.75C855.71,158.83,855.71,158.83,855.63,158.83Z"/><path class="cls-5" d="M880.63,158.83a.08.08,0,0,1-.08-.08V.42a.08.08,0,0,1,.08-.09l.08.09V158.75C880.71,158.83,880.71,158.83,880.63,158.83Z"/><path class="cls-5" d="M905.63,158.83a.08.08,0,0,1-.08-.08V.42a.08.08,0,0,1,.08-.09l.09.09V158.75C905.72,158.83,905.72,158.83,905.63,158.83Z"/><path class="cls-5" d="M930.63,158.83a.08.08,0,0,1-.08-.08V.42a.08.08,0,0,1,.08-.09l.09.09V158.75C930.72,158.83,930.72,158.83,930.63,158.83Z"/><path class="cls-5" d="M955.63,158.83a.08.08,0,0,1-.08-.08V.42a.08.08,0,0,1,.08-.09l.09.09V158.75C955.72,158.83,955.72,158.83,955.63,158.83Z"/><path class="cls-5" d="M980.63,158.83a.08.08,0,0,1-.08-.08V.42a.08.08,0,0,1,.08-.09l.08.09V158.75C980.71,158.83,980.71,158.83,980.63,158.83Z"/><path class="cls-5" d="M1005.63,158.83a.08.08,0,0,1-.09-.08V.42a.09.09,0,0,1,.09-.09l.08.09V158.75C1005.71,158.83,1005.71,158.83,1005.63,158.83Z"/><path class="cls-5" d="M1030.63,158.83a.08.08,0,0,1-.09-.08V.42a.09.09,0,0,1,.09-.09l.08.09V158.75C1030.71,158.83,1030.71,158.83,1030.63,158.83Z"/></g></g></svg>