<svg xmlns="http://www.w3.org/2000/svg" viewBox="0 0 38.8 43.76"><defs><style>.cls-1{fill:#76b7ce;}</style></defs><g id="Layer_2" data-name="Layer 2"><g id="Layer_1-2" data-name="Layer 1"><path class="cls-1" d="M26.65,25.28c-.16,1-.16,1.78-.33,2.76,0,.16-.16.32-.32.64a1.08,1.08,0,0,1-1.13.81.84.84,0,0,0-.65.33,1,1,0,0,0-.65,1,4.19,4.19,0,0,1,0,2.43,7.38,7.38,0,0,0,0,3.24,6.79,6.79,0,0,1,.16,1.79c0,.16,0,.16-.16.32l-2.92.49c-.32,0-.32,0-.32.32a33.13,33.13,0,0,0,.65,4c0,.16,0,.33-.17.33h-1a7.25,7.25,0,0,1-2.59-1c-.16,0-.16-.16-.33-.32a8.82,8.82,0,0,1-1.62-3.24c-.32-1-.48-2.11-.81-3.24a8,8,0,0,1,.81-4.7c.17-.16.17-.49.33-.65.16-.32.48-.81.65-1.14.32-.64.81-1.45,1.13-2.1L19.84,23c.16-.16.16-.32.33-.48,1,.48,1.94,1,3.08,1.45s2.1,1,3.24,1.46C26.65,25,26.65,25.12,26.65,25.28Z"/><path class="cls-1" d="M20.32,1.46a3.37,3.37,0,0,1-.64,1.3,5,5,0,0,1-2.11,1.45,14.4,14.4,0,0,0-1.62,1A11.1,11.1,0,0,0,13.36,8.1v.33l-.17.16c-.16.16-.32.32-.32.49-.49.81-1,1.62-1.46,2.59a3.13,3.13,0,0,0-.32,2.11,1.42,1.42,0,0,0,.48,1c.33.16.49.48.65,1,.16.32.33.81.49,1.13s.32.65.81.65a1.49,1.49,0,0,1,.81.16c.16,0,.16,0,.16.17v.64c0,.17-.16.17-.49.17-.32-.17-.64-.17-1-.33v.33a.44.44,0,0,1-.65.32.74.74,0,0,0-.81,0v.16c0,.49.17,1,.17,1.46s.32.49.32.81c-.32,0-.49-.16-.81-.16-.16,0-.16,0-.32-.16a3.8,3.8,0,0,1-1.46-1,2.6,2.6,0,0,0-1.62-.81A18,18,0,0,1,4.93,19H4.61a.16.16,0,0,1,.16-.16l1-1.46c0-.16.16-.16.16-.32v-.65c0-.33,0-.49.33-.65.16,0,.32-.16.16-.49a.16.16,0,0,0-.16-.16c-.17-.16-.17-.48,0-.48.48-.17.48-.49.48-1,0-.32,0-.48-.32-.65a1.46,1.46,0,0,1-.65-1.29A4.74,4.74,0,0,1,5.9,9.56V9.08a3.17,3.17,0,0,0-1.13.16c-.33,0-.49.16-.81.16-.17,0-.17,0-.17-.16a.43.43,0,0,0-.48-.49c.32-.16.48-.32.81-.48a3.88,3.88,0,0,0,.81-.65c.16-.17.16-.17.32,0l1,.48c.16.17.32.17.32,0l.16-.16A.59.59,0,0,0,7,7.13a2.77,2.77,0,0,1,1.13.16c.16,0,.49,0,.49-.32a14,14,0,0,0,1.94,1.3c.16-.33.16-.65.33-1A.56.56,0,0,1,11.09,7c.48-.33.81-.81,1.29-1.14a2.58,2.58,0,0,0,.81-1.45c0-.33,0-.33.49-.49h.16V3.57H14c.17,0,.33,0,.33-.17a1.21,1.21,0,0,1,.32-.64c0-.17.16-.17.33-.17.65,0,.81,0,.48-.65,0-.16-.16-.32-.16-.48h1a.6.6,0,0,0,.49-.16A6.38,6.38,0,0,1,17.89.65c.17-.16.17,0,.33,0,.16.16.32.48.65.65.16-.49.48-.81.64-1.3A8.58,8.58,0,0,0,20,1.13c.16.33.32.49.65.49C20.32,1.13,20.32,1.3,20.32,1.46Z"/><path class="cls-1" d="M35.56,33.22v.49a19.94,19.94,0,0,0,.16,3.08v.32a1.49,1.49,0,0,1-.81-.16,6.67,6.67,0,0,1-2.43-.65c-1.29-.49-2.75-1.13-4-1.62-.16,0-.16-.16-.32-.16a4.72,4.72,0,0,1-.81-1.14.6.6,0,0,0-.33-.16,4.59,4.59,0,0,0-1.46.33l-.16.16c0,1.13.16,2.27.16,3.4v1.14a4.27,4.27,0,0,0-1.46-.17l-.16-.16c-.16-.81-.16-1.46-.32-2.27,0-.48-.16-.81-.16-1.29s.16-.81.16-1.3c.16-.65.16-1.3.32-1.78,0-.16-.16-.49-.16-.65v-.81c0-.16.16-.16.32-.33a10.8,10.8,0,0,0,1.3-.48c.16,0,.16-.16.33-.33a5.62,5.62,0,0,0,.81-2.75V24.79a9.21,9.21,0,0,1,1.13.49L32,27.23a.34.34,0,0,1,.32.32.16.16,0,0,0,.16.16h1.3a.59.59,0,0,1,.48.16c.65.33,1.3.65,2.11,1,.16,0,.16.16.16.32A29.64,29.64,0,0,1,35.56,33.22Z"/><path class="cls-1" d="M17.41,20.58l-.16.16c-.16.33-.49.49-.65.81a12.39,12.39,0,0,0-1,2.11v.16a2.29,2.29,0,0,1-1.13,1.62h-.33c-.32,0-.65-.16-1-.16-.16,0-.33,0-.33.16,0,0,0,.17-.16.17-.16.16-.16.32-.48.32-.17,0-.33,0-.33.16a.16.16,0,0,0-.16.16s-.16-.16,0-.16c.16-.32,0-.32-.32-.48-.65-.33-1.46-.49-2.11-.81H9a.6.6,0,0,1-.33.16,1.47,1.47,0,0,1-1.13.48c-.17,0-.33.17-.49.17-1.13.81-2.27,1.45-3.4,2.26a.3.3,0,0,1-.49,0c-.32-.32-.81-.64-1.13-1a.62.62,0,0,0-.49-.16c-.16,0-.16,0-.32-.16-.33-.49-.81-1-1.14-1.46-.16-.16,0-.32,0-.65s.16-.32.33-.32c.64-.17,1.13-.33,1.78-.49h.48c.17,0,.33,0,.17-.16v-.81c0-.16,0-.16.16-.33a2.84,2.84,0,0,1,.81-.64c.16-.17.16-.33.32-.49.17-.65.17-1.3.33-1.94,0-.33,0-.33.48-.33a17,17,0,0,1,2.92.33,1.23,1.23,0,0,1,.81.16,2.5,2.5,0,0,1,1.3,1l.32.32,1,.49c.33.16.65,0,1,0-.17-.32-.49-.49-.49-.81a2.07,2.07,0,0,1-.16-1c0-.49,0-.49.48-.65h.17a.74.74,0,0,0,.81,0,.61.61,0,0,0,.16-.49c.32,0,.49.16.81.16.32.17.49,0,.49-.32a1,1,0,0,1,.16-.65l.16-.16a10.85,10.85,0,0,1,2.27-.16c.32,0,.32.16.48.32A9.91,9.91,0,0,1,17.41,20.58Z"/><path class="cls-1" d="M38.8,23.5a17.77,17.77,0,0,1-1.3,4.21c-.16.49-.48.81-.64,1.3-.81-.33-1.46-.65-2.27-1-.16,0-.33-.17-.49-.17H33c-.17,0-.17,0-.33-.16,0-.16-.16-.16-.16-.32A55.69,55.69,0,0,0,27,25.12a44.5,44.5,0,0,0-4.21-1.78,10,10,0,0,1-2.27-1.14c-.16,0-.16-.16-.33-.16a2,2,0,0,0,.17-1V19.28c0-.16,0-.32.16-.32,1,0,2.1-.16,3.08-.16,1.94,0,3.72-.16,5.67-.16.16,0,.32,0,.32.16l.17.16a1,1,0,0,0,1,.81c.16,0,.16.16.16.33s-.16.48,0,.64c0,.17.32.17.49.17l.16.16V22.2c0,.16,0,.33.32.33,1.14,0,2.27.16,3.41.16h.64a4.73,4.73,0,0,1,2.6.48C38.8,23.34,38.8,23.34,38.8,23.5Z"/><path class="cls-1" d="M29.41,18.47c-2.92.17-6,.17-8.92.33V14.91A5.23,5.23,0,0,1,21,12.15c0-.16.16-.16.16-.32.81-1,1.46-1.78,2.27-2.59.16-.16.49-.33.65-.49.48-.48,1.29-.32,1.94-.48.16,0,.16.16.16.32v6.16c0,.16,0,.32.17.32a1.37,1.37,0,0,1,.81.81c.16.16.16.33.32.49.16.32.32.48.65.48.16.17.16.33.32.49.17.32.49.49.81.81C29.41,18.15,29.41,18.31,29.41,18.47Z"/><path class="cls-1" d="M20.49,20.42a1.23,1.23,0,0,1-.16.81,9.75,9.75,0,0,1-.81,1.94c-1,1.62-1.78,3.41-2.76,5.19-.16.16-.16.32-.32.49a10.09,10.09,0,0,0-2,4.7c0,.32-.16.64-.16,1a.16.16,0,0,0-.16-.16c-.49-.65-.81-1.14-1.3-1.79-.16-.16-.16-.32-.32-.64a4.81,4.81,0,0,1-.16-2.6,6.17,6.17,0,0,1,1.46-3.56,4.42,4.42,0,0,1,1.29-1.14c.16-.16.16-.32.33-.32.16-.65.48-1.46.64-2.11a3.66,3.66,0,0,1,.65-1c0-.16.17-.16.17-.16a2.24,2.24,0,0,0,.64-1.79V19c0-.49,0-.65.65-.49a2.46,2.46,0,0,0,1.14-.16c.16,0,.16-.16.16-.32a.35.35,0,0,1,.32-.33.61.61,0,0,0,.49-.16v1C20.33,19.28,20.49,19.93,20.49,20.42Z"/><path class="cls-1" d="M20.81,12.15a13,13,0,0,0-.48,2.44c-.33-.17-.49-.33-.81-.49a1.49,1.49,0,0,0-.81-.16c-1,.16-1.95.32-2.76.48-.32,0-.49.17-.81.33-.65.32-1.3.48-1.94.81a8.16,8.16,0,0,1-1.14.48v-.16a3.42,3.42,0,0,0-.81-1.29,1.28,1.28,0,0,1-.32-.82,2.76,2.76,0,0,1,.32-1.94A13.43,13.43,0,0,1,13.2,8.59V8.43a2.05,2.05,0,0,1,.64-.49,9.05,9.05,0,0,1,.81.65c0,.16-.16.16-.16.32a1.16,1.16,0,0,1,.49,1,.56.56,0,0,0,.16.32,17,17,0,0,0,1.62.65c.16,0,.33.16.49-.16l.16-.17.16.17v.16c0,.16,0,.16.16.16.33,0,.81.16,1.14.16.16,0,.32-.16.48-.16.33-.32.33-.32.65,0a4.09,4.09,0,0,1,.81,1Z"/><path class="cls-1" d="M20,17.66h-.32a.35.35,0,0,0-.33.33c0,.16,0,.16-.16.32-.32,0-.65.16-1,.16h-.65a8.26,8.26,0,0,1-.65-1.13c0-.16-.16-.16-.32-.16H15.14c-.49,0-1,.16-1.46.16a1.26,1.26,0,0,1-1.46-1c0-.16-.16-.33-.16-.49.48-.16,1-.48,1.46-.65a7,7,0,0,0,1.62-.64c.32-.33.81-.17,1.29-.33l2.44-.49h.32c.32.17.49.33.81.49.16.16.16.16.16.33V17C20.32,17.5,20.32,17.66,20,17.66Z"/></g></g></svg>