<svg xmlns="http://www.w3.org/2000/svg" viewBox="0 0 486.22 578.8"><defs><style>.cls-1{fill:#f27b88;}</style></defs><g id="Layer_2" data-name="Layer 2"><g id="Layer_1-2" data-name="Layer 1"><path class="cls-1" d="M392.83,96.08c0,4.22-2.27,6.81-5.67,8.92a136.41,136.41,0,0,0-12.64,8.91c-7.62,6.16-16.37,8.26-25.93,7-4.7-.65-9.07-3.24-13.77-4.22-5.35-1.13-8.11-4.37-9.73-9.23a87.78,87.78,0,0,0-4.54-10.7c-4.21-9.72-11.18-11.34-20.09-7.13-5.51,2.59-11,5.19-16.37,8.27-7.29,4.21-15.23,5.5-23.17,7.13-1.14.16-2.11.64-3.73,1,1,1.13,1.46,1.94,2.11,2.59a72.35,72.35,0,0,1,19,35.49c3.07,13.78,7,27.23,13.45,39.71,1.62,3.08,1.62,5.67-1.14,8.26-2.43,2.43-4.53,5.35-7.29,8.59a53.31,53.31,0,0,0,6,1.78c5.18,1.14,8.1,4.54,10.21,9.24,1.29,2.76,2.59,5.83,4.86,7.62,4.7,3.89,4.54,8.75,4,13.77-.32,3.24-1.78,6.32-3.08,9.4-1.78,3.89-4.21,7.13-8.43,8.92-5.18,2.26-7.61,6.8-9.23,12-.81,2.59-1.46,5.18-2.43,7.62a4.68,4.68,0,0,1-3.08,2.43c-4.06.81-8.11,1.29-12.16,1.78a3.63,3.63,0,0,0-3.56,3.08c-.65,3.08-1.63,6.16-2.6,9.24-.48,1.78-1.29,2.75-3.08,1.45-.16,0-.16-.16-.32-.16-5.83,1.3-11.83-2.92-17.67.49a10.94,10.94,0,0,1-2.91,1.13c-4.7.49-9.08,1.78-11.18,5.67-14.43-6.48-28.69-11.5-44.25-12.47-2.27-.17-4.53-2.11-6.48-3.73-2.75-2.43-5.35-5.19-8.43-8.43-.48,2.59-.48,4.54-1.29,6.32-1,2.59-1.95,5.19-3.73,7.13-1.78,2.27-4.7,1.62-5.51-1.29-.81-2.44-2.11-2.76-4.38-2.76-14.9-.16-29.81.49-44.24,4.54a8.18,8.18,0,0,1-5.51-.49c-13.77-6-27.39-12.31-41-18.47-2.27-1-3.4-2.11-2.27-4.54,1-2.27,1.62-4.7,2.43-7,2.76-7,1.79-13.77-1.29-20.26-1.95-4-4.22-7.61-2.43-12.31.32-1-.81-3.08-1.95-3.89-5.18-3.57-10.05-7.94-16.85-8.27a4.92,4.92,0,0,1-2-.81c0-.48,0-.81.16-1,5.68-7.29,3.73-14.75.49-22-4.54-10.53-9.56-20.91-13.77-31.6-2.92-7.29-5-14.91-7.3-22.53-.65-2.27-.48-4.7-1.29-7a6.42,6.42,0,0,0-3.08-3.4,36.75,36.75,0,0,0-7.3-1.46c-1.62-.16-2.75-.65-1.94-2.59.65-1.78-.16-2.76-1.78-3.57a3.28,3.28,0,0,1-1.95-1.94C1,108.56.49,104.67,0,100.94a3.92,3.92,0,0,1,.81-1.62c1.95-2.59,4.54-5,5.83-7.94a17.72,17.72,0,0,0,1.3-8.26c-.16-2.43.33-4.05,2.27-5.35a19.18,19.18,0,0,0,4.54-3.57c2.43-2.91,5-4.86,9.07-4.37a3.25,3.25,0,0,0,2.76-1.3c1.46-2.27,3.08-1.78,4.7-.65,3.08,2.27,6.32,4.54,9.23,7a3.92,3.92,0,0,0,4.7.65c3.41-1.46,6.81-2.59,10-4.21,5-2.27,9.89-2.92,15.07-.49a3.52,3.52,0,0,0,2.76-.48c6.48-3.73,13.45-3.57,20.58-3.73,4.21-.16,8.26-.81,12.48-1.14,4-.32,6.81-2.59,9.72-5.18,1.46-1.3,1.62-2.27.65-3.89-2.27-4.05-4.54-8.1-7-12.48,3.08-1.3,5-1.13,7,.49a65.84,65.84,0,0,0,6.65,5c1.45,1,1.94,2.11,1.13,3.73-.65,1.62-1.13,3.24-1.62,4.86-.65,1.78,0,3.08,1.94,3.08,8.92.65,18,1.29,26.74-1.3a5.42,5.42,0,0,1,3.57.16c15.39,6.32,30.79,12.64,44.4,22.21a38,38,0,0,1,7,6.64c1.78,2.27,3.89,3.73,6.81,3.57C218,92,222,94.14,226.24,95.92a26.82,26.82,0,0,0,7.94,1.78,119.74,119.74,0,0,0,15.39,0,9.28,9.28,0,0,0,5.51-1.78,136.4,136.4,0,0,0,11.67-10c4.05-3.72,6.16-8.75,7.29-13.93,2.11-9.4,7.13-16.7,15.4-21.56,5-2.92,10.21-5.83,15.39-8.59a12.47,12.47,0,0,0,6.49-9.07c1-5.35,1.62-10.86,2.59-16.21,1-5.18,2.92-9.88,6.81-13.45,3.72-3.4,9.23-4.38,13.12-.81C339,7,345,9.71,351.18,12.62c7.3,3.41,9.73,10.54,11.18,17.83,1,4.54.49,9.4.81,14.1a6.29,6.29,0,0,0,2.11,3.89c3.89,2.91,8.11,5.67,9.08,10.69a51.39,51.39,0,0,1,1,11.19c0,3.24,1,4.86,4.05,5.83,6,1.94,9.56,7.13,13.13,11.83C393.64,90.41,392.83,93.65,392.83,96.08Z"/><path class="cls-1" d="M430.1,507.71c-3.72,4.22-7.29,7.95-10.86,11.83-9.56,10.86-19.12,21.72-28.52,32.74-3.08,3.57-5.35,7.78-7.78,11.83-1.78,3.24-.81,6.81,1.95,9.24.48.48,1.29,1.46,1.13,1.94-.16.65-1.29,1.14-1.94,1.3a81.05,81.05,0,0,1-25.77,1.94c-2.76-.16-5.67-1.78-8.26-3.24a70.85,70.85,0,0,1-8.76-7c-3.56-2.91-7.94-3.89-12.15-5.34a33.39,33.39,0,0,1-12.48-7.3c-5.67-5.18-10.53-11.18-15.56-17-1.62-1.78-2.75-1.78-4.86-.81a123.47,123.47,0,0,1-13.13,4.86c-1.62-5.19-2.91-9.4-4.21-13.61-.65-2-1.29-3.89-1.78-5.84-.65-2.92-1.95-4.7-5-5.35-.82-.16-2.27-1.78-2.11-2.59.81-4.7-1.95-7.94-4.7-11.18-2.27-2.76-4.54-5.35-3.89-9.4.16-.81-.65-1.95-1.3-2.76-1-1.45-2.1-2.91-3.72-5,2.1,0,3.72-.16,5,0,7.13,1.3,13.45-1.46,19.93-3.57a8,8,0,0,0,3.08-2.1c3.73-4.54,7.13-9.24,11-13.78a7.45,7.45,0,0,1,3.73-2.59c10.7-2.43,21.55-4.86,32.41-7a5.88,5.88,0,0,0,5.19-4.37c1-3.41,2.43-6.81,3.89-10.54,5.18,1.95,10,3.73,14.9,5.51,2.27.81,4.54,1.78,7,2.59,2.92,1,5,2.11,5,5.68,0,1,1.78,1.94,2.75,2.75-.48,3.41-1.29,7-1.46,10.54a5.73,5.73,0,0,0,2,4.21c4.54,3.73,9.24,7.29,14.1,10.53,1.46,1,3.56,1.3,5.35,1.95,2.43.81,4.86,1.3,7,2.59,4.06,2.59,7.78,5.83,11.84,8.27a145.84,145.84,0,0,0,14.26,7.13C425.08,506.09,427.19,506.74,430.1,507.71Z"/><path class="cls-1" d="M225.91,320.86a5.4,5.4,0,0,0,.17,6c3.72,5.83,3.56,6-2.92,7.78-.49.16-1,.32-1.62.48-6,1.62-8.59,4.54-7.94,10.7a100,100,0,0,0,4.53,20.58c1.3,3.89,1,7.29.33,11-.16.81-1.78,1.62-2.92,1.94-3.24.81-6.16,1.95-8.26,5-.65,1-2.27,1.45-3.57,1.78-6.16,2.11-12.8,3.24-18.47,6.32A45,45,0,0,1,165,397.68c-1.3,0-2.76,1-4,1.78-4.54,3.24-8.92,6.81-13.45,10.05-3.57,2.59-7.46,2.1-11.19.16a6,6,0,0,1-2.75-3.57c-2.11-9.72-5.83-19.12-5.83-29.17,0-3.56,3.56-11.5,7-12.48,7.13-1.94,9.08-6.32,8.27-13.28-.49-4.71.16-9.57.32-14.43.17-2.1-.64-3.24-2.75-4.05-6.32-2.43-12.64-3.24-19,.16-.81.33-1.62.49-2.92,1-.65-4.37-1.3-8.59-1.78-12.8-1.3-10.53-10.21-21.23-20.42-24.15-7-1.94-13.94-4.05-21.07-5.83a29.66,29.66,0,0,0-6.64-.49c-1.79,0-3.41.17-5.19.17-6.16-.17-9.89-5.51-7-11a17.43,17.43,0,0,0,2.27-8.92,19.14,19.14,0,0,1,.81-3.24c4,1.79,7.94,3.57,11.83,5.19,10.37,4.7,20.91,9.56,31.28,14.1,2.11,1,4.7.81,7,.81a21,21,0,0,0,5.35-1.14c12.47-4.05,25.44-3.24,38.24-3.24a4.34,4.34,0,0,1,2.92,1.14c1.29,2.27,2.92,4.53,5.35,3.4a13.23,13.23,0,0,0,5.83-5.35c1.3-1.94,1.3-4.7,1.94-7.62,2,1.95,3.73,3.57,5.35,5.35,3.41,3.89,7.62,5.51,12.81,6,7,.65,13.93,2.92,20.9,4.54,2.92.64,5.67,2.1,8.59,2.59,6.32,1.13,9.89,5.67,12.15,10.86,1.14,2.59,0,6.32-.81,9.23C228.67,315.84,227.37,318.43,225.91,320.86Z"/><path class="cls-1" d="M482,319.73c-4.38,6.15-5.83,12.47-1.78,20.25a33,33,0,0,0-5-1c-1.62,0-4.37,0-4.7.65a8.18,8.18,0,0,0,.33,5.51,41,41,0,0,0,2.92,6,6.11,6.11,0,0,1-7.3,1.94c-18.63-5.67-37.76-7.13-57-9.08-10.37-1.13-20.91-2.1-31.28-2.91-2.27-.17-3.4-1-3.08-3.41s-1-3.56-3.08-4.53c-4.86-2.44-9.4-5-14.1-7.62a3.66,3.66,0,0,1-1.13-1c-3.4-5.67-6.65-11.51-10.05-17.18,2.92-1.78,4.05-4.38,2.76-7.46-1.46-3.24.32-5,2.43-6.64a16.06,16.06,0,0,1,3.56-2.11c5-2.1,8.59-5,9.89-10.69.65-3.08,3.24-5.68,6.64-7a57.44,57.44,0,0,0,9.08-3.89,24.1,24.1,0,0,0,6.64-6.16c.65-1-.16-3.4-.65-5-.64-2.27-1.62-4.54-2.43-6.65a43.25,43.25,0,0,0,6.49-.65,18.5,18.5,0,0,0,5.18-1.46c7-3.56,13.45-8.1,21.23-9.88,9.72-2.27,19.29-3.73,28.85.49,1,.48,2.27,2.1,2.1,2.91a49.76,49.76,0,0,1-2.91,10.7c-1.3,2.92-.65,4.54,1.94,6,4.21,2.27,8.27,4.7,12.48,6.81,1.94,1,3.08,2.27,2.75,4.38-.81,4.7,1.46,8.1,4.38,11.5a16.64,16.64,0,0,1,3.24,7.78,43.22,43.22,0,0,1,.49,10.21c-.49,6.81,3.08,10.54,8.75,13C484.39,315.19,484.71,315.84,482,319.73Z"/><path class="cls-1" d="M481.15,445.48c-2.43,4.7-6.8,5.84-11.5,4.86A117.6,117.6,0,0,1,454.9,446c-4.38-1.3-4.54-1.46-6.32,2.92-5.51,13.61-11.83,27.06-15.23,41.65-1,4.37-1.79,8.75-2.76,13.12-.16.65-.48,1.46-.65,2.11-11.5-2.27-20.42-8.43-29.17-15.07-3.72-2.92-7.62-5.51-12.64-5.35a6.68,6.68,0,0,1-3.08-1.46c-4.37-3.08-8.75-6.16-12.8-9.56a7,7,0,0,1-2.11-4.54,102.52,102.52,0,0,1,1.62-11.18c-2.59-.49-4.05-2.43-4.05-5.67,0-.81-1.78-1.79-2.75-2.11-7.3-2.92-14.59-5.51-21.88-8.43-3.24-1.29-6.32-2.75-9.72-4.21.48-1.46,1.13-2.92,1.62-4.37,4-9.57,8.1-19.13,12-28.85a7.53,7.53,0,0,1,5-4.86,67.26,67.26,0,0,0,7.94-3.08c.33.32.65.48.65.64-.65,4.7,2.27,6.65,6,8.43,6.48,2.92,12.64,6.16,19,9.4,2.1,1.14,3.24.65,4.37-1.29,3.73-6.32,7.46-12.48,11.35-19,1,2.92,1.78,5.68,2.75,8.27,2.27,5.67,5.84,5.67,10.7,4.38,7.45-1.79,14.42-1.79,21.55,1.45,3.41,1.62,7.62,2.11,11.35,2.43,1.62.17,3.72-1.29,4.86-2.59,3.89-4.37,7.45-9.07,11.51-14.1,9.23,5.19,18.79,11.67,21.39,23.5C487.47,428,485.53,437.22,481.15,445.48Z"/><path class="cls-1" d="M381.65,267.87c-2.92,1.29-5.83,2.59-8.91,3.72-5.35,2-8.27,5.84-9.72,11a7.11,7.11,0,0,1-4.06,5,93.93,93.93,0,0,0-10,6.32c-1.79,1.29-1.95,3.08-1.3,5.18a26.7,26.7,0,0,1,.65,5.51c-1.79-.16-2.76-.32-4.38-.48a41.3,41.3,0,0,0,2.27,5.18c1.14,2.11,2.76,3.89,3.57,6.16,3.89,10.05,12.15,14.75,21.23,18.64,3.24,1.3,2.27,3.89,2.59,5.83-5.19,0-10.37.16-15.4,0-12.48-.48-24.95-1.29-37.59-1.78-2.92-.16-4.87-1-6-3.73-1-1.94-2.27-3.73-3.24-5.51a55.24,55.24,0,0,0-13-17,7.29,7.29,0,0,1-2.27-4.38c-.64-4.7-1-9.4-1.45-14.1-.49-5.51,0-10.53,5.51-13.61a2.49,2.49,0,0,0,.81-1c.16-.17.16-.33.32-1.14-3.73-1.13-7.62-2.27-11.51-3.4s-4.05-1.14-2.75-4.86c.65-2.27,1.3-4.54,2.11-6.81a17.45,17.45,0,0,1,8.1-10.21c9.56-5.35,12.48-14.26,12.32-24.63v-2.11c4,2.27,8.42,4.54,12.64,6.81,8.1,4.21,16.85,4.21,25.6,3.72,5.51-.32,10.86-1.13,16.37-1.45a6.18,6.18,0,0,1,4.21,1.62c3.08,2.75,5.68,6.32,9.08,8.59,5.35,3.72,6.32,9.88,9.4,14.9C388.13,262.19,385.22,266.24,381.65,267.87Z"/><path class="cls-1" d="M207.44,400.92a2.13,2.13,0,0,1-1.62,1.45c-7.13,1.14-11.51,6.33-16,11.19-3.56,3.89-6.64,8.1-10,12-.65.81-2.11,1.13-3.08,1.62a7.32,7.32,0,0,0-2.11,1.3,9.72,9.72,0,0,0-2.11,2.91,12.88,12.88,0,0,1-10.53,7.78c-2.11.33-4.21-.32-6.16-.32-1,0-2.11-.16-2.59.32s-.33,1.79,0,2.6a31.72,31.72,0,0,0,1.62,3.4c1.62,3.24,1.3,4.54-2,6.64-1.94,1.3-3.72,2.43-5.67,3.57-2.1,1.13-3.08,2.59-2.43,5,1.14,4.7,0,8.59-4.37,11.35a12.14,12.14,0,0,0-3.41,3.08c-2.91,4.05-6.48,4.05-10.53,1.78a27.38,27.38,0,0,0-3.24-1.3c-2.92-1.78-5.35-1.29-7.46,1.62-1.78,2.43-7.45,2.43-10,.33a30.57,30.57,0,0,1-3.25-3.08c-2.43-2.59-5-4.38-8.91-4.22-1.62.17-3.56-1.13-5.19-2.1a69.17,69.17,0,0,1-5.67-4.7c-1.29,1.13-2.27,2.27-3.72,3.56C70,448.4,61.26,430.09,52.35,411.45c11.18,1.46,22,1.13,31.11,8.26,2.43,1.79,7,1.14,10.54,1.14,7.61,0,15.23-.81,22.68-.32,4.54.32,7.3-1.63,9.89-4.54a44.14,44.14,0,0,0,3.4-4.38c1.46-2.1,3.08-2.43,5.51-1.13,4.54,2.43,9.24,3.24,13.78-.33,2.43-1.94,5.19-3.4,7.45-5.67,4.38-4.37,9.73-5.67,15.56-6.16a26.07,26.07,0,0,0,10.37-3.4c7.62-3.89,15.72-5.83,24.8-8.1C207.6,391.84,207.6,396.38,207.44,400.92Z"/><path class="cls-1" d="M466.57,355.05c-5.18,1-10.37,2.11-15.72,2.76-4.37.49-8.59,1.3-12.31,4.05q-10.21,7.78-22.37,3.4c-2.59-1-5.18-.32-7.45,1.79a126,126,0,0,1-11,9.72c-5.35,4.21-5.67,6.81-.81,11.67,4.21,4.21,4.21,4.21,1.13,9.07-3.56,5.68-7,11.51-10.69,17.51-8.27-4.22-16.21-8.11-24.31-12.32-.65-.33-1-1.46-1.14-2.43-.32-1.62-.48-3.41-.81-5.51-4.7,1.78-9.07,3.56-13.77,5.35-3.41-6.81-6.65-13.29-9.89-19.94-3.08-6.32-6.32-12.64-9.24-19.12-.48-1-.48-3.08.17-3.73,2.43-2.43,1.29-4.21-.65-6-3.57-3.25-7.62-6.32-9.73-11-.16-.33-.32-.81-.64-1.46,50.07,2.59,100,4,148.93,14.58A3.94,3.94,0,0,1,466.57,355.05Z"/><path class="cls-1" d="M281,542.4c-5-1.14-7.78,1-10.37,4.05-1.79,2.27-4.22,1.62-6.49,1.13a11.33,11.33,0,0,1-1.94-1c-5-3.08-6.81-3.73-10.21,2.11-1.13,1.78-4.05,2.91-6.48,3.56-12,2.92-23.18-1.78-34.52-4.37a3.83,3.83,0,0,1-1.78-1.46c-1.14-1.79-1.95-4.05-3.24-5.68-3.73-4.21-7.78-8.1-11.35-12.31a5.15,5.15,0,0,1-1.3-4.22c3.08-15.07,6.32-30.14,9.4-45.21.49-1.95,1.46-2.43,3.25-1.78,11.18,3.56,22.68,4.05,34.35,3.56,6.16-.32,10.54,3.4,14.59,7.13,2.91,2.76,5.67,6,5,10.86-.16,1.46,1.78,3.4,3.08,5,2.92,3.72,6.16,7.12,5.35,12.47-.16.81,1.78,2.6,3.08,2.92,2.59.81,3.72,2.27,4.37,4.86,1.14,4.7,2.76,9.24,4.22,13.78A25.46,25.46,0,0,0,281,542.4Z"/><path class="cls-1" d="M339.19,442.24c-1.62,4.38-3.24,8.75-5,12.81-.32.64-1.62,1.13-2.59,1.45-10.86,2.43-21.72,4.7-32.58,7.13a9.63,9.63,0,0,0-4.7,3.24c-3.56,4.38-7,8.92-10.53,13.29a5.94,5.94,0,0,1-2.11,1.95c-8.42,3.24-16.85,5.35-26.74,3.08,4.22-7.3,1.46-13-3.08-18.8-1.78-2.27-1.62-6-2.1-9.24-1-7.13-1-7.29,5.83-9.56a8,8,0,0,0,5.67-5.83,9.3,9.3,0,0,1,6.81-7.14c1.94-.64,3.89-2.59,5.19-4.37,3.72-5.67,7.29-11.51,10.85-17.5,1-1.62,2.11-1.79,3.89-1.79,8.59.33,14.75,4.7,18.15,12.16,3.73,8.1,11.35,10.7,18.48,13.77C329.15,438.84,333.85,440.3,339.19,442.24Z"/><path class="cls-1" d="M227.21,427.17c-7.78,2.43-12.48,8.1-16.37,14.1-4.21,6.32-7.45,13.13-7.94,21.07-.16,3.56-.32,7.13-.81,10.53a3.89,3.89,0,0,1-2.43,2.59c-13.94,3.08-28,6.16-42.14,8.92-8.26,1.62-15.72-1.62-23.66-5.19,3.57-3.24,6.65-6.16,9.89-9.07a5.61,5.61,0,0,0,2.27-5.84c-1-4.54,0-7.94,4.7-9.72a14.08,14.08,0,0,0,3.24-2.11c3.08-2.11,3.56-4.37,1.94-7.62-.81-1.45-1.45-3.07-2.43-5a10.07,10.07,0,0,1,2.43.16c6.81,1.62,12.32-.64,16.37-6.15,1.46-2.11,2.11-5.52,6-5.19.81,0,1.62-1.62,2.43-2.43,5.83-6.32,11.34-12.81,17.34-18.8,1.3-1.3,4.05-2.92,5.35-2.27,2.43,1,3.72,3.73,2.91,6.81-.16.81.49,2.43,1,2.59C215.22,416.64,220.24,422.8,227.21,427.17Z"/><path class="cls-1" d="M344.86,398.49a48.61,48.61,0,0,0-5.51-.81c-6.15-.17-12.47-.17-18.63-.33q-6.08-.24-12.16-1c-1.29-.16-3.24-1.14-3.4-1.95-.65-3.88-3.73-4.37-6.48-5.34-2.27-.65-2.92-1.95-2.92-4.22a73.61,73.61,0,0,0-1-10.21c-.49-3.4-1.3-6.8.48-10,3.08-5.84,2.27-12,1.14-17.83-2-10.37-3.57-20.58-2.92-31.28a5.28,5.28,0,0,0-.65-2.75c-5.35-7.62-6.48-16.7-8.59-25.28-1.13-4.54-.16-8.59,1.3-13,4.54,1.3,9.08,2.59,14.26,4.21-7.29,4.22-7,10.54-6.16,17a81.3,81.3,0,0,1,1,10.86,8.64,8.64,0,0,0,3.56,6.8c7.62,5.84,11.35,14.75,16,22.69,3.57,6,6.81,11.83,12.48,16.05,2,1.46,2.6,2.75.65,5-.81,1-.65,3.24,0,4.54,5.19,11,10.54,21.72,15.88,32.57A24.77,24.77,0,0,0,344.86,398.49Z"/><path class="cls-1" d="M292.35,345.17c-6.48,3.24-13.12,6.16-19.77,9.24a5.08,5.08,0,0,1-3.08.16c-3.89-1-7.61-1.95-11.5-2.92-1.95-.49-2.6-1.46-2.92-3.57-1.62-9.07,1-17.66,2.92-26.25,2.91-13.61,6-27.22,8.91-40.84.65-3.08,1.95-4.54,5.35-4.54,3.56-.16,7.13-1,11.34-1.45-3.72,10,.81,18.8,2.43,27.87.65,3.24,3.08,6,4.38,9.24a16.55,16.55,0,0,1,1.62,6c.16,7.95-.33,16,1.78,24C294.3,342.9,293.33,344.68,292.35,345.17Z"/><path class="cls-1" d="M253.62,484.54a6.14,6.14,0,0,1-1.78-.81c-4.7-3.89-10.21-4.7-16.05-4.05-10.21,1-19.93-1.46-29.81-3.73-1.79-.49-2.27-1.3-2.27-3.08-.17-9.88,1.45-19.28,6.48-27.71,4.54-7.78,10.21-14.59,19.77-17.5,5.51,7.45,11.34,14.58,16.53,22.36,1.62,2.59,1.62,6.32,2.11,9.56.48,4.05,1.29,8.1,4.37,11.19C257.35,475,255.24,479.68,253.62,484.54Z"/><path class="cls-1" d="M267.56,433.17c-4.05,1.29-6.64,3.56-7.61,7.61-.65,3.24-2.76,4.7-5.84,5.68-6.8,2.26-6.64,2.43-10.86-3.41-3.88-5.18-7.61-10.37-11.5-15.39a6.17,6.17,0,0,0-2.11-2c-3.08-1.94-6.32-3.73-9.56-5.67-3.4-2.11-7-4.21-10.37-6.32-.81-.49-1.78-1.14-2-1.78-.64-2.6-1-5.35-1.46-8.11,2.76-.32,2.76-2.75,2.6-5.51-.16-2.1,0-4.21,0-6.32,5.51,0,6.16.33,5.35,5-.82,4.05,1,5.18,4.21,6.8,8.1,4.38,16.69,4.06,25.28,3.25a2.86,2.86,0,0,0,1.62-.33c3.73-2.59,6.48-.81,9.08,1.95,5.34,5.51,10.85,10.53,15.88,16.36C273.23,428.63,271.94,431.87,267.56,433.17Z"/><path class="cls-1" d="M347,401.08c-5.35,12.64-10.21,24.63-15.56,37.27-6.8-3.24-13.45-6-19.44-9.56-2.27-1.3-3.41-4.54-4.86-7-4.22-7.29-9.89-12-18.64-12.31-.49,0-.81-.17-1.3-.17-.16,0-.16-.16-.65-.48l2-3.41c2.75-4.21,5.83-8.26,6.32-13.45.16-1.62,1.13-2.43,2.92-1.62,2.43,1.14,5,1.3,6.15,4.7.49,1.62,3.89,2.76,6.16,3.08a98,98,0,0,0,13.78.81c4.53.16,9.07-.16,13.45.16C340.49,399.3,343.41,400.27,347,401.08Z"/><path class="cls-1" d="M293.82,377.74a83.63,83.63,0,0,1,.64,9.08c-14.91-4.7-29.82-3.08-44.73-4.54.33-.65.65-1.95,1.3-3.08,1.13-2.43,2.59-4.7,3.57-7.13,1.94-4.54,3.89-9.08,1.29-14.1-.65-1.3-.32-3.24-.65-5.51,5,1.3,9.24,2.43,13.62,3.4a9.43,9.43,0,0,0,5.18-.48c6.16-2.59,12.32-5.51,18.48-8.43a17.87,17.87,0,0,1,2.27-.81c1,6,2.43,11.67-.49,17.34C291.87,368.18,293.17,372.88,293.82,377.74Z"/><path class="cls-1" d="M262.05,295.42c-2.75,12.8-5.51,25.76-8.1,38.57-.49,2.43-1.46,2.75-3.73,2.27-5.35-1.3-10.86-2.44-16.37-3.57-2.43-.49-3.56-1.78-5-3.73-2.76-4-2.43-7.61,0-11.5a28.94,28.94,0,0,0,2.59-6.49,11.37,11.37,0,0,0-3.24-12.48,19,19,0,0,1,9.08-6.32c6.8-2.43,13.45-1.94,20.25-2.1A4.42,4.42,0,0,1,262.05,295.42Z"/><path class="cls-1" d="M291.7,397.68C286,407.4,279.55,416.8,273.07,427c-6.81-10.7-16.69-17.34-25-25.61-.48-.48-1.13-1-1.13-1.45a92.16,92.16,0,0,1,1.45-13.29c.33-1.3,3.41-2.76,5.19-2.76,10.86.33,21.88,1.14,32.74,1.94a8.21,8.21,0,0,1,1.94.33C294.14,388.11,295.43,391.36,291.7,397.68Z"/><path class="cls-1" d="M248.92,403.51a7.07,7.07,0,0,0-.65,1.13c-2.59.49-5.19,1.14-7.94,1.63-7.94,1-15.4,0-22.69-3.9-1.94-1.13-2.59-2.1-2.27-4.21a24.81,24.81,0,0,1,.49-3.24c.49-2.59-.81-3.73-3.24-3.89-2-.16-4.22-.16-4.38-3.08-.16-3.08,1.46-4.86,3.89-6,1.78-.81,3.89-.81,5.51-1.79a5.44,5.44,0,0,0,2.59-3.4c.65-4.21,1.14-8.75-2.27-13.29,13,0,23.18,5.19,33.39,10.7-1.62,4.05-3.24,7.78-4.54,11.66A52.25,52.25,0,0,0,245,395.89C245.19,398.81,244.54,402.05,248.92,403.51Z"/><path class="cls-1" d="M255.57,361.7c0,3.73-1.3,7.29-2.11,11.67a57.48,57.48,0,0,0-8.1-3.89c-6.81-2.6-13.61-5-20.42-7.46a4.51,4.51,0,0,0-2.92-.16c-3.56,1.13-4.7-.32-5-3.73-.32-3.89-1.3-7.61-1.95-11.34-.81-4.86,1.95-8.43,6.49-10.37,8.26-3.73,16.36-1.46,24.31.48,7.61,1.79,7.45,1.79,7.78,9.73C254,351.65,255.41,356.67,255.57,361.7Z"/></g></g></svg>