<svg width="487" height="579" viewBox="0 0 487 579" fill="none" xmlns="http://www.w3.org/2000/svg">
<path d="M392.832 96.0827C392.832 100.296 390.563 102.889 387.16 104.996C382.785 107.751 378.571 110.668 374.52 113.909C366.903 120.068 358.152 122.174 348.59 120.878C343.89 120.23 339.515 117.637 334.815 116.664C329.467 115.53 326.712 112.289 325.091 107.427C323.957 103.7 322.174 100.296 320.554 96.731C316.34 87.0074 309.372 85.3868 300.458 89.6004C294.948 92.1933 289.438 94.7863 284.09 97.8654C276.798 102.079 268.857 103.375 260.916 104.996C259.781 105.158 258.809 105.644 257.188 105.968C258.161 107.103 258.647 107.913 259.295 108.561C269.019 118.447 275.177 130.439 278.256 144.052C281.335 157.827 285.225 171.278 291.707 183.757C293.328 186.836 293.328 189.429 290.573 192.022C288.142 194.453 286.035 197.37 283.28 200.611C285.873 201.421 287.494 202.07 289.276 202.394C294.462 203.528 297.379 206.931 299.486 211.631C300.782 214.386 302.079 217.465 304.348 219.248C309.048 223.137 308.885 227.999 308.399 233.023C308.075 236.264 306.617 239.343 305.32 242.423C303.538 246.312 301.107 249.553 296.893 251.336C291.707 253.605 289.276 258.142 287.656 263.328C286.845 265.921 286.197 268.514 285.225 270.945C284.739 272.079 283.28 273.214 282.146 273.376C278.094 274.186 274.043 274.672 269.991 275.159C268.046 275.321 266.912 276.293 266.426 278.238C265.778 281.317 264.805 284.396 263.833 287.475C263.347 289.258 262.536 290.23 260.754 288.934C260.592 288.934 260.592 288.772 260.43 288.772C254.596 290.068 248.599 285.854 242.765 289.258C241.793 289.744 240.82 290.23 239.848 290.392C235.148 290.878 230.773 292.175 228.666 296.064C214.243 289.582 199.981 284.558 184.424 283.586C182.155 283.424 179.886 281.479 177.941 279.858C175.186 277.427 172.593 274.672 169.514 271.431C169.028 274.024 169.028 275.969 168.218 277.751C167.245 280.344 166.273 282.937 164.49 284.882C162.708 287.151 159.791 286.503 158.98 283.586C158.17 281.155 156.874 280.831 154.605 280.831C139.695 280.669 124.786 281.317 110.363 285.368C108.742 285.854 106.473 285.692 104.853 284.882C91.0775 278.886 77.4645 272.566 63.8515 266.407C61.5826 265.435 60.4482 264.301 61.5826 261.87C62.555 259.601 63.2032 257.17 64.0135 254.901C66.7685 247.933 65.7962 241.126 62.717 234.644C60.7723 230.592 58.5035 227.027 60.2861 222.327C60.6103 221.355 59.4758 219.248 58.3414 218.438C53.1555 214.872 48.2937 210.497 41.4872 210.173C40.839 210.173 40.1908 209.686 39.5425 209.362C39.5425 208.876 39.5425 208.552 39.7046 208.39C45.3767 201.097 43.432 193.643 40.1908 186.35C35.6531 175.816 30.6292 165.444 26.4157 154.748C23.4986 147.456 21.3919 139.839 19.123 132.222C18.4748 129.953 18.6368 127.522 17.8265 125.253C17.3404 123.957 16.0439 122.336 14.7474 121.85C12.4786 121.04 9.88563 120.716 7.45474 120.392C5.83414 120.23 4.69973 119.743 5.51002 117.799C6.15826 116.016 5.34796 115.044 3.72737 114.233C2.91707 113.909 1.94471 113.099 1.78265 112.289C0.972357 108.561 0.486179 104.672 0 100.945C0 100.458 0.486179 99.8101 0.810298 99.3239C2.75501 96.731 5.34796 94.3001 6.64444 91.383C7.77886 88.9521 8.10298 85.873 7.94092 83.118C7.77886 80.6871 8.26504 79.0665 10.2098 77.77C11.8303 76.7977 13.4509 75.6632 14.7474 74.2047C17.1783 71.2876 19.7713 69.3429 23.8228 69.8291C24.633 69.9912 26.0916 69.3429 26.5778 68.5326C28.0363 66.2638 29.6569 66.75 31.2775 67.8844C34.3566 70.1532 37.5978 72.4221 40.5149 74.8529C41.9734 76.1494 43.432 76.3115 45.2146 75.5012C48.6179 74.0426 52.0211 72.9082 55.2623 71.2876C60.2862 69.0188 65.1479 68.3706 70.3338 70.8015C70.9821 71.1256 72.2786 70.8015 73.0889 70.3153C79.5712 66.5879 86.5398 66.75 93.6704 66.5879C97.884 66.4259 101.935 65.7776 106.149 65.4535C110.2 65.1294 112.955 62.8605 115.873 60.2676C117.331 58.9711 117.493 57.9988 116.521 56.3782C114.252 52.3267 111.983 48.2752 109.552 43.8996C112.631 42.6031 114.576 42.7652 116.521 44.3858C118.628 46.1684 120.896 47.9511 123.165 49.4096C124.624 50.382 125.11 51.5164 124.3 53.137C123.651 54.7576 123.165 56.3782 122.679 57.9988C122.031 59.7814 122.679 61.0779 124.624 61.0779C133.537 61.7261 142.612 62.3744 151.364 59.7814C152.498 59.4573 153.957 59.4573 154.929 59.9435C170.325 66.2638 185.72 72.5841 199.333 82.1456C201.926 83.9283 204.195 86.3592 206.302 88.7901C208.084 91.0589 210.191 92.5174 213.108 92.3554C217.97 92.0313 222.022 94.138 226.235 95.9207C228.666 96.893 231.583 97.5413 234.176 97.7033C239.362 98.0275 244.548 98.0275 249.572 97.7033C251.516 97.7033 253.623 97.0551 255.082 95.9207C259.133 92.8416 263.023 89.4383 266.75 85.873C270.801 82.1456 272.908 77.1218 274.043 71.9359C276.149 62.5364 281.173 55.2437 289.438 50.382C294.462 47.4649 299.648 44.5478 304.834 41.7928C308.561 39.8481 310.506 36.6069 311.316 32.7175C312.289 27.3695 312.937 21.8595 313.909 16.5115C314.882 11.3256 316.826 6.62589 320.716 3.06058C324.443 -0.342674 329.953 -1.31503 333.843 2.25028C339.029 6.95 345.025 9.70502 351.183 12.6221C358.476 16.0253 360.907 23.156 362.365 30.4486C363.337 34.9863 362.851 39.8481 363.175 44.5478C363.337 45.8443 364.148 47.6269 365.282 48.4372C369.172 51.3543 373.385 54.1093 374.358 59.1332C375.168 62.6985 375.33 66.5879 375.33 70.3153C375.33 73.5565 376.302 75.1771 379.381 76.1494C385.378 78.0941 388.943 83.28 392.508 87.9798C393.643 90.4107 392.832 93.6519 392.832 96.0827Z" fill="#FF978D"/>
<path d="M430.103 507.714C426.375 511.928 422.81 515.655 419.245 519.544C409.683 530.402 400.122 541.26 390.722 552.28C387.643 555.846 385.374 560.059 382.943 564.111C381.161 567.352 382.133 570.917 384.888 573.348C385.374 573.834 386.185 574.807 386.023 575.293C385.861 575.941 384.726 576.427 384.078 576.589C375.651 578.696 366.9 579.182 358.31 578.534C355.555 578.372 352.638 576.751 350.045 575.293C346.966 573.348 344.049 570.755 341.294 568.324C337.729 565.407 333.353 564.435 329.14 562.976C324.602 561.518 320.064 558.925 316.661 555.684C310.989 550.498 306.127 544.502 301.103 538.667C299.483 536.885 298.348 536.885 296.242 537.857C292.19 539.802 287.815 541.098 283.115 542.719C281.494 537.533 280.198 533.319 278.901 529.106C278.253 527.161 277.605 525.216 277.119 523.272C276.47 520.355 275.174 518.572 272.095 517.924C271.284 517.762 269.826 516.141 269.988 515.331C270.798 510.631 268.043 507.39 265.288 504.149C263.019 501.394 260.751 498.801 261.399 494.749C261.561 493.939 260.751 492.805 260.102 491.994C259.13 490.536 257.996 489.077 256.375 486.97C258.482 486.97 260.102 486.808 261.399 486.97C268.529 488.267 274.85 485.512 281.332 483.405C282.467 483.081 283.601 482.109 284.411 481.298C288.139 476.761 291.542 472.061 295.431 467.523C296.404 466.389 297.7 465.254 299.159 464.93C309.855 462.499 320.713 460.069 331.571 457.962C334.326 457.476 335.946 456.179 336.757 453.586C337.729 450.183 339.187 446.78 340.646 443.052C345.832 444.997 350.694 446.78 355.555 448.562C357.824 449.373 360.093 450.345 362.524 451.155C365.441 452.128 367.548 453.262 367.548 456.827C367.548 457.8 369.33 458.772 370.303 459.582C369.817 462.986 369.006 466.551 368.844 470.116C368.844 471.575 369.655 473.519 370.789 474.33C375.327 478.057 380.026 481.622 384.888 484.864C386.347 485.836 388.454 486.16 390.236 486.808C392.667 487.619 395.098 488.105 397.205 489.401C401.256 491.994 404.984 495.235 409.035 497.666C413.573 500.421 418.435 502.528 423.296 504.797C425.079 506.093 427.186 506.742 430.103 507.714Z" fill="#FF978D"/>
<path d="M225.913 320.859C224.779 322.966 224.779 324.587 226.076 326.856C229.803 332.69 229.641 332.852 223.158 334.635C222.672 334.797 222.186 334.959 221.538 335.121C215.542 336.741 212.949 339.658 213.597 345.817C214.407 352.785 215.866 359.754 218.135 366.398C219.431 370.288 219.107 373.691 218.459 377.418C218.297 378.229 216.676 379.039 215.542 379.363C212.301 380.173 209.383 381.308 207.277 384.387C206.628 385.359 205.008 385.845 203.711 386.169C197.553 388.276 190.909 389.411 185.237 392.49C178.754 395.893 172.11 397.514 164.979 397.676C163.683 397.676 162.224 398.648 160.928 399.458C156.39 402.7 152.014 406.265 147.477 409.506C143.911 412.099 140.022 411.613 136.295 409.668C134.998 409.02 133.864 407.399 133.54 406.103C131.433 396.379 127.705 386.98 127.705 376.932C127.705 373.367 131.271 365.426 134.674 364.453C141.805 362.509 143.749 358.133 142.939 351.165C142.453 346.465 143.101 341.603 143.263 336.741C143.425 334.635 142.615 333.5 140.508 332.69C134.188 330.259 127.867 329.449 121.547 332.852C120.737 333.176 119.927 333.338 118.63 333.824C117.982 329.449 117.334 325.235 116.847 321.022C115.551 310.488 106.638 299.792 96.4279 296.875C89.4594 294.93 82.4908 292.823 75.3602 291.041C73.2534 290.554 70.9846 290.554 68.7157 290.554C66.9331 290.554 65.3125 290.716 63.5298 290.716C57.3716 290.554 53.6442 285.206 56.5613 279.696C58.1819 276.779 58.8301 274.024 58.8301 270.783C58.8301 269.811 59.3163 269 59.6404 267.542C63.6919 269.325 67.5813 271.107 71.4708 272.728C81.8426 277.427 92.3764 282.289 102.748 286.827C104.855 287.799 107.448 287.637 109.717 287.637C111.499 287.637 113.282 286.989 115.065 286.503C127.543 282.451 140.508 283.262 153.311 283.262C154.283 283.262 155.742 283.748 156.228 284.396C157.524 286.665 159.145 288.934 161.576 287.799C163.845 286.827 166.114 284.72 167.41 282.451C168.706 280.507 168.706 277.752 169.355 274.835C171.299 276.779 173.082 278.4 174.703 280.183C178.106 284.072 182.319 285.693 187.505 286.179C194.474 286.827 201.442 289.096 208.411 290.716C211.328 291.365 214.083 292.823 217 293.309C223.321 294.444 226.886 298.981 229.155 304.167C230.289 306.76 229.155 310.488 228.344 313.405C228.669 315.836 227.372 318.429 225.913 320.859Z" fill="#FF978D"/>
<path d="M481.96 319.725C477.585 325.883 476.126 332.204 480.178 339.982C477.747 339.496 476.45 339.01 475.154 339.01C473.533 339.01 470.778 339.01 470.454 339.658C469.806 341.279 470.13 343.386 470.778 345.168C471.426 347.275 472.723 349.22 473.695 351.165C471.589 353.595 469.32 354.082 466.403 353.109C447.766 347.437 428.643 345.979 409.358 344.034C398.986 342.9 388.452 341.927 378.08 341.117C375.811 340.955 374.677 340.145 375.001 337.714C375.325 335.283 374.029 334.148 371.922 333.176C367.06 330.745 362.522 328.152 357.823 325.559C357.337 325.235 356.85 324.911 356.688 324.587C353.285 318.915 350.044 313.081 346.641 307.408C349.558 305.626 350.692 303.033 349.396 299.954C347.937 296.713 349.72 294.93 351.827 293.309C352.961 292.499 354.095 291.689 355.392 291.203C360.416 289.096 363.981 286.179 365.277 280.507C365.926 277.427 368.519 274.835 371.922 273.538C375.001 272.404 378.242 271.269 380.997 269.649C383.59 268.028 385.859 265.921 387.642 263.49C388.29 262.518 387.48 260.087 386.993 258.466C386.345 256.198 385.373 253.929 384.563 251.822C386.669 251.66 388.938 251.66 391.045 251.174C392.828 250.85 394.61 250.526 396.231 249.715C403.199 246.15 409.682 241.612 417.461 239.83C427.184 237.561 436.746 236.102 446.307 240.316C447.28 240.802 448.576 242.423 448.414 243.233C447.766 246.798 446.955 250.526 445.497 253.929C444.2 256.846 444.849 258.467 447.442 259.925C451.655 262.194 455.707 264.625 459.92 266.732C461.865 267.704 462.999 269 462.675 271.107C461.865 275.807 464.134 279.21 467.051 282.613C468.833 284.72 469.806 287.637 470.292 290.392C470.94 293.795 470.94 297.199 470.778 300.602C470.292 307.408 473.857 311.136 479.529 313.567C484.391 315.187 484.715 315.836 481.96 319.725Z" fill="#FF978D"/>
<path d="M481.154 445.483C478.723 450.183 474.347 451.317 469.648 450.345C464.624 449.372 459.762 447.59 454.9 445.969C450.524 444.673 450.362 444.511 448.58 448.886C443.07 462.499 436.749 475.95 433.346 490.536C432.374 494.911 431.564 499.287 430.591 503.662C430.429 504.311 430.105 505.121 429.943 505.769C418.437 503.5 409.523 497.342 400.772 490.698C397.045 487.781 393.155 485.188 388.132 485.35C387.159 485.35 386.025 484.539 385.052 483.891C380.677 480.812 376.301 477.733 372.25 474.33C371.115 473.357 370.143 471.25 370.143 469.792C370.305 466.227 371.115 462.661 371.764 458.61C369.171 458.124 367.712 456.179 367.712 452.938C367.712 452.127 365.929 451.155 364.957 450.831C357.664 447.914 350.372 445.321 343.079 442.404C339.838 441.107 336.759 439.649 333.355 438.19C333.842 436.732 334.49 435.273 334.976 433.815C339.028 424.253 343.079 414.692 346.968 404.968C347.941 402.537 349.399 400.917 351.992 400.106C354.747 399.296 357.34 398.162 359.933 397.027C360.257 397.351 360.581 397.513 360.581 397.675C359.933 402.375 362.85 404.32 366.578 406.103C373.06 409.02 379.218 412.261 385.539 415.502C387.645 416.636 388.78 416.15 389.914 414.206C393.642 407.885 397.369 401.727 401.258 395.245C402.231 398.162 403.041 400.917 404.013 403.51C406.282 409.182 409.848 409.182 414.709 407.885C422.164 406.103 429.133 406.103 436.263 409.344C439.666 410.964 443.88 411.451 447.607 411.775C449.228 411.937 451.335 410.478 452.469 409.182C456.359 404.806 459.924 400.106 463.975 395.083C473.213 400.268 482.774 406.751 485.367 418.581C487.474 427.981 485.529 437.218 481.154 445.483Z" fill="#FF978D"/>
<path d="M381.652 267.866C378.735 269.162 375.818 270.459 372.739 271.593C367.391 273.538 364.474 277.427 363.015 282.613C362.367 285.044 361.233 286.503 358.964 287.637C355.56 289.42 352.157 291.689 348.916 293.958C347.133 295.254 346.971 297.037 347.62 299.143C348.106 300.764 348.106 302.547 348.268 304.653C346.485 304.491 345.513 304.329 343.892 304.167C344.702 306.274 345.351 307.895 346.161 309.353C347.295 311.46 348.916 313.243 349.726 315.511C353.616 325.559 361.881 330.259 370.956 334.148C374.197 335.445 373.225 338.038 373.549 339.982C368.363 339.982 363.177 340.145 358.153 339.982C345.675 339.496 333.196 338.686 320.556 338.2C317.639 338.038 315.694 337.227 314.559 334.472C313.587 332.528 312.291 330.745 311.318 328.962C308.077 322.48 303.863 316.808 298.353 311.946C297.219 310.974 296.247 309.191 296.085 307.571C295.436 302.871 295.112 298.171 294.626 293.471C294.14 287.961 294.626 282.938 300.136 279.858C300.46 279.696 300.784 279.21 300.946 278.886C301.108 278.724 301.108 278.562 301.271 277.752C297.543 276.617 293.654 275.483 289.764 274.348C285.875 273.214 285.713 273.214 287.009 269.487C287.658 267.218 288.306 264.949 289.116 262.68C290.575 258.304 293.005 254.901 297.219 252.47C306.781 247.122 309.698 238.209 309.536 227.837C309.536 227.027 309.536 226.217 309.536 225.73C313.587 227.999 317.963 230.268 322.176 232.537C330.279 236.751 339.03 236.751 347.782 236.264C353.292 235.94 358.64 235.13 364.15 234.806C365.446 234.644 367.229 235.454 368.363 236.426C371.442 239.181 374.035 242.747 377.438 245.016C382.786 248.743 383.759 254.901 386.838 259.925C388.134 262.194 385.217 266.245 381.652 267.866Z" fill="#FF978D"/>
<path d="M207.439 400.917C207.439 401.403 206.466 402.375 205.818 402.375C198.687 403.51 194.312 408.695 189.774 413.557C186.209 417.447 183.13 421.66 179.726 425.55C179.078 426.36 177.62 426.684 176.647 427.17C175.999 427.494 175.189 427.818 174.541 428.467C173.73 429.277 172.92 430.249 172.434 431.384C170.327 435.921 166.762 438.514 161.9 439.163C159.793 439.487 157.686 438.839 155.742 438.839C154.769 438.839 153.635 438.676 153.149 439.163C152.663 439.649 152.825 440.945 153.149 441.756C153.473 442.89 154.283 444.024 154.769 445.159C156.39 448.4 156.066 449.696 152.825 451.803C150.88 453.1 149.097 454.234 147.152 455.369C145.046 456.503 144.073 457.962 144.722 460.392C145.856 465.092 144.722 468.982 140.346 471.737C139.049 472.547 137.915 473.519 136.943 474.816C134.026 478.867 130.46 478.867 126.409 476.598C125.437 475.95 124.14 475.788 123.168 475.302C120.251 473.519 117.82 474.005 115.713 476.922C113.93 479.353 108.258 479.353 105.665 477.247C104.531 476.274 103.396 475.302 102.424 474.167C99.9932 471.575 97.4002 469.792 93.5108 469.954C91.8902 470.116 89.9455 468.82 88.3249 467.847C86.3802 466.551 84.7596 464.93 82.6528 463.147C81.3563 464.282 80.384 465.416 78.9254 466.713C70.0121 448.4 61.2609 430.087 52.3477 411.45C63.5298 412.909 74.3877 412.585 83.4631 419.715C85.894 421.498 90.4316 420.85 93.997 420.85C101.614 420.85 109.231 420.04 116.685 420.526C121.223 420.85 123.978 418.905 126.571 415.988C127.867 414.692 128.84 413.071 129.974 411.612C131.433 409.506 133.053 409.182 135.484 410.478C140.022 412.909 144.722 413.719 149.259 410.154C151.69 408.209 154.445 406.751 156.714 404.482C161.09 400.106 166.438 398.81 172.272 398.324C175.837 397.999 179.564 396.703 182.644 394.92C190.26 391.031 198.363 389.086 207.439 386.817C207.601 391.841 207.601 396.379 207.439 400.917Z" fill="#FF978D"/>
<path d="M466.573 355.054C461.387 356.026 456.201 357.161 450.853 357.809C446.478 358.295 442.264 359.105 438.537 361.86C431.73 367.046 424.276 368.181 416.173 365.264C413.58 364.291 410.987 364.939 408.718 367.046C405.153 370.449 401.587 373.853 397.698 376.77C392.35 380.983 392.026 383.576 396.888 388.438C401.101 392.652 401.101 392.652 398.022 397.513C394.457 403.186 391.054 409.02 387.326 415.016C379.061 410.802 371.12 406.913 363.017 402.699C362.369 402.375 362.045 401.241 361.883 400.268C361.559 398.648 361.397 396.865 361.072 394.758C356.373 396.541 351.997 398.324 347.297 400.106C343.894 393.3 340.653 386.818 337.412 380.173C334.333 373.853 331.091 367.532 328.174 361.05C327.688 360.078 327.688 357.971 328.336 357.323C330.767 354.892 329.633 353.109 327.688 351.326C324.123 348.085 320.071 345.006 317.965 340.306C317.803 339.982 317.641 339.496 317.316 338.848C367.393 341.441 417.307 342.899 466.249 353.433C466.573 354.244 466.573 354.73 466.573 355.054Z" fill="#FF978D"/>
<path d="M281.009 542.395C275.985 541.26 273.23 543.367 270.637 546.446C268.854 548.715 266.423 548.067 264.154 547.581C263.506 547.419 262.858 546.932 262.21 546.608C257.186 543.529 255.403 542.881 252 548.715C250.865 550.498 247.948 551.632 245.517 552.28C233.525 555.197 222.343 550.498 210.999 547.905C210.351 547.743 209.702 547.094 209.216 546.446C208.082 544.664 207.271 542.395 205.975 540.774C202.248 536.561 198.196 532.671 194.631 528.458C193.658 527.485 193.01 525.541 193.334 524.244C196.413 509.172 199.655 494.101 202.734 479.029C203.22 477.085 204.192 476.599 205.975 477.247C217.157 480.812 228.663 481.298 240.332 480.812C246.49 480.488 250.865 484.215 254.917 487.943C257.834 490.698 260.589 493.939 259.941 498.801C259.779 500.259 261.723 502.204 263.02 503.825C265.937 507.552 269.178 510.955 268.368 516.303C268.206 517.113 270.151 518.896 271.447 519.22C274.04 520.03 275.174 521.489 275.823 524.082C276.957 528.782 278.578 533.319 280.036 537.857C280.198 538.991 280.36 540.288 281.009 542.395Z" fill="#FF978D"/>
<path d="M339.194 442.242C337.574 446.618 335.953 450.993 334.171 455.045C333.847 455.693 332.55 456.179 331.578 456.503C320.72 458.934 309.862 461.203 299.004 463.634C297.221 464.12 295.438 465.417 294.304 466.875C290.739 471.251 287.335 475.788 283.77 480.164C283.122 480.974 282.474 481.785 281.663 482.109C273.236 485.35 264.809 487.457 254.924 485.188C259.137 477.895 256.382 472.223 251.844 466.389C250.062 464.12 250.224 460.393 249.738 457.152C248.765 450.021 248.765 449.859 255.572 447.59C258.651 446.618 260.434 444.673 261.244 441.756C262.216 438.029 264.323 435.76 268.05 434.625C269.995 433.977 271.94 432.032 273.236 430.25C276.964 424.578 280.529 418.743 284.094 412.747C285.067 411.127 286.201 410.965 287.984 410.965C296.573 411.289 302.731 415.664 306.134 423.119C309.862 431.222 317.478 433.815 324.609 436.894C329.147 438.839 333.846 440.297 339.194 442.242Z" fill="#FF978D"/>
<path d="M227.21 427.17C219.431 429.601 214.731 435.273 210.842 441.27C206.628 447.59 203.387 454.396 202.901 462.337C202.739 465.903 202.577 469.468 202.09 472.871C201.928 473.844 200.632 475.302 199.659 475.464C185.722 478.543 171.623 481.622 157.524 484.377C149.259 485.998 141.804 482.757 133.863 479.191C137.429 475.95 140.508 473.033 143.749 470.116C145.694 468.496 146.504 466.713 146.018 464.282C145.045 459.744 146.018 456.341 150.717 454.558C151.852 454.072 152.986 453.262 153.959 452.452C157.038 450.345 157.524 448.076 155.903 444.835C155.093 443.376 154.445 441.756 153.472 439.811C154.607 439.811 155.255 439.811 155.903 439.973C162.71 441.594 168.22 439.325 172.271 433.815C173.73 431.708 174.378 428.305 178.268 428.629C179.078 428.629 179.888 427.008 180.698 426.198C186.533 419.878 192.043 413.395 198.039 407.399C199.335 406.103 202.09 404.482 203.387 405.13C205.818 406.103 207.114 408.858 206.304 411.937C206.142 412.747 206.79 414.368 207.276 414.53C215.217 416.636 220.241 422.795 227.21 427.17Z" fill="#FF978D"/>
<path d="M344.864 398.486C342.433 398.162 340.975 397.676 339.354 397.676C333.196 397.514 326.875 397.514 320.717 397.352C316.666 397.19 312.614 396.865 308.563 396.379C307.266 396.217 305.322 395.245 305.16 394.435C304.511 390.545 301.432 390.059 298.677 389.087C296.408 388.438 295.76 387.142 295.76 384.873C295.76 381.47 295.274 378.067 294.788 374.663C294.302 371.26 293.491 367.857 295.274 364.616C298.353 358.781 297.543 352.623 296.408 346.789C294.464 336.417 292.843 326.207 293.491 315.512C293.491 314.539 293.329 313.567 292.843 312.757C287.495 305.14 286.361 296.064 284.254 287.475C283.119 282.938 284.092 278.886 285.55 274.51C290.088 275.807 294.626 277.103 299.812 278.724C292.519 282.938 292.843 289.258 293.653 295.74C294.139 299.306 294.626 303.033 294.626 306.598C294.788 309.515 295.922 311.622 298.191 313.405C305.808 319.239 309.535 328.152 314.235 336.093C317.8 342.089 321.041 347.923 326.713 352.137C328.658 353.596 329.306 354.892 327.362 357.161C326.551 358.133 326.713 360.402 327.362 361.699C332.548 372.719 337.896 383.415 343.243 394.272C343.568 395.569 344.054 396.703 344.864 398.486Z" fill="#FF978D"/>
<path d="M292.354 345.168C285.871 348.409 279.227 351.326 272.582 354.406C271.61 354.73 270.476 354.892 269.503 354.568C265.614 353.595 261.886 352.623 257.997 351.65C256.052 351.164 255.404 350.192 255.08 348.085C253.459 339.01 256.052 330.421 257.997 321.832C260.914 308.219 263.993 294.606 266.91 280.993C267.558 277.913 268.855 276.455 272.258 276.455C275.823 276.293 279.389 275.483 283.602 274.996C279.875 285.044 284.413 293.795 286.033 302.871C286.681 306.112 289.112 308.867 290.409 312.108C291.219 314.053 292.029 316.159 292.029 318.104C292.192 326.045 291.705 334.148 293.812 342.089C294.298 342.899 293.326 344.682 292.354 345.168Z" fill="#FF978D"/>
<path d="M253.621 484.54C252.81 484.216 252.162 484.053 251.838 483.729C247.138 479.84 241.628 479.03 235.794 479.678C225.584 480.65 215.861 478.219 205.975 475.951C204.192 475.464 203.706 474.654 203.706 472.871C203.544 462.986 205.165 453.586 210.189 445.159C214.726 437.38 220.398 430.574 229.96 427.657C235.47 435.111 241.304 442.242 246.49 450.021C248.111 452.614 248.111 456.341 248.597 459.582C249.083 463.634 249.893 467.685 252.972 470.765C257.348 474.978 255.241 479.678 253.621 484.54Z" fill="#FF978D"/>
<path d="M267.563 433.167C263.512 434.463 260.919 436.732 259.946 440.784C259.298 444.025 257.191 445.483 254.112 446.456C247.306 448.724 247.468 448.887 243.254 443.052C239.365 437.866 235.637 432.681 231.748 427.657C231.262 426.846 230.452 426.198 229.641 425.712C226.562 423.767 223.321 421.985 220.08 420.04C216.676 417.933 213.111 415.826 209.708 413.72C208.898 413.233 207.925 412.585 207.763 411.937C207.115 409.344 206.791 406.589 206.305 403.834C209.06 403.51 209.06 401.079 208.898 398.324C208.736 396.217 208.898 394.11 208.898 392.004C214.408 392.004 215.056 392.328 214.246 397.027C213.435 401.079 215.218 402.213 218.459 403.834C226.562 408.21 235.151 407.886 243.74 407.075C244.227 407.075 244.875 407.075 245.361 406.751C249.088 404.158 251.843 405.941 254.436 408.696C259.784 414.206 265.294 419.23 270.318 425.064C273.235 428.629 271.939 431.87 267.563 433.167Z" fill="#FF978D"/>
<path d="M346.972 401.079C341.624 413.719 336.762 425.712 331.414 438.352C324.607 435.111 317.963 432.356 311.967 428.791C309.698 427.494 308.564 424.253 307.105 421.822C302.891 414.53 297.219 409.83 288.468 409.506C287.982 409.506 287.658 409.344 287.172 409.344C287.01 409.344 287.01 409.182 286.523 408.858C287.172 407.723 287.82 406.589 288.468 405.454C291.223 401.241 294.302 397.189 294.788 392.003C294.951 390.383 295.923 389.573 297.706 390.383C300.136 391.517 302.729 391.679 303.864 395.083C304.35 396.703 307.753 397.838 310.022 398.162C314.56 398.81 319.259 398.972 323.797 398.972C328.335 399.134 332.872 398.81 337.248 399.134C340.489 399.296 343.406 400.268 346.972 401.079Z" fill="#FF978D"/>
<path d="M293.815 377.742C294.301 380.659 294.301 383.739 294.463 386.818C279.553 382.118 264.644 383.739 249.734 382.28C250.058 381.632 250.383 380.335 251.031 379.201C252.165 376.77 253.624 374.501 254.596 372.07C256.541 367.533 258.486 362.995 255.893 357.971C255.244 356.675 255.569 354.73 255.244 352.461C260.268 353.758 264.482 354.892 268.857 355.864C270.478 356.188 272.423 356.026 274.043 355.378C280.202 352.785 286.36 349.868 292.518 346.951C293.166 346.627 293.815 346.465 294.787 346.141C295.759 352.137 297.218 357.809 294.301 363.481C291.87 368.181 293.166 372.881 293.815 377.742Z" fill="#FF978D"/>
<path d="M262.052 295.416C259.297 308.219 256.542 321.184 253.949 333.986C253.462 336.417 252.49 336.741 250.221 336.255C244.873 334.959 239.363 333.824 233.853 332.69C231.422 332.204 230.288 330.907 228.829 328.962C226.074 324.911 226.399 321.346 228.829 317.456C229.964 315.511 230.774 313.243 231.422 310.974C232.881 306.274 231.909 301.898 228.181 298.495C230.774 295.416 233.367 293.471 237.257 292.175C244.063 289.744 250.707 290.23 257.514 290.068C260.431 290.068 262.7 292.499 262.052 295.416Z" fill="#FF978D"/>
<path d="M291.705 397.676C286.033 407.399 279.551 416.799 273.068 427.009C266.262 416.313 256.376 409.668 248.111 401.403C247.625 400.917 246.977 400.431 246.977 399.945C247.301 395.569 247.463 391.031 248.435 386.656C248.759 385.359 251.838 383.901 253.621 383.901C264.479 384.225 275.499 385.035 286.357 385.845C287.005 385.845 287.654 386.008 288.302 386.17C294.136 388.114 295.432 391.355 291.705 397.676Z" fill="#FF978D"/>
<path d="M248.919 403.51C248.756 403.834 248.432 404.158 248.27 404.644C245.677 405.131 243.084 405.779 240.329 406.265C232.388 407.237 224.934 406.265 217.641 402.375C215.696 401.241 215.048 400.269 215.372 398.162C215.534 397.19 215.534 396.055 215.858 394.921C216.345 392.328 215.048 391.193 212.617 391.031C210.672 390.869 208.404 390.869 208.242 387.952C208.08 384.873 209.7 383.09 212.131 381.956C213.914 381.146 216.02 381.146 217.641 380.173C218.775 379.525 220.072 378.067 220.234 376.77C220.882 372.557 221.368 368.019 217.965 363.481C230.93 363.481 241.14 368.667 251.349 374.177C249.729 378.229 248.108 381.956 246.812 385.845C245.839 389.087 245.353 392.49 245.029 395.893C245.191 398.81 244.543 402.051 248.919 403.51Z" fill="#FF978D"/>
<path d="M255.57 361.698C255.57 365.426 254.273 368.991 253.463 373.366C250.06 371.584 247.791 370.287 245.36 369.477C238.554 366.884 231.747 364.453 224.941 362.022C224.13 361.698 222.996 361.536 222.023 361.86C218.458 362.995 217.324 361.536 217 358.133C216.676 354.243 215.703 350.516 215.055 346.789C214.245 341.927 217 338.362 221.537 336.417C229.802 332.69 237.905 334.958 245.846 336.903C253.463 338.686 253.301 338.686 253.625 346.627C253.949 351.65 255.408 356.674 255.57 361.698Z" fill="#FF978D"/>
</svg>
