<svg xmlns="http://www.w3.org/2000/svg" viewBox="0 0 94.45 94.45"><defs><style>.cls-1{fill:none;stroke:#000;stroke-linecap:round;stroke-miterlimit:10;stroke-width:3px;}</style></defs><g id="Laag_2" data-name="Laag 2"><g id="Laag_1-2" data-name="Laag 1"><path d="M21.64,52.68a1.82,1.82,0,1,0-1.82-1.82A1.82,1.82,0,0,0,21.64,52.68Z"/><path d="M19.69,53.08a2.35,2.35,0,0,0-2.33,2.37V61A.8.8,0,1,0,19,61V55.93h.38v14a1.06,1.06,0,1,0,2.12,0V61.8h.36v8.13a1.07,1.07,0,1,0,2.13,0v-14h.37V61a.79.79,0,1,0,1.58,0V55.48a2.37,2.37,0,0,0-2.35-2.39Z"/><path d="M34.44,52.68a1.82,1.82,0,1,0-1.82-1.82A1.82,1.82,0,0,0,34.44,52.68Z"/><path d="M32.49,53.08a2.35,2.35,0,0,0-2.33,2.37V61a.8.8,0,1,0,1.59,0V55.93h.38v14a1.06,1.06,0,1,0,2.12,0V61.8h.36v8.13a1.07,1.07,0,1,0,2.13,0v-14h.37V61a.79.79,0,1,0,1.58,0V55.48a2.37,2.37,0,0,0-2.35-2.39Z"/><path d="M47.24,52.68a1.82,1.82,0,1,0-1.83-1.82A1.82,1.82,0,0,0,47.24,52.68Z"/><path d="M45.29,53.08A2.35,2.35,0,0,0,43,55.45V61a.8.8,0,1,0,1.59,0V55.93h.38v14a1.06,1.06,0,1,0,2.12,0V61.8h.36v8.13a1.07,1.07,0,1,0,2.13,0v-14h.37V61a.79.79,0,1,0,1.58,0V55.48a2.37,2.37,0,0,0-2.36-2.39Z"/><path d="M60,52.68a1.82,1.82,0,1,0-1.82-1.82A1.82,1.82,0,0,0,60,52.68Z"/><path d="M58.08,53.08a2.34,2.34,0,0,0-2.32,2.37V61a.8.8,0,1,0,1.59,0V55.93h.38v14a1.06,1.06,0,1,0,2.11,0V61.8h.37v8.13a1.07,1.07,0,1,0,2.13,0v-14h.37V61a.79.79,0,1,0,1.58,0V55.48a2.37,2.37,0,0,0-2.36-2.39Z"/><path d="M72.83,52.68A1.82,1.82,0,1,0,71,50.86,1.82,1.82,0,0,0,72.83,52.68Z"/><path d="M70.88,53.08a2.34,2.34,0,0,0-2.32,2.37V61a.8.8,0,1,0,1.59,0V55.93h.37v14a1.06,1.06,0,1,0,2.12,0V61.8H73v8.13a1.07,1.07,0,1,0,2.13,0v-14h.37V61a.79.79,0,1,0,1.58,0V55.48a2.37,2.37,0,0,0-2.36-2.39Z"/><path d="M21.64,27.08a1.82,1.82,0,1,0-1.82-1.82A1.82,1.82,0,0,0,21.64,27.08Z"/><path d="M19.69,27.49a2.34,2.34,0,0,0-2.33,2.36v5.6a.8.8,0,1,0,1.59,0V30.33h.38v14a1.06,1.06,0,1,0,2.12,0V36.21h.36v8.13a1.07,1.07,0,1,0,2.13,0v-14h.37v5.12a.79.79,0,1,0,1.58,0V29.88a2.37,2.37,0,0,0-2.35-2.39Z"/><path d="M34.44,27.08a1.82,1.82,0,1,0-1.82-1.82A1.82,1.82,0,0,0,34.44,27.08Z"/><path d="M32.49,27.49a2.34,2.34,0,0,0-2.33,2.36v5.6a.8.8,0,1,0,1.59,0V30.33h.38v14a1.06,1.06,0,1,0,2.12,0V36.21h.36v8.13a1.07,1.07,0,1,0,2.13,0v-14h.37v5.12a.79.79,0,1,0,1.58,0V29.88a2.37,2.37,0,0,0-2.35-2.39Z"/><path d="M47.24,27.08a1.82,1.82,0,1,0-1.83-1.82A1.82,1.82,0,0,0,47.24,27.08Z"/><path d="M45.29,27.49A2.34,2.34,0,0,0,43,29.85v5.6a.8.8,0,1,0,1.59,0V30.33h.38v14a1.06,1.06,0,1,0,2.12,0V36.21h.36v8.13a1.07,1.07,0,1,0,2.13,0v-14h.37v5.12a.79.79,0,1,0,1.58,0V29.88a2.37,2.37,0,0,0-2.36-2.39Z"/><path d="M60,27.08a1.82,1.82,0,1,0-1.82-1.82A1.82,1.82,0,0,0,60,27.08Z"/><path d="M58.08,27.49a2.33,2.33,0,0,0-2.32,2.36v5.6a.8.8,0,1,0,1.59,0V30.33h.38v14a1.06,1.06,0,1,0,2.11,0V36.21h.37v8.13a1.07,1.07,0,1,0,2.13,0v-14h.37v5.12a.79.79,0,1,0,1.58,0V29.88a2.37,2.37,0,0,0-2.36-2.39Z"/><path d="M72.83,27.08A1.82,1.82,0,1,0,71,25.26,1.82,1.82,0,0,0,72.83,27.08Z"/><path d="M70.88,27.49a2.33,2.33,0,0,0-2.32,2.36v5.6a.8.8,0,1,0,1.59,0V30.33h.37v14a1.06,1.06,0,1,0,2.12,0V36.21H73v8.13a1.07,1.07,0,1,0,2.13,0v-14h.37v5.12a.79.79,0,1,0,1.58,0V29.88a2.37,2.37,0,0,0-2.36-2.39Z"/><circle class="cls-1" cx="47.22" cy="47.22" r="45.72"/><line class="cls-1" x1="79.56" y1="79.56" x2="14.9" y2="14.9"/></g></g></svg>