<svg xmlns="http://www.w3.org/2000/svg" viewBox="0 0 159.57 159.57"><defs><style>.cls-1{fill:#0371c1;}</style></defs><g id="Layer_2" data-name="Layer 2"><g id="Layer_1-2" data-name="Layer 1"><path class="cls-1" d="M34.19,89.51a3.27,3.27,0,1,0-3.27-3.26A3.34,3.34,0,0,0,34.19,89.51Z"/><path class="cls-1" d="M30.77,90.2a4.22,4.22,0,0,0-4.18,4.18v10a1.41,1.41,0,1,0,2.81,0V95.21h.69v24.93a1.9,1.9,0,1,0,3.8,0V105.62h.68v14.52a1.9,1.9,0,1,0,3.8,0V95.21h.68v9.12a1.41,1.41,0,1,0,2.81,0V94.45a4.22,4.22,0,0,0-4.17-4.25Z"/><path class="cls-1" d="M57,89.51a3.27,3.27,0,1,0-3.27-3.26A3.34,3.34,0,0,0,57,89.51Z"/><path class="cls-1" d="M53.57,90.2a4.22,4.22,0,0,0-4.18,4.18v10a1.41,1.41,0,1,0,2.81,0V95.21h.68v24.93a1.9,1.9,0,1,0,3.8,0V105.62h.69v14.52a1.9,1.9,0,1,0,3.8,0V95.21h.68v9.12a1.41,1.41,0,1,0,2.81,0V94.45a4.22,4.22,0,0,0-4.18-4.25Z"/><path class="cls-1" d="M79.78,89.51a3.27,3.27,0,1,0-3.26-3.26A3.33,3.33,0,0,0,79.78,89.51Z"/><path class="cls-1" d="M76.37,90.2a4.22,4.22,0,0,0-4.18,4.18v10a1.41,1.41,0,1,0,2.81,0V95.21h.69v24.93a1.9,1.9,0,1,0,3.79,0V105.62h.69v14.52a1.9,1.9,0,1,0,3.8,0V95.21h.68v9.12a1.41,1.41,0,1,0,2.81,0V94.45a4.22,4.22,0,0,0-4.18-4.25Z"/><path class="cls-1" d="M102.58,89.51a3.27,3.27,0,1,0-3.27-3.26A3.34,3.34,0,0,0,102.58,89.51Z"/><path class="cls-1" d="M99.16,90.2A4.22,4.22,0,0,0,95,94.38v10a1.41,1.41,0,1,0,2.81,0V95.21h.68v24.93a1.9,1.9,0,1,0,3.8,0V105.62H103v14.52a1.9,1.9,0,1,0,3.8,0V95.21h.68v9.12a1.41,1.41,0,1,0,2.81,0V94.45a4.22,4.22,0,0,0-4.18-4.25Z"/><path class="cls-1" d="M125.38,89.51a3.27,3.27,0,1,0-3.27-3.26A3.34,3.34,0,0,0,125.38,89.51Z"/><path class="cls-1" d="M122,90.2a4.22,4.22,0,0,0-4.18,4.18v10a1.41,1.41,0,1,0,2.82,0V95.21h.68v24.93a1.9,1.9,0,1,0,3.8,0V105.62h.68v14.52a1.9,1.9,0,1,0,3.8,0V95.21h.69v9.12a1.41,1.41,0,1,0,2.81,0V94.45a4.22,4.22,0,0,0-4.18-4.25Z"/><path class="cls-1" d="M34.19,43.92a3.27,3.27,0,1,0-3.27-3.27A3.34,3.34,0,0,0,34.19,43.92Z"/><path class="cls-1" d="M30.77,44.6a4.22,4.22,0,0,0-4.18,4.18v10a1.41,1.41,0,1,0,2.81,0V49.62h.69V74.54a1.9,1.9,0,1,0,3.8,0V60.18h.68V74.69a1.9,1.9,0,1,0,3.8,0v-25h.68v9.11a1.41,1.41,0,1,0,2.81,0V48.94a4.23,4.23,0,0,0-4.17-4.26Z"/><path class="cls-1" d="M57,43.92a3.27,3.27,0,1,0-3.27-3.27A3.34,3.34,0,0,0,57,43.92Z"/><path class="cls-1" d="M53.57,44.6a4.22,4.22,0,0,0-4.18,4.18v10a1.41,1.41,0,1,0,2.81,0V49.62h.68V74.54a1.9,1.9,0,1,0,3.8,0V60.18h.69V74.7a1.9,1.9,0,1,0,3.8,0v-25h.68v9.11a1.41,1.41,0,1,0,2.81,0V48.94a4.23,4.23,0,0,0-4.18-4.26Z"/><path class="cls-1" d="M79.78,43.92a3.27,3.27,0,1,0-3.26-3.27A3.34,3.34,0,0,0,79.78,43.92Z"/><path class="cls-1" d="M76.37,44.6a4.22,4.22,0,0,0-4.18,4.18v10a1.41,1.41,0,1,0,2.81,0V49.62h.69V74.54a1.9,1.9,0,1,0,3.79,0V60.18h.69V74.69a1.9,1.9,0,1,0,3.8,0v-25h.68v9.11a1.41,1.41,0,1,0,2.81,0V48.94a4.23,4.23,0,0,0-4.18-4.26Z"/><path class="cls-1" d="M102.58,43.92a3.27,3.27,0,1,0-3.27-3.27A3.34,3.34,0,0,0,102.58,43.92Z"/><path class="cls-1" d="M99.16,44.6A4.22,4.22,0,0,0,95,48.78v10a1.41,1.41,0,1,0,2.81,0V49.62h.68V74.54a1.9,1.9,0,1,0,3.8,0V60.18H103V74.7a1.9,1.9,0,1,0,3.8,0v-25h.68v9.11a1.41,1.41,0,1,0,2.81,0V48.94a4.23,4.23,0,0,0-4.18-4.26Z"/><path class="cls-1" d="M125.38,43.92a3.27,3.27,0,1,0-3.27-3.27A3.34,3.34,0,0,0,125.38,43.92Z"/><path class="cls-1" d="M122,44.6a4.22,4.22,0,0,0-4.18,4.18v10a1.41,1.41,0,1,0,2.82,0V49.62h.68V74.54a1.9,1.9,0,1,0,3.8,0V60.18h.68V74.7a1.9,1.9,0,1,0,3.8,0v-25h.69v9.11a1.41,1.41,0,1,0,2.81,0V48.94a4.23,4.23,0,0,0-4.18-4.26Z"/><path d="M136.17,23.4A79.67,79.67,0,0,0,28,19.15,76.16,76.16,0,0,0,19.07,28,79.68,79.68,0,0,0,23.4,136.17a79.67,79.67,0,0,0,108.21,4.25,76.16,76.16,0,0,0,8.89-8.89A79.68,79.68,0,0,0,136.17,23.4ZM79.79,148.17a68.34,68.34,0,0,1-52-112.76L52.89,60.49l3.8,3.79.68.69,41.18,41.18,3.8,3.8.69.69,21.27,21.27A69.15,69.15,0,0,1,79.79,148.17Zm52-24-6.08-6.08-.68-.68-3.8-3.8L106.61,99,98,90.42,83.51,75.91l-3.42-3.42-.68-.68L75.61,68,61.09,53.49l-8.66-8.66-17-17a68.34,68.34,0,0,1,96.35,96.35Z"/></g></g></svg>