<svg xmlns="http://www.w3.org/2000/svg" viewBox="0 0 1053 225.33"><defs><style>.cls-1{fill:#ffa039;}.cls-2{fill:#9d85e2;}.cls-3{fill:#f57887;}.cls-4{fill:#70b7cb;}.cls-5{fill:gray;}</style></defs><g id="Laag_2" data-name="Laag 2"><g id="Laag_1-2" data-name="Laag 1"><path class="cls-1" d="M1027.71,91.75H80.41v25h947.3Z"/><path class="cls-2" d="M1027.7,25.08h-698v25h698Z"/><path class="cls-3" d="M479.27,125.08H105.33v25H479.27Z"/><path class="cls-3" d="M1002.78,125.08H903.06v25h99.72Z"/><path class="cls-4" d="M1027.71,58.42H80.41v25h947.3Z"/><path d="M267,139.92h.91a1.23,1.23,0,0,0,1.33,1.08,1.06,1.06,0,0,0,1.17-1c0-.58-.5-.83-1-1l-.83-.17c-1.33-.33-1.58-1.16-1.58-1.66a2,2,0,0,1,2.08-1.84,1.84,1.84,0,0,1,2,1.84h-.91a1,1,0,0,0-1.08-1c-.58,0-1.17.33-1.17.91,0,.17.09.59.83.84l.83.16c1.09.25,1.75.84,1.75,1.75a2.18,2.18,0,0,1-4.32.09Z"/><path d="M274.52,138.25h-.92v3.5h-.91v-3.5h-.75v-.75h.75v-1.58h.91v1.58h.92Z"/><path d="M279.5,137.5v4.25h-.91v-.67a1.69,1.69,0,0,1-1.5.75,2.25,2.25,0,0,1-.08-4.5,1.76,1.76,0,0,1,1.49.75v-.66h1Zm-.91,2.08a1.33,1.33,0,1,0-2.66,0,1.33,1.33,0,0,0,1.33,1.42A1.39,1.39,0,0,0,278.59,139.58Z"/><path d="M284.65,137.5,282,143.83h-.91l.91-2.25-1.66-4.08h1l1.24,3,1.25-3Z"/><path d="M288.8,140.17h-2.57l-.58,1.58h-1l2.41-6.33h1l2.41,6.33h-1Zm-.33-.84-1-2.75-1,2.75Z"/><path d="M293.13,138.25h-.92v3.5h-.91v-3.5h-.75v-.75h.75v-1.58h.91v1.58h.92Z"/><path d="M298.94,135.42v6.33H298V139h-2.91v2.75h-.91v-6.33h.91v2.75H298v-2.75Z"/><path d="M300.11,139.58a2.18,2.18,0,0,1,2.24-2.25,2.14,2.14,0,0,1,2.24,2.25,2.24,2.24,0,1,1-4.48,0Zm3.57,0a1.33,1.33,0,1,0-1.33,1.42A1.39,1.39,0,0,0,303.68,139.58Z"/><path d="M312.32,139.33v2.42h-.91v-2.42c0-.66-.34-1.08-.92-1.08a1.1,1.1,0,0,0-1.08,1.08v2.42h-.91v-2.42c0-.66-.33-1.08-.92-1.08a1.11,1.11,0,0,0-1.16,1.25v2.33h-.83v-4.25h.91v.67a1.34,1.34,0,0,1,1.33-.75,1.61,1.61,0,0,1,1.42.83,1.57,1.57,0,0,1,1.49-.83C311.74,137.42,312.32,138.08,312.32,139.33Z"/><path d="M317.72,140h-3.4a1.2,1.2,0,0,0,1.33,1,1.35,1.35,0,0,0,1.16-.58l.75.33a2.27,2.27,0,1,1-2-3.42,2.08,2.08,0,0,1,2.16,2.25Zm-.91-.75a1.28,1.28,0,0,0-2.49,0Z"/><path d="M516,103h-1.91v5.42h-.91V103h-1.91v-.83h4.65V103Z"/><path d="M520.06,106.67h-3.4a1.21,1.21,0,0,0,1.33,1,1.34,1.34,0,0,0,1.16-.59l.75.34a2.27,2.27,0,1,1-2-3.42,2.07,2.07,0,0,1,2.16,2.25Zm-.83-.75a1.28,1.28,0,0,0-2.49,0Z"/><path d="M521.15,101.83h.91v6.59h-.91Z"/><path d="M527.46,106.67h-3.4a1.21,1.21,0,0,0,1.33,1,1.34,1.34,0,0,0,1.16-.59l.75.34a2.27,2.27,0,1,1-2-3.42,2.07,2.07,0,0,1,2.16,2.25Zm-.91-.75a1.28,1.28,0,0,0-2.49,0Z"/><path d="M534.69,104.17l-1.58,4.25h-.75l-1.08-3.09-1.08,3.09h-.75l-1.57-4.25h1l1,2.91,1-2.91h.83l1,2.91,1-2.91Z"/><path d="M535.1,106.25a2.19,2.19,0,0,1,2.25-2.25,2.14,2.14,0,0,1,2.24,2.25,2.19,2.19,0,0,1-2.24,2.25A2.25,2.25,0,0,1,535.1,106.25Zm3.58,0a1.33,1.33,0,1,0-1.33,1.42A1.34,1.34,0,0,0,538.68,106.25Z"/><path d="M543.5,104.17l-.16.83a2.07,2.07,0,0,0-.67-.17c-.75,0-1.16.84-1.16,2v1.5h-.92v-4.25h.92v1c.25-.75.66-1.08,1.16-1.08A3.68,3.68,0,0,1,543.5,104.17Z"/><path d="M547,108.42l-1.83-2v2h-.91v-6.59h.91v3.75l1.41-1.41h1.25L546,106l2.24,2.42Z"/><path d="M548.66,102.58a.58.58,0,1,1,.58.59A.57.57,0,0,1,548.66,102.58Zm.16,1.59h.92v4.25h-.92Z"/><path d="M555.05,106v2.42h-.91V106a1,1,0,0,0-1-1.08,1.15,1.15,0,0,0-1.25,1.16v2.25H551v-4.25h.91v.67a1.64,1.64,0,0,1,1.42-.75A1.77,1.77,0,0,1,555.05,106Z"/><path d="M560.53,104.17v3.66c0,2-.91,2.75-2.32,2.75a2.23,2.23,0,0,1-2-1.16L557,109a1.53,1.53,0,0,0,1.16.75c.92,0,1.41-.5,1.41-1.83v-.09a1.76,1.76,0,0,1-1.49.75,2.25,2.25,0,0,1-.08-4.5,1.76,1.76,0,0,1,1.49.75v-.58h1.08Zm-.91,2.08a1.33,1.33,0,0,0-2.66,0,1.34,1.34,0,0,0,1.33,1.42A1.4,1.4,0,0,0,559.62,106.25Z"/><path d="M561.61,105.25a3.25,3.25,0,0,1,3.24-3.25,3,3,0,0,1,2.41,1.17l-.66.58a2.22,2.22,0,0,0-1.75-.83,2.31,2.31,0,0,0-2.24,2.33,2.26,2.26,0,0,0,2.24,2.33,2.34,2.34,0,0,0,1.75-.83l.66.58a3.18,3.18,0,0,1-5.65-2.08Z"/><path d="M568.18,101.83h.91v6.59h-.91Z"/><path d="M570.17,106.25a2.19,2.19,0,0,1,2.24-2.25,2.14,2.14,0,0,1,2.25,2.25,2.25,2.25,0,1,1-4.49,0Zm3.57,0a1.33,1.33,0,1,0-1.33,1.42A1.34,1.34,0,0,0,573.74,106.25Z"/><path d="M575.41,107.08h.83a.73.73,0,0,0,.75.67c.5,0,.83-.25.83-.58s-.25-.42-.58-.5l-.58-.17c-.83-.25-1.17-.58-1.17-1.25A1.41,1.41,0,0,1,577,104a1.34,1.34,0,0,1,1.49,1.25h-.83c0-.33-.33-.5-.66-.5s-.67.25-.67.5.25.42.5.5l.67.17a1.25,1.25,0,0,1,1.08,1.25,1.51,1.51,0,0,1-1.66,1.33A1.47,1.47,0,0,1,575.41,107.08Z"/><path d="M583.72,104.17v4.25h-.91v-.67a1.64,1.64,0,0,1-1.42.75c-1.08,0-1.74-.67-1.74-1.92v-2.41h.91v2.41a1,1,0,0,0,1,1.09,1.16,1.16,0,0,0,1.25-1.17v-2.33Z"/><path d="M587.88,104.17l-.17.83a2.08,2.08,0,0,0-.66-.17c-.75,0-1.17.84-1.17,2v1.5H585v-4.25h.91v1c.25-.75.67-1.08,1.17-1.08A4,4,0,0,1,587.88,104.17Z"/><path d="M592.53,106.67h-3.41a1.22,1.22,0,0,0,1.33,1,1.31,1.31,0,0,0,1.16-.59l.75.34a2.15,2.15,0,0,1-2,1.08,2.25,2.25,0,0,1,0-4.5,2.08,2.08,0,0,1,2.16,2.25C592.61,106.33,592.53,106.5,592.53,106.67Zm-.83-.75a1.28,1.28,0,0,0-2.49,0Z"/><path d="M593.27,107.08h.83a.74.74,0,0,0,.75.67c.5,0,.83-.25.83-.58s-.25-.42-.58-.5l-.58-.17c-.83-.25-1.16-.58-1.16-1.25a1.4,1.4,0,0,1,1.49-1.25,1.35,1.35,0,0,1,1.5,1.25h-.83c0-.33-.34-.5-.67-.5s-.66.25-.66.5.25.42.5.5l.66.17a1.24,1.24,0,0,1,1.08,1.25,1.51,1.51,0,0,1-1.66,1.33A1.53,1.53,0,0,1,593.27,107.08Z"/><path d="M529.54,71.92a3.25,3.25,0,0,1,3.24-3.25,2.94,2.94,0,0,1,2.41,1.16l-.66.59a2.23,2.23,0,0,0-1.75-.84,2.32,2.32,0,0,0-2.24,2.34,2.26,2.26,0,0,0,2.24,2.33,2.34,2.34,0,0,0,1.75-.83l.66.58a3.18,3.18,0,0,1-5.65-2.08Z"/><path d="M536.1,68.5H537v6.58h-.92Z"/><path d="M538.1,72.92a2.18,2.18,0,0,1,2.24-2.25,2.13,2.13,0,0,1,2.24,2.25,2.24,2.24,0,1,1-4.48,0Zm3.57,0a1.33,1.33,0,1,0-1.33,1.41A1.33,1.33,0,0,0,541.67,72.92Z"/><path d="M543.34,73.75h.83a.73.73,0,0,0,.74.67c.5,0,.84-.25.84-.59s-.25-.41-.59-.5l-.58-.16c-.83-.25-1.16-.59-1.16-1.25a1.4,1.4,0,0,1,1.49-1.25,1.34,1.34,0,0,1,1.5,1.25h-.83c0-.34-.33-.5-.67-.5s-.66.25-.66.5.25.41.5.5l.66.16a1.25,1.25,0,0,1,1.08,1.25,1.51,1.51,0,0,1-1.66,1.34A1.47,1.47,0,0,1,543.34,73.75Z"/><path d="M552.31,70.75a1.85,1.85,0,0,1-1.91,2h-1.58v2.33h-.91V68.75h2.49A1.85,1.85,0,0,1,552.31,70.75Zm-.91,0a1.06,1.06,0,0,0-1-1.17h-1.58v2.25h1.5C551.07,71.92,551.4,71.33,551.4,70.75Z"/><path d="M557.21,70.83v4.25h-.91v-.66a1.64,1.64,0,0,1-1.41.75c-1.09,0-1.75-.67-1.75-1.92V70.83h.91v2.42a1,1,0,0,0,1,1.08,1.15,1.15,0,0,0,1.25-1.16V70.83Z"/><path d="M563,72.92a2.17,2.17,0,0,1-2.16,2.25,1.77,1.77,0,0,1-1.5-.75v.66h-.91V68.5h.91v2.92a1.68,1.68,0,0,1,1.5-.75A2.17,2.17,0,0,1,563,72.92Zm-.92,0a1.27,1.27,0,0,0-1.33-1.34,1.32,1.32,0,0,0-1.33,1.34,1.39,1.39,0,0,0,1.33,1.41A1.33,1.33,0,0,0,562.11,72.92Z"/><path d="M567.6,73.5H565l-.58,1.58h-1l2.4-6.33h1l2.41,6.33h-1Zm-.25-.83-1-2.75-1,2.75Z"/><path d="M573.91,72.67v2.41H573V72.67a1,1,0,0,0-1-1.09,1.16,1.16,0,0,0-1.25,1.17V75h-.91V70.75h.91v.67a1.64,1.64,0,0,1,1.42-.75A1.77,1.77,0,0,1,573.91,72.67Z"/><path d="M578.9,70.83l-2.66,6.34h-.91l.91-2.25-1.66-4.09h1l1.24,3,1.25-3Z"/><path d="M660.09,41.75l-.59-4.58-1.91,3.91h-.83l-1.91-3.91-.58,4.58h-.92l.75-6.33h.83L657.09,40l2.17-4.58h.83l.74,6.33Z"/><path d="M666.4,37.5v4.25h-.92v-.67a1.67,1.67,0,0,1-1.49.75,2.25,2.25,0,0,1-.08-4.5,1.76,1.76,0,0,1,1.49.75v-.66h1Zm-.92,2.08a1.33,1.33,0,1,0-2.65,0,1.33,1.33,0,1,0,2.65,0Z"/><path d="M667.48,40.42h.84a.73.73,0,0,0,.74.66c.5,0,.83-.25.83-.58s-.24-.42-.58-.5l-.58-.17c-.83-.25-1.16-.58-1.16-1.25a1.4,1.4,0,0,1,1.49-1.25,1.35,1.35,0,0,1,1.5,1.25h-.83c0-.33-.33-.5-.67-.5s-.66.25-.66.5.25.42.5.5l.66.17a1.24,1.24,0,0,1,1.08,1.25A1.51,1.51,0,0,1,669,41.83,1.47,1.47,0,0,1,667.48,40.42Z"/><path d="M671.47,40.42h.83a.74.74,0,0,0,.75.66c.5,0,.83-.25.83-.58s-.25-.42-.58-.5l-.58-.17c-.83-.25-1.16-.58-1.16-1.25a1.4,1.4,0,0,1,1.49-1.25,1.35,1.35,0,0,1,1.5,1.25h-.83c0-.33-.34-.5-.67-.5s-.66.25-.66.5.25.42.5.5l.66.17a1.25,1.25,0,0,1,1.08,1.25A1.51,1.51,0,0,1,673,41.83,1.53,1.53,0,0,1,671.47,40.42Z"/><path d="M675.63,38.58A3.17,3.17,0,0,1,681,36.17l-.67.58a2.38,2.38,0,0,0-1.49-.58,2.31,2.31,0,0,0-2.25,2.33,2.26,2.26,0,0,0,2.25,2.33,1.78,1.78,0,0,0,1.91-1.41v-.17h-1.83v-.83h2.82c0,2.25-1.16,3.33-3,3.33A3,3,0,0,1,675.63,38.58Z"/><path d="M687,37.5v4.25h-.91v-.67a1.69,1.69,0,0,1-1.5.75,2.25,2.25,0,0,1-.08-4.5,1.76,1.76,0,0,1,1.49.75v-.66h1Zm-.91,2.08a1.33,1.33,0,0,0-2.66,0A1.33,1.33,0,0,0,684.77,41,1.39,1.39,0,0,0,686.1,39.58Z"/><path d="M690.51,38.25h-.92v3.5h-.91v-3.5h-.75V37.5h.75V35.92h.91V37.5h.92Z"/><path d="M695.32,39.33v2.42h-.91V39.33a1,1,0,0,0-1-1.08,1.15,1.15,0,0,0-1.25,1.17v2.25h-.91V35.08h.91v3a1.64,1.64,0,0,1,1.42-.75A1.78,1.78,0,0,1,695.32,39.33Z"/><path d="M700.64,40h-3.41a1.22,1.22,0,0,0,1.34,1,1.35,1.35,0,0,0,1.16-.58l.75.33a2.27,2.27,0,1,1-2-3.42,2.08,2.08,0,0,1,2.16,2.25Zm-.83-.75a1.28,1.28,0,0,0-2.49,0Z"/><path d="M704.54,37.5l-.16.83a2,2,0,0,0-.67-.16c-.74,0-1.16.83-1.16,2v1.5h-.91V37.42h.91v1c.25-.75.67-1.09,1.16-1.09A5.36,5.36,0,0,1,704.54,37.5Z"/><path class="cls-5" d="M80.41,158.5a.08.08,0,0,1-.09-.08V.08c0-.08.09-.08.09-.08l.08.08V158.42C80.49,158.5,80.49,158.5,80.41,158.5Z"/><path class="cls-5" d="M30.54,158.5a.08.08,0,0,1-.08-.08V.08A.08.08,0,0,1,30.54,0l.08.08V158.42C30.62,158.5,30.62,158.5,30.54,158.5Z"/><path d="M55.34,143.67c-.3,0-.5-.17-.5-.42v-9.88c0-.25.2-.42.5-.42s.5.17.5.42v9.88C55.84,143.5,55.64,143.67,55.34,143.67Zm0-19.69c-.3,0-.5-.17-.5-.42v-9.88c0-.25.2-.42.5-.42s.5.17.5.42v9.88C55.84,123.81,55.64,124,55.34,124Zm0-19.69c-.3,0-.5-.16-.5-.41V94c0-.25.2-.41.5-.41s.5.16.5.41v9.89A.5.5,0,0,1,55.34,104.29Zm0-19.77c-.3,0-.5-.16-.5-.41V74.22c0-.24.2-.41.5-.41s.5.17.5.41v9.89C55.84,84.36,55.64,84.52,55.34,84.52Zm0-19.68c-.3,0-.5-.17-.5-.42V54.54c0-.25.2-.42.5-.42s.5.17.5.42v9.88C55.84,64.67,55.64,64.84,55.34,64.84Zm0-19.69c-.3,0-.5-.16-.5-.41V34.85c0-.25.2-.41.5-.41s.5.16.5.41v9.89A.5.5,0,0,1,55.34,45.15Zm0-19.77c-.3,0-.5-.16-.5-.41V15.08c0-.25.2-.41.5-.41s.5.16.5.41V25C55.84,25.22,55.64,25.38,55.34,25.38Z"/><path d="M55.47,158.83a.39.39,0,0,1-.42-.41v-5a.4.4,0,0,1,.42-.42.39.39,0,0,1,.41.42v5A.38.38,0,0,1,55.47,158.83Z"/><path class="cls-5" d="M105.33,158.5a.08.08,0,0,1-.08-.08V.08a.08.08,0,0,1,.08-.08l.08.08V158.42C105.41,158.5,105.41,158.5,105.33,158.5Z"/><path class="cls-5" d="M130.26,158.5a.08.08,0,0,1-.08-.08V.08a.08.08,0,0,1,.08-.08l.08.08V158.42C130.34,158.5,130.34,158.5,130.26,158.5Z"/><path class="cls-5" d="M155.19,158.5a.08.08,0,0,1-.08-.08V.08a.08.08,0,0,1,.08-.08l.08.08V158.42C155.27,158.5,155.27,158.5,155.19,158.5Z"/><path class="cls-5" d="M180.11,158.5a.08.08,0,0,1-.08-.08V.08a.08.08,0,0,1,.08-.08l.09.08V158.42C180.2,158.5,180.2,158.5,180.11,158.5Z"/><path class="cls-5" d="M205,158.5a.08.08,0,0,1-.08-.08V.08A.08.08,0,0,1,205,0l.08.08V158.42C205.12,158.5,205.12,158.5,205,158.5Z"/><path class="cls-5" d="M230,158.5a.08.08,0,0,1-.08-.08V.08A.08.08,0,0,1,230,0l.09.08V158.42C230.06,158.5,230.06,158.5,230,158.5Z"/><path class="cls-5" d="M254.91,158.5a.08.08,0,0,1-.08-.08V.08a.08.08,0,0,1,.08-.08l.08.08V158.42C255,158.5,255,158.5,254.91,158.5Z"/><path class="cls-5" d="M279.84,158.5a.08.08,0,0,1-.09-.08V.08c0-.08.09-.08.09-.08l.08.08V158.42C279.92,158.5,279.92,158.5,279.84,158.5Z"/><path class="cls-5" d="M304.77,158.5a.08.08,0,0,1-.09-.08V.08c0-.08.09-.08.09-.08l.08.08V158.42C304.85,158.5,304.85,158.5,304.77,158.5Z"/><path class="cls-5" d="M329.68,158.5a.08.08,0,0,1-.08-.08V.08a.08.08,0,0,1,.08-.08l.09.08V158.42C329.77,158.5,329.77,158.5,329.68,158.5Z"/><path class="cls-5" d="M354.62,158.5a.08.08,0,0,1-.08-.08V.08a.08.08,0,0,1,.08-.08l.08.08V158.42C354.7,158.5,354.7,158.5,354.62,158.5Z"/><path class="cls-5" d="M379.55,158.5a.08.08,0,0,1-.08-.08V.08a.08.08,0,0,1,.08-.08l.08.08V158.42C379.63,158.5,379.63,158.5,379.55,158.5Z"/><path class="cls-5" d="M404.48,158.5a.08.08,0,0,1-.08-.08V.08a.08.08,0,0,1,.08-.08l.08.08V158.42C404.56,158.5,404.56,158.5,404.48,158.5Z"/><path class="cls-5" d="M429.42,158.5a.08.08,0,0,1-.09-.08V.08c0-.08.09-.08.09-.08l.08.08V158.42C429.5,158.5,429.5,158.5,429.42,158.5Z"/><path class="cls-5" d="M454.33,158.5a.08.08,0,0,1-.08-.08V.08a.08.08,0,0,1,.08-.08l.08.08V158.42C454.41,158.5,454.41,158.5,454.33,158.5Z"/><path class="cls-5" d="M504.19,158.5a.08.08,0,0,1-.08-.08V.08a.08.08,0,0,1,.08-.08l.08.08V158.42C504.27,158.5,504.27,158.5,504.19,158.5Z"/><path class="cls-5" d="M479.27,158.5a.08.08,0,0,1-.09-.08V.08c0-.08.09-.08.09-.08l.08.08V158.42C479.35,158.5,479.35,158.5,479.27,158.5Z"/><path class="cls-5" d="M529.12,158.5a.08.08,0,0,1-.08-.08V.08a.08.08,0,0,1,.08-.08l.09.08V158.42C529.21,158.5,529.21,158.5,529.12,158.5Z"/><path class="cls-5" d="M554.05,158.5a.08.08,0,0,1-.08-.08V.08a.08.08,0,0,1,.08-.08l.08.08V158.42C554.13,158.5,554.13,158.5,554.05,158.5Z"/><path class="cls-5" d="M579,158.5a.08.08,0,0,1-.08-.08V.08A.08.08,0,0,1,579,0l.08.08V158.42C579.06,158.5,579.06,158.5,579,158.5Z"/><path class="cls-5" d="M603.91,158.5a.08.08,0,0,1-.08-.08V.08a.08.08,0,0,1,.08-.08l.09.08V158.42C604,158.5,604,158.5,603.91,158.5Z"/><path class="cls-5" d="M628.84,158.5a.08.08,0,0,1-.08-.08V.08a.08.08,0,0,1,.08-.08l.08.08V158.42C628.92,158.5,628.92,158.5,628.84,158.5Z"/><path class="cls-5" d="M653.76,158.5a.08.08,0,0,1-.08-.08V.08a.08.08,0,0,1,.08-.08l.08.08V158.42C653.84,158.5,653.84,158.5,653.76,158.5Z"/><path class="cls-5" d="M678.7,158.5a.08.08,0,0,1-.08-.08V.08A.08.08,0,0,1,678.7,0l.08.08V158.42C678.78,158.5,678.78,158.5,678.7,158.5Z"/><path class="cls-5" d="M703.63,158.5a.08.08,0,0,1-.08-.08V.08a.08.08,0,0,1,.08-.08l.08.08V158.42C703.71,158.5,703.71,158.5,703.63,158.5Z"/><path class="cls-5" d="M728.56,158.5a.08.08,0,0,1-.08-.08V.08a.08.08,0,0,1,.08-.08l.09.08V158.42C728.65,158.5,728.65,158.5,728.56,158.5Z"/><path class="cls-5" d="M753.48,158.5a.08.08,0,0,1-.08-.08V.08a.08.08,0,0,1,.08-.08l.08.08V158.42C753.56,158.5,753.56,158.5,753.48,158.5Z"/><path class="cls-5" d="M778.41,158.5a.08.08,0,0,1-.08-.08V.08a.08.08,0,0,1,.08-.08l.08.08V158.42C778.49,158.5,778.49,158.5,778.41,158.5Z"/><path class="cls-5" d="M803.34,158.5a.08.08,0,0,1-.08-.08V.08a.08.08,0,0,1,.08-.08l.08.08V158.42C803.42,158.5,803.42,158.5,803.34,158.5Z"/><path class="cls-5" d="M828.27,158.5a.08.08,0,0,1-.08-.08V.08a.08.08,0,0,1,.08-.08l.08.08V158.42C828.35,158.5,828.35,158.5,828.27,158.5Z"/><path class="cls-5" d="M853.2,158.5a.08.08,0,0,1-.09-.08V.08c0-.08.09-.08.09-.08l.08.08V158.42C853.28,158.5,853.28,158.5,853.2,158.5Z"/><path class="cls-5" d="M878.13,158.5a.08.08,0,0,1-.09-.08V.08c0-.08.09-.08.09-.08l.08.08V158.42C878.21,158.5,878.21,158.5,878.13,158.5Z"/><path class="cls-5" d="M903.06,158.5a.08.08,0,0,1-.08-.08V.08a.08.08,0,0,1,.08-.08l.09.08V158.42C903.15,158.5,903.15,158.5,903.06,158.5Z"/><path class="cls-5" d="M928,158.5a.08.08,0,0,1-.08-.08V.08A.08.08,0,0,1,928,0l.08.08V158.42C928.07,158.5,928.07,158.5,928,158.5Z"/><path class="cls-5" d="M952.92,158.5a.08.08,0,0,1-.08-.08V.08a.08.08,0,0,1,.08-.08l.08.08V158.42C953,158.5,953,158.5,952.92,158.5Z"/><path class="cls-5" d="M977.84,158.5a.08.08,0,0,1-.08-.08V.08a.08.08,0,0,1,.08-.08l.09.08V158.42C977.93,158.5,977.93,158.5,977.84,158.5Z"/><path class="cls-5" d="M1002.77,158.5a.08.08,0,0,1-.08-.08V.08a.08.08,0,0,1,.08-.08l.08.08V158.42C1002.85,158.5,1002.85,158.5,1002.77,158.5Z"/><path class="cls-5" d="M1027.7,158.5a.08.08,0,0,1-.08-.08V.08a.08.08,0,0,1,.08-.08l.08.08V158.42C1027.78,158.5,1027.78,158.5,1027.7,158.5Z"/><path d="M1053,158.67H6v-3H1053Z"/><path d="M29.14,197.08c1.08,1.09,1.82,2.75.5,4.09a2,2,0,0,1-2.16.5l.33-.84a1.07,1.07,0,0,0,1.24-.25,1.86,1.86,0,0,0-.33-2.5,1.84,1.84,0,0,1-.5,1.5,2.05,2.05,0,0,1-2.82.09,2,2,0,0,1,.08-2.92C26.48,195.58,27.89,195.92,29.14,197.08Zm-1.33.17a1.11,1.11,0,0,0-1.66,0,1.12,1.12,0,0,0-.09,1.67,1.21,1.21,0,0,0,1.75-1.67Z"/><path d="M30.3,196.75l2.24-2.25.58.58-2.24,2.25Z"/><path d="M36.61,191.58a1.89,1.89,0,0,1-.17,2.75,2.17,2.17,0,0,1-2.24.5l.17-.83a1.37,1.37,0,0,0,1.41-.25,1.1,1.1,0,0,0,.17-1.58,1.08,1.08,0,0,0-1.58.08l-.42.42-.5-.5.34-.34a.88.88,0,0,0,.08-1.33.81.81,0,0,0-1.16.08,1.34,1.34,0,0,0-.34,1.09l-.74.08a2,2,0,0,1,.58-1.83,1.57,1.57,0,0,1,2.41-.09,1.32,1.32,0,0,1,.33,1.42A1.45,1.45,0,0,1,36.61,191.58Z"/><path d="M36.78,190.25,39,188l.58.58-2.24,2.25Z"/><path d="M43.6,185.83l.58.59-2.74,2.75-.33-.34-.34-3.5c-.08-.58-.16-1.08-.41-1.25a.87.87,0,0,0-1.33.09,1,1,0,0,0-.17,1.41l-.66.42a1.84,1.84,0,0,1,.25-2.5,1.69,1.69,0,0,1,2.57-.08A2.4,2.4,0,0,1,41.6,185l.25,2.42Z"/><path d="M42.76,183.67c-1.24-1.25-1.82-2.5-.66-3.75s2.49-.59,3.74.66,1.83,2.5.66,3.75S43.93,184.83,42.76,183.67Zm2.5-2.5c-.84-.84-1.75-1.42-2.5-.67s-.16,1.67.67,2.5,1.74,1.42,2.49.67S46.09,182.08,45.26,181.17Z"/><path d="M50.74,178.67l.58.58L48.58,182l-.33-.33-.33-3.5c-.08-.59-.17-1.09-.42-1.25a.86.86,0,0,0-1.33.08,1.05,1.05,0,0,0-.16,1.42l-.67.41a1.84,1.84,0,0,1,.25-2.5,1.7,1.7,0,0,1,2.58-.08,2.45,2.45,0,0,1,.58,1.58l.25,2.42Z"/><path d="M50,176.42c-1.24-1.25-1.82-2.5-.66-3.75s2.49-.59,3.74.66,1.83,2.5.66,3.75S51.16,177.67,50,176.42ZM52.4,174c-.83-.83-1.74-1.42-2.49-.67s-.17,1.67.67,2.5,1.74,1.42,2.49.67S53.23,174.83,52.4,174Z"/><path d="M47.91,199.08l4.32,4.34-.66.66-3.41-3.41-.58,1.25-.58-.59Z"/><path d="M54.89,198a2,2,0,0,1-.08,2.92c-1,1-2.33.83-3.66-.5-1.08-1.09-1.83-2.75-.58-4.09a2,2,0,0,1,2.16-.5l-.33.84a1.08,1.08,0,0,0-1.25.25,1.81,1.81,0,0,0,.42,2.5,1.52,1.52,0,0,1,.5-1.5A2,2,0,0,1,54.89,198Zm-.66.67a1.26,1.26,0,0,0-1.67,0,1.2,1.2,0,0,0-.16,1.66,1.17,1.17,0,0,0,1.66,0A1,1,0,0,0,54.23,198.67Z"/><path d="M55.22,196.75l2.25-2.25.58.58-2.25,2.25Z"/><path d="M61.54,191.58a1.91,1.91,0,0,1-.17,2.75,2.17,2.17,0,0,1-2.24.5l.16-.83a1.39,1.39,0,0,0,1.42-.25,1.1,1.1,0,0,0,.16-1.58,1.08,1.08,0,0,0-1.58.08l-.41.42-.5-.5.33-.34a.86.86,0,0,0,.08-1.33.81.81,0,0,0-1.16.08,1.33,1.33,0,0,0-.33,1.09l-.75.08a2,2,0,0,1,.58-1.83,1.57,1.57,0,0,1,2.41-.09,1.31,1.31,0,0,1,.33,1.42A1.47,1.47,0,0,1,61.54,191.58Z"/><path d="M61.7,190.25,64,188l.58.58-2.25,2.25Z"/><path d="M68.52,185.83l.58.59-2.74,2.75-.33-.34-.34-3.5c-.08-.58-.16-1.08-.41-1.25-.42-.41-.92-.33-1.42.09a1,1,0,0,0-.16,1.41L63,186a1.85,1.85,0,0,1,.25-2.5,1.7,1.7,0,0,1,2.58-.08,2.45,2.45,0,0,1,.58,1.58l.25,2.42Z"/><path d="M67.69,183.67c-1.25-1.25-1.83-2.5-.67-3.75s2.5-.59,3.74.66,1.83,2.5.67,3.75S68.85,184.83,67.69,183.67Zm2.49-2.5c-.83-.84-1.74-1.42-2.49-.67s-.17,1.67.66,2.5,1.75,1.42,2.5.67S71,182.08,70.18,181.17Z"/><path d="M75.66,178.67l.58.58L73.5,182l-.34-.33-.33-3.5c-.08-.59-.16-1.09-.41-1.25a.86.86,0,0,0-1.33.08,1.05,1.05,0,0,0-.17,1.42l-.66.41a1.84,1.84,0,0,1,.25-2.5,1.69,1.69,0,0,1,2.57-.08,2.45,2.45,0,0,1,.58,1.58l.25,2.42Z"/><path d="M74.92,176.42c-1.25-1.25-1.83-2.5-.67-3.75s2.5-.59,3.74.66,1.83,2.5.67,3.75S76.08,177.67,74.92,176.42ZM77.33,174c-.83-.83-1.75-1.42-2.49-.67s-.17,1.67.66,2.5,1.75,1.42,2.49.67S78.16,174.83,77.33,174Z"/><path d="M5.78,198.75l.58.58-2.74,2.75-.33-.33L3,198.25c-.09-.58-.17-1.08-.42-1.25a.87.87,0,0,0-1.33.08,1.05,1.05,0,0,0-.16,1.42l-.67.42a1.84,1.84,0,0,1,.25-2.5,1.7,1.7,0,0,1,2.58-.09,2.48,2.48,0,0,1,.58,1.59L4,200.33Z"/><path d="M5.37,196.75l2.24-2.25.58.58L6,197.33Z"/><path d="M11.68,191.58a1.89,1.89,0,0,1-.17,2.75,2.17,2.17,0,0,1-2.24.5l.17-.83a1.37,1.37,0,0,0,1.41-.25,1.1,1.1,0,0,0,.17-1.58,1.08,1.08,0,0,0-1.58.08l-.42.42-.5-.5.34-.34a.88.88,0,0,0,.08-1.33.81.81,0,0,0-1.16.08,1.34,1.34,0,0,0-.34,1.09l-.74.08a2,2,0,0,1,.58-1.83,1.57,1.57,0,0,1,2.41-.09,1.32,1.32,0,0,1,.33,1.42A1.45,1.45,0,0,1,11.68,191.58Z"/><path d="M11.85,190.25,14.09,188l.58.58-2.24,2.25Z"/><path d="M18.67,185.83l.58.59-2.75,2.75-.33-.34-.33-3.5c-.08-.58-.17-1.08-.42-1.25a.86.86,0,0,0-1.32.09,1,1,0,0,0-.17,1.41l-.67.42a1.85,1.85,0,0,1,.25-2.5,1.7,1.7,0,0,1,2.58-.08,2.45,2.45,0,0,1,.58,1.58l.25,2.42Z"/><path d="M17.83,183.67c-1.24-1.25-1.82-2.5-.66-3.75s2.49-.59,3.74.66,1.83,2.5.66,3.75S19,184.83,17.83,183.67Zm2.5-2.5c-.83-.84-1.75-1.42-2.5-.67s-.16,1.67.67,2.5,1.74,1.42,2.49.67S21.16,182.08,20.33,181.17Z"/><path d="M25.81,178.67l.58.58L23.65,182l-.34-.33-.33-3.5c-.08-.59-.16-1.09-.41-1.25-.42-.42-.92-.34-1.42.08a1.06,1.06,0,0,0-.16,1.42l-.67.41a1.84,1.84,0,0,1,.25-2.5,1.7,1.7,0,0,1,2.58-.08,2.45,2.45,0,0,1,.58,1.58l.25,2.42Z"/><path d="M25.06,176.42c-1.24-1.25-1.82-2.5-.66-3.75s2.49-.59,3.74.66,1.83,2.5.66,3.75S26.23,177.67,25.06,176.42ZM27.47,174c-.83-.83-1.74-1.42-2.49-.67s-.17,1.67.67,2.5,1.74,1.42,2.49.67S28.3,174.83,27.47,174Z"/><path d="M201.89,202.08l.58.59-2.74,2.75-.33-.34-.33-3.5c-.08-.58-.17-1.08-.42-1.25-.41-.41-.91-.33-1.41.09a1,1,0,0,0-.17,1.41l-.66.42a1.84,1.84,0,0,1,.25-2.5,1.69,1.69,0,0,1,2.57-.08,2.41,2.41,0,0,1,.59,1.58l.25,2.42Z"/><path d="M201.81,194.83l2,6.42-.74.75-1.66-5.58-1.92,1.91-.58-.58Z"/><path d="M204.39,197.08l2.24-2.25.58.59L205,197.67Z"/><path d="M211.45,191.92l-.58.58.83.83L211,194l-.83-.83L208,195.33l-.16-.16-.67-5.84.17-.16,2.74,2.75.58-.59Zm-1.83.66-1.33-1.33.25,2.42Z"/><path d="M211.2,190.25l2.25-2.25.58.58-2.24,2.25Z"/><path d="M218,185.83l.58.59-2.74,2.75-.34-.34-.33-3.5c-.08-.58-.16-1.08-.41-1.25-.42-.41-.92-.33-1.41.09a1,1,0,0,0-.17,1.41l-.67.42a1.85,1.85,0,0,1,.25-2.5,1.7,1.7,0,0,1,2.58-.08,2.45,2.45,0,0,1,.58,1.58l.25,2.42Z"/><path d="M217.26,183.67c-1.24-1.25-1.83-2.5-.66-3.75s2.49-.59,3.74.66,1.82,2.5.66,3.75C219.67,185.5,218.43,184.83,217.26,183.67Zm2.41-2.5c-.83-.84-1.74-1.42-2.49-.67s-.17,1.67.67,2.5,1.74,1.42,2.49.67S220.5,182.08,219.67,181.17Z"/><path d="M225.24,178.67l.58.58L223.08,182l-.33-.33-.33-3.5c-.08-.59-.17-1.09-.42-1.25a.86.86,0,0,0-1.33.08,1.06,1.06,0,0,0-.16,1.42l-.67.41a1.84,1.84,0,0,1,.25-2.5,1.7,1.7,0,0,1,2.58-.08,2.45,2.45,0,0,1,.58,1.58l.25,2.42Z"/><path d="M224.41,176.42c-1.25-1.25-1.83-2.5-.66-3.75s2.49-.59,3.74.66,1.82,2.5.66,3.75S225.66,177.67,224.41,176.42ZM226.9,174c-.83-.83-1.74-1.42-2.49-.67s-.17,1.67.67,2.5,1.74,1.42,2.49.67S227.74,174.83,226.9,174Z"/><path d="M229.64,198.67l-.58.58.83.83-.66.67-.83-.83-2.16,2.16-.17-.16-.66-5.84.16-.16,2.74,2.75.59-.59Zm-1.82.66L226.49,198l.25,2.42Z"/><path d="M229.39,197l2.24-2.25.59.58L230,197.58Z"/><path d="M235.79,191.42a2,2,0,0,1-.08,3,2.38,2.38,0,0,1-2.49.58l.25-.83a1.44,1.44,0,0,0,1.66-.34,1.18,1.18,0,1,0-1.66-1.66,2,2,0,0,0-.58,1.41l-.67.09-1.74-2.5,2.24-2.25.58.58-1.74,1.75.91,1.42a2.2,2.2,0,0,1,.58-1.17A1.75,1.75,0,0,1,235.79,191.42Z"/><path d="M236.13,190.25l2.24-2.25.58.58-2.24,2.25Z"/><path d="M242.85,185.83l.58.59-2.74,2.75-.33-.34-.33-3.5c-.08-.58-.17-1.08-.42-1.25-.41-.41-.91-.33-1.41.09a1,1,0,0,0-.16,1.41l-.67.42a1.84,1.84,0,0,1,.25-2.5,1.7,1.7,0,0,1,2.58-.08,2.45,2.45,0,0,1,.58,1.58l.25,2.42Z"/><path d="M242.11,183.67c-1.25-1.25-1.83-2.5-.66-3.75s2.49-.59,3.73.66,1.83,2.5.67,3.75S243.27,184.83,242.11,183.67Zm2.41-2.5c-.83-.84-1.75-1.42-2.49-.67s-.17,1.67.66,2.5,1.75,1.42,2.49.67S245.43,182.08,244.52,181.17Z"/><path d="M250.09,178.67l.58.58L247.93,182l-.33-.33-.33-3.5c-.09-.59-.17-1.09-.42-1.25a.86.86,0,0,0-1.33.08,1.06,1.06,0,0,0-.17,1.42l-.66.41a1.84,1.84,0,0,1,.25-2.5,1.69,1.69,0,0,1,2.57-.08,2.41,2.41,0,0,1,.59,1.58l.25,2.42Z"/><path d="M249.33,176.42c-1.24-1.25-1.82-2.5-.66-3.75s2.49-.59,3.74.66,1.83,2.5.66,3.75C251.74,178.33,250.5,177.67,249.33,176.42Zm2.41-2.42c-.83-.83-1.74-1.42-2.49-.67s-.17,1.67.66,2.5,1.75,1.42,2.5.67S252.57,174.83,251.74,174Z"/><path d="M248.51,197.92l4.32,4.25-.67.66-3.4-3.41-.58,1.25-.59-.59Z"/><path d="M250.83,195.58l4.24,4.25-.66.67L251,197.08l-.58,1.25-.58-.58Z"/><path d="M254.32,197l2.25-2.25.58.58-2.24,2.25Z"/><path d="M260.72,191.42a2,2,0,0,1-.08,3,2.39,2.39,0,0,1-2.5.58l.25-.83a1.43,1.43,0,0,0,1.66-.34,1.18,1.18,0,1,0-1.66-1.66,2,2,0,0,0-.58,1.41l-.66.09-1.75-2.5,2.25-2.25.58.58-1.75,1.75.92,1.42a2.2,2.2,0,0,1,.58-1.17A1.75,1.75,0,0,1,260.72,191.42Z"/><path d="M261.05,190.25,263.3,188l.58.58-2.24,2.25Z"/><path d="M267.78,185.83l.58.59-2.74,2.75-.33-.34-.33-3.5c-.09-.58-.17-1.08-.42-1.25a.87.87,0,0,0-1.33.09,1,1,0,0,0-.16,1.41l-.67.42a1.84,1.84,0,0,1,.25-2.5,1.7,1.7,0,0,1,2.58-.08,2.45,2.45,0,0,1,.58,1.58l.25,2.42Z"/><path d="M267,183.67c-1.25-1.25-1.83-2.5-.67-3.75s2.49-.59,3.74.66,1.83,2.5.66,3.75S268.2,184.83,267,183.67Zm2.41-2.5c-.84-.84-1.75-1.42-2.5-.67s-.16,1.67.67,2.5,1.74,1.42,2.49.67S270.36,182.08,269.45,181.17Z"/><path d="M275,178.67l.59.58L272.85,182l-.33-.33-.33-3.5c-.08-.59-.17-1.09-.42-1.25-.41-.42-.91-.34-1.41.08a1.05,1.05,0,0,0-.16,1.42l-.67.41a1.84,1.84,0,0,1,.25-2.5,1.7,1.7,0,0,1,2.58-.08,2.45,2.45,0,0,1,.58,1.58l.25,2.42Z"/><path d="M274.27,176.42c-1.25-1.25-1.83-2.5-.67-3.75s2.5-.59,3.74.66,1.83,2.5.67,3.75C276.68,178.25,275.43,177.67,274.27,176.42Zm2.41-2.42c-.83-.83-1.75-1.42-2.5-.67s-.16,1.67.67,2.5,1.74,1.42,2.49.67S277.51,174.83,276.68,174Z"/><path d="M271.94,199.33l4.24,4.25-.66.67-3.41-3.42-.58,1.25-.58-.58Z"/><path d="M279.09,198.25a2,2,0,0,1-.25,2.92c-.92.91-2.16,1.08-2.91.25a1.83,1.83,0,0,1-.41-2,1.44,1.44,0,0,1-1.25-.34,1.78,1.78,0,0,1,2.49-2.5,1.39,1.39,0,0,1,.33,1.25A2,2,0,0,1,279.09,198.25Zm-4.07.33a.71.71,0,0,0,1.08-.08.79.79,0,0,0,.08-1.08.87.87,0,0,0-1.16,0A.79.79,0,0,0,275,198.58Zm3.32.34a1.2,1.2,0,0,0-1.74.08,1.3,1.3,0,0,0-.17,1.75,1.21,1.21,0,0,0,1.74-.17A1.11,1.11,0,0,0,278.34,198.92Z"/><path d="M279.26,197l2.24-2.25.58.58-2.24,2.25Z"/><path d="M285.65,191.42a2,2,0,0,1-.08,3,2.4,2.4,0,0,1-2.5.58l.25-.83a1.43,1.43,0,0,0,1.66-.34,1.18,1.18,0,1,0-1.66-1.66,2,2,0,0,0-.58,1.41l-.66.09-1.75-2.5,2.25-2.25.58.58-1.75,1.75.92,1.42a2.2,2.2,0,0,1,.58-1.17A1.75,1.75,0,0,1,285.65,191.42Z"/><path d="M286,190.25l2.24-2.25.58.58-2.24,2.25Z"/><path d="M292.72,185.83l.58.59-2.74,2.75-.34-.34-.33-3.5c-.08-.58-.16-1.08-.41-1.25-.42-.41-.92-.33-1.42.09a1,1,0,0,0-.16,1.41l-.67.42a1.84,1.84,0,0,1,.25-2.5,1.7,1.7,0,0,1,2.58-.08,2.45,2.45,0,0,1,.58,1.58l.25,2.42Z"/><path d="M292,183.67c-1.24-1.25-1.83-2.5-.66-3.75s2.49-.59,3.74.66,1.82,2.5.66,3.75S293.13,184.83,292,183.67Zm2.41-2.5c-.83-.84-1.74-1.42-2.49-.67s-.17,1.67.66,2.5,1.75,1.42,2.5.67S295.29,182.08,294.37,181.17Z"/><path d="M299.94,178.67l.58.58L297.78,182l-.33-.33-.33-3.5c-.09-.59-.17-1.09-.42-1.25a.86.86,0,0,0-1.33.08,1.05,1.05,0,0,0-.16,1.42l-.67.41a1.84,1.84,0,0,1,.25-2.5,1.7,1.7,0,0,1,2.58-.08,2.45,2.45,0,0,1,.58,1.58l.25,2.42Z"/><path d="M299.2,176.42c-1.25-1.25-1.83-2.5-.67-3.75s2.49-.59,3.74.66,1.83,2.5.66,3.75S300.36,177.67,299.2,176.42Zm2.41-2.42c-.84-.83-1.75-1.42-2.5-.67s-.16,1.67.67,2.5,1.74,1.42,2.49.67S302.44,174.83,301.61,174Z"/><path d="M301,202.58l.59.59-2.75,2.75-.33-.34-.33-3.5c-.08-.58-.17-1.08-.42-1.25a.87.87,0,0,0-1.33.09,1,1,0,0,0-.16,1.41l-.67.42a1.85,1.85,0,0,1,.25-2.5,1.7,1.7,0,0,1,2.58-.08,2.45,2.45,0,0,1,.58,1.58l.25,2.42Z"/><path d="M303.85,198.17a2,2,0,0,1-.08,3,2.4,2.4,0,0,1-2.5.58l.25-.83a1.43,1.43,0,0,0,1.66-.34,1.18,1.18,0,1,0-1.66-1.66,2,2,0,0,0-.58,1.41l-.66.09-1.75-2.5,2.24-2.25.59.58L299.61,198l.91,1.42a2.22,2.22,0,0,1,.59-1.17A1.75,1.75,0,0,1,303.85,198.17Z"/><path d="M304.18,197l2.24-2.25.59.58-2.25,2.25Z"/><path d="M310.58,191.42a2,2,0,0,1-.08,3A2.38,2.38,0,0,1,308,195l.25-.83a1.44,1.44,0,0,0,1.66-.34,1.18,1.18,0,1,0-1.66-1.66,2,2,0,0,0-.59,1.41l-.66.09-1.74-2.5,2.24-2.25.58.58-1.74,1.75.91,1.42a2.2,2.2,0,0,1,.58-1.17A1.75,1.75,0,0,1,310.58,191.42Z"/><path d="M310.91,190.25l2.25-2.25.58.58-2.24,2.25Z"/><path d="M317.64,185.83l.58.59-2.74,2.75-.33-.34-.33-3.5c-.09-.58-.17-1.08-.42-1.25-.41-.41-.91-.33-1.41.09a1,1,0,0,0-.17,1.41l-.66.42a1.84,1.84,0,0,1,.25-2.5,1.69,1.69,0,0,1,2.57-.08,2.41,2.41,0,0,1,.59,1.58l.25,2.42Z"/><path d="M316.89,183.67c-1.24-1.25-1.83-2.5-.66-3.75s2.49-.59,3.74.66,1.82,2.5.66,3.75S318.05,184.83,316.89,183.67Zm2.41-2.5c-.83-.84-1.74-1.42-2.49-.67s-.17,1.67.66,2.5,1.75,1.42,2.5.67S320.21,182.08,319.3,181.17Z"/><path d="M324.87,178.67l.58.58L322.71,182l-.33-.33-.33-3.5c-.09-.59-.17-1.09-.42-1.25a.86.86,0,0,0-1.33.08,1.05,1.05,0,0,0-.16,1.42l-.67.41a1.84,1.84,0,0,1,.25-2.5,1.7,1.7,0,0,1,2.58-.08,2.45,2.45,0,0,1,.58,1.58l.25,2.42Z"/><path d="M324.13,176.42c-1.25-1.25-1.83-2.5-.67-3.75s2.49-.59,3.74.66,1.83,2.5.66,3.75C326.54,178.33,325.29,177.67,324.13,176.42Zm2.41-2.42c-.84-.83-1.75-1.42-2.5-.67s-.16,1.67.67,2.5,1.74,1.42,2.49.67S327.37,174.83,326.54,174Z"/><path d="M325.45,195.75l4.32,4.33-.66.67-3.41-3.42-.58,1.25-.58-.58Z"/><path d="M329,197.17l2.24-2.25.58.58-2.24,2.25Z"/><path d="M335.51,191.5a2,2,0,0,1-.09,2.92c-1,1-2.32.83-3.65-.5-1.08-1.09-1.83-2.75-.58-4.09a2,2,0,0,1,2.16-.5l-.33.84a1.08,1.08,0,0,0-1.25.25,1.81,1.81,0,0,0,.41,2.5,1.55,1.55,0,0,1,.5-1.5A2.06,2.06,0,0,1,335.51,191.5Zm-.67.67a1.25,1.25,0,0,0-1.66,0,1.19,1.19,0,0,0-.16,1.66,1.17,1.17,0,0,0,1.66,0A1.07,1.07,0,0,0,334.84,192.17Z"/><path d="M335.84,190.25l2.25-2.25.58.58-2.25,2.25Z"/><path d="M342.57,185.83l.58.59-2.74,2.75-.33-.34-.34-3.5c-.08-.58-.16-1.08-.41-1.25a.87.87,0,0,0-1.33.09,1,1,0,0,0-.17,1.41l-.66.42a1.83,1.83,0,0,1,.25-2.5,1.69,1.69,0,0,1,2.57-.08,2.45,2.45,0,0,1,.58,1.58l.25,2.42Z"/><path d="M341.83,183.67c-1.25-1.25-1.83-2.5-.67-3.75s2.49-.59,3.74.66,1.83,2.5.66,3.75S343,184.83,341.83,183.67Zm2.4-2.5c-.83-.84-1.74-1.42-2.49-.67s-.16,1.67.67,2.5,1.74,1.42,2.49.67S345.15,182.08,344.23,181.17Z"/><path d="M349.8,178.67l.58.58L347.64,182l-.33-.33-.34-3.5c-.08-.59-.16-1.09-.41-1.25-.42-.42-.92-.34-1.41.08a1.05,1.05,0,0,0-.17,1.42l-.66.41a1.83,1.83,0,0,1,.25-2.5,1.69,1.69,0,0,1,2.57-.08,2.45,2.45,0,0,1,.58,1.58l.25,2.42Z"/><path d="M349.05,176.42c-1.25-1.25-1.83-2.5-.67-3.75s2.5-.59,3.74.66,1.83,2.5.67,3.75C351.46,178.25,350.21,177.67,349.05,176.42Zm2.41-2.42c-.83-.83-1.75-1.42-2.5-.67s-.16,1.67.67,2.5,1.75,1.42,2.49.67S352.29,174.83,351.46,174Z"/><path d="M77.25,202.08l.58.59-2.74,2.75-.33-.34-.33-3.5c-.09-.58-.17-1.08-.42-1.25a.87.87,0,0,0-1.33.09,1,1,0,0,0-.16,1.41l-.67.42a1.84,1.84,0,0,1,.25-2.5,1.7,1.7,0,0,1,2.58-.08,2.45,2.45,0,0,1,.58,1.58l.25,2.42Z"/><path d="M80,198.08a1.9,1.9,0,0,1-.16,2.75,2.19,2.19,0,0,1-2.25.5l.17-.83a1.37,1.37,0,0,0,1.41-.25,1.1,1.1,0,0,0,.17-1.58,1.08,1.08,0,0,0-1.58.08l-.42.42-.49-.5.33-.34a.87.87,0,0,0,.08-1.33.81.81,0,0,0-1.16.08,1.3,1.3,0,0,0-.33,1.09l-.75.08a2,2,0,0,1,.58-1.83,1.57,1.57,0,0,1,2.41-.09,1.32,1.32,0,0,1,.33,1.42A1.45,1.45,0,0,1,80,198.08Z"/><path d="M80.16,196.75l2.24-2.25.58.58-2.24,2.25Z"/><path d="M86.48,191.58a1.9,1.9,0,0,1-.17,2.75,2.17,2.17,0,0,1-2.24.5l.16-.83a1.39,1.39,0,0,0,1.42-.25,1.09,1.09,0,0,0,.16-1.58,1.08,1.08,0,0,0-1.58.08l-.41.42-.5-.5.33-.34a.87.87,0,0,0,.09-1.33.82.82,0,0,0-1.17.08,1.33,1.33,0,0,0-.33,1.09l-.75.08a2,2,0,0,1,.58-1.83,1.57,1.57,0,0,1,2.41-.09,1.33,1.33,0,0,1,.34,1.42A1.45,1.45,0,0,1,86.48,191.58Z"/><path d="M86.64,190.25,88.89,188l.58.58-2.24,2.25Z"/><path d="M93.45,185.83l.59.59-2.75,2.75-.33-.34-.33-3.5c-.08-.58-.17-1.08-.42-1.25a.87.87,0,0,0-1.33.09,1,1,0,0,0-.16,1.41l-.67.42a1.85,1.85,0,0,1,.25-2.5,1.7,1.7,0,0,1,2.58-.08,2.45,2.45,0,0,1,.58,1.58l.25,2.42Z"/><path d="M92.62,183.67c-1.24-1.25-1.83-2.5-.66-3.75s2.49-.59,3.74.66,1.82,2.5.66,3.75S93.79,184.83,92.62,183.67Zm2.49-2.5c-.83-.84-1.74-1.42-2.49-.67s-.16,1.67.67,2.5,1.74,1.42,2.49.67S96,182.08,95.11,181.17Z"/><path d="M100.6,178.67l.58.58L98.44,182l-.33-.33-.33-3.5c-.09-.59-.17-1.09-.42-1.25A.86.86,0,0,0,96,177a1.05,1.05,0,0,0-.16,1.42l-.67.41a1.84,1.84,0,0,1,.25-2.5,1.7,1.7,0,0,1,2.58-.08,2.45,2.45,0,0,1,.58,1.58l.25,2.42Z"/><path d="M99.85,176.42c-1.24-1.25-1.83-2.5-.66-3.75s2.49-.59,3.74.66,1.82,2.5.66,3.75S101,177.67,99.85,176.42Zm2.41-2.42c-.83-.83-1.74-1.42-2.49-.67s-.17,1.67.66,2.5,1.75,1.42,2.5.67S103.09,174.83,102.26,174Z"/><path d="M101.1,201.92a1.91,1.91,0,0,1-.17,2.75,2.19,2.19,0,0,1-2.24.5l.16-.84a1.35,1.35,0,0,0,1.41-.25,1.09,1.09,0,0,0,.17-1.58,1.08,1.08,0,0,0-1.58.08l-.41.42-.58-.42.33-.33c.41-.42.5-1,.08-1.33a.8.8,0,0,0-1.16.08,1.28,1.28,0,0,0-.33,1.08l-.75.09a2,2,0,0,1,.58-1.84,1.57,1.57,0,0,1,2.41-.08,1.32,1.32,0,0,1,.33,1.42A1.41,1.41,0,0,1,101.1,201.92Z"/><path d="M100.93,200.33c-1.25-1.25-1.83-2.5-.66-3.75s2.49-.58,3.73.67,1.83,2.5.67,3.75S102.09,201.58,100.93,200.33Zm2.41-2.41c-.83-.84-1.74-1.42-2.49-.67s-.17,1.67.66,2.5,1.75,1.42,2.49.67S104.17,198.75,103.34,197.92Z"/><path d="M105.09,196.75l2.24-2.25.58.58-2.24,2.25Z"/><path d="M111.4,191.58a1.89,1.89,0,0,1-.17,2.75,2.17,2.17,0,0,1-2.24.5l.17-.83a1.37,1.37,0,0,0,1.41-.25,1.1,1.1,0,0,0,.17-1.58,1.08,1.08,0,0,0-1.58.08l-.42.42-.5-.5.33-.34a.87.87,0,0,0,.09-1.33.81.81,0,0,0-1.16.08,1.34,1.34,0,0,0-.34,1.09l-.74.08a2,2,0,0,1,.58-1.83,1.57,1.57,0,0,1,2.41-.09,1.34,1.34,0,0,1,.33,1.42A1.45,1.45,0,0,1,111.4,191.58Z"/><path d="M111.57,190.25l2.24-2.25.58.58-2.24,2.25Z"/><path d="M118.38,185.83l.58.59-2.74,2.75-.33-.34-.33-3.5c-.09-.58-.17-1.08-.42-1.25-.42-.41-.91-.33-1.41.09a1,1,0,0,0-.17,1.41l-.66.42a1.84,1.84,0,0,1,.25-2.5,1.69,1.69,0,0,1,2.57-.08,2.4,2.4,0,0,1,.58,1.58l.25,2.42Z"/><path d="M117.55,183.67c-1.25-1.25-1.83-2.5-.67-3.75s2.5-.59,3.74.66,1.83,2.5.67,3.75S118.71,184.83,117.55,183.67Zm2.49-2.5c-.83-.84-1.74-1.42-2.49-.67s-.17,1.67.66,2.5,1.75,1.42,2.5.67S120.87,182.08,120,181.17Z"/><path d="M125.53,178.67l.58.58L123.37,182l-.33-.33-.34-3.5c-.08-.59-.16-1.09-.41-1.25A.86.86,0,0,0,121,177a1.05,1.05,0,0,0-.17,1.42l-.66.41a1.84,1.84,0,0,1,.25-2.5,1.69,1.69,0,0,1,2.57-.08,2.4,2.4,0,0,1,.58,1.58l.25,2.42Z"/><path d="M124.78,176.42c-1.24-1.25-1.82-2.5-.66-3.75s2.49-.59,3.74.66,1.82,2.5.66,3.75S126,177.67,124.78,176.42Zm2.41-2.42c-.83-.83-1.74-1.42-2.49-.67s-.17,1.67.66,2.5,1.75,1.42,2.5.67S128,174.83,127.19,174Z"/><path d="M129.35,198.33a2,2,0,0,1-.08,2.92c-1,1-2.33.83-3.66-.5-1.08-1.08-1.82-2.75-.58-4.08a2,2,0,0,1,2.16-.5l-.33.83a1.1,1.1,0,0,0-1.25.25,1.81,1.81,0,0,0,.42,2.5,1.53,1.53,0,0,1,.5-1.5A2.13,2.13,0,0,1,129.35,198.33Zm-.66.67a1.25,1.25,0,0,0-1.66,0,1.2,1.2,0,0,0-.17,1.67,1.18,1.18,0,0,0,1.66,0A1.07,1.07,0,0,0,128.69,199Z"/><path d="M129.68,197.08l2.25-2.25.58.59-2.25,2.25Z"/><path d="M136.75,191.92l-.58.58.83.83-.67.67-.83-.83-2.16,2.16-.16-.16-.67-5.84.17-.16,2.74,2.75.58-.59Zm-1.83.66-1.33-1.33.25,2.42Z"/><path d="M136.5,190.25l2.24-2.25.58.58-2.24,2.25Z"/><path d="M143.31,185.83l.59.59-2.75,2.75-.33-.34-.33-3.5c-.08-.58-.17-1.08-.42-1.25a.87.87,0,0,0-1.33.09,1,1,0,0,0-.16,1.41l-.67.42a1.84,1.84,0,0,1,.25-2.5,1.7,1.7,0,0,1,2.58-.08,2.45,2.45,0,0,1,.58,1.58l.25,2.42Z"/><path d="M142.48,183.67c-1.25-1.25-1.83-2.5-.67-3.75s2.5-.59,3.74.66,1.83,2.5.67,3.75S143.64,184.83,142.48,183.67Zm2.49-2.5c-.83-.84-1.74-1.42-2.49-.67s-.17,1.67.66,2.5,1.75,1.42,2.49.67S145.8,182.08,145,181.17Z"/><path d="M150.46,178.67l.58.58L148.3,182l-.33-.33-.34-3.5c-.08-.59-.16-1.09-.41-1.25-.42-.42-.92-.34-1.41.08a1.05,1.05,0,0,0-.17,1.42l-.66.41a1.83,1.83,0,0,1,.25-2.5,1.69,1.69,0,0,1,2.57-.08,2.45,2.45,0,0,1,.58,1.58l.25,2.42Z"/><path d="M149.71,176.42c-1.25-1.25-1.83-2.5-.67-3.75s2.5-.59,3.74.66,1.83,2.5.67,3.75S150.87,177.67,149.71,176.42Zm2.41-2.42c-.83-.83-1.75-1.42-2.49-.67s-.17,1.67.66,2.5,1.75,1.42,2.49.67S153,174.83,152.12,174Z"/><path d="M176,202.92l.59.58-2.75,2.75-.33-.33-.33-3.5c-.08-.59-.17-1.09-.42-1.25a.86.86,0,0,0-1.33.08,1.06,1.06,0,0,0-.16,1.42l-.67.41a1.85,1.85,0,0,1,.25-2.5,1.7,1.7,0,0,1,2.58-.08,2.45,2.45,0,0,1,.58,1.58l.25,2.42Z"/><path d="M175.3,200.67c-1.25-1.25-1.83-2.5-.67-3.75s2.5-.59,3.74.66,1.83,2.5.67,3.75S176.46,201.92,175.3,200.67Zm2.41-2.42c-.83-.83-1.75-1.42-2.5-.67s-.16,1.67.67,2.5,1.75,1.42,2.49.67S178.62,199.08,177.71,198.25Z"/><path d="M179.45,197.08l2.25-2.25.58.59L180,197.67Z"/><path d="M186.52,191.92l-.58.58.83.83-.67.67-.83-.83-2.16,2.16-.16-.16-.67-5.84.17-.16,2.74,2.75.58-.59Zm-1.83.66-1.33-1.33.25,2.42Z"/><path d="M186.27,190.25l2.24-2.25.58.58-2.24,2.25Z"/><path d="M193.07,185.83l.58.59-2.74,2.75-.33-.34-.33-3.5c-.09-.58-.17-1.08-.42-1.25-.41-.41-.91-.33-1.41.09a1,1,0,0,0-.17,1.41l-.66.42a1.84,1.84,0,0,1,.25-2.5,1.69,1.69,0,0,1,2.57-.08A2.4,2.4,0,0,1,191,185l.25,2.42Z"/><path d="M192.33,183.67c-1.25-1.25-1.83-2.5-.67-3.75s2.5-.59,3.74.66,1.83,2.5.67,3.75C194.74,185.5,193.49,184.83,192.33,183.67Zm2.41-2.5c-.83-.84-1.75-1.42-2.49-.67s-.17,1.67.66,2.5,1.75,1.42,2.49.67S195.57,182.08,194.74,181.17Z"/><path d="M200.31,178.67l.58.58L198.15,182l-.33-.33-.33-3.5c-.09-.59-.17-1.09-.42-1.25a.86.86,0,0,0-1.33.08,1.05,1.05,0,0,0-.17,1.42l-.66.41a1.84,1.84,0,0,1,.25-2.5,1.69,1.69,0,0,1,2.57-.08,2.41,2.41,0,0,1,.59,1.58l.25,2.42Z"/><path d="M199.48,176.42c-1.25-1.25-1.83-2.5-.67-3.75s2.5-.59,3.74.66,1.83,2.5.67,3.75S200.72,177.67,199.48,176.42ZM202,174c-.83-.83-1.74-1.42-2.49-.67s-.17,1.67.66,2.5,1.75,1.42,2.49.67S202.8,174.83,202,174Z"/><path d="M147.63,199.08l4.32,4.25-.66.67-3.41-3.42-.58,1.25-.59-.58Z"/><path d="M154.37,198.42a1.91,1.91,0,0,1-.17,2.75,2.19,2.19,0,0,1-2.24.5l.16-.84a1.35,1.35,0,0,0,1.41-.25,1.09,1.09,0,0,0,.17-1.58,1.08,1.08,0,0,0-1.58.08l-.41.42-.5-.5.33-.33a.87.87,0,0,0,.08-1.34.8.8,0,0,0-1.16.09,1.28,1.28,0,0,0-.33,1.08l-.75.08a2,2,0,0,1,.58-1.83,1.57,1.57,0,0,1,2.41-.08,1.29,1.29,0,0,1,.33,1.41A1.45,1.45,0,0,1,154.37,198.42Z"/><path d="M154.53,197.08l2.24-2.25.58.59-2.24,2.25Z"/><path d="M161.59,191.92l-.58.58.83.83-.67.67-.83-.83-2.16,2.16-.16-.16-.67-5.84.17-.16,2.74,2.75.58-.59Zm-1.83.66-1.33-1.33.25,2.42Z"/><path d="M161.34,190.25l2.24-2.25.58.58-2.24,2.25Z"/><path d="M168.15,185.83l.58.59L166,189.17l-.33-.34-.33-3.5c-.09-.58-.17-1.08-.42-1.25-.42-.41-.91-.33-1.41.09a1,1,0,0,0-.17,1.41l-.66.42a1.84,1.84,0,0,1,.25-2.5,1.69,1.69,0,0,1,2.57-.08,2.45,2.45,0,0,1,.58,1.58l.25,2.42Z"/><path d="M167.41,183.67c-1.25-1.25-1.83-2.5-.67-3.75s2.5-.59,3.74.66,1.83,2.5.67,3.75C169.82,185.5,168.57,184.83,167.41,183.67Zm2.41-2.5c-.83-.84-1.75-1.42-2.5-.67s-.16,1.67.67,2.5,1.74,1.42,2.49.67S170.65,182.08,169.82,181.17Z"/><path d="M175.38,178.67l.58.58L173.22,182l-.34-.33-.33-3.5c-.08-.59-.17-1.09-.41-1.25a.86.86,0,0,0-1.33.08,1.05,1.05,0,0,0-.17,1.42l-.66.41a1.83,1.83,0,0,1,.25-2.5,1.69,1.69,0,0,1,2.57-.08,2.45,2.45,0,0,1,.58,1.58l.25,2.42Z"/><path d="M174.55,176.42c-1.24-1.25-1.83-2.5-.66-3.75s2.49-.59,3.74.66,1.82,2.5.66,3.75S175.71,177.67,174.55,176.42ZM177,174c-.83-.83-1.74-1.42-2.49-.67s-.17,1.67.66,2.5,1.75,1.42,2.5.67S177.88,174.83,177,174Z"/><path d="M371.74,199.33l4.24,4.25-.59.67-3.4-3.42-.58,1.25-.59-.58Z"/><path d="M378.56,198.33a2,2,0,0,1-.09,3,2.38,2.38,0,0,1-2.49.59l.25-.84a1.43,1.43,0,0,0,1.66-.33,1.18,1.18,0,1,0-1.66-1.67,2,2,0,0,0-.58,1.42l-.67.08-1.74-2.5,2.24-2.25.58.59-1.74,1.75.91,1.41a2.28,2.28,0,0,1,.58-1.16A1.77,1.77,0,0,1,378.56,198.33Z"/><path d="M378.8,197.17l2.25-2.25.58.58-2.24,2.25Z"/><path d="M385.45,191.5a2,2,0,0,1-.08,2.92c-1,1-2.33.83-3.66-.5-1.08-1.09-1.83-2.75-.58-4.09a2,2,0,0,1,2.16-.5l-.33.84a1.08,1.08,0,0,0-1.25.25,1.81,1.81,0,0,0,.42,2.5,1.52,1.52,0,0,1,.5-1.5A2,2,0,0,1,385.45,191.5Zm-.66.67a1.26,1.26,0,0,0-1.67,0,1.2,1.2,0,0,0-.16,1.66,1.17,1.17,0,0,0,1.66,0A1.13,1.13,0,0,0,384.79,192.17Z"/><path d="M385.7,190.25l2.24-2.25.58.58-2.24,2.25Z"/><path d="M392.51,185.83l.58.59-2.74,2.75-.33-.34-.34-3.5c-.08-.58-.16-1.08-.41-1.25-.42-.41-.91-.33-1.41.09a1,1,0,0,0-.17,1.41L387,186a1.84,1.84,0,0,1,.24-2.5,1.7,1.7,0,0,1,2.58-.08,2.45,2.45,0,0,1,.58,1.58l.25,2.42Z"/><path d="M391.76,183.67c-1.24-1.25-1.83-2.5-.66-3.75s2.49-.59,3.74.66,1.83,2.5.66,3.75C394.17,185.5,392.93,184.83,391.76,183.67Zm2.41-2.5c-.83-.84-1.74-1.42-2.49-.67s-.17,1.67.67,2.5,1.74,1.42,2.49.67S395,182.08,394.17,181.17Z"/><path d="M399.74,178.67l.58.58L397.58,182l-.33-.33-.34-3.5c-.08-.59-.16-1.09-.41-1.25a.86.86,0,0,0-1.33.08,1.05,1.05,0,0,0-.17,1.42l-.66.41a1.84,1.84,0,0,1,.25-2.5,1.69,1.69,0,0,1,2.57-.08,2.4,2.4,0,0,1,.58,1.58l.25,2.42Z"/><path d="M398.91,176.42c-1.25-1.25-1.83-2.5-.67-3.75s2.49-.59,3.74.66,1.83,2.5.67,3.75S400.07,177.67,398.91,176.42Zm2.41-2.42c-.83-.83-1.75-1.42-2.5-.67s-.16,1.67.67,2.5,1.74,1.42,2.49.67S402.23,174.83,401.32,174Z"/><path d="M400.82,202.5l.58.58-2.74,2.75-.33-.33L398,202c-.08-.58-.16-1.08-.41-1.25a.87.87,0,0,0-1.33.08,1.05,1.05,0,0,0-.17,1.42l-.66.42a1.83,1.83,0,0,1,.25-2.5,1.69,1.69,0,0,1,2.57-.09,2.48,2.48,0,0,1,.58,1.59l.25,2.41Z"/><path d="M404.22,199.17l.58.58-2.74,2.75-.33-.33-.33-3.5c-.08-.59-.17-1.09-.42-1.25a.86.86,0,0,0-1.33.08,1.05,1.05,0,0,0-.16,1.42l-.67.41a1.85,1.85,0,0,1,.25-2.5,1.7,1.7,0,0,1,2.58-.08,2.45,2.45,0,0,1,.58,1.58l.25,2.42Z"/><path d="M403.73,197.17l2.24-2.25.58.58-2.24,2.25Z"/><path d="M410.38,191.5a2,2,0,0,1-.09,2.92c-1,1-2.32.83-3.65-.5-1.08-1.09-1.83-2.75-.59-4.09a2,2,0,0,1,2.16-.5l-.33.84a1.07,1.07,0,0,0-1.24.25,1.8,1.8,0,0,0,.41,2.5,1.55,1.55,0,0,1,.5-1.5A2.06,2.06,0,0,1,410.38,191.5Zm-.67.67a1.25,1.25,0,0,0-1.66,0,1.2,1.2,0,0,0-.17,1.66,1.18,1.18,0,0,0,1.67,0A1.12,1.12,0,0,0,409.71,192.17Z"/><path d="M410.62,190.25l2.24-2.25.59.58-2.25,2.25Z"/><path d="M417.43,185.83l.59.59-2.75,2.75-.33-.34-.33-3.5c-.08-.58-.17-1.08-.42-1.25a.87.87,0,0,0-1.33.09,1,1,0,0,0-.16,1.41L412,186a1.85,1.85,0,0,1,.25-2.5,1.7,1.7,0,0,1,2.58-.08,2.45,2.45,0,0,1,.58,1.58l.25,2.42Z"/><path d="M416.68,183.67c-1.24-1.25-1.82-2.5-.66-3.75s2.49-.59,3.74.66,1.83,2.5.66,3.75C419.09,185.5,417.85,184.83,416.68,183.67Zm2.41-2.5c-.83-.84-1.74-1.42-2.49-.67s-.16,1.67.67,2.5,1.74,1.42,2.49.67S419.92,182.08,419.09,181.17Z"/><path d="M424.67,178.67l.58.58L422.51,182l-.33-.33-.33-3.5c-.09-.59-.17-1.09-.42-1.25-.42-.42-.91-.34-1.41.08a1.05,1.05,0,0,0-.17,1.42l-.66.41a1.84,1.84,0,0,1,.25-2.5,1.69,1.69,0,0,1,2.57-.08,2.45,2.45,0,0,1,.58,1.58l.25,2.42Z"/><path d="M423.84,176.42c-1.25-1.25-1.83-2.5-.67-3.75s2.5-.59,3.74.66,1.83,2.5.67,3.75S425.08,177.67,423.84,176.42Zm2.49-2.42c-.83-.83-1.75-1.42-2.49-.67s-.17,1.67.66,2.5,1.75,1.42,2.49.67S427.16,174.83,426.33,174Z"/><path d="M353.71,198.5a2,2,0,0,1-.25,2.92,2,2,0,0,1-2.91.25,1.83,1.83,0,0,1-.41-2,1.44,1.44,0,0,1-1.25-.34,1.78,1.78,0,0,1,2.49-2.5,1.39,1.39,0,0,1,.33,1.25A1.8,1.8,0,0,1,353.71,198.5Zm-4.07.25a.72.72,0,0,0,1.08-.08.8.8,0,0,0,.08-1.09.82.82,0,0,0-1.16,1.17Zm3.32.33a1.2,1.2,0,0,0-1.74.09,1.31,1.31,0,0,0-.17,1.75,1.24,1.24,0,0,0,1.75-.17A1.08,1.08,0,0,0,353,199.08Z"/><path d="M353.88,197.17l2.24-2.25.58.58-2.24,2.25Z"/><path d="M360.53,191.5a2,2,0,0,1-.08,2.92c-1,1-2.33.83-3.66-.5-1.08-1.09-1.83-2.75-.58-4.09a2,2,0,0,1,2.16-.5l-.33.84a1.08,1.08,0,0,0-1.25.25,1.81,1.81,0,0,0,.41,2.5,1.55,1.55,0,0,1,.5-1.5A2.06,2.06,0,0,1,360.53,191.5Zm-.67.67a1.25,1.25,0,0,0-1.66,0,1.19,1.19,0,0,0-.16,1.66,1.17,1.17,0,0,0,1.66,0A1.12,1.12,0,0,0,359.86,192.17Z"/><path d="M360.77,190.25,363,188l.59.58-2.25,2.25Z"/><path d="M367.58,185.83l.59.59-2.75,2.75-.33-.34-.33-3.5c-.08-.58-.17-1.08-.42-1.25-.41-.41-.91-.33-1.41.09a1,1,0,0,0-.16,1.41l-.67.42a1.84,1.84,0,0,1,.25-2.5,1.69,1.69,0,0,1,2.57-.08,2.41,2.41,0,0,1,.59,1.58l.25,2.42Z"/><path d="M366.83,183.67c-1.24-1.25-1.82-2.5-.66-3.75s2.49-.59,3.74.66,1.82,2.5.66,3.75C369.24,185.5,368,184.83,366.83,183.67Zm2.41-2.5c-.83-.84-1.74-1.42-2.49-.67s-.17,1.67.67,2.5,1.74,1.42,2.49.67S370.07,182.08,369.24,181.17Z"/><path d="M374.82,178.67l.58.58L372.66,182l-.33-.33-.34-3.5c-.08-.59-.16-1.09-.41-1.25a.86.86,0,0,0-1.33.08,1.05,1.05,0,0,0-.17,1.42l-.66.41a1.83,1.83,0,0,1,.25-2.5,1.69,1.69,0,0,1,2.57-.08,2.45,2.45,0,0,1,.58,1.58l.25,2.42Z"/><path d="M374,176.42c-1.25-1.25-1.83-2.5-.67-3.75s2.49-.59,3.74.66,1.83,2.5.67,3.75S375.15,177.67,374,176.42Zm2.4-2.42c-.83-.83-1.74-1.42-2.49-.67s-.16,1.67.67,2.5,1.74,1.42,2.49.67S377.31,174.83,376.39,174Z"/><path d="M526.88,201.17l.59.58-2.75,2.75-.33-.33-.33-3.5c-.08-.59-.17-1.09-.42-1.25a.86.86,0,0,0-1.33.08,1.06,1.06,0,0,0-.16,1.42l-.67.41a1.84,1.84,0,0,1,.25-2.5,1.7,1.7,0,0,1,2.58-.08,2.45,2.45,0,0,1,.58,1.58l.25,2.42Z"/><path d="M526.79,193.92l2,6.41-.75.75-1.66-5.58-1.91,1.92-.58-.59Z"/><path d="M529.38,196.17l2.24-2.25.58.58L530,196.75Z"/><path d="M532.7,188l2,6.42-.75.75-1.66-5.59-1.91,1.92-.58-.58Z"/><path d="M535.28,190.25l2.24-2.25.58.58-2.24,2.25Z"/><path d="M542.09,185.83l.59.59-2.75,2.75-.33-.34-.33-3.5c-.08-.58-.17-1.08-.42-1.25a.86.86,0,0,0-1.32.09,1,1,0,0,0-.17,1.41l-.67.42a1.85,1.85,0,0,1,.25-2.5,1.7,1.7,0,0,1,2.58-.08,2.45,2.45,0,0,1,.58,1.58l.25,2.42Z"/><path d="M541.34,183.67c-1.24-1.25-1.82-2.5-.66-3.75s2.49-.59,3.74.66,1.83,2.5.66,3.75C543.76,185.5,542.51,184.83,541.34,183.67Zm2.41-2.5c-.83-.84-1.74-1.42-2.49-.67s-.16,1.67.67,2.5,1.74,1.42,2.49.67S544.59,182.08,543.75,181.17Z"/><path d="M549.32,178.67l.58.58L547.15,182l-.33-.33-.33-3.5c-.08-.59-.17-1.09-.42-1.25-.41-.42-.91-.34-1.41.08a1.05,1.05,0,0,0-.16,1.42l-.67.41a1.84,1.84,0,0,1,.25-2.5,1.7,1.7,0,0,1,2.58-.08,2.45,2.45,0,0,1,.58,1.58l.25,2.42Z"/><path d="M548.49,176.42c-1.24-1.25-1.82-2.5-.66-3.75s2.49-.59,3.74.66,1.83,2.5.66,3.75S549.74,177.67,548.49,176.42ZM551,174c-.83-.83-1.75-1.42-2.5-.67s-.16,1.67.67,2.5,1.74,1.42,2.49.67S551.82,174.83,551,174Z"/><path d="M553.06,198.5a1.9,1.9,0,0,1-.17,2.75,2.19,2.19,0,0,1-2.24.5l.17-.83a1.39,1.39,0,0,0,1.41-.25,1.11,1.11,0,0,0,.17-1.59,1.09,1.09,0,0,0-1.58.09l-.42.41-.5-.5.33-.33a.87.87,0,0,0,.09-1.33.8.8,0,0,0-1.16.08,1.32,1.32,0,0,0-.34,1.08l-.74.09a2,2,0,0,1,.58-1.84,1.57,1.57,0,0,1,2.41-.08,1.34,1.34,0,0,1,.33,1.42A1.43,1.43,0,0,1,553.06,198.5Z"/><path d="M553.31,197.17l2.25-2.25.58.58-2.25,2.25Z"/><path d="M560,191.58a2,2,0,0,1-.25,2.92,2,2,0,0,1-2.91.25,1.83,1.83,0,0,1-.41-2,1.48,1.48,0,0,1-1.25-.33,1.64,1.64,0,0,1,.17-2.34,1.61,1.61,0,0,1,2.33-.16,1.41,1.41,0,0,1,.33,1.25A1.67,1.67,0,0,1,560,191.58Zm-4.07.25a.71.71,0,0,0,1.08-.08.77.77,0,1,0-1.08-1.08A.8.8,0,0,0,556,191.83Zm3.32.34a1.2,1.2,0,0,0-1.74.08,1.31,1.31,0,0,0-.17,1.75,1.22,1.22,0,0,0,1.75-.17A1.12,1.12,0,0,0,559.29,192.17Z"/><path d="M560.2,190.25l2.25-2.25.58.58-2.25,2.25Z"/><path d="M566.94,185.83l.58.59-2.74,2.75-.33-.34-.34-3.5c-.08-.58-.16-1.08-.41-1.25a.87.87,0,0,0-1.33.09,1,1,0,0,0-.17,1.41l-.66.42a1.84,1.84,0,0,1,.25-2.5,1.69,1.69,0,0,1,2.57-.08A2.41,2.41,0,0,1,565,185l.24,2.42Z"/><path d="M566.19,183.67c-1.25-1.25-1.83-2.5-.67-3.75s2.5-.59,3.74.66,1.83,2.5.67,3.75S567.35,184.83,566.19,183.67Zm2.41-2.5c-.83-.84-1.75-1.42-2.49-.67s-.17,1.67.66,2.5,1.75,1.42,2.49.67S569.51,182.08,568.6,181.17Z"/><path d="M574.16,178.67l.59.58L572,182l-.34-.33-.33-3.5c-.08-.59-.17-1.09-.42-1.25a.86.86,0,0,0-1.33.08,1.06,1.06,0,0,0-.16,1.42l-.66.41a1.83,1.83,0,0,1,.24-2.5,1.7,1.7,0,0,1,2.58-.08,2.45,2.45,0,0,1,.58,1.58l.25,2.42Z"/><path d="M573.41,176.42c-1.24-1.25-1.82-2.5-.66-3.75s2.49-.59,3.74.66,1.83,2.5.66,3.75S574.58,177.67,573.41,176.42Zm2.42-2.42c-.84-.83-1.75-1.42-2.5-.67s-.16,1.67.67,2.5,1.74,1.42,2.49.67S576.66,174.83,575.83,174Z"/><path d="M570.92,199.58l4.24,4.25-.66.67-3.41-3.42-.58,1.25-.58-.58Z"/><path d="M574,200.75c-1.25-1.25-1.83-2.5-.67-3.75s2.5-.58,3.74.67,1.83,2.5.67,3.75S575.24,202,574,200.75Zm2.49-2.42c-.83-.83-1.75-1.41-2.49-.66s-.17,1.66.66,2.5,1.75,1.41,2.5.66S577.32,199.17,576.49,198.33Z"/><path d="M578.24,197.17l2.24-2.25.58.58-2.24,2.25Z"/><path d="M585,191.58a2,2,0,0,1-.25,2.92c-.92.92-2.16,1.08-2.91.25a1.85,1.85,0,0,1-.42-2,1.45,1.45,0,0,1-1.24-.33,1.64,1.64,0,0,1,.16-2.34,1.61,1.61,0,0,1,2.33-.16,1.38,1.38,0,0,1,.33,1.25A1.68,1.68,0,0,1,585,191.58Zm-4.07.25a.71.71,0,0,0,1.08-.08.79.79,0,0,0,.08-1.08.87.87,0,0,0-1.16,0A.79.79,0,0,0,580.9,191.83Zm3.32.34a1.21,1.21,0,0,0-1.75.08,1.3,1.3,0,0,0-.16,1.75,1.21,1.21,0,0,0,1.74-.17A1.11,1.11,0,0,0,584.22,192.17Z"/><path d="M585.14,190.25l2.24-2.25.58.58-2.24,2.25Z"/><path d="M591.86,185.83l.59.59-2.75,2.75-.33-.34-.33-3.5c-.08-.58-.17-1.08-.42-1.25a.87.87,0,0,0-1.33.09,1,1,0,0,0-.16,1.41l-.67.42a1.85,1.85,0,0,1,.25-2.5,1.7,1.7,0,0,1,2.58-.08,2.45,2.45,0,0,1,.58,1.58l.25,2.42Z"/><path d="M591.11,183.67c-1.24-1.25-1.82-2.5-.66-3.75s2.49-.59,3.74.66,1.83,2.5.66,3.75S592.28,184.83,591.11,183.67Zm2.41-2.5c-.83-.84-1.74-1.42-2.49-.67s-.17,1.67.67,2.5,1.74,1.42,2.49.67S594.44,182.08,593.52,181.17Z"/><path d="M599.09,178.67l.58.58L596.93,182l-.33-.33-.33-3.5c-.09-.59-.17-1.09-.42-1.25-.41-.42-.91-.34-1.41.08a1.05,1.05,0,0,0-.17,1.42l-.66.41a1.84,1.84,0,0,1,.25-2.5,1.69,1.69,0,0,1,2.57-.08,2.41,2.41,0,0,1,.59,1.58l.24,2.42Z"/><path d="M598.34,176.42c-1.24-1.25-1.82-2.5-.66-3.75s2.49-.59,3.74.66,1.83,2.5.66,3.75C600.76,178.25,599.51,177.67,598.34,176.42Zm2.42-2.42c-.84-.83-1.75-1.42-2.5-.67s-.16,1.67.67,2.5,1.74,1.42,2.49.67S601.59,174.83,600.76,174Z"/><path d="M596.69,198.75l4.32,4.33-.67.67-3.4-3.42-.59,1.25-.58-.58Z"/><path d="M600.6,194.92l2,6.41-.75.75-1.66-5.58-1.91,1.92-.58-.59Z"/><path d="M603.17,197.17l2.24-2.25.59.58-2.25,2.25Z"/><path d="M609.9,191.58a2,2,0,0,1-.25,2.92,2,2,0,0,1-2.91.25,1.83,1.83,0,0,1-.41-2,1.48,1.48,0,0,1-1.25-.33,1.64,1.64,0,0,1,.17-2.34,1.6,1.6,0,0,1,2.32-.16,1.38,1.38,0,0,1,.34,1.25A1.67,1.67,0,0,1,609.9,191.58Zm-4.07.25a.71.71,0,0,0,1.08-.08.79.79,0,0,0,.08-1.08.87.87,0,0,0-1.16,0A.8.8,0,0,0,605.83,191.83Zm3.32.34a1.2,1.2,0,0,0-1.74.08,1.31,1.31,0,0,0-.17,1.75,1.22,1.22,0,0,0,1.75-.17A1.12,1.12,0,0,0,609.15,192.17Z"/><path d="M610.07,190.25l2.24-2.25.58.58-2.24,2.25Z"/><path d="M616.8,185.83l.58.59-2.74,2.75-.34-.34-.33-3.5c-.08-.58-.16-1.08-.41-1.25a.87.87,0,0,0-1.33.09,1,1,0,0,0-.17,1.41l-.66.42a1.84,1.84,0,0,1,.25-2.5,1.69,1.69,0,0,1,2.57-.08,2.45,2.45,0,0,1,.58,1.58l.25,2.42Z"/><path d="M616.05,183.67c-1.25-1.25-1.83-2.5-.67-3.75s2.5-.59,3.74.66,1.83,2.5.67,3.75S617.21,184.83,616.05,183.67Zm2.41-2.5c-.83-.84-1.75-1.42-2.49-.67s-.17,1.67.66,2.5,1.75,1.42,2.49.67S619.37,182.08,618.46,181.17Z"/><path d="M624,178.67l.58.58L621.87,182l-.33-.33-.33-3.5c-.09-.59-.17-1.09-.42-1.25-.42-.42-.91-.34-1.41.08a1.05,1.05,0,0,0-.17,1.42l-.66.41a1.83,1.83,0,0,1,.24-2.5,1.7,1.7,0,0,1,2.58-.08,2.45,2.45,0,0,1,.58,1.58l.25,2.42Z"/><path d="M623.28,176.42c-1.25-1.25-1.83-2.5-.67-3.75s2.5-.59,3.74.66,1.83,2.5.67,3.75C625.69,178.25,624.44,177.67,623.28,176.42Zm2.41-2.42c-.83-.83-1.75-1.42-2.49-.67s-.17,1.67.66,2.5,1.74,1.42,2.49.67S626.52,174.83,625.69,174Z"/><path d="M624.77,202.92l.58.58-2.74,2.75-.33-.33-.33-3.5c-.09-.59-.17-1.09-.42-1.25a.86.86,0,0,0-1.33.08,1.05,1.05,0,0,0-.17,1.42l-.66.41a1.84,1.84,0,0,1,.25-2.5,1.7,1.7,0,0,1,2.58-.08,2.45,2.45,0,0,1,.58,1.58l.25,2.42Z"/><path d="M628.34,198.83l-.58.59.83.83-.66.67-.83-.84-2.16,2.17-.17-.17-.67-5.83.17-.17,2.74,2.75.58-.58Zm-1.91.67-1.33-1.33.25,2.41Z"/><path d="M628.1,197.17l2.24-2.25.58.58-2.24,2.25Z"/><path d="M634.83,191.58a2.05,2.05,0,0,1-.25,2.92c-.92.92-2.16,1.08-2.91.25a1.83,1.83,0,0,1-.42-2,1.45,1.45,0,0,1-1.24-.33,1.64,1.64,0,0,1,.16-2.34,1.61,1.61,0,0,1,2.33-.16,1.41,1.41,0,0,1,.33,1.25A1.68,1.68,0,0,1,634.83,191.58Zm-4.07.25a.71.71,0,0,0,1.08-.08.77.77,0,1,0-1.08.08Zm3.32.34a1.21,1.21,0,0,0-1.75.08,1.3,1.3,0,0,0-.16,1.75,1.21,1.21,0,0,0,1.74-.17A1.13,1.13,0,0,0,634.08,192.17Z"/><path d="M635,190.25l2.25-2.25.58.58-2.25,2.25Z"/><path d="M641.72,185.83l.58.59-2.74,2.75-.33-.34-.33-3.5c-.09-.58-.17-1.08-.42-1.25-.41-.41-.91-.33-1.41.09a1,1,0,0,0-.17,1.41l-.66.42a1.84,1.84,0,0,1,.25-2.5,1.69,1.69,0,0,1,2.57-.08,2.45,2.45,0,0,1,.58,1.58l.25,2.42Z"/><path d="M641,183.67c-1.25-1.25-1.83-2.5-.67-3.75s2.5-.59,3.74.66,1.83,2.5.67,3.75S642.14,184.83,641,183.67Zm2.41-2.5c-.83-.84-1.75-1.42-2.49-.67s-.17,1.67.66,2.5,1.74,1.42,2.49.67S644.3,182.08,643.39,181.17Z"/><path d="M649,178.67l.59.58L646.79,182l-.33-.33-.33-3.5c-.08-.59-.17-1.09-.42-1.25a.86.86,0,0,0-1.33.08,1.06,1.06,0,0,0-.16,1.42l-.67.41a1.84,1.84,0,0,1,.25-2.5,1.7,1.7,0,0,1,2.58-.08,2.45,2.45,0,0,1,.58,1.58l.25,2.42Z"/><path d="M648.2,176.42c-1.25-1.25-1.83-2.5-.66-3.75s2.49-.59,3.74.66,1.82,2.5.66,3.75C650.61,178.25,649.36,177.67,648.2,176.42Zm2.41-2.42c-.83-.83-1.75-1.42-2.49-.67s-.17,1.67.66,2.5,1.75,1.42,2.5.67S651.44,174.83,650.61,174Z"/><path d="M650.44,200.83a1.9,1.9,0,0,1-.16,2.75,2.19,2.19,0,0,1-2.25.5l.17-.83a1.37,1.37,0,0,0,1.41-.25,1.1,1.1,0,0,0,.17-1.58,1.08,1.08,0,0,0-1.58.08l-.42.42-.5-.5.34-.34a.87.87,0,0,0,.08-1.33.75.75,0,0,0-1.16.08,1.3,1.3,0,0,0-.33,1.09l-.75.08a2,2,0,0,1,.58-1.83,1.57,1.57,0,0,1,2.41-.09,1.32,1.32,0,0,1,.33,1.42A1.43,1.43,0,0,1,650.44,200.83Z"/><path d="M649.53,195.75l4.32,4.33-.66.67-3.41-3.42-.58,1.25-.58-.58Z"/><path d="M653,197.17l2.24-2.25.58.58-2.24,2.25Z"/><path d="M659.75,191.58a2,2,0,0,1-.25,2.92,2,2,0,0,1-2.91.25,1.83,1.83,0,0,1-.41-2,1.48,1.48,0,0,1-1.25-.33,1.64,1.64,0,0,1,.17-2.34,1.61,1.61,0,0,1,2.33-.16,1.41,1.41,0,0,1,.33,1.25A1.67,1.67,0,0,1,659.75,191.58Zm-4.07.25a.71.71,0,0,0,1.08-.08.77.77,0,1,0-1.08-1.08A.8.8,0,0,0,655.68,191.83Zm3.32.34a1.2,1.2,0,0,0-1.74.08,1.31,1.31,0,0,0-.17,1.75,1.22,1.22,0,0,0,1.75-.17A1.12,1.12,0,0,0,659,192.17Z"/><path d="M659.91,190.25l2.24-2.25.58.58-2.24,2.25Z"/><path d="M666.65,185.83l.58.59-2.74,2.75-.34-.34-.33-3.5c-.08-.58-.16-1.08-.41-1.25-.42-.41-.92-.33-1.42.09a1,1,0,0,0-.16,1.41l-.67.42a1.84,1.84,0,0,1,.25-2.5,1.7,1.7,0,0,1,2.58-.08,2.45,2.45,0,0,1,.58,1.58l.25,2.42Z"/><path d="M665.9,183.67c-1.25-1.25-1.83-2.5-.67-3.75s2.5-.59,3.74.66,1.83,2.5.67,3.75S667.06,184.83,665.9,183.67Zm2.41-2.5c-.83-.84-1.75-1.42-2.49-.67s-.17,1.67.66,2.5,1.75,1.42,2.49.67S669.22,182.08,668.31,181.17Z"/><path d="M673.87,178.67l.58.58L671.71,182l-.33-.33-.33-3.5c-.09-.59-.17-1.09-.42-1.25a.86.86,0,0,0-1.33.08,1.05,1.05,0,0,0-.16,1.42l-.67.41a1.84,1.84,0,0,1,.25-2.5,1.7,1.7,0,0,1,2.58-.08,2.45,2.45,0,0,1,.58,1.58l.25,2.42Z"/><path d="M673.13,176.42c-1.24-1.25-1.82-2.5-.66-3.75s2.49-.59,3.74.66,1.83,2.5.66,3.75C675.54,178.25,674.3,177.67,673.13,176.42Zm2.41-2.42c-.83-.83-1.74-1.42-2.49-.67s-.16,1.67.67,2.5,1.74,1.42,2.49.67S676.37,174.83,675.54,174Z"/><path d="M675.37,194.92l2,6.41-.75.75L675,196.5l-1.91,1.92-.58-.59Z"/><path d="M678,197.17l2.24-2.25.58.58-2.24,2.25Z"/><path d="M683.6,190.67c1.08,1.08,1.83,2.75.5,4.08a2,2,0,0,1-2.16.5l.33-.83a1.12,1.12,0,0,0,1.25-.25,1.88,1.88,0,0,0-.33-2.5,1.87,1.87,0,0,1-.5,1.5,2.06,2.06,0,0,1-2.83.08,2,2,0,0,1,.09-2.92C681,189.17,682.44,189.42,683.6,190.67Zm-1.24.08a1.12,1.12,0,0,0-1.67,0,1.13,1.13,0,0,0-.08,1.67,1.21,1.21,0,0,0,1.75-1.67Z"/><path d="M684.84,190.25l2.25-2.25.58.58-2.25,2.25Z"/><path d="M691.58,185.83l.58.59-2.74,2.75-.34-.34-.33-3.5c-.08-.58-.16-1.08-.41-1.25-.42-.41-.92-.33-1.42.09a1,1,0,0,0-.16,1.41l-.67.42a1.84,1.84,0,0,1,.25-2.5,1.7,1.7,0,0,1,2.58-.08,2.45,2.45,0,0,1,.58,1.58l.25,2.42Z"/><path d="M690.83,183.67c-1.25-1.25-1.83-2.5-.67-3.75s2.5-.59,3.74.66,1.83,2.5.67,3.75S692,184.83,690.83,183.67Zm2.41-2.5c-.83-.84-1.75-1.42-2.49-.67s-.17,1.67.66,2.5,1.75,1.42,2.49.67S694.15,182.08,693.24,181.17Z"/><path d="M698.81,178.67l.58.58L696.65,182l-.33-.33-.34-3.5c-.08-.59-.16-1.09-.41-1.25a.86.86,0,0,0-1.33.08,1.05,1.05,0,0,0-.17,1.42l-.66.41a1.84,1.84,0,0,1,.25-2.5,1.69,1.69,0,0,1,2.57-.08,2.41,2.41,0,0,1,.59,1.58l.25,2.42Z"/><path d="M698.06,176.42c-1.25-1.25-1.83-2.5-.66-3.75s2.49-.59,3.73.66,1.83,2.5.67,3.75C700.47,178.33,699.22,177.67,698.06,176.42Zm2.41-2.42c-.83-.83-1.75-1.42-2.49-.67s-.17,1.67.66,2.5,1.75,1.42,2.49.67S701.3,174.83,700.47,174Z"/><path d="M695.64,199.5l4.33,4.33-.67.67-3.41-3.42-.58,1.25-.58-.58Z"/><path d="M703.12,198.83l-.58.59.83.83-.66.67-.83-.84-2.16,2.17-.17-.17-.66-5.83.16-.17,2.74,2.75.59-.58Zm-1.91.67-1.33-1.33.25,2.41Z"/><path d="M702.88,197.17l2.24-2.25.58.58-2.24,2.25Z"/><path d="M708.52,190.67c1.08,1.08,1.83,2.75.5,4.08a2,2,0,0,1-2.16.5l.33-.83a1.12,1.12,0,0,0,1.25-.25,1.87,1.87,0,0,0-.34-2.5,1.83,1.83,0,0,1-.49,1.5,2.06,2.06,0,0,1-2.83.08,2,2,0,0,1,.08-2.92C705.94,189.17,707.36,189.42,708.52,190.67Zm-1.25.08a1.11,1.11,0,0,0-1.66,0,1.12,1.12,0,0,0-.08,1.67,1.21,1.21,0,0,0,1.74-1.67Z"/><path d="M709.77,190.25,712,188l.58.58-2.25,2.25Z"/><path d="M716.51,185.83l.58.59-2.75,2.75-.33-.34-.33-3.5c-.08-.58-.17-1.08-.41-1.25a.88.88,0,0,0-1.34.09,1,1,0,0,0-.16,1.41l-.67.42a1.85,1.85,0,0,1,.25-2.5,1.7,1.7,0,0,1,2.58-.08,2.45,2.45,0,0,1,.58,1.58l.25,2.42Z"/><path d="M715.75,183.67c-1.25-1.25-1.83-2.5-.67-3.75s2.5-.59,3.74.66,1.83,2.5.67,3.75S716.91,184.83,715.75,183.67Zm2.41-2.5c-.83-.84-1.75-1.42-2.5-.67s-.16,1.67.67,2.5,1.74,1.42,2.49.67S719.07,182.08,718.16,181.17Z"/><path d="M723.73,178.67l.58.58L721.57,182l-.34-.33-.33-3.5c-.08-.59-.16-1.09-.41-1.25a.86.86,0,0,0-1.33.08,1.05,1.05,0,0,0-.17,1.42l-.66.41a1.83,1.83,0,0,1,.25-2.5,1.69,1.69,0,0,1,2.57-.08,2.45,2.45,0,0,1,.58,1.58l.25,2.42Z"/><path d="M723,176.42c-1.25-1.25-1.83-2.5-.66-3.75s2.49-.59,3.74.66,1.82,2.5.66,3.75C725.39,178.25,724.15,177.67,723,176.42Zm2.41-2.42c-.83-.83-1.74-1.42-2.49-.67s-.17,1.67.66,2.5,1.75,1.42,2.5.67S726.22,174.83,725.39,174Z"/><path d="M725.91,201.5l.58.58-2.74,2.75-.34-.33-.33-3.5c-.08-.58-.16-1.08-.41-1.25a.87.87,0,0,0-1.33.08,1.05,1.05,0,0,0-.17,1.42l-.66.42a1.83,1.83,0,0,1,.25-2.5,1.69,1.69,0,0,1,2.57-.09,2.48,2.48,0,0,1,.58,1.59l.25,2.41Z"/><path d="M724.33,195.75l4.32,4.33-.67.67-3.4-3.42-.58,1.25-.59-.58Z"/><path d="M727.82,197.17l2.24-2.25.58.58-2.24,2.25Z"/><path d="M733.47,190.67c1.08,1.08,1.83,2.75.5,4.08a2,2,0,0,1-2.16.5l.33-.83a1.12,1.12,0,0,0,1.25-.25,1.88,1.88,0,0,0-.33-2.5,1.87,1.87,0,0,1-.5,1.5,2.06,2.06,0,0,1-2.83.08,2,2,0,0,1,.09-2.92C730.9,189.17,732.31,189.42,733.47,190.67Zm-1.24.08a1.11,1.11,0,0,0-1.66,0,1.12,1.12,0,0,0-.09,1.67,1.21,1.21,0,0,0,1.75-1.67Z"/><path d="M734.72,190.25,737,188l.58.58-2.24,2.25Z"/><path d="M741.45,185.83l.58.59-2.74,2.75-.33-.34-.33-3.5c-.09-.58-.17-1.08-.42-1.25-.41-.41-.91-.33-1.41.09a1,1,0,0,0-.17,1.41L736,186a1.84,1.84,0,0,1,.25-2.5,1.69,1.69,0,0,1,2.57-.08,2.4,2.4,0,0,1,.58,1.58l.25,2.42Z"/><path d="M740.7,183.67c-1.25-1.25-1.83-2.5-.66-3.75s2.49-.59,3.74.66,1.82,2.5.66,3.75S741.86,184.83,740.7,183.67Zm2.41-2.5c-.83-.84-1.75-1.42-2.49-.67s-.17,1.67.66,2.5,1.75,1.42,2.5.67S744,182.08,743.11,181.17Z"/><path d="M748.67,178.67l.58.58L746.51,182l-.33-.33-.34-3.5c-.08-.59-.16-1.09-.41-1.25a.86.86,0,0,0-1.33.08,1.05,1.05,0,0,0-.17,1.42l-.66.41a1.84,1.84,0,0,1,.25-2.5,1.69,1.69,0,0,1,2.57-.08,2.4,2.4,0,0,1,.58,1.58l.25,2.42Z"/><path d="M747.93,176.42c-1.25-1.25-1.83-2.5-.66-3.75s2.49-.59,3.74.66,1.82,2.5.66,3.75C750.34,178.25,749.09,177.67,747.93,176.42Zm2.41-2.42c-.83-.83-1.74-1.42-2.49-.67s-.17,1.67.66,2.5,1.75,1.42,2.5.67S751.17,174.83,750.34,174Z"/><path d="M749.33,203l.58.58-2.74,2.75-.33-.33-.33-3.5c-.09-.58-.17-1.08-.42-1.25a.87.87,0,0,0-1.33.08,1.06,1.06,0,0,0-.16,1.42l-.67.42a1.84,1.84,0,0,1,.25-2.5,1.7,1.7,0,0,1,2.58-.09,2.48,2.48,0,0,1,.58,1.59l.25,2.41Z"/><path d="M752.49,198.5a2,2,0,0,1-.25,2.92,2,2,0,0,1-2.91.25,1.83,1.83,0,0,1-.41-2,1.45,1.45,0,0,1-1.25-.34,1.78,1.78,0,0,1,2.49-2.5,1.4,1.4,0,0,1,.34,1.25A1.76,1.76,0,0,1,752.49,198.5Zm-4.07.25a.72.72,0,0,0,1.08-.08.77.77,0,1,0-1.08-1.09A1,1,0,0,0,748.42,198.75Zm3.41.33a1.21,1.21,0,0,0-1.75.09,1.31,1.31,0,0,0-.17,1.75,1.24,1.24,0,0,0,1.75-.17A1.14,1.14,0,0,0,751.83,199.08Z"/><path d="M752.74,197.17l2.24-2.25.58.58-2.24,2.25Z"/><path d="M758.39,190.67c1.08,1.08,1.83,2.75.5,4.08a2,2,0,0,1-2.16.5l.33-.83a1.12,1.12,0,0,0,1.25-.25,1.87,1.87,0,0,0-.34-2.5,1.83,1.83,0,0,1-.49,1.5,2.06,2.06,0,0,1-2.83.08,2,2,0,0,1,.08-2.92C755.82,189.17,757.23,189.42,758.39,190.67Zm-1.24.08a1.21,1.21,0,0,0-1.75,1.67,1.21,1.21,0,0,0,1.75-1.67Z"/><path d="M759.64,190.25l2.24-2.25.59.58-2.25,2.25Z"/><path d="M766.37,185.83l.58.59-2.74,2.75-.33-.34-.34-3.5c-.08-.58-.16-1.08-.41-1.25a.87.87,0,0,0-1.33.09,1,1,0,0,0-.17,1.41L761,186a1.84,1.84,0,0,1,.25-2.5,1.69,1.69,0,0,1,2.57-.08,2.4,2.4,0,0,1,.58,1.58l.25,2.42Z"/><path d="M765.62,183.67c-1.25-1.25-1.83-2.5-.67-3.75s2.5-.59,3.74.66,1.83,2.5.67,3.75S766.78,184.83,765.62,183.67Zm2.41-2.5c-.83-.84-1.75-1.42-2.5-.67s-.16,1.67.67,2.5,1.75,1.42,2.49.67S768.94,182.08,768,181.17Z"/><path d="M773.6,178.67l.58.58L771.44,182l-.33-.33-.34-3.5c-.08-.59-.16-1.09-.41-1.25A.86.86,0,0,0,769,177a1.05,1.05,0,0,0-.17,1.42l-.66.41a1.84,1.84,0,0,1,.25-2.5,1.69,1.69,0,0,1,2.57-.08,2.45,2.45,0,0,1,.58,1.58l.25,2.42Z"/><path d="M772.85,176.42c-1.25-1.25-1.83-2.5-.67-3.75s2.5-.59,3.74.66,1.83,2.5.67,3.75C775.26,178.25,774,177.67,772.85,176.42Zm2.41-2.42c-.83-.83-1.75-1.42-2.49-.67s-.17,1.67.66,2.5,1.74,1.42,2.49.67S776.09,174.83,775.26,174Z"/><path d="M775.17,200.58a2,2,0,0,1-.08,3,2.38,2.38,0,0,1-2.49.59l.25-.84a1.43,1.43,0,0,0,1.66-.33,1.18,1.18,0,1,0-1.66-1.67,2,2,0,0,0-.58,1.42l-.67.08-1.75-2.5,2.25-2.25.58.59-1.74,1.75.91,1.41a2.21,2.21,0,0,1,.58-1.16A1.76,1.76,0,0,1,775.17,200.58Z"/><path d="M775.42,199.42l2.24-2.25.58.58L776,200Z"/><path d="M777.25,192.67l4.23,4.33-.66.67-3.41-3.42-.58,1.25-.58-.58Z"/><path d="M780.4,193.83c-1.24-1.25-1.82-2.5-.66-3.75s2.49-.58,3.74.67,1.83,2.5.66,3.75C782.81,195.75,781.57,195.08,780.4,193.83Zm2.41-2.41c-.83-.84-1.74-1.42-2.49-.67s-.17,1.67.66,2.5,1.75,1.42,2.5.67S783.64,192.25,782.81,191.42Z"/><path d="M784.56,190.25l2.25-2.25.58.58-2.25,2.25Z"/><path d="M791.29,185.83l.59.59-2.75,2.75-.33-.34-.33-3.5c-.08-.58-.17-1.08-.42-1.25a.87.87,0,0,0-1.33.09,1,1,0,0,0-.16,1.41l-.67.42a1.85,1.85,0,0,1,.25-2.5,1.7,1.7,0,0,1,2.58-.08,2.45,2.45,0,0,1,.58,1.58l.25,2.42Z"/><path d="M790.55,183.67c-1.25-1.25-1.83-2.5-.67-3.75s2.5-.59,3.74.66,1.83,2.5.67,3.75S791.71,184.83,790.55,183.67Zm2.41-2.5c-.83-.84-1.75-1.42-2.49-.67s-.17,1.67.66,2.5,1.75,1.42,2.49.67S793.87,182.08,793,181.17Z"/><path d="M798.52,178.67l.58.58L796.36,182l-.34-.33-.33-3.5c-.08-.59-.16-1.09-.41-1.25A.86.86,0,0,0,794,177a1.05,1.05,0,0,0-.17,1.42l-.66.41a1.83,1.83,0,0,1,.24-2.5,1.7,1.7,0,0,1,2.58-.08,2.45,2.45,0,0,1,.58,1.58l.25,2.42Z"/><path d="M797.78,176.42c-1.25-1.25-1.83-2.5-.67-3.75s2.5-.59,3.74.66,1.83,2.5.67,3.75C800.19,178.25,798.94,177.67,797.78,176.42Zm2.41-2.42c-.83-.83-1.75-1.42-2.49-.67s-.17,1.67.66,2.5,1.74,1.42,2.49.67S801,174.83,800.19,174Z"/><path d="M793.45,201.33l4.32,4.34-.66.66-3.41-3.41-.58,1.25-.58-.59Z"/><path d="M800.77,201.33l.58.59-2.74,2.75-.34-.34-.33-3.5c-.08-.58-.16-1.08-.41-1.25a.87.87,0,0,0-1.33.09,1,1,0,0,0-.17,1.41l-.66.42a1.83,1.83,0,0,1,.24-2.5,1.7,1.7,0,0,1,2.58-.08,2.45,2.45,0,0,1,.58,1.58l.25,2.42Z"/><path d="M800.35,199.42l2.24-2.25.59.58L800.93,200Z"/><path d="M802.17,192.67l4.24,4.33-.66.67-3.41-3.42-.58,1.25-.58-.58Z"/><path d="M805.33,193.83c-1.24-1.25-1.82-2.5-.66-3.75s2.49-.58,3.74.67,1.82,2.5.66,3.75C807.74,195.75,806.5,195.08,805.33,193.83Zm2.41-2.41c-.83-.84-1.74-1.42-2.49-.67s-.17,1.67.66,2.5,1.75,1.42,2.5.67S808.57,192.25,807.74,191.42Z"/><path d="M809.48,190.25l2.25-2.25.58.58-2.24,2.25Z"/><path d="M816.22,185.83l.58.59-2.74,2.75-.33-.34-.33-3.5c-.08-.58-.17-1.08-.42-1.25a.87.87,0,0,0-1.33.09,1,1,0,0,0-.16,1.41l-.67.42a1.85,1.85,0,0,1,.25-2.5,1.7,1.7,0,0,1,2.58-.08,2.45,2.45,0,0,1,.58,1.58l.25,2.42Z"/><path d="M815.47,183.67c-1.24-1.25-1.82-2.5-.66-3.75s2.49-.59,3.74.66,1.83,2.5.66,3.75S816.64,184.83,815.47,183.67Zm2.41-2.5c-.83-.84-1.74-1.42-2.49-.67s-.17,1.67.67,2.5,1.74,1.42,2.49.67S818.8,182.08,817.88,181.17Z"/><path d="M823.45,178.67l.58.58L821.29,182l-.34-.33-.33-3.5c-.08-.59-.16-1.09-.41-1.25a.86.86,0,0,0-1.33.08,1.05,1.05,0,0,0-.17,1.42l-.66.41a1.83,1.83,0,0,1,.24-2.5,1.7,1.7,0,0,1,2.58-.08,2.45,2.45,0,0,1,.58,1.58l.25,2.42Z"/><path d="M822.71,176.42c-1.25-1.25-1.83-2.5-.67-3.75s2.5-.59,3.74.66,1.83,2.5.67,3.75C825.12,178.25,823.87,177.67,822.71,176.42Zm2.41-2.42c-.83-.83-1.75-1.42-2.49-.67s-.17,1.67.66,2.5,1.74,1.42,2.49.67S826,174.83,825.12,174Z"/><path d="M818,201.75l4.32,4.33-.66.67-3.41-3.42-.58,1.25-.58-.58Z"/><path d="M824.11,199.75c1.08,1.08,1.83,2.75.5,4.08a2,2,0,0,1-2.16.5l.33-.83a1.1,1.1,0,0,0,1.25-.25,1.87,1.87,0,0,0-.34-2.5,1.83,1.83,0,0,1-.49,1.5,2,2,0,0,1-2.83.08,2,2,0,0,1,.08-2.91C821.45,198.25,822.86,198.58,824.11,199.75Zm-1.33.08a1.11,1.11,0,0,0-1.66,0,1.13,1.13,0,0,0-.09,1.67,1.21,1.21,0,0,0,1.75-1.67Z"/><path d="M825.27,199.42l2.25-2.25.58.58L825.85,200Z"/><path d="M827.1,192.67l4.24,4.33-.67.67-3.4-3.42-.58,1.25-.59-.58Z"/><path d="M830.26,193.83c-1.24-1.25-1.83-2.5-.66-3.75s2.49-.58,3.74.67,1.82,2.5.66,3.75C832.67,195.75,831.43,195.08,830.26,193.83Zm2.41-2.41c-.83-.84-1.74-1.42-2.49-.67s-.17,1.67.66,2.5,1.75,1.42,2.5.67S833.5,192.25,832.67,191.42Z"/><path d="M834.41,190.25l2.24-2.25.58.58L835,190.83Z"/><path d="M841.15,185.83l.58.59L839,189.17l-.34-.34-.33-3.5c-.08-.58-.16-1.08-.41-1.25-.42-.41-.92-.33-1.42.09a1,1,0,0,0-.16,1.41l-.67.42a1.84,1.84,0,0,1,.25-2.5,1.7,1.7,0,0,1,2.58-.08,2.45,2.45,0,0,1,.58,1.58l.25,2.42Z"/><path d="M840.39,183.67c-1.24-1.25-1.83-2.5-.66-3.75s2.49-.59,3.74.66,1.82,2.5.66,3.75S841.55,184.83,840.39,183.67Zm2.41-2.5c-.83-.84-1.74-1.42-2.49-.67s-.17,1.67.66,2.5,1.75,1.42,2.5.67S843.72,182.08,842.8,181.17Z"/><path d="M848.38,178.67l.58.58L846.22,182l-.34-.33-.33-3.5c-.08-.59-.16-1.09-.41-1.25a.86.86,0,0,0-1.33.08,1.05,1.05,0,0,0-.17,1.42l-.67.41a1.85,1.85,0,0,1,.25-2.5,1.7,1.7,0,0,1,2.58-.08,2.45,2.45,0,0,1,.58,1.58l.25,2.42Z"/><path d="M847.63,176.42c-1.25-1.25-1.83-2.5-.67-3.75s2.49-.59,3.74.66,1.83,2.5.66,3.75C850,178.33,848.79,177.67,847.63,176.42ZM850,174c-.83-.83-1.75-1.42-2.5-.67s-.16,1.67.67,2.5,1.74,1.42,2.49.67S850.87,174.83,850,174Z"/><path d="M846.88,205.17l.59.58-2.75,2.75-.33-.33-.33-3.5c-.08-.59-.17-1.09-.42-1.25a.86.86,0,0,0-1.33.08,1.06,1.06,0,0,0-.16,1.42l-.67.41a1.84,1.84,0,0,1,.25-2.5,1.7,1.7,0,0,1,2.58-.08,2.45,2.45,0,0,1,.58,1.58l.25,2.42Z"/><path d="M850,200.67a2,2,0,0,1-.09,2.91c-1,1-2.32.84-3.65-.5-1.08-1.08-1.83-2.75-.58-4.08a2,2,0,0,1,2.16-.5l-.33.83a1.12,1.12,0,0,0-1.25.25,1.81,1.81,0,0,0,.41,2.5,1.55,1.55,0,0,1,.5-1.5A2.06,2.06,0,0,1,850,200.67Zm-.67.66a1.27,1.27,0,0,0-1.66,0,1.2,1.2,0,0,0-.16,1.67,1.17,1.17,0,0,0,1.66,0A1.13,1.13,0,0,0,849.29,201.33Z"/><path d="M850.21,199.42l2.24-2.25.59.58L850.79,200Z"/><path d="M852,192.67l4.32,4.25-.66.66-3.41-3.41-.58,1.25-.58-.59Z"/><path d="M855.19,193.83c-1.24-1.25-1.83-2.5-.66-3.75s2.49-.58,3.74.67,1.82,2.5.66,3.75C857.6,195.75,856.36,195.08,855.19,193.83Zm2.41-2.41c-.83-.84-1.74-1.42-2.49-.67s-.17,1.67.66,2.5,1.75,1.42,2.5.67S858.43,192.25,857.6,191.42Z"/><path d="M859.35,190.25l2.24-2.25.59.58-2.25,2.25Z"/><path d="M866.08,185.83l.58.59-2.74,2.75-.33-.34-.34-3.5c-.08-.58-.16-1.08-.41-1.25a.87.87,0,0,0-1.33.09,1,1,0,0,0-.17,1.41l-.66.42a1.84,1.84,0,0,1,.25-2.5,1.69,1.69,0,0,1,2.57-.08,2.41,2.41,0,0,1,.59,1.58l.24,2.42Z"/><path d="M865.33,183.67c-1.25-1.25-1.83-2.5-.67-3.75s2.5-.59,3.74.66,1.83,2.5.67,3.75S866.49,184.83,865.33,183.67Zm2.41-2.5c-.83-.84-1.75-1.42-2.49-.67s-.17,1.67.66,2.5,1.75,1.42,2.49.67S868.65,182.08,867.74,181.17Z"/><path d="M873.31,178.67l.58.58L871.15,182l-.33-.33-.33-3.5c-.09-.59-.17-1.09-.42-1.25-.41-.42-.91-.34-1.41.08a1.05,1.05,0,0,0-.17,1.42l-.66.41a1.83,1.83,0,0,1,.25-2.5,1.69,1.69,0,0,1,2.57-.08,2.45,2.45,0,0,1,.58,1.58l.25,2.42Z"/><path d="M872.56,176.42c-1.25-1.25-1.83-2.5-.66-3.75s2.49-.59,3.73.66,1.83,2.5.67,3.75C875,178.25,873.72,177.67,872.56,176.42ZM875,174c-.83-.83-1.75-1.42-2.49-.67s-.17,1.67.66,2.5,1.75,1.42,2.49.67S875.8,174.83,875,174Z"/><path d="M877.05,199.83l.58.59-2.74,2.75-.33-.34-.34-3.5c-.08-.58-.16-1.08-.41-1.25-.42-.41-.91-.33-1.41.09a1,1,0,0,0-.17,1.41l-.66.42a1.83,1.83,0,0,1,.25-2.5,1.69,1.69,0,0,1,2.57-.08A2.45,2.45,0,0,1,875,199l.25,2.42Z"/><path d="M876.63,197.92l2.25-2.25.58.58-2.25,2.25Z"/><path d="M878.46,191.17l4.24,4.33-.67.67-3.41-3.42L878,194l-.58-.58Z"/><path d="M880.79,188.83l4.32,4.25-.66.67L881,190.33l-.58,1.25-.58-.58Z"/><path d="M884.28,190.25l2.25-2.25.58.58-2.25,2.25Z"/><path d="M891,185.83l.58.59-2.74,2.75-.33-.34-.34-3.5c-.08-.58-.16-1.08-.41-1.25-.42-.41-.91-.33-1.41.09a1,1,0,0,0-.17,1.41l-.66.42a1.84,1.84,0,0,1,.25-2.5,1.69,1.69,0,0,1,2.57-.08,2.45,2.45,0,0,1,.58,1.58l.25,2.42Z"/><path d="M890.26,183.67c-1.24-1.25-1.83-2.5-.66-3.75s2.49-.59,3.74.66,1.82,2.5.66,3.75S891.43,184.83,890.26,183.67Zm2.41-2.5c-.83-.84-1.74-1.42-2.49-.67s-.17,1.67.66,2.5,1.75,1.42,2.5.67S893.59,182.08,892.67,181.17Z"/><path d="M898.24,178.67l.59.58L896.08,182l-.33-.33-.33-3.5c-.08-.59-.17-1.09-.42-1.25a.86.86,0,0,0-1.33.08,1.05,1.05,0,0,0-.16,1.42l-.67.41a1.84,1.84,0,0,1,.25-2.5,1.7,1.7,0,0,1,2.58-.08,2.45,2.45,0,0,1,.58,1.58l.25,2.42Z"/><path d="M897.49,176.42c-1.25-1.25-1.83-2.5-.66-3.75s2.49-.59,3.73.66,1.83,2.5.67,3.75C899.9,178.25,898.65,177.67,897.49,176.42ZM899.9,174c-.83-.83-1.75-1.42-2.49-.67s-.17,1.67.66,2.5,1.75,1.42,2.49.67S900.73,174.83,899.9,174Z"/><path d="M900.4,198.25c1.08,1.08,1.83,2.75.5,4.08a2,2,0,0,1-2.16.5l.33-.83a1.1,1.1,0,0,0,1.25-.25,1.88,1.88,0,0,0-.33-2.5,1.87,1.87,0,0,1-.5,1.5,2.06,2.06,0,0,1-2.83.08,2,2,0,0,1,.09-2.91C897.74,196.75,899.16,197.08,900.4,198.25Zm-1.33.08a1.11,1.11,0,0,0-1.66,0,1.12,1.12,0,0,0-.08,1.67,1.25,1.25,0,0,0,1.66,0A1.27,1.27,0,0,0,899.07,198.33Z"/><path d="M901.57,197.92l2.24-2.25.58.58-2.24,2.25Z"/><path d="M903.39,191.17l4.24,4.25-.67.66-3.4-3.41-.58,1.25-.58-.59Z"/><path d="M905.72,188.83l4.23,4.34-.66.66-3.41-3.41-.58,1.25-.58-.59Z"/><path d="M909.22,190.25l2.24-2.25.58.58-2.24,2.25Z"/><path d="M915.94,185.83l.58.59-2.74,2.75-.33-.34-.33-3.5c-.09-.58-.17-1.08-.42-1.25a.87.87,0,0,0-1.33.09,1,1,0,0,0-.16,1.41l-.67.42a1.84,1.84,0,0,1,.25-2.5,1.7,1.7,0,0,1,2.58-.08A2.45,2.45,0,0,1,914,185l.25,2.42Z"/><path d="M915.19,183.67c-1.24-1.25-1.83-2.5-.66-3.75s2.49-.59,3.74.66,1.82,2.5.66,3.75S916.36,184.83,915.19,183.67Zm2.41-2.5c-.83-.84-1.74-1.42-2.49-.67s-.17,1.67.66,2.5,1.75,1.42,2.5.67S918.52,182.08,917.6,181.17Z"/><path d="M923.17,178.67l.59.58L921,182l-.33-.33-.33-3.5c-.08-.59-.17-1.09-.42-1.25-.41-.42-.91-.34-1.41.08a1.06,1.06,0,0,0-.17,1.42l-.66.41a1.84,1.84,0,0,1,.25-2.5,1.7,1.7,0,0,1,2.58-.08,2.45,2.45,0,0,1,.58,1.58l.25,2.42Z"/><path d="M922.42,176.42c-1.25-1.25-1.83-2.5-.67-3.75s2.5-.59,3.74.66,1.83,2.5.67,3.75C924.83,178.25,923.58,177.67,922.42,176.42Zm2.41-2.42c-.83-.83-1.75-1.42-2.49-.67s-.17,1.67.66,2.5,1.75,1.42,2.49.67S925.66,174.83,924.83,174Z"/><path d="M919.19,200.25l4.24,4.33-.67.67-3.41-3.42-.58,1.25-.58-.58Z"/><path d="M926.25,199.17a2,2,0,0,1-.08,2.91c-1,1-2.33.84-3.66-.5-1.08-1.08-1.83-2.75-.58-4.08a2,2,0,0,1,2.16-.5l-.33.83a1.12,1.12,0,0,0-1.25.25,1.81,1.81,0,0,0,.42,2.5,1.55,1.55,0,0,1,.49-1.5A2.06,2.06,0,0,1,926.25,199.17Zm-.66.66a1.29,1.29,0,0,0-1.67,0,1.2,1.2,0,0,0-.16,1.67,1.17,1.17,0,0,0,1.66,0A1.14,1.14,0,0,0,925.59,199.83Z"/><path d="M926.5,197.92l2.25-2.25.58.58-2.24,2.25Z"/><path d="M928.33,191.17l4.23,4.25-.66.66-3.41-3.41-.58,1.25-.58-.59Z"/><path d="M930.65,188.83l4.24,4.34-.66.66-3.41-3.41-.58,1.25-.58-.59Z"/><path d="M934.15,190.25l2.24-2.25.58.58-2.24,2.25Z"/><path d="M940.87,185.83l.58.59-2.74,2.75-.33-.34-.33-3.5c-.09-.58-.17-1.08-.42-1.25a.87.87,0,0,0-1.33.09,1,1,0,0,0-.16,1.41l-.67.42a1.84,1.84,0,0,1,.25-2.5,1.7,1.7,0,0,1,2.58-.08,2.45,2.45,0,0,1,.58,1.58l.25,2.42Z"/><path d="M940.13,183.67c-1.25-1.25-1.83-2.5-.66-3.75s2.49-.59,3.73.66,1.83,2.5.67,3.75S941.29,184.83,940.13,183.67Zm2.41-2.5c-.83-.84-1.75-1.42-2.49-.67s-.17,1.67.66,2.5,1.75,1.42,2.49.67S943.45,182.08,942.54,181.17Z"/><path d="M948.11,178.67l.58.58L946,182l-.34-.33-.33-3.5c-.08-.59-.16-1.09-.41-1.25-.42-.42-.92-.34-1.41.08a1.05,1.05,0,0,0-.17,1.42l-.67.41a1.85,1.85,0,0,1,.25-2.5,1.7,1.7,0,0,1,2.58-.08,2.45,2.45,0,0,1,.58,1.58l.25,2.42Z"/><path d="M947.36,176.42c-1.25-1.25-1.83-2.5-.66-3.75s2.49-.59,3.73.66,1.83,2.5.67,3.75C949.77,178.25,948.52,177.67,947.36,176.42Zm2.41-2.42c-.83-.83-1.74-1.42-2.49-.67s-.17,1.67.66,2.5,1.75,1.42,2.49.67S950.6,174.83,949.77,174Z"/><path d="M948.52,203.25l.58.58-2.74,2.75-.34-.33-.33-3.5c-.08-.58-.16-1.08-.41-1.25a.87.87,0,0,0-1.33.08,1.05,1.05,0,0,0-.17,1.42l-.66.42a1.83,1.83,0,0,1,.24-2.5,1.7,1.7,0,0,1,2.58-.09,2.48,2.48,0,0,1,.58,1.59l.25,2.41Z"/><path d="M951.26,199.25a1.9,1.9,0,0,1-.17,2.75,2.19,2.19,0,0,1-2.24.5l.17-.83a1.39,1.39,0,0,0,1.41-.25,1.1,1.1,0,0,0,.16-1.59,1.08,1.08,0,0,0-1.57.09l-.42.41-.5-.5.33-.33a.87.87,0,0,0,.09-1.33.81.81,0,0,0-1.17.08,1.32,1.32,0,0,0-.33,1.08l-.75.09a2,2,0,0,1,.59-1.84,1.57,1.57,0,0,1,2.41-.08,1.34,1.34,0,0,1,.33,1.42A1.43,1.43,0,0,1,951.26,199.25Z"/><path d="M951.42,197.92l2.24-2.25.59.58L952,198.5Z"/><path d="M953.26,191.17l4.23,4.25-.66.66-3.41-3.41-.58,1.25-.58-.59Z"/><path d="M955.58,188.83l4.23,4.34-.66.66-3.41-3.41-.58,1.25-.58-.59Z"/><path d="M959.07,190.25l2.24-2.25.59.58-2.25,2.25Z"/><path d="M965.8,185.83l.58.59-2.74,2.75-.33-.34-.33-3.5c-.09-.58-.17-1.08-.42-1.25a.87.87,0,0,0-1.33.09,1,1,0,0,0-.16,1.41l-.67.42a1.84,1.84,0,0,1,.25-2.5,1.7,1.7,0,0,1,2.58-.08,2.45,2.45,0,0,1,.58,1.58l.25,2.42Z"/><path d="M965.05,183.67c-1.24-1.25-1.83-2.5-.66-3.75s2.49-.59,3.74.66,1.82,2.5.66,3.75S966.22,184.83,965.05,183.67Zm2.41-2.5c-.83-.84-1.74-1.42-2.49-.67s-.17,1.67.66,2.5,1.75,1.42,2.5.67S968.38,182.08,967.46,181.17Z"/><path d="M973,178.67l.58.58L970.87,182l-.33-.33-.33-3.5c-.09-.59-.17-1.09-.42-1.25-.42-.42-.91-.34-1.41.08a1.05,1.05,0,0,0-.17,1.42l-.66.41a1.83,1.83,0,0,1,.24-2.5,1.7,1.7,0,0,1,2.58-.08,2.45,2.45,0,0,1,.58,1.58l.25,2.42Z"/><path d="M972.28,176.42c-1.25-1.25-1.83-2.5-.67-3.75s2.5-.59,3.74.66,1.83,2.5.67,3.75C974.69,178.25,973.44,177.67,972.28,176.42Zm2.41-2.42c-.83-.83-1.75-1.42-2.49-.67s-.17,1.67.66,2.5,1.74,1.42,2.49.67S975.52,174.83,974.69,174Z"/><path d="M425.33,203l.59.58-2.75,2.75-.33-.33-.33-3.5c-.09-.58-.17-1.08-.42-1.25a.87.87,0,0,0-1.33.08,1.06,1.06,0,0,0-.16,1.42l-.67.42a1.84,1.84,0,0,1,.25-2.5,1.7,1.7,0,0,1,2.58-.09,2.48,2.48,0,0,1,.58,1.59l.25,2.41Z"/><path d="M427.5,197.58c1.08,1.09,1.82,2.75.49,4.09a2,2,0,0,1-2.16.5l.34-.84a1.07,1.07,0,0,0,1.24-.25,1.87,1.87,0,0,0-.33-2.5,1.84,1.84,0,0,1-.5,1.5,2.05,2.05,0,0,1-2.82.09,2,2,0,0,1,.08-2.92C424.84,196.08,426.33,196.33,427.5,197.58Zm-1.33.09a1.21,1.21,0,0,0-1.75,1.66,1.25,1.25,0,0,0,1.66,0A1.27,1.27,0,0,0,426.17,197.67Z"/><path d="M428.66,197.17l2.24-2.25.58.58-2.24,2.25Z"/><path d="M435.3,191.5a2,2,0,0,1-.08,2.92c-1,1-2.32.83-3.65-.5-1.08-1.09-1.83-2.75-.59-4.09a2,2,0,0,1,2.16-.5l-.33.84a1.07,1.07,0,0,0-1.24.25,1.8,1.8,0,0,0,.41,2.5,1.55,1.55,0,0,1,.5-1.5A2,2,0,0,1,435.3,191.5Zm-.66.67a1.25,1.25,0,0,0-1.66,0,1.2,1.2,0,0,0-.17,1.66,1.17,1.17,0,0,0,1.66,0A1.11,1.11,0,0,0,434.64,192.17Z"/><path d="M435.55,190.25,437.8,188l.58.58-2.24,2.25Z"/><path d="M442.37,185.83l.58.59-2.74,2.75-.33-.34-.34-3.5c-.08-.58-.16-1.08-.41-1.25a.87.87,0,0,0-1.33.09,1,1,0,0,0-.17,1.41L437,186a1.84,1.84,0,0,1,.25-2.5,1.69,1.69,0,0,1,2.57-.08,2.4,2.4,0,0,1,.58,1.58l.25,2.42Z"/><path d="M441.62,183.67c-1.25-1.25-1.83-2.5-.67-3.75s2.5-.59,3.74.66,1.83,2.5.67,3.75C444,185.5,442.78,184.83,441.62,183.67Zm2.41-2.5c-.83-.84-1.75-1.42-2.49-.67s-.17,1.67.66,2.5,1.75,1.42,2.49.67S444.86,182.08,444,181.17Z"/><path d="M449.6,178.67l.58.58L447.44,182l-.33-.33-.34-3.5c-.08-.59-.16-1.09-.41-1.25A.86.86,0,0,0,445,177a1.05,1.05,0,0,0-.17,1.42l-.66.41a1.84,1.84,0,0,1,.25-2.5,1.69,1.69,0,0,1,2.57-.08,2.41,2.41,0,0,1,.59,1.58l.24,2.42Z"/><path d="M448.76,176.42c-1.24-1.25-1.83-2.5-.66-3.75s2.49-.59,3.74.66,1.83,2.5.66,3.75S450,177.67,448.76,176.42Zm2.5-2.42c-.84-.83-1.75-1.42-2.5-.67s-.16,1.67.67,2.5,1.74,1.42,2.49.67S452.09,174.83,451.26,174Z"/><path d="M454.34,197.42a2,2,0,0,1-.08,2.91c-1,1-2.33.84-3.66-.5-1.08-1.08-1.83-2.75-.58-4.08a2,2,0,0,1,2.16-.5l-.33.83a1.12,1.12,0,0,0-1.25.25,1.81,1.81,0,0,0,.42,2.5,1.53,1.53,0,0,1,.5-1.5A2,2,0,0,1,454.34,197.42Zm-.66.66a1.29,1.29,0,0,0-1.67,0,1.21,1.21,0,0,0-.16,1.67,1.17,1.17,0,0,0,1.66,0A1.14,1.14,0,0,0,453.68,198.08Z"/><path d="M454.59,196.17l2.24-2.25.59.58-2.25,2.25Z"/><path d="M457.91,188l2,6.42-.75.75-1.66-5.59-1.91,1.92-.58-.58Z"/><path d="M460.49,190.25l2.24-2.25.58.58-2.24,2.25Z"/><path d="M467.3,185.83l.58.59-2.74,2.75-.33-.34-.34-3.5c-.08-.58-.16-1.08-.41-1.25-.42-.41-.92-.33-1.41.09a1,1,0,0,0-.17,1.41l-.66.42a1.83,1.83,0,0,1,.25-2.5,1.69,1.69,0,0,1,2.57-.08,2.45,2.45,0,0,1,.58,1.58l.25,2.42Z"/><path d="M466.55,183.67c-1.24-1.25-1.83-2.5-.66-3.75s2.49-.59,3.74.66,1.82,2.5.66,3.75C469,185.5,467.71,184.83,466.55,183.67Zm2.41-2.5c-.83-.84-1.74-1.42-2.49-.67s-.17,1.67.66,2.5,1.75,1.42,2.5.67S469.79,182.08,469,181.17Z"/><path d="M474.53,178.67l.58.58L472.37,182l-.33-.33-.33-3.5c-.09-.59-.17-1.09-.42-1.25A.86.86,0,0,0,470,177a1.05,1.05,0,0,0-.16,1.42l-.67.41a1.84,1.84,0,0,1,.25-2.5,1.7,1.7,0,0,1,2.58-.08,2.45,2.45,0,0,1,.58,1.58l.25,2.42Z"/><path d="M473.7,176.42c-1.25-1.25-1.83-2.5-.67-3.75s2.49-.59,3.74.66,1.83,2.5.66,3.75S474.94,177.67,473.7,176.42Zm2.49-2.42c-.83-.83-1.75-1.42-2.49-.67s-.17,1.67.66,2.5,1.75,1.42,2.49.67S477,174.83,476.19,174Z"/><path d="M472.7,198.08l4.24,4.34-.67.66-3.4-3.41-.58,1.25-.59-.59Z"/><path d="M479.35,197.5a1.9,1.9,0,0,1-.16,2.75,2.21,2.21,0,0,1-2.25.5l.17-.83a1.39,1.39,0,0,0,1.41-.25,1.11,1.11,0,0,0,.17-1.59,1.09,1.09,0,0,0-1.58.09l-.42.41-.49-.5.33-.33c.41-.42.5-1,.08-1.33a.8.8,0,0,0-1.16.08,1.32,1.32,0,0,0-.34,1.08l-.74.09a2,2,0,0,1,.58-1.84,1.57,1.57,0,0,1,2.41-.08,1.32,1.32,0,0,1,.33,1.42A1.43,1.43,0,0,1,479.35,197.5Z"/><path d="M479.52,196.17l2.24-2.25.58.58-2.24,2.25Z"/><path d="M482.84,188l2,6.42-.75.75-1.66-5.59-1.91,1.92-.58-.58Z"/><path d="M485.41,190.25l2.25-2.25.58.58L486,190.83Z"/><path d="M492.23,185.83l.58.59-2.74,2.75-.34-.34-.33-3.5c-.08-.58-.16-1.08-.41-1.25a.87.87,0,0,0-1.33.09,1,1,0,0,0-.17,1.41l-.66.42a1.83,1.83,0,0,1,.25-2.5,1.69,1.69,0,0,1,2.57-.08,2.45,2.45,0,0,1,.58,1.58l.25,2.42Z"/><path d="M491.48,183.67c-1.25-1.25-1.83-2.5-.66-3.75s2.49-.59,3.74.66,1.82,2.5.66,3.75C493.89,185.5,492.64,184.83,491.48,183.67Zm2.41-2.5c-.83-.84-1.74-1.42-2.49-.67s-.17,1.67.66,2.5,1.75,1.42,2.5.67S494.72,182.08,493.89,181.17Z"/><path d="M499.46,178.67l.58.58L497.3,182l-.33-.33-.34-3.5c-.08-.59-.16-1.09-.41-1.25a.86.86,0,0,0-1.33.08,1.05,1.05,0,0,0-.17,1.42l-.66.41a1.84,1.84,0,0,1,.25-2.5,1.69,1.69,0,0,1,2.57-.08,2.45,2.45,0,0,1,.58,1.58l.25,2.42Z"/><path d="M498.63,176.42c-1.25-1.25-1.83-2.5-.67-3.75s2.5-.59,3.74.66,1.83,2.5.67,3.75S499.88,177.67,498.63,176.42Zm2.49-2.42c-.83-.83-1.74-1.42-2.49-.67s-.17,1.67.67,2.5,1.74,1.42,2.49.67S502,174.83,501.12,174Z"/><path d="M501.11,202l.59.58L499,205.33l-.33-.33-.33-3.5c-.08-.58-.17-1.08-.41-1.25-.42-.42-.92-.33-1.42.08a1.05,1.05,0,0,0-.16,1.42l-.67.42a1.84,1.84,0,0,1,.25-2.5,1.7,1.7,0,0,1,2.58-.09,2.48,2.48,0,0,1,.58,1.59l.25,2.41Z"/><path d="M500.29,199.75c-1.25-1.25-1.83-2.5-.67-3.75s2.49-.58,3.74.67,1.83,2.5.66,3.75S501.45,201,500.29,199.75Zm2.41-2.42c-.84-.83-1.75-1.41-2.5-.66s-.16,1.66.67,2.5,1.74,1.41,2.49.66S503.61,198.17,502.7,197.33Z"/><path d="M504.44,196.17l2.24-2.25.59.58L505,196.75Z"/><path d="M507.76,188l2,6.42-.75.75-1.66-5.59-1.91,1.92-.58-.58Z"/><path d="M510.34,190.25l2.24-2.25.58.58-2.24,2.25Z"/><path d="M517.16,185.83l.58.59L515,189.17l-.34-.34-.33-3.5c-.08-.58-.16-1.08-.41-1.25a.87.87,0,0,0-1.33.09,1,1,0,0,0-.17,1.41l-.66.42a1.83,1.83,0,0,1,.25-2.5,1.69,1.69,0,0,1,2.57-.08,2.45,2.45,0,0,1,.58,1.58l.25,2.42Z"/><path d="M516.4,183.67c-1.24-1.25-1.82-2.5-.66-3.75s2.49-.59,3.74.66,1.83,2.5.66,3.75C518.81,185.5,517.57,184.83,516.4,183.67Zm2.41-2.5c-.83-.84-1.74-1.42-2.49-.67s-.17,1.67.66,2.5,1.75,1.42,2.5.67S519.64,182.08,518.81,181.17Z"/><path d="M524.39,178.67l.58.58L522.23,182l-.33-.33-.34-3.5c-.08-.59-.16-1.09-.41-1.25-.42-.42-.92-.34-1.41.08a1.05,1.05,0,0,0-.17,1.42l-.66.41a1.83,1.83,0,0,1,.24-2.5,1.7,1.7,0,0,1,2.58-.08,2.45,2.45,0,0,1,.58,1.58l.25,2.42Z"/><path d="M523.55,176.42c-1.24-1.25-1.83-2.5-.66-3.75s2.49-.59,3.74.66,1.82,2.5.66,3.75S524.8,177.67,523.55,176.42ZM526,174c-.83-.83-1.74-1.42-2.49-.67s-.16,1.67.67,2.5,1.74,1.42,2.49.67S526.88,174.83,526,174Z"/><path d="M972.36,203.08a1.9,1.9,0,0,1-.16,2.75,2.17,2.17,0,0,1-2.24.5l.16-.83a1.37,1.37,0,0,0,1.41-.25,1.1,1.1,0,0,0,.17-1.58,1.08,1.08,0,0,0-1.58.08l-.41.42-.5-.5.33-.34a.86.86,0,0,0,.08-1.33.81.81,0,0,0-1.16.08,1.3,1.3,0,0,0-.33,1.09l-.75.08a2,2,0,0,1,.58-1.83,1.57,1.57,0,0,1,2.41-.09,1.31,1.31,0,0,1,.33,1.42A1.43,1.43,0,0,1,972.36,203.08Z"/><path d="M972.2,201.5c-1.25-1.25-1.83-2.5-.67-3.75s2.5-.58,3.74.67,1.83,2.5.66,3.75S973.44,202.67,972.2,201.5Zm2.49-2.42c-.83-.83-1.75-1.41-2.49-.66s-.17,1.66.66,2.5,1.75,1.41,2.49.66S975.52,199.92,974.69,199.08Z"/><path d="M976.43,197.92l2.25-2.25.58.58L977,198.5Z"/><path d="M978.18,191.17l4.24,4.25-.66.66-3.41-3.41-.58,1.25-.58-.59Z"/><path d="M980.51,188.83l4.23,4.34-.66.66-3.41-3.41-.58,1.25-.58-.59Z"/><path d="M984,190.25l2.24-2.25.58.58-2.24,2.25Z"/><path d="M990.81,185.83l.58.59-2.74,2.75-.33-.34-.34-3.5c-.08-.58-.16-1.08-.41-1.25a.87.87,0,0,0-1.33.09,1,1,0,0,0-.17,1.41l-.66.42a1.84,1.84,0,0,1,.25-2.5,1.69,1.69,0,0,1,2.57-.08,2.41,2.41,0,0,1,.59,1.58l.25,2.42Z"/><path d="M990.06,183.67c-1.24-1.25-1.82-2.5-.66-3.75s2.49-.59,3.74.66,1.83,2.5.66,3.75C992.47,185.5,991.23,184.83,990.06,183.67Zm2.41-2.5c-.83-.84-1.74-1.42-2.49-.67s-.17,1.67.67,2.5,1.74,1.42,2.49.67S993.3,182.08,992.47,181.17Z"/><path d="M998,178.67l.58.58L995.88,182l-.33-.33-.33-3.5c-.09-.59-.17-1.09-.42-1.25a.86.86,0,0,0-1.33.08,1.05,1.05,0,0,0-.17,1.42l-.66.41a1.84,1.84,0,0,1,.25-2.5,1.69,1.69,0,0,1,2.57-.08,2.41,2.41,0,0,1,.59,1.58l.24,2.42Z"/><path d="M997.2,176.42c-1.24-1.25-1.82-2.5-.66-3.75s2.49-.59,3.74.66,1.83,2.5.66,3.75S998.45,177.67,997.2,176.42Zm2.5-2.42c-.83-.83-1.75-1.42-2.5-.67s-.16,1.67.67,2.5,1.74,1.42,2.49.67S1000.53,174.83,999.7,174Z"/><path d="M997.71,196.67l2,6.41-.74.75-1.67-5.58-1.91,1.92-.58-.59Z"/><path d="M1000.2,198.92l2.25-2.25.58.58-2.25,2.25Z"/><path d="M1002,192.17l4.24,4.33-.66.67-3.41-3.42-.58,1.25-.58-.58Z"/><path d="M1009.34,192.25l.58.58-2.74,2.75-.33-.33-.33-3.5c-.09-.58-.17-1.08-.42-1.25a.87.87,0,0,0-1.33.08,1.06,1.06,0,0,0-.17,1.42l-.66.42a1.84,1.84,0,0,1,.25-2.5,1.7,1.7,0,0,1,2.58-.09,2.48,2.48,0,0,1,.58,1.59l.25,2.41Z"/><path d="M1008.93,190.25l2.24-2.25.58.58-2.24,2.25Z"/><path d="M1015.66,185.83l.58.59-2.74,2.75-.34-.34-.33-3.5c-.08-.58-.16-1.08-.41-1.25a.87.87,0,0,0-1.33.09,1,1,0,0,0-.17,1.41l-.66.42a1.84,1.84,0,0,1,.25-2.5,1.69,1.69,0,0,1,2.57-.08,2.45,2.45,0,0,1,.58,1.58l.25,2.42Z"/><path d="M1014.91,183.67c-1.25-1.25-1.83-2.5-.67-3.75s2.5-.59,3.74.66,1.83,2.5.67,3.75S1016.07,184.83,1014.91,183.67Zm2.41-2.5c-.83-.84-1.75-1.42-2.5-.67s-.16,1.67.67,2.5,1.74,1.42,2.49.67S1018.23,182.08,1017.32,181.17Z"/><path d="M1022.88,178.67l.59.58-2.75,2.75-.33-.33-.33-3.5c-.08-.59-.17-1.09-.42-1.25a.86.86,0,0,0-1.33.08,1.06,1.06,0,0,0-.16,1.42l-.67.41a1.84,1.84,0,0,1,.25-2.5,1.7,1.7,0,0,1,2.58-.08,2.45,2.45,0,0,1,.58,1.58l.25,2.42Z"/><path d="M1022.14,176.42c-1.24-1.25-1.83-2.5-.66-3.75s2.49-.59,3.74.66,1.82,2.5.66,3.75C1024.55,178.25,1023.31,177.67,1022.14,176.42Zm2.41-2.42c-.83-.83-1.74-1.42-2.49-.67s-.17,1.67.66,2.5,1.75,1.42,2.5.67S1025.38,174.83,1024.55,174Z"/><path d="M462.65,216.67h-2.91v8.41h-1.5v-8.41h-2.9v-1.34h7.23v1.34Z"/><path d="M463.73,216.08a.92.92,0,0,1,1.83,0,.93.93,0,0,1-.92.92A1,1,0,0,1,463.73,216.08Zm.25,2.42h1.41v6.58H464Z"/><path d="M477.85,221.33v3.75h-1.41v-3.66c0-1.09-.58-1.75-1.5-1.75a1.66,1.66,0,0,0-1.66,1.66v3.75h-1.41v-3.66c0-1.09-.58-1.75-1.42-1.75a1.67,1.67,0,0,0-1.74,1.83V225H467.3v-6.58h1.41v1.08a2.19,2.19,0,0,1,2.08-1.17,2.4,2.4,0,0,1,2.16,1.34,2.55,2.55,0,0,1,2.24-1.34C476.94,218.33,477.85,219.42,477.85,221.33Z"/><path d="M486.08,222.33h-5.23a1.86,1.86,0,0,0,2.07,1.59,2.11,2.11,0,0,0,1.83-.92l1.08.58a3.45,3.45,0,0,1-6.4-1.83,3.37,3.37,0,1,1,6.73,0A1.27,1.27,0,0,0,486.08,222.33Zm-1.41-1.08a1.83,1.83,0,0,0-1.91-1.58,1.9,1.9,0,0,0-2,1.58Z"/><path d="M491,216.08a.91.91,0,1,1,.91.92A1,1,0,0,1,491,216.08Zm.25,2.42h1.41v6.58h-1.41Z"/><path d="M500.87,221.33v3.75h-1.41v-3.66a1.49,1.49,0,0,0-1.5-1.67,1.8,1.8,0,0,0-1.91,1.83v3.5h-1.41V218.5h1.41v1a2.44,2.44,0,0,1,2.16-1.17C499.88,218.33,500.87,219.42,500.87,221.33Z"/><path d="M516,218.5l-2.41,6.58h-1.16l-1.75-4.75L509,225.08h-1.16l-2.49-6.58h1.49l1.58,4.5,1.58-4.5h1.33l1.58,4.5,1.58-4.5Z"/><path d="M523.39,222.33h-5.23a1.88,1.88,0,0,0,2.08,1.59,2.1,2.1,0,0,0,1.82-.92l1.08.58a3.44,3.44,0,0,1-6.39-1.83,3.37,3.37,0,1,1,6.73,0A1.15,1.15,0,0,0,523.39,222.33Zm-1.33-1.08a1.81,1.81,0,0,0-1.91-1.58,1.89,1.89,0,0,0-2,1.58Z"/><path d="M531.28,222.33H526a1.88,1.88,0,0,0,2.08,1.59A2.11,2.11,0,0,0,530,223l1.08.58a3.45,3.45,0,0,1-6.4-1.83,3.37,3.37,0,1,1,6.73,0A1.27,1.27,0,0,0,531.28,222.33ZM530,221.25a1.82,1.82,0,0,0-1.91-1.58,1.9,1.9,0,0,0-2,1.58Z"/><path d="M537.18,225.08l-2.9-3.16v3.16h-1.42V214.92h1.42v5.83l2.16-2.25h1.91l-2.75,2.83,3.41,3.75Z"/><path d="M539.26,223.08h1.25a1.14,1.14,0,0,0,1.24,1c.75,0,1.25-.33,1.25-.83s-.33-.67-.83-.75l-.91-.25c-1.25-.33-1.83-1-1.83-1.92a2.1,2.1,0,0,1,2.32-1.91c1.17,0,2.33.58,2.33,2h-1.33a.94.94,0,0,0-1-.84.88.88,0,0,0-1,.84c0,.41.41.66.83.75l1,.25a1.94,1.94,0,0,1,1.74,1.91c0,1.25-1.25,2-2.58,2A2.51,2.51,0,0,1,539.26,223.08Z"/><path d="M31,158.42h-.83v8.33H31Z"/><path d="M55.88,158.42h-.83v8.33h.83Z"/><path d="M80.82,158.42H80v8.33h.83Z"/><path d="M105.75,158.42h-.83v8.33h.83Z"/><path d="M130.68,158.42h-.83v8.33h.83Z"/><path d="M155.6,158.42h-.83v8.33h.83Z"/><path d="M180.54,158.42h-.83v8.33h.83Z"/><path d="M205.46,158.42h-.83v8.33h.83Z"/><path d="M230.39,158.42h-.83v8.33h.83Z"/><path d="M255.32,158.42h-.83v8.33h.83Z"/><path d="M280.26,158.42h-.83v8.33h.83Z"/><path d="M305.18,158.42h-.83v8.33h.83Z"/><path d="M330.11,158.42h-.83v8.33h.83Z"/><path d="M355,158.42h-.83v8.33H355Z"/><path d="M380,158.42h-.83v8.33H380Z"/><path d="M404.9,158.42h-.83v8.33h.83Z"/><path d="M429.83,158.42H429v8.33h.83Z"/><path d="M454.76,158.42h-.83v8.33h.83Z"/><path d="M479.68,158.42h-.83v8.33h.83Z"/><path d="M504.61,158.42h-.83v8.33h.83Z"/><path d="M529.54,158.42h-.83v8.33h.83Z"/><path d="M554.47,158.42h-.83v8.33h.83Z"/><path d="M579.4,158.42h-.83v8.33h.83Z"/><path d="M604.33,158.42h-.83v8.33h.83Z"/><path d="M629.26,158.42h-.83v8.33h.83Z"/><path d="M654.19,158.42h-.84v8.33h.84Z"/><path d="M679.11,158.42h-.83v8.33h.83Z"/><path d="M704.05,158.42h-.83v8.33h.83Z"/><path d="M729,158.42h-.82v8.33H729Z"/><path d="M753.91,158.42h-.83v8.33h.83Z"/><path d="M778.83,158.42H778v8.33h.83Z"/><path d="M803.75,158.42h-.83v8.33h.83Z"/><path d="M828.69,158.42h-.83v8.33h.83Z"/><path d="M853.62,158.42h-.83v8.33h.83Z"/><path d="M878.54,158.42h-.82v8.33h.82Z"/><path d="M903.47,158.42h-.83v8.33h.83Z"/><path d="M928.4,158.42h-.83v8.33h.83Z"/><path d="M953.34,158.42h-.83v8.33h.83Z"/><path d="M978.26,158.42h-.83v8.33h.83Z"/><path d="M1003.19,158.42h-.83v8.33h.83Z"/><path d="M1028.12,158.42h-.83v8.33h.83Z"/></g></g></svg>