<svg width="147" height="132" viewBox="0 0 147 132" fill="none" xmlns="http://www.w3.org/2000/svg">
<path d="M75.5198 68.0369C75.6818 68.0369 75.6818 68.0369 75.5198 68.0369C75.6818 68.0369 75.6818 68.0369 75.5198 68.0369ZM74.8715 67.5508C74.7095 67.2266 74.3854 66.9025 74.2233 66.5784C74.2233 66.4163 74.2233 66.0922 74.2233 65.9302C74.5474 65.7681 74.5474 65.444 74.5474 65.1199C74.5474 64.7957 74.7095 64.3095 74.8715 63.9854C75.0336 63.1751 75.1956 62.3648 75.3577 61.5545C75.5197 60.9063 74.8715 60.4201 74.3853 60.4201C73.575 60.4201 72.9268 60.2581 72.1165 60.2581C71.4683 60.2581 70.9821 60.096 70.658 59.4478C70.4959 59.1237 70.1718 58.7995 70.0097 58.3133L69.8477 58.1513C69.6856 57.9892 69.3615 57.8272 69.1994 57.6651C68.7133 57.1789 68.3891 56.8548 67.9029 56.3686C67.7409 56.2066 67.5788 56.2066 67.2547 56.3686C67.0926 56.5307 66.9306 56.5307 66.9306 56.6927C66.9306 56.6927 66.9306 56.6928 66.7685 56.5307C66.9306 56.3686 67.0926 56.3686 67.2547 56.2066C67.2547 56.0445 67.4168 55.8825 67.2547 55.8825C66.9306 55.5583 66.6065 55.2342 66.4444 54.9101C65.9582 54.4239 65.6341 54.0998 65.1479 53.6136C64.4997 52.8033 63.8514 52.1551 63.0411 51.3448C62.8791 51.1827 62.717 51.1827 62.555 51.1827C61.5826 51.3448 61.2585 51.1827 60.9344 50.2104C60.9344 50.2104 60.9344 50.0483 60.7723 50.0483C60.2861 49.8863 60.2862 49.5621 60.2862 49.238C60.1241 48.2657 59.8 48.1036 58.9897 48.2657C58.9897 48.1036 59.1517 48.1036 59.1517 47.9415C58.3414 47.6174 57.6932 47.4554 56.8829 47.1312C55.2623 46.483 53.6417 45.9968 52.0211 45.3486C51.3729 45.0245 50.7247 45.0245 49.9144 45.1865C49.1041 45.3486 48.2938 45.5106 47.3214 45.8348C46.8352 45.9968 46.5111 45.6727 46.5111 45.1865C46.5111 44.8624 46.5111 44.5383 46.6732 44.3762C46.8352 43.5659 46.6731 43.0798 46.0249 42.7556C45.7008 42.4315 45.0526 42.2695 44.8905 41.9453C44.5664 41.6212 44.2423 41.4592 43.9181 41.135C43.594 40.8109 43.1079 40.6489 42.6217 40.6489C42.2976 40.6489 41.9734 40.8109 41.4873 40.8109C41.3252 40.8109 41.1631 40.8109 41.1631 40.8109C41.0011 40.6489 40.677 40.3247 40.677 40.1627C40.5149 39.6765 40.1908 39.6765 39.8667 39.6765C40.0287 40.0006 40.1908 40.4868 40.3528 40.8109C40.5149 41.1351 40.1908 41.2971 39.8667 41.2971C39.7046 41.4592 39.5426 41.2971 39.3805 41.135C39.3805 40.973 39.2184 40.973 39.0564 40.973C38.5702 41.135 38.084 41.2971 37.5978 41.4592C37.7599 42.1074 37.7599 42.1074 37.1116 42.4315C36.9496 42.4315 36.9496 42.5936 36.7875 42.5936C36.6255 42.7556 36.6255 42.9177 36.4634 42.9177C36.1393 43.0797 35.8151 43.2418 35.491 43.5659C34.6807 44.2142 33.5463 44.2142 32.736 44.5383C32.4119 44.7003 32.2499 44.5383 32.0878 44.2142C31.9258 43.728 31.6016 43.4039 31.4395 43.0798C31.1154 42.5936 30.6293 42.2695 30.1431 41.7833C28.8466 40.6489 27.5501 39.3524 26.2537 38.218C26.0916 38.0559 25.9295 38.0559 25.7675 38.0559C25.7675 38.0559 25.7675 37.7318 25.6054 37.7318C25.2813 37.5697 25.1193 37.2456 24.7951 37.0836L24.6331 36.9215C24.471 36.7594 24.471 36.5974 24.3089 36.4353C23.9848 36.2732 23.4987 35.9491 23.1745 35.7871C22.8504 35.625 22.5263 35.625 22.3642 35.1388C22.2022 34.8147 22.0401 34.4906 21.878 34.1665C21.716 34.3285 21.5539 34.4906 21.5539 34.6527C21.2298 34.6527 20.9057 34.4906 20.5816 34.4906C20.0954 34.4906 20.0954 34.1665 20.2574 33.8424C20.4195 33.5182 20.4195 33.1941 20.2574 33.0321C20.0954 32.5459 19.9333 32.0597 19.7713 31.5735C19.2851 30.4391 18.961 29.3047 18.4748 28.1703C18.3127 28.0082 18.4748 27.8462 18.6368 27.6841C18.7989 27.6841 18.961 27.522 19.1231 27.522C19.1231 27.522 19.1231 27.522 19.1231 27.36C18.961 27.36 18.961 27.36 18.7989 27.36C18.4748 27.36 17.9886 27.522 17.6645 27.522C17.3404 27.522 17.1783 27.522 16.8542 27.6841C16.368 28.0082 15.8818 28.1703 15.2336 28.1703C14.4233 28.1703 14.2612 28.3323 14.5854 28.9806C14.7474 29.3047 14.5853 29.3047 14.4233 29.4668C13.7751 29.7909 13.2889 29.9529 12.6407 30.2771C12.3166 30.4391 12.1545 30.4391 11.9924 29.9529C11.8303 29.6288 11.6683 29.3047 11.5062 28.9806C11.5062 28.8185 11.1821 28.6565 11.1821 28.6565C10.858 28.6565 10.3718 28.6565 9.88564 28.6565C9.88564 28.6565 9.88564 28.6565 9.88564 28.4944C9.72358 28.3323 9.39947 28.1703 9.23741 28.0082C8.91329 27.6841 8.75124 27.8462 8.42712 27.8462C8.26506 27.8462 8.10297 28.0082 7.94091 28.0082C7.77885 28.1703 7.77889 28.3323 7.77889 28.4944C7.77889 28.6565 7.77889 28.9806 7.77889 28.9806C7.61683 29.1426 7.61683 29.3047 7.77889 29.4668C8.26507 30.6012 8.75121 31.5735 8.91327 32.87C8.91327 33.0321 9.2374 33.3562 9.07534 33.5183C8.91328 34.1665 9.39945 34.0044 9.72357 34.1665C9.88563 34.1665 10.2098 34.3285 10.2098 34.4906C10.3718 35.1388 10.5339 35.625 10.6959 36.2733C10.6959 36.4353 10.858 36.7594 11.0201 36.9215C11.1821 37.0835 11.3442 37.0835 11.3442 36.9215C11.5062 36.5974 12.1545 36.5974 12.3165 36.9215C12.6407 37.2456 12.8027 37.5697 12.9648 37.8939C13.4509 38.218 13.4509 38.7042 13.613 39.1903C13.613 39.3524 13.451 39.5145 13.2889 39.5145C13.1268 39.5145 12.9648 39.5145 12.8027 39.5145C12.3165 39.3524 11.9924 39.6765 11.9924 40.1627C11.9924 40.6489 11.9924 41.1351 12.1545 41.6212C12.1545 41.7833 12.4786 41.9453 12.6407 42.1074C12.8027 42.1074 12.9648 42.1074 13.1268 42.1074C12.9648 42.1074 12.8027 41.9453 12.6407 41.7833C12.6407 41.4592 12.6407 41.2971 12.6407 40.973C12.6407 40.8109 12.6406 40.6489 12.8027 40.6489C13.2889 40.4868 13.7751 40.6489 14.0992 40.8109C14.4233 40.973 14.2613 41.2971 14.2613 41.6212C14.2613 41.7833 14.2613 41.7833 14.2613 41.9453C14.2613 42.2695 14.4233 42.4315 14.7474 42.4315C15.0715 42.4315 15.3957 42.5936 15.3957 42.9177C15.5577 43.2418 15.5577 43.5659 15.7198 43.728C15.8819 44.2142 15.7198 44.3762 15.3957 44.5383C15.2336 44.5383 15.0716 44.7004 15.0716 44.7004C14.9095 44.8624 14.9095 45.0245 14.9095 45.0245C15.0716 45.5106 15.0716 45.9968 14.9095 46.6451C14.7474 46.9692 14.9095 47.2933 15.2336 47.6174C15.5577 47.9415 15.8818 48.1036 16.206 48.4277C17.0163 49.076 17.5024 49.7242 18.1507 50.3724C18.4748 50.8586 18.961 51.1827 19.2851 51.5068C19.4471 51.6689 19.6092 51.831 19.7713 51.6689C19.9333 51.831 19.9333 51.831 20.0954 51.993C20.2574 52.1551 20.4195 52.3171 20.5816 52.6413C20.7436 52.9654 20.7437 53.2895 20.7437 53.6136C20.9057 54.0998 20.7436 54.4239 20.5816 54.748C20.4195 54.9101 20.4195 55.0722 20.5816 55.3963C21.0678 55.8825 21.3919 56.3686 21.878 56.6927C22.0401 56.8548 22.0401 57.0169 22.0401 57.0169C22.0401 57.1789 21.878 57.1789 21.716 57.1789C21.0677 57.1789 20.9057 57.5031 20.5816 57.9892C20.2575 58.3133 19.9333 58.7995 19.4471 58.6375C19.4471 58.6375 19.4471 58.6375 19.2851 58.6375C19.2851 58.7995 19.4471 59.1237 19.4471 59.2857C19.6092 60.096 20.0954 60.7442 19.9334 61.7166C19.7713 62.3648 20.0954 63.1751 20.5816 63.8234C21.0678 64.6337 20.7436 64.6337 20.2574 64.9578C20.0954 64.9578 19.9333 65.1199 19.7713 65.1199C19.6092 65.1199 19.4471 65.1199 19.2851 65.1199C19.123 65.1199 18.961 64.9578 18.7989 64.9578C18.7989 64.6337 17.9886 63.9854 17.1783 63.6613C17.1783 63.8234 17.3404 63.9854 17.3404 64.3096C17.3404 64.6337 17.5024 64.9578 17.9886 65.1199C18.3127 65.2819 18.4748 65.444 18.6368 65.7681C18.7989 66.2543 18.961 66.9025 19.4471 67.2266C20.0954 67.7128 20.4195 68.361 20.5816 69.3334C20.5816 70.1437 20.5816 70.1437 19.9334 70.3058C18.961 70.4678 19.123 70.4678 18.7989 69.6575C18.6369 69.3334 18.4748 69.0093 18.1507 69.0093C17.6645 69.0093 17.3404 68.6852 17.3404 68.199C17.3404 67.8749 17.3404 67.7128 17.3404 67.3887C17.1783 67.0646 17.1783 66.7405 16.8542 66.5784C16.368 66.2543 15.7198 66.0922 15.5577 65.444C15.5577 65.2819 15.3956 65.1199 15.2336 64.9578C15.2336 64.7957 15.0716 64.7957 14.9095 64.7957C14.5854 64.9578 14.0992 65.1199 13.7751 65.1199C12.9648 65.2819 11.9924 65.444 11.1821 65.606C10.858 65.606 10.5339 65.444 10.3718 65.9302C10.3718 65.9302 10.2098 65.9301 10.2098 66.0922C9.39948 66.4163 8.58915 66.5784 7.94091 66.9025C7.77885 66.9025 7.45474 66.9025 7.29268 66.7405C6.96856 66.5784 6.80651 66.4163 6.64445 66.2543C6.48239 66.4163 6.48237 66.5784 6.32031 66.7405C6.15825 65.9302 5.67211 65.2819 5.34799 64.4716C5.34799 64.6337 5.34798 64.7957 5.18593 64.7957C4.69975 64.9578 4.21354 65.2819 3.88942 65.444C3.40324 65.606 3.40325 65.606 3.24119 65.2819C2.91707 64.7957 2.75501 64.3096 2.43089 63.6613C2.43089 63.4993 2.26886 63.3372 2.1068 63.1751V63.0131C1.29651 63.3372 1.29647 63.3372 1.45853 63.9854C1.45853 64.1475 1.45853 64.3096 1.45853 64.4716C1.45853 64.6337 1.29647 64.7957 1.45853 64.9578C1.78264 65.9302 2.26884 67.0646 2.59296 68.0369C2.75502 68.361 2.91707 68.3611 3.24119 68.3611C3.56531 68.199 3.72736 68.361 3.88942 68.6852C4.05148 69.1713 4.0515 69.4955 4.21356 69.9817C4.53768 70.6299 4.86181 71.2781 5.18593 71.9264C5.34798 72.0884 5.34797 72.4125 5.02386 72.5746C4.69974 72.7366 4.86179 72.8987 4.86179 73.0608C5.02385 73.3849 5.18593 73.8711 5.34799 74.1952C5.51005 74.8434 5.67209 75.3296 5.83415 75.9778C5.18591 76.3019 4.69974 76.464 4.21356 76.6261C3.72738 76.7882 3.24118 76.9502 3.07912 77.4364C3.07912 77.4364 2.91709 77.4364 2.75503 77.4364C2.43091 77.4364 1.94472 77.7605 1.78266 78.0846C1.45855 78.0846 0.648238 78.4088 0 79.057C0.16206 79.2191 0.324109 79.7052 0.648228 79.7052C1.29647 79.8673 1.94472 80.0293 2.59296 80.0293C4.37562 80.3534 5.99623 80.6776 7.77889 81.0017C7.94095 81.0017 8.10299 81.1638 8.26505 81.4879C8.42711 81.9741 8.58918 82.4602 8.58918 83.1085C8.58918 83.4326 8.58918 83.5947 8.58918 83.9188C8.58918 84.2429 8.42712 84.567 8.42712 85.0532C8.42712 85.2152 8.42712 85.2152 8.42712 85.3773C8.58918 85.5394 8.75121 85.8635 8.91327 86.0255C9.07533 86.1876 9.07535 86.5117 9.23741 86.6738C9.39947 86.9979 9.56151 86.9979 9.72357 86.8358C9.88563 86.6738 10.2097 86.8358 10.3718 86.9979C11.02 87.8082 11.6683 88.7805 12.1545 89.7529C12.3165 89.9149 12.4786 90.077 12.6407 89.915C12.8027 89.7529 12.9648 89.5909 13.1268 89.5909C13.2889 89.5909 13.2889 89.4288 13.451 89.4288C13.7751 89.4288 14.0992 90.2391 13.9371 90.4012C13.9371 90.5632 13.9371 90.7253 13.9371 91.0494H14.0992C14.4233 90.5632 14.7474 90.077 14.9095 89.5909C15.2336 89.1047 15.2336 89.1047 15.7198 89.4288C16.206 89.915 16.6921 90.2391 17.0163 90.7253C17.1783 90.5632 17.1783 90.5632 17.3404 90.4012C17.6645 90.077 17.8266 90.077 18.3128 90.2391C18.6369 90.4012 18.961 90.4011 19.2851 90.5632V90.4012C19.4471 90.2391 19.6092 90.077 19.7713 90.077C20.5816 89.7529 21.0678 88.9426 21.5539 88.2944C21.716 87.9702 22.0401 87.6461 22.2022 87.4841C22.5263 87.1599 22.6884 86.9979 23.0125 86.8358C22.8504 86.5117 22.6884 86.1876 22.3642 85.8635C21.8781 85.0532 21.3918 84.2429 20.9057 83.5946C20.7436 83.2705 20.7436 83.1085 21.0677 82.9464C21.5539 82.6223 21.8781 82.4602 22.3642 82.1361C22.5263 81.9741 22.6884 81.812 22.3642 81.6499C22.2022 81.4879 22.0401 81.3258 21.878 81.3258C21.878 81.3258 21.878 81.1637 22.0401 81.1637C22.2022 81.1637 22.2022 81.1637 22.3642 81.1637C22.3642 80.6776 22.2022 80.1914 21.878 79.7052C21.5539 79.219 21.2298 78.7329 21.5539 78.0846C21.716 77.7605 21.878 77.4364 21.878 77.1123C21.878 77.1123 22.0401 77.1123 22.2022 77.2743C22.0401 76.9502 21.878 76.7882 21.878 76.464C21.3919 75.6537 21.3919 75.6537 22.0401 74.6814C22.3642 74.3573 22.6884 74.3573 23.0125 74.6814C23.1745 75.0055 23.4986 75.1675 23.6607 75.4917C23.9848 75.0055 24.309 75.1675 24.6331 75.4917C24.6331 75.4917 24.7951 75.6537 24.9572 75.6537C25.2813 75.4917 25.7675 75.4917 26.0916 75.3296C26.9019 74.8434 27.7122 74.1952 28.5225 73.709C28.6845 73.709 28.6846 73.5469 28.8466 73.5469C29.3328 73.709 29.6569 73.709 30.1431 73.8711C30.9534 74.0331 31.6016 74.3572 32.4119 74.5193C32.4119 74.5193 32.574 74.5193 32.574 74.3572C32.4119 74.6813 32.574 75.0055 32.736 75.1675C33.2222 75.8158 33.5464 76.464 33.7084 77.2743C33.7084 77.4364 33.8704 77.4364 34.0325 77.4364C34.3566 77.4364 34.5187 77.5984 34.6807 77.7605C35.0048 78.0846 35.329 78.5708 35.6531 78.8949C35.8152 79.057 36.1393 78.8949 36.4634 79.057V78.7329C36.3013 78.8949 36.1393 78.8949 35.9772 79.057C35.9772 78.5708 36.1393 78.2467 35.8152 77.9226C35.491 77.4364 35.329 76.7881 35.491 76.1399V75.9778C35.491 75.4916 35.4911 75.4917 35.9772 75.3296C36.4634 75.3296 36.9496 75.1676 37.2737 75.0055C37.7599 74.6814 38.246 74.3573 38.7322 74.0331C39.3805 73.547 40.0287 73.2228 40.839 73.0608C42.1355 72.7367 43.594 72.4125 44.8905 72.0884C45.3767 71.9263 45.8629 71.6022 46.5111 71.4402C48.1317 70.7919 49.7523 70.3058 51.3729 69.6575C51.535 69.6575 51.5349 69.4955 51.8591 69.4955C51.697 69.4955 51.535 69.4955 51.3729 69.3334C51.535 69.3334 51.535 69.1714 51.535 69.1714C51.8591 69.1714 52.0211 69.0093 51.8591 68.6852C51.697 68.361 51.535 68.199 51.535 67.8749C51.697 67.7128 51.8591 67.5508 52.0211 67.5508C52.6694 67.3887 53.1555 67.0646 53.8038 66.9025C53.9658 66.7404 54.29 66.7405 54.452 67.0646C54.452 67.0646 54.6141 67.0646 54.7762 67.0646C55.5864 66.7405 56.2347 66.4163 57.045 66.2543C57.3691 66.0922 57.8553 65.9301 58.3414 66.0922C58.3414 66.0922 58.5035 66.0922 58.6656 65.9302C59.1517 65.606 59.962 65.7681 60.1241 66.4163C60.7723 66.5784 61.5826 66.7404 62.2309 66.9025C63.2032 67.2266 64.1756 67.3887 65.1479 67.7128C65.4721 67.8749 65.7962 67.8749 66.2823 67.7128C67.4168 67.2266 67.0927 67.0646 67.7409 68.199C67.7409 68.199 67.7409 68.3611 67.9029 68.3611C68.065 68.5231 68.2271 68.6852 68.3891 68.6852C69.0374 68.6852 69.5236 68.6852 70.1718 68.6852C70.3339 68.6852 70.4959 68.6852 70.658 68.8472C70.9821 69.1713 71.1441 69.3334 71.4683 69.0093C71.6303 69.4955 71.7924 69.9816 71.9544 70.6299C72.1165 70.4678 72.1165 70.3058 72.1165 70.3058C72.2785 70.3058 72.4406 70.4678 72.6027 70.3058C73.5751 69.8196 74.5474 69.4955 75.5198 69.0093C75.6818 69.0093 75.8439 68.8472 75.8439 68.8472C75.8439 68.5231 76.0059 68.6852 76.168 68.5231H76.33C76.168 68.199 76.006 68.0369 75.8439 67.7128C75.0336 67.3887 75.0336 67.3887 74.8715 67.5508ZM21.5539 79.8673C21.716 79.8673 21.878 80.1914 22.0401 80.1914C22.0401 80.1914 22.0401 80.1914 21.878 80.1914C21.716 80.1914 21.5539 80.0293 21.2298 80.0293C21.2298 80.1914 21.3919 79.8673 21.5539 79.8673ZM64.3377 53.7757C64.1756 53.6136 64.1756 53.6136 64.1756 53.4516C64.1756 53.4516 64.3377 53.2895 64.3377 53.1274C64.3377 53.1274 64.3377 53.1274 64.4997 53.1274C64.4997 53.4516 64.4997 53.6136 64.3377 53.7757C64.4997 53.7757 64.4997 53.7757 64.3377 53.7757Z" fill="#00CCD9"/>
<path d="M129.029 108.256C128.056 107.445 126.922 106.797 125.95 105.987C125.301 105.501 124.815 105.176 124.167 104.69C124.005 104.528 123.843 104.528 123.519 104.528C123.519 104.528 123.357 104.204 123.195 104.204C122.06 103.718 121.25 102.908 120.278 102.259C120.116 102.097 119.791 102.097 119.629 101.935C119.629 101.773 119.467 101.611 119.467 101.449C118.495 100.315 117.523 99.3422 116.712 98.2078C116.226 97.5596 115.74 96.9114 115.254 96.2631C115.092 96.1011 114.93 96.1011 114.93 95.939C114.768 95.7769 114.768 95.7769 114.606 95.6149C114.768 95.4528 114.606 95.2908 114.606 95.2908C114.119 94.3184 113.309 93.6701 112.499 93.184C112.337 93.0219 112.175 93.0219 112.013 92.8599C110.878 91.8875 109.906 90.7531 108.933 89.6187C108.771 89.4566 108.609 89.1325 108.447 88.9705C108.285 88.8084 108.123 88.6463 108.123 88.3222C108.123 88.1601 108.123 88.1602 108.123 87.9981C107.799 87.3499 107.475 86.8637 107.151 86.2154C106.989 85.8913 106.827 85.5672 106.34 85.4051C106.016 85.4051 106.016 85.081 106.016 84.7569C106.016 84.5948 106.178 84.2707 106.016 83.9466C105.854 83.1363 105.53 82.4881 105.206 81.6778C105.044 81.3537 105.044 81.1916 105.368 81.0295L105.53 80.8675C105.206 80.2192 104.558 80.2192 104.072 80.2192C103.91 80.2192 103.585 80.0572 103.748 79.733C103.91 79.2469 103.585 78.9227 103.261 78.7607C102.937 78.5986 102.775 78.1125 102.451 78.1125C101.965 77.9504 101.803 77.7883 101.641 77.4642C101.479 77.3022 101.479 77.1401 101.317 77.1401C100.992 76.816 100.506 76.4918 100.182 76.1677C99.696 75.6815 98.8857 75.5195 98.2375 75.6816C98.0754 75.6816 98.0755 75.6816 97.9134 75.8436C97.5893 76.1677 97.1031 76.1677 96.779 75.8436C96.6169 75.8436 96.6169 75.6816 96.4548 75.6816C95.4825 75.6816 94.3481 75.6816 93.3757 75.6816C93.2136 75.6816 92.8895 75.8436 92.7275 75.6816C91.9172 75.5195 91.1069 75.3575 90.4587 75.1954C89.6484 75.0333 88.8381 75.0333 88.1898 74.8713C87.8657 74.8713 87.5416 74.7092 87.2175 75.1954C87.2175 75.1954 87.0554 75.3574 86.8933 75.3574C86.5692 75.3574 86.0831 75.3574 85.7589 75.3574C85.7589 75.1954 85.921 75.0333 85.921 75.0333C85.7589 75.1954 85.4348 75.1954 85.4348 75.5195C85.2727 75.8436 85.2727 76.1677 85.2727 76.3298C85.1107 77.3021 85.1107 78.2745 84.9486 79.2469C84.7866 80.3813 84.6245 81.3537 84.4624 82.4881C84.4624 83.1363 83.9762 83.2984 83.4901 83.1363C83.1659 82.9742 83.0039 82.9742 82.6798 82.9742C82.1936 82.9742 82.0315 83.1363 82.0315 83.6225C82.0315 84.1086 82.0315 84.5948 82.0315 85.081C81.8695 85.7292 81.8695 86.5395 81.5454 87.0257C81.2213 87.5119 81.0592 87.9981 80.8972 88.4843C80.7351 89.6187 80.0868 90.7531 79.4386 91.7254C78.9524 92.3737 78.3042 93.0219 77.656 93.8322C77.3318 94.1564 77.1697 94.6425 77.0077 94.8046C76.6836 94.9666 76.5215 95.1287 76.6836 95.2908C76.5215 95.2908 76.3595 95.4528 76.3595 95.4528C76.0353 96.1011 75.7112 96.7493 75.3871 97.5596C75.063 98.2078 74.9009 98.694 74.7389 99.3423C74.4147 99.8284 74.4147 100.477 74.0906 100.963C73.6045 101.773 73.1183 102.583 72.6321 103.232C71.9839 104.042 71.3356 105.014 70.8494 105.825C70.6874 106.149 70.5253 106.473 70.3633 106.959C70.6874 106.959 70.8494 106.797 71.0115 106.635C71.1736 106.635 71.3356 106.635 71.3356 106.635C71.4977 106.797 71.6597 106.959 71.6597 107.283C71.6597 107.445 71.6597 107.607 71.6597 107.607C71.8218 108.093 71.8218 108.418 71.9839 108.904C71.9839 109.228 72.1459 109.39 72.47 109.39C72.9562 109.39 73.2803 109.714 73.2803 110.2C73.2803 110.362 73.2803 110.362 73.2803 110.524C73.4424 110.848 73.4424 111.335 73.6045 111.659C73.7665 112.145 73.7665 112.631 74.0906 112.955C74.2527 113.117 74.2527 113.279 74.2527 113.603C73.9286 114.414 73.6045 115.224 73.2803 115.872C73.2803 116.034 73.2803 116.034 73.2803 116.359C73.2803 116.359 73.1183 116.521 72.9562 116.521C73.1183 116.845 73.2803 117.007 73.2803 117.331C73.4424 117.655 73.4424 117.817 73.2803 117.979C72.9562 118.303 72.7942 118.627 72.47 118.951C72.7942 119.114 72.7941 119.114 73.1183 118.951C73.2803 118.789 73.2803 118.627 73.4424 118.465C73.4424 118.303 73.4424 117.979 73.6045 117.979C74.0907 117.817 74.4147 117.655 74.9009 117.493C75.5492 117.331 76.0354 117.331 76.6836 117.169C76.8457 117.493 77.3318 116.845 77.4939 117.169C77.818 117.493 78.1421 117.169 78.6283 117.331C78.4662 117.493 78.3042 117.493 78.1421 117.493C78.3042 117.817 78.6283 118.141 78.6283 118.627C78.6283 118.951 78.4662 119.276 78.3042 119.762C78.9524 118.789 79.7627 118.141 80.8972 117.979C81.2213 117.979 81.3833 117.979 81.3833 118.303C81.3833 118.627 81.2212 118.951 81.2212 119.276C81.2212 119.6 81.3833 119.6 81.5454 119.6C81.8695 119.6 82.1936 119.6 82.5177 119.6C83.0039 119.6 83.0039 119.762 83.0039 120.248C83.0039 120.572 83.0039 120.896 83.0039 121.22C83.0039 122.355 82.8418 123.327 82.8418 124.461C82.8418 125.272 82.8418 125.272 83.4901 125.434H83.6521C84.6245 125.596 85.5969 125.758 86.4072 126.082C87.2175 126.406 88.0278 127.054 88.8381 127.541C88.3519 128.027 88.5139 128.513 88.8381 128.513C89.0001 128.513 89.3242 128.675 89.4863 128.675C90.2966 128.999 90.4587 129.161 90.4587 128.027C90.4587 127.703 90.6207 127.541 90.9448 127.703C91.2689 127.865 91.431 127.703 91.593 127.541C91.9172 127.216 92.2413 126.892 92.7275 126.568C92.8895 126.406 93.2137 126.406 93.5378 126.406C93.6998 126.406 93.8619 126.73 93.8619 127.054C93.8619 127.541 94.186 128.189 93.6998 128.675V128.837C93.6998 129.323 93.6998 129.647 94.0239 129.972C94.3481 130.296 94.9963 130.782 94.6722 131.592C94.9963 131.592 95.1584 131.43 95.4825 131.43C96.1307 131.268 96.941 131.106 97.4272 130.62C97.9134 130.134 98.0755 129.485 98.7237 129.161C98.8858 129.323 99.0478 129.323 99.2099 128.999C99.3719 128.675 99.534 128.189 99.696 128.027C100.02 127.541 100.02 127.217 99.8581 126.892C99.534 126.406 99.3719 125.596 98.8857 125.272V125.11C99.0478 124.299 99.2099 123.489 99.3719 122.679C99.3719 122.517 99.696 122.355 99.8581 122.355C100.182 122.355 100.668 122.355 100.993 122.355C101.155 122.355 101.479 122.355 101.479 122.841C101.641 123.651 101.803 124.299 102.127 125.11C102.451 125.758 102.613 126.406 103.585 126.568C103.585 126.568 103.748 126.568 103.748 126.73C104.072 127.054 104.396 126.73 104.72 126.73C104.72 126.73 104.882 126.568 104.882 126.406C104.72 125.596 104.72 124.786 104.558 123.975C104.558 123.651 104.72 123.489 105.044 123.327C105.368 123.327 105.692 123.165 106.016 123.327C106.178 123.327 106.34 123.327 106.665 123.327C107.151 123.165 107.637 123.165 108.123 123.003C108.447 122.841 108.771 122.841 108.933 123.165H109.096C109.582 123.003 110.23 122.841 110.716 122.679C110.554 122.355 110.392 122.193 110.23 121.869C110.068 121.382 109.582 121.058 109.582 120.572C109.42 119.762 109.42 118.951 109.42 118.141C109.42 117.655 109.582 117.007 109.744 116.521C109.744 116.359 110.068 116.034 110.23 116.034C110.716 115.872 111.04 115.71 110.716 115.224C110.554 115.062 110.554 114.9 110.392 114.738C110.23 114.414 110.23 114.252 110.554 114.09C111.526 113.604 112.337 112.955 113.309 112.469C113.471 112.307 113.795 112.307 113.957 112.469C114.281 112.631 114.606 112.955 114.768 113.117C114.93 113.117 114.93 113.279 115.092 113.279C115.254 113.604 115.578 113.928 115.74 114.252C116.226 113.603 116.874 113.766 117.523 113.766C117.685 113.766 117.847 113.766 118.171 113.766C118.819 113.928 119.143 113.604 119.629 113.279C119.791 113.117 120.116 112.793 120.278 112.793C120.926 112.631 121.736 112.469 122.384 112.307C122.546 112.307 122.708 112.307 122.871 112.469C123.195 112.793 123.519 113.117 123.843 113.279L124.167 113.441C124.491 112.955 124.977 112.955 125.464 112.793C125.95 112.631 125.95 112.145 125.626 111.821C125.463 111.659 125.301 111.335 125.464 111.173C125.626 110.686 125.788 110.362 125.95 109.876C125.788 109.876 125.788 109.876 125.626 109.714C125.95 109.552 126.274 109.39 126.598 109.552C126.76 109.714 127.084 109.714 127.246 109.876C127.408 109.876 127.732 109.876 127.732 109.876C127.732 109.552 128.381 108.904 129.029 108.256ZM94.8342 76.978C95.1583 76.816 95.6445 76.6539 95.9687 76.978H94.8342ZM102.937 126.082H102.775C102.775 125.92 102.775 125.758 102.775 125.596H102.937C103.099 125.758 102.937 125.92 102.937 126.082Z" fill="#00CCD9"/>
<path d="M87.6894 42.7322C87.2032 42.246 86.717 41.7599 86.0688 41.2737C85.7447 40.9496 85.5826 40.6254 85.0964 40.6254C84.1241 40.3013 83.1517 40.1393 82.3414 39.9772C81.5311 39.8152 80.7208 39.491 80.2346 38.8428C79.9105 38.5187 79.4244 38.1945 79.2623 37.7084C78.9382 37.3842 78.2899 37.3843 78.2899 37.0601C78.1279 36.574 77.8038 36.4119 77.4796 36.0878L77.3176 35.9257C75.697 34.7913 73.9143 33.6569 72.2937 32.5225C71.3214 31.8742 70.187 31.226 69.2146 30.5778C68.5664 30.0916 67.9181 29.6054 67.2699 29.1192C65.9734 27.9848 65.9734 26.0401 66.7837 24.5816C67.4319 23.6092 68.2422 22.961 69.3767 22.6368C69.7008 22.4748 69.7008 22.4748 69.5387 22.1507C69.0526 21.3404 68.5663 20.6921 68.0802 19.8818C67.1078 18.4233 66.2975 17.1268 65.3252 15.6683C65.1631 15.5062 65.001 15.5062 65.001 15.3442C64.5149 14.5339 64.0287 13.5615 63.5425 12.7512C63.5425 12.5891 63.3804 12.5891 63.2184 12.5891C63.2184 12.7512 63.0564 12.7512 63.0564 12.9133C63.0564 13.2374 63.2184 13.5615 63.2184 13.8856C63.0563 13.8856 63.0563 13.8856 62.8943 13.8856C62.084 14.0477 61.2737 14.2097 60.4634 14.2097C60.3013 14.2097 60.1393 14.0477 60.1393 13.8856C59.9772 13.5615 59.8151 13.2374 59.491 13.3994C59.329 13.3994 59.1669 13.3994 59.0049 13.3994C58.6807 13.3994 58.5187 13.2374 58.5187 12.9133C58.5187 12.5892 58.5187 12.265 58.5187 11.9409C58.5187 11.6168 58.6807 11.2927 59.0049 11.1306C59.1669 10.9686 59.6531 10.9685 59.491 10.6444C59.491 10.4824 59.0048 10.6444 58.6807 10.6444C58.6807 10.8065 58.6807 10.9685 58.6807 10.9685C58.3566 10.9685 58.0325 10.9686 57.8704 11.1306C57.3843 11.2927 56.736 11.4547 56.2498 11.7788C55.9257 11.9409 55.7637 11.7788 55.7637 11.4547C55.7637 11.2927 55.7637 11.1306 55.7637 10.9685C55.6016 10.9685 55.6016 11.1306 55.6016 11.1306C55.6016 11.6168 55.2775 11.7788 54.7913 11.9409C54.1431 11.9409 53.4948 11.9409 52.8466 12.103C52.5225 12.103 52.3604 12.265 52.3604 12.5891C52.3604 12.9133 52.1983 13.3995 52.0363 13.7236C52.0363 13.8856 51.7122 14.0477 51.5501 14.0477C51.226 14.0477 50.7398 14.0477 50.4157 13.8856C50.0916 13.8856 49.7674 13.8856 49.6054 13.5615H49.4433V12.9133C49.2813 12.9133 49.1192 12.9133 48.7951 12.9133C48.471 12.9133 48.471 13.0753 48.471 13.2374C48.6331 13.7236 48.7951 14.2097 48.7951 14.6959C48.7951 14.858 48.7951 15.02 48.633 15.1821C48.471 15.3442 48.3089 15.1821 48.1469 15.02C47.6607 14.5338 47.3366 14.0477 46.6883 14.0477C46.5263 14.0477 46.2022 13.8856 46.0401 13.8856C45.878 13.8856 45.7159 13.8856 45.3918 13.8856C44.9056 12.9133 44.0954 11.9409 43.123 11.2927C42.9609 11.9409 42.7989 12.103 42.1506 11.9409C41.6645 11.9409 41.1783 11.6168 41.0163 12.265C40.6921 12.5891 40.2059 12.7512 39.8818 13.0753C39.7198 13.2374 39.5577 13.2374 39.3957 13.3994H39.2336C39.2336 13.0753 39.2336 12.9133 39.2336 12.5891C39.2336 12.4271 39.2336 12.4271 39.2336 12.4271C39.0715 11.7789 38.9095 10.9686 38.5854 10.3203C38.5854 10.1583 38.2612 9.99619 38.0991 9.83413C37.9371 9.67207 37.9371 9.18589 37.7751 9.02383C37.613 8.86177 37.2889 9.02383 37.1268 9.02383C36.3165 9.34795 36.3165 9.34795 35.8303 8.69972L35.6683 8.53765C35.5062 8.21353 35.5062 8.05149 35.9924 8.05149C36.1545 8.05149 36.3165 7.88942 36.4786 7.88942V7.72735C36.3165 7.56529 36.1545 7.56529 35.9924 7.40324L35.8303 7.24119C35.6683 7.07913 35.6683 6.755 35.5062 6.59294C35.3442 6.26882 35.3441 6.26881 35.6683 6.10675C35.8303 6.10675 36.1545 5.9447 36.3165 5.78264C36.4786 5.45852 36.6406 5.45854 36.9648 5.6206C37.2889 5.78265 37.613 5.94471 37.7751 5.94471C37.7751 5.62059 37.7751 5.45852 37.7751 5.29646C37.7751 5.1344 37.9371 4.81029 37.9371 4.64823C37.9371 4.48617 37.9371 4.48617 38.0991 4.32411C37.775 4.48617 37.613 4.48616 37.2889 4.48616C37.1268 4.64822 36.9648 4.48617 36.8027 4.32411C36.8027 4.16205 36.6406 4.16206 36.6406 4C35.9924 4.64824 35.5062 5.29647 34.858 5.94471C34.6959 6.10677 34.5338 6.26882 34.2097 6.26882C33.8856 6.26882 33.5615 6.26882 33.2374 6.26882C33.2374 6.43088 33.2374 6.43089 33.2374 6.43089C33.8856 6.75501 33.5615 7.24119 33.3994 7.5653C33.3994 7.72736 33.0753 7.88943 33.0753 8.05149C32.9133 8.69973 33.2374 9.18589 33.7236 9.51001C34.0477 9.83413 34.5338 9.99619 34.858 10.3203C35.02 10.4824 35.02 10.4824 35.02 10.6444C34.858 10.9685 34.6959 11.1306 34.5339 11.4547C34.3718 11.4547 34.2097 11.6168 34.0477 11.6168C34.0477 11.7789 34.0477 11.9409 34.2097 12.103C34.2097 12.265 34.3718 12.265 34.3718 12.4271C34.3718 12.5892 34.3718 12.7512 34.2097 12.7512C33.8856 12.9133 33.7236 13.2374 33.3994 13.3994C33.0753 13.5615 32.9133 13.8856 33.0753 14.2097C33.2374 14.858 33.3994 15.3442 33.5615 15.9924C33.7236 16.8027 34.0477 17.4509 34.2097 18.2612C34.2097 18.4233 34.3718 18.4233 34.3718 18.4233C34.2097 19.0715 34.2097 19.8818 34.858 20.368C35.02 20.5301 35.02 20.6921 35.1821 21.0163C35.3442 21.5024 35.3442 21.8265 35.5062 22.3127C35.6683 22.7989 35.8303 23.2851 35.9924 23.9333C36.1545 24.5815 36.3165 25.0677 36.3165 25.716C36.3165 25.878 36.3165 26.0401 36.3165 26.0401H35.9924C35.6683 25.878 35.3441 25.878 35.02 25.716C34.2097 25.3918 34.2098 25.3919 33.7236 26.2022C33.7236 26.3642 33.5615 26.5263 33.5615 26.6883C33.2374 26.8504 33.0753 26.8504 32.9133 27.0124C32.7512 26.8504 32.5891 26.6883 32.5891 26.5263C32.4271 26.3642 32.103 26.2022 31.9409 26.2022C31.9409 26.6883 31.7788 27.0125 31.7788 27.4986C31.7788 28.471 31.4547 29.4433 31.1306 30.4157C30.9685 30.7398 30.8065 31.226 30.9685 31.5501C31.1306 31.8742 31.1306 32.1984 30.8065 32.3604C30.9685 32.6845 30.9686 33.0087 30.6445 33.1707C30.3203 33.3328 29.9962 33.4948 29.6721 33.6569C29.348 33.8189 29.0238 33.981 28.6997 33.8189C28.3756 33.6569 28.2135 33.4948 27.8894 33.1707C27.5653 33.3328 27.2412 33.4948 27.0791 33.6569V34.4672C27.0791 34.4672 27.0791 34.4672 26.9171 34.4672C26.9171 34.3051 26.9171 34.1431 26.9171 33.981C26.755 33.981 26.755 34.1431 26.593 34.1431C26.1068 33.981 25.6206 33.8189 25.1344 33.8189C24.8103 33.981 24.3241 34.3051 24 34.4672C24.4862 34.6292 24.8103 34.7913 25.1344 34.9534C25.6206 35.2775 25.9447 35.7636 26.4309 36.0878C26.9171 36.4119 27.0791 37.0601 27.7273 36.8981C27.7273 37.0601 27.7274 37.2222 27.8894 37.2222C28.0515 37.3843 28.2135 37.3843 28.3756 37.5463C28.6997 37.8704 28.8618 38.1945 29.1859 38.5187C30.1582 39.329 31.2927 40.1393 32.103 41.1116C32.5892 41.5978 33.0753 42.4081 33.3994 43.0563C33.5615 43.2184 33.7236 43.3805 33.8856 43.2184C34.3718 43.0563 34.858 43.0563 35.3442 42.8943C35.6683 42.8943 35.8303 42.5701 35.9924 42.5701C35.9924 42.5701 36.1545 42.5702 36.1545 42.4081C36.4786 42.246 36.9647 42.084 37.2889 41.5978C37.4509 41.2737 37.613 41.1116 37.9371 41.1116C37.9371 41.1116 38.0992 40.9496 38.2612 40.9496C38.0992 40.9496 37.9371 40.9496 37.7751 40.9496C38.0992 40.3013 38.0992 40.3013 38.7474 40.1393C38.9095 40.1393 39.2336 39.9772 39.3957 39.9772C39.5577 39.9772 39.8818 39.8151 40.0439 39.8151C40.2059 39.8151 40.368 39.9772 40.53 40.1393C40.8542 39.6531 40.2059 39.6531 40.0439 39.491C40.0439 39.329 40.0439 39.1669 40.0439 39.0048C40.0439 38.6807 40.2059 38.5187 40.53 38.5187C41.0162 38.3566 41.6645 38.8428 41.6645 39.329C41.8265 39.8151 41.9886 39.9772 42.4748 39.8151C43.123 39.6531 43.7713 39.491 44.2574 39.9772C45.2298 40.7875 46.3642 41.5978 47.3366 42.4081C47.4986 42.5702 47.8227 42.8943 47.8227 43.2184C47.8227 43.7046 47.8228 44.1908 47.6607 44.6769C47.6607 45.1631 47.6607 45.1631 47.9848 45.1631C48.9571 45.0011 49.9295 44.6769 51.0639 44.5149C51.226 44.5149 51.5501 44.3528 51.7122 44.5149C52.5225 44.839 53.4948 45.0011 54.3051 45.3252C56.2498 45.9734 58.1945 46.7837 60.1393 47.2699C60.9496 47.594 61.4357 48.0802 61.5978 48.8905C61.5978 49.0525 61.7599 49.2146 61.9219 49.3767C62.084 49.5387 62.084 49.7008 62.2461 49.8628C62.4081 50.0249 62.4081 50.349 62.5701 50.349C62.8943 50.349 63.0563 50.349 63.3804 50.349C63.5425 50.349 63.7046 50.349 63.8667 50.5111C65.0011 51.8076 66.2975 53.104 67.4319 54.2385C68.2422 55.0488 68.7284 56.0211 69.7008 56.5073V56.6693C70.0249 56.9935 70.1869 57.3176 70.5111 57.3176C70.8352 57.4796 70.9973 57.6417 71.1593 57.8038C71.4834 58.2899 71.8075 58.7761 72.2937 59.2623C72.2937 59.2623 72.4558 59.2623 72.6179 59.2623C72.942 59.2623 73.4281 59.4244 73.7522 59.4244C74.2384 59.4244 74.5626 59.4244 75.2108 59.4244C74.8867 59.1002 74.5626 58.7761 74.4005 58.6141C74.2385 58.452 74.0764 58.2899 74.2385 57.9658C75.2108 56.5073 75.5349 54.8867 76.0211 53.2661C76.1832 52.7799 76.3452 52.4558 76.6693 52.1317C76.8314 51.9696 77.1555 51.8076 77.3176 51.6455C78.452 50.6731 79.4243 49.5387 80.5588 48.5664C80.7208 48.4043 80.8829 48.4043 81.0449 48.4043C81.6932 48.2422 82.5035 48.2422 83.1517 48.0802C84.1241 47.9181 85.0964 47.9181 86.2308 47.7561C85.7447 46.7837 86.0688 46.2975 86.717 46.2975C86.717 45.8113 86.717 45.3252 86.8791 44.839C87.0411 45.0011 87.0412 45.001 87.2032 45.001C87.2032 44.839 87.2032 44.6769 87.2032 44.5149C88.3376 43.3805 88.1756 43.0563 87.6894 42.7322ZM35.9924 41.9219C35.9924 41.7599 35.9924 41.7599 35.9924 41.9219C36.3165 41.7599 36.4786 41.2737 36.8027 41.5978C36.6406 41.5978 36.3165 41.7599 35.9924 41.9219Z" fill="#00CCD9"/>
<path d="M111.852 10.9644C111.852 10.9644 111.69 10.9644 111.852 10.9644C111.042 10.9644 111.042 10.4782 110.88 9.99207C110.88 9.83001 110.718 9.66796 110.718 9.66796C110.07 9.66796 110.232 9.18177 110.07 8.69559V8.85766C109.746 8.20942 109.097 8.04735 108.449 7.88529C108.449 7.39911 108.449 6.91295 108.611 6.42677C108.611 6.10265 108.611 5.94058 108.287 5.94058C107.963 5.94058 107.639 5.94058 107.315 5.94058C106.991 5.94058 106.829 5.94058 106.829 5.4544L106.667 5.29236C106.667 5.45441 106.667 5.45441 106.667 5.61647C106.504 5.61647 106.504 5.61646 106.342 5.4544C106.18 5.77852 106.18 5.94059 106.018 6.10265C105.856 6.75089 105.37 6.91296 104.722 6.58884C104.236 6.42678 103.912 6.42677 103.425 6.42677C103.101 6.42677 102.939 6.42676 102.939 5.94058C102.939 5.77852 102.939 5.77853 102.939 5.61647C102.453 5.77853 101.967 5.77852 101.481 5.94058C100.994 6.10264 100.508 6.10264 100.022 6.2647C99.6979 6.42676 99.5359 6.2647 99.3738 5.94058C99.3738 5.77852 99.2118 5.45441 99.0497 5.29236C99.0497 5.61647 99.0497 5.77853 99.0497 6.10265C99.0497 6.26471 98.8876 6.42677 98.8876 6.42677C98.4015 6.42677 98.4015 6.75088 98.2394 7.075C98.0773 7.56117 97.5912 7.56119 97.267 7.72325C97.105 7.72325 96.9429 7.56119 96.7809 7.39913C96.4568 6.91296 96.2947 6.42676 96.1326 5.94058L95.9706 5.77854C95.9706 5.77854 95.9706 5.77854 95.8085 5.77854C95.8085 6.10266 95.9706 6.42676 95.9706 6.75088C95.9706 6.91294 95.8085 7.075 95.8085 7.23706C95.4844 7.39912 94.9982 7.56118 94.6741 7.56118C94.5121 7.56118 94.35 7.39913 94.1879 7.39913C94.0259 7.07501 93.8638 7.075 93.7018 7.23706C93.7018 7.23706 93.5397 7.39913 93.3776 7.39913C93.3776 7.23707 93.3776 7.23705 93.3776 7.075C93.3776 7.075 93.3776 7.075 93.2155 7.075C93.2155 7.23705 93.0535 7.39913 93.0535 7.39913C92.8915 7.88531 92.4053 8.04737 92.0812 7.72325C91.9191 7.56119 91.757 7.23705 91.595 7.075C91.1088 6.42676 90.6226 5.77854 90.4606 4.96824C90.4606 4.64412 90.2985 4.48204 89.9744 4.6441C89.9744 4.6441 89.8123 4.64412 89.8123 4.48206C89.6503 4.15794 89.3261 3.83382 89.3261 3.34765C89.3261 3.02353 89.3261 2.6994 89.1641 2.37528C89.1641 2.21322 89.002 2.21321 89.002 2.21321C88.6779 2.21321 88.3538 2.05117 88.3538 1.72705C88.0296 1.56499 87.7056 1.56497 87.3814 1.40291C86.7332 1.40291 86.4091 1.24087 86.4091 0.430569C86.085 0.430569 85.7608 0.592614 85.4367 0.592614C85.2747 0.592614 85.1126 0.592614 85.1126 0.592614C84.9505 0.268495 84.4644 0.2685 84.1403 0.2685C83.9782 0.2685 83.9782 0.106455 83.8161 0.106455C83.492 -0.0556045 83.3299 -0.0556194 83.1679 0.2685C83.0058 0.592619 82.8438 0.754683 82.5197 0.754683C82.0335 0.754683 81.3852 0.754673 80.8991 0.592614C80.5749 0.592614 80.2508 0.592614 80.0888 0.592614C79.9267 0.430554 79.6025 0.106455 79.4405 0.106455C78.9543 0.106455 78.3061 -0.217669 77.982 0.430569C77.982 0.592629 77.8199 0.592614 77.6579 0.592614C76.8476 0.754673 76.0373 0.916738 75.227 1.0788C75.227 1.0788 75.227 1.0788 75.0649 1.0788C75.227 1.0788 75.227 1.24087 75.227 1.24087C75.0649 1.72705 74.5787 1.8891 74.0925 1.8891C73.7684 1.8891 73.6064 1.8891 73.4443 2.37528C73.4443 2.6994 73.1202 2.86145 72.9581 3.02351C72.9581 3.02351 73.1202 3.18559 72.9581 3.34765C72.9581 3.50971 72.9581 3.83381 72.7961 3.99587C72.472 4.15793 72.3099 4.48205 72.3099 4.80617C72.3099 5.13029 72.3099 5.29235 72.3099 5.61647C72.3099 5.77853 72.1478 5.94059 71.9858 6.10265C71.8237 6.26471 71.8237 6.2647 71.6617 6.2647C71.8237 6.75088 71.8237 7.075 71.9858 7.56118C71.9858 7.8853 72.1478 8.20942 71.6617 8.37148C71.4996 8.37148 71.4996 8.53355 71.4996 8.53355C71.3375 8.85766 70.8513 9.01972 70.5272 8.85766C70.2031 8.6956 70.041 8.69559 69.879 9.18177C69.879 9.50589 69.717 9.83001 69.5549 9.99207C69.5549 10.1541 69.3928 10.3162 69.3928 10.4783C69.3928 10.8024 69.3928 10.9644 69.0687 11.2886C68.9066 11.4506 69.0687 11.9368 69.0687 12.2609C69.0687 12.423 69.0687 12.423 68.9066 12.585C68.7446 12.9092 68.9066 13.0712 69.0687 13.3953C69.3928 13.7195 69.7169 14.2056 70.2031 14.5297C70.5272 14.8539 70.3652 15.0159 70.0411 15.178C69.3928 15.5021 68.9066 15.5021 68.2584 15.5021C67.9343 15.5021 67.9343 15.5021 67.7722 15.34C67.7722 15.178 67.4481 15.0159 67.4481 15.0159C66.9619 15.0159 66.7999 14.8539 66.6378 14.5297C66.6378 14.3677 66.4758 14.2056 66.3137 13.8815C66.3137 13.7195 66.3137 13.7194 66.3137 13.5574C66.4758 13.2333 66.6378 13.0712 66.7999 12.7471C66.7999 12.585 66.6378 12.423 66.6378 12.2609C66.3137 12.2609 65.9896 12.423 65.8275 12.423C65.1793 12.585 65.0172 12.423 65.0172 11.9368C64.8551 11.7747 64.8552 11.7747 64.6931 11.6127L64.8551 11.4506C64.531 11.2886 64.531 11.4506 64.531 11.7747C64.531 12.423 64.5311 12.423 63.8828 12.423C65.9896 15.6642 68.0963 18.9053 70.0411 22.1465C69.5549 22.3086 69.0687 22.4707 68.5825 22.6327C67.124 23.281 66.3137 24.4154 66.3137 26.036C66.3137 27.0083 66.6378 27.8186 67.286 28.4669C67.6101 28.791 67.7722 29.1151 68.2584 28.953C68.2584 29.4392 68.2584 29.4392 68.9066 29.1151C68.5825 29.4392 68.7446 29.4392 68.9066 29.6013C70.2031 30.5736 71.6616 31.3839 72.9581 32.3563C73.9305 33.0045 74.7408 33.4907 75.7131 34.139C76.1993 34.4631 76.6855 34.9492 77.1717 35.2734C77.982 36.0837 78.7923 36.894 79.6026 37.7043C80.2508 38.3525 80.8991 38.8387 81.7094 39.0007C82.5197 39.1628 83.33 39.3248 84.1403 39.4869C84.6264 39.649 84.9505 39.811 85.4367 40.1352C85.5988 40.2972 85.7608 40.4593 86.0849 40.4593C86.0849 40.4593 86.0849 40.4593 86.247 40.6213C86.0849 40.6213 86.0849 40.6213 85.9229 40.7834C86.0849 40.9454 86.0849 40.9455 86.0849 40.9455C86.5711 41.4316 87.0573 42.0799 87.7055 42.404C88.3538 42.8902 88.1917 43.7005 88.1917 44.3487V44.5108C87.8676 44.6728 88.0297 44.8349 87.8676 45.159C87.8676 45.321 87.8676 45.4831 87.7055 45.6452C87.5435 45.8072 87.5435 46.1314 87.7055 46.2934C87.8676 46.4555 88.0297 46.7796 88.1917 46.7796C89.002 47.1037 89.8123 47.4278 90.6226 47.5899C91.595 47.914 92.5673 47.5899 93.5397 48.0761C93.8638 48.2381 94.0258 48.2381 94.0258 48.7243C94.0258 48.8864 94.0258 49.0484 94.0258 49.2105C94.35 49.2105 94.8362 49.3725 95.1603 49.3725C95.8085 48.8864 96.6188 48.2381 97.105 47.7519C97.105 47.4278 96.9429 47.2658 96.9429 47.2658C97.2671 46.1313 97.5912 44.9969 97.9153 43.8625C98.0774 43.2143 97.4291 42.404 96.7809 42.566C96.7809 42.404 96.6188 42.2419 96.6188 42.2419C96.1326 41.9178 95.8085 41.5937 95.3224 41.4316C94.8362 41.2696 94.512 41.1075 94.0258 40.7834C93.5397 40.4593 93.3776 40.1352 93.5397 39.649C94.35 37.5422 95.1603 35.5975 95.9706 33.4907C96.2947 32.6804 96.6188 31.8701 96.9429 31.0598C97.105 30.7357 97.105 30.4116 97.4291 30.2495C97.7532 30.0875 97.5912 29.9254 97.5912 29.7633C97.5912 29.6013 97.5912 29.4392 97.5912 29.2772C97.7532 28.9531 97.7533 28.791 97.9153 28.4669C98.0774 28.1428 98.2394 27.9807 98.5635 28.1427C99.0497 28.3048 99.698 28.4669 100.184 28.4669C100.994 28.6289 101.643 28.6289 102.291 28.1427C102.615 27.9807 102.777 27.6566 102.939 27.4945C103.263 27.3324 103.425 27.0083 103.587 26.6842C104.398 25.2257 105.208 23.6051 106.018 22.1465C106.18 21.8224 106.342 21.4983 106.342 21.1742C106.342 21.1742 106.504 21.0121 106.504 20.8501C106.667 20.5259 106.667 20.3639 106.829 20.0398C106.991 19.7156 106.991 19.3915 107.153 19.3915C107.639 19.0674 107.477 18.4192 107.801 18.095C107.801 18.095 107.801 17.7709 107.801 17.6089C107.801 17.4468 107.639 17.2848 107.639 17.2848C107.639 17.2848 107.639 17.2848 107.801 17.2848C107.963 17.4468 107.963 17.6089 108.125 17.6089C108.287 17.2847 108.449 17.1227 108.611 16.7986C108.935 16.1503 109.259 15.5021 109.422 14.8539C109.422 14.6918 109.422 14.5297 109.422 14.5297C109.584 14.3677 109.746 14.3677 109.746 14.2056C109.908 14.0436 110.07 13.7195 110.232 13.3953C110.718 12.7471 111.366 11.9368 111.852 10.9644ZM109.584 13.5574C109.422 13.5574 109.422 13.5574 109.584 13.5574C109.746 13.2333 109.908 13.0712 110.07 12.9091C110.07 12.9091 110.07 12.9092 110.232 13.0712C109.908 13.2333 109.746 13.3953 109.584 13.5574Z" fill="#00CCD9"/>
<path d="M142.964 65.9024C142.478 65.9024 142.153 65.9024 141.829 65.9024C141.505 65.9024 141.343 66.0645 141.505 66.3886C141.505 66.5507 141.505 66.7127 141.505 66.8748C141.505 67.1989 141.505 67.361 141.181 67.361C141.019 67.361 140.857 67.523 140.695 67.6851C140.857 67.8472 140.857 67.8471 141.019 67.8471C140.857 67.8471 140.857 68.0092 140.695 68.0092C139.885 68.1713 139.236 68.3333 138.426 68.4954C138.102 68.4954 137.94 68.8195 137.94 69.1436C137.94 69.3057 137.94 69.4677 137.94 69.6298C137.94 69.9539 137.94 70.116 137.778 70.278C137.616 70.4401 137.616 70.7642 137.616 70.9263C137.778 71.5745 138.102 72.2228 138.264 72.871C138.264 73.1951 138.426 73.3572 138.426 73.6813C138.426 74.1675 138.75 74.4916 138.912 74.9778C139.074 74.8157 139.074 74.6537 139.074 74.6537C139.236 74.6537 139.236 74.8157 139.398 74.9778C139.56 75.3019 139.56 75.626 139.722 75.9501C139.56 75.9501 139.398 75.788 139.398 75.788C139.236 75.9501 139.398 76.1122 139.56 76.1122C139.56 76.1122 139.723 76.1122 139.885 76.1122C139.723 76.2742 139.722 76.5984 139.722 76.7604C139.236 77.4087 139.398 78.219 139.56 78.8672C139.56 79.0293 139.56 79.3534 139.56 79.5154C139.398 80.3257 139.398 81.136 139.236 81.9463C139.074 82.7566 139.398 83.5669 139.56 84.3772C139.56 84.7014 139.56 84.8634 139.56 85.1875C139.56 85.3496 139.56 85.6737 139.56 85.8358C139.56 86.1599 139.56 86.3219 139.236 86.484C138.912 86.646 139.074 87.1322 139.074 87.2943C139.074 87.6184 139.236 87.9425 139.236 88.2667C139.236 88.4287 138.912 88.5908 138.75 88.7528C138.426 89.239 138.264 89.7252 137.94 90.0493C137.94 90.0493 137.94 90.0493 137.94 90.2114C137.616 91.1837 136.805 91.5078 135.995 91.994C135.509 92.3181 134.861 92.6423 134.537 93.2905C134.537 93.4526 134.212 93.6146 134.05 93.6146C133.402 94.2628 132.592 94.9111 131.944 95.3973C131.295 95.8834 130.971 96.5317 130.161 96.8558C130.647 97.504 131.133 97.9902 131.62 98.4764C131.133 98.8005 130.485 98.9626 129.999 99.2867C129.837 99.2867 129.675 99.4488 129.675 99.1247C129.189 99.2867 129.027 98.9626 128.702 98.6385C128.216 98.1523 127.73 98.3143 127.244 98.6385C126.758 98.9626 126.109 99.2867 125.623 99.7729C125.623 99.7729 125.461 99.7729 125.461 99.935C125.299 100.097 125.137 100.097 125.137 100.259C125.137 100.259 125.137 100.421 124.975 100.583C124.489 100.907 124.165 101.393 123.679 101.718C123.354 102.042 123.192 102.042 122.868 101.718C122.544 101.393 122.058 101.069 121.734 100.745C121.41 100.583 121.086 100.421 120.762 100.097C120.599 99.9349 120.599 99.935 120.437 99.7729C120.275 99.6108 119.951 99.4488 119.789 99.1247C118.655 97.8282 117.682 96.6937 116.548 95.3973C116.062 94.749 115.576 94.1008 115.251 93.4526C114.765 92.4802 113.955 91.832 113.145 91.3458C112.983 91.1837 112.821 91.0217 112.659 91.0217C112.496 90.8596 112.172 90.8596 112.01 90.6975C111.038 89.7252 110.228 88.5908 109.417 87.6184C108.931 86.8081 108.445 85.9978 108.121 85.0255C107.959 84.7013 107.797 84.3772 107.635 83.891C106.986 83.729 107.149 83.0807 106.986 82.5946C106.824 81.7843 106.5 81.136 106.176 80.3257C106.176 80.1637 106.176 80.1637 106.014 80.0016C106.5 79.8395 106.5 79.5154 106.338 79.0292C106.176 78.8672 106.176 78.7051 106.176 78.381C106.014 78.5431 105.852 78.5431 105.69 78.381C105.528 78.219 105.366 78.2189 105.042 78.2189C104.718 78.2189 104.556 78.0569 104.556 77.7328C104.556 77.4087 104.394 77.2466 104.231 77.0846C103.907 76.7604 103.421 76.4363 103.097 76.1122L102.935 75.9501C102.449 75.7881 102.287 75.626 102.287 75.1398C102.287 74.9778 102.125 74.8157 102.125 74.6537H101.963C101.963 74.8157 102.125 74.9778 102.125 74.9778C101.801 74.6536 101.476 74.4916 101.152 74.1675V73.8434C101.314 73.6813 101.314 73.5192 101.314 73.3572C101.314 73.1951 101.314 73.0331 101.314 72.871C101.801 71.4125 102.449 69.7919 103.097 68.3333C103.259 67.8471 103.583 67.361 103.907 67.0368C104.394 66.3886 104.394 65.5783 104.231 64.768C104.231 64.606 104.231 64.4439 104.231 64.4439C104.231 63.1474 104.069 62.013 104.069 60.7165C104.069 60.5545 104.069 60.2303 104.394 60.2303C104.718 60.2303 105.204 60.0683 105.204 60.2303C105.528 60.5545 105.69 60.5545 106.014 60.5545C106.662 60.3924 107.473 60.3924 108.121 60.3924C108.445 60.3924 108.769 60.3924 109.093 60.3924C109.417 60.3924 109.741 60.5545 110.066 60.0683C110.066 60.0683 110.228 60.0683 110.39 60.0683C111.2 60.0683 112.01 60.0683 112.821 60.0683C112.983 60.0683 113.307 60.2303 113.469 60.2303C113.793 60.2303 113.955 60.3924 114.279 60.3924C114.765 60.3924 115.252 60.2303 115.738 60.2303C116.872 60.2303 118.007 60.2303 118.979 60.2303C119.303 60.2303 119.465 60.2304 119.465 59.9062C119.465 59.7442 119.627 59.7442 119.627 59.7442C120.275 59.42 120.762 59.258 121.41 58.9339C121.572 58.9339 121.896 58.9339 122.058 58.9339C122.544 58.9339 123.192 58.9339 123.679 58.9339C123.679 58.9339 123.679 58.9339 123.841 58.9339C124.327 59.0959 124.813 59.0959 125.299 58.9339C125.299 59.0959 125.299 59.258 125.299 59.4201C125.299 59.9062 125.461 60.0683 126.11 60.0683C126.596 60.0683 126.596 59.7442 126.596 59.4201C126.596 59.258 126.758 59.0959 126.758 59.0959C126.92 59.0959 127.244 59.0959 127.406 59.258C127.568 59.258 127.406 59.4201 127.568 59.5821C127.73 59.7442 127.892 59.9062 127.892 59.9062C128.216 59.9062 128.54 59.7442 128.864 59.7442C129.189 59.5821 129.351 59.4201 129.351 59.0959V57.4753C129.351 57.4753 129.351 57.4753 129.513 57.4753C129.675 57.6374 129.837 57.9615 129.999 58.1236L130.161 58.2856C130.809 58.2856 131.295 58.4477 131.944 58.4477C132.43 58.4477 132.43 58.4477 132.43 57.9615C132.43 57.3133 132.43 57.3133 133.078 57.3133C133.564 57.3133 134.05 57.1512 134.537 57.1512C134.699 57.1512 134.699 57.1512 134.861 57.1512C134.861 57.3133 134.861 57.3133 134.699 57.6374C135.023 57.6374 135.347 57.7995 135.671 57.7995C136.319 57.7995 136.967 57.9615 137.778 57.9615C138.588 57.9615 139.56 57.7995 140.371 57.6374C140.533 57.6374 140.695 57.4753 140.857 57.3133C140.371 57.3133 140.533 56.9892 140.371 56.8271C140.371 56.503 140.533 56.503 140.695 56.503C141.019 56.503 141.343 56.3409 141.667 56.8271C141.829 56.9892 142.153 57.1512 142.315 57.3133C142.478 57.4753 142.802 57.4753 142.964 57.4753C143.288 57.4753 143.45 57.6374 143.45 57.7995C143.45 58.2856 143.45 58.6098 143.612 59.0959C143.612 59.258 143.45 59.258 143.45 59.4201C143.126 59.5821 142.964 59.7442 143.126 60.0683C143.126 60.2304 143.126 60.3924 143.126 60.3924C143.126 60.5545 142.964 60.7165 142.964 60.8786C142.964 61.6889 142.964 62.4992 142.964 63.3095C142.964 63.6336 143.288 63.9577 143.288 64.4439C142.64 64.9301 142.802 65.4163 142.964 65.9024Z" fill="#00CCD9"/>
<path d="M85.2702 75.0333C85.1081 75.0333 84.784 75.0333 84.622 75.1954C84.4599 76.1677 84.2978 77.3021 84.2978 78.2745C84.1358 79.0848 83.9737 80.0572 83.8117 80.8675C83.6496 81.3536 83.6496 82.0019 83.6496 82.4881C83.6496 82.8122 83.4876 82.8121 83.3255 82.8121C83.1635 82.8121 83.0014 82.6501 82.8393 82.6501C82.3531 82.6501 82.029 82.488 81.5429 82.8121C81.3808 82.9742 81.2187 83.1363 81.2187 83.1363C81.2187 83.7845 81.2187 84.4328 81.0566 84.919C80.8946 85.5672 80.7325 86.2154 80.5705 86.7016C80.5705 86.8636 80.2463 87.0257 80.2463 87.1878C80.0843 87.3498 80.0843 87.674 79.9223 87.9981C79.9223 88.1601 79.9223 88.4842 79.9223 88.6463C79.5981 89.4566 79.274 90.2669 78.7878 91.0772C78.4637 91.7254 77.8155 92.2116 77.4914 92.6978C77.3293 92.8598 77.1673 93.0219 76.8431 92.8599C77.1673 93.184 77.0052 93.346 76.6811 93.5081C75.8708 94.3184 75.2225 95.2907 74.5743 96.4251C74.2501 97.0734 74.0881 97.7216 73.926 98.2078C73.6019 98.856 73.4399 99.5043 73.1157 100.153C72.7916 101.125 72.3055 101.935 71.6572 102.583C71.171 103.232 70.5228 103.88 70.1987 104.528C69.8746 105.014 69.5504 105.338 69.3884 105.987C69.3884 106.149 69.2263 106.311 69.0643 106.473C68.7401 105.987 68.416 106.149 68.0919 106.311C67.9298 106.473 67.6057 106.635 67.4437 106.797C67.1195 107.121 66.9575 107.121 67.2816 107.445L67.4437 107.607C67.2816 107.769 66.6333 108.093 66.4713 107.931C66.3092 107.931 66.3093 107.769 66.3093 107.607C66.1472 106.311 65.3369 105.338 64.5266 104.366C64.3645 104.042 64.2025 104.042 63.8784 104.204C63.5543 104.366 63.3922 104.528 63.2301 104.528C62.906 104.69 62.5819 104.852 62.0957 104.852C61.7716 104.852 61.4475 105.176 61.1233 105.176C60.9613 104.366 60.9613 104.366 60.151 104.528C59.8269 104.528 59.5027 104.69 59.1786 104.69C58.8545 104.69 58.8545 105.014 59.0166 105.176C59.1786 105.338 59.3407 105.663 59.3407 105.825C59.3407 105.987 59.3407 106.149 59.5027 106.311C59.5027 106.473 59.6648 106.473 59.6648 106.635C59.0166 106.797 58.6924 107.445 57.8822 107.283C57.8822 107.283 57.7201 107.283 57.7201 107.445C57.558 107.607 57.396 107.607 57.2339 107.283C56.7477 106.635 56.2616 105.825 55.6133 105.176C55.6133 105.176 55.7754 105.176 55.7754 105.014C55.2892 104.366 55.4513 103.718 55.6133 102.908C55.6133 102.745 55.6133 102.745 55.6133 102.583C55.6133 102.259 55.7754 102.097 55.9374 102.259C56.2615 102.259 56.2616 102.097 56.4236 101.935C56.5857 101.125 56.2616 100.477 56.4236 99.6663C56.4236 99.5043 56.2616 99.5043 56.2616 99.3422C56.0995 99.1802 56.0995 99.0181 55.9374 98.856C55.7754 98.856 55.1272 98.5319 54.9651 98.2078C54.9651 98.0457 54.803 98.0458 54.803 97.8837C54.4789 97.7217 54.1548 97.5596 53.9927 97.2354C53.6686 96.7493 53.5066 96.2631 53.3445 95.7769C53.1824 95.4528 53.1824 94.9666 53.3445 94.6425C53.3445 93.9943 53.1824 93.5081 52.8583 93.184C52.048 92.3737 51.3998 91.4013 50.5895 90.591C50.4274 90.429 50.2654 90.2669 50.1033 89.9428V89.7807C50.5895 89.6187 50.4274 89.2946 50.2653 88.9704C50.1033 88.4843 49.7792 87.998 49.6171 87.5119L49.455 87.3498C49.1309 87.1878 48.9689 86.8636 49.1309 86.7016C48.9689 86.5395 48.8068 86.5395 48.8068 86.3775C48.3206 85.7292 47.6724 85.081 47.1862 84.2707C46.8621 83.7845 46.7 83.2983 46.538 82.8121C46.538 82.6501 46.3759 82.4881 46.3759 82.4881C46.2139 82.0019 46.0518 81.8398 45.5656 82.1639C45.2415 82.326 45.2415 82.326 45.0795 82.0019C45.0795 81.6777 44.9174 81.5157 44.7553 81.1916C44.5933 80.8674 44.4312 80.5433 44.9174 80.3813C44.9174 80.3813 44.7553 79.8951 44.7553 79.733C44.4312 79.571 44.4312 79.4089 44.2692 79.0848C43.945 78.1124 43.6209 77.1401 43.4589 76.0057C43.2968 75.5195 42.9727 75.3574 42.4865 75.5195C42.0003 75.6815 41.5142 75.8436 41.19 76.0057C41.028 76.0057 40.8659 76.3298 40.8659 76.3298C40.8659 76.8159 40.2177 77.4642 39.5694 77.4642C39.7315 77.6263 39.7315 77.7883 39.8935 77.9504C39.7315 77.9504 39.5694 78.1124 39.4074 78.1124C39.2453 78.1124 39.0832 78.2745 38.9212 78.2745C38.435 78.5986 38.1109 78.5986 37.7868 78.1124C37.6247 77.7883 37.4627 77.4642 36.9765 77.4642C36.8144 77.4642 36.6523 77.1401 36.6523 76.978C36.6523 76.6539 36.6523 76.1677 36.6523 75.8436C36.6523 75.8436 36.8144 75.6815 36.9765 75.6815C37.7868 75.5195 38.2729 75.3574 38.9212 74.8712C39.4073 74.5471 39.8935 74.0609 40.5418 73.7368C41.19 73.4127 41.8383 73.2506 42.4865 73.0886C44.1071 72.6024 45.8897 72.2783 47.3483 71.468C48.3206 70.9818 49.293 70.6577 50.4274 70.3336C51.2377 70.0095 52.048 69.6853 53.0204 69.3612C53.1824 69.1992 53.3445 69.0371 53.1824 68.875C53.0204 68.5509 53.0204 68.2268 52.8583 67.9027C52.6962 67.7406 52.8583 67.5786 53.0204 67.4165C53.5065 67.2544 54.1548 66.9303 54.641 66.7683V66.9303C54.803 66.9303 55.1271 67.0924 55.2892 66.9303C56.2615 66.6062 57.2339 66.2821 58.2063 65.958C58.3684 65.7959 58.6925 65.7959 58.8545 66.12C59.0166 66.12 59.1786 66.12 59.5027 66.2821C59.5027 66.2821 59.5027 66.2821 59.5027 66.12C59.5027 65.958 59.5028 65.7959 59.6648 65.7959C59.8269 65.7959 60.151 65.7959 60.151 65.958C60.313 66.4441 60.9613 66.4441 61.2854 66.6062C62.5819 66.9303 63.8784 67.2544 65.3369 67.5786C65.8231 67.7406 66.1472 67.9027 66.4713 67.9027C66.9575 67.7406 67.2816 67.4165 67.6057 67.2544C67.7678 67.5786 67.9298 67.9027 68.0919 68.2268C68.2539 68.5509 68.416 68.713 68.7402 68.713C69.2263 68.713 69.8746 68.713 70.3608 68.713C70.5228 68.713 70.8469 68.875 71.009 69.0371C71.171 69.0371 71.3331 69.1992 71.3331 69.1992C71.4951 69.1992 71.4951 69.3612 71.4951 69.3612C71.6572 69.6853 71.6572 70.0095 71.8193 70.1715C71.9813 70.4956 72.1434 70.6577 72.4675 70.4956C73.6019 70.0095 74.7364 69.5233 75.8708 69.0371C76.0328 69.0371 76.1949 68.875 76.3569 68.875H76.519C76.519 68.3889 76.8431 68.713 77.1672 68.713C77.1672 68.713 77.1672 68.5509 77.3293 68.3889H77.4914C78.6258 69.5233 79.9223 70.3336 80.8946 71.6301V71.7921C81.2187 71.7921 81.3808 71.6301 81.7049 71.6301C81.7049 71.6301 81.7049 71.468 81.8669 71.468C82.029 71.63 82.029 71.7921 82.1911 71.9542C82.1911 72.1162 82.3532 72.1162 82.5152 72.1162C83.4876 72.2783 83.8117 73.0886 84.2978 73.5748C84.4599 73.5748 84.2978 73.7368 84.4599 73.8989L85.2702 75.0333Z" fill="#00CCD9"/>
<path d="M146.041 27.3328C146.041 27.1707 145.878 27.0086 145.878 27.0086C145.392 26.8466 145.068 26.8466 144.582 26.6845C144.42 26.0363 144.258 26.0363 143.61 26.0363C142.475 26.0363 142.151 25.7122 142.151 24.5777V23.7675C141.827 23.7675 141.665 23.7675 141.341 23.7675C141.017 23.7675 140.693 23.9295 140.53 23.7675C140.368 23.6054 140.53 23.2813 140.368 22.9572C140.368 22.9572 140.368 22.9572 140.368 22.7951C140.368 22.471 140.206 22.3089 139.882 22.3089C139.558 22.3089 139.234 22.1468 139.396 21.6607C139.396 21.3366 139.396 21.1745 139.396 20.8504C139.396 20.6883 139.396 20.5263 139.072 20.5263C138.586 20.5263 138.262 20.5263 137.775 20.5263C136.479 20.3642 135.183 20.6883 133.886 21.0124C133.238 21.1745 132.752 21.3366 132.59 22.1469L132.428 22.3089C132.265 22.3089 132.103 22.471 131.941 22.471C131.617 22.7951 131.293 23.1192 130.969 23.6054C130.483 24.0916 129.997 24.5778 129.51 25.226C127.242 27.6569 124.973 30.0878 122.704 32.5187C122.542 32.6807 122.542 32.8428 122.704 33.0048C122.704 33.1669 122.866 33.1669 122.866 33.329C122.866 33.329 122.866 33.329 122.704 33.329L122.542 33.1669C122.218 32.8428 122.218 32.8428 121.894 33.1669L121.732 33.329C120.597 34.6255 119.463 35.7599 118.328 37.0563C117.842 37.5425 117.194 38.0287 116.546 38.6769C116.384 38.839 116.222 38.839 116.222 38.839C115.897 38.839 115.735 38.839 115.411 38.839C114.277 39.0011 113.304 39.8114 112.656 40.6217C112.332 40.9458 112.008 41.2699 111.846 41.7561C111.684 42.2422 111.036 42.4043 110.712 42.7284C110.549 42.8905 110.549 43.0525 110.712 43.2146C110.712 43.2146 110.712 43.3767 110.874 43.3767C110.712 43.3767 110.712 43.3767 110.549 43.2146C110.549 43.2146 110.387 43.0525 110.387 42.8905C109.739 43.3767 109.253 43.7008 108.605 44.187C108.605 44.187 108.605 44.349 108.767 44.349C108.929 44.1869 109.091 44.187 109.415 44.0249C109.253 44.5111 108.929 44.6731 108.443 44.349C108.119 44.1869 107.957 44.0249 107.632 43.8628C106.984 43.3767 106.336 42.8905 105.688 42.4043C105.364 43.0525 104.715 43.3767 104.715 44.187C104.715 44.349 104.553 44.5111 104.391 44.6731C104.067 44.6731 103.905 44.9973 103.743 45.3214C103.419 45.8076 103.095 46.1317 102.771 46.6179C102.609 46.7799 102.609 46.942 102.446 47.104H102.284C101.798 47.7523 101.15 48.2384 100.988 49.0487C100.988 49.2108 100.826 49.2108 100.664 49.3729C100.664 49.3729 100.502 49.5349 100.34 49.5349C100.016 50.0211 99.5294 50.6693 99.2053 51.1555C99.0432 51.4796 99.2053 51.9658 99.6915 52.1279H99.8535C100.016 52.452 100.34 52.6141 100.664 52.6141C100.826 52.6141 100.988 52.6141 101.15 52.7761C101.474 52.9382 101.636 53.1002 101.96 53.2623C102.284 53.4243 102.609 53.7485 102.609 54.2346C102.609 54.7208 102.771 55.207 102.771 55.6932C102.771 56.9897 102.933 58.1241 102.933 59.4205C102.933 59.4205 102.933 59.4206 102.933 59.5826C103.095 59.5826 103.095 59.5826 103.257 59.5826C103.743 59.4206 104.229 59.4206 104.715 59.9067H104.877C105.039 59.9067 105.201 59.7447 105.364 59.7447C106.174 59.7447 106.822 59.7447 107.632 59.7447C107.957 59.7447 108.443 59.9067 108.767 59.5826C108.767 59.5826 108.929 59.5826 109.091 59.5826C110.063 59.5826 110.874 59.5826 111.846 59.5826C112.008 59.5826 112.17 59.5826 112.17 59.7447C112.494 60.0688 112.818 59.9067 113.305 59.9067C113.467 59.9067 113.629 59.7447 113.953 59.7447C115.249 59.7447 116.546 59.7447 117.68 59.7447C117.842 59.7447 118.004 59.7447 118.004 59.7447C118.166 59.2585 118.652 59.2585 118.977 59.0964C119.949 58.6103 120.921 58.2861 122.056 58.2861C122.704 58.2861 123.19 58.2861 123.838 58.2861C124.649 58.2861 124.649 58.1241 124.649 58.9344C124.649 59.0964 124.811 59.0964 124.811 59.2585C124.811 59.0964 124.973 59.0964 124.973 58.9344C124.973 58.7723 125.135 58.4482 125.135 58.4482C125.621 58.2861 125.945 58.2861 126.431 58.2861C126.431 58.2861 126.593 58.4482 126.593 58.6102C126.593 58.9344 126.755 59.2585 127.242 58.9344C127.404 58.9344 127.404 58.9344 127.566 58.9344C127.728 58.7723 127.89 58.7723 127.89 58.6102C127.89 58.2861 127.89 57.962 127.89 57.4758C127.89 57.1517 128.052 56.9897 128.376 56.9897C128.7 57.3138 129.024 57.7999 129.51 58.1241C129.51 58.1241 129.672 57.962 129.672 57.8C129.672 57.6379 129.672 57.4758 129.672 57.4758C129.672 57.3138 129.835 57.1517 129.997 57.1517C130.321 57.1517 130.321 57.3138 130.321 57.4758C130.321 57.6379 130.321 57.8 130.321 57.962C130.321 58.2861 130.483 58.4482 130.807 58.2861V58.1241C130.807 57.7999 130.807 57.4758 130.969 57.1517C130.969 56.9897 131.455 57.1517 131.617 57.1517C131.617 57.1517 131.617 57.1517 131.779 57.1517C132.265 57.1517 132.914 57.1517 133.4 56.9897C133.886 56.8276 133.886 57.1517 134.048 57.4758C134.048 57.6379 134.21 57.6379 134.372 57.8C134.696 57.8 135.183 57.8 135.507 57.8C135.669 57.8 135.669 57.8 135.831 57.8C136.155 57.8 136.317 57.962 136.641 57.962C137.127 57.962 137.613 57.8 138.1 57.8C138.262 57.8 138.586 57.6379 138.748 57.6379C138.748 57.3138 138.586 56.9897 138.586 56.6655C138.262 56.6655 137.775 56.6655 137.451 56.6655C136.641 56.6655 135.993 56.8276 135.183 56.8276C135.02 56.8276 134.696 56.6655 134.696 56.5035C134.696 56.0173 134.696 55.5311 134.696 55.0449C134.696 54.3967 134.858 53.9105 134.696 53.2623C134.534 52.452 134.534 52.2899 135.507 52.1279C135.507 51.4796 135.507 50.9935 135.345 50.3452C135.345 50.0211 135.345 49.859 135.669 49.859C136.155 49.859 136.803 49.697 137.451 49.697C137.451 48.5626 137.451 47.4282 137.451 46.2937C137.451 45.9696 137.289 45.8076 136.965 45.8076C136.155 45.8076 135.345 45.8076 134.534 45.8076C134.21 45.8076 133.886 45.6455 133.886 45.1593C133.724 43.8628 133.724 42.4043 133.562 41.1078C133.562 40.7837 133.562 40.6216 133.886 40.4596C134.21 40.2975 134.534 40.1355 134.858 39.9734C135.02 39.9734 135.183 39.8113 135.183 39.6493C135.183 38.839 135.345 37.8666 135.345 37.0563C135.345 36.7322 135.345 36.5702 135.507 36.4081C135.507 36.084 135.831 35.7599 135.669 35.2737C135.345 34.3013 135.02 33.1669 134.696 32.1945C134.534 31.8704 134.534 31.3842 134.696 31.0601C135.02 30.2498 135.183 29.4395 135.183 28.6292C135.183 28.4672 135.183 28.3051 135.183 28.1431C135.183 27.8189 135.345 27.6569 135.507 27.6569C136.155 27.4948 136.965 27.3328 137.613 27.1707C138.262 27.0087 139.072 27.1707 139.558 26.5225H139.72C140.53 26.5225 141.341 26.5225 142.151 26.5225C142.313 26.5225 142.475 26.6845 142.475 26.8466C142.475 27.6569 142.313 28.3051 142.151 29.1154C141.989 29.9257 141.989 29.9257 142.799 29.9257C142.961 29.9257 142.961 29.7636 143.123 29.7636C143.286 29.7636 143.448 29.6016 143.61 29.6016C144.096 29.6016 144.258 29.4395 144.258 28.9534C144.258 28.6292 144.42 28.4672 144.744 28.4672C145.554 28.4672 145.554 28.4672 145.554 27.6569C146.041 27.4948 146.041 27.4948 146.041 27.3328ZM141.341 26.1983C141.503 26.0363 141.503 25.8742 141.665 25.7122C141.827 25.8742 141.989 26.0363 142.151 26.1983C141.827 26.1983 141.665 26.1983 141.341 26.1983Z" fill="#00CCD9"/>
<path d="M140.211 19.8779C140.211 20.202 139.887 20.364 139.563 20.364C138.752 20.202 137.942 20.202 137.294 20.202C136.322 20.202 135.511 20.364 134.701 20.6882C134.539 20.6882 134.377 20.8502 134.053 20.8502C133.567 21.0123 133.08 21.1743 132.756 21.6605C130.812 23.7673 128.867 25.8741 126.922 27.9808C126.76 27.8188 126.598 27.6567 126.436 27.4947C126.436 27.6567 126.436 27.6567 126.436 27.6567C126.922 28.1429 126.922 28.1429 126.436 28.467C125.788 29.2773 125.139 29.9255 124.329 30.7358C123.843 31.3841 123.195 31.8703 122.709 32.5185C122.222 33.0047 121.736 33.6529 121.25 34.1391C120.278 35.2735 119.305 36.2459 118.333 37.3803C118.009 37.7044 117.685 37.8665 117.199 38.0285C117.036 38.0285 116.874 38.0285 116.55 37.8665C116.388 37.8665 116.388 37.7044 116.226 37.7044C116.226 37.7044 116.226 37.8665 116.064 37.8665C116.226 38.0285 116.55 38.1906 116.712 38.1906C116.226 38.3527 115.578 38.5147 115.092 38.6768C114.281 39.0009 113.633 39.6491 112.985 40.1353C112.661 40.4594 112.337 40.7835 112.175 41.1076C111.526 42.08 110.554 42.7283 109.42 43.3765C109.258 43.3765 109.258 43.5385 109.096 43.5385C108.609 44.0247 108.609 44.0247 107.961 43.5385C107.313 43.0524 106.827 42.7283 106.178 42.2421C105.854 42.08 105.692 42.08 105.53 42.4041C105.368 42.7282 105.044 43.0524 104.882 43.3765C104.72 43.5386 104.558 43.7006 104.396 43.7006C104.396 43.8627 104.396 44.0247 104.396 44.3488C103.748 44.3488 103.585 45.1592 103.099 45.4833C103.261 45.1592 103.423 44.9971 103.586 44.673C103.261 44.835 102.937 45.1592 103.099 45.4833C103.099 45.6453 103.099 45.8074 102.937 45.8074C102.289 46.7797 101.641 47.59 100.993 48.5624C100.344 49.3727 99.8581 50.3451 99.2099 51.1554C98.8858 51.6415 98.8858 51.6415 98.3996 51.3174C97.5893 50.8312 96.9411 50.345 96.1308 49.6968C95.9687 49.5347 95.8066 49.5348 95.6446 49.3727C96.1307 48.8865 96.617 48.5624 97.1031 48.0762C97.2652 47.9142 97.4273 47.7521 97.1031 47.59C97.1031 47.59 96.9411 47.428 97.1031 47.2659C97.4273 45.9694 97.7513 44.673 98.0755 43.5385C98.0755 43.2144 98.0755 43.0524 97.9134 43.0524C97.5893 42.8903 97.2652 42.7282 97.1031 42.4041C96.9411 42.4041 96.9411 42.2421 96.9411 42.08H96.6169C96.6169 41.918 96.6169 41.918 96.6169 41.7559C96.2928 42.08 96.1308 41.7559 95.8066 41.5938C95.1584 41.2697 94.6722 40.9456 94.024 40.7835C93.5378 40.6215 93.3758 40.4594 93.6999 39.8112C94.6722 37.5424 95.4825 35.2735 96.4549 32.8426C96.6169 32.1944 96.9411 31.7082 97.1031 31.06C97.2652 30.8979 97.4272 30.7358 97.5893 30.5738C97.9134 30.4117 97.9134 30.0876 97.9134 29.7635C97.7514 29.2773 98.0755 28.9532 98.2375 28.6291C98.2375 28.6291 98.3996 28.6291 98.5617 28.6291C99.0478 28.6291 99.534 28.7911 99.8581 28.7911C101.155 29.1153 102.289 28.7911 103.099 27.8188C103.748 27.0085 104.234 26.0361 104.72 25.2258C105.692 23.2811 106.665 21.3364 107.799 19.3917C108.447 18.2573 108.771 17.1228 109.42 15.9884C110.068 14.6919 110.878 13.3955 111.689 12.099L111.851 11.9369C112.175 11.1266 112.823 10.8025 113.795 10.9646C113.957 10.9646 114.119 11.1266 114.281 11.2887C114.443 11.6128 114.606 11.6128 114.93 11.6128C115.254 11.6128 115.578 11.4508 115.902 11.4508C116.388 11.4508 116.712 11.4508 117.199 11.4508C117.199 11.4508 117.361 11.6128 117.361 11.7749C117.361 11.9369 117.523 12.099 117.523 12.2611C117.523 12.7472 117.685 13.0714 118.333 13.0714C118.495 13.0714 118.657 13.2334 118.657 13.3955C118.819 14.0437 119.143 14.854 119.305 15.5023C119.467 16.3126 119.629 16.4746 120.602 16.3126C120.926 16.3126 121.25 16.1505 121.574 16.1505C122.06 15.9884 122.222 15.8264 122.06 15.1781C122.709 15.0161 123.357 14.6919 124.005 14.854C124.329 14.854 124.653 14.854 124.977 14.854C125.301 14.854 125.626 14.854 125.95 15.1781C125.95 15.3402 126.274 15.3402 126.436 15.1781C126.598 15.1781 126.76 15.0161 127.084 14.854C127.246 14.854 127.408 14.692 127.57 14.692L127.408 14.5299C127.57 14.5299 127.732 14.5299 127.894 14.3678C128.219 14.2058 128.381 14.2058 128.705 14.0437C128.705 14.0437 128.867 13.8816 128.867 14.0437C129.677 14.2058 130.487 13.8817 131.298 13.7196C131.46 13.7196 131.622 13.7196 131.784 13.7196C132.108 13.7196 132.27 13.7196 132.27 14.2058C132.27 14.5299 132.432 14.854 132.756 15.1781C132.918 15.1781 132.918 15.3402 133.08 15.3402C133.729 15.6643 134.053 15.6643 134.539 15.0161C134.701 14.854 134.539 14.5299 134.539 14.3678C134.701 14.5299 134.863 14.692 135.025 14.692C135.187 14.692 135.349 14.5299 135.673 14.3678C135.673 14.5299 135.511 14.6919 135.511 14.854C135.673 14.854 135.673 14.854 135.673 14.854C135.835 15.0161 135.997 15.1781 136.159 15.5023C136.159 15.6643 136.159 15.8264 136.159 15.8264C135.997 16.1505 136.159 16.3125 136.322 16.4746C136.646 16.6367 136.646 16.9608 136.484 17.2849C136.322 18.0952 136.322 18.0952 137.132 18.5814C137.294 18.7434 137.618 18.7434 137.942 18.9055L137.78 18.7435C138.104 18.2573 138.104 18.2573 138.59 18.4193C138.428 18.2573 138.428 18.2573 138.428 18.0952L138.59 17.9332C139.077 17.9332 139.725 18.0952 140.211 18.2573C140.373 18.2573 140.373 18.4193 140.373 18.4193C140.211 18.7434 140.211 19.3917 140.211 19.8779Z" fill="#00CCD9"/>
<path d="M102.772 66.7129C101.799 68.0094 101.475 69.468 100.989 70.9265C100.827 71.5747 100.503 72.0609 100.341 72.7091C100.341 72.8712 100.341 73.1953 100.179 73.5194C100.179 73.6815 100.179 73.6815 100.179 74.0056C99.6925 73.3574 98.8822 73.5194 98.234 73.5194C98.0719 73.5194 97.7478 73.6815 97.5858 73.6815C97.4237 73.8436 97.2616 73.8436 96.9375 73.6815C96.7755 73.5194 96.6134 73.5194 96.2893 73.5194C94.9928 73.5194 93.5343 73.5194 92.2378 73.5194C91.7516 73.5194 91.2654 73.3574 90.7792 73.3574C89.9689 73.1953 89.1587 73.1953 88.1863 73.0333C87.7001 73.0333 87.376 72.8712 86.8898 72.8712C86.7278 72.8712 86.5657 73.0333 86.4037 73.0333C86.2416 73.3574 86.0795 73.3574 85.9174 73.1953C85.7554 73.1953 85.7554 72.8712 85.7554 72.8712V72.7091C85.1072 72.5471 84.621 72.5471 83.9728 72.3851C83.8107 72.3851 83.6486 72.223 83.6486 72.0609C83.1624 71.5747 82.6763 71.0886 82.1901 70.6024C82.028 70.4403 81.866 70.4403 81.866 70.2782C81.866 70.4403 81.7039 70.4403 81.7039 70.6024C81.5419 70.4403 81.3798 70.2783 81.2177 70.1162C81.0557 69.9541 80.8936 69.9541 80.7316 69.9541C80.5695 70.1162 80.4074 69.9541 80.2454 69.7921C78.9489 68.4956 77.4904 67.1991 76.1939 65.9026C76.0318 65.7406 75.8698 65.7406 75.7077 65.5785C75.3836 65.4165 75.3836 65.0924 75.5456 64.9303C75.7077 64.7682 75.7077 64.4441 75.8698 64.12C76.0318 63.6338 76.1939 62.9856 76.1939 62.4994C76.3559 61.8512 76.518 61.0409 76.518 60.3926C76.518 60.0685 76.518 59.7444 76.3559 59.5823C76.0318 58.9341 75.3836 58.4479 74.8974 57.7997C74.5733 57.6376 74.5733 57.3135 74.7354 57.1514C75.0595 56.8273 75.2215 56.3411 75.3836 56.017C75.3836 55.855 75.5456 55.855 75.5456 55.855C75.5456 55.5308 75.7077 55.2067 75.7077 54.8826C75.8698 54.0723 76.1939 53.262 76.3559 52.4517C76.3559 52.2896 76.518 52.1276 76.6801 51.9655C77.0042 51.6414 77.3283 51.3173 77.8145 50.9932C78.6248 50.3449 79.273 49.5346 80.0833 48.8864C80.4075 48.7243 80.5695 48.4002 80.8936 48.2382C81.0557 48.0761 81.2177 48.0761 81.3798 48.0761C81.7039 48.0761 82.1901 47.9141 82.5142 47.9141C83.3245 47.9141 84.1348 47.752 84.7831 47.752C85.2692 47.752 85.9175 47.5899 86.4037 47.4279C86.7278 47.4279 86.7278 47.2658 86.5657 46.9417C86.4037 46.4555 86.4037 46.4555 86.4037 46.2935C86.7278 46.7796 86.8898 47.2658 87.538 47.4279C88.8345 48.0761 90.2931 48.4002 91.7516 48.4002C92.0757 48.4002 92.3999 48.5623 92.886 48.7243C92.724 48.7243 92.5619 48.7243 92.3998 48.8864C92.886 48.8864 92.886 49.2105 93.0481 49.5346C93.0481 49.6967 93.3722 49.8588 93.5343 49.8588C93.8584 49.8588 94.1825 49.8587 94.5066 50.0208C94.5066 50.0208 94.8307 49.8588 94.9928 49.8588C95.1549 49.5346 95.3169 49.5346 95.641 49.8588C95.9651 50.1829 96.1272 50.3449 96.4513 50.507C96.9375 50.8311 97.4237 50.9932 97.7478 51.3173C98.234 51.6414 98.7202 51.9655 99.2064 52.2897C99.5305 52.6138 100.179 52.7758 100.503 53.1H100.665C101.313 52.9379 101.475 53.4241 101.961 53.7482C102.123 53.7482 102.123 53.9102 102.123 54.0723C102.123 54.5585 102.285 55.0447 102.285 55.5308C102.448 56.9894 102.448 58.61 102.61 60.0685C102.61 61.365 102.772 62.4994 102.772 63.7959C102.772 64.282 102.934 64.9303 102.934 65.4165C103.258 66.0647 103.096 66.3888 102.772 66.7129Z" fill="#00CCD9"/>
</svg>
