<svg xmlns="http://www.w3.org/2000/svg" viewBox="0 0 146.04 131.59"><defs><style>.cls-1{fill:#feb96e;}</style></defs><g id="Layer_2" data-name="Layer 2"><g id="Layer_1-2" data-name="Layer 1"><path class="cls-1" d="M75.52,68Zm-.65-.49c-.16-.32-.48-.65-.65-1v-.65c.33-.16.33-.49.33-.81A3,3,0,0,1,74.87,64c.16-.81.33-1.63.49-2.44a1,1,0,0,0-1-1.13c-.82,0-1.46-.16-2.27-.16a1.41,1.41,0,0,1-1.46-.81A7.21,7.21,0,0,1,70,58.31l-.16-.16c-.16-.16-.49-.32-.65-.48l-1.3-1.3c-.16-.16-.32-.16-.65,0-.16.16-.32.16-.32.32l-.16-.16c.16-.16.32-.16.48-.32,0-.17.17-.33,0-.33a4.63,4.63,0,0,1-.81-1l-1.29-1.3A29,29,0,0,0,63,51.34a.59.59,0,0,0-.48-.16c-1,.16-1.3,0-1.63-1a.16.16,0,0,0-.16-.16c-.48-.16-.48-.49-.48-.81-.17-1-.49-1.14-1.3-1,0-.17.16-.17.16-.33-.81-.32-1.46-.48-2.27-.81C55.26,46.48,53.64,46,52,45.35a3,3,0,0,0-2.11-.16,20.25,20.25,0,0,0-2.59.64c-.48.17-.81-.16-.81-.64a1.22,1.22,0,0,1,.16-.81c.17-.81,0-1.3-.65-1.62-.32-.33-1-.49-1.13-.81-.32-.33-.65-.49-1-.82a1.87,1.87,0,0,0-1.3-.48c-.32,0-.65.16-1.13.16h-.33c-.16-.16-.48-.49-.48-.65-.17-.48-.49-.48-.81-.48.16.32.32.81.48,1.13s-.16.49-.48.49c-.17.16-.33,0-.49-.17,0-.16-.16-.16-.32-.16l-1.46.49c.16.65.16.65-.49,1-.16,0-.16.16-.32.16-.16.17-.16.33-.33.33a3.36,3.36,0,0,0-1,.65c-.81.64-1.94.64-2.75,1-.33.16-.49,0-.65-.33a7.07,7.07,0,0,0-.65-1.13,9.37,9.37,0,0,0-1.3-1.3c-1.29-1.13-2.59-2.43-3.89-3.56a.59.59,0,0,0-.48-.16s0-.33-.16-.33c-.33-.16-.49-.48-.81-.65l-.17-.16c-.16-.16-.16-.32-.32-.48-.33-.17-.81-.49-1.14-.65s-.64-.17-.81-.65l-.48-1c-.16.16-.33.32-.33.48-.32,0-.64-.16-1-.16s-.48-.32-.32-.65a.73.73,0,0,0,0-.81c-.16-.48-.33-1-.49-1.46-.48-1.13-.81-2.27-1.3-3.4-.16-.16,0-.32.17-.49.16,0,.32-.16.48-.16v-.16H18.8c-.33,0-.81.16-1.14.16a1.49,1.49,0,0,0-.81.16,2.68,2.68,0,0,1-1.62.49c-.81,0-1,.16-.64.81.16.32,0,.32-.17.49-.64.32-1.13.48-1.78.81-.32.16-.49.16-.65-.33l-.48-1c0-.16-.33-.32-.33-.32H9.89v-.17c-.17-.16-.49-.32-.65-.48-.33-.33-.49-.16-.81-.16-.16,0-.33.16-.49.16a.59.59,0,0,0-.16.48V29a.31.31,0,0,0,0,.49,11.73,11.73,0,0,1,1.13,3.4c0,.16.33.49.17.65-.17.65.32.48.64.65.17,0,.49.16.49.32.16.65.32,1.13.49,1.78a1.21,1.21,0,0,0,.32.65c.16.16.32.16.32,0a.62.62,0,0,1,1,0,3.53,3.53,0,0,1,.64,1c.49.33.49.81.65,1.3a.34.34,0,0,1-.32.32H12.8c-.48-.16-.81.17-.81.65a4.52,4.52,0,0,0,.16,1.46c0,.16.33.33.49.49h.49c-.17,0-.33-.16-.49-.33V41c0-.16,0-.32.16-.32a1.74,1.74,0,0,1,1.3.16c.32.16.16.49.16.81V42a.43.43,0,0,0,.49.48c.32,0,.65.16.65.49.16.32.16.65.32.81.16.48,0,.65-.32.81a.56.56,0,0,0-.33.16.5.5,0,0,0-.16.32,2.81,2.81,0,0,1,0,1.63c-.16.32,0,.64.32,1s.65.48,1,.81a22.18,22.18,0,0,1,1.94,1.94,7.21,7.21,0,0,0,1.14,1.14c.16.16.32.32.48.16l.33.32a2.43,2.43,0,0,1,.48.65,2.09,2.09,0,0,1,.16,1,1.32,1.32,0,0,1-.16,1.14c-.16.16-.16.32,0,.65a9.84,9.84,0,0,0,1.3,1.29A.51.51,0,0,1,22,57c0,.16-.16.16-.32.16-.65,0-.81.32-1.14.81-.32.32-.65.81-1.13.65h-.16c0,.16.16.48.16.65.16.81.65,1.45.48,2.43a2.74,2.74,0,0,0,.65,2.1c.49.81.16.81-.32,1.14-.16,0-.33.16-.49.16h-.48c-.17,0-.33-.16-.49-.16,0-.33-.81-1-1.62-1.3,0,.16.16.33.16.65a.83.83,0,0,0,.65.81,1.29,1.29,0,0,1,.65.65,2.64,2.64,0,0,0,.81,1.46,3,3,0,0,1,1.13,2.1c0,.81,0,.81-.65,1-1,.16-.81.16-1.13-.65-.16-.33-.33-.65-.65-.65a.76.76,0,0,1-.81-.81v-.81c-.16-.33-.16-.65-.49-.81-.48-.33-1.13-.49-1.29-1.14,0-.16-.16-.32-.33-.48,0-.16-.16-.16-.32-.16a3,3,0,0,1-1.13.32c-.82.16-1.79.32-2.6.49-.32,0-.65-.17-.81.32a.16.16,0,0,0-.16.16c-.81.33-1.62.49-2.27.81a1,1,0,0,1-.65-.16,2.24,2.24,0,0,1-.65-.49c-.16.17-.16.33-.32.49a13.83,13.83,0,0,0-1-2.27c0,.16,0,.33-.16.33a9.28,9.28,0,0,0-1.3.64c-.49.17-.49.17-.65-.16a16.25,16.25,0,0,1-.81-1.62c0-.16-.16-.32-.32-.48V63c-.81.33-.81.33-.65,1v.48c0,.16-.16.33,0,.49.32,1,.81,2.1,1.13,3.08.17.32.33.32.65.32.33-.16.49,0,.65.33.16.48.16.81.32,1.29l1,2a.39.39,0,0,1-.17.64c-.32.17-.16.33-.16.49.16.32.33.81.49,1.14.16.64.32,1.13.48,1.78a12.11,12.11,0,0,1-1.62.65c-.48.16-1,.32-1.13.81H2.76a1.33,1.33,0,0,0-1,.64,3.27,3.27,0,0,0-1.78,1c.16.16.32.65.65.65A8.19,8.19,0,0,0,2.59,80c1.79.32,3.41.65,5.19,1,.16,0,.32.16.49.49a4.8,4.8,0,0,1,.32,1.62v.81c0,.32-.16.65-.16,1.13v.33c.16.16.32.48.48.65s.17.48.33.64c.16.33.32.33.48.17s.49,0,.65.16a15.62,15.62,0,0,1,1.78,2.75c.17.16.33.33.49.17s.32-.33.49-.33.16-.16.32-.16c.33,0,.65.81.49,1v.65h.16a6.66,6.66,0,0,0,.81-1.46c.32-.49.32-.49.81-.16a10,10,0,0,1,1.3,1.3l.32-.33c.32-.32.49-.32,1-.16s.65.16,1,.32V90.4c.16-.16.32-.32.48-.32a4.71,4.71,0,0,0,1.78-1.79,4.16,4.16,0,0,1,.65-.81,3,3,0,0,1,.81-.64,3.27,3.27,0,0,0-.65-1c-.48-.81-1-1.62-1.45-2.27-.17-.32-.17-.48.16-.64.48-.33.81-.49,1.29-.81.17-.17.33-.33,0-.49-.16-.16-.32-.32-.48-.32,0,0,0-.17.16-.17h.32a2.61,2.61,0,0,0-.48-1.45,1.5,1.5,0,0,1-.33-1.63,2.16,2.16,0,0,0,.33-1,.5.5,0,0,1,.32.16c-.16-.32-.32-.48-.32-.81-.49-.81-.49-.81.16-1.78a.61.61,0,0,1,1,0c.16.33.49.49.65.81.32-.48.65-.32,1,0a.6.6,0,0,0,.33.16c.32-.16.81-.16,1.13-.32.81-.49,1.62-1.13,2.43-1.62.16,0,.16-.16.33-.16.48.16.81.16,1.29.32.81.16,1.46.49,2.27.65a.16.16,0,0,0,.16-.16.71.71,0,0,0,.17.81,5.05,5.05,0,0,1,1,2.1c0,.17.16.17.32.17a.84.84,0,0,1,.65.32c.32.32.65.81,1,1.13.17.17.49,0,.81.17v-.33c-.16.16-.32.16-.48.33,0-.49.16-.81-.16-1.14a2.22,2.22,0,0,1-.33-1.78V76c0-.49,0-.49.49-.65A3.06,3.06,0,0,0,37.27,75l1.46-1a5.09,5.09,0,0,1,2.11-1l4-1a17,17,0,0,1,1.62-.65c1.62-.65,3.24-1.13,4.86-1.78.16,0,.16-.16.49-.16a.59.59,0,0,1-.49-.17.16.16,0,0,0,.16-.16c.33,0,.49-.16.33-.48s-.33-.49-.33-.82c.17-.16.33-.32.49-.32.65-.16,1.14-.49,1.78-.65a.4.4,0,0,1,.65.16h.33A13.63,13.63,0,0,1,57,66.25a1.76,1.76,0,0,1,1.3-.16.53.53,0,0,0,.33-.16,1,1,0,0,1,1.45.49c.65.16,1.46.32,2.11.48,1,.33,2,.49,2.92.81a1.38,1.38,0,0,0,1.13,0c1.14-.48.81-.65,1.46.49a.16.16,0,0,0,.16.16c.17.16.33.33.49.33h1.78a.61.61,0,0,1,.49.16c.32.32.48.48.81.16.16.49.32,1,.48,1.62a.48.48,0,0,0,.17-.32c.16,0,.32.16.48,0,1-.49,2-.81,2.92-1.3a.56.56,0,0,0,.32-.16c0-.33.17-.16.33-.33h.16c-.16-.32-.32-.48-.49-.81C75,67.39,75,67.39,74.87,67.55ZM21.55,79.87c.17,0,.33.32.49.32h-.16c-.16,0-.33-.16-.65-.16C21.23,80.19,21.39,79.87,21.55,79.87ZM64.34,53.78c-.16-.17-.16-.17-.16-.33a.56.56,0,0,0,.16-.32h.16c0,.32,0,.48-.16.65Z"/><path class="cls-1" d="M129,108.26c-1-.82-2.11-1.46-3.08-2.27-.65-.49-1.13-.81-1.78-1.3-.17-.16-.33-.16-.65-.16,0,0-.16-.33-.33-.33a17.75,17.75,0,0,1-2.91-1.94c-.16-.16-.49-.16-.65-.33,0-.16-.16-.32-.16-.48-1-1.13-2-2.11-2.76-3.24l-1.46-1.95c-.16-.16-.32-.16-.32-.32l-.32-.33a.22.22,0,0,0,0-.32,5.35,5.35,0,0,0-2.11-2.11c-.16-.16-.32-.16-.49-.32a30.46,30.46,0,0,1-3.08-3.24c-.16-.16-.32-.49-.48-.65a.84.84,0,0,1-.33-.65V88c-.32-.65-.65-1.14-1-1.78a1.3,1.3,0,0,0-.81-.81c-.32,0-.32-.33-.32-.65s.16-.49,0-.81a13.73,13.73,0,0,0-.81-2.27c-.17-.33-.17-.49.16-.65l.16-.16a1.41,1.41,0,0,0-1.46-.65c-.16,0-.49-.16-.32-.49a.79.79,0,0,0-.49-1c-.32-.16-.48-.65-.81-.65a1.11,1.11,0,0,1-.81-.65c-.16-.16-.16-.32-.32-.32-.33-.32-.81-.65-1.14-1a2.11,2.11,0,0,0-1.94-.49c-.16,0-.16,0-.33.16a.77.77,0,0,1-1.13,0c-.16,0-.16-.16-.33-.16H93.38c-.17,0-.49.16-.65,0-.81-.16-1.62-.32-2.27-.48-.81-.17-1.62-.17-2.27-.33-.32,0-.65-.16-1,.33a.56.56,0,0,1-.33.16H85.76a.6.6,0,0,1,.16-.33c-.16.17-.49.17-.49.49a1.78,1.78,0,0,0-.16.81c-.16,1-.16,1.94-.32,2.92s-.33,2.1-.49,3.24c0,.65-.48.81-1,.65a1.4,1.4,0,0,0-.81-.17c-.49,0-.65.17-.65.65v1.46a7,7,0,0,1-.48,2,5.45,5.45,0,0,0-.65,1.45,8.35,8.35,0,0,1-1.46,3.25c-.49.64-1.14,1.29-1.78,2.1a9.54,9.54,0,0,0-.65,1c-.33.17-.49.33-.33.49a.56.56,0,0,0-.32.16c-.32.65-.65,1.3-1,2.11a7.52,7.52,0,0,0-.65,1.78c-.33.49-.33,1.14-.65,1.62-.49.81-1,1.62-1.46,2.27a25,25,0,0,0-1.78,2.59,9.44,9.44,0,0,0-.49,1.14.84.84,0,0,0,.65-.32h.33a.83.83,0,0,1,.32.64v.33c.16.48.16.81.32,1.29a.43.43,0,0,0,.49.49.76.76,0,0,1,.81.81v.32c.16.33.16.81.32,1.14.17.48.17,1,.49,1.3.16.16.16.32.16.64-.32.81-.65,1.62-1,2.27v.49a.56.56,0,0,1-.32.16c.16.33.32.49.32.81.16.32.16.49,0,.65-.32.32-.49.65-.81,1,.32.16.32.16.65,0,.16-.16.16-.32.32-.49,0-.16,0-.48.16-.48.49-.16.81-.33,1.3-.49.65-.16,1.14-.16,1.78-.32.17.32.65-.32.81,0,.33.32.65,0,1.14.16a.61.61,0,0,1-.49.16,2.48,2.48,0,0,1,.49,1.14,3.86,3.86,0,0,1-.33,1.13A3.68,3.68,0,0,1,80.9,118c.32,0,.48,0,.48.32s-.16.65-.16,1,.16.32.33.32h1c.48,0,.48.16.48.65v1c0,1.14-.16,2.11-.16,3.24,0,.81,0,.81.65,1h.16a14.69,14.69,0,0,1,2.76.65,19.55,19.55,0,0,1,2.43,1.46c-.49.49-.33,1,0,1,.16,0,.48.17.65.17.81.32,1,.48,1-.65,0-.33.16-.49.48-.33a.49.49,0,0,0,.65-.16,7.2,7.2,0,0,1,1.14-1,1.22,1.22,0,0,1,.81-.16c.16,0,.32.32.32.64,0,.49.33,1.14-.16,1.63v.16A1.37,1.37,0,0,0,94,130c.33.33,1,.81.65,1.62.33,0,.49-.16.81-.16a4.13,4.13,0,0,0,2-.81c.48-.49.65-1.13,1.29-1.46.17.16.33.16.49-.16a4.83,4.83,0,0,1,.49-1,1,1,0,0,0,.16-1.14c-.33-.48-.49-1.29-1-1.62v-.16l.48-2.43c0-.16.33-.32.49-.32H101c.16,0,.49,0,.49.48a11.4,11.4,0,0,0,.65,2.27c.32.65.48,1.3,1.45,1.46,0,0,.17,0,.17.16.32.32.65,0,1,0a.56.56,0,0,0,.16-.32c-.16-.81-.16-1.62-.32-2.44,0-.32.16-.48.48-.64.33,0,.65-.16,1,0h.65c.48-.16,1-.16,1.45-.33.33-.16.65-.16.81.17h.17c.48-.17,1.13-.33,1.62-.49-.17-.32-.33-.49-.49-.81-.16-.49-.65-.81-.65-1.3a12.41,12.41,0,0,1-.16-2.43,5.82,5.82,0,0,1,.32-1.62.75.75,0,0,1,.49-.49c.49-.16.81-.32.49-.81-.17-.16-.17-.32-.33-.48-.16-.33-.16-.49.16-.65,1-.49,1.79-1.13,2.76-1.62a.5.5,0,0,1,.65,0,3.58,3.58,0,0,1,.81.65c.16,0,.16.16.32.16.16.32.49.65.65,1,.49-.65,1.13-.48,1.78-.48h.65c.65.16,1-.17,1.46-.49.16-.16.49-.49.65-.49.65-.16,1.46-.32,2.1-.48a.6.6,0,0,1,.49.16,4.34,4.34,0,0,0,1,.81l.33.16c.32-.48.81-.48,1.29-.65s.49-.65.17-1c-.17-.16-.33-.49-.17-.65.17-.48.33-.81.49-1.29-.16,0-.16,0-.32-.17a1.07,1.07,0,0,1,1-.16c.16.16.48.16.65.33h.48C127.73,109.55,128.38,108.9,129,108.26ZM94.83,77c.33-.16.81-.33,1.14,0Zm8.11,49.1h-.16v-.48h.16C103.1,125.76,102.94,125.92,102.94,126.08Z"/><path class="cls-1" d="M87.69,42.73a15.89,15.89,0,0,0-1.62-1.46c-.33-.32-.49-.64-1-.64A21.15,21.15,0,0,0,82.34,40a3.4,3.4,0,0,1-2.11-1.14c-.32-.32-.81-.65-1-1.13-.32-.33-1-.33-1-.65-.16-.49-.49-.65-.81-1l-.16-.16c-1.62-1.14-3.41-2.27-5-3.41-1-.65-2.1-1.29-3.08-1.94l-1.94-1.46a3.66,3.66,0,0,1-.49-4.54,4.46,4.46,0,0,1,2.6-1.94c.32-.17.32-.17.16-.49-.49-.81-1-1.46-1.46-2.27-1-1.46-1.78-2.75-2.75-4.21-.17-.16-.33-.16-.33-.33-.49-.81-1-1.78-1.46-2.59,0-.16-.16-.16-.32-.16,0,.16-.16.16-.16.32,0,.33.16.65.16,1h-.33a12.65,12.65,0,0,1-2.43.32.34.34,0,0,1-.32-.32c-.16-.33-.32-.65-.65-.49H59a.43.43,0,0,1-.48-.49v-1a.89.89,0,0,1,.48-.81c.17-.16.65-.16.49-.49,0-.16-.49,0-.81,0V11a1.23,1.23,0,0,0-.81.16,6.46,6.46,0,0,0-1.62.65c-.32.16-.49,0-.49-.33V11a.16.16,0,0,0-.16.16c0,.49-.32.65-.81.81a7.91,7.91,0,0,0-1.94.16.43.43,0,0,0-.49.49A3,3,0,0,1,52,13.72c0,.17-.33.33-.49.33a2.77,2.77,0,0,1-1.13-.16c-.33,0-.65,0-.81-.33h-.17v-.65H48.8c-.33,0-.33.17-.33.33a4.75,4.75,0,0,1,.33,1.46.57.57,0,0,1-.17.48c-.16.16-.32,0-.48-.16-.49-.49-.81-1-1.46-1-.16,0-.49-.16-.65-.16h-.65a6.8,6.8,0,0,0-2.27-2.6c-.16.65-.32.81-1,.65-.49,0-1-.32-1.13.33-.33.32-.81.48-1.14.81-.16.16-.32.16-.48.32h-.17v-1a10.61,10.61,0,0,0-.64-2.11c0-.16-.33-.32-.49-.49s-.16-.64-.32-.81-.49,0-.65,0c-.81.33-.81.33-1.3-.32l-.16-.16c-.16-.33-.16-.49.32-.49.16,0,.33-.16.49-.16V7.73c-.16-.16-.33-.16-.49-.33l-.16-.16c-.16-.16-.16-.48-.32-.65-.17-.32-.17-.32.16-.48a1.3,1.3,0,0,0,.65-.33c.16-.32.32-.32.64-.16a2.77,2.77,0,0,0,.82.32V5.3c0-.17.16-.49.16-.65s0-.16.16-.33a1.4,1.4,0,0,1-.81.17c-.16.16-.33,0-.49-.17,0-.16-.16-.16-.16-.32-.65.65-1.13,1.3-1.78,1.94a.83.83,0,0,1-.65.33h-1v.16c.65.33.32.81.16,1.14,0,.16-.32.32-.32.48a1.3,1.3,0,0,0,.64,1.46c.33.32.81.49,1.14.81.16.16.16.16.16.32-.16.33-.32.49-.49.81-.16,0-.32.17-.48.17a.59.59,0,0,0,.16.48c0,.17.16.17.16.33s0,.32-.16.32c-.32.16-.49.49-.81.65a.59.59,0,0,0-.32.81c.16.65.32,1.13.48,1.78.16.81.49,1.46.65,2.27a.16.16,0,0,0,.16.16,1.79,1.79,0,0,0,.49,1.95c.16.16.16.32.32.65.16.48.16.81.33,1.29s.32,1,.48,1.62a7,7,0,0,1,.33,1.79V26H36c-.32-.16-.65-.16-1-.32-.81-.33-.81-.33-1.3.48,0,.16-.16.33-.16.49-.32.16-.48.16-.65.32-.16-.16-.32-.32-.32-.48a1.19,1.19,0,0,0-.65-.33c0,.49-.16.81-.16,1.3a9.67,9.67,0,0,1-.65,2.92A1.43,1.43,0,0,0,31,31.55c.16.32.16.65-.16.81.16.32.16.65-.17.81l-1,.49a1.08,1.08,0,0,1-1,.16,2.89,2.89,0,0,1-.81-.65,3.25,3.25,0,0,0-.81.49v.81h-.16V34c-.17,0-.17.16-.33.16a4.73,4.73,0,0,0-1.46-.32c-.32.16-.81.49-1.13.65a7.5,7.5,0,0,1,1.13.48c.49.33.81.81,1.3,1.14s.65,1,1.3.81c0,.16,0,.32.16.32.16.16.32.16.49.33.32.32.48.64.81,1a22.44,22.44,0,0,1,2.91,2.59,8,8,0,0,1,1.3,2c.16.16.32.32.49.16.48-.16,1-.16,1.45-.33.33,0,.49-.32.65-.32a.16.16,0,0,0,.16-.16,2.52,2.52,0,0,0,1.14-.81c.16-.33.32-.49.65-.49a.56.56,0,0,1,.32-.16h-.48c.32-.65.32-.65,1-.81.16,0,.48-.16.65-.16s.48-.16.64-.16.33.16.49.32c.32-.49-.32-.49-.49-.65V39a.43.43,0,0,1,.49-.48.94.94,0,0,1,1.13.81c.17.49.33.65.81.49.65-.17,1.3-.33,1.79.16,1,.81,2.1,1.62,3.08,2.43a1.36,1.36,0,0,1,.48.81,4.58,4.58,0,0,1-.16,1.46c0,.48,0,.48.32.48,1-.16,2-.48,3.08-.65.17,0,.49-.16.65,0,.81.33,1.78.49,2.6.82,1.94.64,3.88,1.45,5.83,1.94a2.11,2.11,0,0,1,1.46,1.62c0,.16.16.32.32.49s.16.32.33.48.16.49.32.49h.81a.62.62,0,0,1,.49.16c1.13,1.3,2.43,2.59,3.56,3.73.81.81,1.3,1.78,2.27,2.27v.16c.32.32.49.65.81.65a2.14,2.14,0,0,1,.65.48,8.58,8.58,0,0,0,1.13,1.46h.33c.32,0,.81.16,1.13.16h1.46c-.32-.32-.65-.64-.81-.81s-.32-.32-.16-.64A16.75,16.75,0,0,0,76,53.27a2.67,2.67,0,0,1,.65-1.14c.16-.16.49-.32.65-.48,1.13-1,2.1-2.11,3.24-3.08A.57.57,0,0,1,81,48.4c.65-.16,1.46-.16,2.11-.32,1-.16,1.95-.16,3.08-.32-.49-1-.16-1.46.49-1.46a4.55,4.55,0,0,1,.16-1.46c.16.16.16.16.32.16v-.49C88.34,43.38,88.18,43.06,87.69,42.73ZM36,41.92h0c.33-.16.49-.65.81-.32A2.84,2.84,0,0,0,36,41.92Z"/><path class="cls-1" d="M111.85,11h0c-.81,0-.81-.48-1-1a.56.56,0,0,0-.16-.32c-.65,0-.49-.49-.65-1v.16a2.12,2.12,0,0,0-1.62-1,4.52,4.52,0,0,1,.16-1.46c0-.33,0-.49-.32-.49h-1c-.33,0-.49,0-.49-.49l-.16-.16v.33c-.17,0-.17,0-.33-.17-.16.33-.16.49-.32.65-.16.65-.65.81-1.3.49a3.58,3.58,0,0,0-1.29-.16c-.33,0-.49,0-.49-.49V5.62c-.49.16-1,.16-1.46.32s-1,.16-1.46.32c-.32.17-.48,0-.65-.32a1.24,1.24,0,0,0-.32-.65V6.1a.6.6,0,0,1-.16.33c-.49,0-.49.32-.65.64-.16.49-.65.49-1,.65-.16,0-.33-.16-.49-.32a5.85,5.85,0,0,1-.65-1.46L96,5.78h-.16c0,.32.16.65.16,1,0,.16-.16.32-.16.49a3.06,3.06,0,0,1-1.14.32c-.16,0-.32-.16-.48-.16-.16-.32-.33-.33-.49-.16a.56.56,0,0,1-.32.16V7.07h-.16a.55.55,0,0,1-.17.33c-.16.49-.64.65-1,.32-.16-.16-.32-.48-.48-.65A5.2,5.2,0,0,1,90.46,5c0-.33-.16-.49-.49-.33a.16.16,0,0,1-.16-.16,2.43,2.43,0,0,1-.48-1.13,1.94,1.94,0,0,0-.17-1A.16.16,0,0,0,89,2.21c-.32,0-.65-.16-.65-.48-.32-.17-.64-.17-1-.33-.65,0-1-.16-1-1-.33,0-.65.16-1,.16h-.33c-.16-.32-.65-.32-1-.32C84,.27,84,.11,83.82.11c-.33-.17-.49-.17-.65.16s-.33.48-.65.48A5.58,5.58,0,0,1,80.9.59h-.81c-.16-.16-.49-.48-.65-.48C79,.11,78.31-.22,78,.43c0,.16-.16.16-.32.16l-2.43.49h-.17a.16.16,0,0,1,.17.16,1.09,1.09,0,0,1-1.14.65c-.32,0-.48,0-.65.49,0,.32-.32.48-.48.64a.23.23,0,0,1,0,.33A1,1,0,0,1,72.8,4a.88.88,0,0,0-.49.81v.81c0,.16-.16.32-.32.48s-.17.16-.33.16c.16.49.16.81.33,1.3,0,.33.16.65-.33.81a.16.16,0,0,0-.16.16.78.78,0,0,1-1,.33c-.33-.16-.49-.16-.65.32a1.19,1.19,0,0,1-.33.81c0,.16-.16.33-.16.49a.91.91,0,0,1-.32.81c-.16.16,0,.65,0,1,0,.16,0,.16-.16.33-.17.32,0,.48.16.81a7.52,7.52,0,0,0,1.13,1.13c.33.32.17.49-.16.65a3.52,3.52,0,0,1-1.78.32c-.33,0-.33,0-.49-.16,0-.16-.32-.32-.32-.32a.75.75,0,0,1-.81-.49c0-.16-.16-.32-.33-.65v-.32c.17-.33.33-.49.49-.81,0-.16-.16-.33-.16-.49a6.75,6.75,0,0,0-.81.16c-.65.17-.81,0-.81-.48-.16-.17-.16-.17-.33-.33l.17-.16c-.33-.16-.33,0-.33.32,0,.65,0,.65-.65.65C66,15.66,68.1,18.91,70,22.15l-1.46.48A3.52,3.52,0,0,0,66.31,26a3.3,3.3,0,0,0,1,2.43c.32.32.48.65,1,.48,0,.49,0,.49.65.17-.33.32-.17.32,0,.48,1.29,1,2.75,1.78,4,2.76,1,.64,1.78,1.13,2.75,1.78.49.32,1,.81,1.46,1.13L79.6,37.7A4.17,4.17,0,0,0,81.71,39l2.43.49a4.65,4.65,0,0,1,1.3.65.83.83,0,0,0,.64.32l.17.16c-.17,0-.17,0-.33.16l.16.17a7.07,7.07,0,0,0,1.63,1.45c.64.49.48,1.3.48,2v.16c-.32.16-.16.32-.32.65a.62.62,0,0,1-.16.49.47.47,0,0,0,0,.64c.16.17.32.49.48.49a14.43,14.43,0,0,0,2.43.81c1,.32,1.95,0,2.92.49.32.16.49.16.49.64v.49c.32,0,.81.16,1.13.16a19.48,19.48,0,0,0,2-1.62.68.68,0,0,0-.17-.48l1-3.41c.16-.65-.49-1.46-1.14-1.29a.56.56,0,0,0-.16-.33,5.77,5.77,0,0,0-1.3-.81A4.6,4.6,0,0,1,94,40.78c-.49-.32-.65-.64-.49-1.13.81-2.11,1.62-4,2.43-6.16l1-2.43c.17-.32.17-.65.49-.81s.16-.32.16-.49v-.48c.16-.33.16-.49.33-.81s.32-.49.64-.33a5.91,5.91,0,0,0,1.62.33,2.4,2.4,0,0,0,2.11-.33,2.35,2.35,0,0,0,.65-.65,1.6,1.6,0,0,0,.65-.81c.81-1.45,1.62-3.07,2.43-4.53a2.35,2.35,0,0,0,.32-1,.56.56,0,0,0,.16-.32c.17-.32.17-.49.33-.81s.16-.65.32-.65c.49-.32.33-1,.65-1.3v-.48a.6.6,0,0,0-.16-.33h.16c.16.17.16.33.33.33.16-.33.32-.49.48-.81a10.08,10.08,0,0,0,.81-2v-.32c.16-.16.33-.16.33-.32a3.84,3.84,0,0,0,.48-.81A15,15,0,0,0,111.85,11Zm-2.27,2.6h0a2.32,2.32,0,0,1,.49-.65l.16.16A2.43,2.43,0,0,0,109.58,13.56Z"/><path class="cls-1" d="M143,65.9h-1.13c-.32,0-.49.16-.32.49v.48c0,.33,0,.49-.33.49-.16,0-.32.16-.48.33.16.16.16.16.32.16-.16,0-.16.16-.32.16-.82.16-1.46.32-2.27.49-.33,0-.49.32-.49.64v.49c0,.32,0,.49-.16.65a1,1,0,0,0-.16.65c.16.64.48,1.29.64,1.94,0,.33.17.49.17.81,0,.49.32.81.48,1.3a.51.51,0,0,0,.16-.33c.17,0,.17.17.33.33.16.32.16.65.32,1a.56.56,0,0,1-.32-.16c-.16.16,0,.32.16.32h.32a1,1,0,0,0-.16.65,2.46,2.46,0,0,0-.16,2.11v.65c-.16.81-.16,1.62-.32,2.43a6.18,6.18,0,0,0,.32,2.43v1.46c0,.32,0,.48-.32.64s-.17.65-.17.81c0,.33.17.65.17,1,0,.16-.33.32-.49.48a8.67,8.67,0,0,1-.81,1.3v.16c-.32,1-1.14,1.3-1.95,1.78a3.72,3.72,0,0,0-1.45,1.3c0,.16-.33.32-.49.32a20.92,20.92,0,0,1-2.11,1.79c-.65.48-1,1.13-1.78,1.46a15.78,15.78,0,0,0,1.46,1.62c-.49.32-1.13.48-1.62.81-.16,0-.32.16-.32-.17-.49.17-.65-.16-1-.48-.48-.49-1-.33-1.46,0a10.37,10.37,0,0,0-1.62,1.13.16.16,0,0,0-.16.16c-.16.17-.32.17-.32.33a.48.48,0,0,1-.17.32c-.48.33-.8.81-1.29,1.14-.33.32-.49.32-.81,0s-.81-.65-1.14-1a3.83,3.83,0,0,1-1-.65l-.32-.33c-.16-.16-.49-.32-.65-.65-1.14-1.29-2.11-2.43-3.24-3.72a13.77,13.77,0,0,1-1.3-2,5.2,5.2,0,0,0-2.11-2.1c-.16-.17-.32-.33-.48-.33-.16-.16-.49-.16-.65-.32-1-1-1.78-2.11-2.59-3.08a12.55,12.55,0,0,1-1.3-2.59,8.16,8.16,0,0,1-.48-1.14c-.65-.16-.49-.81-.65-1.3a13.63,13.63,0,0,0-.81-2.26c0-.17,0-.17-.17-.33.49-.16.49-.48.33-1-.16-.16-.16-.32-.16-.65a.31.31,0,0,1-.49,0c-.16-.16-.32-.16-.65-.16a.43.43,0,0,1-.48-.49.88.88,0,0,0-.33-.65c-.32-.32-.81-.64-1.13-1l-.17-.16c-.48-.16-.64-.32-.64-.81,0-.16-.16-.32-.16-.49H102a.55.55,0,0,0,.17.33c-.33-.33-.65-.49-1-.81v-.33a.59.59,0,0,0,.16-.48v-.49c.49-1.46,1.14-3.08,1.79-4.54a3.42,3.42,0,0,1,.81-1.29,2.79,2.79,0,0,0,.32-2.27v-.33c0-1.29-.16-2.43-.16-3.72,0-.17,0-.49.32-.49s.81-.16.81,0a.91.91,0,0,0,.81.32,9.39,9.39,0,0,1,2.11-.16h1c.33,0,.65.16,1-.32h2.75c.16,0,.49.16.65.16.32,0,.49.16.81.16.48,0,1-.16,1.46-.16H119c.32,0,.48,0,.48-.32a.17.17,0,0,1,.17-.17c.65-.32,1.13-.48,1.78-.81h2.43a2.15,2.15,0,0,0,1.46,0v.49c0,.49.16.65.81.65.49,0,.49-.33.49-.65a.56.56,0,0,1,.16-.32,1,1,0,0,1,.65.16c.16,0,0,.16.16.32l.32.33c.33,0,.65-.17,1-.17.33-.16.49-.32.49-.64V57.48h.16c.17.16.33.48.49.64l.16.17c.65,0,1.13.16,1.78.16.49,0,.49,0,.49-.49,0-.65,0-.65.65-.65.48,0,1-.16,1.46-.16h.32c0,.16,0,.16-.16.49.32,0,.65.16,1,.16.65,0,1.3.16,2.11.16a14.33,14.33,0,0,0,2.59-.32c.16,0,.33-.16.49-.33-.49,0-.33-.32-.49-.48,0-.33.16-.33.33-.33.32,0,.64-.16,1,.33.16.16.48.32.65.48a.92.92,0,0,0,.64.17c.33,0,.49.16.49.32a3.63,3.63,0,0,0,.16,1.3c0,.16-.16.16-.16.32-.32.16-.49.32-.32.65v.32c0,.16-.17.33-.17.49v2.43c0,.32.33.65.33,1.13A1.09,1.09,0,0,0,143,65.9Z"/><path class="cls-1" d="M85.27,75a.94.94,0,0,0-.65.17,20,20,0,0,0-.32,3.07c-.16.81-.33,1.79-.49,2.6a5.54,5.54,0,0,0-.16,1.62c0,.32-.16.32-.32.32s-.33-.16-.49-.16c-.49,0-.81-.16-1.3.16l-.32.33a6.17,6.17,0,0,1-.16,1.78c-.17.65-.33,1.3-.49,1.78,0,.16-.32.33-.32.49-.17.16-.17.48-.33.81v.65a16.52,16.52,0,0,1-1.13,2.43,14.35,14.35,0,0,1-1.3,1.62.49.49,0,0,1-.65.16c.33.32.17.49-.16.65a13.44,13.44,0,0,0-2.11,2.92,11.9,11.9,0,0,0-.64,1.78c-.33.65-.49,1.29-.81,1.94a6.18,6.18,0,0,1-1.46,2.43,14.55,14.55,0,0,0-1.46,2,4.06,4.06,0,0,0-.81,1.46c0,.16-.16.32-.33.48-.32-.48-.64-.32-1-.16-.16.16-.48.33-.65.49-.32.32-.48.32-.16.64l.16.17c-.16.16-.81.48-1,.32-.16,0-.16-.16-.16-.32a6.39,6.39,0,0,0-1.78-3.24c-.17-.33-.33-.33-.65-.17s-.49.33-.65.33a2.35,2.35,0,0,1-1.13.32c-.33,0-.65.33-1,.33-.16-.81-.16-.81-1-.65-.32,0-.65.16-1,.16s-.33.32-.16.49a1.21,1.21,0,0,1,.32.64.6.6,0,0,0,.16.49c0,.16.16.16.16.33-.64.16-1,.8-1.78.64a.16.16,0,0,0-.16.16c-.16.17-.32.17-.49-.16a17.43,17.43,0,0,0-1.62-2.1.17.17,0,0,0,.17-.17c-.49-.64-.33-1.29-.17-2.1v-.33c0-.32.17-.48.33-.32.32,0,.32-.16.48-.33.17-.81-.16-1.45,0-2.26,0-.17-.16-.17-.16-.33-.16-.16-.16-.32-.32-.48a1.74,1.74,0,0,1-1-.65c0-.16-.17-.16-.17-.33a1.62,1.62,0,0,1-.81-.64,6.42,6.42,0,0,1-.65-1.46,1.41,1.41,0,0,1,0-1.14,2,2,0,0,0-.48-1.46c-.81-.81-1.46-1.78-2.27-2.59a2.32,2.32,0,0,1-.49-.65v-.16c.49-.16.33-.49.17-.81-.17-.49-.49-1-.65-1.46l-.16-.16c-.33-.16-.49-.49-.33-.65-.16-.16-.32-.16-.32-.32a22.38,22.38,0,0,1-1.62-2.11,5.51,5.51,0,0,1-.65-1.46.56.56,0,0,0-.16-.32c-.17-.49-.33-.65-.81-.33s-.33.17-.49-.16c0-.32-.16-.48-.32-.81s-.33-.65.16-.81a3.56,3.56,0,0,1-.16-.65c-.33-.16-.33-.32-.49-.65A16.4,16.4,0,0,1,43.46,76a.68.68,0,0,0-1-.49,9.23,9.23,0,0,0-1.3.49c-.16,0-.32.32-.32.32a1.39,1.39,0,0,1-1.3,1.13c.16.17.16.33.32.49-.16,0-.32.16-.48.16s-.33.16-.49.16c-.48.33-.81.33-1.13-.16-.17-.32-.33-.65-.81-.65-.17,0-.33-.32-.33-.48V75.84a.56.56,0,0,1,.33-.16,4.09,4.09,0,0,0,1.94-.81,14.19,14.19,0,0,1,1.62-1.13,8.76,8.76,0,0,1,2-.65,24.76,24.76,0,0,0,4.86-1.62,17.23,17.23,0,0,1,3.08-1.14c.81-.32,1.62-.64,2.59-1,.16-.16.32-.32.16-.49-.16-.32-.16-.64-.32-1-.16-.16,0-.32.16-.48.49-.17,1.13-.49,1.62-.65v.16c.16,0,.49.16.65,0l2.92-1a.4.4,0,0,1,.64.16,1.22,1.22,0,0,1,.65.16v-.16c0-.16,0-.32.16-.32s.49,0,.49.16c.16.48.81.48,1.14.65,1.29.32,2.59.64,4.05,1a4.12,4.12,0,0,0,1.13.32,6.51,6.51,0,0,0,1.14-.65l.48,1c.16.32.33.48.65.48h1.62A1.19,1.19,0,0,1,71,69a.56.56,0,0,1,.32.16.16.16,0,0,1,.17.16c.16.33.16.65.32.81.16.33.32.49.65.33L75.87,69c.16,0,.32-.17.49-.17h.16c0-.48.32-.16.65-.16a.5.5,0,0,1,.16-.32h.16a30.64,30.64,0,0,1,3.4,3.24v.16c.33,0,.49-.16.81-.16a.16.16,0,0,1,.17-.16c.16.16.16.32.32.48,0,.17.16.17.33.17,1,.16,1.29,1,1.78,1.45.16,0,0,.17.16.33Z"/><path class="cls-1" d="M146,27.33a.56.56,0,0,0-.16-.32c-.49-.16-.81-.16-1.3-.33-.16-.64-.32-.64-1-.64-1.13,0-1.46-.33-1.46-1.46v-.81h-.81c-.32,0-.65.16-.81,0s0-.49-.16-.81V22.8a.43.43,0,0,0-.49-.49c-.32,0-.65-.16-.48-.65v-.81c0-.16,0-.32-.33-.32h-1.3a10.57,10.57,0,0,0-3.88.48c-.65.16-1.14.33-1.3,1.14l-.16.16c-.17,0-.33.16-.49.16a7.2,7.2,0,0,0-1,1.14,13.92,13.92,0,0,0-1.46,1.62l-6.81,7.29a.3.3,0,0,0,0,.48c0,.17.17.17.17.33h-.17l-.16-.16c-.32-.33-.32-.33-.65,0l-.16.16c-1.13,1.3-2.27,2.43-3.4,3.73-.49.48-1.14,1-1.78,1.62a.53.53,0,0,1-.33.16h-.81a4.56,4.56,0,0,0-2.75,1.78,2.86,2.86,0,0,0-.81,1.14c-.17.48-.81.64-1.14,1a.3.3,0,0,0,0,.48s0,.17.16.17c-.16,0-.16,0-.32-.17a.56.56,0,0,1-.16-.32c-.65.49-1.14.81-1.78,1.3a.16.16,0,0,0,.16.16c.16-.16.32-.16.65-.33-.17.49-.49.65-1,.33-.32-.16-.48-.33-.81-.49l-1.94-1.46c-.33.65-1,1-1,1.79,0,.16-.16.32-.32.48-.32,0-.49.33-.65.65-.32.49-.64.81-1,1.3-.16.16-.16.32-.32.48h-.17c-.48.65-1.13,1.14-1.29,1.95,0,.16-.16.16-.33.32a.56.56,0,0,1-.32.16c-.32.49-.81,1.14-1.13,1.63a.72.72,0,0,0,.48,1h.16a.91.91,0,0,0,.81.48.58.58,0,0,1,.49.17c.32.16.49.32.81.48a1.1,1.1,0,0,1,.65,1c0,.49.16,1,.16,1.46,0,1.3.16,2.43.16,3.73v.16h.33a1.28,1.28,0,0,1,1.45.33h.17c.16,0,.32-.17.48-.17h2.27c.33,0,.81.17,1.14-.16h3.08c.16,0,.32,0,.32.16.32.33.65.17,1.14.17.16,0,.32-.17.64-.17h4c.17-.48.65-.48,1-.64a6.63,6.63,0,0,1,3.08-.81h1.78c.81,0,.81-.17.81.64,0,.17.16.17.16.33,0-.16.16-.16.16-.33a1.55,1.55,0,0,1,.17-.48,3.55,3.55,0,0,1,1.29-.16.56.56,0,0,1,.16.32c0,.32.16.65.65.32h.33c.16-.16.32-.16.32-.32V57.48a.43.43,0,0,1,.49-.49,7.08,7.08,0,0,0,1.13,1.13.56.56,0,0,0,.16-.32v-.32a.35.35,0,0,1,.33-.33c.32,0,.32.16.32.33V58c0,.33.16.49.49.33v-.17a2.09,2.09,0,0,1,.16-1c0-.16.49,0,.65,0h.16A5.61,5.61,0,0,0,133.4,57c.49-.16.49.16.65.49,0,.16.16.16.32.32h1.46c.32,0,.49.16.81.16.49,0,1-.16,1.46-.16.16,0,.49-.16.65-.16,0-.33-.16-.65-.16-1h-1.14c-.81,0-1.46.16-2.27.16-.16,0-.48-.16-.48-.33V55a6.63,6.63,0,0,0,0-1.78c-.17-.81-.17-1,.81-1.13a6.67,6.67,0,0,0-.16-1.78c0-.33,0-.49.32-.49.48,0,1.13-.16,1.78-.16V46.29a.43.43,0,0,0-.49-.48h-2.43a.59.59,0,0,1-.64-.65c-.17-1.3-.17-2.76-.33-4,0-.33,0-.49.33-.65l1-.49a.34.34,0,0,0,.32-.32c0-.81.17-1.78.17-2.59,0-.33,0-.49.16-.65,0-.33.32-.65.16-1.14-.32-1-.65-2.1-1-3.08a1.32,1.32,0,0,1,0-1.13,6.57,6.57,0,0,0,.48-2.43v-.49c0-.32.17-.48.33-.48.64-.17,1.45-.33,2.1-.49s1.46,0,1.95-.65h2.59a.35.35,0,0,1,.33.33,11.11,11.11,0,0,1-.33,2.27c-.16.81-.16.81.65.81.16,0,.16-.17.32-.17s.33-.16.49-.16c.49,0,.65-.16.65-.65a.42.42,0,0,1,.48-.48c.81,0,.81,0,.81-.81C146,27.49,146,27.49,146,27.33Zm-4.7-1.13c.16-.16.16-.33.32-.49l.49.49Z"/><path class="cls-1" d="M140.21,19.88c0,.32-.32.48-.65.48a11.63,11.63,0,0,0-2.27-.16,6.6,6.6,0,0,0-2.59.49c-.16,0-.32.16-.65.16a2.19,2.19,0,0,0-1.29.81L126.92,28l-.48-.49v.17c.48.48.48.48,0,.81a27.32,27.32,0,0,1-2.11,2.27c-.49.64-1.14,1.13-1.62,1.78-.49.48-1,1.13-1.46,1.62-1,1.13-1.94,2.11-2.92,3.24a2.63,2.63,0,0,1-1.13.65,1.24,1.24,0,0,1-.65-.16c-.16,0-.16-.17-.32-.17a.17.17,0,0,1-.17.17,1.28,1.28,0,0,0,.65.32c-.48.16-1.13.32-1.62.49a9.26,9.26,0,0,0-2.1,1.46,3.9,3.9,0,0,0-.81,1,7.81,7.81,0,0,1-2.76,2.27c-.16,0-.16.16-.32.16-.49.48-.49.48-1.14,0s-1.13-.81-1.78-1.3c-.33-.16-.49-.16-.65.16s-.49.65-.65,1c-.16.16-.32.32-.48.32v.65c-.65,0-.82.81-1.3,1.13.16-.32.32-.48.49-.81-.33.16-.65.49-.49.81,0,.17,0,.33-.16.33-.65,1-1.3,1.78-2,2.75-.65.81-1.13,1.79-1.78,2.6-.32.48-.32.48-.81.16a19.92,19.92,0,0,1-2.27-1.62c-.16-.17-.32-.17-.49-.33.49-.48,1-.81,1.46-1.29.17-.17.33-.33,0-.49a.22.22,0,0,1,0-.32c.33-1.3.65-2.6,1-3.73,0-.33,0-.49-.17-.49a1.63,1.63,0,0,1-.81-.65c-.16,0-.16-.16-.16-.32h-.32v-.32c-.33.32-.49,0-.81-.17A9.44,9.44,0,0,0,94,40.78c-.48-.16-.64-.32-.32-1,1-2.27,1.78-4.54,2.75-7,.17-.65.49-1.13.65-1.78.17-.16.33-.32.49-.49.32-.16.32-.48.32-.81-.16-.48.17-.81.33-1.13h.32c.49,0,1,.16,1.3.16a3,3,0,0,0,3.24-1,23,23,0,0,0,1.62-2.59c1-1.95,2-3.89,3.08-5.84.65-1.13,1-2.27,1.62-3.4.65-1.3,1.46-2.59,2.27-3.89l.16-.16a1.58,1.58,0,0,1,1.94-1c.17,0,.33.17.49.33.16.32.33.32.65.32s.65-.16,1-.16h1.3a.56.56,0,0,1,.16.32c0,.17.16.33.16.49,0,.49.16.81.81.81a.35.35,0,0,1,.33.33c.16.64.48,1.45.65,2.1.16.81.32,1,1.29.81.33,0,.65-.16,1-.16.49-.16.65-.32.49-1a4.17,4.17,0,0,1,1.94-.33h1a1.17,1.17,0,0,1,1,.33c0,.16.32.16.49,0,.16,0,.32-.16.64-.33.17,0,.33-.16.49-.16l-.16-.16a.59.59,0,0,0,.48-.16c.33-.16.49-.16.82-.33,0,0,.16-.16.16,0a6.18,6.18,0,0,0,2.43-.32h.48c.33,0,.49,0,.49.49a1.4,1.4,0,0,0,.49,1c.16,0,.16.16.32.16.65.32,1,.32,1.46-.32.16-.17,0-.49,0-.65.16.16.32.32.48.32s.33-.16.65-.32c0,.16-.16.32-.16.48h.16a2.24,2.24,0,0,1,.49.65v.33c-.16.32,0,.48.16.64.33.17.33.49.16.81-.16.82-.16.82.65,1.3.16.16.49.16.81.33l-.16-.17c.32-.48.32-.48.81-.32-.16-.16-.16-.16-.16-.32l.16-.17a5.77,5.77,0,0,1,1.62.33.16.16,0,0,1,.16.16A4.06,4.06,0,0,0,140.21,19.88Z"/><path class="cls-1" d="M102.77,66.71A13.71,13.71,0,0,0,101,70.93c-.16.64-.49,1.13-.65,1.78a1.78,1.78,0,0,1-.16.81V74c-.49-.65-1.3-.49-2-.49-.16,0-.48.16-.64.16-.17.16-.33.16-.65,0-.16-.16-.33-.16-.65-.16H92.24c-.49,0-1-.16-1.46-.16-.81-.16-1.62-.16-2.59-.33-.49,0-.81-.16-1.3-.16-.16,0-.32.16-.49.16-.16.33-.32.33-.48.17-.16,0-.16-.33-.16-.33v-.16c-.65-.16-1.14-.16-1.79-.32a.35.35,0,0,1-.32-.33L82.19,70.6c-.16-.16-.32-.16-.32-.32,0,.16-.17.16-.17.32l-.48-.48a.59.59,0,0,0-.49-.17c-.16.17-.32,0-.48-.16C79,68.5,77.49,67.2,76.19,65.9c-.16-.16-.32-.16-.48-.32a.4.4,0,0,1-.16-.65c.16-.16.16-.49.32-.81a5.82,5.82,0,0,0,.32-1.62,9.08,9.08,0,0,0,.33-2.11,1.23,1.23,0,0,0-.16-.81A15.24,15.24,0,0,0,74.9,57.8a.4.4,0,0,1-.16-.65A4.06,4.06,0,0,0,75.38,56a.17.17,0,0,1,.17-.17c0-.32.16-.64.16-1,.16-.81.48-1.62.65-2.43,0-.16.16-.32.32-.48a7.11,7.11,0,0,1,1.13-1c.81-.65,1.46-1.46,2.27-2.1.33-.17.49-.49.81-.65a.62.62,0,0,1,.49-.16c.32,0,.81-.17,1.13-.17.81,0,1.62-.16,2.27-.16a5.75,5.75,0,0,0,1.62-.32c.33,0,.33-.16.17-.49s-.17-.48-.17-.65c.33.49.49,1,1.14,1.14a9.39,9.39,0,0,0,4.21,1,4.17,4.17,0,0,1,1.14.32.58.58,0,0,0-.49.17c.49,0,.49.32.65.64,0,.17.32.33.48.33a2.11,2.11,0,0,1,1,.16,1.61,1.61,0,0,1,.48-.16c.16-.33.33-.33.65,0a3.25,3.25,0,0,0,.81.65,8.38,8.38,0,0,1,1.3.81l1.46,1c.32.32,1,.49,1.29.81h.17c.64-.16.8.32,1.29.65.16,0,.16.16.16.32,0,.49.17,1,.17,1.46.16,1.46.16,3.08.32,4.54,0,1.3.16,2.43.16,3.73,0,.48.16,1.13.16,1.62A.93.93,0,0,1,102.77,66.71Z"/></g></g></svg>