<svg xmlns="http://www.w3.org/2000/svg" viewBox="0 0 346.75 181.43"><defs><style>.cls-1{fill:#e6e6e6;}.cls-2{fill:#61c8d5;}.cls-3{fill:#ee9b90;}.cls-4{fill:#5f5292;}.cls-5{fill:#50a68d;}.cls-6{fill:#f15a24;}.cls-7{fill:#fff;}</style></defs><g id="Laag_2" data-name="Laag 2"><g id="Laag_1-2" data-name="Laag 1"><rect class="cls-1" x="36.75" y="139.98" width="310" height="0.05"/><rect class="cls-1" x="36.75" y="129.98" width="310" height="0.05"/><rect class="cls-1" x="36.75" y="119.98" width="310" height="0.05"/><rect class="cls-1" x="36.75" y="109.98" width="310" height="0.05"/><rect class="cls-1" x="36.75" y="99.98" width="310" height="0.05"/><rect class="cls-1" x="36.75" y="89.98" width="310" height="0.05"/><rect class="cls-1" x="36.75" y="79.98" width="310" height="0.05"/><rect class="cls-1" x="36.75" y="69.98" width="310" height="0.05"/><rect class="cls-1" x="36.75" y="59.98" width="310" height="0.05"/><rect class="cls-1" x="36.75" y="49.98" width="310" height="0.05"/><rect class="cls-1" x="36.75" y="39.98" width="310" height="0.05"/><rect class="cls-1" x="36.75" y="29.98" width="310" height="0.05"/><rect class="cls-1" x="36.75" y="19.98" width="310" height="0.05"/><rect class="cls-1" x="36.75" y="9.98" width="310" height="0.05"/><rect class="cls-2" x="126.75" y="20.2" width="20" height="129.8"/><rect class="cls-2" x="156.75" y="119.2" width="20" height="30.8"/><rect class="cls-3" x="46.75" y="64.4" width="20" height="85.6"/><rect class="cls-3" x="76.75" y="122.6" width="20" height="27.4"/><rect class="cls-4" x="286.75" y="58" width="20" height="92"/><rect class="cls-4" x="316.75" y="132.6" width="20" height="17.4"/><rect class="cls-5" x="206.75" y="53.4" width="20" height="96.6"/><rect class="cls-5" x="236.75" y="121.8" width="20" height="28.2"/><polygon points="346.75 150.5 36.25 150.5 36.25 0 37.25 0 37.25 149.5 346.75 149.5 346.75 150.5"/><path d="M22,147.05c0-1.69.44-3.05,2.11-3.05s2.1,1.36,2.1,3.05-.42,3-2.1,3S22,148.72,22,147.05Zm3.64,0c0-1.37-.3-2.5-1.53-2.5s-1.53,1.13-1.53,2.5.3,2.49,1.53,2.49S25.6,148.41,25.6,147.05Z"/><path d="M20.47,124v6h-.56v-5.14l-1.29.55v-.57l1.83-.84Z"/><path d="M22,127.05c0-1.69.44-3,2.11-3s2.1,1.36,2.1,3-.42,3-2.1,3S22,128.72,22,127.05Zm3.64,0c0-1.37-.3-2.5-1.53-2.5s-1.54,1.13-1.54,2.5.31,2.49,1.54,2.49S25.6,128.41,25.6,127.05Z"/><path d="M21.39,4.08v.06L18.17,10h-.68l3-5.37H17.5V4.08Z"/><path d="M22,7.05c0-1.69.44-3,2.11-3s2.1,1.36,2.1,3.05-.42,3-2.1,3S22,8.72,22,7.05Zm3.64,0c0-1.37-.3-2.5-1.53-2.5s-1.53,1.13-1.53,2.5.3,2.49,1.53,2.49S25.6,8.41,25.6,7.05Z"/><path d="M20.89,28.15a1.93,1.93,0,0,1-2,1.94c-1.36,0-2.1-.91-2.1-2.62,0-1.27.31-3.47,2.3-3.47a1.77,1.77,0,0,1,1.76,1.13l-.52.22a1.26,1.26,0,0,0-1.25-.8c-1.19,0-1.7,1.33-1.66,2.51a1.79,1.79,0,0,1,1.54-.81A1.9,1.9,0,0,1,20.89,28.15Zm-.6,0a1.35,1.35,0,0,0-1.39-1.36,1.38,1.38,0,1,0-.08,2.74A1.39,1.39,0,0,0,20.29,28.15Z"/><path d="M22,27.05c0-1.69.44-3.05,2.11-3.05s2.1,1.36,2.1,3.05-.42,3-2.1,3S22,28.72,22,27.05Zm3.64,0c0-1.37-.3-2.5-1.53-2.5s-1.53,1.13-1.53,2.5.3,2.49,1.53,2.49S25.6,28.41,25.6,27.05Z"/><path d="M21,48.14a1.91,1.91,0,0,1-2,2,2.27,2.27,0,0,1-2.07-1.24l.48-.26a1.72,1.72,0,0,0,1.55.95,1.38,1.38,0,0,0,1.49-1.39A1.32,1.32,0,0,0,19,46.8a3.26,3.26,0,0,0-1.57.51l-.33-.3.52-2.93h3v.55h-2.5l-.39,2.07a2.77,2.77,0,0,1,1.4-.41A1.78,1.78,0,0,1,21,48.14Z"/><path d="M22,47.05c0-1.69.44-3,2.11-3s2.1,1.36,2.1,3-.42,3-2.1,3S22,48.72,22,47.05Zm3.64,0c0-1.37-.3-2.5-1.53-2.5s-1.54,1.13-1.54,2.5.31,2.49,1.54,2.49S25.6,48.41,25.6,47.05Z"/><path d="M21,68.75h-.88V70h-.58V68.75H16.48v-.14L20,64.08h.13V68.2H21Zm-1.46-.55V65.45L17.43,68.2Z"/><path d="M22,67.05c0-1.69.44-3,2.11-3s2.1,1.36,2.1,3-.42,3-2.1,3S22,68.72,22,67.05Zm3.64,0c0-1.37-.3-2.5-1.53-2.5s-1.54,1.13-1.54,2.5.31,2.49,1.54,2.49S25.6,68.41,25.6,67.05Z"/><path d="M20.89,88.32a1.84,1.84,0,0,1-2.06,1.76A2,2,0,0,1,17,88.9l.48-.26a1.53,1.53,0,0,0,1.38.89c.85,0,1.5-.48,1.5-1.2A1.25,1.25,0,0,0,19,87.08h-.6v-.5h.57a1,1,0,0,0,1.08-1,1,1,0,0,0-1.16-1,1.43,1.43,0,0,0-1.16.62l-.41-.32A1.88,1.88,0,0,1,18.86,84a1.56,1.56,0,0,1,1.73,1.55,1.35,1.35,0,0,1-.79,1.26A1.53,1.53,0,0,1,20.89,88.32Z"/><path d="M22,87.05c0-1.69.44-3,2.11-3s2.1,1.36,2.1,3-.42,3-2.1,3S22,88.72,22,87.05Zm3.64,0c0-1.37-.3-2.5-1.53-2.5s-1.54,1.13-1.54,2.5.31,2.49,1.54,2.49S25.6,88.41,25.6,87.05Z"/><path d="M20.9,109.44V110H17.31v-.24l2.34-2.82a2.3,2.3,0,0,0,.6-1.25A1.12,1.12,0,0,0,19,104.55a1.19,1.19,0,0,0-1.26.92l-.51-.12A1.66,1.66,0,0,1,19,104a1.65,1.65,0,0,1,1.79,1.69,2.56,2.56,0,0,1-.67,1.51l-1.88,2.24Z"/><path d="M22,107.05c0-1.69.44-3,2.11-3s2.1,1.36,2.1,3-.42,3-2.1,3S22,108.72,22,107.05Zm3.64,0c0-1.37-.3-2.5-1.53-2.5s-1.53,1.13-1.53,2.5.3,2.49,1.53,2.49S25.6,108.41,25.6,107.05Z"/><path d="M2.57,139.68A2.37,2.37,0,0,1,.16,137.3a2.3,2.3,0,0,1,.64-1.62l.45.49A1.67,1.67,0,0,0,.8,137.3,1.72,1.72,0,0,0,2.57,139a1.71,1.71,0,0,0,1.76-1.68,1.35,1.35,0,0,0-1.08-1.45l-.12,0v1.35h-.6v-2.12C4.2,135.06,5,136,5,137.3A2.38,2.38,0,0,1,2.57,139.68Z"/><path d="M4.27,131.34h.64v2.88H.21V131.4H.85v2.12H2.28v-1.84h.65v1.84H4.27Z"/><path d="M4.91,125.68l-3.41.42,2.89,1.4v.6L1.5,129.51l3.41.42v.69l-4.7-.57v-.63l3.38-1.61L.21,126.19v-.63l4.7-.57Z"/><path d="M.21,124v-.7h4.7v.7Z"/><path d="M.21,122v-1.83a2.13,2.13,0,0,1,2.36-2.13,2.12,2.12,0,0,1,2.34,2.13V122Zm4.06-1.83c0-.94-.74-1.43-1.7-1.43s-1.72.49-1.72,1.43v1.13H4.27Z"/><path d="M.21,117.07v-1.82a2.13,2.13,0,0,1,2.36-2.13,2.12,2.12,0,0,1,2.34,2.13v1.82Zm4.06-1.82c0-1-.74-1.43-1.7-1.43s-1.72.48-1.72,1.43v1.12H4.27Z"/><path d="M4.27,109.26h.64v2.88H.21v-2.82H.85v2.12H2.28v-1.85h.65v1.85H4.27Z"/><path d="M.21,108.27v-.7H4.27v-1.89h.64v2.59Z"/><path d="M.21,104.9v-1.83A2.13,2.13,0,0,1,2.57,101a2.12,2.12,0,0,1,2.34,2.12v1.83Zm4.06-1.83c0-.94-.74-1.42-1.7-1.42s-1.72.48-1.72,1.42v1.13H4.27Z"/><path d="M4.27,97.09h.64V100H.21V97.15H.85v2.12H2.28V97.42h.65v1.85H4.27Z"/><path d="M2.57,94.72A2.39,2.39,0,0,1,.16,92.33,2.31,2.31,0,0,1,1,90.52l.41.52a1.65,1.65,0,0,0-.6,1.28A1.71,1.71,0,0,0,2.57,94a1.71,1.71,0,0,0,1.75-1.7A1.68,1.68,0,0,0,3.72,91l.41-.52A2.31,2.31,0,0,1,5,92.33,2.39,2.39,0,0,1,2.57,94.72Z"/><path d="M2.57,90.06a2.38,2.38,0,1,1,0-4.76,2.38,2.38,0,1,1,0,4.76Zm0-4.06a1.68,1.68,0,1,0,0,3.35,1.68,1.68,0,1,0,0-3.35Z"/><path d="M.21,80.92h4.7v.66l-3.42,2H4.91v.71H.21v-.69l3.4-2H.21Z"/><path d="M2.57,80A2.39,2.39,0,0,1,.16,77.57,2.27,2.27,0,0,1,1,75.77l.41.51a1.65,1.65,0,0,0-.6,1.29,1.71,1.71,0,0,0,1.75,1.69,1.71,1.71,0,0,0,1.75-1.69,1.69,1.69,0,0,0-.6-1.29l.41-.51A2.27,2.27,0,0,1,5,77.57,2.39,2.39,0,0,1,2.57,80Z"/><path d="M4.27,72h.64v2.88H.21V72.1H.85v2.12H2.28V72.37h.65v1.85H4.27Z"/><path d="M.21,67.64h4.7v.66l-3.42,2H4.91v.7H.21v-.68l3.4-2H.21Z"/><path d="M.85,63.36v1.4H4.91v.7H.85v1.4H.21v-3.5Z"/><path d="M3.16,61.35v.54H4.91v.7H.21V60.8A1.38,1.38,0,0,1,1.7,59.35a1.34,1.34,0,0,1,1.44,1.21l1.77-1.25v.84Zm-.62.54V61c0-.65-.34-.92-.84-.92a.77.77,0,0,0-.85.75v1.09Z"/><path d="M3.72,55.85V57.8l1.19.43V59L.21,57.19v-.75l4.7-1.77v.73Zm-.61.22-2,.75,2,.75Z"/><path d="M.85,51.43v1.4H4.91v.7H.85v1.4H.21v-3.5Z"/><path d="M.21,50.66V50h4.7v.7Z"/><path d="M4.27,45.81h.64v2.88H.21V45.87H.85V48H2.28V46.14h.65V48H4.27Z"/><path d="M.21,39.71h4.7v.66L1.49,42.42H4.91v.7H.21v-.68l3.4-2H.21Z"/><path d="M2.69,38.67c-1.27,0-2.3-.33-2.3-1.62s1-1.62,2.3-1.62S5,35.77,5,37.05,4,38.67,2.69,38.67Zm0-2.57c-.9,0-1.66.19-1.66.95s.76,1,1.66,1,1.65-.19,1.65-1S3.59,36.1,2.69,36.1Z"/><path d="M6.81,33.16h.37v1.67H7l-1.19-1a.93.93,0,0,0-.49-.26.39.39,0,0,0-.4.44.43.43,0,0,0,.39.47l-.07.35a.83.83,0,0,1,.08-1.65,1.13,1.13,0,0,1,.67.3l.82.68Z"/><path d="M.21,29.48v-.63l4.7,2.31v.63Z"/><path d="M4.91,23.37l-3.41.42,2.89,1.4v.6L1.5,27.2l3.41.42v.69l-4.7-.57v-.63l3.38-1.62L.21,23.88v-.63l4.7-.57Z"/><path d="M1.88,20.43a.81.81,0,0,1,.79.91.92.92,0,0,1-.53.85L2,21.88a.62.62,0,0,0,.35-.52c0-.31-.18-.54-.43-.54a.48.48,0,0,0-.47.53v.27H1.09v-.23c0-.27-.16-.45-.38-.44a.35.35,0,0,0-.34.39.56.56,0,0,0,.24.45l-.23.26A.88.88,0,0,1,0,21.32a.7.7,0,0,1,.7-.77.59.59,0,0,1,.54.33A.65.65,0,0,1,1.88,20.43Z"/><rect class="cls-6" x="146.75" y="88.95" width="1.5" height="0.5"/><rect class="cls-6" x="150.58" y="88.95" width="2.33" height="0.5"/><rect class="cls-6" x="155.25" y="88.95" width="1.5" height="0.5"/><rect class="cls-6" x="66.75" y="105.05" width="1.5" height="0.5"/><rect class="cls-6" x="70.58" y="105.05" width="2.33" height="0.5"/><rect class="cls-6" x="75.25" y="105.05" width="1.5" height="0.5"/><rect class="cls-6" x="306.75" y="104.35" width="1.5" height="0.5"/><rect class="cls-6" x="310.58" y="104.35" width="2.33" height="0.5"/><rect class="cls-6" x="315.25" y="104.35" width="1.5" height="0.5"/><rect class="cls-6" x="226.75" y="93.05" width="1.5" height="0.5"/><rect class="cls-6" x="230.58" y="93.05" width="2.33" height="0.5"/><rect class="cls-6" x="235.25" y="93.05" width="1.5" height="0.5"/><path class="cls-7" d="M85.86,130l-.3-2.5-1,2.12h-.44l-1-2.12-.31,2.5h-.51l.42-3.45h.46L84.31,129l1.18-2.48H86l.42,3.45Z"/><path class="cls-7" d="M87.11,126.55h.51V130h-.51Z"/><path class="cls-7" d="M91.06,126.55V130h-.49l-1.5-2.51V130h-.52v-3.45h.5L90.54,129v-2.49Z"/><path class="cls-7" d="M165.86,130l-.3-2.5-1,2.12h-.44l-1-2.12-.31,2.5h-.51l.42-3.45h.46l1.19,2.48,1.18-2.48H166l.42,3.45Z"/><path class="cls-7" d="M167.11,126.55h.51V130h-.51Z"/><path class="cls-7" d="M171.06,126.55V130h-.49l-1.5-2.51V130h-.52v-3.45h.5l1.49,2.49v-2.49Z"/><path class="cls-7" d="M245.86,130l-.3-2.5-1,2.12h-.44l-1-2.12-.31,2.5h-.51l.42-3.45h.46l1.19,2.48,1.18-2.48H246l.42,3.45Z"/><path class="cls-7" d="M247.11,126.55h.51V130h-.51Z"/><path class="cls-7" d="M251.06,126.55V130h-.49l-1.5-2.51V130h-.52v-3.45h.5l1.49,2.49v-2.49Z"/><path class="cls-7" d="M325.86,140l-.3-2.5-1,2.12h-.44l-1-2.12-.31,2.5h-.51l.42-3.45h.46l1.19,2.48,1.18-2.48H326l.42,3.45Z"/><path class="cls-7" d="M327.11,136.55h.51V140h-.51Z"/><path class="cls-7" d="M331.06,136.55V140h-.49l-1.5-2.51V140h-.52v-3.45h.5l1.49,2.49v-2.49Z"/><path d="M55.22,60l-.31-2.5-1,2.12h-.44l-1-2.12L52.1,60h-.51L52,56.55h.46L53.66,59l1.19-2.48h.46L55.73,60Z"/><path d="M58.29,59.13H56.86l-.32.87H56l1.3-3.45h.56L59.16,60h-.54Zm-.17-.45-.55-1.49L57,58.68Z"/><path d="M61.6,60l-.9-1.43L59.8,60h-.61l1.2-1.85-1.08-1.6h.62l.77,1.18.77-1.18h.61L61,58.15,62.21,60Z"/><path d="M215.22,50l-.31-2.5-1,2.12h-.44l-1-2.12L212.1,50h-.51l.42-3.45h.46L213.66,49l1.19-2.48h.46l.42,3.45Z"/><path d="M218.29,49.13h-1.43l-.32.87H216l1.3-3.45h.56l1.3,3.45h-.54Zm-.17-.45-.55-1.49L217,48.68Z"/><path d="M221.6,50l-.9-1.43L219.8,50h-.61l1.2-1.85-1.08-1.6h.62l.77,1.18.77-1.18h.61L221,48.15,222.21,50Z"/><path d="M295.22,50l-.31-2.5-1,2.12h-.44l-1-2.12L292.1,50h-.51l.42-3.45h.46L293.66,49l1.19-2.48h.46l.42,3.45Z"/><path d="M298.29,49.13h-1.43l-.32.87H296l1.3-3.45h.56l1.3,3.45h-.54Zm-.17-.45-.55-1.49L297,48.68Z"/><path d="M301.6,50l-.9-1.43L299.8,50h-.61l1.2-1.85-1.08-1.6h.62l.77,1.18.77-1.18h.61L301,48.15,302.21,50Z"/><path d="M135.22,10l-.31-2.5-1,2.12h-.44l-1-2.12L132.1,10h-.51L132,6.55h.46L133.66,9l1.19-2.48h.46l.42,3.45Z"/><path d="M138.29,9.13h-1.43l-.32.87H136l1.3-3.45h.56l1.3,3.45h-.54Zm-.17-.45-.55-1.49L137,8.68Z"/><path d="M141.6,10l-.9-1.43L139.8,10h-.61l1.2-1.85-1.08-1.6h.62l.77,1.18.77-1.18h.61L141,8.15,142.21,10Z"/><path d="M113.66,173l2.91,5.87-.4.39-3.92-2.16,2.17,3.91-.39.4-5.87-2.9.44-.45,5,2.5-2.19-4,.36-.36,4,2.21-2.52-5Z"/><path d="M119.85,173l-2.56,2.56a1.49,1.49,0,0,0,2.11-.12,1.59,1.59,0,0,0,.46-1.48l.5-.2a2.17,2.17,0,0,1-3.66,2,2.08,2.08,0,0,1,0-3,2,2,0,0,1,3,.08A1.45,1.45,0,0,1,119.85,173Zm-.75,0a1.44,1.44,0,0,0-2,.09,1.46,1.46,0,0,0-.11,2.07Z"/><path d="M123.42,169.4,120.86,172a1.49,1.49,0,0,0,2.11-.12,1.59,1.59,0,0,0,.46-1.48l.5-.2a2.17,2.17,0,0,1-3.66,2,2.08,2.08,0,0,1,0-3.05,2,2,0,0,1,3,.08A1.45,1.45,0,0,1,123.42,169.4Zm-.75,0a1.43,1.43,0,0,0-2,.09,1.46,1.46,0,0,0-.11,2.07Z"/><path d="M127.45,168l-3,0,1.53,1.53-.41.41-4.65-4.65.41-.41,2.81,2.82,0-2.26.56-.56,0,2.56,3.33,0Z"/><path d="M132,162.7l.39.39-2.54,2.54-.17-.17-.34-3.65a2.33,2.33,0,0,0-.46-1.31,1.11,1.11,0,0,0-1.65.05,1.17,1.17,0,0,0-.24,1.54l-.46.28a1.66,1.66,0,0,1,.31-2.2,1.64,1.64,0,0,1,2.45-.07,2.55,2.55,0,0,1,.6,1.54l.25,2.91Z"/><path d="M134.83,158.14a2.17,2.17,0,0,1-3,3,1.77,1.77,0,0,1-.34-2.06,1.24,1.24,0,0,1-1.29-.32,1.63,1.63,0,0,1,2.28-2.29,1.25,1.25,0,0,1,.32,1.3A1.79,1.79,0,0,1,134.83,158.14Zm-4.2.27a1,1,0,0,0,1.44-1.44,1,1,0,0,0-1.44,1.44Zm3.75.14a1.55,1.55,0,0,0-2.18,2.17,1.55,1.55,0,0,0,2.18-2.17Z"/><path d="M145.06,171.62l2.91,5.87-.4.39-3.92-2.16,2.17,3.91-.39.4-5.87-2.9.44-.45,5,2.5-2.19-4,.36-.36,4,2.21-2.52-5Z"/><path d="M151.25,171.57l-2.56,2.56a1.49,1.49,0,0,0,2.11-.12,1.59,1.59,0,0,0,.46-1.48l.5-.2a2.18,2.18,0,1,1-3.69-1,2,2,0,0,1,3,.08A1.45,1.45,0,0,1,151.25,171.57Zm-.74.05a1.44,1.44,0,0,0-2,.08,1.46,1.46,0,0,0-.11,2.07Z"/><path d="M154.82,168l-2.56,2.56a1.49,1.49,0,0,0,2.11-.12,1.59,1.59,0,0,0,.46-1.48l.5-.2a2.17,2.17,0,0,1-3.66,2,2.08,2.08,0,0,1,0-3,2,2,0,0,1,3,.08A1.45,1.45,0,0,1,154.82,168Zm-.74,0a1.53,1.53,0,0,0-2.16,2.16Z"/><path d="M158.85,166.61l-3,0,1.53,1.53-.41.41-4.65-4.65.41-.41,2.81,2.82,0-2.26.56-.56,0,2.56,3.33,0Z"/><path d="M158.14,158.84l4.24,4.24-.4.4-3.64-3.64-.52,1.3-.4-.4.7-1.89Z"/><path d="M164.86,158.22a1.84,1.84,0,0,1-.21,2.7,2.05,2.05,0,0,1-2.16.5l.15-.53a1.55,1.55,0,0,0,1.61-.34,1.33,1.33,0,0,0,.21-1.91,1.25,1.25,0,0,0-1.84.07l-.42.43-.36-.36.41-.41a1,1,0,0,0,0-1.48,1,1,0,0,0-1.53.11,1.37,1.37,0,0,0-.38,1.26l-.53.06a1.88,1.88,0,0,1,.53-1.72,1.55,1.55,0,0,1,2.31-.12,1.34,1.34,0,0,1,.33,1.45A1.52,1.52,0,0,1,164.86,158.22Z"/><path d="M33.67,173l2.9,5.87-.4.39-3.92-2.16L34.42,181l-.39.4-5.87-2.9.44-.45,5,2.5-2.19-4,.36-.36,4,2.21-2.52-5Z"/><path d="M39.85,173l-2.56,2.56a1.49,1.49,0,0,0,2.11-.12,1.59,1.59,0,0,0,.46-1.48l.5-.2a2.18,2.18,0,1,1-3.69-1,2,2,0,0,1,3,.08A1.45,1.45,0,0,1,39.85,173Zm-.74.05a1.44,1.44,0,0,0-2,.08,1.46,1.46,0,0,0-.11,2.07Z"/><path d="M43.42,169.4,40.86,172a1.49,1.49,0,0,0,2.11-.12,1.59,1.59,0,0,0,.46-1.48l.5-.2a2.17,2.17,0,0,1-3.66,2,2.08,2.08,0,0,1,0-3.05,2,2,0,0,1,3,.08A1.45,1.45,0,0,1,43.42,169.4Zm-.74,0a1.44,1.44,0,0,0-2,.09,1.46,1.46,0,0,0-.11,2.07Z"/><path d="M47.45,168l-3,0L46,169.51l-.41.41-4.65-4.65.41-.41,2.81,2.82,0-2.26.57-.56v2.56l3.33,0Z"/><path d="M52,162.7l.39.39-2.54,2.54-.17-.17-.34-3.65a2.26,2.26,0,0,0-.46-1.31,1.11,1.11,0,0,0-1.65.05,1.17,1.17,0,0,0-.24,1.54l-.45.28a1.81,1.81,0,0,1,2.75-2.27,2.55,2.55,0,0,1,.6,1.54l.26,2.91Z"/><path d="M54.83,158.14a2.17,2.17,0,0,1-3,3,1.77,1.77,0,0,1-.34-2.06,1.24,1.24,0,0,1-1.29-.32,1.63,1.63,0,0,1,2.28-2.29,1.25,1.25,0,0,1,.32,1.3A1.79,1.79,0,0,1,54.83,158.14Zm-4.2.27a.94.94,0,0,0,1.36-.08,1,1,0,0,0,.09-1.36,1,1,0,0,0-1.45,1.44Zm3.75.14a1.55,1.55,0,0,0-2.18,2.17,1.55,1.55,0,0,0,2.18-2.17Z"/><path d="M64.86,171.82l2.9,5.87-.39.4-3.92-2.17,2.17,3.92-.4.39-5.87-2.9.45-.45,5,2.51-2.2-4,.36-.36,4,2.22-2.51-5Z"/><path d="M71.05,171.77l-2.56,2.56a1.48,1.48,0,0,0,2.1-.12,1.54,1.54,0,0,0,.46-1.47l.51-.2a2.17,2.17,0,0,1-3.66,2,2.08,2.08,0,0,1,0-3.06,2,2,0,0,1,3,.08Zm-.75,0a1.43,1.43,0,0,0-2,.08,1.47,1.47,0,0,0-.12,2.08Z"/><path d="M74.62,168.2l-2.56,2.56a1.48,1.48,0,0,0,2.1-.12,1.54,1.54,0,0,0,.46-1.47l.51-.2a2.18,2.18,0,1,1-3.69-1,2,2,0,0,1,3,.08Zm-.75.05a1.43,1.43,0,0,0-2,.08,1.47,1.47,0,0,0-.12,2.08Z"/><path d="M78.64,166.81l-3,0,1.53,1.52-.4.41-4.65-4.65.41-.4,2.81,2.81,0-2.25.57-.57,0,2.57,3.33,0Z"/><path d="M77.94,159l4.24,4.24-.41.4-3.63-3.63-.52,1.29-.4-.4.7-1.88Z"/><path d="M85.26,158.42l-.62.63.88.88-.4.41-.89-.89L82,161.64l-.09-.09-.7-5.72.08-.09,2.92,2.92.62-.63Zm-1.42.64-1.94-1.94.43,3.46Z"/><path d="M273.66,173l2.91,5.87-.4.39-3.92-2.16,2.17,3.91-.39.4-5.87-2.9.44-.45,5,2.5-2.19-4,.36-.36,4,2.21-2.52-5Z"/><path d="M279.85,173l-2.56,2.56a1.49,1.49,0,0,0,2.11-.12,1.59,1.59,0,0,0,.46-1.48l.5-.2a2.17,2.17,0,0,1-3.66,2,2.08,2.08,0,0,1,0-3,2,2,0,0,1,3,.08A1.45,1.45,0,0,1,279.85,173Zm-.75,0a1.44,1.44,0,0,0-2,.09,1.46,1.46,0,0,0-.11,2.07Z"/><path d="M283.42,169.4,280.86,172a1.49,1.49,0,0,0,2.11-.12,1.59,1.59,0,0,0,.46-1.48l.5-.2a2.17,2.17,0,0,1-3.66,2,2.08,2.08,0,0,1,0-3.05,2,2,0,0,1,3,.08A1.45,1.45,0,0,1,283.42,169.4Zm-.75,0a1.43,1.43,0,0,0-2,.09,1.46,1.46,0,0,0-.11,2.07Z"/><path d="M287.45,168l-3,0,1.53,1.53-.41.41-4.65-4.65.41-.41,2.81,2.82,0-2.26.56-.56,0,2.56,3.33,0Z"/><path d="M292,162.7l.39.39-2.54,2.54-.17-.17-.34-3.65a2.33,2.33,0,0,0-.46-1.31,1.11,1.11,0,0,0-1.65.05,1.17,1.17,0,0,0-.24,1.54l-.46.28a1.66,1.66,0,0,1,.31-2.2,1.64,1.64,0,0,1,2.45-.07,2.55,2.55,0,0,1,.6,1.54l.25,2.91Z"/><path d="M294.83,158.14a2.17,2.17,0,0,1-3,3,1.77,1.77,0,0,1-.34-2.06,1.24,1.24,0,0,1-1.29-.32,1.63,1.63,0,0,1,2.28-2.29,1.25,1.25,0,0,1,.32,1.3A1.79,1.79,0,0,1,294.83,158.14Zm-4.2.27a1,1,0,0,0,1.44-1.44,1,1,0,0,0-1.44,1.44Zm3.75.14a1.55,1.55,0,0,0-2.18,2.17,1.55,1.55,0,0,0,2.18-2.17Z"/><path d="M305.06,171.62l2.91,5.87-.4.39-3.92-2.16,2.17,3.91-.39.4-5.87-2.9.44-.45,5,2.5-2.19-4,.36-.36,4,2.21-2.52-5Z"/><path d="M311.25,171.57l-2.56,2.56a1.49,1.49,0,0,0,2.11-.12,1.59,1.59,0,0,0,.46-1.48l.5-.2a2.18,2.18,0,1,1-3.69-1,2,2,0,0,1,3,.08A1.45,1.45,0,0,1,311.25,171.57Zm-.74.05a1.44,1.44,0,0,0-2.05.08,1.46,1.46,0,0,0-.11,2.07Z"/><path d="M314.82,168l-2.56,2.56a1.49,1.49,0,0,0,2.11-.12,1.59,1.59,0,0,0,.46-1.48l.5-.2a2.17,2.17,0,0,1-3.66,2,2.08,2.08,0,0,1,0-3,2,2,0,0,1,3,.08A1.45,1.45,0,0,1,314.82,168Zm-.74,0a1.53,1.53,0,0,0-2.16,2.16Z"/><path d="M318.85,166.61l-3,0,1.53,1.53-.41.41-4.65-4.65.41-.41,2.81,2.82,0-2.26.56-.56,0,2.56,3.33,0Z"/><path d="M318.14,158.84l4.24,4.24-.4.4-3.64-3.64-.52,1.3-.4-.4.7-1.89Z"/><path d="M324.86,158.22a1.84,1.84,0,0,1-.21,2.7,2.05,2.05,0,0,1-2.16.5l.15-.53a1.55,1.55,0,0,0,1.61-.34,1.33,1.33,0,0,0,.21-1.91,1.25,1.25,0,0,0-1.84.07l-.42.43-.36-.36.41-.41a1,1,0,0,0,0-1.48,1,1,0,0,0-1.53.11,1.37,1.37,0,0,0-.38,1.26l-.53.06a1.88,1.88,0,0,1,.53-1.72,1.55,1.55,0,0,1,2.31-.12,1.34,1.34,0,0,1,.33,1.45A1.52,1.52,0,0,1,324.86,158.22Z"/><path d="M193.67,173l2.9,5.87-.4.39-3.92-2.16,2.17,3.91-.39.4-5.87-2.9.44-.45,5,2.5-2.19-4,.36-.36,4,2.21-2.52-5Z"/><path d="M199.85,173l-2.56,2.56a1.49,1.49,0,0,0,2.11-.12,1.59,1.59,0,0,0,.46-1.48l.5-.2a2.17,2.17,0,0,1-3.66,2,2.08,2.08,0,0,1,0-3,2,2,0,0,1,3,.08A1.45,1.45,0,0,1,199.85,173Zm-.74,0a1.53,1.53,0,0,0-2.16,2.16Z"/><path d="M203.42,169.4,200.86,172a1.49,1.49,0,0,0,2.11-.12,1.59,1.59,0,0,0,.46-1.48l.5-.2a2.17,2.17,0,0,1-3.66,2,2.08,2.08,0,0,1,0-3.05,2,2,0,0,1,3,.08A1.45,1.45,0,0,1,203.42,169.4Zm-.74,0a1.44,1.44,0,0,0-2.05.09,1.46,1.46,0,0,0-.11,2.07Z"/><path d="M207.45,168l-3,0,1.53,1.53-.41.41-4.65-4.65.41-.41,2.81,2.82,0-2.26.57-.56v2.56l3.33,0Z"/><path d="M212,162.7l.39.39-2.54,2.54-.17-.17-.34-3.65a2.26,2.26,0,0,0-.46-1.31,1.11,1.11,0,0,0-1.65.05,1.17,1.17,0,0,0-.24,1.54l-.45.28a1.81,1.81,0,0,1,2.75-2.27,2.55,2.55,0,0,1,.6,1.54l.26,2.91Z"/><path d="M214.83,158.14a2.17,2.17,0,0,1-3,3,1.77,1.77,0,0,1-.34-2.06,1.24,1.24,0,0,1-1.29-.32,1.63,1.63,0,0,1,2.28-2.29,1.25,1.25,0,0,1,.32,1.3A1.79,1.79,0,0,1,214.83,158.14Zm-4.2.27a.94.94,0,0,0,1.36-.08,1,1,0,0,0,.09-1.36,1,1,0,0,0-1.45,1.44Zm3.75.14a1.55,1.55,0,0,0-2.18,2.17,1.55,1.55,0,0,0,2.18-2.17Z"/><path d="M225.22,171.46l2.91,5.87-.4.4-3.92-2.17,2.17,3.92-.4.39-5.86-2.9.44-.45,5,2.5-2.2-4,.37-.36,4,2.21-2.52-5Z"/><path d="M231.41,171.41,228.85,174a1.49,1.49,0,0,0,2.11-.12,1.61,1.61,0,0,0,.46-1.48l.5-.19a2.17,2.17,0,0,1-3.66,2,2.09,2.09,0,0,1,0-3.06,2,2,0,0,1,3,.08Zm-.75.05a1.43,1.43,0,0,0-2,.08,1.46,1.46,0,0,0-.11,2.07Z"/><path d="M235,167.84l-2.56,2.56a1.49,1.49,0,0,0,2.11-.12,1.61,1.61,0,0,0,.46-1.48l.5-.2a2.12,2.12,0,0,1-.59,2.08,2.19,2.19,0,0,1-3.1-3.1,2,2,0,0,1,3,.08Zm-.75,0a1.43,1.43,0,0,0-2,.08,1.46,1.46,0,0,0-.11,2.07Z"/><path d="M239,166.45l-3,0L237.5,168l-.4.41-4.65-4.65.41-.41,2.81,2.82,0-2.26.56-.56,0,2.56,3.33,0Z"/><path d="M238.3,158.68l4.24,4.24-.4.4-3.64-3.64L238,161l-.4-.4.7-1.88Z"/><path d="M245.66,159l.39.39-2.54,2.54-.17-.17-.34-3.65a2.26,2.26,0,0,0-.46-1.31,1.11,1.11,0,0,0-1.65.05,1.17,1.17,0,0,0-.24,1.54l-.45.28a1.66,1.66,0,0,1,.3-2.21,1.65,1.65,0,0,1,2.45-.06,2.55,2.55,0,0,1,.6,1.54l.26,2.91Z"/></g></g></svg>