<svg xmlns="http://www.w3.org/2000/svg" viewBox="0 0 349.87 192.47">
  <defs>
    <style>
      .cls-1,
      .cls-14,
      .cls-15,
      .cls-6 {
        fill: none;
        stroke-miterlimit: 10;
      }

      .cls-1 {
        stroke: #e6e6e6;
        stroke-width: 0.05px;
      }

      .cls-2 {
        fill: #61c8d5;
      }

      .cls-3 {
        fill: #ee9b90;
      }

      .cls-4 {
        fill: #5f5292;
      }

      .cls-5 {
        fill: #50a68d;
      }

      .cls-6 {
        stroke: #000;
      }

      .cls-7 {
        font-size: 9px;
        font-family: sora, Sofia Pro;
      }

      .cls-8 {
        letter-spacing: -0.01em;
      }

      .cls-9 {
        font-size: 6.83px;
      }

      .cls-20,
      .cls-21,
      .cls-9 {
        font-family: sora, Sofia Pro;
      }

      .cls-10 {
        letter-spacing: -0.01em;
      }

      .cls-11 {
        letter-spacing: 0em;
      }

      .cls-12 {
        letter-spacing: -0.06em;
      }

      .cls-13 {
        letter-spacing: 0em;
      }

      .cls-14,
      .cls-15 {
        stroke: #f15a24;
        stroke-width: 0.5px;
      }

      .cls-15 {
        stroke-dasharray: 2.33 2.33;
      }

      .cls-16 {
        letter-spacing: -0.01em;
      }

      .cls-17 {
        letter-spacing: 0em;
      }

      .cls-18 {
        letter-spacing: -0.02em;
      }

      .cls-19 {
        letter-spacing: -0.04em;
      }

      .cls-20,
      .cls-21 {
        font-size: 5px;
      }

      .cls-20 {
        fill: #fff;
      }

      .cls-22 {
        letter-spacing: -0.01em;
      }

    </style>
  </defs>
  <g id="Laag_2" data-name="Laag 2">
    <g id="Laag_1-2" data-name="Laag 1">
      <line class="cls-1" x1="39.87" y1="140" x2="349.87" y2="140" />
      <line class="cls-1" x1="39.87" y1="130" x2="349.87" y2="130" />
      <line class="cls-1" x1="39.87" y1="120" x2="349.87" y2="120" />
      <line class="cls-1" x1="39.87" y1="110" x2="349.87" y2="110" />
      <line class="cls-1" x1="39.87" y1="100" x2="349.87" y2="100" />
      <line class="cls-1" x1="39.87" y1="90" x2="349.87" y2="90" />
      <line class="cls-1" x1="39.87" y1="80" x2="349.87" y2="80" />
      <line class="cls-1" x1="39.87" y1="70" x2="349.87" y2="70" />
      <line class="cls-1" x1="39.87" y1="60" x2="349.87" y2="60" />
      <line class="cls-1" x1="39.87" y1="50" x2="349.87" y2="50" />
      <line class="cls-1" x1="39.87" y1="40" x2="349.87" y2="40" />
      <line class="cls-1" x1="39.87" y1="30" x2="349.87" y2="30" />
      <line class="cls-1" x1="39.87" y1="20" x2="349.87" y2="20" />
      <line class="cls-1" x1="39.87" y1="10" x2="349.87" y2="10" />
      <rect class="cls-2" x="129.87" y="20.2" width="20" height="129.8" />
      <rect class="cls-2" x="159.87" y="119.2" width="20" height="30.8" />
      <rect class="cls-3" x="49.87" y="64.4" width="20" height="85.6" />
      <rect class="cls-3" x="79.87" y="122.6" width="20" height="27.4" />
      <rect class="cls-4" x="289.87" y="58" width="20" height="92" />
      <rect class="cls-4" x="319.87" y="132.6" width="20" height="17.4" />
      <rect class="cls-5" x="209.87" y="53.4" width="20" height="96.6" />
      <rect class="cls-5" x="239.87" y="121.8" width="20" height="28.2" />
      <polyline class="cls-6" points="39.87 0 39.87 150 349.87 150" /><text class="cls-7"
        transform="translate(24.52 150)">0</text><text class="cls-7" transform="translate(21.5 130)">10</text><text
        class="cls-7" transform="translate(20.2 10)">
        <tspan class="cls-8">7</tspan>
        <tspan x="4.32" y="0">0</tspan>
      </text><text class="cls-7" transform="translate(19.32 30)">60</text><text class="cls-7"
        transform="translate(19.59 50)">50</text><text class="cls-7" transform="translate(19.46 70)">40</text><text
        class="cls-7" transform="translate(19.75 90)">30</text><text class="cls-7"
        transform="translate(19.97 110)">20</text><text class="cls-9"
        transform="translate(8.04 140) rotate(-90)">GEMIDDELDE <tspan class="cls-10" x="44.96" y="0">C</tspan>
        <tspan class="cls-11" x="49.62" y="0">ONCENTR</tspan>
        <tspan class="cls-12" x="81.02" y="0">A</tspan>
        <tspan class="cls-13" x="84.93" y="0">TIE N0</tspan>
      </text><text class="cls-9" transform="translate(10.31 35.03) rotate(-90) scale(0.58)">2 </text><text class="cls-9"
        transform="translate(8.04 31.96) rotate(-90)">/M</text><text class="cls-9"
        transform="translate(5.76 22.3) rotate(-90) scale(0.58)">3</text>
      <line class="cls-14" x1="149.87" y1="89.2" x2="151.37" y2="89.2" />
      <line class="cls-15" x1="153.71" y1="89.2" x2="157.21" y2="89.2" />
      <line class="cls-14" x1="158.37" y1="89.2" x2="159.87" y2="89.2" /><text class="cls-7"
        transform="translate(109.11 190.81) rotate(-45)">23<tspan class="cls-16" x="9.31" y="0">-</tspan>
        <tspan class="cls-17" x="13.58" y="0">11</tspan>
        <tspan class="cls-18" x="19.61" y="0">-</tspan>
        <tspan x="23.78" y="0">2020</tspan>
      </text><text class="cls-7" transform="translate(140.23 189.69) rotate(-45)">2<tspan class="cls-19" x="4.54" y="0">
          7</tspan>
        <tspan x="8.6" y="0">-4</tspan>
        <tspan class="cls-18" x="18.03" y="0">-</tspan>
        <tspan x="22.19" y="0">2020</tspan>
      </text>
      <line class="cls-14" x1="69.87" y1="105.3" x2="71.37" y2="105.3" />
      <line class="cls-15" x1="73.71" y1="105.3" x2="77.21" y2="105.3" />
      <line class="cls-14" x1="78.37" y1="105.3" x2="79.87" y2="105.3" /><text class="cls-7"
        transform="translate(29.11 190.81) rotate(-45)">23<tspan class="cls-16" x="9.31" y="0">-</tspan>
        <tspan class="cls-17" x="13.58" y="0">11</tspan>
        <tspan class="cls-18" x="19.61" y="0">-</tspan>
        <tspan x="23.78" y="0">2020</tspan>
      </text><text class="cls-7" transform="translate(62.14 187.78) rotate(-45)">11-5<tspan class="cls-18" x="15.33"
          y="0">-</tspan>
        <tspan x="19.49" y="0">2020</tspan>
      </text>
      <line class="cls-14" x1="309.87" y1="104.6" x2="311.37" y2="104.6" />
      <line class="cls-15" x1="313.71" y1="104.6" x2="317.21" y2="104.6" />
      <line class="cls-14" x1="318.37" y1="104.6" x2="319.87" y2="104.6" /><text class="cls-7"
        transform="translate(269.11 190.81) rotate(-45)">23<tspan class="cls-16" x="9.31" y="0">-</tspan>
        <tspan class="cls-17" x="13.58" y="0">11</tspan>
        <tspan class="cls-18" x="19.61" y="0">-</tspan>
        <tspan x="23.78" y="0">2020</tspan>
      </text><text class="cls-7" transform="translate(300.23 189.69) rotate(-45)">2<tspan class="cls-19" x="4.54" y="0">
          7</tspan>
        <tspan x="8.6" y="0">-4</tspan>
        <tspan class="cls-18" x="18.03" y="0">-</tspan>
        <tspan x="22.19" y="0">2020</tspan>
      </text>
      <line class="cls-14" x1="229.87" y1="93.3" x2="231.37" y2="93.3" />
      <line class="cls-15" x1="233.71" y1="93.3" x2="237.21" y2="93.3" />
      <line class="cls-14" x1="238.37" y1="93.3" x2="239.87" y2="93.3" /><text class="cls-7"
        transform="translate(189.11 190.81) rotate(-45)">23<tspan class="cls-16" x="9.31" y="0">-</tspan>
        <tspan class="cls-17" x="13.58" y="0">11</tspan>
        <tspan class="cls-18" x="19.61" y="0">-</tspan>
        <tspan x="23.78" y="0">2020</tspan>
      </text><text class="cls-7" transform="translate(220.81 189.11) rotate(-45)">13-4<tspan class="cls-18" x="17.21"
          y="0">-</tspan>
        <tspan x="21.37" y="0">2020</tspan>
      </text><text class="cls-20" transform="translate(85.1 130)">MIN</text><text class="cls-20"
        transform="translate(165.1 130)">MIN</text><text class="cls-20" transform="translate(245.1 130)">MIN</text><text
        class="cls-20" transform="translate(325.1 140)">MIN</text><text class="cls-21"
        transform="translate(54.45 60)">MA<tspan class="cls-22" x="7.83" y="0">X</tspan></text><text class="cls-21"
        transform="translate(214.45 50)">MA<tspan class="cls-22" x="7.83" y="0">X</tspan></text><text class="cls-21"
        transform="translate(294.45 50)">MA<tspan class="cls-22" x="7.83" y="0">X</tspan></text><text class="cls-21"
        transform="translate(134.45 10)">MA<tspan class="cls-22" x="7.83" y="0">X</tspan></text></g>
  </g>
</svg>
