<svg xmlns="http://www.w3.org/2000/svg" viewBox="0 0 346.75 190.49"><defs><style>.cls-1,.cls-6,.cls-7,.cls-8{fill:none;stroke-miterlimit:10;}.cls-1{stroke:#e6e6e6;stroke-width:0.05px;}.cls-2{fill:#61c8d5;}.cls-3{fill:#ee9b90;}.cls-4{fill:#5f5292;}.cls-5{fill:#50a68d;}.cls-6{stroke:#000;}.cls-7,.cls-8{stroke:#f15a24;stroke-width:0.5px;}.cls-8{stroke-dasharray:2.33 2.33;}.cls-9{fill:#fff;}</style></defs><g id="Laag_2" data-name="Laag 2"><g id="Laag_1-2" data-name="Laag 1"><line class="cls-1" x1="36.75" y1="140" x2="346.75" y2="140"/><line class="cls-1" x1="36.75" y1="130" x2="346.75" y2="130"/><line class="cls-1" x1="36.75" y1="120" x2="346.75" y2="120"/><line class="cls-1" x1="36.75" y1="110" x2="346.75" y2="110"/><line class="cls-1" x1="36.75" y1="100" x2="346.75" y2="100"/><line class="cls-1" x1="36.75" y1="90" x2="346.75" y2="90"/><line class="cls-1" x1="36.75" y1="80" x2="346.75" y2="80"/><line class="cls-1" x1="36.75" y1="70" x2="346.75" y2="70"/><line class="cls-1" x1="36.75" y1="60" x2="346.75" y2="60"/><line class="cls-1" x1="36.75" y1="50" x2="346.75" y2="50"/><line class="cls-1" x1="36.75" y1="40" x2="346.75" y2="40"/><line class="cls-1" x1="36.75" y1="30" x2="346.75" y2="30"/><line class="cls-1" x1="36.75" y1="20" x2="346.75" y2="20"/><line class="cls-1" x1="36.75" y1="10" x2="346.75" y2="10"/><rect class="cls-2" x="126.75" y="20.2" width="20" height="129.8"/><rect class="cls-2" x="156.75" y="119.2" width="20" height="30.8"/><rect class="cls-3" x="46.75" y="64.4" width="20" height="85.6"/><rect class="cls-3" x="76.75" y="122.6" width="20" height="27.4"/><rect class="cls-4" x="286.75" y="58" width="20" height="92"/><rect class="cls-4" x="316.75" y="132.6" width="20" height="17.4"/><rect class="cls-5" x="206.75" y="53.4" width="20" height="96.6"/><rect class="cls-5" x="236.75" y="121.8" width="20" height="28.2"/><polyline class="cls-6" points="36.75 0 36.75 150 346.75 150"/><path d="M22,147.05c0-1.69.44-3.05,2.11-3.05s2.1,1.36,2.1,3.05-.42,3-2.1,3S22,148.72,22,147.05Zm3.64,0c0-1.37-.3-2.5-1.53-2.5s-1.53,1.13-1.53,2.5.3,2.49,1.53,2.49S25.6,148.41,25.6,147.05Z"/><path d="M20.47,124v6h-.56v-5.14l-1.29.55v-.57l1.83-.84Z"/><path d="M22,127.05c0-1.69.44-3,2.11-3s2.1,1.36,2.1,3-.42,3-2.1,3S22,128.72,22,127.05Zm3.64,0c0-1.37-.3-2.5-1.53-2.5s-1.54,1.13-1.54,2.5.31,2.49,1.54,2.49S25.6,128.41,25.6,127.05Z"/><path d="M21.39,4.08v.06L18.17,10h-.68l3-5.37H17.5V4.08Z"/><path d="M22,7.05c0-1.69.44-3,2.11-3s2.1,1.36,2.1,3.05-.42,3-2.1,3S22,8.72,22,7.05Zm3.64,0c0-1.37-.3-2.5-1.53-2.5s-1.53,1.13-1.53,2.5.3,2.49,1.53,2.49S25.6,8.41,25.6,7.05Z"/><path d="M20.89,28.15a1.93,1.93,0,0,1-2,1.94c-1.36,0-2.1-.91-2.1-2.62,0-1.27.31-3.47,2.3-3.47a1.77,1.77,0,0,1,1.76,1.13l-.52.22a1.26,1.26,0,0,0-1.25-.8c-1.19,0-1.7,1.33-1.66,2.51a1.79,1.79,0,0,1,1.54-.81A1.9,1.9,0,0,1,20.89,28.15Zm-.6,0a1.35,1.35,0,0,0-1.39-1.36,1.38,1.38,0,1,0-.08,2.74A1.39,1.39,0,0,0,20.29,28.15Z"/><path d="M22,27.05c0-1.69.44-3.05,2.11-3.05s2.1,1.36,2.1,3.05-.42,3-2.1,3S22,28.72,22,27.05Zm3.64,0c0-1.37-.3-2.5-1.53-2.5s-1.53,1.13-1.53,2.5.3,2.49,1.53,2.49S25.6,28.41,25.6,27.05Z"/><path d="M21,48.14a1.91,1.91,0,0,1-2,2,2.27,2.27,0,0,1-2.07-1.24l.48-.26a1.72,1.72,0,0,0,1.55.95,1.38,1.38,0,0,0,1.49-1.39A1.32,1.32,0,0,0,19,46.8a3.26,3.26,0,0,0-1.57.51l-.33-.3.52-2.93h3v.55h-2.5l-.39,2.07a2.77,2.77,0,0,1,1.4-.41A1.78,1.78,0,0,1,21,48.14Z"/><path d="M22,47.05c0-1.69.44-3,2.11-3s2.1,1.36,2.1,3-.42,3-2.1,3S22,48.72,22,47.05Zm3.64,0c0-1.37-.3-2.5-1.53-2.5s-1.54,1.13-1.54,2.5.31,2.49,1.54,2.49S25.6,48.41,25.6,47.05Z"/><path d="M21,68.75h-.88V70h-.58V68.75H16.48v-.14L20,64.08h.13V68.2H21Zm-1.46-.55V65.45L17.43,68.2Z"/><path d="M22,67.05c0-1.69.44-3,2.11-3s2.1,1.36,2.1,3-.42,3-2.1,3S22,68.72,22,67.05Zm3.64,0c0-1.37-.3-2.5-1.53-2.5s-1.54,1.13-1.54,2.5.31,2.49,1.54,2.49S25.6,68.41,25.6,67.05Z"/><path d="M20.89,88.32a1.84,1.84,0,0,1-2.06,1.76A2,2,0,0,1,17,88.9l.48-.26a1.53,1.53,0,0,0,1.38.89c.85,0,1.5-.48,1.5-1.2A1.25,1.25,0,0,0,19,87.08h-.6v-.5h.57a1,1,0,0,0,1.08-1,1,1,0,0,0-1.16-1,1.43,1.43,0,0,0-1.16.62l-.41-.32A1.88,1.88,0,0,1,18.86,84a1.56,1.56,0,0,1,1.73,1.55,1.35,1.35,0,0,1-.79,1.26A1.53,1.53,0,0,1,20.89,88.32Z"/><path d="M22,87.05c0-1.69.44-3,2.11-3s2.1,1.36,2.1,3-.42,3-2.1,3S22,88.72,22,87.05Zm3.64,0c0-1.37-.3-2.5-1.53-2.5s-1.54,1.13-1.54,2.5.31,2.49,1.54,2.49S25.6,88.41,25.6,87.05Z"/><path d="M20.9,109.44V110H17.31v-.24l2.34-2.82a2.3,2.3,0,0,0,.6-1.25A1.12,1.12,0,0,0,19,104.55a1.19,1.19,0,0,0-1.26.92l-.51-.12A1.66,1.66,0,0,1,19,104a1.65,1.65,0,0,1,1.79,1.69,2.56,2.56,0,0,1-.67,1.51l-1.88,2.24Z"/><path d="M22,107.05c0-1.69.44-3,2.11-3s2.1,1.36,2.1,3-.42,3-2.1,3S22,108.72,22,107.05Zm3.64,0c0-1.37-.3-2.5-1.53-2.5s-1.53,1.13-1.53,2.5.3,2.49,1.53,2.49S25.6,108.41,25.6,107.05Z"/><path d="M2.57,139.68A2.37,2.37,0,0,1,.16,137.3a2.3,2.3,0,0,1,.64-1.62l.45.49A1.67,1.67,0,0,0,.8,137.3,1.72,1.72,0,0,0,2.57,139a1.71,1.71,0,0,0,1.76-1.68,1.35,1.35,0,0,0-1.08-1.45l-.12,0v1.35h-.6v-2.12C4.2,135.06,5,136,5,137.3A2.38,2.38,0,0,1,2.57,139.68Z"/><path d="M4.27,131.34h.64v2.88H.21V131.4H.85v2.12H2.28v-1.84h.65v1.84H4.27Z"/><path d="M4.91,125.68l-3.41.42,2.89,1.4v.6L1.5,129.51l3.41.42v.69l-4.7-.57v-.63l3.38-1.62L.21,126.19v-.63l4.7-.57Z"/><path d="M.21,124v-.7h4.7v.7Z"/><path d="M.21,122v-1.83a2.13,2.13,0,0,1,2.36-2.13,2.12,2.12,0,0,1,2.34,2.13V122Zm4.06-1.83c0-.94-.74-1.43-1.7-1.43s-1.72.49-1.72,1.43v1.13H4.27Z"/><path d="M.21,117.07v-1.83a2.13,2.13,0,0,1,2.36-2.12,2.12,2.12,0,0,1,2.34,2.12v1.83Zm4.06-1.83c0-.94-.74-1.42-1.7-1.42s-1.72.48-1.72,1.42v1.13H4.27Z"/><path d="M4.27,109.26h.64v2.88H.21v-2.82H.85v2.12H2.28v-1.85h.65v1.85H4.27Z"/><path d="M.21,108.27v-.7H4.27v-1.89h.64v2.59Z"/><path d="M.21,104.9v-1.83A2.13,2.13,0,0,1,2.57,101a2.12,2.12,0,0,1,2.34,2.12v1.83Zm4.06-1.83c0-.94-.74-1.42-1.7-1.42s-1.72.48-1.72,1.42v1.13H4.27Z"/><path d="M4.27,97.09h.64V100H.21V97.15H.85v2.12H2.28V97.42h.65v1.85H4.27Z"/><path d="M2.57,94.72A2.39,2.39,0,0,1,.16,92.33,2.31,2.31,0,0,1,1,90.52l.41.52a1.65,1.65,0,0,0-.6,1.28A1.71,1.71,0,0,0,2.57,94a1.71,1.71,0,0,0,1.75-1.7A1.68,1.68,0,0,0,3.72,91l.41-.52A2.31,2.31,0,0,1,5,92.33,2.39,2.39,0,0,1,2.57,94.72Z"/><path d="M2.57,90.06a2.38,2.38,0,1,1,0-4.76,2.38,2.38,0,1,1,0,4.76Zm0-4.06a1.68,1.68,0,1,0,0,3.35,1.68,1.68,0,1,0,0-3.35Z"/><path d="M.21,80.92h4.7v.66l-3.42,2H4.91v.71H.21v-.69l3.4-2H.21Z"/><path d="M2.57,80A2.39,2.39,0,0,1,.16,77.57,2.27,2.27,0,0,1,1,75.77l.41.51a1.65,1.65,0,0,0-.6,1.29,1.71,1.71,0,0,0,1.75,1.69,1.71,1.71,0,0,0,1.75-1.69,1.69,1.69,0,0,0-.6-1.29l.41-.51A2.27,2.27,0,0,1,5,77.57,2.39,2.39,0,0,1,2.57,80Z"/><path d="M4.27,72h.64v2.88H.21V72.1H.85v2.12H2.28V72.37h.65v1.85H4.27Z"/><path d="M.21,67.64h4.7v.66l-3.42,2H4.91v.7H.21v-.68l3.4-2H.21Z"/><path d="M.85,63.36v1.4H4.91v.7H.85v1.4H.21v-3.5Z"/><path d="M3.16,61.35v.54H4.91v.7H.21V60.8A1.38,1.38,0,0,1,1.7,59.35a1.34,1.34,0,0,1,1.44,1.21l1.77-1.25v.84Zm-.62.54V61c0-.65-.34-.92-.84-.92a.77.77,0,0,0-.85.75v1.09Z"/><path d="M3.72,55.85V57.8l1.19.43V59L.21,57.19v-.75l4.7-1.77v.73Zm-.61.22-2,.75,2,.75Z"/><path d="M.85,51.43v1.4H4.91v.7H.85v1.4H.21v-3.5Z"/><path d="M.21,50.66V50h4.7v.7Z"/><path d="M4.27,45.81h.64v2.88H.21V45.87H.85V48H2.28V46.14h.65V48H4.27Z"/><path d="M.21,39.71h4.7v.66L1.49,42.42H4.91v.7H.21v-.68l3.4-2H.21Z"/><path d="M2.69,38.67c-1.27,0-2.3-.33-2.3-1.62s1-1.62,2.3-1.62S5,35.77,5,37.05,4,38.67,2.69,38.67Zm0-2.57c-.9,0-1.66.19-1.66.95s.76,1,1.66,1,1.65-.19,1.65-1S3.59,36.1,2.69,36.1Z"/><path d="M6.81,33.16h.37v1.67H7l-1.19-1a.93.93,0,0,0-.49-.26.39.39,0,0,0-.4.44.43.43,0,0,0,.39.47l-.07.35a.83.83,0,0,1,.08-1.65,1.13,1.13,0,0,1,.67.3l.82.68Z"/><path d="M.21,29.48v-.63l4.7,2.31v.63Z"/><path d="M4.91,23.37l-3.41.42,2.89,1.4v.6L1.5,27.2l3.41.42v.69l-4.7-.57v-.63l3.38-1.62L.21,23.88v-.63l4.7-.57Z"/><path d="M1.88,20.43a.81.81,0,0,1,.79.91.92.92,0,0,1-.53.85L2,21.88a.62.62,0,0,0,.35-.52c0-.31-.18-.54-.43-.54a.48.48,0,0,0-.47.53v.27H1.09v-.23c0-.27-.16-.45-.38-.44a.35.35,0,0,0-.34.39.56.56,0,0,0,.24.45l-.23.26A.88.88,0,0,1,0,21.32a.7.7,0,0,1,.7-.77.59.59,0,0,1,.54.33A.65.65,0,0,1,1.88,20.43Z"/><line class="cls-7" x1="146.75" y1="89.2" x2="148.25" y2="89.2"/><line class="cls-8" x1="150.58" y1="89.2" x2="154.08" y2="89.2"/><line class="cls-7" x1="155.25" y1="89.2" x2="156.75" y2="89.2"/><path d="M108.46,187.55l.39.4-2.54,2.54-.17-.17-.34-3.65a2.33,2.33,0,0,0-.46-1.31,1.1,1.1,0,0,0-1.65,0,1.17,1.17,0,0,0-.24,1.54l-.46.27a1.66,1.66,0,0,1,.31-2.2,1.65,1.65,0,0,1,2.45-.07,2.57,2.57,0,0,1,.6,1.54l.25,2.92Z"/><path d="M111,183.39a1.85,1.85,0,0,1-.21,2.71,2,2,0,0,1-2.16.49l.15-.52a1.55,1.55,0,0,0,1.61-.35,1.33,1.33,0,0,0,.21-1.91,1.26,1.26,0,0,0-1.84.07l-.42.43L108,184l.41-.4a1,1,0,0,0,0-1.49,1,1,0,0,0-1.53.11,1.41,1.41,0,0,0-.39,1.26l-.52.06a1.88,1.88,0,0,1,.52-1.71,1.55,1.55,0,0,1,2.32-.13,1.34,1.34,0,0,1,.33,1.45A1.52,1.52,0,0,1,111,183.39Z"/><path d="M111,181.69l2.14-2.14.39.39-2.14,2.14Z"/><path d="M112.83,175.49l4.24,4.24-.4.4L113,176.49l-.53,1.3-.4-.4.7-1.88Z"/><path d="M115,173.36l4.24,4.24-.4.4-3.63-3.64-.52,1.3-.4-.4.7-1.88Z"/><path d="M118.27,174.41l2.14-2.14.39.39-2.14,2.14Z"/><path d="M125.27,170.74l.39.4-2.54,2.54-.17-.18-.34-3.64a2.2,2.2,0,0,0-.45-1.31,1.11,1.11,0,0,0-1.66,0,1.18,1.18,0,0,0-.24,1.54l-.45.27a1.81,1.81,0,0,1,2.75-2.27,2.55,2.55,0,0,1,.6,1.54l.26,2.91Z"/><path d="M124.33,168.3c-1.19-1.19-1.84-2.47-.66-3.65s2.45-.52,3.64.67,1.85,2.45.66,3.63S125.51,169.48,124.33,168.3Zm2.57-2.58c-1-1-2-1.55-2.84-.68s-.29,1.88.67,2.85,2,1.55,2.85.68S127.87,166.68,126.9,165.72Z"/><path d="M132.27,163.74l.4.4-2.55,2.54-.17-.18-.33-3.64a2.33,2.33,0,0,0-.46-1.32,1.12,1.12,0,0,0-1.66.06,1.19,1.19,0,0,0-.24,1.54l-.45.27a1.66,1.66,0,0,1,.3-2.2,1.64,1.64,0,0,1,2.45-.07,2.55,2.55,0,0,1,.6,1.54l.26,2.91Z"/><path d="M131.33,161.3c-1.19-1.19-1.84-2.47-.66-3.65s2.45-.52,3.64.67,1.85,2.45.66,3.63S132.51,162.48,131.33,161.3Zm2.57-2.58c-1-1-2-1.55-2.84-.68s-.29,1.88.67,2.85,2,1.55,2.85.68S134.87,159.68,133.9,158.72Z"/><path d="M139.58,186.43l.39.4-2.54,2.54-.17-.17-.34-3.65a2.26,2.26,0,0,0-.46-1.31,1.1,1.1,0,0,0-1.65,0,1.17,1.17,0,0,0-.24,1.54l-.45.27a1.81,1.81,0,0,1,2.75-2.27,2.57,2.57,0,0,1,.6,1.54l.25,2.92Z"/><path d="M139.19,179.24l0,0,1.87,6.42-.48.48-1.71-5.89-2.08,2.08-.39-.38Z"/><path d="M141.61,181.07l2.14-2.14.39.4L142,181.46Z"/><path d="M148.71,176.32l-.62.62.89.88-.41.41-.89-.88-2.19,2.19-.09-.1-.7-5.72.09-.08,2.91,2.91.63-.62Zm-1.41.64-2-1.94.43,3.45Z"/><path d="M148.27,174.41l2.14-2.14.39.39-2.14,2.14Z"/><path d="M155.27,170.74l.4.4-2.55,2.54-.17-.18-.33-3.64a2.27,2.27,0,0,0-.46-1.31,1.11,1.11,0,0,0-1.66,0,1.19,1.19,0,0,0-.24,1.54l-.45.27a1.66,1.66,0,0,1,.3-2.2,1.64,1.64,0,0,1,2.45-.07,2.49,2.49,0,0,1,.6,1.54l.26,2.91Z"/><path d="M154.33,168.3c-1.19-1.19-1.84-2.47-.66-3.65s2.45-.52,3.64.67,1.85,2.45.66,3.63S155.51,169.48,154.33,168.3Zm2.58-2.58c-1-1-2-1.55-2.85-.68s-.29,1.88.67,2.85,2,1.55,2.86.68S157.87,166.68,156.91,165.72Z"/><path d="M162.27,163.74l.4.4-2.55,2.54-.17-.18-.33-3.64a2.33,2.33,0,0,0-.46-1.32,1.12,1.12,0,0,0-1.66.06,1.19,1.19,0,0,0-.24,1.54l-.45.27a1.66,1.66,0,0,1,.3-2.2,1.64,1.64,0,0,1,2.45-.07,2.49,2.49,0,0,1,.6,1.54l.26,2.91Z"/><path d="M161.33,161.3c-1.19-1.19-1.84-2.47-.66-3.65s2.45-.52,3.64.67,1.85,2.45.66,3.63S162.51,162.48,161.33,161.3Zm2.58-2.58c-1-1-2-1.55-2.85-.68s-.29,1.88.67,2.85,2,1.55,2.86.67S164.87,159.68,163.91,158.72Z"/><line class="cls-7" x1="66.75" y1="105.3" x2="68.25" y2="105.3"/><line class="cls-8" x1="70.58" y1="105.3" x2="74.08" y2="105.3"/><line class="cls-7" x1="75.25" y1="105.3" x2="76.75" y2="105.3"/><path d="M28.46,187.55l.39.4-2.54,2.54-.17-.17-.34-3.65a2.33,2.33,0,0,0-.46-1.31,1.1,1.1,0,0,0-1.65,0,1.17,1.17,0,0,0-.24,1.54l-.45.27A1.81,1.81,0,0,1,25.75,185a2.57,2.57,0,0,1,.6,1.54l.26,2.92Z"/><path d="M31,183.39a1.85,1.85,0,0,1-.21,2.71,2,2,0,0,1-2.16.49l.15-.52a1.55,1.55,0,0,0,1.61-.35,1.33,1.33,0,0,0,.21-1.91,1.26,1.26,0,0,0-1.84.07l-.42.43L28,184l.41-.4a1,1,0,0,0,0-1.49,1,1,0,0,0-1.53.11,1.37,1.37,0,0,0-.38,1.26l-.53.06a1.86,1.86,0,0,1,.53-1.71,1.54,1.54,0,0,1,2.31-.13,1.34,1.34,0,0,1,.33,1.45A1.52,1.52,0,0,1,31,183.39Z"/><path d="M31,181.69l2.14-2.14.39.39-2.14,2.14Z"/><path d="M32.83,175.49l4.24,4.24-.4.4L33,176.49l-.52,1.3-.41-.4.7-1.88Z"/><path d="M35,173.36l4.25,4.24-.41.4-3.63-3.64-.52,1.3-.4-.4.7-1.88Z"/><path d="M38.27,174.41l2.14-2.14.39.39-2.14,2.14Z"/><path d="M45.27,170.74l.4.4-2.55,2.54L43,173.5l-.33-3.64a2.27,2.27,0,0,0-.46-1.31,1.11,1.11,0,0,0-1.66,0,1.19,1.19,0,0,0-.24,1.54l-.45.27a1.66,1.66,0,0,1,.3-2.2,1.64,1.64,0,0,1,2.45-.07,2.49,2.49,0,0,1,.6,1.54l.26,2.91Z"/><path d="M44.33,168.3c-1.19-1.19-1.84-2.47-.66-3.65s2.45-.52,3.64.67,1.85,2.45.66,3.63S45.51,169.48,44.33,168.3Zm2.58-2.58c-1-1-2-1.55-2.85-.68s-.29,1.88.67,2.85,2,1.55,2.86.68S47.87,166.68,46.91,165.72Z"/><path d="M52.27,163.74l.4.4-2.55,2.54L50,166.5l-.33-3.64a2.33,2.33,0,0,0-.46-1.32,1.12,1.12,0,0,0-1.66.06,1.19,1.19,0,0,0-.24,1.54l-.45.27a1.66,1.66,0,0,1,.3-2.2,1.64,1.64,0,0,1,2.45-.07,2.49,2.49,0,0,1,.6,1.54l.26,2.91Z"/><path d="M51.33,161.3c-1.19-1.19-1.84-2.47-.66-3.65s2.45-.52,3.64.67,1.85,2.45.66,3.63S52.51,162.48,51.33,161.3Zm2.58-2.58c-1-1-2-1.55-2.85-.68s-.29,1.88.67,2.85,2,1.55,2.86.68S54.87,159.68,53.91,158.72Z"/><path d="M56.26,182.06l4.24,4.24-.4.4-3.64-3.63-.52,1.3-.4-.41.7-1.88Z"/><path d="M58.39,179.93l4.24,4.24-.4.4-3.64-3.63-.52,1.29-.4-.4.7-1.88Z"/><path d="M61.69,181l2.14-2.14.4.4-2.14,2.14Z"/><path d="M68.23,175.93a1.92,1.92,0,0,1-.06,2.82,2.24,2.24,0,0,1-2.33.58l.15-.52a1.71,1.71,0,0,0,1.77-.42,1.39,1.39,0,0,0,.07-2,1.32,1.32,0,0,0-2,.05,3.22,3.22,0,0,0-.75,1.46l-.45,0L63,175.44l2.1-2.1.39.39L63.7,175.5l1.19,1.74a2.78,2.78,0,0,1,.7-1.27A1.77,1.77,0,0,1,68.23,175.93Z"/><path d="M68.27,174.41l2.14-2.14.39.39-2.14,2.14Z"/><path d="M75.27,170.74l.39.4-2.54,2.54L73,173.5l-.34-3.64a2.2,2.2,0,0,0-.45-1.31,1.11,1.11,0,0,0-1.66,0,1.18,1.18,0,0,0-.24,1.54l-.45.27a1.81,1.81,0,0,1,2.75-2.27,2.55,2.55,0,0,1,.6,1.54l.26,2.91Z"/><path d="M74.33,168.3c-1.19-1.19-1.84-2.47-.66-3.65s2.45-.52,3.64.67,1.85,2.45.66,3.63S75.51,169.48,74.33,168.3Zm2.57-2.58c-1-1-2-1.55-2.84-.68s-.29,1.88.67,2.85,2,1.55,2.85.68S77.87,166.68,76.9,165.72Z"/><path d="M82.27,163.74l.4.4-2.55,2.54L80,166.5l-.33-3.64a2.33,2.33,0,0,0-.46-1.32,1.12,1.12,0,0,0-1.66.06,1.19,1.19,0,0,0-.24,1.54l-.45.27a1.66,1.66,0,0,1,.3-2.2,1.64,1.64,0,0,1,2.45-.07,2.55,2.55,0,0,1,.6,1.54l.26,2.91Z"/><path d="M81.33,161.3c-1.19-1.19-1.84-2.47-.66-3.65s2.45-.52,3.64.67,1.85,2.45.66,3.63S82.51,162.48,81.33,161.3Zm2.57-2.58c-1-1-2-1.55-2.84-.68s-.29,1.88.67,2.85,2,1.55,2.86.67S84.87,159.68,83.9,158.72Z"/><line class="cls-7" x1="306.75" y1="104.6" x2="308.25" y2="104.6"/><line class="cls-8" x1="310.58" y1="104.6" x2="314.08" y2="104.6"/><line class="cls-7" x1="315.25" y1="104.6" x2="316.75" y2="104.6"/><path d="M268.46,187.55l.39.4-2.54,2.54-.17-.17-.34-3.65a2.33,2.33,0,0,0-.46-1.31,1.1,1.1,0,0,0-1.65,0,1.17,1.17,0,0,0-.24,1.54l-.46.27a1.66,1.66,0,0,1,.31-2.2,1.65,1.65,0,0,1,2.45-.07,2.57,2.57,0,0,1,.6,1.54l.25,2.92Z"/><path d="M271,183.39a1.85,1.85,0,0,1-.21,2.71,2,2,0,0,1-2.16.49l.15-.52a1.55,1.55,0,0,0,1.61-.35,1.33,1.33,0,0,0,.21-1.91,1.26,1.26,0,0,0-1.84.07l-.42.43L268,184l.41-.4a1,1,0,0,0,0-1.49,1,1,0,0,0-1.53.11,1.41,1.41,0,0,0-.39,1.26l-.52.06a1.88,1.88,0,0,1,.52-1.71,1.55,1.55,0,0,1,2.32-.13,1.34,1.34,0,0,1,.33,1.45A1.52,1.52,0,0,1,271,183.39Z"/><path d="M271,181.69l2.14-2.14.39.39-2.14,2.14Z"/><path d="M272.83,175.49l4.24,4.24-.4.4L273,176.49l-.53,1.3-.4-.4.7-1.88Z"/><path d="M275,173.36l4.24,4.24-.4.4-3.63-3.64-.52,1.3-.4-.4.7-1.88Z"/><path d="M278.27,174.41l2.14-2.14.39.39-2.14,2.14Z"/><path d="M285.27,170.74l.39.4-2.54,2.54-.17-.18-.34-3.64a2.2,2.2,0,0,0-.45-1.31,1.11,1.11,0,0,0-1.66,0,1.18,1.18,0,0,0-.24,1.54l-.45.27a1.81,1.81,0,0,1,2.75-2.27,2.55,2.55,0,0,1,.6,1.54l.26,2.91Z"/><path d="M284.33,168.3c-1.19-1.19-1.84-2.47-.66-3.65s2.45-.52,3.64.67,1.85,2.45.66,3.63S285.51,169.48,284.33,168.3Zm2.57-2.58c-1-1-2-1.55-2.84-.68s-.29,1.88.67,2.85,2,1.55,2.85.68S287.87,166.68,286.9,165.72Z"/><path d="M292.27,163.74l.4.4-2.55,2.54-.17-.18-.33-3.64a2.33,2.33,0,0,0-.46-1.32,1.12,1.12,0,0,0-1.66.06,1.19,1.19,0,0,0-.24,1.54l-.45.27a1.66,1.66,0,0,1,.3-2.2,1.64,1.64,0,0,1,2.45-.07,2.55,2.55,0,0,1,.6,1.54l.26,2.91Z"/><path d="M291.33,161.3c-1.19-1.19-1.84-2.47-.66-3.65s2.45-.52,3.64.67,1.85,2.45.66,3.63S292.51,162.48,291.33,161.3Zm2.57-2.58c-1-1-2-1.55-2.84-.68s-.29,1.88.67,2.85,2,1.55,2.85.68S294.87,159.68,293.9,158.72Z"/><path d="M299.58,186.43l.39.4-2.54,2.54-.17-.17-.34-3.65a2.33,2.33,0,0,0-.46-1.31,1.1,1.1,0,0,0-1.65,0,1.17,1.17,0,0,0-.24,1.54l-.46.27a1.66,1.66,0,0,1,.31-2.2,1.65,1.65,0,0,1,2.45-.07,2.57,2.57,0,0,1,.6,1.54l.25,2.92Z"/><path d="M299.19,179.24l0,0,1.87,6.42-.48.48-1.71-5.89-2.08,2.08-.39-.38Z"/><path d="M301.6,181.07l2.15-2.14.39.4L302,181.46Z"/><path d="M308.71,176.32l-.62.62.89.88-.41.41-.89-.88-2.19,2.19-.09-.1-.7-5.72.09-.08,2.91,2.91.63-.62Zm-1.41.64L305.35,175l.43,3.45Z"/><path d="M308.27,174.41l2.14-2.14.39.39-2.14,2.14Z"/><path d="M315.27,170.74l.4.4-2.55,2.54-.17-.18-.34-3.64a2.2,2.2,0,0,0-.45-1.31,1.11,1.11,0,0,0-1.66,0,1.18,1.18,0,0,0-.24,1.54l-.45.27a1.66,1.66,0,0,1,.3-2.2,1.64,1.64,0,0,1,2.45-.07,2.49,2.49,0,0,1,.6,1.54l.26,2.91Z"/><path d="M314.33,168.3c-1.19-1.19-1.84-2.47-.66-3.65s2.45-.52,3.64.67,1.85,2.45.66,3.63S315.51,169.48,314.33,168.3Zm2.58-2.58c-1-1-2-1.55-2.85-.68s-.29,1.88.67,2.85,2,1.55,2.85.68S317.87,166.68,316.91,165.72Z"/><path d="M322.27,163.74l.4.4-2.55,2.54-.17-.18-.33-3.64a2.33,2.33,0,0,0-.46-1.32,1.12,1.12,0,0,0-1.66.06,1.19,1.19,0,0,0-.24,1.54l-.45.27a1.66,1.66,0,0,1,.3-2.2,1.64,1.64,0,0,1,2.45-.07,2.49,2.49,0,0,1,.6,1.54l.26,2.91Z"/><path d="M321.33,161.3c-1.19-1.19-1.84-2.47-.66-3.65s2.45-.52,3.64.67,1.85,2.45.66,3.63S322.51,162.48,321.33,161.3Zm2.58-2.58c-1-1-2-1.55-2.85-.68s-.29,1.88.67,2.85,2,1.55,2.86.67S324.87,159.68,323.91,158.72Z"/><line class="cls-7" x1="226.75" y1="93.3" x2="228.25" y2="93.3"/><line class="cls-8" x1="230.58" y1="93.3" x2="234.08" y2="93.3"/><line class="cls-7" x1="235.25" y1="93.3" x2="236.75" y2="93.3"/><path d="M188.46,187.55l.39.4-2.54,2.54-.17-.17-.34-3.65a2.33,2.33,0,0,0-.46-1.31,1.1,1.1,0,0,0-1.65,0,1.17,1.17,0,0,0-.24,1.54l-.45.27a1.81,1.81,0,0,1,2.75-2.27,2.57,2.57,0,0,1,.6,1.54l.25,2.92Z"/><path d="M191,183.39a1.85,1.85,0,0,1-.21,2.71,2,2,0,0,1-2.16.49l.15-.52a1.55,1.55,0,0,0,1.61-.35,1.33,1.33,0,0,0,.21-1.91,1.26,1.26,0,0,0-1.84.07l-.42.43L188,184l.41-.4a1,1,0,0,0,0-1.49,1,1,0,0,0-1.53.11,1.37,1.37,0,0,0-.38,1.26l-.53.06a1.86,1.86,0,0,1,.53-1.71,1.54,1.54,0,0,1,2.31-.13,1.34,1.34,0,0,1,.33,1.45A1.52,1.52,0,0,1,191,183.39Z"/><path d="M191,181.69l2.14-2.14.39.39-2.14,2.14Z"/><path d="M192.83,175.49l4.24,4.24-.4.4L193,176.49l-.53,1.3-.4-.4.7-1.88Z"/><path d="M195,173.36l4.24,4.24-.4.4-3.63-3.64-.52,1.3-.4-.4.7-1.88Z"/><path d="M198.27,174.41l2.14-2.14.39.39-2.14,2.14Z"/><path d="M205.27,170.74l.4.4-2.55,2.54-.17-.18-.34-3.64a2.2,2.2,0,0,0-.45-1.31,1.11,1.11,0,0,0-1.66,0,1.18,1.18,0,0,0-.24,1.54l-.45.27a1.66,1.66,0,0,1,.3-2.2,1.64,1.64,0,0,1,2.45-.07,2.49,2.49,0,0,1,.6,1.54l.26,2.91Z"/><path d="M204.33,168.3c-1.19-1.19-1.84-2.47-.66-3.65s2.45-.52,3.64.67,1.85,2.45.66,3.63S205.51,169.48,204.33,168.3Zm2.58-2.58c-1-1-2-1.55-2.85-.68s-.29,1.88.67,2.85,2,1.55,2.85.68S207.87,166.68,206.91,165.72Z"/><path d="M212.27,163.74l.4.4-2.55,2.54-.17-.18-.33-3.64a2.33,2.33,0,0,0-.46-1.32,1.12,1.12,0,0,0-1.66.06,1.19,1.19,0,0,0-.24,1.54l-.45.27a1.66,1.66,0,0,1,.3-2.2,1.64,1.64,0,0,1,2.45-.07,2.49,2.49,0,0,1,.6,1.54l.26,2.91Z"/><path d="M211.33,161.3c-1.19-1.19-1.84-2.47-.66-3.65s2.45-.52,3.64.67,1.85,2.45.66,3.63S212.51,162.48,211.33,161.3Zm2.58-2.58c-1-1-2-1.55-2.85-.68s-.29,1.88.67,2.85,2,1.55,2.85.68S214.87,159.68,213.91,158.72Z"/><path d="M214.93,183.39l4.24,4.24-.4.4-3.64-3.63-.52,1.3-.4-.4.7-1.89Z"/><path d="M221.64,182.78a1.83,1.83,0,0,1-.21,2.7,2,2,0,0,1-2.15.49l.15-.52a1.53,1.53,0,0,0,1.6-.34,1.32,1.32,0,0,0,.22-1.91,1.25,1.25,0,0,0-1.84.07l-.43.42-.35-.35.4-.41a1,1,0,0,0,.05-1.49,1,1,0,0,0-1.54.11,1.4,1.4,0,0,0-.38,1.26l-.52.07a1.86,1.86,0,0,1,.52-1.72,1.57,1.57,0,0,1,2.32-.13,1.36,1.36,0,0,1,.33,1.45A1.51,1.51,0,0,1,221.64,182.78Z"/><path d="M221.6,181.07l2.14-2.14.4.4L222,181.47Z"/><path d="M228.71,176.32l-.62.62.89.88-.41.41-.89-.88-2.19,2.19-.09-.1-.7-5.72.09-.08,2.91,2.91.63-.62Zm-1.42.64L225.35,175l.43,3.45Z"/><path d="M228.27,174.41l2.14-2.14.39.39-2.14,2.14Z"/><path d="M235.27,170.74l.39.4-2.54,2.54-.17-.18-.34-3.64a2.2,2.2,0,0,0-.45-1.31,1.11,1.11,0,0,0-1.66,0,1.18,1.18,0,0,0-.24,1.54l-.45.27a1.81,1.81,0,0,1,2.75-2.27,2.55,2.55,0,0,1,.6,1.54l.26,2.91Z"/><path d="M234.33,168.3c-1.19-1.19-1.84-2.47-.66-3.65s2.44-.52,3.63.67,1.86,2.45.67,3.63S235.51,169.48,234.33,168.3Zm2.57-2.58c-1-1-2-1.55-2.84-.68s-.29,1.88.67,2.85,2,1.55,2.85.68S237.87,166.68,236.9,165.72Z"/><path d="M242.27,163.74l.39.4-2.54,2.54-.17-.18-.34-3.64a2.2,2.2,0,0,0-.45-1.31,1.11,1.11,0,0,0-1.66,0,1.18,1.18,0,0,0-.24,1.54l-.45.27a1.81,1.81,0,0,1,2.75-2.27,2.55,2.55,0,0,1,.6,1.54l.26,2.91Z"/><path d="M241.33,161.3c-1.19-1.19-1.84-2.47-.66-3.65s2.45-.52,3.64.67,1.85,2.45.66,3.63S242.51,162.48,241.33,161.3Zm2.57-2.58c-1-1-2-1.55-2.84-.68s-.29,1.88.67,2.85,2,1.55,2.85.68S244.87,159.68,243.9,158.72Z"/><path class="cls-9" d="M85.86,130l-.3-2.5-1,2.12h-.44l-1-2.12-.31,2.5h-.51l.42-3.45h.46L84.31,129l1.18-2.48H86l.42,3.45Z"/><path class="cls-9" d="M87.11,126.55h.51V130h-.51Z"/><path class="cls-9" d="M91.06,126.55V130h-.49l-1.5-2.51V130h-.52v-3.45h.5L90.54,129v-2.49Z"/><path class="cls-9" d="M165.86,130l-.3-2.5-1,2.12h-.44l-1-2.12-.31,2.5h-.51l.42-3.45h.46l1.19,2.48,1.18-2.48H166l.42,3.45Z"/><path class="cls-9" d="M167.11,126.55h.51V130h-.51Z"/><path class="cls-9" d="M171.06,126.55V130h-.49l-1.5-2.51V130h-.52v-3.45h.5l1.49,2.49v-2.49Z"/><path class="cls-9" d="M245.86,130l-.3-2.5-1,2.12h-.44l-1-2.12-.31,2.5h-.51l.42-3.45h.46l1.19,2.48,1.18-2.48H246l.42,3.45Z"/><path class="cls-9" d="M247.11,126.55h.51V130h-.51Z"/><path class="cls-9" d="M251.06,126.55V130h-.49l-1.5-2.51V130h-.52v-3.45h.5l1.49,2.49v-2.49Z"/><path class="cls-9" d="M325.86,140l-.3-2.5-1,2.12h-.44l-1-2.12-.31,2.5h-.51l.42-3.45h.46l1.19,2.48,1.18-2.48H326l.42,3.45Z"/><path class="cls-9" d="M327.11,136.55h.51V140h-.51Z"/><path class="cls-9" d="M331.06,136.55V140h-.49l-1.5-2.51V140h-.52v-3.45h.5l1.49,2.49v-2.49Z"/><path d="M55.22,60l-.31-2.5-1,2.12h-.44l-1-2.12L52.1,60h-.51L52,56.55h.46L53.66,59l1.19-2.48h.46L55.73,60Z"/><path d="M58.29,59.13H56.86l-.32.87H56l1.3-3.45h.56L59.16,60h-.54Zm-.17-.45-.55-1.49L57,58.68Z"/><path d="M61.6,60l-.9-1.43L59.8,60h-.61l1.2-1.85-1.08-1.6h.62l.77,1.18.77-1.18h.61L61,58.15,62.21,60Z"/><path d="M215.22,50l-.31-2.5-1,2.12h-.44l-1-2.12L212.1,50h-.51l.42-3.45h.46L213.66,49l1.19-2.48h.46l.42,3.45Z"/><path d="M218.29,49.13h-1.43l-.32.87H216l1.3-3.45h.56l1.3,3.45h-.54Zm-.17-.45-.55-1.49L217,48.68Z"/><path d="M221.6,50l-.9-1.43L219.8,50h-.61l1.2-1.85-1.08-1.6h.62l.77,1.18.77-1.18h.61L221,48.15,222.21,50Z"/><path d="M295.22,50l-.31-2.5-1,2.12h-.44l-1-2.12L292.1,50h-.51l.42-3.45h.46L293.66,49l1.19-2.48h.46l.42,3.45Z"/><path d="M298.29,49.13h-1.43l-.32.87H296l1.3-3.45h.56l1.3,3.45h-.54Zm-.17-.45-.55-1.49L297,48.68Z"/><path d="M301.6,50l-.9-1.43L299.8,50h-.61l1.2-1.85-1.08-1.6h.62l.77,1.18.77-1.18h.61L301,48.15,302.21,50Z"/><path d="M135.22,10l-.31-2.5-1,2.12h-.44l-1-2.12L132.1,10h-.51L132,6.55h.46L133.66,9l1.19-2.48h.46l.42,3.45Z"/><path d="M138.29,9.13h-1.43l-.32.87H136l1.3-3.45h.56l1.3,3.45h-.54Zm-.17-.45-.55-1.49L137,8.68Z"/><path d="M141.6,10l-.9-1.43L139.8,10h-.61l1.2-1.85-1.08-1.6h.62l.77,1.18.77-1.18h.61L141,8.15,142.21,10Z"/></g></g></svg>