<svg width="10" height="24" viewBox="0 0 10 24" fill="none" xmlns="http://www.w3.org/2000/svg">
<path d="M5.02616 4.29133C5.99896 4.29133 6.79018 3.44473 6.79018 2.40384C6.79018 1.35831 5.99896 0.511719 5.02616 0.511719C4.04903 0.511719 3.25781 1.35831 3.25781 2.39921C3.25781 3.44473 4.04903 4.29133 5.02616 4.29133Z" fill="#00CCD9"/>
<path d="M3.14363 4.70776C1.89411 4.70776 0.886719 5.79955 0.886719 7.15965V12.9609C0.886719 14.0897 2.43024 14.0897 2.43024 12.9609V7.65466H2.79342V22.1763C2.79342 23.6845 4.84712 23.6382 4.84712 22.1763V13.7474H5.20166V22.1763C5.20166 23.6382 7.26833 23.6845 7.26833 22.1763V7.65466H7.62287V12.9563C7.62287 14.0943 9.15774 14.0943 9.15341 12.9563V7.19204C9.15341 5.93833 8.24114 4.70776 6.87056 4.70776H3.14363Z" fill="#00CCD9"/>
</svg>
