<svg width="10" height="24" viewBox="0 0 10 24" fill="none" xmlns="http://www.w3.org/2000/svg">
<g clip-path="url(#clip0)">
<path d="M5.0814 4.24805C6.09963 4.24805 6.9278 3.41115 6.9278 2.38217C6.9278 1.34862 6.09963 0.511719 5.0814 0.511719C4.05863 0.511719 3.23047 1.34862 3.23047 2.3776C3.23047 3.41115 4.05863 4.24805 5.0814 4.24805Z" fill="#625098"/>
<path d="M3.10059 4.65967C1.79272 4.65967 0.738281 5.73895 0.738281 7.08348V12.8183C0.738281 13.9342 2.35388 13.9342 2.35388 12.8183V7.57282H2.73402V21.9282C2.73402 23.4191 4.88363 23.3733 4.88363 21.9282V13.5958H5.25472V21.9282C5.25472 23.3733 7.41791 23.4191 7.41791 21.9282V7.57282H7.789V12.8137C7.789 13.9388 9.39555 13.9388 9.39103 12.8137V7.11549C9.39103 5.87615 8.43615 4.65967 7.00156 4.65967H3.10059Z" fill="#625098"/>
</g>
<defs>
<clipPath id="clip0">
<rect width="8.65274" height="22.5186" fill="white" transform="translate(0.738281 0.511719)"/>
</clipPath>
</defs>
</svg>
