<svg xmlns="http://www.w3.org/2000/svg" viewBox="0 0 43.32 119.35"><defs><style>.cls-1{fill:#f27b88;}</style></defs><g id="Layer_2" data-name="Layer 2"><g id="Layer_1-2" data-name="Layer 1"><path class="cls-1" d="M21.72,19.8c5.1,0,9.24-4.43,9.24-9.89S26.82,0,21.72,0s-9.26,4.44-9.26,9.89S16.6,19.8,21.72,19.8Z"/><path class="cls-1" d="M11.83,22C5.28,22,0,27.71,0,34.83v30.4c0,5.92,8.09,5.92,8.09,0V37.43H10v76.09c0,7.9,10.76,7.66,10.76,0V69.35h1.86v44.17c0,7.66,10.83,7.9,10.83,0V37.43H35.3V65.21c0,6,8,6,8,0V35c0-6.57-4.78-13-12-13Z"/></g></g></svg>