<svg xmlns="http://www.w3.org/2000/svg" xmlns:xlink="http://www.w3.org/1999/xlink" viewBox="0 0 46.84 121.88"><defs><style>.cls-1{fill:none;}.cls-2{clip-path:url(#clip-path);}.cls-3{fill:#76b7ce;}</style><clipPath id="clip-path"><rect class="cls-1" width="46.84" height="121.89"/></clipPath></defs><g id="Layer_2" data-name="Layer 2"><g id="Layer_1-2" data-name="Layer 1"><g class="cls-2"><path class="cls-3" d="M23.52,20.22a10.06,10.06,0,0,0,10-10.1,10,10,0,1,0-10,10.1Z"/><path class="cls-3" d="M12.79,22.45A12.93,12.93,0,0,0,0,35.57v31a4.38,4.38,0,1,0,8.75,0V38.22H10.8v77.7c0,8.07,11.64,7.83,11.64,0V70.82h2v45.1c0,7.83,11.71,8.07,11.71,0V38.22h2V66.59a4.35,4.35,0,1,0,8.68,0V35.75c0-6.71-5.17-13.3-12.94-13.3Z"/></g></g></g></svg>