<svg width="10" height="24" viewBox="0 0 10 24" fill="none" xmlns="http://www.w3.org/2000/svg">
<path d="M5.251 4.17472C6.28519 4.17472 7.12632 3.32472 7.12632 2.27963C7.12632 1.22989 6.28519 0.379883 5.251 0.379883C4.21223 0.379883 3.37109 1.22989 3.37109 2.27498C3.37109 3.32472 4.21223 4.17472 5.251 4.17472Z" fill="#FF978D"/>
<path d="M3.24305 4.59326C1.9147 4.59326 0.84375 5.68945 0.84375 7.05503V12.8797C0.84375 14.013 2.48465 14.013 2.48465 12.8797V7.55203H2.87074V22.1322C2.87074 23.6464 5.05402 23.6 5.05402 22.1322V13.6693H5.43092V22.1322C5.43092 23.6 7.62798 23.6464 7.62798 22.1322V7.55203H8.00488V12.875C8.00488 14.0177 9.63659 14.0177 9.63199 12.875V7.08754C9.63199 5.82879 8.66216 4.59326 7.20511 4.59326H3.24305Z" fill="#FF978D"/>
</svg>
