<svg width="9" height="24" viewBox="0 0 9 24" fill="none" xmlns="http://www.w3.org/2000/svg">
<g clip-path="url(#clip0)">
<path d="M4.59162 4.21797C5.56176 4.21797 6.3508 3.3737 6.3508 2.33566C6.3508 1.293 5.56176 0.44873 4.59162 0.44873C3.61717 0.44873 2.82812 1.293 2.82812 2.33105C2.82812 3.3737 3.61717 4.21797 4.59162 4.21797Z" fill="#00AA8D"/>
<path d="M2.70385 4.6333C1.45776 4.6333 0.453125 5.72209 0.453125 7.07847V12.8638C0.453125 13.9895 1.99241 13.9895 1.99241 12.8638V7.57211H2.3546V22.0539C2.3546 23.558 4.40267 23.5118 4.40267 22.0539V13.6481H4.75623V22.0539C4.75623 23.5118 6.81723 23.558 6.81723 22.0539V7.57211H7.1708V12.8592C7.1708 13.9941 8.70146 13.9941 8.69715 12.8592V7.11076C8.69715 5.8605 7.78737 4.6333 6.42056 4.6333H2.70385Z" fill="#00AA8D"/>
</g>
<defs>
<clipPath id="clip0">
<rect width="8.24402" height="22.717" fill="white" transform="translate(0.453125 0.44873)"/>
</clipPath>
</defs>
</svg>
