<svg xmlns="http://www.w3.org/2000/svg" xmlns:xlink="http://www.w3.org/1999/xlink" viewBox="0 0 45.38 118.09"><defs><style>.cls-1{fill:none;}.cls-2{clip-path:url(#clip-path);}.cls-3{fill:#1f3b62;}</style><clipPath id="clip-path"><rect class="cls-1" width="45.38" height="118.1"/></clipPath></defs><g id="Layer_2" data-name="Layer 2"><g id="Layer_1-2" data-name="Layer 1"><g class="cls-2"><path class="cls-3" d="M22.78,19.6a9.74,9.74,0,0,0,9.68-9.79,9.7,9.7,0,1,0-9.68,9.79Z"/><path class="cls-3" d="M12.39,21.75A12.53,12.53,0,0,0,0,34.47V64.54a4.24,4.24,0,1,0,8.47,0V37h2v75.29c0,7.82,11.27,7.58,11.27,0V68.62h2v43.7c0,7.58,11.34,7.82,11.34,0V37H37V64.52a4.21,4.21,0,1,0,8.4,0V34.63c0-6.5-5-12.88-12.53-12.88Z"/></g></g></g></svg>