<svg width="79" height="91" viewBox="0 0 79 91" fill="none" xmlns="http://www.w3.org/2000/svg">
<path d="M39.4601 35.0501C40.3209 35.0521 41.1629 34.7986 41.8796 34.3218C42.5962 33.8451 43.1553 33.1664 43.4861 32.3717C43.8169 31.577 43.9045 30.7021 43.7378 29.8576C43.571 29.0131 43.1575 28.2371 42.5496 27.6277C41.9416 27.0184 41.1665 26.6031 40.3224 26.4344C39.4784 26.2658 38.6032 26.3513 37.8078 26.6803C37.0123 27.0092 36.3324 27.5668 35.8539 28.2823C35.3755 28.9979 35.1201 29.8393 35.1201 30.7001C35.1201 31.8521 35.577 32.957 36.3907 33.7725C37.2043 34.588 38.3082 35.0474 39.4601 35.0501Z" fill="#1F3B62"/>
<path d="M34.8101 36C34.0752 36.0026 33.3482 36.1506 32.6707 36.4354C31.9933 36.7203 31.379 37.1363 30.8631 37.6597C30.3472 38.183 29.94 38.8032 29.6648 39.4846C29.3897 40.1661 29.2522 40.8952 29.2601 41.63V55C29.2601 55.2495 29.3092 55.4966 29.4047 55.7271C29.5002 55.9576 29.6402 56.1671 29.8166 56.3435C29.993 56.5199 30.2025 56.6599 30.433 56.7554C30.6635 56.8509 30.9106 56.9 31.1601 56.9C31.4096 56.9 31.6567 56.8509 31.8872 56.7554C32.1177 56.6599 32.3272 56.5199 32.5036 56.3435C32.68 56.1671 32.82 55.9576 32.9155 55.7271C33.0109 55.4966 33.0601 55.2495 33.0601 55V42.79H34.0001V76.18C33.944 76.5408 33.9667 76.9094 34.0666 77.2606C34.1665 77.6117 34.3412 77.9371 34.5787 78.2144C34.8162 78.4916 35.1109 78.7142 35.4426 78.8668C35.7742 79.0194 36.135 79.0985 36.5001 79.0985C36.8652 79.0985 37.2259 79.0194 37.5576 78.8668C37.8893 78.7142 38.184 78.4916 38.4215 78.2144C38.659 77.9371 38.8337 77.6117 38.9336 77.2606C39.0335 76.9094 39.0561 76.5408 39.0001 76.18V56.8H39.8701V76.18C39.8701 76.8537 40.1377 77.4997 40.614 77.9761C41.0904 78.4524 41.7364 78.72 42.4101 78.72C43.0837 78.72 43.7298 78.4524 44.2061 77.9761C44.6825 77.4997 44.9501 76.8537 44.9501 76.18V42.79H45.8301V55C45.8112 55.2591 45.8459 55.5193 45.9321 55.7643C46.0183 56.0094 46.1541 56.2341 46.3309 56.4243C46.5078 56.6146 46.722 56.7663 46.9602 56.8701C47.1983 56.9738 47.4553 57.0274 47.7151 57.0274C47.9749 57.0274 48.2318 56.9738 48.47 56.8701C48.7082 56.7663 48.9224 56.6146 49.0992 56.4243C49.2761 56.2341 49.4119 56.0094 49.4981 55.7643C49.5842 55.5193 49.619 55.2591 49.6001 55V41.72C49.608 40.9767 49.4694 40.2391 49.1923 39.5494C48.9151 38.8597 48.5049 38.2313 47.9848 37.7001C47.4648 37.169 46.8453 36.7454 46.1616 36.4537C45.4779 36.162 44.7434 36.0078 44.0001 36H34.8101Z" fill="#1F3B62"/>
<path d="M77.3699 39.44L69.1399 31.21" stroke="#1F3B62" stroke-width="3" stroke-linecap="round" stroke-linejoin="round"/>
<path d="M9.7 31.24L1.5 39.44" stroke="#1F3B62" stroke-width="3" stroke-linecap="round" stroke-linejoin="round"/>
<path d="M69.1399 31.21V89.4H9.69995V31.24L10.4 30.54L39.43 1.5L68.47 30.54L69.1399 31.21Z" stroke="#1F3B62" stroke-width="3" stroke-linecap="round" stroke-linejoin="round"/>
</svg>
