<svg width="220" height="160" viewBox="0 0 220 160" fill="none" xmlns="http://www.w3.org/2000/svg">
<path d="M34.5962 126.137L87.9031 32.7993L187.249 64.3957" stroke="white" stroke-opacity="0.4" stroke-width="10"/>
<path d="M186.783 97.8809C205.128 97.8809 220 82.9691 220 64.5745C220 46.1799 205.128 31.2681 186.783 31.2681C168.437 31.2681 153.565 46.1799 153.565 64.5745C153.565 82.9691 168.437 97.8809 186.783 97.8809Z" fill="white"/>
<path d="M86.2176 66.6129C104.563 66.6129 119.435 51.7011 119.435 33.3064C119.435 14.9118 104.563 0 86.2176 0C67.872 0 53 14.9118 53 33.3064C53 51.7011 67.872 66.6129 86.2176 66.6129Z" fill="white"/>
<path d="M33.2176 160C51.5632 160 66.4353 145.088 66.4353 126.694C66.4353 108.299 51.5632 93.3872 33.2176 93.3872C14.872 93.3872 0 108.299 0 126.694C0 145.088 14.872 160 33.2176 160Z" fill="white"/>
</svg>
