<svg width="83" height="77" viewBox="0 0 83 77" fill="none" xmlns="http://www.w3.org/2000/svg">
<path d="M20.29 45.84C20.3667 45.885 20.4292 45.9509 20.47 46.03C20.4911 46.0719 20.5021 46.1181 20.5021 46.165C20.5021 46.2119 20.4911 46.2581 20.47 46.3L19.24 48C19.2226 48.0336 19.1985 48.0633 19.1693 48.0874C19.1401 48.1115 19.1063 48.1294 19.07 48.14C18.992 48.1451 18.9145 48.124 18.85 48.08C18.6171 47.9026 18.3571 47.7642 18.08 47.67C17.7924 47.5774 17.4921 47.5302 17.19 47.53C16.6485 47.5267 16.1193 47.6913 15.6752 48.0011C15.2311 48.3109 14.8939 48.7507 14.71 49.26C14.5718 49.61 14.5039 49.9838 14.51 50.36C14.5039 50.733 14.5719 51.1035 14.71 51.45C14.8329 51.78 15.0199 52.0824 15.2601 52.3398C15.5004 52.5973 15.7892 52.8046 16.11 52.95C16.7446 53.2217 17.4579 53.2467 18.11 53.02C18.3893 52.9237 18.6523 52.7855 18.89 52.61C18.9504 52.5652 19.025 52.5439 19.1 52.55C19.1359 52.5584 19.1697 52.5743 19.199 52.5967C19.2283 52.6191 19.2525 52.6475 19.27 52.68L20.49 54.43C20.5137 54.471 20.5261 54.5176 20.5261 54.565C20.5261 54.6124 20.5137 54.6589 20.49 54.7C20.4551 54.775 20.3949 54.8352 20.32 54.87C19.4112 55.4871 18.3385 55.818 17.24 55.82C16.7497 55.8202 16.2618 55.7529 15.79 55.62C15.3296 55.4993 14.8885 55.3141 14.48 55.07C14.0776 54.8361 13.7078 54.5503 13.38 54.22C13.0526 53.8896 12.7671 53.5201 12.53 53.12C12.2883 52.7137 12.1032 52.2764 11.98 51.82C11.7267 50.8699 11.7267 49.8701 11.98 48.92C12.2312 48.0066 12.7134 47.1732 13.38 46.5C13.7078 46.1697 14.0776 45.8839 14.48 45.65C14.8906 45.41 15.3311 45.225 15.79 45.1C16.7924 44.8075 17.8575 44.8075 18.86 45.1C19.3692 45.2779 19.8506 45.527 20.29 45.84V45.84Z" fill="#1F3B62"/>
<path d="M22 45.38C22.0007 45.2967 22.0288 45.2158 22.08 45.15C22.1116 45.1193 22.1493 45.0954 22.1906 45.0799C22.2319 45.0645 22.276 45.0577 22.32 45.06H24.43C24.4708 45.0598 24.5112 45.0677 24.549 45.0831C24.5867 45.0985 24.6211 45.1213 24.65 45.15C24.6859 45.1763 24.7147 45.2111 24.7339 45.2512C24.753 45.2913 24.762 45.3356 24.76 45.38V53.14H28.7C28.7408 53.1398 28.7812 53.1477 28.819 53.1631C28.8567 53.1785 28.8911 53.2013 28.92 53.23C28.9505 53.2598 28.9742 53.2957 28.9898 53.3353C29.0053 53.375 29.0122 53.4175 29.01 53.46V55.34C29.0094 55.4204 28.9811 55.498 28.93 55.56C28.9012 55.5931 28.866 55.62 28.8264 55.6389C28.7869 55.6578 28.7438 55.6684 28.7 55.67H22.32C22.2777 55.6769 22.2344 55.6737 22.1937 55.6605C22.1529 55.6474 22.1158 55.6248 22.0855 55.5945C22.0553 55.5642 22.0326 55.5271 22.0195 55.4864C22.0063 55.4456 22.0031 55.4023 22.01 55.36L22 45.38Z" fill="#1F3B62"/>
<path d="M29.87 50.3799C29.8665 49.8901 29.9305 49.4022 30.06 48.9299C30.3113 48.0164 30.7934 47.183 31.46 46.5099C31.7893 46.177 32.1628 45.891 32.57 45.6599C33.1969 45.2899 33.8921 45.0504 34.6138 44.9559C35.3356 44.8614 36.069 44.9137 36.77 45.1099C37.2295 45.2331 37.6702 45.4181 38.08 45.6599C38.9149 46.1339 39.606 46.825 40.08 47.6599C40.32 48.0705 40.5049 48.511 40.63 48.9699C40.8965 49.9182 40.8965 50.9216 40.63 51.8699C40.5067 52.3262 40.3217 52.7636 40.08 53.1699C39.8461 53.5722 39.5603 53.942 39.23 54.2699C38.9007 54.6027 38.5272 54.8887 38.12 55.1199C37.7123 55.3658 37.271 55.551 36.81 55.6699C36.3381 55.8028 35.8502 55.8701 35.36 55.8699C34.8698 55.8693 34.382 55.802 33.91 55.6699C33.4528 55.5489 33.0152 55.3638 32.61 55.1199C32.2028 54.8887 31.8293 54.6027 31.5 54.2699C31.1726 53.9395 30.8871 53.57 30.65 53.1699C30.4083 52.7636 30.2233 52.3262 30.1 51.8699C29.9533 51.3866 29.8758 50.8849 29.87 50.3799V50.3799ZM32.63 50.3799C32.6278 50.759 32.6956 51.1353 32.83 51.4899C32.9574 51.8229 33.1475 52.1284 33.39 52.3899C33.63 52.6426 33.9193 52.8434 34.24 52.9799C34.7418 53.1921 35.2957 53.2494 35.8303 53.1442C36.365 53.0391 36.8559 52.7764 37.24 52.3899C37.4786 52.1255 37.6682 51.8207 37.8 51.4899C38.0669 50.7774 38.0669 49.9924 37.8 49.2799C37.6713 48.9475 37.4813 48.6422 37.24 48.3799C36.9973 48.1208 36.7048 47.9133 36.38 47.7699C35.8786 47.5472 35.3202 47.4863 34.7826 47.5956C34.2449 47.705 33.7547 47.9791 33.38 48.3799C33.1353 48.6396 32.9449 48.9456 32.82 49.2799C32.692 49.6289 32.6277 49.9981 32.63 50.3699V50.3799Z" fill="#1F3B62"/>
<path d="M43.4201 52.24L43.7301 52.51C43.8694 52.6295 44.0163 52.7397 44.1701 52.84C44.3948 52.9937 44.6364 53.1211 44.8901 53.22C45.1288 53.3144 45.3834 53.3619 45.6401 53.36C45.847 53.3649 46.0533 53.3345 46.2501 53.27C46.3917 53.2313 46.522 53.1593 46.6301 53.06C46.7266 52.9733 46.7989 52.8631 46.8401 52.74C46.8802 52.6208 46.9004 52.4958 46.9001 52.37C46.8974 52.2197 46.8364 52.0763 46.7301 51.97C46.6105 51.8458 46.4722 51.7412 46.3201 51.66C46.1578 51.5673 45.987 51.4903 45.8101 51.43L45.3601 51.27C44.8442 51.092 44.3427 50.8747 43.8601 50.62C43.4678 50.4169 43.1073 50.1575 42.7901 49.85C42.514 49.5882 42.296 49.2714 42.1501 48.92C41.9976 48.5596 41.9226 48.1712 41.9301 47.78C41.9257 47.3613 42.0181 46.9472 42.2001 46.57C42.3783 46.2084 42.6386 45.8934 42.9601 45.65C43.3184 45.3758 43.7256 45.1722 44.1601 45.05C44.667 44.9042 45.1926 44.8334 45.7201 44.84C46.1517 44.8396 46.5818 44.8934 47.0001 45C47.4079 45.1035 47.801 45.2581 48.1701 45.46L48.6301 45.76C48.7642 45.8501 48.8913 45.9504 49.0101 46.06C49.1093 46.137 49.1969 46.2279 49.2701 46.33C49.3285 46.3892 49.3639 46.4671 49.3701 46.55C49.3687 46.6101 49.3515 46.6688 49.3201 46.72C49.2813 46.7858 49.2342 46.8463 49.1801 46.9L48.0901 48.06C48.0599 48.0948 48.0232 48.1233 47.982 48.1439C47.9408 48.1645 47.896 48.1768 47.8501 48.18C47.786 48.1853 47.7222 48.1676 47.6701 48.13C47.6053 48.0861 47.545 48.0358 47.4901 47.98H47.4201C47.3192 47.8896 47.2122 47.806 47.1001 47.73C46.9867 47.6383 46.8624 47.5611 46.7301 47.5C46.5955 47.428 46.455 47.3678 46.3101 47.32C46.1633 47.2805 46.012 47.2603 45.8601 47.26C45.7138 47.2438 45.5663 47.2438 45.4201 47.26C45.2904 47.2771 45.165 47.3177 45.0501 47.38C44.9489 47.4347 44.8629 47.5137 44.8001 47.61C44.7383 47.7127 44.7057 47.8302 44.7057 47.95C44.7057 48.0698 44.7383 48.1873 44.8001 48.29C44.8807 48.3995 44.9827 48.4913 45.1001 48.56C45.2552 48.6558 45.4193 48.7362 45.5901 48.8L46.2801 49.04C46.7901 49.2 47.2801 49.38 47.6801 49.56C48.0758 49.7233 48.4462 49.9421 48.7801 50.21C49.0843 50.455 49.3332 50.7617 49.5101 51.11C49.6923 51.5045 49.7813 51.9356 49.7701 52.37C49.7757 52.8618 49.6661 53.3482 49.4501 53.79C49.2368 54.2142 48.933 54.5863 48.5601 54.88C48.1683 55.1891 47.7248 55.4262 47.2501 55.58C46.7222 55.7429 46.1725 55.8239 45.6201 55.82C45.0655 55.8185 44.516 55.7134 44.0001 55.51C43.4722 55.3173 42.974 55.0514 42.5201 54.72C42.3481 54.6018 42.1874 54.4679 42.0401 54.32C41.9101 54.18 41.8001 54.08 41.7301 53.99C41.6434 53.9144 41.5838 53.8126 41.5601 53.7C41.579 53.5912 41.6401 53.4942 41.7301 53.43L42.9601 52.25C43.031 52.1899 43.1178 52.1517 43.2101 52.14C43.2531 52.1326 43.297 52.1326 43.3401 52.14L43.4201 52.24Z" fill="#1F3B62"/>
<path d="M51.45 45.4C51.4477 45.3559 51.4544 45.3119 51.4699 45.2706C51.4854 45.2293 51.5093 45.1916 51.54 45.16C51.5694 45.129 51.6052 45.1048 51.645 45.0893C51.6847 45.0737 51.7274 45.0671 51.77 45.07H58.85C58.8941 45.0676 58.9381 45.0744 58.9794 45.0899C59.0207 45.1054 59.0584 45.1293 59.09 45.16C59.1517 45.2282 59.184 45.3181 59.18 45.41V47.18C59.1772 47.2647 59.1455 47.3459 59.09 47.41C59.0595 47.4462 59.0211 47.4749 58.9778 47.494C58.9344 47.5131 58.8873 47.522 58.84 47.52H54.22V49.29H57.78C57.8609 49.2868 57.941 49.3077 58.01 49.35C58.0421 49.3763 58.0671 49.4102 58.0828 49.4486C58.0985 49.487 58.1044 49.5287 58.1 49.57V51.11C58.0975 51.181 58.0691 51.2486 58.02 51.3C57.9907 51.331 57.9548 51.3551 57.9151 51.3707C57.8753 51.3863 57.8326 51.3928 57.79 51.39H54.22V53.22H59C59.22 53.22 59.32 53.33 59.32 53.55V55.34C59.3338 55.3822 59.3338 55.4277 59.32 55.47C59.32 55.6 59.2 55.67 59.02 55.67H51.77C51.6861 55.6726 51.6042 55.6441 51.54 55.59C51.5078 55.5616 51.4828 55.5259 51.4672 55.4859C51.4515 55.4459 51.4456 55.4027 51.45 55.36V45.4Z" fill="#1F3B62"/>
<path d="M70.2699 50.3801C70.2685 50.8662 70.2046 51.3502 70.0799 51.8201C69.8292 52.7128 69.342 53.5212 68.6699 54.1601C68.343 54.4802 67.9727 54.7529 67.5699 54.9701C67.1604 55.1979 66.7236 55.3726 66.2699 55.4901C65.7962 55.6114 65.309 55.6719 64.8199 55.6701H61.2999C61.2193 55.6706 61.14 55.6499 61.0699 55.6101C61.0344 55.5817 61.0066 55.5449 60.9892 55.5029C60.9717 55.461 60.9651 55.4153 60.9699 55.3701V45.3701C60.968 45.2785 61 45.1894 61.0599 45.1201C61.0908 45.0883 61.1283 45.0637 61.1698 45.0482C61.2113 45.0326 61.2558 45.0264 61.2999 45.0301H64.8199C65.3097 45.0272 65.7975 45.0912 66.2699 45.2201C66.7243 45.3401 67.1612 45.5182 67.5699 45.7501C67.9714 45.9733 68.3413 46.2491 68.6699 46.5701C69.0021 46.8851 69.2882 47.2453 69.5199 47.6401C69.7685 48.0642 69.9538 48.5224 70.0699 49.0001C70.1989 49.4489 70.2661 49.9131 70.2699 50.3801V50.3801ZM63.7399 47.6201V53.1101H64.6599H64.9699C65.3158 53.0819 65.6542 52.9939 65.9699 52.8501C66.2697 52.7063 66.5434 52.5136 66.7799 52.2801C67.0096 52.0391 67.1926 51.7577 67.3199 51.4501C67.4589 51.1178 67.527 50.7602 67.5199 50.4001C67.5253 50.022 67.4503 49.647 67.2999 49.3001C67.1556 48.9729 66.9483 48.6773 66.6899 48.4301C66.4296 48.1788 66.1196 47.9847 65.7799 47.8601C65.4306 47.7185 65.0568 47.6472 64.6799 47.6501L63.7399 47.6201Z" fill="#1F3B62"/>
<path d="M80.53 27.6001H1.5V74.7101H80.53V27.6001Z" stroke="#1F3B62" stroke-width="3" stroke-linejoin="round"/>
<path d="M17.91 28.05L40.96 4.98999L64.13 28.16" stroke="#1F3B62" stroke-width="3" stroke-linejoin="round"/>
<path d="M41.02 9.76C43.7152 9.76 45.9 7.57515 45.9 4.88C45.9 2.18485 43.7152 0 41.02 0C38.3249 0 36.14 2.18485 36.14 4.88C36.14 7.57515 38.3249 9.76 41.02 9.76Z" fill="#1F3B62"/>
</svg>
