<svg width="79" height="91" viewBox="0 0 79 91" fill="none" xmlns="http://www.w3.org/2000/svg">
<path d="M77.37 39.44L69.14 31.21" stroke="#1F3B62" stroke-width="3" stroke-linecap="round" stroke-linejoin="round"/>
<path d="M9.7 31.2402L1.5 39.4402" stroke="#1F3B62" stroke-width="3" stroke-linecap="round" stroke-linejoin="round"/>
<path d="M69.14 31.21V89.4H9.70001V31.24L10.4 30.54L39.43 1.5L68.47 30.54L69.14 31.21Z" stroke="#1F3B62" stroke-width="3" stroke-linecap="round" stroke-linejoin="round"/>
<path d="M47.2201 42.1998C47.8578 42.1998 48.4811 42.0104 49.0111 41.6557C49.541 41.301 49.9537 40.7969 50.1968 40.2073C50.4399 39.6178 50.5025 38.9693 50.3766 38.3442C50.2508 37.719 49.9421 37.1453 49.4898 36.6958C49.0375 36.2463 48.4618 35.9412 47.8359 35.8192C47.21 35.6972 46.5619 35.7639 45.9739 36.0107C45.3859 36.2574 44.8844 36.6733 44.533 37.2054C44.1816 37.7376 43.9961 38.3621 44.0001 38.9998C44.0014 39.4213 44.0857 39.8385 44.2482 40.2274C44.4108 40.6164 44.6483 40.9695 44.9473 41.2667C45.2463 41.5638 45.6009 41.7991 45.9909 41.9593C46.3808 42.1194 46.7985 42.2011 47.2201 42.1998V42.1998Z" fill="#1F3B62"/>
<path d="M43.78 42.9102C43.236 42.9128 42.6978 43.0228 42.1964 43.2341C41.695 43.4453 41.2403 43.7535 40.8584 44.141C40.4765 44.5285 40.1749 44.9876 39.971 45.492C39.767 45.9964 39.6648 46.5361 39.67 47.0802V57.0002C39.6536 57.1946 39.6777 57.3904 39.7409 57.5751C39.8041 57.7597 39.9049 57.9293 40.0369 58.0729C40.169 58.2166 40.3294 58.3313 40.5081 58.4098C40.6868 58.4883 40.8799 58.5288 41.075 58.5288C41.2702 58.5288 41.4632 58.4883 41.6419 58.4098C41.8206 58.3313 41.9811 58.2166 42.1132 58.0729C42.2452 57.9293 42.346 57.7597 42.4092 57.5751C42.4723 57.3904 42.4965 57.1946 42.48 57.0002V48.0002H43.14V72.7002C43.14 73.1961 43.3371 73.6718 43.6878 74.0224C44.0384 74.3731 44.5141 74.5702 45.01 74.5702C45.506 74.5702 45.9816 74.3731 46.3323 74.0224C46.683 73.6718 46.88 73.1961 46.88 72.7002V58.2902H47.53V72.6302C47.53 73.1288 47.7281 73.6069 48.0807 73.9595C48.4332 74.3121 48.9114 74.5102 49.41 74.5102C49.9086 74.5102 50.3868 74.3121 50.7394 73.9595C51.092 73.6069 51.29 73.1288 51.29 72.6302V47.9302H51.94V56.9302C51.94 57.2988 52.0865 57.6524 52.3472 57.913C52.6078 58.1737 52.9614 58.3202 53.33 58.3202C53.6987 58.3202 54.0522 58.1737 54.3129 57.913C54.5736 57.6524 54.72 57.2988 54.72 56.9302V47.1402C54.7266 46.5896 54.6244 46.0431 54.4192 45.5321C54.2139 45.0211 53.9098 44.5558 53.5241 44.1627C53.1385 43.7696 52.679 43.4566 52.1721 43.2417C51.6651 43.0267 51.1207 42.9141 50.57 42.9102H43.78Z" fill="#1F3B62"/>
<path d="M59.49 51.8701H19.37C18.8564 51.8701 18.44 52.2865 18.44 52.8001V55.6001C18.44 56.1137 18.8564 56.5301 19.37 56.5301H59.49C60.0036 56.5301 60.42 56.1137 60.42 55.6001V52.8001C60.42 52.2865 60.0036 51.8701 59.49 51.8701Z" fill="#1F3B62"/>
<path d="M23.11 56.54H55.76V73.8C55.76 74.1713 55.6125 74.5274 55.3499 74.79C55.0874 75.0525 54.7313 75.2 54.36 75.2H24.51C24.1387 75.2 23.7826 75.0525 23.52 74.79C23.2575 74.5274 23.11 74.1713 23.11 73.8V56.54V56.54Z" fill="#1F3B62"/>
<path d="M30.91 48.48H29.36V52.31H30.91V48.48Z" fill="#1F3B62"/>
<path d="M38.5 37.3599H21.98C21.7204 37.3599 21.51 37.5703 21.51 37.8299V48.1099C21.51 48.3694 21.7204 48.5799 21.98 48.5799H38.5C38.7596 48.5799 38.97 48.3694 38.97 48.1099V37.8299C38.97 37.5703 38.7596 37.3599 38.5 37.3599Z" fill="#1F3B62"/>
<path d="M34.6899 51.2798H25.6899V52.4698H34.6899V51.2798Z" fill="#1F3B62"/>
</svg>
