<svg width="95" height="95" viewBox="0 0 95 95" fill="none" xmlns="http://www.w3.org/2000/svg">
<path d="M21.6401 52.68C22 52.68 22.3519 52.5733 22.6512 52.3733C22.9505 52.1733 23.1838 51.8891 23.3215 51.5565C23.4593 51.224 23.4953 50.858 23.4251 50.505C23.3549 50.1519 23.1815 49.8276 22.927 49.5731C22.6725 49.3186 22.3482 49.1452 21.9951 49.075C21.6421 49.0048 21.2761 49.0408 20.9436 49.1786C20.611 49.3163 20.3268 49.5496 20.1268 49.8489C19.9268 50.1482 19.8201 50.5001 19.8201 50.86C19.8201 51.3427 20.0118 51.8057 20.3531 52.147C20.6945 52.4883 21.1574 52.68 21.6401 52.68V52.68Z" fill="#1F3B62"/>
<path d="M19.6899 53.0801C19.3813 53.0827 19.0763 53.1461 18.7922 53.2666C18.508 53.3871 18.2504 53.5624 18.0341 53.7825C17.8177 54.0026 17.6468 54.2631 17.5312 54.5492C17.4155 54.8354 17.3573 55.1415 17.3599 55.4501V61.0001C17.3599 61.2176 17.4463 61.4261 17.6001 61.5799C17.7539 61.7337 17.9625 61.8201 18.1799 61.8201C18.3974 61.8201 18.606 61.7337 18.7598 61.5799C18.9136 61.4261 18.9999 61.2176 18.9999 61.0001V55.9301H19.3799V69.9301C19.3799 70.2112 19.4916 70.4808 19.6904 70.6796C19.8892 70.8784 20.1588 70.9901 20.4399 70.9901C20.7211 70.9901 20.9907 70.8784 21.1895 70.6796C21.3883 70.4808 21.4999 70.2112 21.4999 69.9301V61.8001H21.8599V69.9301C21.8455 70.0786 21.8624 70.2285 21.9093 70.3701C21.9563 70.5118 22.0324 70.642 22.1327 70.7525C22.233 70.863 22.3553 70.9513 22.4917 71.0118C22.6281 71.0722 22.7757 71.1034 22.9249 71.1034C23.0742 71.1034 23.2218 71.0722 23.3582 71.0118C23.4946 70.9513 23.6169 70.863 23.7172 70.7525C23.8175 70.642 23.8936 70.5118 23.9406 70.3701C23.9875 70.2285 24.0044 70.0786 23.9899 69.9301V55.9301H24.3599V61.0001C24.3599 61.1038 24.3804 61.2065 24.4201 61.3024C24.4598 61.3982 24.518 61.4853 24.5913 61.5587C24.6647 61.632 24.7518 61.6902 24.8476 61.7299C24.9435 61.7696 25.0462 61.7901 25.1499 61.7901C25.2537 61.7901 25.3564 61.7696 25.4523 61.7299C25.5481 61.6902 25.6352 61.632 25.7086 61.5587C25.7819 61.4853 25.8401 61.3982 25.8798 61.3024C25.9195 61.2065 25.9399 61.1038 25.9399 61.0001V55.4801C25.9426 55.1688 25.8839 54.8601 25.7672 54.5716C25.6505 54.283 25.4782 54.0203 25.26 53.7984C25.0417 53.5764 24.7819 53.3996 24.4954 53.2781C24.2089 53.1566 23.9012 53.0927 23.5899 53.0901L19.6899 53.0801Z" fill="#1F3B62"/>
<path d="M34.4401 52.68C34.8001 52.68 35.152 52.5733 35.4513 52.3733C35.7506 52.1733 35.9838 51.8891 36.1216 51.5565C36.2593 51.224 36.2954 50.858 36.2251 50.505C36.1549 50.1519 35.9816 49.8276 35.7271 49.5731C35.4725 49.3186 35.1482 49.1452 34.7952 49.075C34.4421 49.0048 34.0762 49.0408 33.7436 49.1786C33.4111 49.3163 33.1268 49.5496 32.9268 49.8489C32.7269 50.1482 32.6201 50.5001 32.6201 50.86C32.6201 51.3427 32.8119 51.8057 33.1532 52.147C33.4945 52.4883 33.9574 52.68 34.4401 52.68V52.68Z" fill="#1F3B62"/>
<path d="M32.49 53.0801C32.1814 53.0827 31.8763 53.1461 31.5922 53.2666C31.3081 53.3871 31.0505 53.5624 30.8342 53.7825C30.6178 54.0026 30.4469 54.2631 30.3312 54.5492C30.2156 54.8354 30.1574 55.1415 30.16 55.4501V61.0001C30.1475 61.112 30.1587 61.2252 30.1929 61.3325C30.2271 61.4398 30.2836 61.5386 30.3586 61.6226C30.4336 61.7065 30.5256 61.7737 30.6283 61.8196C30.7311 61.8656 30.8424 61.8894 30.955 61.8894C31.0676 61.8894 31.1789 61.8656 31.2817 61.8196C31.3845 61.7737 31.4764 61.7065 31.5515 61.6226C31.6265 61.5386 31.683 61.4398 31.7172 61.3325C31.7514 61.2252 31.7626 61.112 31.75 61.0001V55.9301H32.13V69.9301C32.13 70.2112 32.2417 70.4808 32.4405 70.6796C32.6393 70.8784 32.9089 70.9901 33.19 70.9901C33.4712 70.9901 33.7408 70.8784 33.9396 70.6796C34.1384 70.4808 34.25 70.2112 34.25 69.9301V61.8001H34.61V69.9301C34.5956 70.0786 34.6124 70.2285 34.6594 70.3701C34.7064 70.5118 34.7824 70.642 34.8827 70.7525C34.983 70.863 35.1053 70.9513 35.2418 71.0118C35.3782 71.0722 35.5258 71.1034 35.675 71.1034C35.8243 71.1034 35.9718 71.0722 36.1083 71.0118C36.2447 70.9513 36.367 70.863 36.4673 70.7525C36.5676 70.642 36.6437 70.5118 36.6907 70.3701C36.7376 70.2285 36.7544 70.0786 36.74 69.9301V55.9301H37.11V61.0001C37.11 61.1038 37.1305 61.2065 37.1702 61.3024C37.2099 61.3982 37.2681 61.4853 37.3414 61.5587C37.4148 61.632 37.5019 61.6902 37.5977 61.7299C37.6936 61.7696 37.7963 61.7901 37.9 61.7901C38.0038 61.7901 38.1065 61.7696 38.2023 61.7299C38.2982 61.6902 38.3853 61.632 38.4586 61.5587C38.532 61.4853 38.5902 61.3982 38.6299 61.3024C38.6696 61.2065 38.69 61.1038 38.69 61.0001V55.4801C38.6927 55.1688 38.634 54.8601 38.5173 54.5716C38.4006 54.283 38.2283 54.0203 38.01 53.7984C37.7918 53.5764 37.532 53.3996 37.2455 53.2781C36.9589 53.1566 36.6513 53.0927 36.34 53.0901L32.49 53.0801Z" fill="#1F3B62"/>
<path d="M47.2399 52.68C47.5994 52.678 47.9503 52.5696 48.2483 52.3684C48.5463 52.1673 48.778 51.8823 48.9142 51.5496C49.0504 51.2169 49.0851 50.8512 49.0137 50.4989C48.9424 50.1465 48.7682 49.8231 48.5133 49.5696C48.2584 49.3161 47.9341 49.1437 47.5813 49.0743C47.2285 49.0049 46.8631 49.0415 46.5311 49.1795C46.1992 49.3176 45.9155 49.5508 45.716 49.8499C45.5164 50.149 45.4099 50.5005 45.4099 50.86C45.4099 51.0999 45.4573 51.3373 45.5494 51.5588C45.6415 51.7803 45.7764 51.9814 45.9465 52.1505C46.1166 52.3196 46.3184 52.4535 46.5404 52.5444C46.7623 52.6352 47.0001 52.6813 47.2399 52.68V52.68Z" fill="#1F3B62"/>
<path d="M45.2901 53.0801C44.6738 53.0958 44.0884 53.353 43.66 53.7964C43.2317 54.2397 42.9947 54.8336 43.0001 55.4501V61.0001C42.9875 61.112 42.9987 61.2252 43.033 61.3325C43.0672 61.4398 43.1237 61.5386 43.1987 61.6226C43.2737 61.7065 43.3656 61.7737 43.4684 61.8196C43.5712 61.8656 43.6825 61.8894 43.7951 61.8894C43.9077 61.8894 44.019 61.8656 44.1218 61.8196C44.2246 61.7737 44.3165 61.7065 44.3915 61.6226C44.4666 61.5386 44.5231 61.4398 44.5573 61.3325C44.5915 61.2252 44.6027 61.112 44.5901 61.0001V55.9301H44.9701V69.9301C44.9701 70.0693 44.9975 70.2071 45.0508 70.3357C45.1041 70.4643 45.1822 70.5812 45.2806 70.6796C45.379 70.778 45.4959 70.8561 45.6245 70.9094C45.7531 70.9627 45.8909 70.9901 46.0301 70.9901C46.1693 70.9901 46.3072 70.9627 46.4358 70.9094C46.5644 70.8561 46.6812 70.778 46.7797 70.6796C46.8781 70.5812 46.9562 70.4643 47.0094 70.3357C47.0627 70.2071 47.0901 70.0693 47.0901 69.9301V61.8001H47.4501V69.9301C47.4357 70.0786 47.4525 70.2285 47.4995 70.3701C47.5465 70.5118 47.6225 70.642 47.7228 70.7525C47.8231 70.863 47.9454 70.9513 48.0819 71.0118C48.2183 71.0722 48.3659 71.1034 48.5151 71.1034C48.6643 71.1034 48.8119 71.0722 48.9484 71.0118C49.0848 70.9513 49.2071 70.863 49.3074 70.7525C49.4077 70.642 49.4838 70.5118 49.5307 70.3701C49.5777 70.2285 49.5945 70.0786 49.5801 69.9301V55.9301H49.9501V61.0001C49.9501 61.2096 50.0333 61.4105 50.1815 61.5587C50.3297 61.7068 50.5306 61.7901 50.7401 61.7901C50.9496 61.7901 51.1506 61.7068 51.2987 61.5587C51.4469 61.4105 51.5301 61.2096 51.5301 61.0001V55.4801C51.5328 55.168 51.4737 54.8585 51.3564 54.5693C51.2391 54.2801 51.0659 54.0169 50.8466 53.7948C50.6273 53.5728 50.3663 53.3962 50.0786 53.2753C49.7909 53.1543 49.4822 53.0914 49.1701 53.0901L45.2901 53.0801Z" fill="#1F3B62"/>
<path d="M59.9999 52.68C60.3599 52.68 60.7118 52.5733 61.0111 52.3733C61.3104 52.1733 61.5436 51.8891 61.6814 51.5565C61.8191 51.224 61.8552 50.858 61.785 50.505C61.7147 50.1519 61.5414 49.8276 61.2869 49.5731C61.0323 49.3186 60.708 49.1452 60.355 49.075C60.002 49.0048 59.636 49.0408 59.3034 49.1786C58.9709 49.3163 58.6866 49.5496 58.4867 49.8489C58.2867 50.1482 58.1799 50.5001 58.1799 50.86C58.1799 51.3427 58.3717 51.8057 58.713 52.147C59.0543 52.4883 59.5172 52.68 59.9999 52.68V52.68Z" fill="#1F3B62"/>
<path d="M58.0799 53.0801C57.7717 53.0827 57.4671 53.1461 57.1836 53.2668C56.9 53.3874 56.6431 53.5629 56.4275 53.7831C56.212 54.0033 56.042 54.2639 55.9274 54.55C55.8129 54.8361 55.7559 55.1419 55.7599 55.4501V61.0001C55.7473 61.112 55.7585 61.2252 55.7927 61.3325C55.8269 61.4398 55.8834 61.5386 55.9585 61.6226C56.0335 61.7065 56.1254 61.7737 56.2282 61.8196C56.331 61.8656 56.4423 61.8894 56.5549 61.8894C56.6675 61.8894 56.7788 61.8656 56.8816 61.8196C56.9844 61.7737 57.0763 61.7065 57.1513 61.6226C57.2263 61.5386 57.2828 61.4398 57.317 61.3325C57.3513 61.2252 57.3625 61.112 57.3499 61.0001V55.9301H57.7299V69.9301C57.7155 70.0773 57.7321 70.2258 57.7786 70.3662C57.8251 70.5065 57.9005 70.6356 57.9998 70.7452C58.0992 70.8547 58.2204 70.9422 58.3556 71.0021C58.4908 71.062 58.637 71.0929 58.7849 71.0929C58.9328 71.0929 59.079 71.062 59.2142 71.0021C59.3494 70.9422 59.4706 70.8547 59.5699 70.7452C59.6693 70.6356 59.7446 70.5065 59.7911 70.3662C59.8376 70.2258 59.8542 70.0773 59.8399 69.9301V61.8001H60.2099V69.9301C60.1955 70.0786 60.2123 70.2285 60.2593 70.3701C60.3062 70.5118 60.3823 70.642 60.4826 70.7525C60.5829 70.863 60.7052 70.9513 60.8416 71.0118C60.9781 71.0722 61.1257 71.1034 61.2749 71.1034C61.4241 71.1034 61.5717 71.0722 61.7081 71.0118C61.8446 70.9513 61.9669 70.863 62.0672 70.7525C62.1675 70.642 62.2435 70.5118 62.2905 70.3701C62.3375 70.2285 62.3543 70.0786 62.3399 69.9301V55.9301H62.7099V61.0001C62.7099 61.2096 62.7931 61.4105 62.9413 61.5587C63.0894 61.7068 63.2904 61.7901 63.4999 61.7901C63.7094 61.7901 63.9103 61.7068 64.0585 61.5587C64.2067 61.4105 64.2899 61.2096 64.2899 61.0001V55.4801C64.2925 55.168 64.2335 54.8585 64.1162 54.5693C63.9989 54.2801 63.8256 54.0169 63.6064 53.7948C63.3871 53.5728 63.1261 53.3962 62.8384 53.2753C62.5507 53.1543 62.242 53.0914 61.9299 53.0901L58.0799 53.0801Z" fill="#1F3B62"/>
<path d="M72.83 52.68C73.1895 52.678 73.5404 52.5696 73.8384 52.3684C74.1364 52.1673 74.3681 51.8823 74.5043 51.5496C74.6405 51.2169 74.6751 50.8512 74.6038 50.4989C74.5324 50.1465 74.3583 49.8231 74.1034 49.5696C73.8485 49.3161 73.5242 49.1437 73.1714 49.0743C72.8186 49.0049 72.4532 49.0415 72.1212 49.1795C71.7892 49.3176 71.5056 49.5508 71.306 49.8499C71.1065 50.149 71 50.5005 71 50.86C71 51.0999 71.0474 51.3373 71.1395 51.5588C71.2316 51.7803 71.3665 51.9814 71.5366 52.1505C71.7067 52.3196 71.9085 52.4535 72.1304 52.5444C72.3524 52.6352 72.5902 52.6813 72.83 52.68Z" fill="#1F3B62"/>
<path d="M70.8799 53.0801C70.5718 53.0827 70.2672 53.1461 69.9836 53.2668C69.7001 53.3874 69.4431 53.5629 69.2276 53.7831C69.012 54.0033 68.8421 54.2639 68.7275 54.55C68.6129 54.8361 68.556 55.1419 68.5599 55.4501V61.0001C68.5474 61.112 68.5586 61.2252 68.5928 61.3325C68.627 61.4398 68.6835 61.5386 68.7585 61.6226C68.8335 61.7065 68.9255 61.7737 69.0282 61.8196C69.131 61.8656 69.2423 61.8894 69.3549 61.8894C69.4675 61.8894 69.5789 61.8656 69.6816 61.8196C69.7844 61.7737 69.8763 61.7065 69.9514 61.6226C70.0264 61.5386 70.0829 61.4398 70.1171 61.3325C70.1513 61.2252 70.1625 61.112 70.1499 61.0001V55.9301H70.5199V69.9301C70.5199 70.2112 70.6316 70.4808 70.8304 70.6796C71.0292 70.8784 71.2988 70.9901 71.5799 70.9901C71.8611 70.9901 72.1307 70.8784 72.3295 70.6796C72.5283 70.4808 72.6399 70.2112 72.6399 69.9301V61.8001H72.9999V69.9301C72.9855 70.0786 73.0023 70.2285 73.0493 70.3701C73.0963 70.5118 73.1723 70.642 73.2726 70.7525C73.3729 70.863 73.4952 70.9513 73.6317 71.0118C73.7681 71.0722 73.9157 71.1034 74.0649 71.1034C74.2142 71.1034 74.3617 71.0722 74.4982 71.0118C74.6346 70.9513 74.7569 70.863 74.8572 70.7525C74.9575 70.642 75.0336 70.5118 75.0806 70.3701C75.1275 70.2285 75.1443 70.0786 75.1299 69.9301V55.9301H75.4999V61.0001C75.4999 61.2096 75.5832 61.4105 75.7313 61.5587C75.8795 61.7068 76.0804 61.7901 76.2899 61.7901C76.4995 61.7901 76.7004 61.7068 76.8486 61.5587C76.9967 61.4105 77.0799 61.2096 77.0799 61.0001V55.4801C77.0826 55.168 77.0235 54.8585 76.9062 54.5693C76.7889 54.2801 76.6157 54.0169 76.3964 53.7948C76.1771 53.5728 75.9162 53.3962 75.6285 53.2753C75.3408 53.1543 75.032 53.0914 74.7199 53.0901L70.8799 53.0801Z" fill="#1F3B62"/>
<path d="M21.6401 27.0799C22 27.0799 22.3519 26.9732 22.6512 26.7732C22.9505 26.5732 23.1838 26.289 23.3215 25.9564C23.4593 25.6239 23.4953 25.2579 23.4251 24.9049C23.3549 24.5518 23.1815 24.2275 22.927 23.973C22.6725 23.7185 22.3482 23.5451 21.9951 23.4749C21.6421 23.4047 21.2761 23.4407 20.9436 23.5785C20.611 23.7162 20.3268 23.9495 20.1268 24.2488C19.9268 24.5481 19.8201 24.9 19.8201 25.2599C19.8201 25.7426 20.0118 26.2056 20.3531 26.5469C20.6945 26.8882 21.1574 27.0799 21.6401 27.0799V27.0799Z" fill="#1F3B62"/>
<path d="M19.69 27.49C19.3818 27.4913 19.077 27.5534 18.7929 27.6729C18.5089 27.7923 18.2512 27.9667 18.0347 28.186C17.8182 28.4052 17.6472 28.6651 17.5314 28.9507C17.4156 29.2362 17.3573 29.5419 17.36 29.85V35.45C17.3474 35.5619 17.3586 35.6752 17.3928 35.7824C17.427 35.8897 17.4835 35.9885 17.5586 36.0725C17.6336 36.1564 17.7255 36.2236 17.8283 36.2695C17.9311 36.3155 18.0424 36.3393 18.155 36.3393C18.2676 36.3393 18.3789 36.3155 18.4817 36.2695C18.5844 36.2236 18.6764 36.1564 18.7514 36.0725C18.8264 35.9885 18.8829 35.8897 18.9171 35.7824C18.9514 35.6752 18.9625 35.5619 18.95 35.45V30.33H19.33V44.33C19.33 44.6111 19.4417 44.8807 19.6404 45.0795C19.8392 45.2783 20.1088 45.39 20.39 45.39C20.6711 45.39 20.9407 45.2783 21.1395 45.0795C21.3383 44.8807 21.45 44.6111 21.45 44.33V36.21H21.81V44.34C21.7956 44.4885 21.8124 44.6384 21.8594 44.7801C21.9063 44.9217 21.9824 45.052 22.0827 45.1625C22.183 45.273 22.3053 45.3613 22.4417 45.4217C22.5782 45.4821 22.7258 45.5133 22.875 45.5133C23.0242 45.5133 23.1718 45.4821 23.3082 45.4217C23.4447 45.3613 23.567 45.273 23.6673 45.1625C23.7676 45.052 23.8436 44.9217 23.8906 44.7801C23.9376 44.6384 23.9544 44.4885 23.94 44.34V30.34H24.31V35.46C24.31 35.5637 24.3304 35.6665 24.3701 35.7623C24.4098 35.8582 24.468 35.9452 24.5414 36.0186C24.6147 36.092 24.7018 36.1502 24.7977 36.1899C24.8935 36.2296 24.9962 36.25 25.1 36.25C25.2037 36.25 25.3065 36.2296 25.4023 36.1899C25.4981 36.1502 25.5852 36.092 25.6586 36.0186C25.732 35.9452 25.7901 35.8582 25.8298 35.7623C25.8695 35.6665 25.89 35.5637 25.89 35.46V29.88C25.8926 29.5688 25.8339 29.26 25.7172 28.9715C25.6006 28.6829 25.4282 28.4202 25.21 28.1983C24.9918 27.9763 24.732 27.7996 24.4454 27.678C24.1589 27.5565 23.8512 27.4926 23.54 27.49H19.69Z" fill="#1F3B62"/>
<path d="M34.4401 27.0799C34.8001 27.0799 35.152 26.9732 35.4513 26.7732C35.7506 26.5732 35.9838 26.289 36.1216 25.9564C36.2593 25.6239 36.2954 25.2579 36.2251 24.9049C36.1549 24.5518 35.9816 24.2275 35.7271 23.973C35.4725 23.7185 35.1482 23.5451 34.7952 23.4749C34.4421 23.4047 34.0762 23.4407 33.7436 23.5785C33.4111 23.7162 33.1268 23.9495 32.9268 24.2488C32.7269 24.5481 32.6201 24.9 32.6201 25.2599C32.6201 25.7426 32.8119 26.2056 33.1532 26.5469C33.4945 26.8882 33.9574 27.0799 34.4401 27.0799V27.0799Z" fill="#1F3B62"/>
<path d="M32.49 27.49C32.1819 27.4913 31.877 27.5534 31.593 27.6729C31.3089 27.7923 31.0513 27.9667 30.8348 28.186C30.6183 28.4052 30.4472 28.6651 30.3314 28.9507C30.2156 29.2362 30.1574 29.5419 30.16 29.85V35.45C30.1475 35.5619 30.1587 35.6752 30.1929 35.7824C30.2271 35.8897 30.2836 35.9885 30.3586 36.0725C30.4336 36.1564 30.5256 36.2236 30.6283 36.2695C30.7311 36.3155 30.8424 36.3393 30.955 36.3393C31.0676 36.3393 31.1789 36.3155 31.2817 36.2695C31.3845 36.2236 31.4764 36.1564 31.5515 36.0725C31.6265 35.9885 31.683 35.8897 31.7172 35.7824C31.7514 35.6752 31.7626 35.5619 31.75 35.45V30.33H32.13V44.33C32.13 44.6111 32.2417 44.8807 32.4405 45.0795C32.6393 45.2783 32.9089 45.39 33.19 45.39C33.4712 45.39 33.7408 45.2783 33.9396 45.0795C34.1384 44.8807 34.25 44.6111 34.25 44.33V36.21H34.61V44.34C34.5956 44.4885 34.6124 44.6384 34.6594 44.7801C34.7064 44.9217 34.7824 45.052 34.8827 45.1625C34.983 45.273 35.1053 45.3613 35.2418 45.4217C35.3782 45.4821 35.5258 45.5133 35.675 45.5133C35.8243 45.5133 35.9718 45.4821 36.1083 45.4217C36.2447 45.3613 36.367 45.273 36.4673 45.1625C36.5676 45.052 36.6437 44.9217 36.6907 44.7801C36.7376 44.6384 36.7544 44.4885 36.74 44.34V30.34H37.11V35.46C37.11 35.5637 37.1305 35.6665 37.1702 35.7623C37.2099 35.8582 37.2681 35.9452 37.3414 36.0186C37.4148 36.092 37.5019 36.1502 37.5977 36.1899C37.6936 36.2296 37.7963 36.25 37.9 36.25C38.0038 36.25 38.1065 36.2296 38.2023 36.1899C38.2982 36.1502 38.3853 36.092 38.4586 36.0186C38.532 35.9452 38.5902 35.8582 38.6299 35.7623C38.6696 35.6665 38.69 35.5637 38.69 35.46V29.88C38.6927 29.5688 38.634 29.26 38.5173 28.9715C38.4006 28.6829 38.2283 28.4202 38.01 28.1983C37.7918 27.9763 37.532 27.7996 37.2455 27.678C36.9589 27.5565 36.6513 27.4926 36.34 27.49H32.49Z" fill="#1F3B62"/>
<path d="M47.2399 27.0799C47.5994 27.0779 47.9503 26.9695 48.2483 26.7683C48.5463 26.5672 48.778 26.2822 48.9142 25.9495C49.0504 25.6168 49.0851 25.2511 49.0137 24.8988C48.9424 24.5464 48.7682 24.223 48.5133 23.9695C48.2584 23.716 47.9341 23.5436 47.5813 23.4742C47.2285 23.4048 46.8631 23.4414 46.5311 23.5794C46.1992 23.7175 45.9155 23.9507 45.716 24.2498C45.5164 24.5489 45.4099 24.9004 45.4099 25.2599C45.4099 25.4998 45.4573 25.7372 45.5494 25.9587C45.6415 26.1802 45.7764 26.3813 45.9465 26.5504C46.1166 26.7195 46.3184 26.8534 46.5404 26.9443C46.7623 27.0351 47.0001 27.0812 47.2399 27.0799V27.0799Z" fill="#1F3B62"/>
<path d="M45.2901 27.49C44.6747 27.5031 44.0893 27.7582 43.6607 28.1999C43.232 28.6417 42.9947 29.2345 43.0001 29.85V35.45C42.9875 35.5619 42.9987 35.6752 43.033 35.7824C43.0672 35.8897 43.1237 35.9885 43.1987 36.0725C43.2737 36.1564 43.3656 36.2236 43.4684 36.2695C43.5712 36.3155 43.6825 36.3393 43.7951 36.3393C43.9077 36.3393 44.019 36.3155 44.1218 36.2695C44.2246 36.2236 44.3165 36.1564 44.3915 36.0725C44.4666 35.9885 44.5231 35.8897 44.5573 35.7824C44.5915 35.6752 44.6027 35.5619 44.5901 35.45V30.33H44.9701V44.33C44.9701 44.4692 44.9975 44.607 45.0508 44.7356C45.1041 44.8642 45.1822 44.9811 45.2806 45.0795C45.379 45.178 45.4959 45.256 45.6245 45.3093C45.7531 45.3626 45.8909 45.39 46.0301 45.39C46.1693 45.39 46.3072 45.3626 46.4358 45.3093C46.5644 45.256 46.6812 45.178 46.7797 45.0795C46.8781 44.9811 46.9562 44.8642 47.0094 44.7356C47.0627 44.607 47.0901 44.4692 47.0901 44.33V36.21H47.4501V44.34C47.4357 44.4885 47.4525 44.6384 47.4995 44.7801C47.5465 44.9217 47.6225 45.052 47.7228 45.1625C47.8231 45.273 47.9454 45.3613 48.0819 45.4217C48.2183 45.4821 48.3659 45.5133 48.5151 45.5133C48.6643 45.5133 48.8119 45.4821 48.9484 45.4217C49.0848 45.3613 49.2071 45.273 49.3074 45.1625C49.4077 45.052 49.4838 44.9217 49.5307 44.7801C49.5777 44.6384 49.5945 44.4885 49.5801 44.34V30.34H49.9501V35.46C49.9501 35.6695 50.0333 35.8705 50.1815 36.0186C50.3297 36.1668 50.5306 36.25 50.7401 36.25C50.9496 36.25 51.1506 36.1668 51.2987 36.0186C51.4469 35.8705 51.5301 35.6695 51.5301 35.46V29.88C51.5328 29.5679 51.4737 29.2584 51.3564 28.9692C51.2391 28.68 51.0659 28.4168 50.8466 28.1947C50.6273 27.9727 50.3663 27.7961 50.0786 27.6752C49.7909 27.5542 49.4822 27.4913 49.1701 27.49H45.2901Z" fill="#1F3B62"/>
<path d="M59.9999 27.0799C60.3599 27.0799 60.7118 26.9732 61.0111 26.7732C61.3104 26.5732 61.5436 26.289 61.6814 25.9564C61.8191 25.6239 61.8552 25.2579 61.785 24.9049C61.7147 24.5518 61.5414 24.2275 61.2869 23.973C61.0323 23.7185 60.708 23.5451 60.355 23.4749C60.002 23.4047 59.636 23.4407 59.3034 23.5785C58.9709 23.7162 58.6866 23.9495 58.4867 24.2488C58.2867 24.5481 58.1799 24.9 58.1799 25.2599C58.1799 25.7426 58.3717 26.2056 58.713 26.5469C59.0543 26.8882 59.5172 27.0799 59.9999 27.0799V27.0799Z" fill="#1F3B62"/>
<path d="M58.0799 27.49C57.7722 27.4913 57.4678 27.5535 57.1843 27.6731C56.9008 27.7926 56.6438 27.9671 56.4281 28.1866C56.2124 28.406 56.0423 28.6659 55.9276 28.9514C55.8129 29.2369 55.7559 29.5423 55.7599 29.85V35.45C55.7473 35.5619 55.7585 35.6752 55.7927 35.7824C55.8269 35.8897 55.8834 35.9885 55.9585 36.0725C56.0335 36.1564 56.1254 36.2236 56.2282 36.2695C56.331 36.3155 56.4423 36.3393 56.5549 36.3393C56.6675 36.3393 56.7788 36.3155 56.8816 36.2695C56.9844 36.2236 57.0763 36.1564 57.1513 36.0725C57.2263 35.9885 57.2828 35.8897 57.317 35.7824C57.3513 35.6752 57.3625 35.5619 57.3499 35.45V30.33H57.7299V44.33C57.7155 44.4772 57.7321 44.6257 57.7786 44.7661C57.8251 44.9065 57.9005 45.0356 57.9998 45.1451C58.0992 45.2546 58.2204 45.3421 58.3556 45.402C58.4908 45.4619 58.637 45.4928 58.7849 45.4928C58.9328 45.4928 59.079 45.4619 59.2142 45.402C59.3494 45.3421 59.4706 45.2546 59.5699 45.1451C59.6693 45.0356 59.7446 44.9065 59.7911 44.7661C59.8376 44.6257 59.8542 44.4772 59.8399 44.33V36.21H60.2099V44.34C60.1955 44.4885 60.2123 44.6384 60.2593 44.7801C60.3062 44.9217 60.3823 45.052 60.4826 45.1625C60.5829 45.273 60.7052 45.3613 60.8416 45.4217C60.9781 45.4821 61.1257 45.5133 61.2749 45.5133C61.4241 45.5133 61.5717 45.4821 61.7081 45.4217C61.8446 45.3613 61.9669 45.273 62.0672 45.1625C62.1675 45.052 62.2435 44.9217 62.2905 44.7801C62.3375 44.6384 62.3543 44.4885 62.3399 44.34V30.34H62.7099V35.46C62.7099 35.6695 62.7931 35.8705 62.9413 36.0186C63.0894 36.1668 63.2904 36.25 63.4999 36.25C63.7094 36.25 63.9103 36.1668 64.0585 36.0186C64.2067 35.8705 64.2899 35.6695 64.2899 35.46V29.88C64.2925 29.5679 64.2335 29.2584 64.1162 28.9692C63.9989 28.68 63.8256 28.4168 63.6064 28.1947C63.3871 27.9727 63.1261 27.7961 62.8384 27.6752C62.5507 27.5542 62.242 27.4913 61.9299 27.49H58.0799Z" fill="#1F3B62"/>
<path d="M72.83 27.0799C73.1895 27.0779 73.5404 26.9695 73.8384 26.7683C74.1364 26.5672 74.3681 26.2822 74.5043 25.9495C74.6405 25.6168 74.6751 25.2511 74.6038 24.8988C74.5324 24.5464 74.3583 24.223 74.1034 23.9695C73.8485 23.716 73.5242 23.5436 73.1714 23.4742C72.8186 23.4048 72.4532 23.4414 72.1212 23.5794C71.7892 23.7175 71.5056 23.9507 71.306 24.2498C71.1065 24.5489 71 24.9004 71 25.2599C71 25.4998 71.0474 25.7372 71.1395 25.9587C71.2316 26.1802 71.3665 26.3813 71.5366 26.5504C71.7067 26.7195 71.9085 26.8534 72.1304 26.9443C72.3524 27.0351 72.5902 27.0812 72.83 27.0799V27.0799Z" fill="#1F3B62"/>
<path d="M70.8799 27.49C70.5723 27.4913 70.2679 27.5535 69.9844 27.6731C69.7009 27.7926 69.4439 27.9671 69.2282 28.1866C69.0125 28.406 68.8424 28.6659 68.7277 28.9514C68.613 29.2369 68.556 29.5423 68.5599 29.85V35.45C68.5474 35.5619 68.5586 35.6752 68.5928 35.7824C68.627 35.8897 68.6835 35.9885 68.7585 36.0725C68.8335 36.1564 68.9255 36.2236 69.0282 36.2695C69.131 36.3155 69.2423 36.3393 69.3549 36.3393C69.4675 36.3393 69.5789 36.3155 69.6816 36.2695C69.7844 36.2236 69.8763 36.1564 69.9514 36.0725C70.0264 35.9885 70.0829 35.8897 70.1171 35.7824C70.1513 35.6752 70.1625 35.5619 70.1499 35.45V30.33H70.5199V44.33C70.5199 44.6111 70.6316 44.8807 70.8304 45.0795C71.0292 45.2783 71.2988 45.39 71.5799 45.39C71.8611 45.39 72.1307 45.2783 72.3295 45.0795C72.5283 44.8807 72.6399 44.6111 72.6399 44.33V36.21H72.9999V44.34C72.9855 44.4885 73.0023 44.6384 73.0493 44.7801C73.0963 44.9217 73.1723 45.052 73.2726 45.1625C73.3729 45.273 73.4952 45.3613 73.6317 45.4217C73.7681 45.4821 73.9157 45.5133 74.0649 45.5133C74.2142 45.5133 74.3617 45.4821 74.4982 45.4217C74.6346 45.3613 74.7569 45.273 74.8572 45.1625C74.9575 45.052 75.0336 44.9217 75.0806 44.7801C75.1275 44.6384 75.1443 44.4885 75.1299 44.34V30.34H75.4999V35.46C75.4999 35.6695 75.5832 35.8705 75.7313 36.0186C75.8795 36.1668 76.0804 36.25 76.2899 36.25C76.4995 36.25 76.7004 36.1668 76.8486 36.0186C76.9967 35.8705 77.0799 35.6695 77.0799 35.46V29.88C77.0826 29.5679 77.0235 29.2584 76.9062 28.9692C76.7889 28.68 76.6157 28.4168 76.3964 28.1947C76.1771 27.9727 75.9162 27.7961 75.6285 27.6752C75.3408 27.5542 75.032 27.4913 74.7199 27.49H70.8799Z" fill="#1F3B62"/>
<path d="M47.22 92.94C72.4705 92.94 92.94 72.4705 92.94 47.22C92.94 21.9695 72.4705 1.5 47.22 1.5C21.9695 1.5 1.5 21.9695 1.5 47.22C1.5 72.4705 21.9695 92.94 47.22 92.94Z" stroke="#1F3B62" stroke-width="3" stroke-miterlimit="10" stroke-linecap="round"/>
<path d="M79.5599 79.5599L14.8999 14.8999" stroke="#1F3B62" stroke-width="3" stroke-miterlimit="10" stroke-linecap="round"/>
</svg>
