<svg xmlns="http://www.w3.org/2000/svg" viewBox="0 0 162.74 158.97"><defs><style>.cls-1{fill:#0371c1;}</style></defs><g id="Layer_2" data-name="Layer 2"><g id="Layer_1-2" data-name="Layer 1"><path d="M160.68,76.62,85.86,1.8A6.22,6.22,0,0,0,81.39,0a6.39,6.39,0,0,0-4.47,1.8L2.1,76.62a7.07,7.07,0,0,0,10,10L23.59,75.13v79.53A4.35,4.35,0,0,0,27.91,159H134.72a4.35,4.35,0,0,0,4.31-4.31V75.05l11.53,11.53a7,7,0,0,0,5,2,6.88,6.88,0,0,0,6.51-4.39A6.6,6.6,0,0,0,160.68,76.62Zm-36,67.84H38.1V60.62L81.39,17.33l43.29,43.29Z"/><path class="cls-1" d="M75.27,64.07a6.2,6.2,0,1,0,6.2-6.19A6.21,6.21,0,0,0,75.27,64.07Z"/><path class="cls-1" d="M67,79.52v19a2.71,2.71,0,1,0,5.41,0V81.17h1.26v47.37c0,4.94,7.13,4.78,7.13,0V101H82v27.53c0,4.78,7.21,4.94,7.21,0V81.17h1.26V98.5a2.67,2.67,0,1,0,5.33,0V79.68a8,8,0,0,0-8-8.08h-13A7.83,7.83,0,0,0,67,79.52Z"/></g></g></svg>