<svg xmlns="http://www.w3.org/2000/svg" viewBox="0 0 78.87 90.9"><defs><style>.cls-1{fill:none;stroke:#000;stroke-linecap:round;stroke-linejoin:round;stroke-width:3px;}</style></defs><g id="Laag_2" data-name="Laag 2"><g id="Laag_1-2" data-name="Laag 1"><path d="M39.46,35.05a4.35,4.35,0,1,0-4.34-4.35A4.35,4.35,0,0,0,39.46,35.05Z"/><path d="M34.81,36a5.57,5.57,0,0,0-5.55,5.63V55a1.9,1.9,0,1,0,3.8,0V42.79H34V76.18a2.53,2.53,0,1,0,5,0V56.8h.87V76.18a2.54,2.54,0,1,0,5.08,0V42.79h.88V55a1.89,1.89,0,1,0,3.77,0V41.72A5.66,5.66,0,0,0,44,36Z"/><line class="cls-1" x1="77.37" y1="39.44" x2="69.14" y2="31.21"/><line class="cls-1" x1="9.7" y1="31.24" x2="1.5" y2="39.44"/><polygon class="cls-1" points="69.14 31.21 69.14 89.4 9.7 89.4 9.7 31.24 10.4 30.54 39.43 1.5 68.47 30.54 69.14 31.21"/></g></g></svg>