<svg xmlns="http://www.w3.org/2000/svg" viewBox="0 0 162.7 159.02"><defs><style>.cls-1{fill:#00255a;}</style></defs><g id="Layer_2" data-name="Layer 2"><g id="Layer_1-2" data-name="Layer 1"><path d="M160.66,76.65,85.81,1.8A6.22,6.22,0,0,0,81.34,0a6.38,6.38,0,0,0-4.47,1.8L2.1,76.65a7.07,7.07,0,0,0,10,10L23.6,75.16v79.55A4.35,4.35,0,0,0,27.91,159H134.77a4.35,4.35,0,0,0,4.31-4.31V75.16l11.53,11.53a7.09,7.09,0,0,0,5,2,6.88,6.88,0,0,0,6.51-4.39A7,7,0,0,0,160.66,76.65Zm-36,67.86H38V60.64l43.3-43.3,43.31,43.3Z"/><path class="cls-1" d="M93.42,79.94A5.41,5.41,0,1,0,88,74.53,5.43,5.43,0,0,0,93.42,79.94Z"/><path class="cls-1" d="M80.72,96.18H72.4v-1H66V90.69H78.83a.74.74,0,0,0,.79-.78V72.57a.75.75,0,0,0-.79-.79H51a.74.74,0,0,0-.78.79V89.91a.73.73,0,0,0,.78.78h12.4v4.55H57.26v1H46.59A1.58,1.58,0,0,0,45,97.83v4.71a1.58,1.58,0,0,0,1.57,1.57h6.27v29a2.31,2.31,0,0,0,2.36,2.36h50.21a2.31,2.31,0,0,0,2.35-2.36v-29h6.28a1.58,1.58,0,0,0,1.57-1.57V97.83a1.58,1.58,0,0,0-1.57-1.57h-8V88.34a7.08,7.08,0,0,0-7-7.14H87.62a6.92,6.92,0,0,0-6.9,7Zm20.63-6.67v6.67h-1.1V89.51Zm-14.75,0v6.67H85.5V89.51Z"/></g></g></svg>