<svg xmlns="http://www.w3.org/2000/svg" viewBox="0 0 78.87 90.9"><defs><style>.cls-1{fill:none;stroke:#000;stroke-linecap:round;stroke-linejoin:round;stroke-width:3px;}</style></defs><g id="Laag_2" data-name="Laag 2"><g id="Laag_1-2" data-name="Laag 1"><line class="cls-1" x1="77.37" y1="39.44" x2="69.14" y2="31.21"/><line class="cls-1" x1="9.7" y1="31.24" x2="1.5" y2="39.44"/><polygon class="cls-1" points="69.14 31.21 69.14 89.4 9.7 89.4 9.7 31.24 10.4 30.54 39.43 1.5 68.47 30.54 69.14 31.21"/><path d="M47.22,42.2A3.22,3.22,0,1,0,44,39,3.21,3.21,0,0,0,47.22,42.2Z"/><path d="M43.78,42.91a4.13,4.13,0,0,0-4.11,4.17V57a1.41,1.41,0,1,0,2.81,0v-9h.66v24.7a1.87,1.87,0,1,0,3.74,0V58.29h.65V72.63a1.88,1.88,0,1,0,3.76,0V47.93h.65v9a1.39,1.39,0,1,0,2.78,0V47.14a4.18,4.18,0,0,0-4.15-4.23Z"/><rect x="18.44" y="51.87" width="41.98" height="4.66" rx="0.93"/><path d="M23.11,56.54H55.76a0,0,0,0,1,0,0V73.8a1.4,1.4,0,0,1-1.4,1.4H24.51a1.4,1.4,0,0,1-1.4-1.4V56.54A0,0,0,0,1,23.11,56.54Z"/><rect x="29.36" y="48.48" width="1.55" height="3.83"/><rect x="21.51" y="37.36" width="17.46" height="11.22" rx="0.47"/><rect x="25.69" y="51.28" width="9" height="1.19"/></g></g></svg>