<svg xmlns="http://www.w3.org/2000/svg" viewBox="0 0 1289.29 654.7"><defs><style>.cls-1{fill:#fff;}.cls-1,.cls-18{stroke:#000;stroke-miterlimit:10;}.cls-2{fill:#e6e6e6;}.cls-3{font-size:11px;}.cls-3,.cls-33{font-family:SofiaProMedium, Sofia Pro;}.cls-4{letter-spacing:-0.01em;}.cls-5{letter-spacing:-0.01em;}.cls-6{letter-spacing:-0.02em;}.cls-7{letter-spacing:-0.01em;}.cls-8{fill:#ccc;}.cls-9{fill:#999;}.cls-10{fill:#b3b3b3;}.cls-11{letter-spacing:-0.09em;}.cls-12{letter-spacing:-0.01em;}.cls-13{letter-spacing:0em;}.cls-14{letter-spacing:-0.01em;}.cls-15{letter-spacing:0em;}.cls-16{letter-spacing:-0.03em;}.cls-17,.cls-18,.cls-26{fill:none;}.cls-17{stroke:gray;stroke-width:0.25px;}.cls-17,.cls-26{stroke-linecap:round;stroke-linejoin:round;}.cls-19{letter-spacing:-0.01em;}.cls-20{letter-spacing:-0.01em;}.cls-21{letter-spacing:0em;}.cls-22{letter-spacing:-0.01em;}.cls-23{letter-spacing:0em;}.cls-24{letter-spacing:-0.03em;}.cls-25{opacity:0.5;}.cls-26{stroke:#662d91;stroke-width:4px;}.cls-27{letter-spacing:-0.01em;}.cls-28{letter-spacing:-0.02em;}.cls-29{letter-spacing:-0.05em;}.cls-30{letter-spacing:0em;}.cls-31{letter-spacing:-0.02em;}.cls-32{letter-spacing:-0.02em;}.cls-33{font-size:17px;}.cls-34{letter-spacing:0em;}.cls-35{letter-spacing:-0.01em;}.cls-36{letter-spacing:-0.01em;}.cls-37{letter-spacing:0em;}</style></defs><g id="Laag_2" data-name="Laag 2"><g id="Laag_2-2" data-name="Laag 2"><line class="cls-1" x1="59.29" y1="500.12" x2="49.29" y2="500.12"/><line class="cls-1" x1="59.29" y1="430.12" x2="49.29" y2="430.12"/><line class="cls-1" x1="59.29" y1="360.12" x2="49.29" y2="360.12"/><line class="cls-1" x1="59.29" y1="290.12" x2="49.29" y2="290.12"/><line class="cls-1" x1="59.29" y1="220.12" x2="49.29" y2="220.12"/><line class="cls-1" x1="59.29" y1="150.13" x2="49.29" y2="150.13"/><rect class="cls-2" x="119.29" y="530.13" width="240" height="30" rx="15"/><text class="cls-3" transform="translate(208.26 550.12)"><tspan class="cls-4">S</tspan><tspan class="cls-5" x="6.21" y="0">t</tspan><tspan x="9.75" y="0">a</tspan><tspan class="cls-6" x="16.43" y="0">y</tspan><tspan class="cls-7" x="21.74" y="0">A</tspan><tspan x="28.57" y="0">t</tspan><tspan class="cls-4" x="32.2" y="0">H</tspan><tspan x="39.91" y="0">ome</tspan></text><rect class="cls-8" x="89.29" y="490.13" width="1170" height="30" rx="15"/><rect class="cls-9" x="119.29" y="410.13" width="420" height="30" rx="15"/><rect class="cls-9" x="1079.29" y="410.13" width="180" height="30" rx="15"/><rect class="cls-2" x="1079.29" y="530.13" width="180" height="30" rx="15"/><rect class="cls-10" x="119.29" y="450.13" width="1140" height="30" rx="15"/><text class="cls-3" transform="translate(622.61 510.13)"><tspan class="cls-11">T</tspan><tspan x="5.12" y="0">el</tspan><tspan class="cls-5" x="13.96" y="0">e</tspan><tspan class="cls-4" x="20.01" y="0">w</tspan><tspan x="28.43" y="0">orkingClosu</tspan><tspan class="cls-12" x="88.15" y="0">r</tspan><tspan class="cls-13" x="92.34" y="0">es</tspan></text><text class="cls-3" transform="translate(659.29 470.13)">ClosPubA<tspan class="cls-14" x="48.25" y="0">n</tspan><tspan class="cls-15" x="54.48" y="0">y</tspan></text><text class="cls-3" transform="translate(298.27 430.13)">MassGathe<tspan class="cls-16" x="57.81" y="0">r</tspan></text><line class="cls-17" x1="119.29" y1="0.13" x2="119.29" y2="570.12"/><line class="cls-18" x1="59.29" y1="0.13" x2="59.29" y2="570.12"/><line class="cls-17" x1="89.29" y1="0.13" x2="89.29" y2="570.12"/><line class="cls-17" x1="149.29" y1="0.13" x2="149.29" y2="570.12"/><line class="cls-17" x1="179.29" y1="0.13" x2="179.29" y2="570.12"/><line class="cls-17" x1="209.29" y1="0.13" x2="209.29" y2="570.12"/><line class="cls-17" x1="239.29" y1="0.13" x2="239.29" y2="570.12"/><line class="cls-17" x1="269.29" y1="0.13" x2="269.29" y2="570.12"/><line class="cls-17" x1="299.29" y1="0.13" x2="299.29" y2="570.12"/><line class="cls-17" x1="329.29" y1="0.13" x2="329.29" y2="570.12"/><line class="cls-17" x1="359.29" y1="0.13" x2="359.29" y2="570.12"/><line class="cls-17" x1="389.29" y1="0.13" x2="389.29" y2="570.12"/><line class="cls-17" x1="419.29" y1="0.13" x2="419.29" y2="570.12"/><line class="cls-17" x1="449.29" y1="0.13" x2="449.29" y2="570.12"/><line class="cls-17" x1="479.29" y1="0.13" x2="479.29" y2="570.12"/><line class="cls-17" x1="509.29" y1="0.13" x2="509.29" y2="570.12"/><line class="cls-17" x1="539.29" y1="0.13" x2="539.29" y2="570.12"/><line class="cls-17" x1="569.29" y1="0.13" x2="569.29" y2="570.12"/><line class="cls-17" x1="629.29" y1="0.13" x2="629.29" y2="570.12"/><line class="cls-17" x1="599.29" y1="0.13" x2="599.29" y2="570.12"/><line class="cls-17" x1="659.29" y1="0.13" x2="659.29" y2="570.12"/><line class="cls-17" x1="689.29" y1="0.13" x2="689.29" y2="570.12"/><line class="cls-17" x1="719.29" y1="0.13" x2="719.29" y2="570.12"/><line class="cls-17" x1="749.29" y1="0.13" x2="749.29" y2="570.12"/><line class="cls-17" x1="779.29" y1="0.13" x2="779.29" y2="570.12"/><line class="cls-17" x1="809.29" y1="0.13" x2="809.29" y2="570.12"/><line class="cls-17" x1="839.29" y1="0.13" x2="839.29" y2="570.12"/><line class="cls-17" x1="869.29" y1="0.13" x2="869.29" y2="570.12"/><line class="cls-17" x1="899.29" y1="0.13" x2="899.29" y2="570.12"/><line class="cls-17" x1="929.29" y1="0.13" x2="929.29" y2="570.12"/><line class="cls-17" x1="959.29" y1="0.13" x2="959.29" y2="570.12"/><line class="cls-17" x1="989.29" y1="0.13" x2="989.29" y2="570.12"/><line class="cls-17" x1="1019.29" y1="0.13" x2="1019.29" y2="570.12"/><line class="cls-17" x1="1049.29" y1="0.13" x2="1049.29" y2="570.12"/><line class="cls-17" x1="1079.29" y1="0.13" x2="1079.29" y2="570.12"/><line class="cls-17" x1="1109.29" y1="0.13" x2="1109.29" y2="570.12"/><line class="cls-17" x1="1139.29" y1="0.13" x2="1139.29" y2="570.12"/><line class="cls-17" x1="1169.29" y1="0.13" x2="1169.29" y2="570.12"/><line class="cls-17" x1="1199.29" y1="0.13" x2="1199.29" y2="570.12"/><line class="cls-17" x1="1229.29" y1="0.13" x2="1229.29" y2="570.12"/><line class="cls-17" x1="1259.29" y1="0.13" x2="1259.29" y2="570.12"/><text class="cls-3" transform="translate(9.29 430.23) rotate(-90)">Gem<tspan class="cls-19" x="24.09" y="0">e</tspan><tspan class="cls-20" x="30.16" y="0">t</tspan><tspan x="33.69" y="0">en NO2</tspan><tspan class="cls-21" x="70.93" y="0"> </tspan><tspan class="cls-4" x="73.64" y="0">w</tspan><tspan x="82.07" y="0">aa</tspan><tspan class="cls-22" x="95.45" y="0">r</tspan><tspan class="cls-23" x="99.64" y="0">de pe</tspan><tspan class="cls-24" x="128.05" y="0">r</tspan><tspan x="132.09" y="0" xml:space="preserve"> m2</tspan></text><text class="cls-3" transform="translate(32.78 570.12)">0</text><text class="cls-3" transform="translate(28.82 500.12)">10</text><text class="cls-3" transform="translate(27.05 430.12)">20</text><text class="cls-3" transform="translate(27.04 360.12)">30</text><text class="cls-3" transform="translate(26.44 290.12)">40</text><text class="cls-3" transform="translate(26.63 220.12)">50</text><text class="cls-3" transform="translate(26.31 150.13)">60</text><g class="cls-25"><line class="cls-26" x1="118.81" y1="256.61" x2="88.8" y2="296.27"/><line class="cls-26" x1="148.83" y1="357.08" x2="118.81" y2="256.61"/><line class="cls-26" x1="178.84" y1="460.19" x2="148.83" y2="357.08"/><line class="cls-26" x1="208.85" y1="441.68" x2="178.84" y2="460.19"/><line class="cls-26" x1="238.86" y1="361.48" x2="208.85" y2="441.68"/><line class="cls-26" x1="268.87" y1="469.88" x2="238.86" y2="361.48"/><line class="cls-26" x1="298.89" y1="422.29" x2="268.87" y2="469.88"/><line class="cls-26" x1="328.9" y1="448.73" x2="298.89" y2="422.29"/><line class="cls-26" x1="358.91" y1="463.71" x2="328.9" y2="448.73"/><line class="cls-26" x1="388.92" y1="428.46" x2="358.91" y2="463.71"/><line class="cls-26" x1="418.94" y1="424.06" x2="388.92" y2="428.46"/><line class="cls-26" x1="448.95" y1="406.43" x2="418.94" y2="424.06"/><line class="cls-26" x1="478.96" y1="385.28" x2="448.95" y2="406.43"/><line class="cls-26" x1="508.97" y1="386.16" x2="478.96" y2="385.28"/><line class="cls-26" x1="538.98" y1="374.7" x2="508.97" y2="386.16"/><line class="cls-26" x1="569" y1="327.11" x2="538.98" y2="374.7"/><line class="cls-26" x1="599.01" y1="332.4" x2="569" y2="327.11"/><line class="cls-26" x1="629.02" y1="304.2" x2="599.01" y2="332.4"/><line class="cls-26" x1="659.03" y1="357.08" x2="629.02" y2="304.2"/><line class="cls-26" x1="689.05" y1="250.44" x2="659.03" y2="357.08"/><line class="cls-26" x1="719.06" y1="327.99" x2="689.05" y2="250.44"/><line class="cls-26" x1="749.07" y1="273.35" x2="719.06" y2="327.99"/><line class="cls-26" x1="779.08" y1="313.89" x2="749.07" y2="273.35"/><line class="cls-26" x1="809.09" y1="422.29" x2="779.08" y2="313.89"/><line class="cls-26" x1="839.11" y1="304.2" x2="809.09" y2="422.29"/><line class="cls-26" x1="869.12" y1="327.99" x2="839.11" y2="304.2"/><line class="cls-26" x1="899.13" y1="233.69" x2="869.12" y2="327.99"/><line class="cls-26" x1="929.14" y1="238.1" x2="899.13" y2="233.69"/><line class="cls-26" x1="959.15" y1="361.48" x2="929.14" y2="238.1"/><line class="cls-26" x1="989.17" y1="302.44" x2="959.15" y2="361.48"/><line class="cls-26" x1="1019.18" y1="324.47" x2="989.17" y2="302.44"/><line class="cls-26" x1="1049.19" y1="381.75" x2="1019.18" y2="324.47"/><line class="cls-26" x1="1079.2" y1="386.16" x2="1049.19" y2="381.75"/><line class="cls-26" x1="1109.22" y1="277.76" x2="1079.2" y2="386.16"/><line class="cls-26" x1="1139.23" y1="349.14" x2="1109.22" y2="277.76"/><line class="cls-26" x1="1169.24" y1="324.47" x2="1139.23" y2="349.14"/><line class="cls-26" x1="1199.25" y1="287.45" x2="1169.24" y2="324.47"/><line class="cls-26" x1="1229.26" y1="168.48" x2="1199.25" y2="287.45"/><line class="cls-26" x1="1259.28" y1="299.79" x2="1229.26" y2="168.48"/></g><line class="cls-1" x1="59.29" y1="80.13" x2="49.29" y2="80.13"/><line class="cls-1" x1="59.29" y1="10.13" x2="49.29" y2="10.13"/><text class="cls-3" transform="translate(27.27 80.13)"><tspan class="cls-27">7</tspan><tspan x="5.51" y="0">0</tspan></text><text class="cls-3" transform="translate(26.31 10.13)">80</text><line class="cls-18" x1="49.29" y1="570.12" x2="1289.29" y2="570.12"/><text class="cls-3" transform="translate(83.27 626.2) rotate(-45)">16-3<tspan class="cls-28" x="21.45" y="0">-</tspan><tspan class="cls-13" x="26.53" y="0">2020</tspan></text><text class="cls-3" transform="translate(26.54 622.88) rotate(-45)">2-3<tspan class="cls-28" x="16.75" y="0">-</tspan><tspan x="21.83" y="0">2020</tspan></text><text class="cls-3" transform="translate(262.54 626.87) rotate(-45)">2<tspan class="cls-29" x="5.73" y="0">7</tspan><tspan class="cls-30" x="10.78" y="0">-4</tspan><tspan class="cls-28" x="22.4" y="0">-</tspan><tspan x="27.48" y="0">2020</tspan></text><text class="cls-3" transform="translate(324.64 624.71) rotate(-45)">11-5<tspan class="cls-28" x="19.35" y="0">-</tspan><tspan x="24.43" y="0">2020</tspan></text><text class="cls-3" transform="translate(381.84 627.51) rotate(-45)">25-5<tspan class="cls-28" x="23.31" y="0">-</tspan><tspan class="cls-13" x="28.39" y="0">2020</tspan></text><text class="cls-3" transform="translate(141.98 627.49) rotate(-45)">30-3<tspan class="cls-28" x="23.28" y="0">-</tspan><tspan class="cls-13" x="28.36" y="0">2020</tspan></text><text class="cls-3" transform="translate(203.31 626.11) rotate(-45)">13-4<tspan class="cls-28" x="21.32" y="0">-</tspan><tspan class="cls-13" x="26.4" y="0">2020</tspan></text><text class="cls-3" transform="translate(501.97 627.44) rotate(-45)">22-6<tspan class="cls-28" x="23.21" y="0">-</tspan><tspan class="cls-30" x="28.29" y="0">2020</tspan></text><text class="cls-3" transform="translate(445.5 623.91) rotate(-45)">8-6<tspan class="cls-28" x="18.22" y="0">-</tspan><tspan x="23.3" y="0">2020</tspan></text><text class="cls-3" transform="translate(685.96 623.4) rotate(-45)">3-8<tspan class="cls-28" x="17.49" y="0">-</tspan><tspan x="22.57" y="0">2020</tspan></text><text class="cls-3" transform="translate(743.65 625.71) rotate(-45)">1<tspan class="cls-29" x="3.96" y="0">7</tspan><tspan x="9.01" y="0">-8</tspan><tspan class="cls-28" x="20.76" y="0">-</tspan><tspan class="cls-30" x="25.84" y="0">2020</tspan></text><text class="cls-3" transform="translate(803.16 626.2) rotate(-45)">31-8<tspan class="cls-28" x="21.45" y="0">-</tspan><tspan class="cls-13" x="26.53" y="0">2020</tspan></text><text class="cls-3" transform="translate(862.74 626.62) rotate(-45)">14-9<tspan class="cls-28" x="22.04" y="0">-</tspan><tspan x="27.13" y="0">2020</tspan></text><text class="cls-3" transform="translate(921.39 627.96) rotate(-45)">28-9<tspan class="cls-28" x="23.95" y="0">-</tspan><tspan x="29.03" y="0">2020</tspan></text><text class="cls-3" transform="translate(980.5 628.85) rotate(-45)">12<tspan class="cls-31" x="9.69" y="0">-</tspan><tspan x="14.73" y="0">10</tspan><tspan class="cls-32" x="25.2" y="0">-</tspan><tspan class="cls-30" x="30.28" y="0">2020</tspan></text><text class="cls-3" transform="translate(1038.73 630.62) rotate(-45)">26<tspan class="cls-31" x="12.2" y="0">-</tspan><tspan x="17.24" y="0">10</tspan><tspan class="cls-28" x="27.71" y="0">-</tspan><tspan x="32.79" y="0">2020</tspan></text><text class="cls-3" transform="translate(1104.59 624.77) rotate(-45)">9<tspan class="cls-31" x="6.47" y="0">-</tspan><tspan x="11.51" y="0">11</tspan><tspan class="cls-28" x="19.43" y="0">-</tspan><tspan x="24.51" y="0">2020</tspan></text><text class="cls-3" transform="translate(1161.05 628.31) rotate(-45)">23<tspan class="cls-31" x="11.47" y="0">-</tspan><tspan x="16.51" y="0">11</tspan><tspan class="cls-28" x="24.43" y="0">-</tspan><tspan x="29.51" y="0">2020</tspan></text><text class="cls-3" transform="translate(566.71 622.71) rotate(-45)">6<tspan class="cls-16" x="6.47" y="0">-</tspan><tspan class="cls-29" x="11.46" y="0">7</tspan><tspan class="cls-28" x="16.51" y="0">-</tspan><tspan x="21.59" y="0">2020</tspan></text><text class="cls-3" transform="translate(622.62 626.79) rotate(-45)">20<tspan class="cls-16" x="12.24" y="0">-</tspan><tspan class="cls-29" x="17.24" y="0">7</tspan><tspan class="cls-28" x="22.29" y="0">-</tspan><tspan class="cls-30" x="27.37" y="0">2020</tspan></text><text class="cls-3" transform="translate(1224.34 625.02) rotate(-45)"><tspan class="cls-29">7</tspan><tspan class="cls-31" x="5.05" y="0">-</tspan><tspan x="10.09" y="0">12</tspan><tspan class="cls-28" x="19.78" y="0">-</tspan><tspan class="cls-30" x="24.86" y="0">2020</tspan></text><text class="cls-33" transform="translate(570.21 650.13)">Time in<tspan class="cls-34" x="56.18" y="0"> </tspan><tspan class="cls-35" x="60.38" y="0">w</tspan><tspan x="73.41" y="0">ee</tspan><tspan class="cls-36" x="92.41" y="0">k</tspan><tspan class="cls-37" x="100.62" y="0">s</tspan></text><line class="cls-18" x1="59.29" y1="570.12" x2="59.29" y2="580.12"/><line class="cls-18" x1="119.29" y1="570.12" x2="119.29" y2="580.12"/><line class="cls-18" x1="179.29" y1="570.12" x2="179.29" y2="580.12"/><line class="cls-18" x1="239.29" y1="570.12" x2="239.29" y2="580.12"/><line class="cls-18" x1="299.29" y1="570.12" x2="299.29" y2="580.12"/><line class="cls-18" x1="359.29" y1="570.12" x2="359.29" y2="580.12"/><line class="cls-18" x1="419.29" y1="570.12" x2="419.29" y2="580.12"/><line class="cls-18" x1="479.29" y1="570.12" x2="479.29" y2="580.12"/><line class="cls-18" x1="539.29" y1="570.12" x2="539.29" y2="580.12"/><line class="cls-18" x1="599.29" y1="570.12" x2="599.29" y2="580.12"/><line class="cls-18" x1="659.29" y1="570.12" x2="659.29" y2="580.12"/><line class="cls-18" x1="719.29" y1="570.12" x2="719.29" y2="580.12"/><line class="cls-18" x1="779.29" y1="570.12" x2="779.29" y2="580.12"/><line class="cls-18" x1="839.29" y1="570.12" x2="839.29" y2="580.12"/><line class="cls-18" x1="899.29" y1="570.12" x2="899.29" y2="580.12"/><line class="cls-18" x1="959.29" y1="570.12" x2="959.29" y2="580.12"/><line class="cls-18" x1="1019.29" y1="570.12" x2="1019.29" y2="580.12"/><line class="cls-18" x1="1079.29" y1="570.12" x2="1079.29" y2="580.12"/><line class="cls-18" x1="1139.29" y1="570.12" x2="1139.29" y2="580.12"/><line class="cls-18" x1="1199.29" y1="570.12" x2="1199.29" y2="580.12"/><line class="cls-18" x1="1259.29" y1="570.12" x2="1259.29" y2="580.12"/></g></g></svg>