<svg xmlns="http://www.w3.org/2000/svg" viewBox="0 0 1289.29 654.7"><defs><style>.cls-1{fill:#fff;}.cls-1,.cls-18{stroke:#000;}.cls-1,.cls-18,.cls-26{stroke-miterlimit:10;}.cls-2{fill:#ccc;}.cls-3{fill:#999;}.cls-4{fill:#e6e6e6;}.cls-5{fill:#b3b3b3;}.cls-6{font-size:11px;}.cls-33,.cls-6{font-family:SofiaProMedium, Sofia Pro;}.cls-7{letter-spacing:-0.01em;}.cls-8{letter-spacing:-0.01em;}.cls-9{letter-spacing:-0.02em;}.cls-10{letter-spacing:-0.01em;}.cls-11{letter-spacing:-0.09em;}.cls-12{letter-spacing:-0.01em;}.cls-13{letter-spacing:0em;}.cls-14{letter-spacing:-0.01em;}.cls-15{letter-spacing:0em;}.cls-16{letter-spacing:-0.03em;}.cls-17,.cls-18,.cls-26{fill:none;}.cls-17{stroke:gray;stroke-linejoin:round;stroke-width:0.25px;}.cls-17,.cls-26{stroke-linecap:round;}.cls-19{letter-spacing:-0.01em;}.cls-20{letter-spacing:-0.01em;}.cls-21{letter-spacing:0em;}.cls-22{letter-spacing:-0.01em;}.cls-23{letter-spacing:0em;}.cls-24{letter-spacing:-0.03em;}.cls-25{opacity:0.5;}.cls-26{stroke:#c1272d;stroke-width:4px;}.cls-27{letter-spacing:-0.01em;}.cls-28{letter-spacing:-0.02em;}.cls-29{letter-spacing:-0.05em;}.cls-30{letter-spacing:0em;}.cls-31{letter-spacing:-0.02em;}.cls-32{letter-spacing:-0.02em;}.cls-33{font-size:17px;}.cls-34{letter-spacing:0em;}.cls-35{letter-spacing:-0.01em;}.cls-36{letter-spacing:-0.01em;}.cls-37{letter-spacing:0em;}</style></defs><g id="Laag_2" data-name="Laag 2"><g id="Laag_2-2" data-name="Laag 2"><line class="cls-1" x1="59.29" y1="500.12" x2="49.29" y2="500.12"/><line class="cls-1" x1="59.29" y1="430.12" x2="49.29" y2="430.12"/><line class="cls-1" x1="59.29" y1="360.12" x2="49.29" y2="360.12"/><line class="cls-1" x1="59.29" y1="290.12" x2="49.29" y2="290.12"/><line class="cls-1" x1="59.29" y1="220.12" x2="49.29" y2="220.12"/><rect class="cls-2" x="119.29" y="490.13" width="120" height="30" rx="15"/><rect class="cls-2" x="1079.29" y="490.13" width="180" height="30" rx="15"/><rect class="cls-3" x="89.29" y="410.13" width="810" height="30" rx="15"/><rect class="cls-3" x="1049.29" y="410.13" width="210" height="30" rx="15"/><rect class="cls-4" x="119.29" y="530.13" width="240" height="30" rx="15"/><rect class="cls-4" x="1079.29" y="530.13" width="180" height="30" rx="15"/><rect class="cls-5" x="119.29" y="450.13" width="1140" height="30" rx="15"/><text class="cls-6" transform="translate(208.26 550.13)"><tspan class="cls-7">S</tspan><tspan class="cls-8" x="6.21" y="0">t</tspan><tspan x="9.75" y="0">a</tspan><tspan class="cls-9" x="16.43" y="0">y</tspan><tspan class="cls-10" x="21.74" y="0">A</tspan><tspan x="28.57" y="0">t</tspan><tspan class="cls-7" x="32.2" y="0">H</tspan><tspan x="39.91" y="0">ome</tspan></text><text class="cls-6" transform="translate(127.61 510.13)"><tspan class="cls-11">T</tspan><tspan x="5.12" y="0">el</tspan><tspan class="cls-8" x="13.96" y="0">e</tspan><tspan class="cls-7" x="20.01" y="0">w</tspan><tspan x="28.43" y="0">orkingClosu</tspan><tspan class="cls-12" x="88.15" y="0">r</tspan><tspan class="cls-13" x="92.34" y="0">es</tspan></text><text class="cls-6" transform="translate(659.29 470.13)">ClosPubA<tspan class="cls-14" x="48.25" y="0">n</tspan><tspan class="cls-15" x="54.48" y="0">y</tspan></text><text class="cls-6" transform="translate(433.28 430.13)">MassGathe<tspan class="cls-16" x="57.81" y="0">r</tspan></text><line class="cls-17" x1="119.29" y1="0.13" x2="119.29" y2="570.12"/><line class="cls-18" x1="59.29" y1="0.13" x2="59.29" y2="570.12"/><line class="cls-17" x1="89.29" y1="0.13" x2="89.29" y2="570.12"/><line class="cls-17" x1="149.29" y1="0.13" x2="149.29" y2="570.12"/><line class="cls-17" x1="179.29" y1="0.13" x2="179.29" y2="570.12"/><line class="cls-17" x1="209.29" y1="0.13" x2="209.29" y2="570.12"/><line class="cls-17" x1="239.29" y1="0.13" x2="239.29" y2="570.12"/><line class="cls-17" x1="269.29" y1="0.13" x2="269.29" y2="570.12"/><line class="cls-17" x1="299.29" y1="0.13" x2="299.29" y2="570.12"/><line class="cls-17" x1="329.29" y1="0.13" x2="329.29" y2="570.12"/><line class="cls-17" x1="359.29" y1="0.13" x2="359.29" y2="570.12"/><line class="cls-17" x1="389.29" y1="0.13" x2="389.29" y2="570.12"/><line class="cls-17" x1="419.29" y1="0.13" x2="419.29" y2="570.12"/><line class="cls-17" x1="449.29" y1="0.13" x2="449.29" y2="570.12"/><line class="cls-17" x1="479.29" y1="0.13" x2="479.29" y2="570.12"/><line class="cls-17" x1="509.29" y1="0.13" x2="509.29" y2="570.12"/><line class="cls-17" x1="539.29" y1="0.13" x2="539.29" y2="570.12"/><line class="cls-17" x1="569.29" y1="0.13" x2="569.29" y2="570.12"/><line class="cls-17" x1="629.29" y1="0.13" x2="629.29" y2="570.12"/><line class="cls-17" x1="599.29" y1="0.13" x2="599.29" y2="570.12"/><line class="cls-17" x1="659.29" y1="0.13" x2="659.29" y2="570.12"/><line class="cls-17" x1="689.29" y1="0.13" x2="689.29" y2="570.12"/><line class="cls-17" x1="719.29" y1="0.13" x2="719.29" y2="570.12"/><line class="cls-17" x1="749.29" y1="0.13" x2="749.29" y2="570.12"/><line class="cls-17" x1="779.29" y1="0.13" x2="779.29" y2="570.12"/><line class="cls-17" x1="809.29" y1="0.13" x2="809.29" y2="570.12"/><line class="cls-17" x1="839.29" y1="0.13" x2="839.29" y2="570.12"/><line class="cls-17" x1="869.29" y1="0.13" x2="869.29" y2="570.12"/><line class="cls-17" x1="899.29" y1="0.13" x2="899.29" y2="570.12"/><line class="cls-17" x1="929.29" y1="0.13" x2="929.29" y2="570.12"/><line class="cls-17" x1="959.29" y1="0.13" x2="959.29" y2="570.12"/><line class="cls-17" x1="989.29" y1="0.13" x2="989.29" y2="570.12"/><line class="cls-17" x1="1019.29" y1="0.13" x2="1019.29" y2="570.12"/><line class="cls-17" x1="1049.29" y1="0.13" x2="1049.29" y2="570.12"/><line class="cls-17" x1="1079.29" y1="0.13" x2="1079.29" y2="570.12"/><line class="cls-17" x1="1109.29" y1="0.13" x2="1109.29" y2="570.12"/><line class="cls-17" x1="1139.29" y1="0.13" x2="1139.29" y2="570.12"/><line class="cls-17" x1="1169.29" y1="0.13" x2="1169.29" y2="570.12"/><line class="cls-17" x1="1199.29" y1="0.13" x2="1199.29" y2="570.12"/><line class="cls-17" x1="1229.29" y1="0.13" x2="1229.29" y2="570.12"/><line class="cls-17" x1="1259.29" y1="0.13" x2="1259.29" y2="570.12"/><text class="cls-6" transform="translate(9.29 455.23) rotate(-90)">Gem<tspan class="cls-19" x="24.09" y="0">e</tspan><tspan class="cls-20" x="30.16" y="0">t</tspan><tspan x="33.69" y="0">en NO2</tspan><tspan class="cls-21" x="70.93" y="0"> </tspan><tspan class="cls-7" x="73.64" y="0">w</tspan><tspan x="82.07" y="0">aa</tspan><tspan class="cls-22" x="95.45" y="0">r</tspan><tspan class="cls-23" x="99.64" y="0">de pe</tspan><tspan class="cls-24" x="128.05" y="0">r</tspan><tspan x="132.09" y="0" xml:space="preserve"> m2</tspan></text><text class="cls-6" transform="translate(32.78 570.12)">0</text><text class="cls-6" transform="translate(28.82 500.12)">10</text><text class="cls-6" transform="translate(27.05 430.12)">20</text><text class="cls-6" transform="translate(27.04 360.12)">30</text><text class="cls-6" transform="translate(26.44 290.12)">40</text><text class="cls-6" transform="translate(26.63 220.12)">50</text><g class="cls-25"><line class="cls-26" x1="119.3" y1="407.83" x2="89.29" y2="282.95"/><line class="cls-26" x1="149.31" y1="380.37" x2="119.3" y2="407.83"/><line class="cls-26" x1="179.33" y1="330.78" x2="149.31" y2="380.37"/><line class="cls-26" x1="209.34" y1="448.57" x2="179.33" y2="330.78"/><line class="cls-26" x1="239.35" y1="388.34" x2="209.34" y2="448.57"/><line class="cls-26" x1="269.36" y1="439.71" x2="239.35" y2="388.34"/><line class="cls-26" x1="299.37" y1="449.45" x2="269.36" y2="439.71"/><line class="cls-26" x1="329.39" y1="441.48" x2="299.37" y2="449.45"/><line class="cls-26" x1="359.4" y1="442.37" x2="329.39" y2="441.48"/><line class="cls-26" x1="389.41" y1="474.25" x2="359.4" y2="442.37"/><line class="cls-26" x1="419.42" y1="460.97" x2="389.41" y2="474.25"/><line class="cls-26" x1="449.44" y1="454.77" x2="419.42" y2="460.97"/><line class="cls-26" x1="479.45" y1="473.36" x2="449.44" y2="454.77"/><line class="cls-26" x1="509.46" y1="464.51" x2="479.45" y2="473.36"/><line class="cls-26" x1="539.47" y1="398.97" x2="509.46" y2="464.51"/><line class="cls-26" x1="569.48" y1="415.8" x2="539.47" y2="398.97"/><line class="cls-26" x1="599.5" y1="457.42" x2="569.48" y2="415.8"/><line class="cls-26" x1="629.51" y1="461.85" x2="599.5" y2="457.42"/><line class="cls-26" x1="659.52" y1="457.42" x2="629.51" y2="461.85"/><line class="cls-26" x1="689.53" y1="435.28" x2="659.52" y2="457.42"/><line class="cls-26" x1="719.55" y1="430.85" x2="689.53" y2="435.28"/><line class="cls-26" x1="749.56" y1="423.77" x2="719.55" y2="430.85"/><line class="cls-26" x1="779.57" y1="424.65" x2="749.56" y2="423.77"/><line class="cls-26" x1="809.58" y1="429.97" x2="779.57" y2="424.65"/><line class="cls-26" x1="839.59" y1="449.45" x2="809.58" y2="429.97"/><line class="cls-26" x1="869.61" y1="374.17" x2="839.59" y2="449.45"/><line class="cls-26" x1="899.62" y1="415.8" x2="869.61" y2="374.17"/><line class="cls-26" x1="929.63" y1="388.34" x2="899.62" y2="415.8"/><line class="cls-26" x1="959.64" y1="395.43" x2="929.63" y2="388.34"/><line class="cls-26" x1="989.65" y1="362.66" x2="959.64" y2="395.43"/><line class="cls-26" x1="1019.67" y1="390.11" x2="989.65" y2="362.66"/><line class="cls-26" x1="1049.68" y1="367.97" x2="1019.67" y2="390.11"/><line class="cls-26" x1="1079.69" y1="352.03" x2="1049.68" y2="367.97"/><line class="cls-26" x1="1109.7" y1="378.6" x2="1079.69" y2="352.03"/><line class="cls-26" x1="1139.72" y1="248.41" x2="1109.7" y2="378.6"/><line class="cls-26" x1="1169.73" y1="382.14" x2="1139.72" y2="248.41"/><line class="cls-26" x1="1199.74" y1="392.77" x2="1169.73" y2="382.14"/><line class="cls-26" x1="1229.75" y1="216.53" x2="1199.74" y2="392.77"/><line class="cls-26" x1="1259.76" y1="268.78" x2="1229.75" y2="216.53"/></g><line class="cls-1" x1="59.29" y1="150.13" x2="49.29" y2="150.13"/><line class="cls-1" x1="59.29" y1="80.13" x2="49.29" y2="80.13"/><line class="cls-1" x1="59.29" y1="10.13" x2="49.29" y2="10.13"/><text class="cls-6" transform="translate(26.31 150.13)">60</text><text class="cls-6" transform="translate(27.27 80.13)"><tspan class="cls-27">7</tspan><tspan x="5.51" y="0">0</tspan></text><text class="cls-6" transform="translate(26.31 10.13)">80</text><line class="cls-18" x1="49.29" y1="570.13" x2="1289.29" y2="570.13"/><text class="cls-6" transform="translate(83.27 626.2) rotate(-45)">16-3<tspan class="cls-28" x="21.45" y="0">-</tspan><tspan class="cls-13" x="26.53" y="0">2020</tspan></text><text class="cls-6" transform="translate(26.54 622.88) rotate(-45)">2-3<tspan class="cls-28" x="16.75" y="0">-</tspan><tspan x="21.83" y="0">2020</tspan></text><text class="cls-6" transform="translate(262.55 626.87) rotate(-45)">2<tspan class="cls-29" x="5.73" y="0">7</tspan><tspan class="cls-30" x="10.78" y="0">-4</tspan><tspan class="cls-28" x="22.4" y="0">-</tspan><tspan x="27.48" y="0">2020</tspan></text><text class="cls-6" transform="translate(324.64 624.71) rotate(-45)">11-5<tspan class="cls-28" x="19.35" y="0">-</tspan><tspan x="24.43" y="0">2020</tspan></text><text class="cls-6" transform="translate(381.84 627.51) rotate(-45)">25-5<tspan class="cls-28" x="23.31" y="0">-</tspan><tspan class="cls-13" x="28.39" y="0">2020</tspan></text><text class="cls-6" transform="translate(141.98 627.49) rotate(-45)">30-3<tspan class="cls-28" x="23.28" y="0">-</tspan><tspan class="cls-13" x="28.36" y="0">2020</tspan></text><text class="cls-6" transform="translate(203.31 626.11) rotate(-45)">13-4<tspan class="cls-28" x="21.32" y="0">-</tspan><tspan class="cls-13" x="26.4" y="0">2020</tspan></text><text class="cls-6" transform="translate(501.97 627.44) rotate(-45)">22-6<tspan class="cls-28" x="23.21" y="0">-</tspan><tspan class="cls-30" x="28.29" y="0">2020</tspan></text><text class="cls-6" transform="translate(445.5 623.91) rotate(-45)">8-6<tspan class="cls-28" x="18.22" y="0">-</tspan><tspan x="23.3" y="0">2020</tspan></text><text class="cls-6" transform="translate(685.96 623.4) rotate(-45)">3-8<tspan class="cls-28" x="17.49" y="0">-</tspan><tspan x="22.57" y="0">2020</tspan></text><text class="cls-6" transform="translate(743.65 625.71) rotate(-45)">1<tspan class="cls-29" x="3.96" y="0">7</tspan><tspan x="9.01" y="0">-8</tspan><tspan class="cls-28" x="20.76" y="0">-</tspan><tspan class="cls-30" x="25.84" y="0">2020</tspan></text><text class="cls-6" transform="translate(803.16 626.2) rotate(-45)">31-8<tspan class="cls-28" x="21.45" y="0">-</tspan><tspan class="cls-13" x="26.53" y="0">2020</tspan></text><text class="cls-6" transform="translate(862.74 626.62) rotate(-45)">14-9<tspan class="cls-28" x="22.04" y="0">-</tspan><tspan x="27.13" y="0">2020</tspan></text><text class="cls-6" transform="translate(921.39 627.96) rotate(-45)">28-9<tspan class="cls-28" x="23.95" y="0">-</tspan><tspan x="29.03" y="0">2020</tspan></text><text class="cls-6" transform="translate(980.5 628.85) rotate(-45)">12<tspan class="cls-31" x="9.69" y="0">-</tspan><tspan x="14.73" y="0">10</tspan><tspan class="cls-32" x="25.2" y="0">-</tspan><tspan class="cls-30" x="30.28" y="0">2020</tspan></text><text class="cls-6" transform="translate(1038.73 630.62) rotate(-45)">26<tspan class="cls-31" x="12.2" y="0">-</tspan><tspan x="17.24" y="0">10</tspan><tspan class="cls-28" x="27.71" y="0">-</tspan><tspan x="32.79" y="0">2020</tspan></text><text class="cls-6" transform="translate(1104.59 624.77) rotate(-45)">9<tspan class="cls-31" x="6.47" y="0">-</tspan><tspan x="11.51" y="0">11</tspan><tspan class="cls-28" x="19.43" y="0">-</tspan><tspan x="24.51" y="0">2020</tspan></text><text class="cls-6" transform="translate(1161.05 628.31) rotate(-45)">23<tspan class="cls-31" x="11.47" y="0">-</tspan><tspan x="16.51" y="0">11</tspan><tspan class="cls-28" x="24.43" y="0">-</tspan><tspan x="29.51" y="0">2020</tspan></text><text class="cls-6" transform="translate(566.71 622.71) rotate(-45)">6<tspan class="cls-16" x="6.47" y="0">-</tspan><tspan class="cls-29" x="11.46" y="0">7</tspan><tspan class="cls-28" x="16.51" y="0">-</tspan><tspan x="21.59" y="0">2020</tspan></text><text class="cls-6" transform="translate(622.62 626.79) rotate(-45)">20<tspan class="cls-16" x="12.24" y="0">-</tspan><tspan class="cls-29" x="17.24" y="0">7</tspan><tspan class="cls-28" x="22.29" y="0">-</tspan><tspan class="cls-30" x="27.37" y="0">2020</tspan></text><text class="cls-6" transform="translate(1224.34 625.02) rotate(-45)"><tspan class="cls-29">7</tspan><tspan class="cls-31" x="5.05" y="0">-</tspan><tspan x="10.09" y="0">12</tspan><tspan class="cls-28" x="19.78" y="0">-</tspan><tspan class="cls-30" x="24.86" y="0">2020</tspan></text><text class="cls-33" transform="translate(570.21 650.13)">Time in<tspan class="cls-34" x="56.18" y="0"> </tspan><tspan class="cls-35" x="60.38" y="0">w</tspan><tspan x="73.41" y="0">ee</tspan><tspan class="cls-36" x="92.41" y="0">k</tspan><tspan class="cls-37" x="100.62" y="0">s</tspan></text><line class="cls-18" x1="59.29" y1="570.13" x2="59.29" y2="580.13"/><line class="cls-18" x1="119.29" y1="570.13" x2="119.29" y2="580.13"/><line class="cls-18" x1="179.29" y1="570.13" x2="179.29" y2="580.13"/><line class="cls-18" x1="239.29" y1="570.13" x2="239.29" y2="580.13"/><line class="cls-18" x1="299.29" y1="570.13" x2="299.29" y2="580.13"/><line class="cls-18" x1="359.29" y1="570.13" x2="359.29" y2="580.13"/><line class="cls-18" x1="419.29" y1="570.13" x2="419.29" y2="580.13"/><line class="cls-18" x1="479.29" y1="570.13" x2="479.29" y2="580.13"/><line class="cls-18" x1="539.29" y1="570.13" x2="539.29" y2="580.13"/><line class="cls-18" x1="599.29" y1="570.13" x2="599.29" y2="580.13"/><line class="cls-18" x1="659.29" y1="570.13" x2="659.29" y2="580.13"/><line class="cls-18" x1="719.29" y1="570.13" x2="719.29" y2="580.13"/><line class="cls-18" x1="779.29" y1="570.13" x2="779.29" y2="580.13"/><line class="cls-18" x1="839.29" y1="570.13" x2="839.29" y2="580.13"/><line class="cls-18" x1="899.29" y1="570.13" x2="899.29" y2="580.13"/><line class="cls-18" x1="959.29" y1="570.13" x2="959.29" y2="580.13"/><line class="cls-18" x1="1019.29" y1="570.13" x2="1019.29" y2="580.13"/><line class="cls-18" x1="1079.29" y1="570.13" x2="1079.29" y2="580.13"/><line class="cls-18" x1="1139.29" y1="570.13" x2="1139.29" y2="580.13"/><line class="cls-18" x1="1199.29" y1="570.13" x2="1199.29" y2="580.13"/><line class="cls-18" x1="1259.29" y1="570.13" x2="1259.29" y2="580.13"/></g></g></svg>