<svg width="1050" height="227" viewBox="0 0 1050 227" fill="none" xmlns="http://www.w3.org/2000/svg">
<path d="M375.002 92.6667H50.002V117.667H375.002V92.6667Z" fill="#ACACAC"/>
<path d="M1025 92.6667H799.998V117.667H1025V92.6667Z" fill="#C2C2C2"/>
<path d="M1025 26H875V51H1025V26Z" fill="#DADADA"/>
<path d="M400.002 26H50.002V51H400.002V26Z" fill="#DADADA"/>
<path d="M250.002 126H50.002V151H250.002V126Z" fill="#868686"/>
<path d="M1025 59.3335H50.002V84.3335H1025V59.3335Z" fill="#C2C2C2"/>
<path d="M62.0801 140.833H62.9966C62.9966 141.333 63.4966 141.916 64.3298 141.916C65.0798 141.916 65.4964 141.416 65.4964 140.916C65.4964 140.333 64.9964 140.083 64.4965 139.917L63.6632 139.75C62.3301 139.417 62.0801 138.583 62.0801 138.083C62.0801 137 63.08 136.25 64.1632 136.25C65.3297 136.25 66.163 137 66.163 138.083H65.2464C65.2464 137.5 64.7465 137.083 64.1632 137.083C63.5799 137.083 62.9966 137.417 62.9966 138C62.9966 138.167 63.08 138.583 63.8299 138.833L64.6631 139C65.7464 139.25 66.4129 139.833 66.4129 140.75C66.4129 141.833 65.5797 142.666 64.2465 142.666C62.9966 142.75 62.0801 141.833 62.0801 140.833Z" fill="black"/>
<path d="M69.6612 139.167H68.7446V142.666H67.828V139.167H67.0781V138.417H67.828V136.833H68.7446V138.417H69.6612V139.167Z" fill="black"/>
<path d="M74.6649 138.417V142.666H73.7483V142C73.4983 142.5 72.8317 142.75 72.2485 142.75C71.0819 142.75 70.082 141.833 70.082 140.5C70.082 139.167 71.0819 138.25 72.1651 138.25C72.7484 138.25 73.3317 138.5 73.665 139V138.333H74.6649V138.417ZM73.7483 140.5C73.7483 139.667 73.0817 139.167 72.4151 139.167C71.6652 139.167 71.0819 139.75 71.0819 140.5C71.0819 141.333 71.6652 141.916 72.4151 141.916C73.0817 141.916 73.7483 141.333 73.7483 140.5Z" fill="black"/>
<path d="M79.829 138.417L77.1626 144.749H76.246L77.1626 142.5L75.4961 138.417H76.496L77.7459 141.416L78.9957 138.417H79.829Z" fill="black"/>
<path d="M83.9963 141.083H81.4132L80.83 142.666H79.8301L82.2465 136.333H83.2464L85.6628 142.666H84.6629L83.9963 141.083ZM83.663 140.25L82.6631 137.5L81.6632 140.25H83.663Z" fill="black"/>
<path d="M88.3292 139.167H87.4126V142.666H86.496V139.167H85.7461V138.417H86.496V136.834H87.4126V138.417H88.3292V139.167Z" fill="black"/>
<path d="M94.1596 136.333V142.666H93.2431V139.916H90.3267V142.666H89.4102V136.333H90.3267V139.083H93.2431V136.333H94.1596Z" fill="black"/>
<path d="M95.3301 140.5C95.3301 139.167 96.33 138.25 97.5798 138.25C98.8297 138.25 99.8296 139.083 99.8296 140.5C99.8296 141.833 98.8297 142.75 97.5798 142.75C96.33 142.75 95.3301 141.833 95.3301 140.5ZM98.913 140.5C98.913 139.667 98.3298 139.083 97.5798 139.083C96.8299 139.083 96.2467 139.667 96.2467 140.5C96.2467 141.333 96.8299 141.917 97.5798 141.917C98.2464 141.917 98.913 141.333 98.913 140.5Z" fill="black"/>
<path d="M107.579 140.25V142.667H106.663V140.25C106.663 139.584 106.329 139.167 105.746 139.167C105.163 139.167 104.746 139.584 104.663 140.25V142.667H103.746V140.25C103.746 139.584 103.413 139.167 102.83 139.167C102.247 139.167 101.663 139.5 101.663 140.417V142.75H100.83V138.5H101.747V139.167C101.913 138.667 102.497 138.417 103.08 138.417C103.663 138.417 104.246 138.75 104.496 139.25C104.913 138.5 105.58 138.417 105.996 138.417C106.996 138.334 107.579 139 107.579 140.25Z" fill="black"/>
<path d="M112.994 140.917H109.578C109.661 141.583 110.245 141.917 110.911 141.917C111.411 141.917 111.911 141.667 112.078 141.333L112.828 141.667C112.411 142.416 111.661 142.75 110.828 142.75C109.578 142.75 108.578 141.833 108.578 140.5C108.578 139.167 109.578 138.25 110.828 138.25C112.078 138.25 112.994 139.083 112.994 140.5C112.994 140.583 112.994 140.75 112.994 140.917ZM112.078 140.167C111.994 139.5 111.494 139.167 110.828 139.167C110.161 139.167 109.661 139.5 109.578 140.167H112.078Z" fill="black"/>
<path d="M186.828 103.917H184.911V109.333H183.995V103.917H182.078V103.083H186.744V103.917H186.828Z" fill="black"/>
<path d="M190.914 107.583H187.498C187.581 108.25 188.165 108.583 188.831 108.583C189.331 108.583 189.831 108.333 189.998 108L190.748 108.333C190.331 109.083 189.581 109.417 188.748 109.417C187.498 109.417 186.498 108.5 186.498 107.167C186.498 105.834 187.498 104.917 188.748 104.917C189.998 104.917 190.914 105.75 190.914 107.167C190.914 107.25 190.914 107.417 190.914 107.583ZM190.081 106.833C189.998 106.167 189.498 105.834 188.831 105.834C188.165 105.834 187.665 106.167 187.581 106.833H190.081Z" fill="black"/>
<path d="M191.994 102.75H192.911V109.333H191.994V102.75Z" fill="black"/>
<path d="M198.328 107.583H194.912C194.995 108.25 195.579 108.583 196.245 108.583C196.745 108.583 197.245 108.333 197.412 108L198.162 108.333C197.745 109.083 196.995 109.417 196.162 109.417C194.912 109.417 193.912 108.5 193.912 107.167C193.912 105.834 194.912 104.917 196.162 104.917C197.412 104.917 198.328 105.75 198.328 107.167C198.328 107.25 198.328 107.417 198.328 107.583ZM197.412 106.833C197.328 106.167 196.828 105.834 196.162 105.834C195.495 105.834 194.995 106.167 194.912 106.833H197.412Z" fill="black"/>
<path d="M205.575 105.083L203.992 109.333H203.242L202.158 106.25L201.075 109.333H200.325L198.742 105.083H199.742L200.742 108L201.742 105.083H202.575L203.575 108L204.575 105.083H205.575Z" fill="black"/>
<path d="M205.994 107.167C205.994 105.834 206.994 104.917 208.244 104.917C209.494 104.917 210.494 105.75 210.494 107.167C210.494 108.5 209.494 109.417 208.244 109.417C207.077 109.417 205.994 108.5 205.994 107.167ZM209.577 107.167C209.577 106.334 208.994 105.75 208.244 105.75C207.494 105.75 206.911 106.334 206.911 107.167C206.911 108 207.494 108.583 208.244 108.583C208.994 108.583 209.577 108 209.577 107.167Z" fill="black"/>
<path d="M214.41 105.084L214.244 105.917C213.994 105.834 213.827 105.75 213.577 105.75C212.827 105.75 212.411 106.583 212.411 107.75V109.25H211.494V105H212.411V106C212.661 105.25 213.077 104.917 213.577 104.917C213.994 105 214.244 105 214.41 105.084Z" fill="black"/>
<path d="M217.91 109.333L216.077 107.333V109.333H215.16V102.75H216.077V106.5L217.493 105.083H218.743L216.91 106.916L219.16 109.333H217.91Z" fill="black"/>
<path d="M219.58 103.5C219.58 103.167 219.83 102.917 220.163 102.917C220.497 102.917 220.747 103.167 220.747 103.5C220.747 103.833 220.497 104.083 220.163 104.083C219.83 104.083 219.58 103.833 219.58 103.5ZM219.747 105.083H220.663V109.333H219.747V105.083Z" fill="black"/>
<path d="M225.995 106.917V109.333H225.078V106.917C225.078 106.25 224.662 105.834 224.079 105.834C223.495 105.834 222.829 106.167 222.829 107V109.25H221.912V105H222.829V105.667C223.079 105.167 223.745 104.917 224.245 104.917C225.328 105 225.995 105.667 225.995 106.917Z" fill="black"/>
<path d="M231.492 105.084V108.75C231.492 110.75 230.576 111.5 229.159 111.5C228.326 111.5 227.576 111.083 227.159 110.333L227.909 109.916C228.159 110.333 228.659 110.666 229.076 110.666C229.992 110.666 230.492 110.166 230.492 108.833V108.75C230.159 109.25 229.576 109.5 228.993 109.5C227.826 109.5 226.826 108.583 226.826 107.25C226.826 105.917 227.826 105 228.909 105C229.493 105 230.076 105.25 230.409 105.75V105.167H231.492V105.084ZM230.576 107.167C230.576 106.333 229.909 105.833 229.243 105.833C228.493 105.833 227.909 106.417 227.909 107.167C227.909 108 228.493 108.583 229.243 108.583C229.909 108.583 230.576 108 230.576 107.167Z" fill="black"/>
<path d="M232.58 106.166C232.58 104.417 233.997 102.917 235.83 102.917C236.83 102.917 237.663 103.333 238.246 104.083L237.58 104.667C237.163 104.167 236.58 103.833 235.83 103.833C234.58 103.833 233.58 104.917 233.58 106.166C233.58 107.5 234.58 108.499 235.83 108.499C236.496 108.499 237.163 108.166 237.58 107.666L238.246 108.25C237.663 108.916 236.83 109.416 235.83 109.416C233.997 109.416 232.58 108 232.58 106.166Z" fill="black"/>
<path d="M239.16 102.75H240.077V109.333H239.16V102.75Z" fill="black"/>
<path d="M241.158 107.167C241.158 105.834 242.158 104.917 243.408 104.917C244.658 104.917 245.658 105.75 245.658 107.167C245.658 108.5 244.658 109.417 243.408 109.417C242.158 109.417 241.158 108.5 241.158 107.167ZM244.741 107.167C244.741 106.334 244.158 105.75 243.408 105.75C242.658 105.75 242.075 106.334 242.075 107.167C242.075 108 242.658 108.583 243.408 108.583C244.158 108.583 244.741 108 244.741 107.167Z" fill="black"/>
<path d="M246.408 108H247.241C247.241 108.333 247.575 108.667 247.991 108.667C248.491 108.667 248.825 108.417 248.825 108.083C248.825 107.833 248.575 107.667 248.241 107.583L247.658 107.417C246.825 107.167 246.492 106.833 246.492 106.167C246.492 105.5 247.158 104.917 247.991 104.917C248.741 104.917 249.491 105.334 249.491 106.167H248.658C248.658 105.834 248.325 105.667 247.991 105.667C247.575 105.667 247.325 105.917 247.325 106.167C247.325 106.417 247.575 106.583 247.825 106.667L248.491 106.833C249.408 107.083 249.575 107.667 249.575 108.083C249.575 108.917 248.741 109.417 247.908 109.417C247.241 109.417 246.408 108.917 246.408 108Z" fill="black"/>
<path d="M254.743 105.083V109.333H253.826V108.666C253.577 109.166 252.91 109.416 252.41 109.416C251.327 109.416 250.66 108.75 250.66 107.5V105.083H251.577V107.5C251.577 108.167 251.993 108.583 252.577 108.583C253.16 108.583 253.826 108.25 253.826 107.417V105.083H254.743Z" fill="black"/>
<path d="M258.912 105.084L258.746 105.917C258.496 105.834 258.329 105.75 258.079 105.75C257.329 105.75 256.913 106.583 256.913 107.75V109.25H255.996V105H256.913V106C257.163 105.25 257.579 104.917 258.079 104.917C258.496 105 258.746 105 258.912 105.084Z" fill="black"/>
<path d="M263.58 107.583H260.164C260.247 108.25 260.831 108.583 261.497 108.583C261.997 108.583 262.497 108.333 262.664 108L263.414 108.333C262.997 109.083 262.247 109.417 261.414 109.417C260.164 109.417 259.164 108.5 259.164 107.167C259.164 105.834 260.164 104.917 261.414 104.917C262.664 104.917 263.58 105.75 263.58 107.167C263.664 107.25 263.58 107.417 263.58 107.583ZM262.747 106.833C262.664 106.167 262.164 105.834 261.497 105.834C260.831 105.834 260.331 106.167 260.247 106.833H262.747Z" fill="black"/>
<path d="M264.328 108H265.161C265.161 108.333 265.495 108.667 265.911 108.667C266.411 108.667 266.745 108.417 266.745 108.083C266.745 107.833 266.495 107.667 266.161 107.583L265.578 107.417C264.745 107.167 264.411 106.833 264.411 106.167C264.411 105.5 265.078 104.917 265.911 104.917C266.661 104.917 267.411 105.334 267.411 106.167H266.578C266.578 105.834 266.245 105.667 265.911 105.667C265.495 105.667 265.245 105.917 265.245 106.167C265.245 106.417 265.495 106.583 265.745 106.667L266.411 106.833C267.328 107.083 267.494 107.667 267.494 108.083C267.494 108.917 266.661 109.417 265.828 109.417C265.161 109.417 264.411 108.917 264.328 108Z" fill="black"/>
<path d="M512.914 72.8329C512.914 71.0831 514.331 69.5833 516.164 69.5833C517.164 69.5833 517.997 69.9999 518.58 70.7498L517.914 71.3331C517.497 70.8331 516.914 70.4998 516.164 70.4998C514.914 70.4998 513.914 71.583 513.914 72.8329C513.914 74.1661 514.914 75.166 516.164 75.166C516.83 75.166 517.497 74.8327 517.914 74.3327L518.58 74.916C517.997 75.5826 517.164 76.0826 516.164 76.0826C514.331 76.0826 512.914 74.666 512.914 72.8329Z" fill="black"/>
<path d="M519.494 69.4167H520.411V75.9994H519.494V69.4167Z" fill="black"/>
<path d="M521.498 73.8333C521.498 72.5001 522.498 71.5835 523.748 71.5835C524.998 71.5835 525.998 72.4167 525.998 73.8333C525.998 75.1665 524.998 76.083 523.748 76.083C522.498 76.083 521.498 75.1665 521.498 73.8333ZM525.081 73.8333C525.081 73 524.498 72.4167 523.748 72.4167C522.998 72.4167 522.415 73 522.415 73.8333C522.415 74.6665 522.998 75.2498 523.748 75.2498C524.498 75.2498 525.081 74.6665 525.081 73.8333Z" fill="black"/>
<path d="M526.75 74.6665H527.583C527.583 74.9998 527.917 75.3331 528.333 75.3331C528.833 75.3331 529.166 75.0831 529.166 74.7498C529.166 74.4999 528.916 74.3332 528.583 74.2499L528 74.0832C527.167 73.8333 526.833 73.5 526.833 72.8334C526.833 72.1668 527.5 71.5835 528.333 71.5835C529.083 71.5835 529.833 72.0001 529.833 72.8334H529C529 72.5001 528.666 72.3334 528.333 72.3334C527.917 72.3334 527.667 72.5834 527.667 72.8334C527.667 73.0833 527.917 73.25 528.167 73.3333L528.833 73.5C529.75 73.7499 529.916 74.3332 529.916 74.7498C529.916 75.5831 529.083 76.083 528.25 76.083C527.583 76.083 526.75 75.5831 526.75 74.6665Z" fill="black"/>
<path d="M535.752 71.6668C535.752 72.6667 535.169 73.6666 533.836 73.6666H532.253V75.9996H531.336V69.667H533.836C535.169 69.667 535.752 70.6669 535.752 71.6668ZM534.836 71.6668C534.836 71.0835 534.502 70.5002 533.836 70.5002H532.253V72.75H533.752C534.502 72.8333 534.836 72.2501 534.836 71.6668Z" fill="black"/>
<path d="M540.665 71.7502V75.9998H539.748V75.3332C539.498 75.8331 538.832 76.0831 538.332 76.0831C537.249 76.0831 536.582 75.4165 536.582 74.1667V71.7502H537.499V74.1667C537.499 74.8332 537.915 75.2499 538.498 75.2499C539.082 75.2499 539.748 74.9166 539.748 74.0833V71.7502H540.665Z" fill="black"/>
<path d="M546.497 73.8329C546.497 75.1661 545.497 76.0827 544.33 76.0827C543.747 76.0827 543.164 75.8327 542.831 75.3328V75.9994H541.914V69.4167H542.831V72.3331C543.081 71.8332 543.747 71.5832 544.33 71.5832C545.58 71.6665 546.497 72.4998 546.497 73.8329ZM545.58 73.8329C545.58 72.9997 544.997 72.4998 544.247 72.4998C543.581 72.4998 542.914 72.9997 542.914 73.8329C542.914 74.6662 543.581 75.2495 544.247 75.2495C544.997 75.2495 545.58 74.6662 545.58 73.8329Z" fill="black"/>
<path d="M551.082 74.4165H548.499L547.916 75.9996H546.916L549.332 69.667H550.332L552.749 75.9996H551.749L551.082 74.4165ZM550.832 73.5832L549.832 70.8335L548.832 73.5832H550.832Z" fill="black"/>
<path d="M557.415 73.5833V75.9997H556.498V73.5833C556.498 72.9167 556.082 72.5001 555.498 72.5001C554.915 72.5001 554.249 72.8334 554.249 73.6666V75.9164H553.332V71.6668H554.249V72.3334C554.499 71.8335 555.165 71.5835 555.665 71.5835C556.748 71.6668 557.415 72.3334 557.415 73.5833Z" fill="black"/>
<path d="M562.413 71.7502L559.747 78.0829H558.83L559.747 75.8331L558.08 71.7502H559.08L560.33 74.7499L561.58 71.7502H562.413Z" fill="black"/>
<path d="M189.661 42.6662L189.078 38.0833L187.162 41.9996H186.328L184.412 38.0833L183.829 42.6662H182.912L183.662 36.3335H184.495L186.662 40.9163L188.828 36.3335H189.661L190.411 42.6662H189.661Z" fill="black"/>
<path d="M195.991 38.4164V42.666H195.074V41.9994C194.824 42.4993 194.158 42.7493 193.575 42.7493C192.408 42.7493 191.408 41.8327 191.408 40.4995C191.408 39.1663 192.408 38.2498 193.491 38.2498C194.075 38.2498 194.658 38.4997 194.991 38.9997V38.3331H195.991V38.4164ZM195.074 40.4995C195.074 39.6663 194.408 39.1663 193.741 39.1663C192.991 39.1663 192.408 39.7496 192.408 40.4995C192.408 41.3328 192.991 41.916 193.741 41.916C194.491 41.916 195.074 41.3328 195.074 40.4995Z" fill="black"/>
<path d="M197.08 41.3328H197.913C197.913 41.6661 198.247 41.9994 198.663 41.9994C199.163 41.9994 199.496 41.7494 199.496 41.4161C199.496 41.1661 199.247 40.9995 198.913 40.9161L198.33 40.7495C197.497 40.4995 197.163 40.1662 197.163 39.4996C197.163 38.833 197.83 38.2498 198.663 38.2498C199.413 38.2498 200.163 38.6664 200.163 39.4996H199.33C199.33 39.1663 198.997 38.9997 198.663 38.9997C198.247 38.9997 197.997 39.2496 197.997 39.4996C197.997 39.7496 198.247 39.9162 198.497 39.9996L199.163 40.1662C200.08 40.4162 200.246 40.9995 200.246 41.4161C200.246 42.2493 199.413 42.7493 198.58 42.7493C197.913 42.7493 197.08 42.2493 197.08 41.3328Z" fill="black"/>
<path d="M201.078 41.3328H201.911C201.911 41.6661 202.245 41.9994 202.661 41.9994C203.161 41.9994 203.495 41.7494 203.495 41.4161C203.495 41.1661 203.245 40.9995 202.911 40.9161L202.328 40.7495C201.495 40.4995 201.161 40.1662 201.161 39.4996C201.161 38.833 201.828 38.2498 202.661 38.2498C203.411 38.2498 204.161 38.6664 204.161 39.4996H203.328C203.328 39.1663 202.995 38.9997 202.661 38.9997C202.245 38.9997 201.995 39.2496 201.995 39.4996C201.995 39.7496 202.245 39.9162 202.495 39.9996L203.161 40.1662C204.078 40.4162 204.244 40.9995 204.244 41.4161C204.244 42.2493 203.411 42.7493 202.578 42.7493C201.911 42.7493 201.161 42.2493 201.078 41.3328Z" fill="black"/>
<path d="M205.248 39.4999C205.248 37.6668 206.665 36.2502 208.414 36.2502C209.248 36.2502 210.081 36.5835 210.581 37.0835L209.914 37.6668C209.498 37.3335 208.998 37.0835 208.414 37.0835C207.165 37.0835 206.165 38.1667 206.165 39.4166C206.165 40.7498 207.165 41.7497 208.414 41.7497C209.414 41.7497 210.248 41.1664 210.331 40.3331C210.331 40.2498 210.331 40.2498 210.331 40.1665H208.498V39.3332H211.331C211.331 41.583 210.164 42.6662 208.331 42.6662C206.665 42.7495 205.248 41.333 205.248 39.4999Z" fill="black"/>
<path d="M216.661 38.4169V42.6664H215.744V41.9998C215.494 42.4998 214.828 42.7498 214.245 42.7498C213.078 42.7498 212.078 41.8332 212.078 40.5C212.078 39.1668 213.078 38.2502 214.161 38.2502C214.745 38.2502 215.328 38.5002 215.661 39.0002V38.3336H216.661V38.4169ZM215.744 40.5C215.744 39.6668 215.078 39.1668 214.411 39.1668C213.661 39.1668 213.078 39.7501 213.078 40.5C213.078 41.3333 213.661 41.9165 214.411 41.9165C215.078 41.9165 215.744 41.3333 215.744 40.5Z" fill="black"/>
<path d="M220.165 39.1666H219.249V42.6662H218.332V39.1666H217.582V38.4167H218.332V36.8335H219.249V38.4167H220.165V39.1666Z" fill="black"/>
<path d="M224.993 40.2497V42.6661H224.076V40.2497C224.076 39.5831 223.66 39.1665 223.077 39.1665C222.493 39.1665 221.827 39.4998 221.827 40.333V42.6661H220.91V36.0835H221.827V39.0832C222.077 38.5832 222.743 38.3333 223.243 38.3333C224.326 38.3333 224.993 38.9999 224.993 40.2497Z" fill="black"/>
<path d="M230.33 40.9166H226.914C226.997 41.5832 227.581 41.9165 228.247 41.9165C228.747 41.9165 229.247 41.6665 229.414 41.3333L230.164 41.6666C229.747 42.4165 228.997 42.7498 228.164 42.7498C226.914 42.7498 225.914 41.8332 225.914 40.5C225.914 39.1668 226.914 38.2502 228.164 38.2502C229.414 38.2502 230.33 39.0835 230.33 40.5C230.33 40.5833 230.33 40.75 230.33 40.9166ZM229.497 40.1667C229.414 39.5001 228.914 39.1668 228.247 39.1668C227.581 39.1668 227.081 39.5001 226.997 40.1667H229.497Z" fill="black"/>
<path d="M234.244 38.4169L234.078 39.2501C233.828 39.1668 233.661 39.0835 233.411 39.0835C232.661 39.0835 232.245 39.9167 232.245 41.0833V42.6664H231.328V38.4169H232.245V39.3335C232.495 38.5835 232.911 38.2502 233.411 38.2502C233.828 38.3336 234.078 38.3336 234.244 38.4169Z" fill="black"/>
<path d="M1050 158.917H0V159.75H1050V158.917Z" fill="black"/>
<path d="M23.5868 198C24.67 199.083 25.4199 200.75 24.0867 202.083C23.5868 202.583 22.8369 202.916 21.9203 202.583L22.2536 201.75C22.7535 201.916 23.2535 201.833 23.5035 201.5C24.0867 200.916 23.9201 199.75 23.1702 199C23.2535 199.5 23.0868 200 22.6702 200.5C21.837 201.333 20.5871 201.25 19.8372 200.583C19.0873 199.833 19.0039 198.583 19.9205 197.667C20.9204 196.5 22.3369 196.834 23.5868 198ZM22.2536 198.167C21.7536 197.667 21.087 197.667 20.5871 198.167C20.0872 198.667 20.0038 199.417 20.5038 199.833C20.9204 200.25 21.6703 200.25 22.1703 199.833C22.5869 199.333 22.6702 198.583 22.2536 198.167Z" fill="black"/>
<path d="M24.7539 197.667L27.0037 195.417L27.5869 196L25.3372 198.25L24.7539 197.667Z" fill="black"/>
<path d="M31.0841 192.5C31.834 193.25 31.7507 194.417 30.9174 195.25C30.3342 195.833 29.5009 196 28.6677 195.75L28.8343 194.917C29.4176 195.083 29.9175 195 30.2508 194.667C30.7508 194.167 30.8341 193.5 30.4175 193.083C30.0009 192.667 29.3343 192.667 28.8343 193.167L28.4177 193.583L27.9178 193.083L28.2511 192.75C28.6677 192.333 28.751 191.75 28.3344 191.417C28.0011 191.084 27.5011 191.167 27.1678 191.5C26.9179 191.75 26.7512 192.25 26.8345 192.583L26.0846 192.667C25.918 192.083 26.1679 191.334 26.6679 190.834C27.4178 190.084 28.3344 190 29.0843 190.75C29.5009 191.167 29.5842 191.667 29.4176 192.167C29.8342 191.917 30.5841 192 31.0841 192.5Z" fill="black"/>
<path d="M31.252 191.167L33.5017 188.917L34.085 189.5L31.8352 191.75L31.252 191.167Z" fill="black"/>
<path d="M38.0879 186.75L38.6712 187.333L35.9215 190.083L35.5882 189.75L35.2549 186.25C35.1716 185.667 35.0882 185.167 34.8383 185C34.4217 184.583 33.9217 184.667 33.5051 185.083C33.0885 185.5 33.0051 186.083 33.3384 186.5L32.6718 186.917C32.0886 186.167 32.1719 185.167 32.9218 184.417C33.7551 183.584 34.7549 183.584 35.5049 184.333C35.8382 184.667 36.0881 185.333 36.0881 185.917L36.3381 188.333L38.0879 186.75Z" fill="black"/>
<path d="M37.2549 184.583C36.0051 183.333 35.4218 182.083 36.5883 180.833C37.8382 179.584 39.0881 180.25 40.3379 181.5C41.5045 182.667 42.1711 184 41.0045 185.25C39.7547 186.416 38.4215 185.75 37.2549 184.583ZM39.7547 182.083C38.9214 181.25 38.0048 180.667 37.2549 181.417C36.505 182.167 37.0883 183.083 37.9215 183.916C38.7548 184.75 39.6713 185.333 40.4213 184.583C41.0879 183.916 40.5879 183 39.7547 182.083Z" fill="black"/>
<path d="M45.2578 179.583L45.8411 180.167L43.0914 182.916L42.7581 182.583L42.4248 179.083C42.3415 178.5 42.2582 178 42.0082 177.834C41.5916 177.417 41.0916 177.5 40.675 177.917C40.2584 178.333 40.1751 178.917 40.5083 179.333L39.8418 179.75C39.2585 179 39.3418 178 40.0917 177.25C40.925 176.417 41.9249 176.417 42.6748 177.167C43.0081 177.5 43.2581 178.167 43.2581 178.75L43.508 181.167L45.2578 179.583Z" fill="black"/>
<path d="M44.503 177.333C43.2531 176.083 42.6698 174.833 43.8364 173.583C45.0862 172.334 46.3361 173 47.586 174.25C48.7525 175.417 49.4191 176.75 48.2526 178C47.0027 179.166 45.6695 178.583 44.503 177.333ZM46.9194 174.917C46.0861 174.083 45.1696 173.5 44.4197 174.25C43.6697 175 44.253 175.917 45.0862 176.75C45.9195 177.583 46.8361 178.166 47.586 177.416C48.3359 176.666 47.7526 175.75 46.9194 174.917Z" fill="black"/>
<path d="M224.664 199.583L224.08 200.166L224.914 201L224.247 201.666L223.414 200.833L221.247 202.999L221.081 202.833L220.414 197L220.581 196.833L223.33 199.583L223.914 199L224.664 199.583ZM222.83 200.25L221.497 198.917L221.747 201.333L222.83 200.25Z" fill="black"/>
<path d="M224.412 197.916L226.662 195.667L227.245 196.25L224.995 198.5L224.412 197.916Z" fill="black"/>
<path d="M230.833 192.333C231.749 193.25 231.666 194.416 230.749 195.333C230 196.083 229.083 196.166 228.25 195.916L228.5 195.083C229 195.333 229.666 195.25 230.166 194.75C230.666 194.25 230.749 193.5 230.249 193C229.75 192.5 229 192.583 228.5 193.083C228.166 193.416 227.916 193.916 227.916 194.5L227.25 194.583L225.5 192.083L227.75 189.833L228.333 190.417L226.583 192.167L227.5 193.583C227.583 193.166 227.75 192.75 228.083 192.417C228.916 191.5 230 191.5 230.833 192.333Z" fill="black"/>
<path d="M231.164 191.167L233.414 188.917L233.997 189.5L231.747 191.75L231.164 191.167Z" fill="black"/>
<path d="M237.913 186.75L238.497 187.333L235.747 190.083L235.414 189.75L235.08 186.25C234.997 185.667 234.914 185.167 234.664 185C234.247 184.583 233.747 184.667 233.247 185.083C232.831 185.5 232.747 186.083 233.081 186.5L232.414 186.917C231.831 186.167 231.914 185.167 232.664 184.417C233.497 183.584 234.497 183.584 235.247 184.333C235.58 184.667 235.83 185.333 235.83 185.917L236.08 188.333L237.913 186.75Z" fill="black"/>
<path d="M237.163 184.583C235.913 183.333 235.33 182.083 236.497 180.833C237.746 179.584 238.996 180.25 240.246 181.5C241.413 182.667 242.079 184 240.913 185.25C239.663 186.416 238.33 185.75 237.163 184.583ZM239.58 182.083C238.746 181.25 237.83 180.667 237.08 181.417C236.33 182.167 236.913 183.083 237.746 183.916C238.58 184.75 239.496 185.333 240.246 184.583C240.996 183.916 240.496 183 239.58 182.083Z" fill="black"/>
<path d="M245.166 179.583L245.749 180.167L243 182.916L242.666 182.583L242.333 179.083C242.25 178.5 242.166 178 241.916 177.834C241.5 177.417 241 177.5 240.583 177.917C240.167 178.333 240.083 178.917 240.417 179.333L239.75 179.75C239.167 179 239.25 178 240 177.25C240.833 176.417 241.833 176.417 242.583 177.167C242.916 177.5 243.166 178.167 243.166 178.75L243.416 181.167L245.166 179.583Z" fill="black"/>
<path d="M244.413 177.333C243.163 176.083 242.58 174.833 243.747 173.583C244.996 172.334 246.246 173 247.496 174.25C248.663 175.417 249.329 176.75 248.163 178C246.83 179.249 245.58 178.583 244.413 177.333ZM246.83 174.917C245.996 174.083 245.08 173.5 244.33 174.25C243.58 175 244.163 175.917 244.996 176.75C245.83 177.583 246.746 178.166 247.496 177.416C248.246 176.666 247.663 175.75 246.83 174.917Z" fill="black"/>
<path d="M267.082 200.25L271.331 204.5L270.665 205.166L267.249 201.75L266.665 203L266.082 202.417L267.082 200.25Z" fill="black"/>
<path d="M274.248 199.167C274.997 199.917 274.914 201.166 273.998 202.083C273.081 203 271.831 203.166 271.081 202.333C270.498 201.75 270.415 201 270.665 200.333C270.248 200.416 269.831 200.333 269.415 200C268.831 199.417 268.831 198.417 269.581 197.667C270.331 196.917 271.248 196.917 271.914 197.5C272.248 197.833 272.331 198.333 272.248 198.75C272.914 198.5 273.664 198.667 274.248 199.167ZM270.165 199.5C270.498 199.833 270.915 199.75 271.248 199.417C271.581 199.083 271.581 198.583 271.331 198.333C270.998 198 270.498 198.083 270.165 198.333C269.831 198.667 269.831 199.167 270.165 199.5ZM273.498 199.833C272.998 199.333 272.248 199.417 271.748 199.917C271.248 200.416 271.164 201.166 271.581 201.666C271.998 202.083 272.748 202.083 273.331 201.5C273.914 201 273.914 200.25 273.498 199.833Z" fill="black"/>
<path d="M274.418 197.916L276.668 195.667L277.251 196.25L275.001 198.5L274.418 197.916Z" fill="black"/>
<path d="M280.831 192.333C281.747 193.25 281.664 194.416 280.747 195.333C279.998 196.083 279.081 196.166 278.248 195.916L278.498 195.083C278.998 195.333 279.664 195.25 280.164 194.75C280.664 194.25 280.747 193.5 280.248 193C279.748 192.5 278.998 192.583 278.498 193.083C278.164 193.416 277.914 193.916 277.914 194.5L277.248 194.583L275.498 192.083L277.748 189.833L278.331 190.417L276.581 192.167L277.498 193.583C277.581 193.166 277.748 192.75 278.081 192.417C278.914 191.5 279.998 191.5 280.831 192.333Z" fill="black"/>
<path d="M281.166 191.167L283.416 188.917L283.999 189.5L281.749 191.75L281.166 191.167Z" fill="black"/>
<path d="M287.917 186.75L288.501 187.333L285.751 190.083L285.418 189.75L285.084 186.25C285.001 185.667 284.918 185.167 284.668 185C284.251 184.583 283.751 184.667 283.251 185.083C282.835 185.5 282.751 186.083 283.085 186.5L282.418 186.917C281.835 186.167 281.918 185.167 282.668 184.417C283.501 183.584 284.501 183.584 285.251 184.333C285.584 184.667 285.834 185.333 285.834 185.917L286.084 188.333L287.917 186.75Z" fill="black"/>
<path d="M287.161 184.583C285.911 183.333 285.328 182.083 286.495 180.833C287.744 179.584 288.994 180.25 290.244 181.5C291.411 182.667 292.077 184 290.911 185.25C289.661 186.416 288.328 185.75 287.161 184.583ZM289.578 182.083C288.744 181.25 287.828 180.667 287.078 181.417C286.328 182.167 286.911 183.083 287.744 183.916C288.578 184.75 289.494 185.333 290.244 184.583C290.994 183.916 290.494 183 289.578 182.083Z" fill="black"/>
<path d="M295.164 179.583L295.747 180.167L292.998 182.916L292.664 182.583L292.331 179.083C292.248 178.5 292.164 178 291.914 177.834C291.498 177.417 290.998 177.5 290.581 177.917C290.165 178.333 290.081 178.917 290.415 179.333L289.748 179.75C289.165 179 289.248 178 289.998 177.25C290.831 176.417 291.831 176.417 292.581 177.167C292.914 177.5 293.164 178.167 293.164 178.75L293.414 181.167L295.164 179.583Z" fill="black"/>
<path d="M294.415 177.333C293.165 176.083 292.582 174.833 293.748 173.583C294.998 172.334 296.248 173 297.498 174.25C298.665 175.417 299.331 176.75 298.165 178C296.831 179.249 295.582 178.583 294.415 177.333ZM296.832 174.917C295.998 174.083 295.082 173.5 294.332 174.25C293.582 175 294.165 175.917 294.998 176.75C295.832 177.583 296.748 178.166 297.498 177.416C298.248 176.666 297.665 175.75 296.832 174.917Z" fill="black"/>
<path d="M320.751 196.667L325.083 201L324.417 201.666L321.001 198.25L320.417 199.5L319.834 198.917L320.751 196.667Z" fill="black"/>
<path d="M324.254 198.083L326.504 195.833L327.087 196.417L324.837 198.667L324.254 198.083Z" fill="black"/>
<path d="M330.833 192.417C331.583 193.166 331.666 194.416 330.75 195.333C329.75 196.333 328.417 196.166 327.083 194.833C326 193.75 325.25 192.083 326.5 190.75C327 190.25 327.75 189.917 328.667 190.25L328.333 191.083C327.833 190.917 327.333 191 327.083 191.333C326.5 191.917 326.667 193.083 327.5 193.833C327.417 193.333 327.5 192.75 328 192.333C328.833 191.583 330.083 191.667 330.833 192.417ZM330.166 193.083C329.75 192.667 329 192.667 328.5 193.083C328 193.583 327.917 194.333 328.333 194.75C328.833 195.25 329.5 195.166 330 194.75C330.583 194.25 330.666 193.5 330.166 193.083Z" fill="black"/>
<path d="M331.17 191.167L333.42 188.917L334.003 189.5L331.753 191.75L331.17 191.167Z" fill="black"/>
<path d="M337.916 186.75L338.499 187.333L335.75 190.083L335.416 189.75L335.083 186.25C335 185.667 334.916 185.167 334.666 185C334.25 184.583 333.75 184.667 333.333 185.083C332.917 185.5 332.833 186.083 333.167 186.5L332.5 186.917C331.917 186.167 332 185.167 332.75 184.417C333.583 183.584 334.583 183.584 335.333 184.333C335.666 184.667 335.916 185.333 335.916 185.917L336.166 188.333L337.916 186.75Z" fill="black"/>
<path d="M337.165 184.582C335.915 183.332 335.332 182.083 336.498 180.833C337.748 179.583 338.998 180.249 340.248 181.499C341.415 182.666 342.081 183.999 340.915 185.249C339.665 186.415 338.332 185.749 337.165 184.582ZM339.582 182.083C338.748 181.249 337.832 180.666 337.082 181.416C336.332 182.166 336.915 183.082 337.748 183.916C338.582 184.749 339.498 185.332 340.248 184.582C340.998 183.916 340.498 182.999 339.582 182.083Z" fill="black"/>
<path d="M345.165 179.583L345.749 180.167L342.999 182.916L342.666 182.583L342.332 179.083C342.249 178.5 342.166 178 341.916 177.834C341.499 177.417 340.999 177.5 340.499 177.917C340.083 178.333 339.999 178.917 340.333 179.333L339.666 179.75C339.083 179 339.166 178 339.916 177.25C340.749 176.417 341.749 176.417 342.499 177.167C342.832 177.5 343.082 178.167 343.082 178.75L343.332 181.167L345.165 179.583Z" fill="black"/>
<path d="M344.415 177.333C343.165 176.083 342.582 174.833 343.748 173.583C344.998 172.334 346.248 173 347.498 174.25C348.665 175.417 349.331 176.75 348.165 178C346.831 179.166 345.582 178.583 344.415 177.333ZM346.832 174.917C345.998 174.083 345.082 173.5 344.332 174.25C343.582 175 344.165 175.917 344.998 176.75C345.832 177.583 346.748 178.166 347.498 177.416C348.248 176.666 347.665 175.75 346.832 174.917Z" fill="black"/>
<path d="M71.834 203L72.4173 203.583L69.6676 206.333L69.3343 206L69.001 202.5C68.9177 201.917 68.8343 201.417 68.5844 201.25C68.1677 200.833 67.6678 200.917 67.2512 201.333C66.8345 201.75 66.7512 202.333 67.0845 202.75L66.4179 203.167C65.8347 202.417 65.918 201.417 66.6679 200.667C67.5011 199.834 68.501 199.834 69.251 200.583C69.5843 200.917 69.8342 201.583 69.8342 202.167L70.0842 204.583L71.834 203Z" fill="black"/>
<path d="M74.588 199C75.3379 199.75 75.2546 200.916 74.4213 201.75C73.8381 202.333 73.0048 202.499 72.1716 202.25L72.3382 201.416C72.9215 201.583 73.4214 201.5 73.7547 201.166C74.2547 200.666 74.338 200 73.9214 199.583C73.5048 199.166 72.8382 199.167 72.3382 199.666L71.9216 200.083L71.4217 199.583L71.755 199.25C72.1716 198.833 72.2549 198.25 71.8383 197.917C71.505 197.583 71.005 197.667 70.6717 198C70.4218 198.25 70.2551 198.75 70.3384 199.083L69.5885 199.166C69.4219 198.583 69.6718 197.833 70.1718 197.333C70.9217 196.583 71.8383 196.5 72.5882 197.25C73.0048 197.667 73.0881 198.167 72.9215 198.667C73.3381 198.417 74.088 198.5 74.588 199Z" fill="black"/>
<path d="M74.75 197.667L76.9998 195.417L77.583 196L75.3333 198.25L74.75 197.667Z" fill="black"/>
<path d="M81.0841 192.5C81.834 193.25 81.7507 194.417 80.9174 195.25C80.3342 195.833 79.5009 196 78.6677 195.75L78.8343 194.917C79.4176 195.083 79.9175 195 80.2508 194.667C80.7508 194.167 80.8341 193.5 80.4175 193.083C80.0009 192.667 79.3343 192.667 78.8343 193.167L78.4177 193.583L77.9178 193.083L78.2511 192.75C78.6677 192.333 78.751 191.75 78.3344 191.417C78.0011 191.084 77.5011 191.167 77.1678 191.5C76.9179 191.75 76.7512 192.25 76.8345 192.583L76.0846 192.667C75.918 192.083 76.1679 191.334 76.6679 190.834C77.4178 190.084 78.3344 190 79.0843 190.75C79.5009 191.167 79.5842 191.667 79.4176 192.167C79.8342 191.917 80.5841 192 81.0841 192.5Z" fill="black"/>
<path d="M81.252 191.167L83.5017 188.917L84.085 189.5L81.8352 191.75L81.252 191.167Z" fill="black"/>
<path d="M88.084 186.75L88.6673 187.333L85.9176 190.083L85.5843 189.75L85.251 186.25C85.1677 185.667 85.0843 185.167 84.8344 185C84.4177 184.583 83.9178 184.667 83.5012 185.083C83.0845 185.5 83.0012 186.083 83.3345 186.5L82.6679 186.917C82.0847 186.167 82.168 185.167 82.9179 184.417C83.7511 183.584 84.751 183.584 85.501 184.333C85.8343 184.667 86.0842 185.333 86.0842 185.917L86.3342 188.333L88.084 186.75Z" fill="black"/>
<path d="M87.253 184.583C86.0031 183.333 85.4198 182.083 86.5864 180.833C87.8362 179.584 89.0861 180.25 90.336 181.5C91.5025 182.667 92.1691 184 91.0026 185.25C89.7527 186.416 88.4195 185.75 87.253 184.583ZM89.7527 182.083C88.9195 181.25 88.0029 180.667 87.253 181.417C86.5031 182.167 87.0863 183.083 87.9196 183.916C88.7528 184.75 89.6694 185.333 90.4193 184.583C91.0859 183.916 90.586 183 89.7527 182.083Z" fill="black"/>
<path d="M95.25 179.583L95.8333 180.167L93.0836 182.916L92.7503 182.583L92.417 179.083C92.3337 178.5 92.2503 178 92.0004 177.834C91.5837 177.417 91.0838 177.5 90.6672 177.917C90.2506 178.333 90.1672 178.917 90.5005 179.333L89.8339 179.75C89.2507 179 89.334 178 90.0839 177.25C90.9172 176.417 91.917 176.417 92.667 177.167C93.0003 177.5 93.2502 178.167 93.2502 178.75L93.5002 181.167L95.25 179.583Z" fill="black"/>
<path d="M94.501 177.333C93.2512 176.083 92.6679 174.833 93.8344 173.583C95.0843 172.334 96.3342 173 97.584 174.25C98.7506 175.417 99.4172 176.75 98.2506 178C97.0007 179.166 95.6676 178.583 94.501 177.333ZM96.9174 174.917C96.0842 174.083 95.1676 173.5 94.4177 174.25C93.6678 175 94.2511 175.917 95.0843 176.75C95.9175 177.583 96.8341 178.166 97.584 177.416C98.334 176.666 97.7507 175.75 96.9174 174.917Z" fill="black"/>
<path d="M124.085 199.25C124.835 200 124.918 201.25 124.002 202.166C123.002 203.166 121.668 203 120.335 201.666C119.252 200.583 118.502 198.917 119.752 197.584C120.252 197.084 121.002 196.75 121.918 197.084L121.585 197.917C121.085 197.75 120.585 197.834 120.335 198.167C119.752 198.75 119.919 199.917 120.752 200.667C120.669 200.167 120.752 199.583 121.252 199.167C122.085 198.5 123.335 198.5 124.085 199.25ZM123.418 199.917C123.002 199.5 122.252 199.5 121.752 199.917C121.252 200.417 121.169 201.167 121.585 201.583C122.085 202.083 122.752 202 123.252 201.583C123.835 201.083 123.918 200.417 123.418 199.917Z" fill="black"/>
<path d="M124.418 198L126.668 195.75L127.251 196.333L125.001 198.583L124.418 198Z" fill="black"/>
<path d="M131.503 192.833L130.92 193.416L131.753 194.25L131.087 194.916L130.254 194.083L128.087 196.249L127.921 196.083L127.254 190.25L127.421 190.083L130.17 192.833L130.754 192.25L131.503 192.833ZM129.67 193.5L128.337 192.167L128.587 194.583L129.67 193.5Z" fill="black"/>
<path d="M131.252 191.167L133.502 188.917L134.085 189.5L131.835 191.75L131.252 191.167Z" fill="black"/>
<path d="M138.084 186.75L138.667 187.333L135.918 190.083L135.584 189.75L135.251 186.25C135.168 185.667 135.084 185.167 134.834 185C134.418 184.583 133.918 184.667 133.501 185.083C133.085 185.5 133.001 186.083 133.335 186.5L132.668 186.917C132.085 186.167 132.168 185.167 132.918 184.417C133.751 183.584 134.751 183.584 135.501 184.333C135.834 184.667 136.084 185.333 136.084 185.917L136.334 188.333L138.084 186.75Z" fill="black"/>
<path d="M137.251 184.583C136.001 183.333 135.418 182.083 136.584 180.833C137.834 179.584 139.084 180.25 140.334 181.5C141.501 182.667 142.167 184 141.001 185.25C139.751 186.416 138.418 185.75 137.251 184.583ZM139.751 182.083C138.918 181.25 138.001 180.667 137.251 181.417C136.501 182.167 137.084 183.083 137.918 183.916C138.751 184.75 139.667 185.333 140.417 184.583C141.084 183.916 140.584 183 139.751 182.083Z" fill="black"/>
<path d="M145.251 179.583L145.835 180.167L143.085 182.916L142.752 182.583L142.418 179.083C142.335 178.5 142.252 178 142.002 177.834C141.585 177.417 141.085 177.5 140.585 177.917C140.169 178.333 140.085 178.917 140.419 179.333L139.752 179.75C139.169 179 139.252 178 140.002 177.25C140.835 176.417 141.835 176.417 142.585 177.167C142.918 177.5 143.168 178.167 143.168 178.75L143.418 181.167L145.251 179.583Z" fill="black"/>
<path d="M144.501 177.333C143.251 176.083 142.668 174.833 143.834 173.583C145.084 172.334 146.334 173 147.584 174.25C148.751 175.417 149.417 176.75 148.251 178C147.001 179.166 145.668 178.583 144.501 177.333ZM146.917 174.917C146.084 174.083 145.168 173.5 144.418 174.25C143.668 175 144.251 175.917 145.084 176.75C145.918 177.583 146.834 178.166 147.584 177.416C148.334 176.666 147.751 175.75 146.917 174.917Z" fill="black"/>
<path d="M170.914 203.833L171.497 204.416L168.748 207.166L168.414 206.833L168.081 203.333C167.998 202.75 167.914 202.25 167.664 202.083C167.248 201.667 166.748 201.75 166.331 202.167C165.915 202.583 165.831 203.167 166.165 203.583L165.498 204C164.915 203.25 164.998 202.25 165.748 201.5C166.581 200.667 167.581 200.667 168.331 201.417C168.664 201.75 168.914 202.417 168.914 203L169.164 205.416L170.914 203.833Z" fill="black"/>
<path d="M170.165 201.583C168.915 200.333 168.332 199.083 169.498 197.833C170.748 196.583 171.998 197.25 173.248 198.5C174.415 199.666 175.081 201 173.915 202.249C172.665 203.499 171.332 202.833 170.165 201.583ZM172.582 199.166C171.748 198.333 170.832 197.75 170.082 198.5C169.332 199.25 169.915 200.166 170.748 201C171.582 201.833 172.498 202.416 173.248 201.666C173.998 200.916 173.498 200 172.582 199.166Z" fill="black"/>
<path d="M174.332 198L176.582 195.75L177.165 196.333L174.915 198.583L174.332 198Z" fill="black"/>
<path d="M181.418 192.833L180.834 193.416L181.667 194.249L181.001 194.916L180.168 194.083L178.001 196.249L177.835 196.083L177.168 190.25L177.335 190.083L180.084 192.833L180.668 192.25L181.418 192.833ZM179.584 193.5L178.251 192.166L178.501 194.583L179.584 193.5Z" fill="black"/>
<path d="M181.162 191.166L183.412 188.917L183.995 189.5L181.745 191.75L181.162 191.166Z" fill="black"/>
<path d="M187.994 186.75L188.577 187.333L185.827 190.083L185.494 189.749L185.16 186.25C185.077 185.666 184.994 185.166 184.744 185C184.327 184.583 183.827 184.666 183.327 185.083C182.911 185.5 182.827 186.083 183.161 186.5L182.494 186.916C181.911 186.166 181.994 185.166 182.744 184.417C183.577 183.583 184.577 183.583 185.327 184.333C185.66 184.666 185.91 185.333 185.91 185.916L186.16 188.333L187.994 186.75Z" fill="black"/>
<path d="M187.243 184.583C185.993 183.333 185.41 182.083 186.577 180.833C187.826 179.583 189.076 180.25 190.326 181.5C191.493 182.666 192.159 184 190.993 185.249C189.66 186.416 188.41 185.749 187.243 184.583ZM189.66 182.083C188.826 181.25 187.91 180.667 187.16 181.416C186.41 182.166 186.993 183.083 187.826 183.916C188.66 184.749 189.576 185.333 190.326 184.583C191.076 183.916 190.493 183 189.66 182.083Z" fill="black"/>
<path d="M195.246 179.583L195.829 180.166L193.08 182.916L192.746 182.583L192.413 179.083C192.33 178.5 192.246 178 191.996 177.833C191.58 177.417 191.08 177.5 190.663 177.917C190.247 178.333 190.163 178.917 190.497 179.333L189.83 179.75C189.247 179 189.33 178 190.08 177.25C190.913 176.417 191.913 176.417 192.663 177.167C192.996 177.5 193.246 178.167 193.246 178.75L193.496 181.166L195.246 179.583Z" fill="black"/>
<path d="M194.413 177.333C193.163 176.083 192.58 174.833 193.747 173.583C194.996 172.333 196.246 173 197.496 174.25C198.663 175.416 199.329 176.75 198.163 177.999C196.913 179.166 195.663 178.583 194.413 177.333ZM196.913 174.916C196.08 174.083 195.163 173.5 194.413 174.25C193.663 175 194.246 175.916 195.08 176.75C195.913 177.583 196.83 178.166 197.579 177.416C198.329 176.666 197.746 175.75 196.913 174.916Z" fill="black"/>
<path d="M367.167 200.25L371.416 204.5L370.833 205.166L367.417 201.75L366.833 203L366.25 202.417L367.167 200.25Z" fill="black"/>
<path d="M374.001 199.25C374.917 200.167 374.834 201.333 373.917 202.25C373.168 203 372.251 203.083 371.418 202.833L371.668 202C372.168 202.25 372.834 202.166 373.334 201.666C373.834 201.166 373.917 200.417 373.417 199.917C372.918 199.417 372.168 199.5 371.668 200C371.334 200.333 371.084 200.833 371.084 201.416L370.418 201.5L368.668 199L370.918 196.75L371.501 197.334L369.751 199.083L370.668 200.5C370.751 200.083 370.918 199.667 371.251 199.333C372.001 198.417 373.167 198.417 374.001 199.25Z" fill="black"/>
<path d="M374.254 198.083L376.504 195.833L377.087 196.417L374.837 198.667L374.254 198.083Z" fill="black"/>
<path d="M380.919 192.417C381.669 193.166 381.752 194.416 380.836 195.333C379.836 196.333 378.502 196.166 377.169 194.833C376.086 193.75 375.336 192.083 376.586 190.75C377.086 190.25 377.836 189.917 378.752 190.25L378.419 191.083C377.919 190.917 377.419 191 377.169 191.333C376.586 191.917 376.753 193.083 377.586 193.833C377.503 193.333 377.586 192.75 378.086 192.333C378.919 191.583 380.169 191.667 380.919 192.417ZM380.252 193.083C379.836 192.667 379.086 192.667 378.586 193.083C378.086 193.583 378.003 194.333 378.419 194.75C378.919 195.25 379.586 195.166 380.086 194.75C380.669 194.25 380.669 193.5 380.252 193.083Z" fill="black"/>
<path d="M381.166 191.167L383.416 188.917L383.999 189.5L381.749 191.75L381.166 191.167Z" fill="black"/>
<path d="M387.999 186.75L388.583 187.333L385.833 190.083L385.5 189.75L385.166 186.25C385.083 185.667 385 185.167 384.75 185C384.333 184.583 383.833 184.667 383.333 185.083C382.917 185.5 382.833 186.083 383.167 186.5L382.5 186.917C381.917 186.167 382 185.167 382.75 184.417C383.583 183.584 384.583 183.584 385.333 184.333C385.666 184.667 385.916 185.333 385.916 185.917L386.166 188.333L387.999 186.75Z" fill="black"/>
<path d="M387.247 184.583C385.997 183.333 385.414 182.083 386.581 180.833C387.83 179.584 389.08 180.25 390.33 181.5C391.497 182.667 392.163 184 390.997 185.25C389.664 186.416 388.414 185.75 387.247 184.583ZM389.664 182.083C388.83 181.25 387.914 180.667 387.164 181.417C386.414 182.167 386.997 183.083 387.83 183.916C388.664 184.75 389.58 185.333 390.33 184.583C391.08 183.916 390.497 183 389.664 182.083Z" fill="black"/>
<path d="M395.25 179.583L395.833 180.167L393.084 182.916L392.75 182.583L392.417 179.083C392.334 178.5 392.25 178 392 177.834C391.584 177.417 391.084 177.5 390.667 177.917C390.251 178.333 390.167 178.917 390.501 179.333L389.834 179.75C389.251 179 389.334 178 390.084 177.25C390.917 176.417 391.917 176.417 392.667 177.167C393 177.5 393.25 178.167 393.25 178.75L393.5 181.167L395.25 179.583Z" fill="black"/>
<path d="M394.415 177.333C393.165 176.083 392.582 174.833 393.748 173.583C394.998 172.334 396.248 173 397.498 174.25C398.665 175.417 399.331 176.75 398.165 178C396.915 179.249 395.582 178.583 394.415 177.333ZM396.832 174.917C395.998 174.083 395.082 173.5 394.332 174.25C393.582 175 394.165 175.917 394.998 176.75C395.832 177.583 396.748 178.166 397.498 177.416C398.248 176.666 397.748 175.75 396.832 174.917Z" fill="black"/>
<path d="M522.752 202.083L523.335 202.666L520.586 205.416L520.252 205.083L519.919 201.583C519.836 201 519.752 200.5 519.502 200.333C519.086 199.917 518.586 200 518.169 200.417C517.753 200.833 517.669 201.417 518.002 201.833L517.336 202.25C516.753 201.5 516.836 200.5 517.586 199.75C518.419 198.917 519.419 198.917 520.169 199.667C520.502 200 520.752 200.667 520.752 201.25L521.002 203.666L522.752 202.083Z" fill="black"/>
<path d="M522.666 194.833L524.666 201.249L523.916 201.999L522.25 196.417L520.333 198.333L519.75 197.75L522.666 194.833Z" fill="black"/>
<path d="M525.254 197.083L527.504 194.833L528.087 195.417L525.837 197.667L525.254 197.083Z" fill="black"/>
<path d="M528.584 188.917L530.584 195.333L529.834 196.083L528.168 190.5L526.251 192.416L525.668 191.833L528.584 188.917Z" fill="black"/>
<path d="M531.168 191.167L533.418 188.917L534.001 189.5L531.751 191.75L531.168 191.167Z" fill="black"/>
<path d="M538.004 186.75L538.587 187.333L535.838 190.083L535.504 189.75L535.171 186.25C535.088 185.667 535.004 185.167 534.754 185C534.338 184.583 533.838 184.667 533.421 185.083C533.004 185.5 532.921 186.083 533.254 186.5L532.588 186.917C532.005 186.167 532.088 185.167 532.838 184.417C533.671 183.584 534.671 183.584 535.421 184.333C535.754 184.667 536.004 185.333 536.004 185.917L536.254 188.333L538.004 186.75Z" fill="black"/>
<path d="M537.255 184.583C536.005 183.333 535.422 182.083 536.588 180.833C537.838 179.584 539.088 180.25 540.338 181.5C541.504 182.667 542.171 184 541.005 185.25C539.671 186.416 538.421 185.75 537.255 184.583ZM539.671 182.083C538.838 181.25 537.921 180.667 537.172 181.417C536.422 182.167 537.005 183.083 537.838 183.916C538.671 184.75 539.588 185.333 540.338 184.583C541.088 183.916 540.505 183 539.671 182.083Z" fill="black"/>
<path d="M545.249 179.583L545.833 180.167L543.083 182.916L542.75 182.583L542.416 179.083C542.333 178.5 542.25 178 542 177.834C541.583 177.417 541.083 177.5 540.583 177.917C540.167 178.333 540.083 178.917 540.417 179.333L539.75 179.75C539.167 179 539.25 178 540 177.25C540.833 176.417 541.833 176.417 542.583 177.167C542.916 177.5 543.166 178.167 543.166 178.75L543.416 181.167L545.249 179.583Z" fill="black"/>
<path d="M544.421 177.333C543.171 176.083 542.588 174.833 543.754 173.583C545.004 172.334 546.254 173 547.504 174.25C548.67 175.417 549.337 176.75 548.171 178C546.921 179.166 545.671 178.583 544.421 177.333ZM546.921 174.917C546.087 174.083 545.171 173.5 544.421 174.25C543.671 175 544.254 175.917 545.088 176.75C545.921 177.583 546.837 178.166 547.587 177.416C548.337 176.666 547.754 175.75 546.921 174.917Z" fill="black"/>
<path d="M566.918 200.5L571.167 204.75L570.501 205.416L567.085 202L566.501 203.25L565.918 202.666L566.918 200.5Z" fill="black"/>
<path d="M570.001 201.666C568.751 200.416 568.168 199.167 569.334 197.917C570.584 196.667 571.834 197.333 573.084 198.583C574.251 199.75 574.917 201.083 573.751 202.333C572.501 203.583 571.251 202.916 570.001 201.666ZM572.501 199.25C571.668 198.417 570.751 197.833 570.001 198.583C569.251 199.333 569.834 200.25 570.668 201.083C571.501 201.916 572.417 202.5 573.167 201.75C573.917 201 573.334 200.083 572.501 199.25Z" fill="black"/>
<path d="M574.254 198.083L576.504 195.833L577.087 196.417L574.837 198.667L574.254 198.083Z" fill="black"/>
<path d="M580.999 192.5C581.749 193.25 581.666 194.5 580.749 195.416C579.833 196.333 578.583 196.499 577.833 195.666C577.25 195.083 577.167 194.333 577.417 193.666C577 193.75 576.583 193.666 576.167 193.333C575.583 192.75 575.583 191.75 576.333 191C577.083 190.25 578 190.25 578.666 190.833C579 191.167 579.083 191.667 579 192.083C579.666 191.75 580.416 191.917 580.999 192.5ZM576.917 192.75C577.25 193.083 577.666 193 578 192.667C578.333 192.333 578.333 191.833 578.083 191.583C577.75 191.25 577.25 191.333 576.917 191.583C576.583 191.917 576.583 192.417 576.917 192.75ZM580.25 193.083C579.75 192.583 579 192.667 578.5 193.166C578 193.666 577.916 194.416 578.333 194.916C578.75 195.333 579.5 195.333 580.083 194.75C580.666 194.25 580.666 193.5 580.25 193.083Z" fill="black"/>
<path d="M581.17 191.167L583.42 188.917L584.003 189.5L581.753 191.75L581.17 191.167Z" fill="black"/>
<path d="M587.916 186.75L588.499 187.333L585.75 190.083L585.416 189.75L585.083 186.25C585 185.667 584.916 185.167 584.666 185C584.25 184.583 583.75 184.667 583.333 185.083C582.917 185.5 582.833 186.083 583.167 186.5L582.5 186.917C581.917 186.167 582 185.167 582.75 184.417C583.583 183.584 584.583 183.584 585.333 184.333C585.666 184.667 585.916 185.333 585.916 185.917L586.166 188.333L587.916 186.75Z" fill="black"/>
<path d="M587.167 184.583C585.917 183.333 585.334 182.083 586.5 180.833C587.75 179.584 589 180.25 590.25 181.5C591.417 182.667 592.083 184 590.917 185.25C589.667 186.416 588.334 185.75 587.167 184.583ZM589.583 182.083C588.75 181.25 587.834 180.667 587.084 181.417C586.334 182.167 586.917 183.083 587.75 183.916C588.584 184.75 589.5 185.333 590.25 184.583C591 183.833 590.5 183 589.583 182.083Z" fill="black"/>
<path d="M595.165 179.583L595.749 180.167L592.999 182.916L592.666 182.583L592.332 179.083C592.249 178.5 592.166 178 591.916 177.834C591.499 177.417 590.999 177.5 590.499 177.917C590.083 178.333 589.999 178.917 590.333 179.333L589.666 179.75C589.083 179 589.166 178 589.916 177.25C590.749 176.417 591.749 176.417 592.499 177.167C592.832 177.5 593.082 178.167 593.082 178.75L593.332 181.167L595.165 179.583Z" fill="black"/>
<path d="M594.415 177.333C593.165 176.083 592.582 174.833 593.748 173.583C594.998 172.334 596.248 173 597.498 174.25C598.665 175.417 599.331 176.75 598.165 178C596.831 179.166 595.582 178.583 594.415 177.333ZM596.832 174.917C595.998 174.083 595.082 173.5 594.332 174.25C593.582 175 594.165 175.917 594.998 176.75C595.832 177.583 596.748 178.166 597.498 177.416C598.248 176.666 597.665 175.75 596.832 174.917Z" fill="black"/>
<path d="M620.918 203.833L621.501 204.417L618.752 207.166L618.418 206.833L618.085 203.333C618.002 202.75 617.918 202.25 617.668 202.084C617.252 201.667 616.752 201.75 616.335 202.167C615.919 202.583 615.835 203.167 616.169 203.583L615.502 204C614.919 203.25 615.002 202.25 615.752 201.5C616.585 200.667 617.585 200.667 618.335 201.417C618.668 201.75 618.918 202.417 618.918 203L619.168 205.416L620.918 203.833Z" fill="black"/>
<path d="M624.502 199.75L623.918 200.333L624.751 201.166L624.085 201.833L623.252 201L621.085 203.166L620.919 203L620.252 197.167L620.419 197L623.168 199.75L623.752 199.167L624.502 199.75ZM622.585 200.417L621.252 199.083L621.502 201.5L622.585 200.417Z" fill="black"/>
<path d="M624.254 198.083L626.504 195.833L627.087 196.417L624.837 198.667L624.254 198.083Z" fill="black"/>
<path d="M631.003 192.5C631.753 193.25 631.67 194.5 630.753 195.416C629.837 196.333 628.587 196.499 627.837 195.666C627.254 195.083 627.17 194.333 627.42 193.666C627.004 193.75 626.587 193.666 626.171 193.333C625.587 192.75 625.587 191.75 626.337 191C627.087 190.25 628.004 190.25 628.67 190.833C629.004 191.167 629.087 191.667 629.004 192.083C629.67 191.75 630.42 191.917 631.003 192.5ZM626.92 192.75C627.254 193.083 627.67 193 628.004 192.667C628.337 192.333 628.337 191.833 628.087 191.583C627.754 191.25 627.254 191.25 626.92 191.583C626.587 191.917 626.587 192.417 626.92 192.75ZM630.253 193.083C629.753 192.583 629.004 192.667 628.504 193.166C628.004 193.666 627.92 194.416 628.337 194.916C628.754 195.333 629.503 195.333 630.087 194.75C630.67 194.25 630.67 193.5 630.253 193.083Z" fill="black"/>
<path d="M631.166 191.167L633.416 188.917L633.999 189.5L631.749 191.75L631.166 191.167Z" fill="black"/>
<path d="M637.919 186.75L638.503 187.333L635.753 190.083L635.42 189.75L635.086 186.25C635.003 185.667 634.92 185.167 634.67 185C634.253 184.583 633.753 184.667 633.253 185.083C632.837 185.5 632.753 186.083 633.086 186.5L632.42 186.917C631.837 186.167 631.92 185.167 632.67 184.417C633.503 183.584 634.503 183.584 635.253 184.333C635.586 184.667 635.836 185.333 635.836 185.917L636.086 188.333L637.919 186.75Z" fill="black"/>
<path d="M637.169 184.583C635.919 183.333 635.336 182.083 636.502 180.833C637.752 179.584 639.002 180.25 640.252 181.5C641.419 182.667 642.085 184 640.919 185.25C639.669 186.416 638.336 185.75 637.169 184.583ZM639.585 182.083C638.752 181.25 637.836 180.667 637.086 181.417C636.336 182.167 636.919 183.083 637.752 183.916C638.586 184.75 639.502 185.333 640.252 184.583C641.002 183.916 640.502 183 639.585 182.083Z" fill="black"/>
<path d="M645.172 179.583L645.755 180.167L643.005 182.916L642.672 182.583L642.339 179.083C642.256 178.5 642.172 178 641.922 177.834C641.506 177.417 641.006 177.5 640.589 177.917C640.172 178.333 640.089 178.917 640.422 179.333L639.756 179.75C639.173 179 639.256 178 640.006 177.25C640.839 176.417 641.839 176.417 642.589 177.167C642.922 177.5 643.172 178.167 643.172 178.75L643.422 181.167L645.172 179.583Z" fill="black"/>
<path d="M644.417 177.333C643.167 176.083 642.584 174.833 643.75 173.583C645 172.334 646.25 173 647.5 174.25C648.667 175.417 649.333 176.75 648.167 178C646.833 179.166 645.584 178.583 644.417 177.333ZM646.833 174.917C646 174.083 645.084 173.5 644.334 174.25C643.584 175 644.167 175.917 645 176.75C645.834 177.583 646.75 178.166 647.5 177.416C648.25 176.666 647.667 175.75 646.833 174.917Z" fill="black"/>
<path d="M671.664 195.833L673.664 202.249L672.914 202.999L671.248 197.416L669.331 199.333L668.748 198.75L671.664 195.833Z" fill="black"/>
<path d="M674.248 198.083L676.498 195.833L677.081 196.417L674.831 198.666L674.248 198.083Z" fill="black"/>
<path d="M679.915 191.583C680.998 192.666 681.748 194.333 680.415 195.666C679.915 196.166 679.165 196.499 678.248 196.166L678.582 195.333C679.082 195.499 679.582 195.416 679.832 195.083C680.415 194.499 680.248 193.333 679.498 192.583C679.582 193.083 679.415 193.583 678.998 194.083C678.165 194.916 676.915 194.833 676.165 194.166C675.415 193.499 675.332 192.166 676.249 191.25C677.332 190.083 678.748 190.333 679.915 191.583ZM678.665 191.666C678.165 191.166 677.499 191.166 676.999 191.666C676.499 192.166 676.415 192.916 676.915 193.333C677.332 193.749 678.082 193.749 678.582 193.333C678.998 192.833 679.082 192.083 678.665 191.666Z" fill="black"/>
<path d="M681.16 191.166L683.41 188.917L683.993 189.5L681.743 191.75L681.16 191.166Z" fill="black"/>
<path d="M687.915 186.75L688.499 187.333L685.749 190.083L685.416 189.749L685.082 186.25C684.999 185.666 684.916 185.166 684.666 185C684.249 184.583 683.749 184.666 683.249 185.083C682.833 185.5 682.749 186.083 683.083 186.5L682.416 186.916C681.833 186.166 681.916 185.166 682.666 184.417C683.499 183.583 684.499 183.583 685.249 184.333C685.582 184.666 685.832 185.333 685.832 185.916L686.082 188.333L687.915 186.75Z" fill="black"/>
<path d="M687.165 184.583C685.915 183.333 685.332 182.083 686.498 180.833C687.748 179.583 688.998 180.25 690.248 181.5C691.415 182.666 692.081 184 690.915 185.249C689.665 186.416 688.332 185.749 687.165 184.583ZM689.582 182.083C688.748 181.25 687.832 180.667 687.082 181.416C686.332 182.166 686.915 183.083 687.748 183.916C688.582 184.749 689.498 185.333 690.248 184.583C690.998 183.916 690.498 183 689.582 182.083Z" fill="black"/>
<path d="M695.166 179.583L695.749 180.166L693 182.916L692.666 182.583L692.333 179.083C692.25 178.5 692.166 178 691.916 177.833C691.5 177.417 691 177.5 690.583 177.917C690.167 178.333 690.083 178.917 690.417 179.333L689.75 179.75C689.167 179 689.25 178 690 177.25C690.833 176.417 691.833 176.417 692.583 177.167C692.916 177.5 693.166 178.167 693.166 178.75L693.416 181.166L695.166 179.583Z" fill="black"/>
<path d="M694.413 177.333C693.163 176.083 692.58 174.833 693.747 173.583C694.996 172.333 696.246 173 697.496 174.25C698.663 175.416 699.329 176.75 698.163 177.999C696.83 179.249 695.58 178.583 694.413 177.333ZM696.83 174.916C695.996 174.083 695.08 173.5 694.33 174.25C693.58 175 694.163 175.916 694.996 176.75C695.83 177.583 696.746 178.166 697.496 177.416C698.246 176.666 697.663 175.75 696.83 174.916Z" fill="black"/>
<path d="M722.336 202.416L722.919 203L720.17 205.749L719.836 205.416L719.503 201.916C719.42 201.333 719.336 200.833 719.086 200.667C718.67 200.25 718.17 200.333 717.753 200.75C717.337 201.167 717.253 201.75 717.586 202.166L716.92 202.583C716.337 201.833 716.42 200.833 717.17 200.083C718.003 199.25 719.003 199.25 719.753 200C720.086 200.333 720.336 201 720.336 201.583L720.586 204L722.336 202.416Z" fill="black"/>
<path d="M720.754 196.667L725.087 201L724.421 201.666L721.004 198.25L720.421 199.5L719.838 198.917L720.754 196.667Z" fill="black"/>
<path d="M724.252 198.083L726.502 195.833L727.085 196.417L724.835 198.667L724.252 198.083Z" fill="black"/>
<path d="M729.923 191.583C731.006 192.666 731.756 194.333 730.423 195.666C729.923 196.166 729.173 196.499 728.256 196.166L728.59 195.333C729.089 195.499 729.589 195.416 729.839 195.083C730.423 194.5 730.256 193.333 729.506 192.583C729.589 193.083 729.423 193.583 729.006 194.083C728.173 194.916 726.923 194.833 726.173 194.166C725.423 193.5 725.34 192.166 726.256 191.25C727.34 190.083 728.756 190.333 729.923 191.583ZM728.673 191.667C728.173 191.167 727.506 191.167 727.006 191.667C726.506 192.166 726.423 192.916 726.923 193.333C727.34 193.75 728.09 193.75 728.59 193.333C729.006 192.833 729.089 192.083 728.673 191.667Z" fill="black"/>
<path d="M731.172 191.167L733.422 188.917L734.005 189.5L731.755 191.75L731.172 191.167Z" fill="black"/>
<path d="M737.921 186.75L738.505 187.333L735.755 190.083L735.421 189.75L735.088 186.25C735.005 185.667 734.922 185.167 734.672 185C734.255 184.583 733.755 184.667 733.255 185.083C732.838 185.5 732.755 186.083 733.088 186.5L732.422 186.917C731.839 186.167 731.922 185.167 732.672 184.417C733.505 183.584 734.505 183.584 735.255 184.333C735.588 184.667 735.838 185.333 735.838 185.917L736.088 188.333L737.921 186.75Z" fill="black"/>
<path d="M737.171 184.583C735.921 183.333 735.338 182.083 736.504 180.833C737.754 179.584 739.004 180.25 740.254 181.5C741.42 182.667 742.087 184 740.921 185.25C739.671 186.416 738.337 185.75 737.171 184.583ZM739.587 182.083C738.754 181.25 737.838 180.667 737.088 181.417C736.338 182.167 736.921 183.083 737.754 183.916C738.587 184.75 739.504 185.333 740.254 184.583C741.004 183.916 740.504 183 739.587 182.083Z" fill="black"/>
<path d="M745.166 179.583L745.749 180.167L743 182.916L742.666 182.583L742.333 179.083C742.25 178.5 742.166 178 741.916 177.834C741.5 177.417 741 177.5 740.583 177.917C740.167 178.333 740.083 178.917 740.417 179.333L739.75 179.75C739.167 179 739.25 178 740 177.25C740.833 176.417 741.833 176.417 742.583 177.167C742.916 177.5 743.166 178.167 743.166 178.75L743.416 181.167L745.166 179.583Z" fill="black"/>
<path d="M744.419 177.333C743.169 176.083 742.586 174.833 743.752 173.583C745.002 172.334 746.252 173 747.502 174.25C748.669 175.417 749.335 176.75 748.169 178C746.835 179.166 745.586 178.583 744.419 177.333ZM746.835 174.917C746.002 174.083 745.086 173.5 744.336 174.25C743.586 175 744.169 175.917 745.002 176.75C745.836 177.583 746.752 178.166 747.502 177.416C748.252 176.666 747.669 175.75 746.835 174.917Z" fill="black"/>
<path d="M771.751 201.5C772.667 202.417 772.584 203.583 771.667 204.5C770.917 205.25 770.001 205.333 769.168 205.083L769.418 204.25C769.918 204.5 770.584 204.416 771.084 203.916C771.584 203.416 771.667 202.667 771.167 202.167C770.668 201.667 769.918 201.75 769.418 202.25C769.084 202.583 768.834 203.083 768.834 203.666L768.168 203.75L766.418 201.25L768.668 199L769.251 199.583L767.501 201.333L768.418 202.75C768.501 202.333 768.668 201.917 769.001 201.583C769.751 200.667 770.917 200.667 771.751 201.5Z" fill="black"/>
<path d="M772 200.333L774.25 198.083L774.833 198.667L772.583 200.917L772 200.333Z" fill="black"/>
<path d="M773.834 193.583L778.083 197.916L777.417 198.583L774 195.167L773.417 196.417L772.834 195.833L773.834 193.583Z" fill="black"/>
<path d="M776.999 194.75C775.749 193.5 775.166 192.25 776.332 191C777.582 189.75 778.832 190.417 780.082 191.667C781.249 192.833 781.915 194.166 780.749 195.416C779.416 196.666 778.166 196 776.999 194.75ZM779.415 192.333C778.582 191.5 777.666 190.917 776.916 191.667C776.166 192.417 776.749 193.333 777.582 194.166C778.416 195 779.332 195.583 780.082 194.833C780.832 194.083 780.249 193.167 779.415 192.333Z" fill="black"/>
<path d="M781.17 191.167L783.42 188.917L784.003 189.5L781.753 191.75L781.17 191.167Z" fill="black"/>
<path d="M787.918 186.75L788.501 187.333L785.752 190.083L785.418 189.75L785.085 186.25C785.002 185.667 784.918 185.167 784.668 185C784.252 184.583 783.752 184.667 783.335 185.083C782.919 185.5 782.835 186.083 783.169 186.5L782.502 186.917C781.919 186.167 782.002 185.167 782.752 184.417C783.585 183.584 784.585 183.584 785.335 184.333C785.668 184.667 785.918 185.333 785.918 185.917L786.168 188.333L787.918 186.75Z" fill="black"/>
<path d="M787.169 184.583C785.919 183.333 785.336 182.083 786.502 180.833C787.752 179.584 789.002 180.25 790.252 181.5C791.419 182.667 792.085 184 790.919 185.25C789.669 186.416 788.336 185.75 787.169 184.583ZM789.585 182.083C788.752 181.25 787.836 180.667 787.086 181.417C786.336 182.167 786.919 183.083 787.752 183.916C788.586 184.75 789.502 185.333 790.252 184.583C791.002 183.916 790.502 183 789.585 182.083Z" fill="black"/>
<path d="M795.164 179.583L795.747 180.167L792.998 182.916L792.664 182.583L792.331 179.083C792.248 178.5 792.164 178 791.914 177.834C791.498 177.417 790.998 177.5 790.581 177.917C790.165 178.333 790.081 178.917 790.415 179.333L789.748 179.75C789.165 179 789.248 178 789.998 177.25C790.831 176.417 791.831 176.417 792.581 177.167C792.914 177.5 793.164 178.167 793.164 178.75L793.414 181.167L795.164 179.583Z" fill="black"/>
<path d="M794.417 177.333C793.167 176.083 792.584 174.833 793.75 173.583C795 172.334 796.25 173 797.5 174.25C798.667 175.417 799.333 176.75 798.167 178C796.833 179.166 795.584 178.583 794.417 177.333ZM796.833 174.917C796 174.083 795.084 173.5 794.334 174.25C793.584 175 794.167 175.917 795 176.75C795.834 177.583 796.75 178.166 797.5 177.416C798.25 176.666 797.667 175.75 796.833 174.917Z" fill="black"/>
<path d="M814.661 202.667L818.994 207L818.327 207.666L814.911 204.25L814.327 205.5L813.744 204.917L814.661 202.667Z" fill="black"/>
<path d="M820.827 200.667C821.91 201.75 822.66 203.416 821.327 204.749C820.827 205.249 820.077 205.583 819.161 205.249L819.494 204.416C819.994 204.583 820.494 204.5 820.744 204.166C821.327 203.583 821.16 202.416 820.41 201.666C820.494 202.166 820.327 202.666 819.91 203.166C819.077 204 817.827 204 817.077 203.25C816.328 202.5 816.244 201.25 817.161 200.333C818.161 199.167 819.577 199.5 820.827 200.667ZM819.494 200.75C818.994 200.25 818.327 200.25 817.827 200.75C817.327 201.25 817.244 202 817.744 202.416C818.161 202.833 818.911 202.833 819.41 202.416C819.827 202 819.91 201.25 819.494 200.75Z" fill="black"/>
<path d="M821.994 200.333L824.244 198.083L824.827 198.667L822.577 200.917L821.994 200.333Z" fill="black"/>
<path d="M823.828 193.583L828.078 197.916L827.411 198.583L823.995 195.167L823.411 196.417L822.828 195.833L823.828 193.583Z" fill="black"/>
<path d="M826.997 194.75C825.747 193.5 825.164 192.25 826.331 191C827.58 189.75 828.83 190.417 830.08 191.667C831.247 192.833 831.913 194.166 830.747 195.416C829.414 196.666 828.164 196 826.997 194.75ZM829.414 192.333C828.58 191.5 827.664 190.917 826.914 191.667C826.164 192.417 826.747 193.333 827.58 194.166C828.414 195 829.33 195.583 830.08 194.833C830.83 194.083 830.247 193.167 829.414 192.333Z" fill="black"/>
<path d="M831.16 191.167L833.41 188.917L833.993 189.5L831.743 191.75L831.16 191.167Z" fill="black"/>
<path d="M837.91 186.75L838.493 187.333L835.743 190.083L835.41 189.75L835.076 186.25C834.993 185.667 834.91 185.167 834.66 185C834.243 184.583 833.743 184.667 833.243 185.083C832.827 185.5 832.743 186.083 833.077 186.5L832.41 186.917C831.827 186.167 831.91 185.167 832.66 184.417C833.493 183.584 834.493 183.584 835.243 184.333C835.576 184.667 835.826 185.333 835.826 185.917L836.076 188.333L837.91 186.75Z" fill="black"/>
<path d="M837.159 184.583C835.909 183.333 835.326 182.083 836.493 180.833C837.743 179.584 838.992 180.25 840.242 181.5C841.409 182.667 842.075 184 840.909 185.25C839.659 186.416 838.326 185.75 837.159 184.583ZM839.576 182.083C838.742 181.25 837.826 180.667 837.076 181.417C836.326 182.167 836.909 183.083 837.743 183.916C838.576 184.75 839.492 185.333 840.242 184.583C840.992 183.916 840.492 183 839.576 182.083Z" fill="black"/>
<path d="M845.162 179.583L845.745 180.167L842.996 182.916L842.662 182.583L842.329 179.083C842.246 178.5 842.163 178 841.913 177.834C841.496 177.417 840.996 177.5 840.579 177.917C840.163 178.333 840.079 178.917 840.413 179.333L839.746 179.75C839.163 179 839.246 178 839.996 177.25C840.829 176.417 841.829 176.417 842.579 177.167C842.912 177.5 843.162 178.167 843.162 178.75L843.412 181.167L845.162 179.583Z" fill="black"/>
<path d="M844.411 177.333C843.161 176.083 842.578 174.833 843.745 173.583C844.994 172.334 846.244 173 847.494 174.25C848.661 175.417 849.327 176.75 848.161 178C846.828 179.249 845.578 178.583 844.411 177.333ZM846.828 174.917C845.994 174.083 845.078 173.5 844.328 174.25C843.578 175 844.161 175.917 844.994 176.75C845.828 177.583 846.744 178.166 847.494 177.416C848.244 176.666 847.661 175.75 846.828 174.917Z" fill="black"/>
<path d="M873.913 200.75L874.497 201.333L871.747 204.083L871.414 203.75L871.08 200.25C870.997 199.667 870.914 199.167 870.664 199C870.247 198.583 869.747 198.667 869.247 199.083C868.831 199.5 868.747 200.083 869.081 200.5L868.414 200.917C867.831 200.167 867.914 199.167 868.664 198.417C869.497 197.584 870.497 197.584 871.247 198.333C871.58 198.667 871.83 199.333 871.83 199.917L872.08 202.333L873.913 200.75Z" fill="black"/>
<path d="M873.496 198.833L875.746 196.583L876.329 197.167L874.079 199.417L873.496 198.833Z" fill="black"/>
<path d="M875.33 192.083L879.58 196.416L878.913 197.083L875.497 193.667L874.913 194.917L874.33 194.333L875.33 192.083Z" fill="black"/>
<path d="M877.663 189.75L881.996 194L881.329 194.666L877.913 191.25L877.329 192.5L876.746 191.916L877.663 189.75Z" fill="black"/>
<path d="M881.164 191.167L883.414 188.917L883.997 189.5L881.747 191.75L881.164 191.167Z" fill="black"/>
<path d="M887.913 186.75L888.497 187.333L885.747 190.083L885.414 189.75L885.08 186.25C884.997 185.667 884.914 185.167 884.664 185C884.247 184.583 883.747 184.667 883.247 185.083C882.831 185.5 882.747 186.083 883.081 186.5L882.414 186.917C881.831 186.167 881.914 185.167 882.664 184.417C883.497 183.584 884.497 183.584 885.247 184.333C885.58 184.667 885.83 185.333 885.83 185.917L886.08 188.333L887.913 186.75Z" fill="black"/>
<path d="M887.163 184.583C885.913 183.333 885.33 182.083 886.497 180.833C887.746 179.584 888.996 180.25 890.246 181.5C891.413 182.667 892.079 184 890.913 185.25C889.663 186.416 888.33 185.75 887.163 184.583ZM889.58 182.083C888.746 181.25 887.83 180.667 887.08 181.417C886.33 182.167 886.913 183.083 887.746 183.916C888.58 184.75 889.496 185.333 890.246 184.583C890.996 183.916 890.496 183 889.58 182.083Z" fill="black"/>
<path d="M895.166 179.583L895.749 180.167L893 182.916L892.666 182.583L892.333 179.083C892.25 178.5 892.166 178 891.916 177.834C891.5 177.417 891 177.5 890.583 177.917C890.167 178.333 890.083 178.917 890.417 179.333L889.75 179.75C889.167 179 889.25 178 890 177.25C890.833 176.417 891.833 176.417 892.583 177.167C892.916 177.5 893.166 178.167 893.166 178.75L893.416 181.167L895.166 179.583Z" fill="black"/>
<path d="M894.411 177.333C893.161 176.083 892.578 174.833 893.745 173.583C894.994 172.334 896.244 173 897.494 174.25C898.661 175.417 899.327 176.75 898.161 178C896.828 179.166 895.578 178.583 894.411 177.333ZM896.828 174.917C895.994 174.083 895.078 173.5 894.328 174.25C893.578 175 894.161 175.917 894.994 176.75C895.828 177.583 896.744 178.166 897.494 177.416C898.244 176.666 897.661 175.75 896.828 174.917Z" fill="black"/>
<path d="M916.17 201.167L920.419 205.5L919.753 206.166L916.336 202.75L915.753 204L915.17 203.417L916.17 201.167Z" fill="black"/>
<path d="M923.251 200.083C924.001 200.833 924.084 202.083 923.168 203C922.168 204 920.835 203.833 919.501 202.5C918.418 201.417 917.668 199.75 918.918 198.417C919.418 197.917 920.168 197.584 921.085 197.917L920.751 198.75C920.251 198.583 919.751 198.667 919.501 199C918.918 199.583 919.085 200.75 919.918 201.5C919.835 201 919.918 200.417 920.418 200C921.251 199.25 922.501 199.333 923.251 200.083ZM922.584 200.75C922.168 200.333 921.418 200.333 920.918 200.75C920.418 201.25 920.335 202 920.751 202.416C921.251 202.916 921.918 202.833 922.418 202.416C923.001 201.916 923.001 201.167 922.584 200.75Z" fill="black"/>
<path d="M923.506 198.833L925.756 196.583L926.339 197.167L924.089 199.417L923.506 198.833Z" fill="black"/>
<path d="M925.336 192.083L929.585 196.333L928.919 197L925.502 193.583L924.919 194.833L924.336 194.25L925.336 192.083Z" fill="black"/>
<path d="M927.67 189.75L931.919 194.083L931.253 194.749L927.836 191.333L927.253 192.583L926.67 192L927.67 189.75Z" fill="black"/>
<path d="M931.17 191.167L933.42 188.917L934.003 189.5L931.753 191.75L931.17 191.167Z" fill="black"/>
<path d="M937.918 186.75L938.501 187.333L935.752 190.083L935.418 189.75L935.085 186.25C935.002 185.667 934.918 185.167 934.668 185C934.252 184.583 933.752 184.667 933.335 185.083C932.919 185.5 932.835 186.083 933.169 186.5L932.502 186.917C931.919 186.167 932.002 185.167 932.752 184.417C933.585 183.584 934.585 183.584 935.335 184.333C935.668 184.667 935.918 185.333 935.918 185.917L936.168 188.333L937.918 186.75Z" fill="black"/>
<path d="M937.169 184.583C935.919 183.333 935.336 182.083 936.502 180.833C937.752 179.584 939.002 180.25 940.252 181.5C941.419 182.667 942.085 184 940.919 185.25C939.669 186.416 938.335 185.75 937.169 184.583ZM939.585 182.083C938.752 181.25 937.836 180.667 937.086 181.417C936.336 182.167 936.919 183.083 937.752 183.916C938.586 184.75 939.502 185.333 940.252 184.583C941.002 183.916 940.502 183 939.585 182.083Z" fill="black"/>
<path d="M945.173 179.583L945.756 180.167L943.007 182.916L942.673 182.583L942.34 179.083C942.257 178.5 942.174 178 941.924 177.834C941.507 177.417 941.007 177.5 940.507 177.917C940.09 178.333 940.007 178.917 940.34 179.333L939.674 179.75C939.09 179 939.174 178 939.924 177.25C940.757 176.417 941.757 176.417 942.507 177.167C942.84 177.5 943.09 178.167 943.09 178.75L943.34 181.167L945.173 179.583Z" fill="black"/>
<path d="M944.421 177.333C943.171 176.083 942.588 174.833 943.754 173.583C945.004 172.334 946.254 173 947.504 174.25C948.67 175.417 949.337 176.75 948.171 178C946.837 179.166 945.588 178.583 944.421 177.333ZM946.837 174.917C946.004 174.083 945.087 173.5 944.338 174.25C943.588 175 944.171 175.917 945.004 176.75C945.837 177.583 946.754 178.166 947.504 177.416C948.254 176.666 947.671 175.75 946.837 174.917Z" fill="black"/>
<path d="M420.912 203.917L421.495 204.5L418.746 207.25L418.412 206.916L418.079 203.417C417.996 202.833 417.912 202.333 417.663 202.167C417.246 201.75 416.746 201.833 416.329 202.25C415.913 202.667 415.829 203.25 416.163 203.667L415.496 204.083C414.913 203.333 414.996 202.333 415.746 201.584C416.579 200.75 417.579 200.75 418.329 201.5C418.662 201.833 418.912 202.5 418.912 203.083L419.162 205.5L420.912 203.917Z" fill="black"/>
<path d="M423.081 198.5C424.164 199.583 424.914 201.25 423.581 202.583C423.081 203.083 422.331 203.416 421.414 203.083L421.748 202.25C422.248 202.416 422.748 202.333 422.998 202C423.581 201.416 423.414 200.25 422.664 199.5C422.748 200 422.581 200.5 422.164 201C421.331 201.833 420.081 201.75 419.331 201.083C418.581 200.416 418.498 199.083 419.415 198.167C420.415 197 421.914 197.25 423.081 198.5ZM421.748 198.583C421.248 198.083 420.581 198.083 420.081 198.583C419.581 199.083 419.498 199.833 419.998 200.25C420.415 200.666 421.164 200.666 421.664 200.25C422.081 199.75 422.164 199 421.748 198.583Z" fill="black"/>
<path d="M424.248 198.083L426.498 195.833L427.081 196.417L424.831 198.667L424.248 198.083Z" fill="black"/>
<path d="M430.913 192.417C431.663 193.166 431.746 194.416 430.83 195.333C429.83 196.333 428.497 196.166 427.163 194.833C426.08 193.75 425.33 192.083 426.58 190.75C427.08 190.25 427.83 189.917 428.747 190.25L428.413 191.083C427.913 190.917 427.413 191 427.163 191.333C426.58 191.917 426.747 193.083 427.58 193.833C427.497 193.333 427.58 192.75 428.08 192.333C428.913 191.583 430.163 191.667 430.913 192.417ZM430.246 193.083C429.83 192.667 429.08 192.667 428.58 193.083C428.08 193.583 427.997 194.333 428.413 194.75C428.913 195.25 429.58 195.166 430.08 194.75C430.663 194.25 430.663 193.5 430.246 193.083Z" fill="black"/>
<path d="M431.16 191.167L433.41 188.917L433.993 189.5L431.743 191.75L431.16 191.167Z" fill="black"/>
<path d="M437.994 186.75L438.577 187.333L435.828 190.083L435.494 189.75L435.161 186.25C435.078 185.667 434.995 185.167 434.745 185C434.328 184.583 433.828 184.667 433.411 185.083C432.995 185.5 432.911 186.083 433.245 186.5L432.578 186.917C431.995 186.167 432.078 185.167 432.828 184.417C433.661 183.584 434.661 183.584 435.411 184.333C435.744 184.667 435.994 185.333 435.994 185.917L436.244 188.333L437.994 186.75Z" fill="black"/>
<path d="M437.241 184.583C435.991 183.333 435.408 182.083 436.575 180.833C437.825 179.584 439.074 180.25 440.324 181.5C441.491 182.667 442.157 184 440.991 185.25C439.658 186.416 438.408 185.75 437.241 184.583ZM439.658 182.083C438.824 181.25 437.908 180.667 437.158 181.417C436.408 182.167 436.991 183.083 437.825 183.916C438.658 184.75 439.574 185.333 440.324 184.583C441.074 183.916 440.491 183 439.658 182.083Z" fill="black"/>
<path d="M445.244 179.583L445.827 180.167L443.078 182.916L442.744 182.583L442.411 179.083C442.328 178.5 442.245 178 441.995 177.834C441.578 177.417 441.078 177.5 440.661 177.917C440.245 178.333 440.161 178.917 440.495 179.333L439.828 179.75C439.245 179 439.328 178 440.078 177.25C440.911 176.417 441.911 176.417 442.661 177.167C442.994 177.5 443.244 178.167 443.244 178.75L443.494 181.167L445.244 179.583Z" fill="black"/>
<path d="M444.411 177.333C443.161 176.083 442.578 174.833 443.745 173.583C444.994 172.334 446.244 173 447.494 174.25C448.661 175.417 449.327 176.75 448.161 178C446.911 179.166 445.661 178.583 444.411 177.333ZM446.911 174.917C446.078 174.083 445.161 173.5 444.411 174.25C443.661 175 444.245 175.917 445.078 176.75C445.911 177.583 446.828 178.166 447.577 177.416C448.327 176.666 447.744 175.75 446.911 174.917Z" fill="black"/>
<path d="M468.418 199L472.667 203.333L472.001 203.999L468.584 200.583L468.001 201.833L467.418 201.25L468.418 199Z" fill="black"/>
<path d="M475.086 198.416C475.836 199.166 475.753 200.333 474.919 201.166C474.336 201.749 473.503 201.916 472.67 201.666L472.836 200.833C473.42 200.999 473.919 200.916 474.253 200.583C474.753 200.083 474.836 199.416 474.419 199C474.003 198.583 473.336 198.583 472.836 199.083L472.42 199.5L471.92 199L472.253 198.666C472.67 198.25 472.753 197.666 472.336 197.333C472.003 197 471.503 197.083 471.17 197.416C470.92 197.666 470.753 198.166 470.837 198.5L470.087 198.583C469.92 198 470.17 197.25 470.67 196.75C471.42 196 472.336 195.917 473.086 196.667C473.503 197.083 473.586 197.583 473.42 198.083C473.919 197.833 474.586 197.916 475.086 198.416Z" fill="black"/>
<path d="M475.25 197.083L477.5 194.833L478.083 195.417L475.833 197.666L475.25 197.083Z" fill="black"/>
<path d="M478.584 188.917L480.584 195.332L479.834 196.082L478.168 190.5L476.251 192.416L475.668 191.833L478.584 188.917Z" fill="black"/>
<path d="M481.168 191.166L483.418 188.917L484.001 189.5L481.751 191.75L481.168 191.166Z" fill="black"/>
<path d="M488.004 186.75L488.587 187.333L485.838 190.083L485.504 189.749L485.171 186.25C485.088 185.666 485.004 185.166 484.754 185C484.338 184.583 483.838 184.666 483.421 185.083C483.004 185.5 482.921 186.083 483.254 186.5L482.588 186.916C482.005 186.166 482.088 185.166 482.838 184.417C483.671 183.583 484.671 183.583 485.421 184.333C485.754 184.666 486.004 185.333 486.004 185.916L486.254 188.333L488.004 186.75Z" fill="black"/>
<path d="M487.251 184.583C486.001 183.333 485.418 182.083 486.584 180.833C487.834 179.583 489.084 180.25 490.334 181.5C491.501 182.666 492.167 184 491.001 185.249C489.667 186.416 488.418 185.749 487.251 184.583ZM489.667 182.083C488.834 181.25 487.918 180.667 487.168 181.416C486.418 182.166 487.001 183.083 487.834 183.916C488.668 184.749 489.584 185.333 490.334 184.583C491.084 183.916 490.501 183 489.667 182.083Z" fill="black"/>
<path d="M495.252 179.583L495.835 180.166L493.086 182.916L492.752 182.583L492.419 179.083C492.336 178.5 492.252 178 492.002 177.833C491.586 177.417 491.086 177.5 490.669 177.917C490.253 178.333 490.169 178.917 490.502 179.333L489.836 179.75C489.253 179 489.336 178 490.086 177.25C490.919 176.417 491.919 176.417 492.669 177.167C493.002 177.5 493.252 178.167 493.252 178.75L493.502 181.166L495.252 179.583Z" fill="black"/>
<path d="M494.421 177.333C493.171 176.083 492.588 174.833 493.754 173.583C495.004 172.333 496.254 173 497.504 174.25C498.67 175.416 499.337 176.75 498.171 177.999C496.921 179.166 495.671 178.583 494.421 177.333ZM496.921 174.916C496.087 174.083 495.171 173.5 494.421 174.25C493.671 175 494.254 175.916 495.088 176.75C495.921 177.583 496.837 178.166 497.587 177.416C498.337 176.666 497.754 175.75 496.921 174.916Z" fill="black"/>
<path d="M969.502 204C970.252 204.75 970.169 205.916 969.335 206.75C968.752 207.333 967.919 207.499 967.086 207.25L967.252 206.416C967.836 206.583 968.336 206.5 968.669 206.166C969.169 205.666 969.252 205 968.835 204.583C968.419 204.166 967.752 204.167 967.252 204.666L966.836 205.083L966.336 204.583L966.669 204.25C967.086 203.833 967.169 203.25 966.752 202.917C966.419 202.583 965.919 202.667 965.586 203C965.336 203.25 965.169 203.75 965.253 204.083L964.503 204.166C964.336 203.583 964.586 202.833 965.086 202.333C965.836 201.583 966.752 201.5 967.502 202.25C967.919 202.667 968.002 203.167 967.836 203.667C968.336 203.417 969.002 203.5 969.502 204Z" fill="black"/>
<path d="M969.337 202.416C968.087 201.166 967.504 199.917 968.67 198.667C969.92 197.417 971.17 198.083 972.42 199.333C973.587 200.5 974.253 201.833 973.087 203.083C971.837 204.249 970.587 203.583 969.337 202.416ZM971.837 200C971.003 199.167 970.087 198.583 969.337 199.333C968.587 200.083 969.17 201 970.004 201.833C970.837 202.666 971.753 203.25 972.503 202.5C973.253 201.75 972.67 200.833 971.837 200Z" fill="black"/>
<path d="M973.586 198.833L975.836 196.583L976.419 197.167L974.169 199.417L973.586 198.833Z" fill="black"/>
<path d="M975.336 192.083L979.585 196.333L978.919 197L975.502 193.583L974.919 194.833L974.336 194.25L975.336 192.083Z" fill="black"/>
<path d="M977.668 189.75L981.917 194.083L981.251 194.749L977.835 191.333L977.251 192.583L976.668 192L977.668 189.75Z" fill="black"/>
<path d="M981.17 191.167L983.42 188.917L984.003 189.5L981.753 191.75L981.17 191.167Z" fill="black"/>
<path d="M988.002 186.75L988.585 187.333L985.836 190.083L985.502 189.75L985.169 186.25C985.086 185.667 985.002 185.167 984.752 185C984.336 184.583 983.836 184.667 983.419 185.083C983.003 185.5 982.919 186.083 983.253 186.5L982.586 186.917C982.003 186.167 982.086 185.167 982.836 184.417C983.669 183.584 984.669 183.584 985.419 184.333C985.752 184.667 986.002 185.333 986.002 185.917L986.252 188.333L988.002 186.75Z" fill="black"/>
<path d="M987.253 184.583C986.003 183.333 985.42 182.083 986.586 180.833C987.836 179.584 989.086 180.25 990.336 181.5C991.503 182.667 992.169 184 991.003 185.25C989.669 186.416 988.419 185.75 987.253 184.583ZM989.669 182.083C988.836 181.25 987.92 180.667 987.17 181.417C986.42 182.167 987.003 183.083 987.836 183.916C988.67 184.75 989.586 185.333 990.336 184.583C991.086 183.916 990.503 183 989.669 182.083Z" fill="black"/>
<path d="M995.254 179.583L995.837 180.167L993.087 182.916L992.754 182.583L992.421 179.083C992.338 178.5 992.254 178 992.004 177.834C991.588 177.417 991.088 177.5 990.671 177.917C990.254 178.333 990.171 178.917 990.504 179.333L989.838 179.75C989.255 179 989.338 178 990.088 177.25C990.921 176.417 991.921 176.417 992.671 177.167C993.004 177.5 993.254 178.167 993.254 178.75L993.504 181.167L995.254 179.583Z" fill="black"/>
<path d="M994.415 177.333C993.165 176.083 992.582 174.833 993.748 173.583C994.998 172.334 996.248 173 997.498 174.25C998.665 175.417 999.331 176.75 998.165 178C996.915 179.166 995.665 178.583 994.415 177.333ZM996.915 174.917C996.082 174.083 995.165 173.5 994.415 174.25C993.665 175 994.248 175.917 995.082 176.75C995.915 177.583 996.831 178.166 997.581 177.416C998.331 176.666 997.748 175.75 996.915 174.917Z" fill="black"/>
<path d="M458.333 217.583H455.417V226H453.917V217.583H451V216.25H458.25V217.583H458.333Z" fill="black"/>
<path d="M459.418 217C459.418 216.5 459.835 216.083 460.335 216.083C460.835 216.083 461.251 216.5 461.251 217C461.251 217.5 460.835 217.917 460.335 217.917C459.835 217.833 459.418 217.5 459.418 217ZM459.668 219.417H461.085V226H459.668V219.417Z" fill="black"/>
<path d="M473.581 222.25V226H472.165V222.333C472.165 221.25 471.581 220.583 470.665 220.583C469.748 220.583 469.081 221.25 468.998 222.25V226H467.581V222.333C467.581 221.25 466.998 220.583 466.165 220.583C465.331 220.583 464.415 221.083 464.415 222.417V225.917H462.998V219.333H464.415V220.417C464.748 219.667 465.581 219.25 466.498 219.25C467.415 219.25 468.248 219.75 468.665 220.583C469.248 219.5 470.331 219.25 470.915 219.25C472.665 219.25 473.581 220.333 473.581 222.25Z" fill="black"/>
<path d="M481.834 223.25H476.584C476.751 224.333 477.584 224.833 478.668 224.833C479.418 224.833 480.167 224.499 480.501 223.916L481.584 224.499C481.001 225.583 479.834 226.166 478.584 226.166C476.668 226.166 475.168 224.833 475.168 222.666C475.168 220.5 476.668 219.25 478.584 219.25C480.501 219.25 481.917 220.583 481.917 222.666C481.834 222.833 481.834 223 481.834 223.25ZM480.417 222.166C480.251 221.166 479.501 220.583 478.501 220.583C477.501 220.583 476.751 221.083 476.501 222.166H480.417Z" fill="black"/>
<path d="M486.746 217C486.746 216.5 487.163 216.083 487.663 216.083C488.163 216.083 488.579 216.5 488.579 217C488.579 217.5 488.163 217.917 487.663 217.917C487.163 217.833 486.746 217.5 486.746 217ZM486.996 219.417H488.413V226H486.996V219.417Z" fill="black"/>
<path d="M496.669 222.25V225.999H495.253V222.333C495.253 221.25 494.586 220.667 493.753 220.667C492.92 220.667 491.836 221.166 491.836 222.5V225.999H490.42V219.417H491.836V220.417C492.253 219.583 493.253 219.25 494.003 219.25C495.669 219.25 496.669 220.333 496.669 222.25Z" fill="black"/>
<path d="M511.833 219.417L509.416 226H508.249L506.499 221.25L504.833 226H503.666L501.166 219.417H502.666L504.249 223.917L505.833 219.417H507.166L508.749 223.917L510.333 219.417H511.833Z" fill="black"/>
<path d="M519.25 223.25H514.001C514.167 224.333 515 224.833 516.084 224.833C516.834 224.833 517.583 224.499 517.917 223.916L519 224.499C518.417 225.583 517.25 226.166 516 226.166C514.084 226.166 512.584 224.833 512.584 222.666C512.584 220.5 514.084 219.25 516 219.25C517.917 219.25 519.333 220.583 519.333 222.666C519.25 222.833 519.25 223 519.25 223.25ZM517.917 222.166C517.75 221.166 517 220.583 516 220.583C515 220.583 514.25 221.083 514.001 222.166H517.917Z" fill="black"/>
<path d="M527.164 223.25H521.915C522.081 224.333 522.914 224.833 523.998 224.833C524.748 224.833 525.498 224.499 525.831 223.916L526.914 224.499C526.331 225.583 525.164 226.166 523.914 226.166C521.998 226.166 520.498 224.833 520.498 222.666C520.498 220.5 521.998 219.25 523.914 219.25C525.831 219.25 527.247 220.583 527.247 222.666C527.164 222.833 527.164 223 527.164 223.25ZM525.831 222.166C525.664 221.166 524.914 220.583 523.914 220.583C522.914 220.583 522.165 221.083 521.915 222.166H525.831Z" fill="black"/>
<path d="M533.085 226L530.169 222.834V226H528.752V215.833H530.169V221.667L532.335 219.417H534.252L531.502 222.25L534.919 226H533.085Z" fill="black"/>
<path d="M535.166 223.999H536.416C536.416 224.499 536.916 224.999 537.666 224.999C538.416 224.999 538.916 224.666 538.916 224.166C538.916 223.749 538.582 223.499 538.082 223.416L537.166 223.166C535.916 222.833 535.333 222.166 535.333 221.25C535.333 220.166 536.333 219.333 537.666 219.333C538.832 219.333 539.999 219.917 539.999 221.333H538.666C538.666 220.833 538.166 220.5 537.666 220.5C537.082 220.5 536.666 220.833 536.666 221.333C536.666 221.75 537.082 222 537.499 222.083L538.499 222.333C539.916 222.666 540.249 223.583 540.249 224.249C540.249 225.499 538.999 226.249 537.666 226.249C536.499 226.166 535.166 225.333 535.166 223.999Z" fill="black"/>
<path d="M25.4192 159.333H24.5859V167.666H25.4192V159.333Z" fill="black"/>
<path d="M50.4153 159.333H49.582V167.666H50.4153V159.333Z" fill="black"/>
<path d="M75.4172 159.333H74.584V167.666H75.4172V159.333Z" fill="black"/>
<path d="M100.419 159.333H99.5859V167.666H100.419V159.333Z" fill="black"/>
<path d="M125.415 159.333H124.582V167.666H125.415V159.333Z" fill="black"/>
<path d="M150.417 159.333H149.584V167.666H150.417V159.333Z" fill="black"/>
<path d="M175.419 159.333H174.586V167.666H175.419V159.333Z" fill="black"/>
<path d="M200.415 159.333H199.582V167.666H200.415V159.333Z" fill="black"/>
<path d="M225.415 159.333H224.582V167.666H225.415V159.333Z" fill="black"/>
<path d="M250.415 159.333H249.582V167.666H250.415V159.333Z" fill="black"/>
<path d="M275.417 159.333H274.584V167.666H275.417V159.333Z" fill="black"/>
<path d="M300.419 159.333H299.586V167.666H300.419V159.333Z" fill="black"/>
<path d="M325.415 159.333H324.582V167.666H325.415V159.333Z" fill="black"/>
<path d="M350.415 159.333H349.582V167.666H350.415V159.333Z" fill="black"/>
<path d="M375.417 159.333H374.584V167.666H375.417V159.333Z" fill="black"/>
<path d="M400.419 159.333H399.586V167.666H400.419V159.333Z" fill="black"/>
<path d="M425.419 159.333H424.586V167.666H425.419V159.333Z" fill="black"/>
<path d="M450.419 159.333H449.586V167.666H450.419V159.333Z" fill="black"/>
<path d="M475.411 159.333H474.578V167.666H475.411V159.333Z" fill="black"/>
<path d="M500.417 159.333H499.584V167.666H500.417V159.333Z" fill="black"/>
<path d="M525.415 159.333H524.582V167.666H525.415V159.333Z" fill="black"/>
<path d="M550.415 159.333H549.582V167.666H550.415V159.333Z" fill="black"/>
<path d="M575.417 159.333H574.584V167.666H575.417V159.333Z" fill="black"/>
<path d="M600.415 159.333H599.582V167.666H600.415V159.333Z" fill="black"/>
<path d="M625.419 159.333H624.586V167.666H625.419V159.333Z" fill="black"/>
<path d="M650.415 159.333H649.582V167.666H650.415V159.333Z" fill="black"/>
<path d="M675.415 159.333H674.582V167.666H675.415V159.333Z" fill="black"/>
<path d="M700.421 159.333H699.588V167.666H700.421V159.333Z" fill="black"/>
<path d="M725.423 159.333H724.59V167.666H725.423V159.333Z" fill="black"/>
<path d="M750.423 159.333H749.59V167.666H750.423V159.333Z" fill="black"/>
<path d="M775.411 159.333H774.578V167.666H775.411V159.333Z" fill="black"/>
<path d="M800.413 159.333H799.58V167.666H800.413V159.333Z" fill="black"/>
<path d="M825.419 159.333H824.586V167.666H825.419V159.333Z" fill="black"/>
<path d="M850.419 159.333H849.586V167.666H850.419V159.333Z" fill="black"/>
<path d="M875.419 159.333H874.586V167.666H875.419V159.333Z" fill="black"/>
<path d="M900.415 159.333H899.582V167.666H900.415V159.333Z" fill="black"/>
<path d="M925.417 159.333H924.584V167.666H925.417V159.333Z" fill="black"/>
<path d="M950.419 159.333H949.586V167.666H950.419V159.333Z" fill="black"/>
<path d="M975.419 159.333H974.586V167.666H975.419V159.333Z" fill="black"/>
<path d="M1000.42 159.333H999.584V167.666H1000.42V159.333Z" fill="black"/>
<path d="M1025.42 159.333H1024.58V167.666H1025.42V159.333Z" fill="black"/>
<path d="M75.0013 159.417C74.918 159.417 74.918 159.333 74.918 159.333V1.00008C74.918 0.916748 75.0013 0.916748 75.0013 0.916748L75.0846 1.00008V159.333C75.0846 159.417 75.0846 159.417 75.0013 159.417Z" fill="#808080"/>
<path d="M24.9974 159.417C24.9141 159.417 24.9141 159.333 24.9141 159.333V0.999838C24.9141 0.916504 24.9974 0.916504 24.9974 0.916504L25.0807 0.999838V159.333C25.0807 159.417 25.0807 159.417 24.9974 159.417Z" fill="#808080"/>
<path d="M49.9987 151.417C49.7487 151.417 49.582 151.25 49.582 151V141C49.582 140.75 49.7487 140.583 49.9987 140.583C50.2487 140.583 50.4154 140.75 50.4154 141V151C50.4154 151.25 50.2487 151.417 49.9987 151.417ZM49.9987 131.417C49.7487 131.417 49.582 131.25 49.582 131V121C49.582 120.75 49.7487 120.583 49.9987 120.583C50.2487 120.583 50.4154 120.75 50.4154 121V131C50.4154 131.25 50.2487 131.417 49.9987 131.417ZM49.9987 111.417C49.7487 111.417 49.582 111.25 49.582 111V101C49.582 100.75 49.7487 100.583 49.9987 100.583C50.2487 100.583 50.4154 100.75 50.4154 101V111C50.4154 111.25 50.2487 111.417 49.9987 111.417ZM49.9987 91.4168C49.7487 91.4168 49.582 91.2502 49.582 91.0002V81.0002C49.582 80.7502 49.7487 80.5835 49.9987 80.5835C50.2487 80.5835 50.4154 80.7502 50.4154 81.0002V91.0002C50.4154 91.2502 50.2487 91.4168 49.9987 91.4168ZM49.9987 71.4168C49.7487 71.4168 49.582 71.2502 49.582 71.0002V61.0002C49.582 60.7502 49.7487 60.5835 49.9987 60.5835C50.2487 60.5835 50.4154 60.7502 50.4154 61.0002V71.0002C50.4154 71.2502 50.2487 71.4168 49.9987 71.4168ZM49.9987 51.4168C49.7487 51.4168 49.582 51.2502 49.582 51.0002V41.0002C49.582 40.7502 49.7487 40.5835 49.9987 40.5835C50.2487 40.5835 50.4154 40.7502 50.4154 41.0002V51.0002C50.4154 51.2502 50.2487 51.4168 49.9987 51.4168ZM49.9987 31.4168C49.7487 31.4168 49.582 31.2502 49.582 31.0002V21.0002C49.582 20.7502 49.7487 20.5835 49.9987 20.5835C50.2487 20.5835 50.4154 20.7502 50.4154 21.0002V31.0002C50.4154 31.2502 50.2487 31.4168 49.9987 31.4168ZM49.9987 11.4168C49.7487 11.4168 49.582 11.2502 49.582 11.0002V1.00016C49.582 0.750163 49.7487 0.583496 49.9987 0.583496C50.2487 0.583496 50.4154 0.750163 50.4154 1.00016V11.0002C50.4154 11.2502 50.2487 11.4168 49.9987 11.4168Z" fill="black"/>
<path d="M99.9974 159.417C99.9141 159.417 99.9141 159.333 99.9141 159.333V1.00008C99.9141 0.916748 99.9974 0.916748 99.9974 0.916748L100.081 1.00008V159.333C100.081 159.417 100.081 159.417 99.9974 159.417Z" fill="#808080"/>
<path d="M124.999 159.417C124.916 159.417 124.916 159.333 124.916 159.333V1.00008C124.916 0.916748 124.999 0.916748 124.999 0.916748L125.083 1.00008V159.333C125.083 159.417 125.083 159.417 124.999 159.417Z" fill="#808080"/>
<path d="M150.001 159.417C149.918 159.417 149.918 159.333 149.918 159.333V1.00008C149.918 0.916748 150.001 0.916748 150.001 0.916748L150.085 1.00008V159.333C150.085 159.417 150.085 159.417 150.001 159.417Z" fill="#808080"/>
<path d="M174.997 159.417C174.914 159.417 174.914 159.333 174.914 159.333V1.00008C174.914 0.916748 174.997 0.916748 174.997 0.916748L175.081 1.00008V159.333C175.081 159.417 175.081 159.417 174.997 159.417Z" fill="#808080"/>
<path d="M199.993 159.417C199.91 159.417 199.91 159.333 199.91 159.333V1.00008C199.91 0.916748 199.993 0.916748 199.993 0.916748L200.077 1.00008V159.333C200.077 159.417 200.077 159.417 199.993 159.417Z" fill="#808080"/>
<path d="M224.997 159.417C224.914 159.417 224.914 159.333 224.914 159.333V1.00008C224.914 0.916748 224.997 0.916748 224.997 0.916748L225.081 1.00008V159.333C225.081 159.417 225.081 159.417 224.997 159.417Z" fill="#808080"/>
<path d="M249.999 159.417C249.916 159.417 249.916 159.333 249.916 159.333V1.00008C249.916 0.916748 249.999 0.916748 249.999 0.916748L250.083 1.00008V159.333C250.083 159.417 250.083 159.417 249.999 159.417Z" fill="#808080"/>
<path d="M275.001 159.417C274.918 159.417 274.918 159.333 274.918 159.333V1.00008C274.918 0.916748 275.001 0.916748 275.001 0.916748L275.085 1.00008V159.333C275.085 159.417 275.085 159.417 275.001 159.417Z" fill="#808080"/>
<path d="M300.001 159.417C299.918 159.417 299.918 159.333 299.918 159.333V1.00008C299.918 0.916748 300.001 0.916748 300.001 0.916748L300.085 1.00008V159.333C300.085 159.417 300.085 159.417 300.001 159.417Z" fill="#808080"/>
<path d="M324.993 159.417C324.91 159.417 324.91 159.333 324.91 159.333V1.00008C324.91 0.916748 324.993 0.916748 324.993 0.916748L325.077 1.00008V159.333C325.077 159.417 325.077 159.417 324.993 159.417Z" fill="#808080"/>
<path d="M349.999 159.417C349.916 159.417 349.916 159.333 349.916 159.333V1.00008C349.916 0.916748 349.999 0.916748 349.999 0.916748L350.083 1.00008V159.333C350.083 159.417 350.083 159.417 349.999 159.417Z" fill="#808080"/>
<path d="M375.001 159.417C374.918 159.417 374.918 159.333 374.918 159.333V1.00008C374.918 0.916748 375.001 0.916748 375.001 0.916748L375.085 1.00008V159.333C375.085 159.417 375.085 159.417 375.001 159.417Z" fill="#808080"/>
<path d="M400.001 159.417C399.918 159.417 399.918 159.333 399.918 159.333V1.00008C399.918 0.916748 400.001 0.916748 400.001 0.916748L400.085 1.00008V159.333C400.085 159.417 400.085 159.417 400.001 159.417Z" fill="#808080"/>
<path d="M425.001 159.417C424.918 159.417 424.918 159.333 424.918 159.333V1.00008C424.918 0.916748 425.001 0.916748 425.001 0.916748L425.085 1.00008V159.333C425.085 159.417 425.085 159.417 425.001 159.417Z" fill="#808080"/>
<path d="M449.993 159.417C449.91 159.417 449.91 159.333 449.91 159.333V1.00008C449.91 0.916748 449.993 0.916748 449.993 0.916748L450.077 1.00008V159.333C450.077 159.417 450.077 159.417 449.993 159.417Z" fill="#808080"/>
<path d="M499.997 159.417C499.914 159.417 499.914 159.333 499.914 159.333V1.00008C499.914 0.916748 499.997 0.916748 499.997 0.916748L500.081 1.00008V159.333C500.081 159.417 500.081 159.417 499.997 159.417Z" fill="#808080"/>
<path d="M474.999 159.417C474.916 159.417 474.916 159.333 474.916 159.333V1.00008C474.916 0.916748 474.999 0.916748 474.999 0.916748L475.083 1.00008V159.333C475.083 159.417 475.083 159.417 474.999 159.417Z" fill="#808080"/>
<path d="M524.997 159.417C524.914 159.417 524.914 159.333 524.914 159.333V1.00008C524.914 0.916748 524.997 0.916748 524.997 0.916748L525.081 1.00008V159.333C525.081 159.417 525.081 159.417 524.997 159.417Z" fill="#808080"/>
<path d="M549.999 159.417C549.916 159.417 549.916 159.333 549.916 159.333V1.00008C549.916 0.916748 549.999 0.916748 549.999 0.916748L550.083 1.00008V159.333C550.083 159.417 550.083 159.417 549.999 159.417Z" fill="#808080"/>
<path d="M574.997 159.417C574.914 159.417 574.914 159.333 574.914 159.333V1.00008C574.914 0.916748 574.997 0.916748 574.997 0.916748L575.081 1.00008V159.333C575.081 159.417 575.081 159.417 574.997 159.417Z" fill="#808080"/>
<path d="M600.001 159.417C599.918 159.417 599.918 159.333 599.918 159.333V1.00008C599.918 0.916748 600.001 0.916748 600.001 0.916748L600.085 1.00008V159.333C600.085 159.417 600.085 159.417 600.001 159.417Z" fill="#808080"/>
<path d="M624.997 159.417C624.914 159.417 624.914 159.333 624.914 159.333V1.00008C624.914 0.916748 624.997 0.916748 624.997 0.916748L625.081 1.00008V159.333C625.081 159.417 625.081 159.417 624.997 159.417Z" fill="#808080"/>
<path d="M649.997 159.417C649.914 159.417 649.914 159.333 649.914 159.333V1.00008C649.914 0.916748 649.997 0.916748 649.997 0.916748L650.081 1.00008V159.333C650.081 159.417 650.081 159.417 649.997 159.417Z" fill="#808080"/>
<path d="M674.999 159.417C674.916 159.417 674.916 159.333 674.916 159.333V1.00008C674.916 0.916748 674.999 0.916748 674.999 0.916748L675.083 1.00008V159.333C675.083 159.417 675.083 159.417 674.999 159.417Z" fill="#808080"/>
<path d="M700.005 159.417C699.922 159.417 699.922 159.333 699.922 159.333V1.00008C699.922 0.916748 700.005 0.916748 700.005 0.916748L700.089 1.00008V159.333C700.089 159.417 700.089 159.417 700.005 159.417Z" fill="#808080"/>
<path d="M725.001 159.417C724.918 159.417 724.918 159.333 724.918 159.333V1.00008C724.918 0.916748 725.001 0.916748 725.001 0.916748L725.085 1.00008V159.333C725.085 159.417 725.085 159.417 725.001 159.417Z" fill="#808080"/>
<path d="M749.993 159.417C749.91 159.417 749.91 159.333 749.91 159.333V1.00008C749.91 0.916748 749.993 0.916748 749.993 0.916748L750.077 1.00008V159.333C750.077 159.417 750.077 159.417 749.993 159.417Z" fill="#808080"/>
<path d="M774.995 159.417C774.912 159.417 774.912 159.333 774.912 159.333V1.00008C774.912 0.916748 774.995 0.916748 774.995 0.916748L775.079 1.00008V159.333C775.079 159.417 775.079 159.417 774.995 159.417Z" fill="#808080"/>
<path d="M799.997 159.417C799.914 159.417 799.914 159.333 799.914 159.333V1.00008C799.914 0.916748 799.997 0.916748 799.997 0.916748L800.081 1.00008V159.333C800.081 159.417 800.081 159.417 799.997 159.417Z" fill="#808080"/>
<path d="M825.001 159.417C824.918 159.417 824.918 159.333 824.918 159.333V1.00008C824.918 0.916748 825.001 0.916748 825.001 0.916748L825.085 1.00008V159.333C825.085 159.417 825.085 159.417 825.001 159.417Z" fill="#808080"/>
<path d="M849.997 159.417C849.914 159.417 849.914 159.333 849.914 159.333V1.00008C849.914 0.916748 849.997 0.916748 849.997 0.916748L850.081 1.00008V159.333C850.081 159.417 850.081 159.417 849.997 159.417Z" fill="#808080"/>
<path d="M874.997 159.417C874.914 159.417 874.914 159.333 874.914 159.333V1.00008C874.914 0.916748 874.997 0.916748 874.997 0.916748L875.081 1.00008V159.333C875.081 159.417 875.081 159.417 874.997 159.417Z" fill="#808080"/>
<path d="M899.999 159.417C899.916 159.417 899.916 159.333 899.916 159.333V1.00008C899.916 0.916748 899.999 0.916748 899.999 0.916748L900.083 1.00008V159.333C900.083 159.417 900.083 159.417 899.999 159.417Z" fill="#808080"/>
<path d="M925.001 159.417C924.918 159.417 924.918 159.333 924.918 159.333V1.00008C924.918 0.916748 925.001 0.916748 925.001 0.916748L925.085 1.00008V159.333C925.085 159.417 925.085 159.417 925.001 159.417Z" fill="#808080"/>
<path d="M950.001 159.417C949.918 159.417 949.918 159.333 949.918 159.333V1.00008C949.918 0.916748 950.001 0.916748 950.001 0.916748L950.085 1.00008V159.333C950.085 159.417 950.085 159.417 950.001 159.417Z" fill="#808080"/>
<path d="M974.999 159.417C974.916 159.417 974.916 159.333 974.916 159.333V1.00008C974.916 0.916748 974.999 0.916748 974.999 0.916748L975.083 1.00008V159.333C975.083 159.417 975.083 159.417 974.999 159.417Z" fill="#808080"/>
<path d="M999.997 159.417C999.914 159.417 999.914 159.333 999.914 159.333V1.00008C999.914 0.916748 999.997 0.916748 999.997 0.916748L1000.08 1.00008V159.333C1000.08 159.417 1000.08 159.417 999.997 159.417Z" fill="#808080"/>
<path d="M1025 159.417C1024.91 159.417 1024.91 159.333 1024.91 159.333V1.00008C1024.91 0.916748 1025 0.916748 1025 0.916748L1025.08 1.00008V159.333C1025.08 159.417 1025.08 159.417 1025 159.417Z" fill="#808080"/>
</svg>
